<svg width="73" height="74" viewBox="0 0 73 74" fill="none" xmlns="http://www.w3.org/2000/svg">
<path d="M36.9711 2.33843L36.4904 1.9892L36.0098 2.33843L2.25636 26.8617L1.7757 27.2109L1.9593 27.776L14.8519 67.4555L15.0355 68.0205H15.6297H57.3512H57.9453L58.1289 67.4555L71.0215 27.776L71.2051 27.2109L70.7245 26.8617L36.9711 2.33843Z" fill="#F7DF63" stroke="white" stroke-width="1.6355"/>
<path d="M49.9021 43.7075C50.1203 43.5118 50.288 43.2662 50.3909 42.9917C50.4939 42.7172 50.529 42.422 50.4933 42.131C50.4654 41.8643 50.3592 41.6119 50.1879 41.4055C50.0167 41.1992 49.7881 41.0483 49.5311 40.9718C49.3162 41.1675 49.1505 41.4113 49.0478 41.6833C48.945 41.9553 48.9081 42.2477 48.9399 42.5367C48.9671 42.805 49.0729 43.0592 49.2441 43.2675C49.4152 43.4758 49.6442 43.6289 49.9021 43.7075ZM50.6092 44.3451C50.3726 44.5428 50.1869 44.7944 50.0679 45.0789C49.9489 45.3633 49.9 45.6722 49.9253 45.9795C50.2255 46.0059 50.5279 45.9683 50.8126 45.8693C51.0972 45.7702 51.3577 45.612 51.5767 45.405C51.7958 45.198 51.9685 44.9469 52.0834 44.6683C52.1984 44.3897 52.253 44.0899 52.2437 43.7886C51.9467 43.7486 51.6446 43.778 51.361 43.8745C51.0773 43.9711 50.82 44.1322 50.6092 44.3451ZM49.6355 45.9216C49.7124 45.6444 49.7108 45.3514 49.631 45.0751C49.5512 44.7988 49.3962 44.5501 49.1834 44.3567C48.9705 44.1599 48.7081 44.0246 48.4243 43.9654C48.1405 43.9062 47.8459 43.9253 47.5721 44.0205C47.4911 44.2964 47.4894 44.5895 47.5673 44.8663C47.6452 45.1431 47.7995 45.3923 48.0126 45.5854C48.2279 45.7821 48.4923 45.9171 48.7779 45.9763C49.0635 46.0354 49.3597 46.0165 49.6355 45.9216ZM49.6471 47.927C49.3584 48.109 49.1161 48.3556 48.939 48.6472C48.762 48.9389 48.6552 49.2678 48.627 49.6078C48.9457 49.7081 49.2839 49.7298 49.6129 49.6713C49.9419 49.6128 50.2518 49.4757 50.5165 49.2716C50.8033 49.0877 51.0443 48.8406 51.221 48.5493C51.3978 48.258 51.5057 47.9302 51.5365 47.5908C51.2182 47.4876 50.8793 47.4642 50.5498 47.5228C50.2203 47.5815 49.9103 47.7203 49.6471 47.927ZM48.3256 49.4803C48.457 49.1927 48.5082 48.8748 48.4735 48.5605C48.4388 48.2462 48.3196 47.9471 48.1285 47.6951C47.9393 47.4447 47.6837 47.2522 47.3908 47.1395C47.0978 47.0269 46.7791 46.9985 46.4709 47.0576C46.3328 47.3411 46.274 47.6567 46.3005 47.9709C46.327 48.2851 46.438 48.5864 46.6216 48.8427C46.8144 49.1013 47.0777 49.299 47.3798 49.412C47.682 49.5251 48.0103 49.5488 48.3256 49.4803ZM48.6501 51.648C48.2956 51.7854 47.9763 52.0004 47.7155 52.2772C47.4548 52.554 47.2592 52.8856 47.1432 53.2477C47.4424 53.4401 47.7859 53.5528 48.1409 53.5752C48.496 53.5975 48.8508 53.5286 49.1718 53.3752C49.5263 53.2378 49.8457 53.0228 50.1064 52.746C50.3672 52.4692 50.5627 52.1376 50.6787 51.7755C50.3808 51.5799 50.0371 51.4653 49.6813 51.4429C49.3256 51.4205 48.9702 51.4912 48.6501 51.648ZM45.3348 51.903C45.4479 52.2251 45.6533 52.5068 45.9254 52.7129C46.1975 52.9191 46.5243 53.0405 46.865 53.0622C47.0787 52.7751 47.2172 52.4391 47.2679 52.0848C47.3185 51.7304 47.2796 51.3691 47.1548 51.0336C47.0396 50.7106 46.8321 50.4286 46.558 50.2225C46.2839 50.0164 45.9553 49.8954 45.6131 49.8744C45.3983 50.1611 45.26 50.4978 45.2113 50.8527C45.1627 51.2076 45.2052 51.5691 45.3348 51.903ZM46.6216 54.7315C46.2523 54.827 45.9089 55.0035 45.6162 55.2481C45.3235 55.4927 45.0888 55.7993 44.9291 56.1457C45.1903 56.3811 45.5099 56.542 45.8546 56.6113C46.1993 56.6807 46.5563 56.656 46.8882 56.5398C47.2584 56.447 47.6035 56.273 47.8982 56.0304C48.1929 55.7878 48.43 55.4827 48.5922 55.1372C48.3292 54.9009 48.0081 54.7388 47.6618 54.6675C47.3155 54.5962 46.9565 54.6183 46.6216 54.7315ZM43.9554 52.5406C43.7045 52.8031 43.5225 53.1235 43.4254 53.4734C43.3283 53.8233 43.3192 54.1918 43.399 54.546C43.4641 54.8777 43.6251 55.183 43.8621 55.4241C44.099 55.6652 44.4015 55.8314 44.7321 55.9023C44.975 55.6368 45.1528 55.3184 45.2513 54.9724C45.3499 54.6263 45.3666 54.2621 45.3001 53.9084C45.2362 53.5731 45.0744 53.2641 44.8351 53.0207C44.5957 52.7772 44.2896 52.6102 43.9554 52.5406ZM43.7815 57.5831C43.3713 57.55 42.959 57.6123 42.5769 57.7651C42.1948 57.918 41.8533 58.1572 41.579 58.4641C41.714 58.8194 41.9511 59.1269 42.2606 59.3476C42.57 59.5684 42.9379 59.6925 43.3178 59.7044C43.729 59.7361 44.1419 59.672 44.524 59.5171C44.9062 59.3622 45.2472 59.1208 45.5203 58.8118C45.3823 58.4595 45.144 58.1553 44.835 57.9369C44.526 57.7186 44.1597 57.5955 43.7815 57.5831ZM40.6981 56.0993C40.6183 56.4706 40.647 56.8571 40.7806 57.2126C40.9141 57.5681 41.147 57.8778 41.4515 58.1047C41.8122 57.8961 42.1207 57.6082 42.3536 57.2628C42.5866 56.9173 42.7379 56.5235 42.7962 56.1109C42.873 55.7396 42.843 55.3541 42.7097 54.9992C42.5763 54.6442 42.3451 54.3343 42.0427 54.1055C41.6821 54.3141 41.3736 54.602 41.1406 54.9475C40.9077 55.2929 40.7563 55.6868 40.6981 56.0993ZM40.0721 59.5305C39.622 59.4929 39.1694 59.5614 38.7507 59.7305C38.3319 59.8996 37.9587 60.1646 37.661 60.5043C37.814 60.8872 38.0753 61.2172 38.4129 61.454C38.7506 61.6907 39.1499 61.824 39.562 61.8373C40.0135 61.8714 40.4667 61.8013 40.8867 61.6325C41.3068 61.4637 41.6825 61.2006 41.9848 60.8636C41.831 60.4789 41.5679 60.1477 41.228 59.9108C40.8881 59.6739 40.4863 59.5417 40.0721 59.5305ZM38.994 57.9193C39.0833 57.5119 39.0531 57.0874 38.9071 56.6967C38.7611 56.3061 38.5055 55.9658 38.171 55.7168C37.773 55.9418 37.4322 56.2554 37.1749 56.6334C36.9176 57.0113 36.7508 57.4433 36.6872 57.8961C36.6042 58.3052 36.6373 58.7293 36.7827 59.1206C36.9282 59.5118 37.1802 59.8546 37.5103 60.1101C37.9074 59.8812 38.2473 59.565 38.5044 59.1855C38.7614 58.806 38.9288 58.373 38.994 57.9193ZM23.4376 42.5367C23.4714 42.2459 23.4354 41.9512 23.3326 41.677C23.2298 41.4029 23.0631 41.1571 22.8464 40.9602C22.5894 41.0367 22.3609 41.1876 22.1896 41.3939C22.0184 41.6003 21.9121 41.8527 21.8843 42.1194C21.8486 42.4104 21.8837 42.7057 21.9866 42.9801C22.0895 43.2546 22.2573 43.5002 22.4755 43.6959C22.7317 43.6181 22.9595 43.4668 23.1305 43.2607C23.3015 43.0546 23.4083 42.8029 23.4376 42.5367ZM22.4523 45.9795C22.4776 45.6722 22.4287 45.3633 22.3096 45.0789C22.1906 44.7944 22.005 44.5428 21.7684 44.3451C21.5527 44.1253 21.2876 43.9602 20.9953 43.8634C20.703 43.7667 20.3918 43.741 20.0875 43.7886C20.0622 44.0959 20.1112 44.4048 20.2302 44.6893C20.3492 44.9737 20.5349 45.2254 20.7715 45.4231C20.9861 45.6444 21.251 45.8106 21.5436 45.9075C21.8363 46.0044 22.148 46.0291 22.4523 45.9795ZM22.7421 45.9216C23.0179 46.0165 23.3141 46.0354 23.5997 45.9763C23.8853 45.9171 24.1496 45.7821 24.365 45.5854C24.578 45.3923 24.7323 45.1431 24.8102 44.8663C24.8882 44.5895 24.8865 44.2964 24.8055 44.0205C24.5316 43.9253 24.2371 43.9062 23.9533 43.9654C23.6695 44.0246 23.4071 44.1599 23.1942 44.3567C22.9813 44.5501 22.8264 44.7988 22.7466 45.0751C22.6667 45.3514 22.6652 45.6444 22.7421 45.9216ZM23.7506 49.6078C23.7224 49.2678 23.6156 48.9389 23.4385 48.6472C23.2615 48.3556 23.0191 48.109 22.7305 47.927C22.4663 47.7222 22.1557 47.5855 21.8263 47.5289C21.4968 47.4723 21.1585 47.4976 20.841 47.6024C20.8735 47.9397 20.9822 48.2653 21.1589 48.5544C21.3357 48.8436 21.5758 49.0888 21.8611 49.2716C22.1257 49.4757 22.4357 49.6128 22.7647 49.6713C23.0936 49.7298 23.4319 49.7081 23.7506 49.6078ZM24.052 49.4803C24.3673 49.5488 24.6956 49.5251 24.9977 49.412C25.2999 49.299 25.5631 49.1013 25.756 48.8427C25.9471 48.5907 26.0663 48.2917 26.101 47.9774C26.1357 47.663 26.0845 47.3452 25.9531 47.0576C25.6448 46.9985 25.3261 47.0269 25.0332 47.1395C24.7402 47.2522 24.4846 47.4447 24.2954 47.6951C24.0968 47.9427 23.9693 48.2395 23.9264 48.554C23.8835 48.8684 23.9269 49.1886 24.052 49.4803ZM25.2344 53.2477C25.1183 52.8856 24.9228 52.554 24.6621 52.2772C24.4013 52.0004 24.082 51.7854 23.7274 51.648C23.4073 51.4912 23.0519 51.4205 22.6962 51.4429C22.3405 51.4653 21.9968 51.5799 21.6988 51.7755C21.8149 52.1376 22.0104 52.4692 22.2711 52.746C22.5319 53.0228 22.8512 53.2378 23.2058 53.3752C23.5267 53.5286 23.8816 53.5975 24.2367 53.5752C24.5917 53.5528 24.9352 53.4401 25.2344 53.2477ZM25.2228 51.0104C25.098 51.3459 25.0591 51.7073 25.1097 52.0616C25.1603 52.4159 25.2988 52.7519 25.5126 53.039C25.8533 53.0174 26.18 52.8959 26.4521 52.6897C26.7242 52.4836 26.9296 52.2019 27.0427 51.8798C27.1724 51.5459 27.2149 51.1844 27.1662 50.8295C27.1175 50.4746 26.9793 50.1379 26.7645 49.8512C26.4222 49.8722 26.0937 49.9932 25.8196 50.1993C25.5455 50.4054 25.338 50.6874 25.2228 51.0104ZM25.756 54.7315C25.4211 54.6183 25.0621 54.5962 24.7158 54.6675C24.3695 54.7388 24.0484 54.9009 23.7854 55.1372C23.9476 55.4827 24.1847 55.7878 24.4794 56.0304C24.7741 56.273 25.1191 56.447 25.4894 56.5398C25.8213 56.656 26.1783 56.6807 26.5229 56.6113C26.8676 56.542 27.1873 56.3811 27.4484 56.1457C27.2888 55.7993 27.0541 55.4927 26.7614 55.2481C26.4687 55.0035 26.1253 54.827 25.756 54.7315ZM27.6455 55.9023C27.976 55.8314 28.2785 55.6652 28.5155 55.4241C28.7525 55.183 28.9135 54.8777 28.9786 54.546C29.0583 54.1918 29.0493 53.8233 28.9522 53.4734C28.8551 53.1235 28.673 52.8031 28.4222 52.5406C28.0879 52.6102 27.7818 52.7772 27.5425 53.0207C27.3032 53.2641 27.1414 53.5731 27.0775 53.9084C27.011 54.2621 27.0276 54.6263 27.1262 54.9724C27.2248 55.3184 27.4026 55.6368 27.6455 55.9023ZM30.7985 58.4641C30.5243 58.1572 30.1828 57.918 29.8007 57.7651C29.4186 57.6123 29.0063 57.55 28.596 57.5831C28.2257 57.5897 27.865 57.7024 27.5568 57.9079C27.2486 58.1134 27.0058 58.403 26.8572 58.7423C27.1303 59.0513 27.4714 59.2927 27.8535 59.4475C28.2357 59.6024 28.6486 59.6665 29.0597 59.6349C29.4317 59.6287 29.7939 59.5148 30.1025 59.307C30.4111 59.0992 30.6529 58.8064 30.7985 58.4641ZM30.926 58.1047C31.2305 57.8778 31.4634 57.5681 31.597 57.2126C31.7306 56.8571 31.7592 56.4706 31.6795 56.0993C31.6277 55.6919 31.4852 55.3014 31.2625 54.9563C31.0398 54.6113 30.7427 54.3205 30.3928 54.1055C30.0905 54.3343 29.8592 54.6442 29.7258 54.9992C29.5925 55.3541 29.5625 55.7396 29.6393 56.1109C29.6911 56.5183 29.8336 56.9089 30.0563 57.2539C30.279 57.5989 30.5762 57.8897 30.926 58.1047ZM30.3928 60.8636C30.694 61.2027 31.0691 61.4679 31.4893 61.6388C31.9094 61.8097 32.3632 61.8816 32.8155 61.8489C33.2277 61.8356 33.627 61.7023 33.9646 61.4656C34.3023 61.2288 34.5636 60.8988 34.7166 60.5159C34.4189 60.1762 34.0457 59.9112 33.6269 59.7421C33.2081 59.573 32.7555 59.5045 32.3055 59.5421C31.8926 59.5523 31.4917 59.6828 31.152 59.9175C30.8122 60.1523 30.5484 60.4811 30.3928 60.8636ZM34.2066 55.7168C33.872 55.9658 33.6165 56.3061 33.4705 56.6967C33.3245 57.0874 33.2943 57.5119 33.3835 57.9193C33.4487 58.373 33.6162 58.806 33.8732 59.1855C34.1302 59.565 34.4702 59.8812 34.8673 60.1101C35.1974 59.8546 35.4494 59.5118 35.5948 59.1206C35.7403 58.7293 35.7733 58.3052 35.6903 57.8961C35.6268 57.4433 35.4599 57.0113 35.2026 56.6334C34.9453 56.2554 34.6045 55.9418 34.2066 55.7168Z" fill="black"/>
<path d="M37.7761 41.5631L36.188 38.3406L34.5999 41.5631L31.0527 42.0732L33.6262 44.5771L33.0118 48.1126L36.188 46.4434L39.3642 48.1126L38.7498 44.5771L41.3232 42.0732L37.7761 41.5631Z" fill="black"/>
<path d="M45.5903 43.4758C45.5903 41.6164 45.0389 39.7988 44.0059 38.2528C42.9729 36.7068 41.5046 35.5019 39.7868 34.7903C38.069 34.0788 36.1787 33.8926 34.3551 34.2554C32.5315 34.6181 30.8564 35.5135 29.5416 36.8282C28.2268 38.143 27.3315 39.8181 26.9687 41.6417C26.606 43.4654 26.7922 45.3556 27.5037 47.0734C28.2153 48.7913 29.4202 50.2595 30.9662 51.2925C32.5122 52.3255 34.3298 52.8769 36.1892 52.8769C38.6816 52.8738 41.071 51.8824 42.8334 50.12C44.5957 48.3576 45.5872 45.9682 45.5903 43.4758ZM36.1892 50.5585C34.7884 50.5585 33.419 50.1431 32.2542 49.3648C31.0895 48.5866 30.1817 47.4804 29.6456 46.1862C29.1095 44.892 28.9693 43.4679 29.2426 42.094C29.5159 40.7201 30.1904 39.4581 31.181 38.4676C32.1715 37.477 33.4335 36.8025 34.8074 36.5292C36.1813 36.2559 37.6054 36.3962 38.8996 36.9322C40.1938 37.4683 41.3 38.3761 42.0782 39.5409C42.8565 40.7056 43.2719 42.075 43.2719 43.4758C43.2688 45.3533 42.5216 47.153 41.194 48.4806C39.8664 49.8082 38.0667 50.5554 36.1892 50.5585Z" fill="black"/>
<path d="M27.5929 26.5334L27.0034 25.3344C26.9732 25.2728 26.9142 25.2422 26.8554 25.2424C26.797 25.2427 26.7387 25.2733 26.7087 25.3344L26.1192 26.5334L24.801 26.7257C24.6662 26.7453 24.6124 26.9115 24.71 27.007L25.6638 27.9403L25.4386 29.2581C25.4204 29.3647 25.5048 29.4512 25.6005 29.4513C25.6258 29.4513 25.6519 29.4453 25.6771 29.432L26.8561 28.8098L28.0351 29.432C28.0558 29.4429 28.0772 29.4489 28.0982 29.4507C28.1073 29.4515 28.1163 29.4515 28.1252 29.4507C28.2151 29.443 28.2909 29.3596 28.2735 29.2581L28.0483 27.9403L29.0022 27.007C29.0997 26.9115 29.0459 26.7453 28.9111 26.7257L27.5929 26.5334Z" fill="black"/>
<path d="M37.4064 26.5334L36.8169 25.3344C36.7867 25.2728 36.7277 25.2422 36.6689 25.2424C36.6105 25.2427 36.5522 25.2733 36.5222 25.3344L35.9327 26.5334L34.6145 26.7257C34.4797 26.7453 34.4259 26.9115 34.5234 27.007L35.4773 27.9403L35.2521 29.2581C35.2339 29.3647 35.3183 29.4512 35.414 29.4513C35.4393 29.4513 35.4653 29.4453 35.4905 29.432L36.6696 28.8098L37.8486 29.432C37.8693 29.4429 37.8906 29.4489 37.9116 29.4507C37.9207 29.4515 37.9298 29.4515 37.9386 29.4507C38.0286 29.443 38.1044 29.3596 38.087 29.2581L37.8618 27.9403L38.8157 27.007C38.9132 26.9115 38.8594 26.7453 38.7246 26.7257L37.4064 26.5334Z" fill="black"/>
<path d="M47.2189 26.5334L46.6294 25.3344C46.5992 25.2728 46.5402 25.2422 46.4814 25.2424C46.423 25.2427 46.3647 25.2733 46.3347 25.3344L45.7452 26.5334L44.427 26.7257C44.2922 26.7453 44.2384 26.9115 44.3359 27.007L45.2898 27.9403L45.0646 29.2581C45.0464 29.3647 45.1308 29.4512 45.2265 29.4513C45.2518 29.4513 45.2778 29.4453 45.303 29.432L46.4821 28.8098L47.6611 29.432C47.6818 29.4429 47.7031 29.4489 47.7241 29.4507C47.7332 29.4515 47.7423 29.4515 47.7511 29.4507C47.8411 29.443 47.9169 29.3596 47.8995 29.2581L47.6743 27.9403L48.6282 27.007C48.7257 26.9115 48.6719 26.7453 48.5371 26.7257L47.2189 26.5334Z" fill="black"/>
<path d="M37.9596 17.3189C37.7821 17.3189 37.6327 17.1742 37.6327 16.9921V15.9413L36.652 14.942L35.6714 15.9413V16.9921C35.6714 17.1695 35.5266 17.3189 35.3445 17.3189C35.167 17.3189 35.0176 17.1742 35.0176 16.9921V15.8573C35.0176 15.7405 35.0643 15.6331 35.1437 15.5491L36.3438 14.3256C36.4279 14.2415 36.5399 14.1948 36.652 14.1948C36.7688 14.1948 36.8762 14.2415 36.9602 14.3256L38.1604 15.5491C38.2398 15.6331 38.2865 15.7405 38.2865 15.8573V16.9921C38.2865 17.1695 38.1417 17.3189 37.9596 17.3189Z" fill="black"/>
<path d="M38.5474 19.3552H34.7602C33.8215 19.3552 33.0557 18.5893 33.0557 17.6507V13.8634C33.0557 12.9248 33.8215 12.1589 34.7602 12.1589H38.5521C39.4907 12.1589 40.2566 12.9248 40.2566 13.8634V17.6553C40.2519 18.5893 39.486 19.3552 38.5474 19.3552ZM34.7602 12.808C34.1811 12.808 33.7094 13.2797 33.7094 13.8588V17.6507C33.7094 18.2297 34.1811 18.7014 34.7602 18.7014H38.5521C39.1311 18.7014 39.6028 18.2297 39.6028 17.6507V13.8634C39.6028 13.2844 39.1311 12.8127 38.5521 12.8127H34.7602V12.808Z" fill="black"/>
</svg>
