<svg width="73" height="74" viewBox="0 0 73 74" fill="none" xmlns="http://www.w3.org/2000/svg">
<path d="M36.9711 2.33843L36.4904 1.9892L36.0098 2.33843L2.25636 26.8617L1.7757 27.2109L1.9593 27.776L14.8519 67.4555L15.0355 68.0205H15.6297H57.3512H57.9453L58.1289 67.4555L71.0215 27.776L71.2051 27.2109L70.7245 26.8617L36.9711 2.33843Z" fill="#EBEBEB" stroke="white" stroke-width="1.6355"/>
<path d="M49.9016 43.7075C50.1198 43.5118 50.2875 43.2662 50.3905 42.9917C50.4934 42.7172 50.5285 42.422 50.4928 42.131C50.465 41.8643 50.3587 41.6119 50.1875 41.4055C50.0162 41.1992 49.7876 41.0483 49.5306 40.9718C49.3157 41.1675 49.15 41.4113 49.0473 41.6833C48.9445 41.9553 48.9076 42.2477 48.9395 42.5367C48.9666 42.805 49.0724 43.0592 49.2436 43.2675C49.4148 43.4758 49.6437 43.6289 49.9016 43.7075ZM50.6087 44.3451C50.3721 44.5428 50.1865 44.7944 50.0674 45.0789C49.9484 45.3633 49.8995 45.6722 49.9248 45.9795C50.225 46.0059 50.5274 45.9683 50.8121 45.8693C51.0967 45.7702 51.3572 45.612 51.5762 45.405C51.7953 45.198 51.968 44.9469 52.083 44.6683C52.1979 44.3897 52.2525 44.0899 52.2432 43.7886C51.9463 43.7486 51.6441 43.778 51.3605 43.8745C51.0768 43.9711 50.8195 44.1322 50.6087 44.3451ZM49.635 45.9216C49.7119 45.6444 49.7103 45.3514 49.6305 45.0751C49.5507 44.7988 49.3957 44.5501 49.1829 44.3567C48.97 44.1599 48.7076 44.0246 48.4238 43.9654C48.14 43.9062 47.8454 43.9253 47.5716 44.0205C47.4906 44.2964 47.4889 44.5895 47.5668 44.8663C47.6447 45.1431 47.7991 45.3923 48.0121 45.5854C48.2274 45.7821 48.4918 45.9171 48.7774 45.9763C49.063 46.0354 49.3592 46.0165 49.635 45.9216ZM49.6466 47.927C49.358 48.109 49.1156 48.3556 48.9386 48.6472C48.7615 48.9389 48.6547 49.2678 48.6265 49.6078C48.9452 49.7081 49.2835 49.7298 49.6124 49.6713C49.9414 49.6128 50.2514 49.4757 50.516 49.2716C50.8028 49.0877 51.0438 48.8406 51.2206 48.5493C51.3973 48.258 51.5053 47.9302 51.5361 47.5908C51.2177 47.4876 50.8788 47.4642 50.5493 47.5228C50.2198 47.5815 49.9098 47.7203 49.6466 47.927ZM48.3251 49.4803C48.4566 49.1927 48.5077 48.8748 48.473 48.5605C48.4383 48.2462 48.3191 47.9471 48.128 47.6951C47.9388 47.4447 47.6832 47.2522 47.3903 47.1395C47.0973 47.0269 46.7786 46.9985 46.4704 47.0576C46.3324 47.3411 46.2735 47.6567 46.3 47.9709C46.3266 48.2851 46.4375 48.5864 46.6211 48.8427C46.814 49.1013 47.0772 49.299 47.3794 49.412C47.6815 49.5251 48.0098 49.5488 48.3251 49.4803ZM48.6497 51.648C48.2951 51.7854 47.9758 52.0004 47.715 52.2772C47.4543 52.554 47.2587 52.8856 47.1427 53.2477C47.4419 53.4401 47.7854 53.5528 48.1404 53.5752C48.4955 53.5975 48.8503 53.5286 49.1713 53.3752C49.5259 53.2378 49.8452 53.0228 50.1059 52.746C50.3667 52.4692 50.5622 52.1376 50.6783 51.7755C50.3803 51.5799 50.0366 51.4653 49.6809 51.4429C49.3251 51.4205 48.9697 51.4912 48.6497 51.648ZM45.3344 51.903C45.4475 52.2251 45.6529 52.5068 45.925 52.7129C46.1971 52.9191 46.5238 53.0405 46.8645 53.0622C47.0783 52.7751 47.2168 52.4391 47.2674 52.0848C47.318 51.7304 47.2791 51.3691 47.1543 51.0336C47.0391 50.7106 46.8316 50.4286 46.5575 50.2225C46.2834 50.0164 45.9548 49.8954 45.6126 49.8744C45.3978 50.1611 45.2595 50.4978 45.2109 50.8527C45.1622 51.2076 45.2047 51.5691 45.3344 51.903ZM46.6211 54.7315C46.2518 54.827 45.9084 55.0035 45.6157 55.2481C45.323 55.4927 45.0883 55.7993 44.9286 56.1457C45.1898 56.3811 45.5094 56.542 45.8541 56.6113C46.1988 56.6807 46.5558 56.656 46.8877 56.5398C47.258 56.447 47.603 56.273 47.8977 56.0304C48.1924 55.7878 48.4295 55.4827 48.5917 55.1372C48.3287 54.9009 48.0076 54.7388 47.6613 54.6675C47.315 54.5962 46.956 54.6183 46.6211 54.7315ZM43.9549 52.5406C43.7041 52.8031 43.522 53.1235 43.4249 53.4734C43.3278 53.8233 43.3188 54.1918 43.3985 54.546C43.4636 54.8777 43.6246 55.183 43.8616 55.4241C44.0985 55.6652 44.401 55.8314 44.7316 55.9023C44.9745 55.6368 45.1523 55.3184 45.2509 54.9724C45.3494 54.6263 45.3661 54.2621 45.2996 53.9084C45.2357 53.5731 45.0739 53.2641 44.8346 53.0207C44.5952 52.7772 44.2891 52.6102 43.9549 52.5406ZM43.781 57.5831C43.3708 57.55 42.9585 57.6123 42.5764 57.7651C42.1943 57.918 41.8528 58.1572 41.5786 58.4641C41.7135 58.8194 41.9506 59.1269 42.2601 59.3476C42.5695 59.5684 42.9374 59.6925 43.3174 59.7044C43.7285 59.7361 44.1414 59.672 44.5235 59.5171C44.9057 59.3622 45.2467 59.1208 45.5198 58.8118C45.3818 58.4595 45.1436 58.1553 44.8345 57.9369C44.5255 57.7186 44.1592 57.5955 43.781 57.5831ZM40.6976 56.0993C40.6179 56.4706 40.6465 56.8571 40.7801 57.2126C40.9136 57.5681 41.1465 57.8778 41.451 58.1047C41.8117 57.8961 42.1202 57.6082 42.3531 57.2628C42.5861 56.9173 42.7374 56.5235 42.7957 56.1109C42.8726 55.7396 42.8426 55.3541 42.7092 54.9992C42.5758 54.6442 42.3446 54.3343 42.0422 54.1055C41.6816 54.3141 41.3731 54.602 41.1402 54.9475C40.9072 55.2929 40.7558 55.6868 40.6976 56.0993ZM40.0716 59.5305C39.6216 59.4929 39.1689 59.5614 38.7502 59.7305C38.3314 59.8996 37.9582 60.1646 37.6605 60.5043C37.8135 60.8872 38.0748 61.2172 38.4124 61.454C38.7501 61.6907 39.1494 61.824 39.5616 61.8373C40.013 61.8714 40.4662 61.8013 40.8863 61.6325C41.3063 61.4637 41.682 61.2006 41.9843 60.8636C41.8305 60.4789 41.5674 60.1477 41.2275 59.9108C40.8876 59.6739 40.4858 59.5417 40.0716 59.5305ZM38.9936 57.9193C39.0828 57.5119 39.0526 57.0874 38.9066 56.6967C38.7606 56.3061 38.505 55.9658 38.1705 55.7168C37.7726 55.9418 37.4317 56.2554 37.1744 56.6334C36.9171 57.0113 36.7503 57.4433 36.6867 57.8961C36.6037 58.3052 36.6368 58.7293 36.7823 59.1206C36.9277 59.5118 37.1797 59.8546 37.5098 60.1101C37.9069 59.8812 38.2468 59.565 38.5039 59.1855C38.7609 58.806 38.9284 58.373 38.9936 57.9193ZM23.4371 42.5367C23.4709 42.2459 23.4349 41.9512 23.3321 41.677C23.2293 41.4029 23.0626 41.1571 22.8459 40.9602C22.5889 41.0367 22.3604 41.1876 22.1891 41.3939C22.0179 41.6003 21.9116 41.8527 21.8838 42.1194C21.8481 42.4104 21.8832 42.7057 21.9861 42.9801C22.0891 43.2546 22.2568 43.5002 22.475 43.6959C22.7312 43.6181 22.959 43.4668 23.13 43.2607C23.3011 43.0546 23.4078 42.8029 23.4371 42.5367ZM22.4518 45.9795C22.4771 45.6722 22.4282 45.3633 22.3092 45.0789C22.1901 44.7944 22.0045 44.5428 21.7679 44.3451C21.5522 44.1253 21.2871 43.9602 20.9948 43.8634C20.7025 43.7667 20.3913 43.741 20.0871 43.7886C20.0618 44.0959 20.1107 44.4048 20.2297 44.6893C20.3487 44.9737 20.5344 45.2254 20.771 45.4231C20.9856 45.6444 21.2505 45.8106 21.5431 45.9075C21.8358 46.0044 22.1475 46.0291 22.4518 45.9795ZM22.7416 45.9216C23.0174 46.0165 23.3136 46.0354 23.5992 45.9763C23.8848 45.9171 24.1491 45.7821 24.3645 45.5854C24.5775 45.3923 24.7319 45.1431 24.8098 44.8663C24.8877 44.5895 24.886 44.2964 24.805 44.0205C24.5312 43.9253 24.2366 43.9062 23.9528 43.9654C23.669 44.0246 23.4066 44.1599 23.1937 44.3567C22.9809 44.5501 22.8259 44.7988 22.7461 45.0751C22.6663 45.3514 22.6647 45.6444 22.7416 45.9216ZM23.7501 49.6078C23.7219 49.2678 23.6151 48.9389 23.438 48.6472C23.261 48.3556 23.0186 48.109 22.73 47.927C22.4658 47.7222 22.1553 47.5855 21.8258 47.5289C21.4963 47.4723 21.158 47.4976 20.8405 47.6024C20.873 47.9397 20.9817 48.2653 21.1585 48.5544C21.3352 48.8436 21.5753 49.0888 21.8606 49.2716C22.1252 49.4757 22.4352 49.6128 22.7642 49.6713C23.0931 49.7298 23.4314 49.7081 23.7501 49.6078ZM24.0515 49.4803C24.3668 49.5488 24.6951 49.5251 24.9972 49.412C25.2994 49.299 25.5626 49.1013 25.7555 48.8427C25.9466 48.5907 26.0658 48.2917 26.1005 47.9774C26.1352 47.663 26.0841 47.3452 25.9526 47.0576C25.6443 46.9985 25.3256 47.0269 25.0327 47.1395C24.7397 47.2522 24.4841 47.4447 24.2949 47.6951C24.0963 47.9427 23.9688 48.2395 23.9259 48.554C23.883 48.8684 23.9264 49.1886 24.0515 49.4803ZM25.2339 53.2477C25.1179 52.8856 24.9223 52.554 24.6616 52.2772C24.4008 52.0004 24.0815 51.7854 23.7269 51.648C23.4068 51.4912 23.0514 51.4205 22.6957 51.4429C22.34 51.4653 21.9963 51.5799 21.6983 51.7755C21.8144 52.1376 22.0099 52.4692 22.2707 52.746C22.5314 53.0228 22.8507 53.2378 23.2053 53.3752C23.5263 53.5286 23.8811 53.5975 24.2362 53.5752C24.5912 53.5528 24.9347 53.4401 25.2339 53.2477ZM25.2223 51.0104C25.0975 51.3459 25.0586 51.7073 25.1092 52.0616C25.1598 52.4159 25.2983 52.7519 25.5121 53.039C25.8528 53.0174 26.1795 52.8959 26.4516 52.6897C26.7237 52.4836 26.9291 52.2019 27.0422 51.8798C27.1719 51.5459 27.2144 51.1844 27.1657 50.8295C27.1171 50.4746 26.9788 50.1379 26.764 49.8512C26.4217 49.8722 26.0932 49.9932 25.8191 50.1993C25.545 50.4054 25.3375 50.6874 25.2223 51.0104ZM25.7555 54.7315C25.4206 54.6183 25.0616 54.5962 24.7153 54.6675C24.369 54.7388 24.0479 54.9009 23.7849 55.1372C23.9471 55.4827 24.1842 55.7878 24.4789 56.0304C24.7736 56.273 25.1186 56.447 25.4889 56.5398C25.8208 56.656 26.1778 56.6807 26.5225 56.6113C26.8672 56.542 27.1868 56.3811 27.448 56.1457C27.2883 55.7993 27.0536 55.4927 26.7609 55.2481C26.4682 55.0035 26.1248 54.827 25.7555 54.7315ZM27.645 55.9023C27.9756 55.8314 28.2781 55.6652 28.515 55.4241C28.752 55.183 28.913 54.8777 28.9781 54.546C29.0578 54.1918 29.0488 53.8233 28.9517 53.4734C28.8546 53.1235 28.6725 52.8031 28.4217 52.5406C28.0875 52.6102 27.7813 52.7772 27.542 53.0207C27.3027 53.2641 27.1409 53.5731 27.077 53.9084C27.0105 54.2621 27.0271 54.6263 27.1257 54.9724C27.2243 55.3184 27.4021 55.6368 27.645 55.9023ZM30.798 58.4641C30.5238 58.1572 30.1823 57.918 29.8002 57.7651C29.4181 57.6123 29.0058 57.55 28.5956 57.5831C28.2252 57.5897 27.8645 57.7024 27.5563 57.9079C27.2481 58.1134 27.0053 58.403 26.8568 58.7423C27.1298 59.0513 27.4709 59.2927 27.853 59.4475C28.2352 59.6024 28.6481 59.6665 29.0592 59.6349C29.4312 59.6287 29.7934 59.5148 30.102 59.307C30.4107 59.0992 30.6524 58.8064 30.798 58.4641ZM30.9255 58.1047C31.2301 57.8778 31.463 57.5681 31.5965 57.2126C31.7301 56.8571 31.7587 56.4706 31.679 56.0993C31.6272 55.6919 31.4847 55.3014 31.262 54.9563C31.0394 54.6113 30.7422 54.3205 30.3923 54.1055C30.09 54.3343 29.8587 54.6442 29.7254 54.9992C29.592 55.3541 29.562 55.7396 29.6388 56.1109C29.6907 56.5183 29.8331 56.9089 30.0558 57.2539C30.2785 57.5989 30.5757 57.8897 30.9255 58.1047ZM30.3923 60.8636C30.6935 61.2027 31.0687 61.4679 31.4888 61.6388C31.9089 61.8097 32.3627 61.8816 32.815 61.8489C33.2272 61.8356 33.6265 61.7023 33.9642 61.4656C34.3018 61.2288 34.5631 60.8988 34.7161 60.5159C34.4184 60.1762 34.0452 59.9112 33.6264 59.7421C33.2076 59.573 32.755 59.5045 32.305 59.5421C31.8921 59.5523 31.4913 59.6828 31.1515 59.9175C30.8117 60.1523 30.5479 60.4811 30.3923 60.8636ZM34.2061 55.7168C33.8716 55.9658 33.616 56.3061 33.47 56.6967C33.324 57.0874 33.2938 57.5119 33.383 57.9193C33.4482 58.373 33.6157 58.806 33.8727 59.1855C34.1298 59.565 34.4697 59.8812 34.8668 60.1101C35.1969 59.8546 35.4489 59.5118 35.5943 59.1206C35.7398 58.7293 35.7729 58.3052 35.6898 57.8961C35.6263 57.4433 35.4594 57.0113 35.2021 56.6334C34.9449 56.2554 34.604 55.9418 34.2061 55.7168Z" fill="black"/>
<path d="M37.7766 41.5631L36.1885 38.3406L34.6004 41.5631L31.0532 42.0732L33.6266 44.5771L33.0123 48.1126L36.1885 46.4434L39.3647 48.1126L38.7503 44.5771L41.3237 42.0732L37.7766 41.5631Z" fill="black"/>
<path d="M45.5898 43.4758C45.5898 41.6164 45.0384 39.7988 44.0054 38.2528C42.9724 36.7068 41.5042 35.5019 39.7863 34.7903C38.0685 34.0788 36.1783 33.8926 34.3546 34.2554C32.531 34.6181 30.8559 35.5135 29.5411 36.8282C28.2264 38.143 27.331 39.8181 26.9682 41.6417C26.6055 43.4654 26.7917 45.3556 27.5032 47.0734C28.2148 48.7913 29.4197 50.2595 30.9657 51.2925C32.5117 52.3255 34.3293 52.8769 36.1887 52.8769C38.6811 52.8738 41.0705 51.8824 42.8329 50.12C44.5953 48.3576 45.5867 45.9682 45.5898 43.4758ZM36.1887 50.5585C34.7879 50.5585 33.4185 50.1431 32.2538 49.3648C31.089 48.5866 30.1812 47.4804 29.6451 46.1862C29.1091 44.892 28.9688 43.4679 29.2421 42.094C29.5154 40.7201 30.1899 39.4581 31.1805 38.4676C32.171 37.477 33.433 36.8025 34.8069 36.5292C36.1808 36.2559 37.6049 36.3962 38.8991 36.9322C40.1933 37.4683 41.2995 38.3761 42.0777 39.5409C42.856 40.7056 43.2714 42.075 43.2714 43.4758C43.2683 45.3533 42.5211 47.153 41.1935 48.4806C39.8659 49.8082 38.0662 50.5554 36.1887 50.5585Z" fill="black"/>
<path d="M27.5939 26.5336L27.0044 25.3346C26.9742 25.2731 26.9152 25.2424 26.8564 25.2427C26.798 25.2429 26.7397 25.2736 26.7097 25.3346L26.1202 26.5336L24.802 26.7259C24.6672 26.7456 24.6134 26.9118 24.7109 27.0072L25.6648 27.9405L25.4396 29.2584C25.4214 29.3649 25.5058 29.4515 25.6015 29.4515C25.6268 29.4515 25.6528 29.4455 25.678 29.4322L26.8571 28.81L28.0361 29.4322C28.0568 29.4431 28.0781 29.4492 28.0991 29.451C28.1082 29.4517 28.1173 29.4517 28.1261 29.451C28.2161 29.4432 28.2919 29.3599 28.2745 29.2584L28.0493 27.9405L29.0032 27.0072C29.1007 26.9118 29.0469 26.7456 28.9121 26.7259L27.5939 26.5336Z" fill="#EEBC3B"/>
<path d="M37.4069 26.5336L36.8174 25.3346C36.7871 25.2731 36.7282 25.2424 36.6694 25.2427C36.611 25.2429 36.5527 25.2736 36.5227 25.3346L35.9332 26.5336L34.615 26.7259C34.4802 26.7456 34.4264 26.9118 34.5239 27.0072L35.4778 27.9405L35.2526 29.2584C35.2344 29.3649 35.3187 29.4515 35.4145 29.4515C35.4397 29.4515 35.4658 29.4455 35.491 29.4322L36.67 28.81L37.8491 29.4322C37.8698 29.4431 37.8911 29.4492 37.9121 29.451C37.9212 29.4517 37.9303 29.4517 37.9391 29.451C38.0291 29.4432 38.1048 29.3599 38.0875 29.2584L37.8623 27.9405L38.8162 27.0072C38.9137 26.9118 38.8599 26.7456 38.7251 26.7259L37.4069 26.5336Z" fill="#EEBC3B"/>
<path d="M47.2189 26.5336L46.6294 25.3346C46.5992 25.2731 46.5402 25.2424 46.4814 25.2427C46.423 25.2429 46.3647 25.2736 46.3347 25.3346L45.7452 26.5336L44.427 26.7259C44.2922 26.7456 44.2384 26.9118 44.3359 27.0072L45.2898 27.9405L45.0646 29.2584C45.0464 29.3649 45.1308 29.4515 45.2265 29.4515C45.2518 29.4515 45.2778 29.4455 45.303 29.4322L46.4821 28.81L47.6611 29.4322C47.6818 29.4431 47.7031 29.4492 47.7241 29.451C47.7332 29.4517 47.7423 29.4517 47.7511 29.451C47.8411 29.4432 47.9169 29.3599 47.8995 29.2584L47.6743 27.9405L48.6282 27.0072C48.7257 26.9118 48.6719 26.7456 48.5371 26.7259L47.2189 26.5336Z" fill="#EEBC3B"/>
<path d="M37.961 17.3189C37.7836 17.3189 37.6342 17.1742 37.6342 16.9921V15.9413L36.6535 14.942L35.6728 15.9413V16.9921C35.6728 17.1695 35.5281 17.3189 35.3459 17.3189C35.1685 17.3189 35.019 17.1742 35.019 16.9921V15.8573C35.019 15.7405 35.0657 15.6331 35.1451 15.5491L36.3453 14.3256C36.4293 14.2415 36.5414 14.1948 36.6535 14.1948C36.7702 14.1948 36.8776 14.2415 36.9617 14.3256L38.1618 15.5491C38.2412 15.6331 38.2879 15.7405 38.2879 15.8573V16.9921C38.2879 17.1695 38.1432 17.3189 37.961 17.3189Z" fill="black"/>
<path d="M38.5479 19.3552H34.7606C33.822 19.3552 33.0562 18.5893 33.0562 17.6507V13.8634C33.0562 12.9248 33.822 12.1589 34.7606 12.1589H38.5526C39.4912 12.1589 40.257 12.9248 40.257 13.8634V17.6553C40.2524 18.5893 39.4865 19.3552 38.5479 19.3552ZM34.7606 12.808C34.1816 12.808 33.7099 13.2797 33.7099 13.8588V17.6507C33.7099 18.2297 34.1816 18.7014 34.7606 18.7014H38.5526C39.1316 18.7014 39.6033 18.2297 39.6033 17.6507V13.8634C39.6033 13.2844 39.1316 12.8127 38.5526 12.8127H34.7606V12.808Z" fill="black"/>
</svg>
