<svg width="16" height="5" viewBox="0 0 16 5" fill="none" xmlns="http://www.w3.org/2000/svg">
<path d="M9.90249 2.38553C9.90249 2.14662 9.85521 1.91005 9.76336 1.68932C9.6715 1.4686 9.53687 1.26804 9.36714 1.09911C9.19741 0.930172 8.99591 0.796165 8.77415 0.704738C8.55239 0.61331 8.31471 0.566254 8.07467 0.566254C7.83464 0.566254 7.59696 0.61331 7.3752 0.704738C7.15344 0.796165 6.95194 0.930172 6.78221 1.09911C6.61248 1.26804 6.47785 1.4686 6.38599 1.68932C6.29413 1.91005 6.24686 2.14662 6.24686 2.38553C6.24697 2.86803 6.43964 3.33073 6.7825 3.67183C7.12537 4.01294 7.59032 4.2045 8.07509 4.20439C8.55986 4.20429 9.02473 4.01251 9.36743 3.67125C9.71013 3.32999 9.9026 2.86721 9.90249 2.3847L9.90249 2.38553ZM12.0617 2.38553C12.0618 2.62433 12.1091 2.86078 12.201 3.08136C12.293 3.30194 12.4276 3.50235 12.5974 3.67113C12.7671 3.83991 12.9686 3.97377 13.1903 4.06505C13.412 4.15634 13.6496 4.20326 13.8895 4.20316C14.1294 4.20305 14.367 4.1559 14.5886 4.06442C14.8102 3.97293 15.0115 3.83889 15.1811 3.66996C15.3507 3.50102 15.4852 3.3005 15.5769 3.07983C15.6686 2.85917 15.7157 2.62268 15.7156 2.38388C15.7154 1.90159 15.5227 1.43915 15.1799 1.09828C14.8372 0.75741 14.3724 0.566035 13.8878 0.566254C13.4033 0.566473 12.9387 0.758269 12.5962 1.09945C12.2537 1.44063 12.0614 1.90325 12.0617 2.38553ZM4.08935 2.38553C4.08935 1.90303 3.89677 1.44029 3.55399 1.09911C3.21121 0.757927 2.7463 0.566253 2.26153 0.566253C1.77676 0.566253 1.31185 0.757927 0.969066 1.09911C0.626283 1.44029 0.43371 1.90303 0.43371 2.38553C0.43371 2.86803 0.626283 3.33077 0.969066 3.67195C1.31185 4.01313 1.77676 4.20481 2.26153 4.20481C2.7463 4.20481 3.21121 4.01313 3.55399 3.67195C3.89677 3.33077 4.08935 2.86803 4.08935 2.38553Z" fill="#878787"/>
</svg>
