<svg width="549" height="136" viewBox="0 0 549 136" fill="none" xmlns="http://www.w3.org/2000/svg">
<path d="M219.377 99.5L215.177 88.4001H179.377L175.177 99.7C173.577 104.1 172.177 107.1 170.977 108.6C169.777 110.1 167.877 110.9 165.277 110.9C163.077 110.9 161.077 110.1 159.277 108.4C157.577 106.8 156.677 104.9 156.677 102.8C156.677 101.6 156.877 100.4 157.277 99.1001C157.677 97.8 158.377 96 159.277 93.7L181.777 36.5C182.377 34.9 183.177 32.9 184.077 30.6C184.977 28.3 185.977 26.4001 186.977 24.9001C187.977 23.4001 189.377 22.1001 190.977 21.2001C192.677 20.3001 194.677 19.8 197.177 19.8C199.677 19.8 201.777 20.3001 203.377 21.2001C205.077 22.1001 206.377 23.4 207.377 24.8C208.377 26.3 209.277 27.9 209.977 29.6C210.677 31.3 211.577 33.6001 212.677 36.4001L235.677 93.3C237.477 97.6001 238.377 100.8 238.377 102.7C238.377 104.7 237.477 106.6 235.777 108.3C234.077 110 231.977 110.9 229.577 110.9C228.177 110.9 226.977 110.6 225.977 110.1C224.977 109.6 224.177 108.9 223.477 108.1C222.777 107.2 222.077 105.9 221.277 104.1C220.677 102.4 219.977 100.8 219.377 99.5ZM184.077 75H210.377L197.077 38.6L184.077 75Z" fill="url(#paint0_linear_445_599)"/>
<path d="M310.777 56.2001V103.9C310.777 109.4 310.177 114 309.077 118C307.877 121.9 306.077 125.2 303.477 127.7C300.877 130.3 297.577 132.2 293.377 133.4C289.277 134.6 284.077 135.3 277.877 135.3C272.177 135.3 267.177 134.5 262.777 132.9C258.377 131.3 254.877 129.3 252.477 126.8C250.077 124.3 248.877 121.7 248.877 119.1C248.877 117.1 249.577 115.5 250.877 114.2C252.277 112.9 253.877 112.3 255.777 112.3C258.177 112.3 260.277 113.4 262.077 115.5C262.977 116.6 263.877 117.7 264.777 118.8C265.677 119.9 266.777 120.8 267.877 121.6C268.977 122.4 270.377 123 271.977 123.3C273.577 123.7 275.377 123.9 277.477 123.9C281.677 123.9 284.977 123.3 287.377 122.1C289.677 120.9 291.377 119.3 292.277 117.1C293.177 115 293.777 112.7 293.977 110.3C294.177 107.9 294.277 104 294.377 98.6002C291.877 102.1 288.977 104.8 285.677 106.7C282.377 108.5 278.477 109.5 273.877 109.5C268.377 109.5 263.577 108.1 259.477 105.3C255.377 102.5 252.177 98.6001 249.977 93.5001C247.777 88.5001 246.677 82.6001 246.677 76.0001C246.677 71.1001 247.377 66.6001 248.677 62.7001C249.977 58.7001 251.977 55.4001 254.377 52.7001C256.877 50.0001 259.777 47.9001 262.977 46.5001C266.177 45.1001 269.777 44.4001 273.677 44.4001C278.277 44.4001 282.377 45.3001 285.777 47.1001C289.177 48.9001 292.377 51.7001 295.277 55.5001V53.3001C295.277 50.5001 295.977 48.3001 297.377 46.7001C298.777 45.1001 300.577 44.4001 302.777 44.4001C305.977 44.4001 308.077 45.4001 309.077 47.5001C310.277 49.4001 310.777 52.4001 310.777 56.2001ZM263.277 77.0001C263.277 83.7001 264.777 88.7001 267.677 92.1001C270.577 95.5001 274.377 97.2001 278.977 97.2001C281.677 97.2001 284.277 96.5001 286.677 95.0001C289.077 93.5001 291.077 91.3001 292.577 88.4001C294.077 85.5001 294.877 81.9001 294.877 77.7001C294.877 71.0001 293.377 65.8001 290.477 62.1001C287.577 58.4001 283.677 56.5001 278.877 56.5001C274.177 56.5001 270.477 58.3001 267.577 61.9001C264.677 65.4001 263.277 70.5001 263.277 77.0001Z" fill="url(#paint1_linear_445_599)"/>
<path d="M343.677 87.3V101C343.677 104.3 342.877 106.8 341.377 108.5C339.777 110.2 337.877 111 335.377 111C332.977 111 331.077 110.2 329.577 108.5C328.077 106.8 327.277 104.3 327.277 101V55.3C327.277 47.9 329.977 44.2 335.277 44.2C337.977 44.2 339.977 45.1 341.177 46.8C342.377 48.5 343.077 51.1 343.177 54.4C345.177 51 347.177 48.5 349.177 46.8C351.277 45.1 353.977 44.2 357.477 44.2C360.977 44.2 364.277 45.1 367.477 46.8C370.677 48.5 372.377 50.8 372.377 53.7C372.377 55.7 371.677 57.4 370.277 58.7C368.877 60 367.377 60.7 365.777 60.7C365.177 60.7 363.677 60.3 361.377 59.6C359.077 58.9 357.077 58.5 355.277 58.5C352.877 58.5 350.877 59.1 349.377 60.4C347.877 61.7 346.677 63.5 345.877 66C345.077 68.5 344.477 71.4 344.177 74.9C343.777 78.2 343.677 82.3 343.677 87.3Z" fill="url(#paint2_linear_445_599)"/>
<path d="M389.577 36.6C387.277 36.6 385.377 35.9 383.677 34.5C382.077 33.1 381.277 31.1 381.277 28.5C381.277 26.2 382.077 24.3 383.777 22.8C385.477 21.3 387.377 20.5 389.577 20.5C391.677 20.5 393.577 21.2 395.277 22.5C396.877 23.9 397.777 25.8 397.777 28.5C397.777 31 396.977 33 395.377 34.4C393.677 35.9 391.777 36.6 389.577 36.6ZM397.677 53.5V101C397.677 104.3 396.877 106.8 395.377 108.5C393.777 110.2 391.877 111 389.377 111C386.877 111 384.977 110.1 383.477 108.4C381.977 106.7 381.177 104.2 381.177 101V54C381.177 50.8 381.977 48.3 383.477 46.7C384.977 45.1 386.977 44.2 389.377 44.2C391.777 44.2 393.777 45 395.377 46.7C396.877 48.3 397.677 50.6 397.677 53.5Z" fill="url(#paint3_linear_445_599)"/>
<path d="M430.677 29.8V54.1C432.777 51.7 434.777 49.8001 436.777 48.4001C438.777 47.0001 440.977 45.9 443.377 45.2C445.777 44.5 448.377 44.1 451.177 44.1C455.377 44.1 459.077 45 462.277 46.7C465.477 48.5 468.077 51.0001 469.877 54.4001C471.077 56.4001 471.777 58.6 472.177 61C472.577 63.4001 472.777 66.2001 472.777 69.4001V101C472.777 104.3 471.977 106.8 470.477 108.5C468.977 110.2 466.977 111 464.477 111C459.077 111 456.377 107.7 456.377 101V73.3001C456.377 68.1001 455.577 64 454.077 61.2C452.477 58.4 449.577 57 445.177 57C442.277 57 439.577 57.8 437.277 59.5C434.977 61.2001 433.177 63.4001 431.977 66.3001C431.077 68.7001 430.677 73.1001 430.677 79.3001V101C430.677 104.2 429.977 106.7 428.477 108.4C426.977 110.1 424.977 111 422.377 111C416.977 111 414.277 107.7 414.277 101V29.8C414.277 26.5 414.977 24 416.377 22.3C417.777 20.6 419.777 19.8 422.377 19.8C424.977 19.8 426.977 20.6 428.477 22.3C429.977 24 430.677 26.5 430.677 29.8Z" fill="url(#paint4_linear_445_599)"/>
<path d="M530.476 101.7C526.476 104.8 522.676 107.1 518.976 108.6C515.276 110.1 511.076 110.9 506.476 110.9C502.276 110.9 498.576 110.1 495.376 108.4C492.176 106.7 489.776 104.5 487.976 101.6C486.276 98.8 485.376 95.7 485.376 92.3C485.376 87.8 486.776 84 489.676 80.8C492.476 77.6 496.476 75.5 501.376 74.4C502.376 74.2 504.976 73.6 509.176 72.8C513.276 72 516.876 71.2 519.776 70.5C522.676 69.8 525.876 68.9 529.376 67.9C529.176 63.6 528.276 60.4 526.776 58.4C525.276 56.4 522.076 55.4 517.176 55.4C512.976 55.4 509.876 56 507.776 57.1C505.676 58.3 503.876 60 502.376 62.3C500.876 64.6 499.776 66.2 499.176 66.9C498.576 67.6 497.176 68 495.176 68C493.376 68 491.776 67.4 490.376 66.2C489.076 65 488.376 63.5 488.376 61.7C488.376 58.8 489.376 56 491.476 53.3C493.476 50.6 496.676 48.3 501.076 46.6C505.376 44.8 510.776 44 517.276 44C524.476 44 530.176 44.9 534.276 46.6C538.376 48.3 541.276 51 542.976 54.7C544.676 58.4 545.576 63.3 545.576 69.4C545.576 73.2 545.576 76.5 545.576 79.2C545.576 81.9 545.476 84.9 545.476 88.2C545.476 91.3 545.976 94.5 546.976 97.8C547.976 101.1 548.476 103.3 548.476 104.3C548.476 106 547.676 107.5 546.076 108.9C544.476 110.3 542.676 111 540.676 111C538.976 111 537.376 110.2 535.676 108.6C534.076 107 532.276 104.7 530.476 101.7ZM529.376 77.9C526.976 78.8 523.476 79.7 518.876 80.7C514.276 81.7 511.076 82.4 509.376 82.9C507.576 83.4 505.976 84.3 504.376 85.6C502.776 86.9 501.976 88.8 501.976 91.2C501.976 93.7 502.876 95.8 504.776 97.5C506.676 99.2 509.076 100.1 512.176 100.1C515.376 100.1 518.376 99.4 521.176 98C523.876 96.6 525.976 94.7 527.176 92.5C528.676 90 529.376 85.9 529.376 80.2V77.9Z" fill="url(#paint5_linear_445_599)"/>
<path d="M73.4766 3.7001L73.5766 4.8001V5.8001L73.9766 10.9001L74.0766 11.4001V11.9001L74.1766 12.4001V12.9001L74.3766 13.9001V14.4001L74.5766 15.4001L74.6766 15.9001L74.8766 16.9001L74.9766 17.4001L75.0766 17.9001L75.9766 21.2001L76.2766 22.1001L76.3766 22.5001L76.6766 23.4001L76.8766 23.9001L77.0766 24.3001L77.2766 24.8001L77.4766 25.2001L77.6766 25.6001L77.8766 26.1001L78.0766 26.5001L78.3766 26.9001L78.5766 27.3001L78.8766 27.7001L79.0766 28.1001L79.3766 28.5001L79.5766 28.9001L80.0766 29.7001L80.2766 30.1001L80.8766 30.9001L81.0766 31.3001L81.3766 31.7001L81.6766 32.1001L82.5766 33.2001L82.8766 33.6001L83.1766 34.0001L84.1766 35.1001L84.4766 35.4001L85.1766 36.1001L85.9766 36.9001L86.1766 37.1001L86.4766 37.5001L86.8766 37.8001L87.1766 38.2001L87.5766 38.5001L88.2766 39.2001L88.6766 39.5001L90.1766 40.9001L90.9766 41.6001L92.4766 43.0001L95.5766 45.8001L96.2766 46.5001L97.0766 47.2001L101.577 51.5001L101.877 51.9001L102.677 52.7001L102.977 53.1001L103.377 53.5001L104.377 54.6001L104.777 55.0001L105.077 55.4001L105.777 56.2001L106.077 56.6001L106.377 57.0001L106.677 57.4001L106.977 57.8001L107.477 58.4001L107.577 58.6001L107.777 58.8001L107.877 59.0001L108.077 59.2001L108.577 60.0001L108.677 60.2001L109.077 60.8001L109.277 61.0001L109.377 61.2001L109.477 61.4001L109.577 61.6001L109.777 62.0001L109.877 62.2001L109.977 62.4001L110.177 63.1001V63.3001L110.377 63.8001V64.0001L110.477 64.3001L110.577 64.7001L110.677 65.0001L110.977 66.9001V67.3001L111.077 67.8001L111.177 69.3001V69.8001V70.3001V70.8001V71.3001V72.8001V73.4001V77.6001V78.1001V79.1001V79.7001V80.2001L111.377 82.3001L111.477 82.8001V83.3001L111.577 83.8001V84.3001L111.877 85.9001L111.977 86.4001L112.077 86.9001L112.177 87.4001L112.277 87.9001L112.677 89.4001L112.877 89.9001L112.977 90.4001L113.777 92.8001L113.977 93.3001L114.077 93.5001V93.6001L114.177 93.8001L114.377 94.2001L114.577 94.6001L114.877 95.1001L115.077 95.6001L115.377 96.0001L115.477 96.2001L115.577 96.5001L116.177 97.6001L116.377 97.8001L116.477 98.0001L116.577 98.2001L116.677 98.4001L116.877 98.6001L116.977 98.8001L117.177 99.0001L117.277 99.2001L117.777 99.8001L117.977 100L118.377 100.6L118.677 100.9L118.877 101.1L119.377 101.6L119.777 101.9L120.077 102.2L121.177 103.2L121.577 103.5L121.977 103.8L122.377 104.1L122.777 104.4L123.177 104.7L123.577 105L124.877 105.9L125.777 106.4L126.177 106.7L126.677 107L127.077 107.3L127.577 107.6L128.877 108.4L129.777 108.9L130.677 109.4L132.477 110.4C132.477 110.4 132.477 110.4 132.577 110.4C132.577 110.4 132.677 110.4 132.677 110.3C132.677 110.2 132.677 110.2 132.677 110.1H132.577V61.1001C132.677 61.1001 132.677 61.0001 132.677 61.0001L132.377 58.4001L132.277 57.7001L132.177 57.0001L131.777 55.0001L131.577 54.3001L131.477 53.7001L131.177 52.4001L130.377 49.8001L130.077 49.2001L129.777 48.6001L129.477 48.0001L128.877 46.8001L127.877 45.0001L127.477 44.5001L127.277 44.0001L126.877 43.5001L126.477 43.0001L126.077 42.5001L125.677 42.0001L125.177 41.5001L124.777 41.0001L124.277 40.5001L123.377 39.5001L122.877 39.0001L122.377 38.5001L121.877 38.0001L121.377 37.5001L120.877 37.0001L119.877 36.0001L119.377 35.5001L118.877 35.0001L118.377 34.5001L117.877 34.0001L115.177 31.7001L114.077 30.8001L112.877 29.9001L111.777 29.0001L110.577 28.2001L109.377 27.3001L107.077 25.6001L102.377 22.4001L101.177 21.6001L100.077 20.8001L98.8766 20.0001L97.7766 19.3001L96.6766 18.6001L94.4766 17.1001L93.3766 16.4001L91.1766 15.0001L90.0766 14.3001L87.9766 12.9001L86.9766 12.2001L82.7766 9.5001L81.7766 8.8001L75.6766 4.9001L74.1766 3.9001L73.5766 3.6001H73.4766C73.4766 3.6001 73.3766 3.6001 73.4766 3.7001Z" fill="url(#paint6_linear_445_599)"/>
<path d="M67.5766 3.7001L67.4766 4.8001V5.8001L67.0766 10.9001L66.9766 11.4001V11.9001L66.8766 12.4001V12.9001L66.6766 13.9001V14.4001L66.4766 15.4001L66.2766 15.9001L66.0766 16.9001L65.9766 17.4001L65.8766 17.9001L64.9766 21.2001L64.6766 22.1001L64.5766 22.5001L64.2766 23.4001L64.0766 23.9001L63.8766 24.3001L63.6766 24.8001L63.4766 25.2001L63.2766 25.6001L63.0766 26.0001L62.8766 26.4001L62.5766 26.8001L62.3766 27.2001L62.0766 27.6001L61.8766 28.0001L61.5766 28.4001L61.3766 28.8001L60.8766 29.6001L60.6766 30.0001L60.0766 30.8001L59.8766 31.2001L59.5766 31.6001L59.2766 32.0001L58.2766 33.2001L57.9766 33.6001L57.6766 34.0001L56.6766 35.1001L56.3766 35.4001L55.6766 36.1001L54.8766 36.9001L54.6766 37.1001L54.2766 37.6001L53.8766 37.9001L53.5766 38.3001L53.1766 38.6001L52.4766 39.3001L52.0766 39.6001L50.5766 41.0001L49.7766 41.7001L48.2766 43.1001L45.2766 45.9001L44.5766 46.6001L43.7766 47.3001L39.2766 51.6001L38.9766 52.0001L38.1766 52.8001L37.8766 53.2001L37.4766 53.6001L36.4766 54.7001L36.0766 55.1001L35.7766 55.5001L35.0766 56.3001L34.7766 56.7001L34.4766 57.1001L34.1766 57.5001L33.8766 57.9001L33.3766 58.5001H33.2766L33.0766 58.7001L32.9766 58.9001L32.7766 59.1001L32.2766 59.9001L32.1766 60.1001L31.7766 60.7001V61.0001L31.6766 61.2001L31.5766 61.4001L31.4766 61.6001L31.2766 62.1001L31.1766 62.3001L31.0766 62.5001L30.8766 63.2001V63.4001L30.5766 64.0001V64.2001L30.4766 64.5001L30.3766 64.9001L30.2766 65.1001L29.9766 67.0001V67.4001L29.8766 67.9001L29.7766 69.4001V69.9001V70.4001V70.9001V71.4001V72.9001V73.5001V77.7001V78.2001V79.2001V79.8001V80.3001L29.5766 82.4001L29.4766 82.9001V83.4001L29.3766 83.9001V84.4001L29.0766 86.0001L28.9766 86.5001L28.8766 87.0001L28.7766 87.5001L28.6766 88.0001L28.2766 89.5001L28.0766 90.0001L27.9766 90.5001L27.1766 92.9001L26.9766 93.4001L26.8766 93.6001V93.7001L26.7766 93.9001L26.5766 94.3001L26.3766 94.7001L26.0766 95.2001L25.8766 95.7001L25.5766 96.1001L25.4766 96.3001L25.3766 96.6001L24.7766 97.7001L24.5766 97.9001L24.4766 98.1001L24.3766 98.3001L24.2766 98.5001L24.0766 98.7001L23.9766 98.9001L23.7766 99.1001L23.6766 99.3001L23.1766 99.9001L22.9766 100.1L22.5766 100.7L22.2766 101L22.0766 101.2L21.5766 101.7L21.1766 102L20.8766 102.3L19.7766 103.3L19.3766 103.6L18.9766 103.9L18.5766 104.2L18.1766 104.5L17.7766 104.8L17.3766 105.1L16.0766 106L15.1766 106.5L14.7766 106.8L14.2766 107.1L13.8766 107.4L13.3766 107.7L12.0766 108.5L11.1766 109L10.2766 109.5L8.47661 110.5C8.47661 110.5 8.47661 110.5 8.37661 110.5C8.37661 110.5 8.27661 110.5 8.27661 110.4C8.27661 110.3 8.27661 110.3 8.27661 110.2H8.37661V61.2001C8.27661 61.2001 8.27661 61.1001 8.27661 61.1001L8.57661 58.5001L8.67661 57.8001L8.77661 57.1001L9.17661 55.1001L9.37661 54.4001L9.47661 53.8001L9.77661 52.5001L10.5766 49.9001L10.8766 49.3001L11.1766 48.7001L11.4766 48.1001L12.0766 46.9001L13.0766 45.1001L13.4766 44.6001L13.8766 44.0001L14.2766 43.5001L14.6766 43.0001L15.0766 42.5001L15.4766 42.0001L15.9766 41.5001L16.3766 41.0001L16.8766 40.5001L17.7766 39.5001L18.2766 39.0001L18.7766 38.5001L19.2766 38.0001L19.7766 37.5001L20.2766 37.0001L21.2766 36.0001L21.7766 35.5001L22.2766 35.0001L22.7766 34.5001L23.2766 34.0001L25.9766 31.7001L27.0766 30.8001L28.2766 29.9001L29.3766 29.0001L30.5766 28.2001L31.7766 27.3001L34.0766 25.6001L38.7766 22.4001L39.9766 21.6001L41.0766 20.8001L42.2766 20.0001L43.3766 19.3001L44.4766 18.6001L46.6766 17.1001L47.7766 16.4001L49.9766 15.0001L51.0766 14.3001L53.1766 12.9001L54.1766 12.2001L58.3766 9.5001L59.3766 8.8001L65.4766 4.9001L66.9766 3.9001L67.5766 3.6001H67.6766C67.5766 3.6001 67.5766 3.6001 67.5766 3.7001Z" fill="url(#paint7_linear_445_599)"/>
<defs>
<linearGradient id="paint0_linear_445_599" x1="156.723" y1="77.5529" x2="548.452" y2="77.5529" gradientUnits="userSpaceOnUse">
<stop stop-color="#019371"/>
<stop offset="1" stop-color="#035F6A"/>
</linearGradient>
<linearGradient id="paint1_linear_445_599" x1="156.723" y1="77.553" x2="548.452" y2="77.553" gradientUnits="userSpaceOnUse">
<stop stop-color="#019371"/>
<stop offset="1" stop-color="#035F6A"/>
</linearGradient>
<linearGradient id="paint2_linear_445_599" x1="156.723" y1="77.5529" x2="548.452" y2="77.5529" gradientUnits="userSpaceOnUse">
<stop stop-color="#019371"/>
<stop offset="1" stop-color="#035F6A"/>
</linearGradient>
<linearGradient id="paint3_linear_445_599" x1="156.723" y1="77.5529" x2="548.452" y2="77.5529" gradientUnits="userSpaceOnUse">
<stop stop-color="#019371"/>
<stop offset="1" stop-color="#035F6A"/>
</linearGradient>
<linearGradient id="paint4_linear_445_599" x1="156.724" y1="77.5529" x2="548.452" y2="77.5529" gradientUnits="userSpaceOnUse">
<stop stop-color="#019371"/>
<stop offset="1" stop-color="#035F6A"/>
</linearGradient>
<linearGradient id="paint5_linear_445_599" x1="156.723" y1="77.5529" x2="548.452" y2="77.5529" gradientUnits="userSpaceOnUse">
<stop stop-color="#019371"/>
<stop offset="1" stop-color="#035F6A"/>
</linearGradient>
<linearGradient id="paint6_linear_445_599" x1="132.815" y1="56.987" x2="73.4262" y2="56.987" gradientUnits="userSpaceOnUse">
<stop stop-color="#037988"/>
<stop offset="1" stop-color="#179B76"/>
</linearGradient>
<linearGradient id="paint7_linear_445_599" x1="8.18601" y1="56.987" x2="67.5748" y2="56.987" gradientUnits="userSpaceOnUse">
<stop stop-color="#037988"/>
<stop offset="1" stop-color="#179B76"/>
</linearGradient>
</defs>
</svg>
