<svg width="23" height="23" viewBox="0 0 23 23" fill="none" xmlns="http://www.w3.org/2000/svg">
<rect x="0.328571" y="0.328571" width="22.3429" height="22.3429" rx="11.1714" stroke="black" stroke-width="0.657143"/>
<path d="M12.2298 8.97794C12.657 9.06128 13.0496 9.2702 13.3573 9.57795C13.6651 9.8857 13.874 10.2783 13.9573 10.7054M12.2298 7.22857C13.1173 7.32716 13.9449 7.72459 14.5767 8.3556C15.2085 8.98662 15.607 9.81371 15.7067 10.7011M15.2693 14.1911V15.5031C15.2698 15.6249 15.2449 15.7455 15.1961 15.8571C15.1473 15.9687 15.0757 16.0688 14.986 16.1512C14.8962 16.2335 14.7903 16.2962 14.6749 16.3352C14.5595 16.3743 14.4372 16.3887 14.3159 16.3778C12.9702 16.2316 11.6774 15.7717 10.5417 15.0351C9.48497 14.3637 8.58907 13.4678 7.9176 12.4111C7.17848 11.2701 6.71852 9.97114 6.57496 8.61932C6.56403 8.49838 6.5784 8.37649 6.61716 8.26141C6.65592 8.14633 6.71822 8.04058 6.80009 7.95089C6.88196 7.86121 6.9816 7.78955 7.09268 7.74049C7.20376 7.69142 7.32384 7.66603 7.44527 7.66591H8.7573C8.96955 7.66382 9.17531 7.73898 9.33624 7.87738C9.49717 8.01578 9.60228 8.20798 9.63199 8.41814C9.68737 8.83802 9.79007 9.25029 9.93813 9.64708C9.99697 9.80361 10.0097 9.97373 9.97482 10.1373C9.93994 10.3008 9.85891 10.451 9.74132 10.5699L9.1859 11.1253C9.80848 12.2202 10.715 13.1268 11.81 13.7494L12.3654 13.1939C12.4843 13.0763 12.6344 12.9953 12.798 12.9604C12.9615 12.9255 13.1316 12.9383 13.2882 12.9971C13.685 13.1452 14.0972 13.2479 14.5171 13.3033C14.7296 13.3332 14.9236 13.4402 15.0623 13.6039C15.201 13.7676 15.2747 13.9766 15.2693 14.1911Z" stroke="black" stroke-width="0.788572" stroke-linecap="round" stroke-linejoin="round"/>
</svg>
