<svg width="31" height="31" viewBox="0 0 31 31" fill="none" xmlns="http://www.w3.org/2000/svg">
<path d="M15.5 0C6.9595 0 0 6.9595 0 15.5C0 24.0405 6.9595 31 15.5 31C24.0405 31 31 24.0405 31 15.5C31 6.9595 24.0405 0 15.5 0Z" fill="#303030"/>
<path d="M21.0969 13.0553L20.8239 21.3195C20.8006 22.0272 20.5025 22.6981 19.9927 23.1896C19.4829 23.6812 18.8017 23.9547 18.0935 23.9522H12.9058C12.1981 23.9548 11.5172 23.6816 11.0075 23.1906C10.4978 22.6997 10.1994 22.0295 10.1754 21.3222L9.90239 13.0553C9.89641 12.8743 9.9626 12.6983 10.0864 12.566C10.2102 12.4338 10.3814 12.3562 10.5625 12.3502C10.7435 12.3442 10.9195 12.4104 11.0517 12.5342C11.184 12.658 11.2616 12.8292 11.2676 13.0102L11.5406 21.2765C11.5542 21.6293 11.704 21.9632 11.9586 22.208C12.2131 22.4528 12.5527 22.5893 12.9058 22.5891H18.0935C18.4471 22.5893 18.787 22.4523 19.0417 22.207C19.2963 21.9617 19.4458 21.6271 19.4587 21.2737L19.7317 13.0102C19.7377 12.8292 19.8154 12.658 19.9476 12.5342C20.0798 12.4104 20.2558 12.3442 20.4369 12.3502C20.6179 12.3562 20.7891 12.4338 20.9129 12.566C21.0367 12.6983 21.1029 12.8743 21.0969 13.0553ZM22 10.3051C22 10.4862 21.9281 10.6598 21.8001 10.7878C21.6721 10.9158 21.4984 10.9877 21.3174 10.9877H9.68259C9.50156 10.9877 9.32794 10.9158 9.19993 10.7878C9.07192 10.6598 9 10.4862 9 10.3051C9 10.1241 9.07192 9.95047 9.19993 9.82246C9.32794 9.69445 9.50156 9.62253 9.68259 9.62253H11.7986C12.0149 9.62312 12.2237 9.54321 12.3843 9.39837C12.5449 9.25352 12.6459 9.0541 12.6676 8.83891C12.7179 8.33413 12.9544 7.86617 13.331 7.52622C13.7075 7.18628 14.1971 6.99869 14.7044 7.00001H16.2949C16.8022 6.99869 17.2918 7.18628 17.6683 7.52622C18.0449 7.86617 18.2814 8.33413 18.3317 8.83891C18.3534 9.0541 18.4544 9.25352 18.615 9.39837C18.7756 9.54321 18.9844 9.62312 19.2007 9.62253H21.3167C21.4978 9.62253 21.6714 9.69445 21.7994 9.82246C21.9274 9.95047 21.9993 10.1241 21.9993 10.3051H22ZM13.8526 9.62253H17.1481C17.0584 9.41758 16.9998 9.20041 16.9741 8.97816C16.9572 8.80991 16.8784 8.65392 16.753 8.54042C16.6277 8.42693 16.4647 8.364 16.2956 8.36383H14.7051C14.536 8.364 14.373 8.42693 14.2476 8.54042C14.1223 8.65392 14.0435 8.80991 14.0266 8.97816C14.0007 9.20044 13.9418 9.41762 13.8519 9.62253H13.8526ZM14.5399 19.9645V14.1522C14.5399 13.9712 14.468 13.7976 14.34 13.6696C14.212 13.5415 14.0384 13.4696 13.8573 13.4696C13.6763 13.4696 13.5027 13.5415 13.3747 13.6696C13.2467 13.7976 13.1747 13.9712 13.1747 14.1522V19.9672C13.1747 20.1483 13.2467 20.3219 13.3747 20.4499C13.5027 20.5779 13.6763 20.6498 13.8573 20.6498C14.0384 20.6498 14.212 20.5779 14.34 20.4499C14.468 20.3219 14.5399 20.1483 14.5399 19.9672V19.9645ZM17.8259 19.9645V14.1522C17.8259 13.9712 17.754 13.7976 17.626 13.6696C17.498 13.5415 17.3244 13.4696 17.1433 13.4696C16.9623 13.4696 16.7887 13.5415 16.6607 13.6696C16.5327 13.7976 16.4608 13.9712 16.4608 14.1522V19.9672C16.4608 20.1483 16.5327 20.3219 16.6607 20.4499C16.7887 20.5779 16.9623 20.6498 17.1433 20.6498C17.3244 20.6498 17.498 20.5779 17.626 20.4499C17.754 20.3219 17.8259 20.1483 17.8259 19.9672V19.9645Z" fill="black"/>
</svg>
