<svg width="31" height="31" viewBox="0 0 31 31" fill="none" xmlns="http://www.w3.org/2000/svg">
<path d="M15.5 0C6.9595 0 0 6.9595 0 15.5C0 24.0405 6.9595 31 15.5 31C24.0405 31 31 24.0405 31 15.5C31 6.9595 24.0405 0 15.5 0Z" fill="white"/>
<path d="M21.0969 12.0553L20.8239 20.3195C20.8006 21.0272 20.5025 21.6981 19.9927 22.1896C19.4829 22.6812 18.8017 22.9547 18.0935 22.9522H12.9058C12.1981 22.9548 11.5172 22.6816 11.0075 22.1906C10.4978 21.6997 10.1994 21.0295 10.1754 20.3222L9.90239 12.0553C9.89641 11.8743 9.9626 11.6983 10.0864 11.566C10.2102 11.4338 10.3814 11.3562 10.5625 11.3502C10.7435 11.3442 10.9195 11.4104 11.0517 11.5342C11.184 11.658 11.2616 11.8292 11.2676 12.0102L11.5406 20.2765C11.5542 20.6293 11.704 20.9632 11.9586 21.208C12.2131 21.4528 12.5527 21.5893 12.9058 21.5891H18.0935C18.4471 21.5893 18.787 21.4523 19.0417 21.207C19.2963 20.9617 19.4458 20.6271 19.4587 20.2737L19.7317 12.0102C19.7377 11.8292 19.8154 11.658 19.9476 11.5342C20.0798 11.4104 20.2558 11.3442 20.4369 11.3502C20.6179 11.3562 20.7891 11.4338 20.9129 11.566C21.0367 11.6983 21.1029 11.8743 21.0969 12.0553ZM22 9.30513C22 9.48616 21.9281 9.65978 21.8001 9.78779C21.6721 9.9158 21.4984 9.98772 21.3174 9.98772H9.68259C9.50156 9.98772 9.32794 9.9158 9.19993 9.78779C9.07192 9.65978 9 9.48616 9 9.30513C9 9.12409 9.07192 8.95047 9.19993 8.82246C9.32794 8.69445 9.50156 8.62253 9.68259 8.62253H11.7986C12.0149 8.62312 12.2237 8.54321 12.3843 8.39837C12.5449 8.25352 12.6459 8.0541 12.6676 7.83891C12.7179 7.33413 12.9544 6.86617 13.331 6.52622C13.7075 6.18628 14.1971 5.99869 14.7044 6.00001H16.2949C16.8022 5.99869 17.2918 6.18628 17.6683 6.52622C18.0449 6.86617 18.2814 7.33413 18.3317 7.83891C18.3534 8.0541 18.4544 8.25352 18.615 8.39837C18.7756 8.54321 18.9844 8.62312 19.2007 8.62253H21.3167C21.4978 8.62253 21.6714 8.69445 21.7994 8.82246C21.9274 8.95047 21.9993 9.12409 21.9993 9.30513H22ZM13.8526 8.62253H17.1481C17.0584 8.41758 16.9998 8.20041 16.9741 7.97816C16.9572 7.80991 16.8784 7.65392 16.753 7.54042C16.6277 7.42693 16.4647 7.364 16.2956 7.36383H14.7051C14.536 7.364 14.373 7.42693 14.2476 7.54042C14.1223 7.65392 14.0435 7.80991 14.0266 7.97816C14.0007 8.20044 13.9418 8.41762 13.8519 8.62253H13.8526ZM14.5399 18.9645V13.1522C14.5399 12.9712 14.468 12.7976 14.34 12.6696C14.212 12.5415 14.0384 12.4696 13.8573 12.4696C13.6763 12.4696 13.5027 12.5415 13.3747 12.6696C13.2467 12.7976 13.1747 12.9712 13.1747 13.1522V18.9672C13.1747 19.1483 13.2467 19.3219 13.3747 19.4499C13.5027 19.5779 13.6763 19.6498 13.8573 19.6498C14.0384 19.6498 14.212 19.5779 14.34 19.4499C14.468 19.3219 14.5399 19.1483 14.5399 18.9672V18.9645ZM17.8259 18.9645V13.1522C17.8259 12.9712 17.754 12.7976 17.626 12.6696C17.498 12.5415 17.3244 12.4696 17.1433 12.4696C16.9623 12.4696 16.7887 12.5415 16.6607 12.6696C16.5327 12.7976 16.4608 12.9712 16.4608 13.1522V18.9672C16.4608 19.1483 16.5327 19.3219 16.6607 19.4499C16.7887 19.5779 16.9623 19.6498 17.1433 19.6498C17.3244 19.6498 17.498 19.5779 17.626 19.4499C17.754 19.3219 17.8259 19.1483 17.8259 18.9672V18.9645Z" fill="black"/>
</svg>
