<svg width="13" height="17" viewBox="0 0 13 17" fill="none" xmlns="http://www.w3.org/2000/svg">
<path d="M12.0969 6.0553L11.8239 14.3195C11.8006 15.0272 11.5025 15.6981 10.9927 16.1896C10.4829 16.6812 9.80167 16.9547 9.09351 16.9522H3.9058C3.1981 16.9548 2.51724 16.6816 2.00754 16.1906C1.49784 15.6997 1.19938 15.0295 1.17543 14.3222L0.902389 6.0553C0.896415 5.87426 0.962602 5.69827 1.08639 5.56603C1.21018 5.4338 1.38142 5.35615 1.56246 5.35018C1.74349 5.3442 1.91949 5.41039 2.05172 5.53418C2.18396 5.65796 2.2616 5.82921 2.26758 6.01025L2.54061 14.2765C2.55421 14.6293 2.70402 14.9632 2.95859 15.208C3.21315 15.4528 3.55266 15.5893 3.9058 15.5891H9.09351C9.44711 15.5893 9.78701 15.4523 10.0417 15.207C10.2963 14.9617 10.4458 14.6271 10.4587 14.2737L10.7317 6.01025C10.7377 5.82921 10.8154 5.65796 10.9476 5.53418C11.0798 5.41039 11.2558 5.3442 11.4369 5.35018C11.6179 5.35615 11.7891 5.4338 11.9129 5.56603C12.0367 5.69827 12.1029 5.87426 12.0969 6.0553ZM13 3.30513C13 3.48616 12.9281 3.65978 12.8001 3.78779C12.6721 3.9158 12.4984 3.98772 12.3174 3.98772H0.682594C0.501559 3.98772 0.327938 3.9158 0.199927 3.78779C0.0719157 3.65978 0 3.48616 0 3.30513C0 3.12409 0.0719157 2.95047 0.199927 2.82246C0.327938 2.69445 0.501559 2.62253 0.682594 2.62253H2.79863C3.01491 2.62312 3.22367 2.54321 3.38429 2.39837C3.5449 2.25352 3.64588 2.0541 3.66758 1.83891C3.71795 1.33413 3.95444 0.866171 4.33099 0.526224C4.70753 0.186276 5.19714 -0.00131284 5.70444 6.91664e-06H7.29488C7.80217 -0.00131284 8.29179 0.186276 8.66833 0.526224C9.04487 0.866171 9.28137 1.33413 9.33174 1.83891C9.35344 2.0541 9.45442 2.25352 9.61503 2.39837C9.77565 2.54321 9.9844 2.62312 10.2007 2.62253H12.3167C12.4978 2.62253 12.6714 2.69445 12.7994 2.82246C12.9274 2.95047 12.9993 3.12409 12.9993 3.30513H13ZM4.85256 2.62253H8.14812C8.05843 2.41758 7.99976 2.20041 7.97406 1.97816C7.95715 1.80991 7.87839 1.65392 7.75304 1.54042C7.62768 1.42693 7.46466 1.364 7.29556 1.36383H5.70512C5.53602 1.364 5.373 1.42693 5.24765 1.54042C5.12229 1.65392 5.04353 1.80991 5.02662 1.97816C5.0007 2.20044 4.94181 2.41762 4.85188 2.62253H4.85256ZM5.53993 12.9645V7.15223C5.53993 6.97119 5.46802 6.79757 5.34 6.66956C5.21199 6.54155 5.03837 6.46963 4.85734 6.46963C4.6763 6.46963 4.50268 6.54155 4.37467 6.66956C4.24666 6.79757 4.17474 6.97119 4.17474 7.15223V12.9672C4.17474 13.1483 4.24666 13.3219 4.37467 13.4499C4.50268 13.5779 4.6763 13.6498 4.85734 13.6498C5.03837 13.6498 5.21199 13.5779 5.34 13.4499C5.46802 13.3219 5.53993 13.1483 5.53993 12.9672V12.9645ZM8.82594 12.9645V7.15223C8.82594 6.97119 8.75402 6.79757 8.62601 6.66956C8.498 6.54155 8.32438 6.46963 8.14334 6.46963C7.96231 6.46963 7.78869 6.54155 7.66068 6.66956C7.53267 6.79757 7.46075 6.97119 7.46075 7.15223V12.9672C7.46075 13.1483 7.53267 13.3219 7.66068 13.4499C7.78869 13.5779 7.96231 13.6498 8.14334 13.6498C8.32438 13.6498 8.498 13.5779 8.62601 13.4499C8.75402 13.3219 8.82594 13.1483 8.82594 12.9672V12.9645Z" fill="black"/>
</svg>
