<svg width="25" height="25" viewBox="0 0 25 25" fill="none" xmlns="http://www.w3.org/2000/svg">
<rect x="0.5" y="0.5" width="24" height="24" rx="12" fill="#F7F7F7" stroke="#EBEBEB"/>
<path d="M7 8.44446H8.22222H18" stroke="#B1B1B1" stroke-width="0.794444" stroke-linecap="round" stroke-linejoin="round"/>
<path d="M16.7782 8.44444V17C16.7782 17.3242 16.6494 17.635 16.4202 17.8642C16.191 18.0935 15.8801 18.2222 15.556 18.2222H9.44488C9.12072 18.2222 8.80985 18.0935 8.58064 17.8642C8.35143 17.635 8.22266 17.3242 8.22266 17V8.44444M10.056 8.44444V7.22222C10.056 6.89807 10.1848 6.58719 10.414 6.35798C10.6432 6.12877 10.9541 6 11.2782 6H13.7227C14.0468 6 14.3577 6.12877 14.5869 6.35798C14.8161 6.58719 14.9449 6.89807 14.9449 7.22222V8.44444" stroke="#B1B1B1" stroke-width="0.794444" stroke-linecap="round" stroke-linejoin="round"/>
<path d="M11.2773 11.5V15.1667" stroke="#B1B1B1" stroke-width="0.794444" stroke-linecap="round" stroke-linejoin="round"/>
<path d="M13.7227 11.5V15.1667" stroke="#B1B1B1" stroke-width="0.794444" stroke-linecap="round" stroke-linejoin="round"/>
</svg>
