<svg width="13" height="13" viewBox="0 0 13 13" fill="none" xmlns="http://www.w3.org/2000/svg">
<path d="M9.07086 2.55803L10.4413 3.92787M9.95216 1.35125L6.24641 5.057C6.05493 5.24821 5.92435 5.49182 5.87111 5.75713L5.52881 7.47056L7.24224 7.12762C7.50754 7.07456 7.75084 6.9445 7.94237 6.75297L11.6481 3.04721C11.7595 2.93585 11.8478 2.80365 11.9081 2.65815C11.9684 2.51266 11.9994 2.35671 11.9994 2.19923C11.9994 2.04174 11.9684 1.8858 11.9081 1.7403C11.8478 1.59481 11.7595 1.4626 11.6481 1.35125C11.5368 1.23989 11.4046 1.15155 11.2591 1.09129C11.1136 1.03102 10.9576 1 10.8001 1C10.6427 1 10.4867 1.03102 10.3412 1.09129C10.1957 1.15155 10.0635 1.23989 9.95216 1.35125V1.35125Z" stroke="black" stroke-width="0.977781" stroke-linecap="round" stroke-linejoin="round"/>
<path d="M10.706 8.76462V10.7058C10.706 11.0491 10.5697 11.3782 10.327 11.6209C10.0843 11.8636 9.75511 12 9.41188 12H2.29414C1.95091 12 1.62174 11.8636 1.37904 11.6209C1.13635 11.3782 1 11.0491 1 10.7058V3.58808C1 3.24485 1.13635 2.91569 1.37904 2.67299C1.62174 2.43029 1.95091 2.29395 2.29414 2.29395H4.23534" stroke="black" stroke-width="0.977781" stroke-linecap="round" stroke-linejoin="round"/>
</svg>
