<svg width="23" height="23" viewBox="0 0 23 23" fill="none" xmlns="http://www.w3.org/2000/svg">
<circle cx="11.5" cy="11.5" r="11.5" fill="#019071"/>
<path d="M14.432 7.65908C14.5576 7.53356 14.7066 7.43398 14.8706 7.36605C15.0346 7.29812 15.2104 7.26315 15.3879 7.26315C15.5654 7.26315 15.7412 7.29812 15.9052 7.36605C16.0692 7.43398 16.2182 7.53356 16.3437 7.65908C16.4693 7.7846 16.5688 7.93362 16.6368 8.09763C16.7047 8.26163 16.7397 8.43741 16.7397 8.61493C16.7397 8.79245 16.7047 8.96823 16.6368 9.13223C16.5688 9.29624 16.4693 9.44526 16.3437 9.57078L9.89174 16.0228L7.26315 16.7397L7.98004 14.1111L14.432 7.65908Z" stroke="white" stroke-width="0.955852" stroke-linecap="round" stroke-linejoin="round"/>
</svg>
