<svg width="9" height="10" viewBox="0 0 9 10" fill="none" xmlns="http://www.w3.org/2000/svg">
<path fill-rule="evenodd" clip-rule="evenodd" d="M1.25 4.375V3.125C1.25 2.2962 1.57924 1.50134 2.16529 0.915291C2.75134 0.32924 3.5462 0 4.375 0C5.2038 0 5.99866 0.32924 6.58471 0.915291C7.17076 1.50134 7.5 2.2962 7.5 3.125V4.375C7.83152 4.375 8.14946 4.5067 8.38388 4.74112C8.6183 4.97554 8.75 5.29348 8.75 5.625V8.75C8.75 9.08152 8.6183 9.39946 8.38388 9.63388C8.14946 9.8683 7.83152 10 7.5 10H1.25C0.918479 10 0.600537 9.8683 0.366116 9.63388C0.131696 9.39946 0 9.08152 0 8.75V5.625C0 5.29348 0.131696 4.97554 0.366116 4.74112C0.600537 4.5067 0.918479 4.375 1.25 4.375ZM6.25 3.125V4.375H2.5V3.125C2.5 2.62772 2.69754 2.15081 3.04917 1.79917C3.40081 1.44754 3.87772 1.25 4.375 1.25C4.87228 1.25 5.34919 1.44754 5.70083 1.79917C6.05246 2.15081 6.25 2.62772 6.25 3.125Z" fill="black"/>
<circle cx="4.5" cy="7.5" r="1.5" fill="white"/>
</svg>
