<svg width="25" height="25" viewBox="0 0 25 25" fill="none" xmlns="http://www.w3.org/2000/svg">
<rect width="25" height="25" rx="12.5" fill="#019071"/>
<path fill-rule="evenodd" clip-rule="evenodd" d="M9.25 11.375V10.125C9.25 9.2962 9.57924 8.50134 10.1653 7.91529C10.7513 7.32924 11.5462 7 12.375 7C13.2038 7 13.9987 7.32924 14.5847 7.91529C15.1708 8.50134 15.5 9.2962 15.5 10.125V11.375C15.8315 11.375 16.1495 11.5067 16.3839 11.7411C16.6183 11.9755 16.75 12.2935 16.75 12.625V15.75C16.75 16.0815 16.6183 16.3995 16.3839 16.6339C16.1495 16.8683 15.8315 17 15.5 17H9.25C8.91848 17 8.60054 16.8683 8.36612 16.6339C8.1317 16.3995 8 16.0815 8 15.75V12.625C8 12.2935 8.1317 11.9755 8.36612 11.7411C8.60054 11.5067 8.91848 11.375 9.25 11.375ZM14.25 10.125V11.375H10.5V10.125C10.5 9.62772 10.6975 9.15081 11.0492 8.79917C11.4008 8.44754 11.8777 8.25 12.375 8.25C12.8723 8.25 13.3492 8.44754 13.7008 8.79917C14.0525 9.15081 14.25 9.62772 14.25 10.125Z" fill="white"/>
<circle cx="12.5" cy="14.5" r="1.5" fill="#019071"/>
</svg>
