<svg width="116" height="85" viewBox="0 0 116 85" fill="none" xmlns="http://www.w3.org/2000/svg">
<g opacity="0.4">
<path d="M115.599 78.1367C115.493 78.066 115.372 78.0497 115.248 78.0441C114.926 78.0295 114.603 78.0128 114.281 77.9954C113.008 77.9265 111.736 77.836 110.459 77.8787C110.09 77.891 109.721 77.8927 109.353 77.9112C109.115 77.9231 108.903 77.8756 108.72 77.7177C108.72 77.6621 108.715 77.6157 108.721 77.5711C108.835 76.7864 108.793 76.0098 108.617 75.2374C108.488 74.669 108.356 74.1003 108.251 73.5271C108.038 72.3629 107.724 71.2248 107.375 70.0959C107.171 69.4341 106.841 68.8237 106.571 68.1889C105.998 66.8442 105.296 65.5679 104.55 64.3145C103.912 63.2423 103.2 62.2264 102.311 61.3413C101.829 60.862 101.298 60.447 100.744 60.0585C100.617 59.9694 100.48 59.9005 100.322 59.8925C100.138 59.8832 99.9713 59.9955 99.9293 60.1506C99.8871 60.3068 99.9407 60.442 100.094 60.5421C100.222 60.6257 100.36 60.6948 100.485 60.7823C101.556 61.5301 102.438 62.4635 103.172 63.5388C103.57 64.1221 103.937 64.7256 104.291 65.337C104.946 66.467 105.503 67.6442 106.051 68.8286C106.578 69.9646 106.945 71.1444 107.229 72.3563C107.383 73.0134 107.527 73.6727 107.676 74.331C107.923 75.4264 108.166 76.522 107.973 77.657C107.961 77.732 107.966 77.8103 107.965 77.8871C107.965 78.1342 107.936 78.3761 107.863 78.6141C107.791 78.8486 107.738 79.0889 107.67 79.3246C107.545 79.754 107.378 80.1606 107.11 80.5279C106.874 80.8513 106.609 81.1499 106.369 81.4683C105.743 82.3003 104.91 82.8618 103.991 83.3145C103.936 83.3415 103.88 83.3683 103.822 83.3867C103.501 83.4884 103.177 83.5848 102.856 83.6883C102.622 83.7638 102.385 83.8198 102.141 83.8575C101.519 83.9541 100.889 83.9892 100.266 84.0742C98.6736 84.2917 97.078 84.2893 95.4821 84.1796C93.7204 84.0586 91.9611 83.9005 90.201 83.7564C89.9255 83.7339 89.6512 83.6977 89.376 83.6719C88.5656 83.5959 87.7552 83.5208 86.9446 83.4475C85.7057 83.3354 84.4678 83.2089 83.2273 83.1182C81.7262 83.0084 80.2207 82.9599 78.7217 82.8171C77.9727 82.7457 77.2208 82.7006 76.4777 82.5756C75.8876 82.4763 75.2966 82.3814 74.7087 82.2704C73.5599 82.0535 72.4424 81.7307 71.3665 81.2675C70.7411 80.9982 70.169 80.6448 69.6453 80.2122C69.0908 79.7542 68.7494 79.1607 68.6144 78.4618C68.539 78.0715 68.496 77.6693 68.5282 77.269C68.5962 76.4245 68.6077 75.5825 68.4896 74.7408C68.4505 74.4621 68.4774 74.193 68.6373 73.9438C68.7106 73.8296 68.7509 73.6925 68.7965 73.5624C68.9142 73.226 69.1419 72.9886 69.4467 72.8162C69.7304 72.6556 70.0337 72.5545 70.356 72.5069C71.519 72.3352 72.6864 72.3585 73.8503 72.4667C74.9661 72.5704 76.0769 72.7265 77.1912 72.8475C77.6183 72.8939 78.0488 72.9141 78.4784 72.9332C79.2697 72.9683 79.9573 72.7081 80.5343 72.1685C80.6355 72.074 80.7336 72.0408 80.863 72.0542C81.138 72.0826 81.4129 72.1204 81.6888 72.13C82.8701 72.1711 83.9934 72.4552 85.0764 72.9169C85.175 72.9589 85.2747 73.0016 85.3779 73.0288C85.567 73.0786 85.7443 73.0066 85.8148 72.8636C85.8867 72.7178 85.84 72.5289 85.6784 72.4207C85.5264 72.3189 85.3644 72.2239 85.1944 72.158C84.0574 71.7172 82.8931 71.3968 81.6603 71.3981C81.522 71.3983 81.3836 71.3943 81.2457 71.3856C81.0536 71.3735 81.0328 71.3511 81.0256 71.1739C81.0237 71.1279 81.0296 71.0815 81.0263 71.0357C80.9674 70.2283 80.6501 69.5589 79.99 69.065C79.5932 68.7681 79.1639 68.5362 78.6984 68.37C78.3807 68.2566 78.0584 68.1554 77.7436 68.0345C76.6681 67.6215 75.644 67.0958 74.6193 66.5744C73.9059 66.2113 73.1736 65.9031 72.4074 65.6741C70.9327 65.2332 69.4199 64.9796 67.8998 64.7665C66.7289 64.6023 65.5558 64.4548 64.3768 64.3597C64.1183 64.3388 63.8605 64.3108 63.6112 64.287C63.5912 64.2428 63.5695 64.2156 63.5676 64.1871C63.5504 63.9419 63.5328 63.6967 63.5226 63.4512C63.4185 60.9322 63.4282 58.4128 63.5003 55.8934C63.531 54.8186 63.5732 53.7441 63.6091 52.6694C63.6188 52.3776 63.6125 52.0848 63.6343 51.7941C63.6848 51.1211 63.7072 50.4468 63.8553 49.7818C64.0074 49.099 64.3703 48.576 64.9327 48.1801C65.1586 48.0212 65.3862 47.8628 65.624 47.7227C66.5272 47.1905 67.3481 46.5478 68.148 45.8747C69.1472 45.034 69.9606 44.0431 70.5822 42.8952C70.8472 42.4059 71.0395 41.896 71.1087 41.3356C71.1823 40.7397 71.2144 40.1421 71.2326 39.544C71.2414 39.2544 71.2039 38.9605 71.1596 38.6728C71.0931 38.2412 70.8763 37.9006 70.4886 37.6779C70.1676 37.4936 69.8334 37.3425 69.4734 37.2532C69.2025 37.186 68.954 37.0705 68.7157 36.927C68.4997 36.797 68.3929 36.6267 68.4061 36.3603C68.4374 35.7311 68.4662 35.1026 68.5662 34.4793C68.656 33.9186 68.7404 33.357 68.8256 32.7955C68.8509 32.6284 68.8674 32.4601 68.8947 32.2934C68.9109 32.1943 68.9642 32.1255 69.0788 32.1309C69.1709 32.1352 69.2631 32.1391 69.3552 32.1399C70.5229 32.1498 71.6922 32.181 72.8575 32.1044C74.0694 32.0248 75.2828 32.0095 76.4954 31.964C77.1708 31.9386 77.8467 31.9581 78.5219 32.0105C78.8306 32.0345 79.1252 32.1231 79.4294 32.1624C79.8773 32.2203 80.1664 32.0402 80.3147 31.6142C80.3658 31.4673 80.39 31.3169 80.3952 31.1625C80.4168 30.5172 80.429 29.8729 80.3219 29.2319C80.2713 28.9291 80.2422 28.6229 80.1996 28.3188C80.0698 27.3916 79.974 26.4591 79.7831 25.5412C79.4299 23.8436 79.0783 22.1457 78.7167 20.4499C78.5152 19.5047 78.2989 18.5635 77.9736 17.6494C77.8248 17.2313 77.7466 16.7899 77.7068 16.3452C77.5901 15.045 77.4766 13.745 77.2669 12.4549C77.0226 10.9511 76.6648 9.47707 76.1236 8.05203C75.7623 7.10071 75.3045 6.19739 74.6484 5.41019C73.3848 3.89414 71.9188 2.63246 70.1115 1.79353C69.0503 1.30089 67.9526 0.925371 66.8193 0.636815C65.2346 0.233325 63.6348 -0.025949 61.9944 0.00206578C61.0404 0.0183338 60.0942 0.090801 59.1564 0.27989C57.9921 0.514615 56.887 0.918441 55.7975 1.38155C54.2803 2.02653 52.928 2.91552 51.773 4.08902C50.9298 4.94573 50.1917 5.88661 49.693 6.99457C49.5796 7.24632 49.4729 7.50217 49.3412 7.74421C49.0032 8.36543 48.7177 9.01037 48.4489 9.6632C47.9573 10.8574 47.5235 12.0691 47.3384 13.3557C47.3015 13.6118 47.2588 13.8672 47.2183 14.1252C47.0519 14.1582 46.9029 14.1896 46.7531 14.2171C46.1333 14.3307 45.5842 14.6011 45.1196 15.0179C43.9468 16.0699 43.4853 17.3985 43.6556 18.9523C43.7267 19.6013 43.9586 20.1988 44.3253 20.7734C44.194 20.8635 44.0806 20.962 43.985 21.0814C43.1111 22.1729 42.2721 23.2899 41.4964 24.4537C41.198 24.9014 40.9365 25.3699 40.7135 25.8602C40.5726 26.1698 40.4698 26.4904 40.4157 26.825C40.2494 27.8548 40.7355 28.7027 41.597 29.0939C42.0061 29.2796 42.4319 29.4004 42.8757 29.4556C43.5156 29.5351 44.1569 29.6026 44.7968 29.6822C45.1805 29.7299 45.5626 29.7319 45.9455 29.6815C46.1731 29.6516 46.4008 29.6248 46.6436 29.6501C46.7467 29.9096 46.8464 30.1663 46.9503 30.4212C47.3355 31.3662 47.9215 32.1586 48.7355 32.7803C49.1761 33.1168 49.6401 33.4151 50.1374 33.6597C50.709 33.9407 51.3197 34.0985 51.9499 34.1467C52.9958 34.2267 54.0385 34.2163 55.0447 33.8521C55.1863 33.8009 55.3303 33.7619 55.4745 33.7772C55.5341 33.885 55.4938 33.9718 55.468 34.0559C55.4051 34.2612 55.334 34.464 55.2695 34.6688C55.0423 35.3913 54.8891 36.1245 54.9523 36.8889C54.9556 36.929 54.9325 36.9712 54.9226 37.0088C54.8395 37.0372 54.7687 37.0686 54.6946 37.0853C54.4638 37.1372 54.3658 37.2961 54.3463 37.5143C54.3245 37.7591 54.3087 38.0045 54.2941 38.2499C54.2766 38.544 54.3131 38.8323 54.3968 39.1148C54.5665 39.6876 54.8571 39.9174 55.4511 39.9723C55.9121 40.015 56.3722 39.982 56.8328 39.9829C58.2319 39.9855 59.6274 39.9058 61.0223 39.8087C61.2948 39.7897 61.5674 39.7727 61.8581 39.779C61.8778 40.0413 61.8317 40.2626 61.7965 40.4875C61.7361 40.8721 61.7718 40.8569 61.3861 40.8828C61.2041 40.895 61.0219 40.9363 60.8449 40.9835C60.6063 41.0469 60.3871 41.1587 60.185 41.3018C59.2633 41.955 59.0702 43.1535 59.7397 44.065C60.3356 44.8761 61.4614 45.2546 62.4556 44.9836C62.8812 44.8675 63.2555 44.6654 63.5471 44.333C63.9791 43.8406 64.1504 43.2758 63.994 42.6247C63.8821 42.1586 63.6301 41.7841 63.2715 41.4753C63.084 41.3137 62.8747 41.1834 62.6466 41.091C62.526 41.0422 62.48 40.9761 62.4933 40.8501C62.5286 40.5142 62.5579 40.1776 62.5912 39.8415C62.6001 39.7524 62.655 39.708 62.7431 39.7027C62.789 39.6999 62.835 39.6962 62.881 39.6942C64.4004 39.6255 65.9198 39.558 67.439 39.4875C67.792 39.4711 68.1446 39.4467 68.497 39.4207C68.6033 39.4128 68.7113 39.3973 68.8132 39.3672C69.0524 39.2966 69.2061 39.1436 69.2585 38.8898C69.293 38.7224 69.3032 38.5553 69.2995 38.3861C69.2882 37.8722 69.2746 37.8665 69.7454 38.0945C69.8006 38.1212 69.8541 38.1514 69.9094 38.1777C70.2606 38.345 70.4287 38.6156 70.4589 39.0111C70.5155 39.7515 70.4467 40.4826 70.3736 41.2166C70.3268 41.6859 70.1633 42.1103 69.9433 42.5184C69.3683 43.5852 68.617 44.5083 67.6903 45.2908C66.9032 45.9554 66.0921 46.5854 65.2045 47.113C64.9409 47.2697 64.6853 47.4421 64.438 47.6234C63.7693 48.1137 63.3312 48.7555 63.1423 49.5727C62.9716 50.3113 62.9261 51.0614 62.8918 51.8125C62.847 52.7946 62.8335 53.7778 62.7943 54.7604C62.6778 57.6782 62.6605 60.5971 62.7825 63.5157C62.7889 63.6692 62.7912 63.8231 62.804 63.9761C62.8265 64.2456 62.7607 64.2495 62.5647 64.2428C61.9332 64.2213 61.3072 64.2888 60.6822 64.368C60.5756 64.3815 60.4683 64.4 60.3614 64.3997C60.2455 64.3994 60.1281 64.4853 60.0151 64.4034C60.0029 64.3688 59.9856 64.3405 59.984 64.3115C59.9169 63.0845 59.8082 61.8595 59.8341 60.6284C59.8477 59.9833 59.8376 59.3378 59.8421 58.6924C59.8473 57.955 59.8495 57.2174 59.8657 56.4801C59.904 54.7286 59.9149 52.9773 59.8381 51.2267C59.8227 50.8751 59.7836 50.5201 59.7101 50.1764C59.4461 48.9399 58.8271 47.9345 57.7594 47.219C57.2355 46.8679 56.6925 46.5516 56.1422 46.2472C55.2141 45.7337 54.5168 44.9971 54.0087 44.0748C53.4326 43.0292 53.112 41.9264 53.2622 40.717C53.3 40.4124 53.3071 40.1041 53.3305 39.7977C53.3447 39.6121 53.3366 39.4272 53.2834 39.2495C53.1917 38.9427 52.8871 38.8432 52.6254 39.0342C52.5397 39.0967 52.4687 39.18 52.3939 39.2567C51.857 39.8071 51.3597 40.3931 50.8728 40.987C50.5228 41.414 50.1723 41.8426 49.8909 42.3217C49.7316 42.5931 49.6358 42.8825 49.6497 43.1968C49.6591 43.4109 49.6796 43.6281 49.7286 43.836C49.9859 44.9289 50.4529 45.9161 51.1987 46.7688C51.807 47.4643 52.4627 48.1096 53.1497 48.7258C53.8728 49.3742 54.5374 50.074 55.044 50.9117C55.2187 51.2005 55.4107 51.479 55.6 51.7587C55.6507 51.8334 55.7136 51.9039 55.7835 51.9607C55.8926 52.0493 56.0069 52.0452 56.1246 51.9715C56.2421 51.8979 56.2964 51.7861 56.2654 51.6588C56.2369 51.5422 56.1789 51.4301 56.1187 51.3247C55.9436 51.0182 55.7574 50.7182 55.5821 50.4119C55.3522 50.0101 55.0815 49.6389 54.7697 49.2973C54.3862 48.8772 53.9873 48.4734 53.5607 48.096C52.9388 47.5458 52.354 46.9587 51.8042 46.335C51.161 45.6052 50.7448 44.7673 50.4886 43.8325C50.3344 43.2695 50.4072 42.7882 50.7672 42.3222C51.2746 41.6653 51.8013 41.0253 52.3461 40.3997C52.3931 40.3458 52.4344 40.2689 52.5482 40.3106C52.5351 40.4731 52.5287 40.6413 52.5069 40.8075C52.44 41.3165 52.4666 41.8266 52.5766 42.3208C53.0013 44.2281 53.9353 45.7965 55.6583 46.8187C55.8561 46.9362 56.0564 47.0497 56.2577 47.1612C56.6475 47.3771 57.0207 47.6189 57.3901 47.8679C58.1783 48.3993 58.6654 49.1398 58.9145 50.0448C59.0372 50.4904 59.0914 50.9477 59.1076 51.4099C59.1601 52.8999 59.1627 54.3907 59.1318 55.8805C59.0933 57.7396 59.1051 59.5987 59.0972 61.4577C59.0953 61.8874 59.1259 62.3173 59.1466 62.7469C59.1724 63.284 59.2067 63.8207 59.2305 64.3578C59.2386 64.5396 59.2195 64.561 59.0277 64.5903C58.4058 64.6855 57.7854 64.8011 57.1598 64.859C55.9353 64.9723 54.7203 65.1406 53.5171 65.3929C52.6464 65.5755 51.7806 65.7831 50.9067 65.9482C50.274 66.0677 49.6309 66.1317 48.9937 66.2288C48.6148 66.2865 48.239 66.3647 47.8606 66.4263C46.9821 66.5693 46.1023 66.7048 45.2239 66.8493C44.4062 66.9838 43.5884 67.1181 42.7737 67.2693C42.5107 67.3181 42.4366 67.234 42.3573 67.0285C42.2193 66.671 42.0875 66.311 41.9509 65.9529C41.8799 65.7668 41.8097 65.5801 41.7294 65.3979C41.6058 65.1173 41.4706 64.8417 41.3459 64.5616C40.9287 63.6248 40.3657 62.7908 39.6154 62.0869C38.9608 61.4728 38.1855 61.0847 37.3165 60.8903C36.1847 60.6371 35.0379 60.5759 33.881 60.6604C33.2218 60.7085 32.5681 60.7964 31.913 60.8805C30.9219 61.0078 29.952 61.2407 28.9749 61.4384C28.9151 61.4504 28.8533 61.4618 28.7982 61.4865C28.6689 61.5446 28.5822 61.6989 28.6014 61.8216C28.6253 61.9751 28.7563 62.0915 28.9214 62.0975C28.9977 62.1003 29.0753 62.0953 29.1509 62.0842C29.4394 62.042 29.728 62.0002 30.0152 61.9505C30.9528 61.7883 31.8887 61.6185 32.8348 61.5075C34.1219 61.3565 35.4022 61.316 36.6909 61.5211C37.8835 61.7109 38.8512 62.2454 39.6282 63.171C40.3632 64.0466 40.7661 65.0925 41.2186 66.1148C41.3735 66.4648 41.4944 66.8299 41.6257 67.19C41.6542 67.2683 41.7335 67.34 41.6756 67.4465C41.5161 67.5406 41.3246 67.5292 41.1472 67.5696C40.5342 67.7092 39.9428 67.9347 39.3177 68.0265C39.2443 68.0373 39.1695 68.0713 39.106 68.1115C38.9137 68.2329 38.9343 68.5433 39.1375 68.6467C39.2217 68.6895 39.31 68.7074 39.4049 68.6913C39.6167 68.6554 39.8302 68.628 40.0406 68.5856C40.7473 68.4435 41.4428 68.2513 42.157 68.1411C42.8999 68.0265 43.6399 67.8912 44.3785 67.7511C45.736 67.4936 47.1028 67.2935 48.4683 67.0857C48.7067 67.0494 48.9531 67.0362 49.2236 67.0773C49.0793 67.6001 49.0434 68.1175 49.009 68.6362C48.9475 69.562 49.0155 70.478 49.1996 71.3853C49.3857 72.302 49.5662 73.221 49.9218 74.0929C49.9266 74.1046 49.9203 74.1208 49.9179 74.1505C49.7261 74.1842 49.5314 74.2313 49.3339 74.2508C48.2141 74.3616 47.1253 74.6243 46.0513 74.9438C45.3009 75.167 44.5732 75.4581 43.9139 75.8932C43.7864 75.9772 43.6546 76.0625 43.5494 76.1711C43.2726 76.4571 43.2726 76.7733 43.5339 77.077C43.6671 77.2317 43.8357 77.3339 44.0263 77.4057C44.3018 77.5094 44.5871 77.554 44.8787 77.5862C45.3197 77.6349 45.768 77.6266 46.2 77.7482C46.2581 77.8392 46.3506 77.7952 46.429 77.8066C46.4842 77.8094 46.5401 77.8001 46.5939 77.819C46.5395 77.8051 46.4839 77.8112 46.4289 77.8096C46.3473 77.8162 46.2608 77.79 46.1863 77.8451C45.2741 77.9706 44.3619 78.0964 43.4496 78.2214C42.7806 78.3131 42.1121 78.4098 41.442 78.4931C40.5432 78.6047 39.6436 78.7095 38.7436 78.8102C37.7214 78.9246 36.6992 79.0408 35.6753 79.1383C34.7888 79.2228 33.8992 79.2745 33.0122 79.3542C31.1144 79.5247 29.212 79.6147 27.3088 79.6866C24.6078 79.7885 21.9051 79.8252 19.2077 80.0424C17.5089 80.1791 15.8025 80.1775 14.1003 79.9823C13.0978 79.8673 12.1872 79.5553 11.3995 78.9199C11.1011 78.6792 10.8117 78.4253 10.5359 78.159C9.6163 77.2707 8.93833 76.2201 8.47572 75.0299C8.43165 74.9166 8.40026 74.7957 8.38209 74.6754C8.29263 74.0836 8.19055 73.4928 8.12962 72.8979C8.06712 72.2876 8.01075 71.6752 8.04333 71.0585C8.1229 69.5524 8.31756 68.0629 8.67284 66.5964C8.88648 65.7146 9.15184 64.8497 9.60853 64.0575C10.4754 62.5537 11.5367 61.2135 12.9084 60.1323C13.4027 59.7426 13.8845 59.3367 14.3682 58.9337C15.1529 58.2798 15.8405 57.5377 16.3526 56.6496C16.7043 56.0397 17.1991 55.607 17.8388 55.3292C17.881 55.3109 17.92 55.2857 17.9617 55.2663C18.3696 55.0761 18.7288 54.8169 19.0471 54.4999C19.3084 54.2398 19.5664 53.9763 19.8307 53.7194C20.3872 53.1784 21.0374 52.8437 21.8226 52.7623C22.4627 52.696 23.1022 52.6091 23.7222 52.4185C24.0956 52.3038 24.4292 52.1247 24.7211 51.867C24.9751 51.6428 25.2157 51.4039 25.4066 51.1232C26.011 50.2346 26.6035 49.338 27.0683 48.3655C27.2467 47.992 27.4033 47.6081 27.5738 47.2307C27.9055 46.4963 28.3548 45.8451 28.9133 45.2608C29.6467 44.4935 30.514 43.9261 31.4665 43.4804C32.6337 42.934 33.8348 42.4739 35.0583 42.0666C36.4785 41.5938 37.9326 41.307 39.421 41.1744C40.5221 41.0762 41.6237 40.9808 42.7222 40.8586C43.762 40.7429 44.8014 40.6787 45.8482 40.7032C46.6934 40.723 47.5366 40.7595 48.3775 40.8471C48.4851 40.8582 48.5901 40.8688 48.6935 40.8204C48.7998 40.7707 48.8649 40.6935 48.8786 40.5767C48.8942 40.4437 48.8565 40.3279 48.7351 40.2633C48.6553 40.2209 48.5644 40.1876 48.4752 40.1766C47.9114 40.1073 47.3483 40.0175 46.7822 39.9865C45.1833 39.8987 43.5901 39.9901 42.0006 40.1785C41.1622 40.2778 40.3207 40.3512 39.4798 40.4276C38.5313 40.5136 37.5877 40.6266 36.6593 40.8482C34.6822 41.3202 32.7927 42.0342 30.9599 42.905C30.7109 43.0233 30.467 43.1546 30.2297 43.295C28.6771 44.2136 27.4944 45.4664 26.8043 47.1486C26.3121 48.3486 25.6468 49.4495 24.9226 50.5181C24.794 50.7079 24.6449 50.8854 24.4924 51.0572C24.1564 51.4356 23.7408 51.669 23.2413 51.7825C22.7306 51.8987 22.2147 51.9732 21.697 52.0298C20.8236 52.1253 20.0812 52.4879 19.4377 53.0709C19.2671 53.2255 19.1021 53.3872 18.9452 53.5556C18.4804 54.0543 17.9642 54.474 17.3333 54.757C16.6885 55.0463 16.1713 55.498 15.8175 56.1212C15.7873 56.1744 15.748 56.2225 15.7167 56.2752C15.2406 57.077 14.6203 57.7538 13.9093 58.35C13.4151 58.7644 12.9196 59.1778 12.4145 59.5788C11.4938 60.3096 10.6959 61.1568 9.99875 62.1C9.17229 63.2182 8.48451 64.4075 8.11977 65.7646C7.63959 67.5513 7.36726 69.3684 7.29813 71.2164C7.28317 71.6158 7.29564 72.0148 7.34229 72.4127C7.36553 72.6108 7.37562 72.8107 7.38686 73.01C7.39477 73.1499 7.37955 73.1709 7.23285 73.1762C6.68024 73.196 6.12751 73.214 5.57465 73.2255C3.71646 73.2643 1.85823 73.2999 0 73.3368C0 73.5827 0 73.8285 0 74.0744C2.3344 74.0283 4.6688 73.9803 7.00332 73.9404C7.1649 73.9376 7.35741 73.8531 7.48752 73.9827C7.59755 74.0922 7.5449 74.2752 7.57612 74.4234C7.63942 74.7236 7.70483 75.0234 7.76935 75.3233C8.05466 75.6935 8.15129 76.1572 8.37926 76.5554C9.23647 78.0524 10.3857 79.2654 11.893 80.1192C12.3631 80.3854 12.879 80.5375 13.4135 80.6262C14.0964 80.7394 14.784 80.7984 15.4746 80.837C16.8429 80.9135 18.2085 80.8521 19.5736 80.7696C20.2788 80.727 20.9822 80.6484 21.6878 80.6206C24.3436 80.5159 27.0004 80.4334 29.6561 80.3257C30.6843 80.2841 31.7115 80.2094 32.7375 80.1288C33.9776 80.0313 35.2165 79.9173 36.4549 79.7999C37.4638 79.7043 38.4729 79.607 39.4789 79.4853C40.7743 79.3287 42.0667 79.1468 43.3604 78.9759C44.8521 78.7788 46.3426 78.5699 47.8414 78.4347C48.2967 78.3937 48.754 78.3173 49.2155 78.4175C49.815 78.5478 50.4178 78.6637 51.0202 78.7806C51.9841 78.9676 52.9485 79.1527 53.9135 79.3341C54.6371 79.4702 55.354 79.6416 56.0874 79.7261C57.4276 79.8806 58.7534 79.8492 60.0575 79.4611C60.6314 79.2903 61.2157 79.1569 61.8073 79.066C62.9379 78.8923 64.0778 78.9234 65.2113 78.9984C66.0519 79.054 66.8915 79.1585 67.7263 79.2921C67.9935 79.3348 68.1683 79.4186 68.2833 79.6758C68.4873 80.1322 68.8174 80.4983 69.2048 80.8104C69.7085 81.2162 70.2444 81.5704 70.836 81.8393C71.3674 82.0807 71.9084 82.2957 72.4656 82.4678C74.2032 83.0045 75.9874 83.2997 77.7928 83.4792C78.2971 83.5293 78.8031 83.5631 79.3085 83.602C79.9823 83.654 80.6554 83.7237 81.3302 83.7498C82.4209 83.792 83.5065 83.8951 84.5938 83.9786C84.992 84.0091 85.3908 84.0331 85.7882 84.0717C86.8428 84.1741 87.8959 84.2944 88.9514 84.3857C89.915 84.4691 90.8768 84.5692 91.8441 84.6204C92.9784 84.6805 94.108 84.8236 95.2415 84.9059C96.3294 84.9849 97.4196 85.0321 98.5111 84.9744C99.5239 84.9208 100.529 84.7845 101.537 84.6883C102.586 84.5882 103.58 84.3032 104.529 83.8515C105.17 83.5459 105.761 83.1657 106.277 82.6718C106.768 82.2023 107.169 81.659 107.588 81.1291C108.015 80.5891 108.286 79.9776 108.437 79.3094C108.464 79.1897 108.498 79.0715 108.53 78.9532C108.629 78.597 108.63 78.5993 108.984 78.6075C109.414 78.6175 109.845 78.6422 110.274 78.6271C111.597 78.5804 112.915 78.6632 114.234 78.7392C114.572 78.7586 114.91 78.7651 115.247 78.7744C115.372 78.7778 115.492 78.7518 115.598 78.6814C115.791 78.5537 115.792 78.2645 115.599 78.1367ZM76.7059 29.7092C76.7121 29.6831 76.7411 29.6601 76.764 29.6405C77.3541 29.1387 77.6605 28.4636 77.7821 27.7334C77.9657 26.6297 78.0166 25.5101 77.91 24.3905C77.8928 24.2087 77.8417 24.0302 77.812 23.8493C77.8001 23.7767 77.7867 23.6862 77.8787 23.6573C77.9757 23.6269 78.0112 23.7076 78.0325 23.7827C78.1034 24.0333 78.1748 24.2856 78.18 24.5473C78.1878 24.9453 78.182 25.3436 78.182 25.7418C78.1838 26.3237 78.1707 26.9051 78.0963 27.4844C78.0045 28.1997 77.7343 28.841 77.3298 29.4297C77.1992 29.6198 77.0452 29.793 76.8201 29.8787C76.7773 29.895 76.7235 29.8859 76.7068 29.8363C76.6939 29.7977 76.6963 29.7497 76.7059 29.7092ZM75.4593 16.9728C75.5041 16.9438 75.5835 17.0095 75.6114 17.1022C75.8152 17.7792 75.9325 18.4746 76.0435 19.1706C76.1617 19.9122 76.2729 20.6551 76.3724 21.3994C76.4292 21.8247 76.4738 22.253 76.4939 22.6814C76.5435 23.7385 76.6149 24.7955 76.5976 25.8546C76.5926 26.1606 76.5577 26.4662 76.5344 26.7718C76.531 26.8171 76.5283 26.871 76.5029 26.9035C76.4801 26.9327 76.4276 26.9457 76.3864 26.9505C76.3679 26.9526 76.3304 26.92 76.3267 26.8987C76.3137 26.8245 76.3021 26.7478 76.307 26.6731C76.3517 25.9986 76.3343 25.3236 76.3209 24.4767C76.2745 23.3766 76.2438 22.1014 76.0421 20.8425C75.8555 19.6782 75.7257 18.5029 75.429 17.3576C75.4099 17.2839 75.4036 17.2064 75.3961 17.1303C75.39 17.0687 75.401 17.0105 75.4593 16.9728ZM44.2833 28.612C44.1468 28.6518 44.0096 28.6459 43.8758 28.5995C43.2338 28.3769 42.6399 27.5696 42.6286 26.8844C42.6451 26.7073 42.6722 26.5118 42.7415 26.3213C42.8738 25.9578 43.0644 25.6267 43.2739 25.3046C43.3995 25.1117 43.5264 24.9196 43.6474 24.724C43.7859 24.5001 43.8698 24.2541 43.9325 23.9992C43.9495 23.9301 43.9662 23.846 44.0699 23.8436C44.1448 23.8419 44.1826 23.9266 44.1583 24.0648C44.1153 24.3085 44.0359 24.5411 43.9127 24.7552C43.7751 24.9944 43.6289 25.2288 43.4821 25.4625C43.3105 25.7356 43.1538 26.0151 43.0247 26.3121C42.7659 26.9077 42.9094 27.4189 43.3268 27.8786C43.4089 27.9691 43.5034 28.0493 43.5981 28.1272C43.7921 28.2867 44.0025 28.404 44.2687 28.3734C44.3412 28.365 44.3901 28.4271 44.3934 28.4837C44.3968 28.5407 44.3458 28.5937 44.2833 28.612ZM73.7617 17.4505C73.7708 17.3804 73.8225 17.33 73.8797 17.3322C73.9367 17.3343 73.9881 17.3912 73.9962 17.4561C74.0114 17.5776 74.0214 17.7 74.0269 17.8224C74.0407 18.1287 74.0507 18.4353 74.0622 18.7418C74.0648 18.7416 74.0675 18.7416 74.0701 18.7414C74.0832 19.0324 74.0976 19.3234 74.1084 19.6145C74.1119 19.7061 74.1077 19.7983 74.1033 19.89C74.1001 19.9567 74.0645 20.0171 74.0011 20.0251C73.9097 20.0367 73.8754 19.964 73.8585 19.8856C73.8553 19.8707 73.852 19.8555 73.8514 19.8403C73.8197 19.0589 73.7882 18.2776 73.7571 17.4962C73.7565 17.4811 73.7597 17.4657 73.7617 17.4505ZM70.5177 14.6351C70.5218 14.6068 70.5354 14.572 70.5566 14.5562C70.5761 14.5417 70.6142 14.5407 70.6395 14.5486C70.6666 14.5571 70.6924 14.5794 70.7117 14.6017C70.962 14.8922 71.2091 15.1853 71.4608 15.4745C71.9589 16.0471 72.2562 16.7004 72.3168 17.4654C72.3594 18.0027 72.3572 18.5382 72.331 19.0747C72.2362 21.0206 72.133 22.9663 72.045 24.9125C72.0139 25.6018 71.9919 26.2929 72.0754 26.9814C72.0809 27.0268 72.0812 27.0731 72.0806 27.1189C72.0795 27.1892 72.0427 27.2354 71.9728 27.2409C71.9005 27.2466 71.8594 27.1904 71.8465 27.1334C71.8228 27.0295 71.8077 26.9219 71.8038 26.8154C71.7915 26.4781 71.7746 26.1405 71.78 25.8033C71.7957 24.837 71.7994 23.8702 71.8781 22.9058C71.8968 22.6766 71.9014 22.4462 71.9125 22.2163C71.9114 22.2162 71.9102 22.2162 71.9091 22.2161C71.9569 21.343 72.0036 20.4699 72.0529 19.5968C72.0876 18.9837 72.098 18.3703 72.0823 17.7565C72.0626 16.978 71.8158 16.2843 71.3106 15.6867C71.0829 15.4173 70.8541 15.1488 70.6303 14.8762C70.574 14.8075 70.5029 14.7382 70.5177 14.6351ZM67.1623 26.1909C67.3276 25.1755 67.5793 24.1788 67.8083 23.1771C68.2391 21.2933 68.3755 19.3852 68.2708 17.4583C68.2358 16.8145 68.2012 16.1702 68.1427 15.5283C68.0786 14.8255 67.9923 14.1246 67.9058 13.424C67.8326 12.8303 67.744 12.2386 67.666 11.6454C67.6564 11.5723 67.6683 11.4957 67.6753 11.4211C67.6788 11.383 67.7075 11.368 67.7443 11.3784C67.772 11.3862 67.8174 11.3912 67.8229 11.4079C67.8653 11.5373 67.9125 11.6673 67.9347 11.8009C67.9999 12.1943 68.0649 12.5884 68.1107 12.9844C68.2254 13.9752 68.3897 14.9604 68.4378 15.9588C68.4777 16.7869 68.5266 17.6145 68.5582 18.1966C68.5708 20.154 68.4001 21.8447 67.9976 23.5101C67.7886 24.3748 67.5821 25.2406 67.435 26.1183C67.3437 26.6634 67.2703 27.212 67.3854 27.7661C67.4261 27.9624 67.4812 28.152 67.5584 28.3367C67.747 28.7881 68.0764 29.0956 68.5316 29.257C68.7614 29.3385 69.0038 29.3945 69.2452 29.431C70.0378 29.5511 70.835 29.5625 71.634 29.5039C72.4456 29.4444 73.2574 29.3886 74.0693 29.3332C74.1449 29.3281 74.2227 29.3306 74.2971 29.3434C74.3376 29.3503 74.3831 29.3816 74.3682 29.439C74.3611 29.4662 74.3468 29.5065 74.327 29.5128C74.2405 29.5401 74.1517 29.5678 74.062 29.5758C73.5881 29.6183 73.1142 29.6627 72.6393 29.6918C71.6437 29.7527 70.6483 29.8571 69.6499 29.7357C69.4215 29.708 69.1925 29.6812 68.9661 29.6413C67.9632 29.4647 67.2974 28.9133 67.1167 27.7046C67.0412 27.2 67.0804 26.6935 67.1623 26.1909ZM48.0022 13.9724C48.0232 13.7896 48.0502 13.6071 48.0836 13.4262C48.147 13.0831 48.1428 13.0703 48.4481 12.9138C49.0265 12.6174 49.6205 12.5798 50.216 12.8702C50.5359 13.0262 50.8077 13.2526 51.0766 13.4822C51.1814 13.5718 51.2828 13.6693 51.3998 13.74C51.6076 13.8657 51.8425 13.7813 51.9348 13.5675C51.9744 13.4759 51.9747 13.3882 51.9276 13.3027C51.8984 13.2496 51.8684 13.1921 51.8242 13.1529C51.4222 12.7964 51.0168 12.4468 50.5334 12.1966C49.952 11.8957 49.3546 11.9012 48.742 12.0565C48.6404 12.0822 48.5403 12.1137 48.3847 12.1582C48.3957 11.8775 48.4892 11.6836 48.557 11.4834C49.0555 10.0123 49.675 8.59555 50.4648 7.25587C50.6046 7.0187 50.7132 6.76529 50.8887 6.5462C51.0641 6.32716 51.2629 6.2058 51.5507 6.19934C51.9185 6.1911 52.2855 6.14817 52.653 6.12366C53.4233 6.07232 54.1871 6.15983 54.95 6.24383C55.621 6.31773 56.2912 6.40161 56.9595 6.49664C59.7143 6.88838 62.338 7.70174 64.8286 8.94614C65.0344 9.04899 65.1658 9.17955 65.2539 9.39184C65.5856 10.1915 65.7528 11.0325 65.9172 11.8762C66.218 13.4202 66.3196 14.9796 66.3014 16.5495C66.2962 16.9948 66.3018 17.4402 66.2967 17.8856C66.2948 18.0468 66.2678 18.0648 66.1023 18.0671C66.0716 18.0676 66.0409 18.0659 66.0102 18.0651C64.5671 18.0299 63.124 17.9946 61.6809 17.9596C61.3431 17.9514 61.0053 17.9456 60.6675 17.9364C60.3639 17.9282 60.3574 17.9281 60.3064 17.6503C60.2477 17.331 60.1456 17.0264 60.0121 16.7327C59.3184 15.2056 57.722 14.1569 55.9162 14.3399C54.7929 14.4538 53.8809 14.9804 53.1914 15.8808C53.1355 15.9538 53.0752 16.026 53.0341 16.1072C52.9627 16.2487 52.8589 16.2748 52.7029 16.2906C52.1234 16.3494 51.5468 16.4378 50.9699 16.5204C50.7035 16.5584 50.7023 16.5649 50.5893 16.3256C50.4313 15.991 50.2428 15.6762 50.0028 15.3933C49.5224 14.8268 48.9271 14.4418 48.2086 14.2473C47.9898 14.188 47.9791 14.1731 48.0022 13.9724ZM56.8118 16.1408C56.7579 16.2148 56.697 16.2842 56.6348 16.3516C55.9482 17.0941 55.2611 17.8362 54.5729 18.5773C54.5215 18.6327 54.4631 18.683 54.4025 18.7283C54.3618 18.7588 54.3148 18.7421 54.2775 18.712C54.2387 18.6808 54.2197 18.6352 54.2454 18.5916C54.2838 18.5263 54.3266 18.4617 54.3778 18.4062C55.1054 17.6182 55.8345 16.8314 56.5648 16.0458C56.6054 16.0021 56.6573 15.9665 56.7095 15.9369C56.7304 15.925 56.7713 15.9311 56.794 15.9445C56.8175 15.9583 56.83 15.9909 56.8545 16.0254C56.8424 16.0598 56.8363 16.1071 56.8118 16.1408ZM57.1555 17.4688C57.1946 17.4287 57.2565 17.3998 57.3119 17.3909C57.3436 17.3857 57.3835 17.4313 57.4072 17.4462C57.4377 17.5319 57.4017 17.5853 57.3615 17.6295C57.2279 17.777 57.0906 17.9212 56.9527 18.0648C56.7511 18.2747 56.5486 18.4837 56.3447 18.6913C56.3022 18.7345 56.2535 18.7723 56.2045 18.8083C56.1643 18.8379 56.1118 18.8387 56.0817 18.8026C56.056 18.7717 56.0338 18.7167 56.0439 18.6821C56.06 18.6266 56.0967 18.5723 56.1374 18.5294C56.4745 18.1737 56.8132 17.8195 57.1555 17.4688ZM55.7744 20.5117C56.2099 20.0367 56.6493 19.5651 57.0876 19.0926C57.4946 18.6538 57.9014 18.2148 58.3104 17.7779C58.3826 17.7008 58.4434 17.6086 58.5529 17.5728C58.6017 17.5568 58.6962 17.6093 58.6924 17.6568C58.7054 17.7255 58.6646 17.774 58.6248 17.8189C58.4822 17.9795 58.3385 18.1393 58.1921 18.2965C57.4808 19.0601 56.7685 19.8226 56.0566 20.5857C56.0252 20.6194 55.9969 20.6561 55.9638 20.6878C55.8892 20.7594 55.8287 20.8652 55.6976 20.8173C55.6135 20.7865 55.6393 20.6592 55.7744 20.5117ZM47.746 20.4737C47.9729 20.1647 48.1999 19.8558 48.4277 19.5476C48.7286 19.1406 49.0293 18.7337 49.3323 18.3284C49.3864 18.256 49.4299 18.1725 49.5194 18.131C49.5648 18.11 49.6658 18.1474 49.6724 18.2241C49.6688 18.2391 49.668 18.2875 49.6467 18.324C49.6007 18.4033 49.5463 18.4781 49.4918 18.552C49.0003 19.2184 48.5086 19.8848 48.0148 20.5495C47.952 20.634 47.9019 20.7365 47.7901 20.7704C47.765 20.778 47.7268 20.7712 47.7057 20.7558C47.6842 20.7401 47.6689 20.7071 47.6638 20.6792C47.6482 20.5953 47.7011 20.535 47.746 20.4737ZM47.3869 19.1206C47.3503 19.1698 47.3007 19.2082 47.215 19.1794C47.1977 19.1539 47.1652 19.1205 47.1514 19.0806C47.1434 19.0574 47.1581 19.0188 47.1746 18.9957C47.4597 18.5967 47.7461 18.1986 48.0345 17.8019C48.0505 17.7799 48.0838 17.7648 48.1118 17.7588C48.1396 17.7529 48.1827 17.7514 48.198 17.7678C48.2267 17.7984 48.2654 17.8517 48.2557 17.8807C48.1964 18.0582 48.0661 18.1934 47.9586 18.3419C47.7697 18.6027 47.5793 18.8624 47.3869 19.1206ZM45.3792 26.9523C45.2815 26.9781 45.2352 26.9076 45.2167 26.8342C45.1683 26.6424 45.1166 26.4492 45.0939 26.2534C45.0464 25.8443 44.9645 25.4382 44.9755 25.0233C44.9666 24.8412 44.9325 24.6583 44.9744 24.4764C44.9891 24.4129 45.029 24.368 45.0998 24.37C45.1754 24.3722 45.1994 24.4239 45.1947 24.49C45.1747 24.7662 45.218 25.0379 45.2436 25.3114C45.2851 25.7525 45.3388 26.1911 45.4325 26.6245C45.4453 26.6839 45.4539 26.7455 45.4536 26.806C45.4532 26.8639 45.4528 26.9328 45.3792 26.9523ZM45.4968 18.8096C45.4509 18.8707 45.4049 18.9319 45.3545 18.9892C45.303 19.0477 45.2408 19.0997 45.1596 19.0478C45.0762 18.9945 45.0957 18.9217 45.1416 18.8515C45.1583 18.8259 45.1751 18.8003 45.1935 18.7759C45.9281 17.7986 46.6623 16.8209 47.3988 15.845C47.4438 15.7854 47.5045 15.737 47.5614 15.6874C47.5967 15.6565 47.7027 15.6995 47.7169 15.774C47.7137 15.7895 47.715 15.8382 47.6939 15.8732C47.6466 15.9513 47.589 16.0232 47.534 16.0965C46.8552 17.0011 46.1761 17.9054 45.4968 18.8096ZM62.0932 43.813C62.0677 43.828 62.0363 43.8356 62.0066 43.8405C61.2551 43.9629 60.5448 43.3655 60.5551 42.6134C60.5617 42.5452 60.5511 42.4643 60.6108 42.4052C60.6296 42.3865 60.6642 42.3717 60.6892 42.3747C60.7146 42.3777 60.7526 42.401 60.7579 42.4222C60.7723 42.4804 60.7739 42.5421 60.7779 42.6026C60.822 43.2805 61.3055 43.5366 61.7926 43.58C61.8828 43.588 61.9749 43.5737 62.0661 43.5726C62.1339 43.5718 62.1877 43.6022 62.1915 43.6735C62.1951 43.7389 62.1461 43.7821 62.0932 43.813ZM62.4981 43.2035C62.5417 43.221 62.5699 43.2543 62.559 43.321C62.5308 43.3358 62.4955 43.368 62.4582 43.3705C62.397 43.3746 62.3548 43.295 62.3842 43.2423C62.4095 43.197 62.4524 43.1852 62.4981 43.2035ZM64.0355 38.9603C63.9832 38.9901 63.9258 39.0203 63.8675 39.0284C63.6091 39.0643 63.3503 39.1031 63.0903 39.1217C62.0644 39.1949 61.0378 39.2581 60.0118 39.3304C59.4146 39.3726 58.8181 39.4251 58.4374 39.4555C57.668 39.5076 57.1165 39.5037 56.5677 39.4116C56.324 39.3708 56.0868 39.308 55.8659 39.1988C55.5826 39.0587 55.4194 38.8247 55.402 38.5075C55.3919 38.3248 55.407 38.1401 55.4213 37.9571C55.4239 37.9242 55.4734 37.8762 55.5085 37.8686C55.5819 37.8528 55.6176 37.9124 55.6263 37.9751C55.6346 38.0348 55.6259 38.0968 55.6253 38.1578C55.6244 38.2345 55.6185 38.3117 55.6243 38.3879C55.649 38.7106 55.8026 38.9344 56.1215 39.0336C56.4605 39.139 56.8071 39.2078 57.1609 39.2162C57.5444 39.2254 57.9295 39.2298 58.3119 39.2044C59.2616 39.1414 60.21 39.0581 61.1592 38.9871C61.7409 38.9436 62.3234 38.9108 62.9051 38.8675C63.165 38.8482 63.4237 38.8124 63.6834 38.7892C63.7894 38.7797 63.8969 38.7783 64.003 38.7839C64.0528 38.7865 64.0762 38.8372 64.0753 38.8837C64.0747 38.9103 64.0571 38.9481 64.0355 38.9603ZM65.3953 38.8447C65.3325 38.8513 65.2859 38.8182 65.2848 38.7447C65.2841 38.69 65.3258 38.6786 65.3565 38.6668C65.4157 38.6496 65.4607 38.6806 65.469 38.716C65.4816 38.7698 65.4669 38.8373 65.3953 38.8447ZM68.1907 32.3227C68.0727 32.9874 67.9508 33.6514 67.8403 34.3174C67.7371 34.9394 67.675 35.5659 67.6809 36.1974C67.6826 36.3787 67.665 36.4377 67.4538 36.4462C65.8271 36.5119 64.1988 36.5567 62.5749 36.6671C60.9193 36.7797 59.263 36.8591 57.6057 36.9309C57.116 36.9521 56.6287 37.0317 56.1407 37.0877C55.7153 37.1364 55.7108 37.1319 55.6885 36.697C55.6671 36.279 55.7087 35.8668 55.8206 35.4654C55.9851 34.875 56.1154 34.2742 56.3409 33.7015C56.4322 33.4694 56.4797 33.2298 56.4254 32.9803C56.3915 32.8245 56.2767 32.7399 56.1223 32.7729C55.9729 32.8049 55.8288 32.8606 55.681 32.9007C55.1043 33.0569 54.5271 33.2117 53.9497 33.3653C53.8758 33.385 53.7995 33.4036 53.7237 33.4072C52.9871 33.4421 52.2508 33.4757 51.5196 33.3319C51.0952 33.2485 50.6863 33.1224 50.3081 32.9117C50.0536 32.77 49.8025 32.6209 49.5593 32.4608C48.647 31.8606 47.9907 31.0542 47.5881 30.0344C47.2427 29.1589 47.0134 28.2537 46.8492 27.3309C46.6282 26.0889 46.516 24.8355 46.4906 23.574C46.4822 23.1595 46.5201 22.7494 46.5596 22.3103C46.7139 22.3222 46.8456 22.3366 46.9776 22.3414C47.1157 22.3466 47.2547 22.3507 47.3921 22.3403C47.5293 22.3298 47.6653 22.3016 47.8015 22.2794C47.9333 22.258 48.0648 22.2344 48.1995 22.2111C48.2057 22.3491 48.1139 22.4213 48.0699 22.515C47.8372 23.0115 47.854 23.4944 48.1432 23.9634C48.3663 24.325 48.6606 24.6087 49.0515 24.7854C49.1353 24.8232 49.2165 24.8675 49.3025 24.8994C49.6586 25.0317 49.8767 25.2972 50.0217 25.6346C50.0639 25.7328 50.0937 25.8377 50.1464 25.9296C50.2198 26.0576 50.3715 26.1206 50.497 26.0942C50.6504 26.0618 50.7698 25.9344 50.7891 25.777C50.8044 25.6521 50.7759 25.5343 50.7308 25.4174C50.5356 24.9112 50.2257 24.5077 49.7214 24.2755C49.5961 24.2178 49.4695 24.1627 49.3449 24.1035C49.1015 23.9879 48.9191 23.8055 48.7793 23.5782C48.5981 23.2835 48.6134 22.9928 48.8196 22.7203C48.9303 22.5738 49.0612 22.4423 49.1864 22.3072C49.7436 21.7055 50.223 21.0496 50.5269 20.2834C50.8825 19.3867 51.0619 18.4603 50.916 17.4911C50.9092 17.4455 50.9034 17.3998 50.8988 17.3539C50.8896 17.2646 50.9234 17.2082 51.0188 17.1982C51.2632 17.1726 51.5071 17.1406 51.752 17.1218C52.0084 17.1021 52.2656 17.0761 52.5441 17.0891C52.504 17.342 52.4669 17.565 52.4334 17.7885C52.1792 19.4813 53.1716 21.6113 55.3568 22.2479C57.7256 22.938 59.9345 21.3781 60.3146 19.1819C60.3408 19.0308 60.3704 18.8803 60.3984 18.7292C60.4728 18.6519 60.569 18.6786 60.6567 18.6807C62.4075 18.7232 64.1583 18.7676 65.9091 18.812C65.9858 18.8139 66.0633 18.813 66.1386 18.8251C66.225 18.8389 66.268 18.8966 66.2605 18.9868C66.2592 19.0021 66.2587 19.0175 66.2574 19.0328C66.1649 20.1346 66.1373 21.2417 65.9996 22.3397C65.7051 24.6872 65.3224 27.0175 64.6164 29.2831C64.5526 29.4878 64.4703 29.6867 64.3993 29.8893C64.3538 30.0195 64.2964 30.1488 64.2743 30.2834C64.2253 30.5806 64.2741 30.828 64.5049 31.0782C64.8482 31.4501 65.2568 31.6526 65.7284 31.758C66.3887 31.9055 67.0608 31.9763 67.734 32.0361C67.8854 32.0496 68.0423 32.0276 68.182 32.0964C68.2292 32.1733 68.2041 32.2475 68.1907 32.3227ZM67.8542 78.5576C67.7353 78.636 67.6138 78.5914 67.5024 78.5666C66.4798 78.3391 65.4442 78.2355 64.398 78.2261C63.9376 78.222 63.4771 78.2114 63.0168 78.2195C62.0135 78.237 61.0291 78.4021 60.0723 78.6926C58.4733 79.178 56.8658 79.1555 55.2461 78.8444C54.0416 78.613 52.8371 78.3817 51.6343 78.142C50.2216 77.8605 48.8009 77.6151 47.4145 77.2136C46.6282 76.9859 45.8167 76.9211 45.0069 76.8497C44.7916 76.8307 44.5805 76.8019 44.3729 76.744C44.299 76.7234 44.2329 76.6932 44.1947 76.6025C44.4654 76.4055 44.7596 76.2456 45.0665 76.106C45.9224 75.7169 46.8264 75.4854 47.7374 75.2699C48.4561 75.0999 49.1898 75.0327 49.915 74.9091C51.0481 74.7159 52.1917 74.573 53.3005 74.2575C54.0371 74.0479 54.7701 73.8244 55.4988 73.5891C56.4052 73.2962 57.3307 73.087 58.2646 72.9079C59.4675 72.6772 60.6162 72.7861 61.6845 73.4308C61.8945 73.5575 62.1075 73.679 62.318 73.8051C62.6074 73.9784 62.8937 74.157 63.1846 74.3277C63.9484 74.776 64.7725 74.9703 65.6555 74.8915C66.3432 74.8301 67.0298 74.757 67.7553 74.6853C67.846 75.2793 67.877 75.8608 67.829 76.4419C67.7745 77.1024 67.7583 77.7597 67.8534 78.4172C67.8597 78.4607 67.8542 78.5059 67.8542 78.5576ZM68.1583 73.1661C68.1229 73.251 68.0915 73.3376 68.0545 73.4218C67.8273 73.9382 67.9472 73.8739 67.3262 73.9734C66.7512 74.0655 66.1666 74.0988 65.5855 74.1509C64.8764 74.2145 64.212 74.0647 63.5973 73.7058C63.2662 73.5124 62.9395 73.3116 62.6125 73.1114C62.0489 72.7663 61.4728 72.444 60.8368 72.2524C60.1824 72.0553 59.5125 72.0022 58.832 72.0856C57.687 72.226 56.5674 72.481 55.4655 72.819C54.6599 73.0662 53.8559 73.3193 53.0461 73.552C52.427 73.73 51.7937 73.8516 51.1581 73.9578C51.0522 73.9754 50.9443 73.9802 50.8379 73.9955C50.7166 74.013 50.6284 73.9795 50.5848 73.856C50.5084 73.6395 50.4052 73.4293 50.3562 73.2069C50.1679 72.3534 49.9776 71.4995 49.827 70.6389C49.7479 70.1874 49.7498 69.7218 49.7211 69.3414C49.7568 68.5411 49.7779 67.8199 49.9721 67.1171C50.0092 66.9829 50.0629 66.913 50.2056 66.8791C51.6529 66.535 53.106 66.2213 54.5689 65.9496C55.5067 65.7754 56.4533 65.6938 57.3984 65.5868C58.1144 65.5057 58.8251 65.3773 59.5384 65.272C60.3583 65.1509 61.1789 65.0338 62.0076 64.9899C62.176 64.981 62.3458 64.9783 62.514 64.9886C63.3109 65.0372 64.109 65.0747 64.9037 65.1481C65.7133 65.2228 66.5217 65.3202 67.3268 65.4345C68.2379 65.5638 69.1482 65.7042 70.0525 65.8738C71.168 66.0831 72.2735 66.3403 73.3241 66.787C73.5638 66.8889 73.8019 66.9955 74.0358 67.1101C74.7378 67.4541 75.4361 67.8057 76.1383 68.1493C76.8276 68.4865 77.5381 68.7717 78.269 69.0068C78.7242 69.1533 79.1485 69.3605 79.5339 69.6497C79.9216 69.9405 80.1451 70.3209 80.2508 70.7907C80.3397 71.1857 80.206 71.4921 79.9129 71.7287C79.599 71.9821 79.2433 72.1549 78.8252 72.1768C78.2703 72.206 77.72 72.1559 77.1708 72.0952C76.042 71.9704 74.9168 71.8055 73.7856 71.7118C72.6226 71.6155 71.4548 71.5905 70.2923 71.7653C69.7675 71.8442 69.2837 72.0176 68.8469 72.3218C68.5361 72.5382 68.3044 72.8166 68.1583 73.1661Z" fill="black"/>
<path d="M53.2708 28.1147C53.1354 27.9932 52.9781 27.8905 52.8176 27.8037C52.3902 27.5727 51.9262 27.4864 51.4426 27.4891C51.2896 27.4995 51.1349 27.4987 50.984 27.5225C50.4741 27.6029 50.0053 27.7797 49.6381 28.16C49.141 28.6749 49.122 29.3552 49.5826 29.9045C49.7943 30.1569 50.0621 30.333 50.362 30.4594C50.9753 30.7177 51.612 30.754 52.2566 30.6187C52.6036 30.5459 52.9273 30.4046 53.2086 30.18C53.9196 29.6125 53.95 28.7239 53.2708 28.1147ZM52.8685 29.7706C52.6998 29.8825 52.5081 29.9238 52.3012 29.9355C52.2155 29.9281 52.1232 29.9161 52.0964 29.8047C52.0731 29.7076 52.1032 29.6237 52.1816 29.5631C52.3756 29.4128 52.5904 29.3771 52.825 29.4518C52.8896 29.4724 52.9326 29.5178 52.949 29.5743C52.9719 29.6536 52.9352 29.7263 52.8685 29.7706Z" fill="black"/>
<path d="M76.3398 40.3154C77.649 40.2911 78.9465 40.423 80.2426 40.5907C82.2703 40.853 84.2649 41.2764 86.2355 41.8121C87.2137 42.0781 88.1589 42.4426 89.0586 42.9144C89.7921 43.299 90.5329 43.6708 91.2363 44.1105C93.0888 45.2686 94.6064 46.7656 95.7952 48.5985C96.2142 49.2445 96.5742 49.9195 96.8535 50.6374C97.0259 51.0806 97.2143 51.5179 97.3731 51.9657C97.784 53.1247 98.0899 54.3116 98.2864 55.5264C98.387 56.1475 98.5013 56.7664 98.5984 57.388C98.6457 57.6911 98.6742 57.9976 98.6976 58.3035C98.7055 58.4074 98.6861 58.5192 98.6536 58.6191C98.6061 58.765 98.4819 58.8324 98.3351 58.845C98.19 58.8574 98.0349 58.7393 97.9903 58.59C97.9729 58.5317 97.9642 58.4698 97.9598 58.409C97.8926 57.4884 97.7029 56.5862 97.5603 55.6767C97.3934 54.6119 97.1191 53.5748 96.7945 52.5512C96.5394 51.7469 96.2221 50.9616 95.8523 50.2041C95.2348 48.9393 94.4106 47.8161 93.4219 46.8115C92.3237 45.6956 91.0678 44.8061 89.6844 44.0759C88.5828 43.4944 87.4694 42.9519 86.2735 42.5935C85.362 42.3203 84.4324 42.1187 83.505 41.9103C82.0059 41.5735 80.4879 41.3461 78.9612 41.182C77.4298 41.0173 75.8947 41.0154 74.3596 41.1357C73.931 41.1692 73.5025 41.204 73.0748 41.2464C72.8872 41.2649 72.8681 41.2886 72.8753 41.4808C72.8925 41.9418 72.9114 42.4033 72.8381 42.8607C72.7093 43.6635 72.6071 44.4769 72.3226 45.2413C71.5821 47.2309 70.2431 48.6519 68.2433 49.4189C68.1293 49.4627 68.0084 49.4902 67.889 49.5179C67.7603 49.5478 67.6442 49.5007 67.5422 49.429C67.3445 49.2901 67.3532 49.0257 67.5518 48.8846C67.6429 48.8198 67.7468 48.7927 67.8526 48.7774C67.975 48.7596 68.0934 48.7364 68.2054 48.6806C69.2222 48.1741 70.1106 47.5237 70.7856 46.5828C71.3916 45.7379 71.7561 44.8141 71.9182 43.7974C71.9592 43.5399 72.0276 43.2868 72.0681 43.0293C72.1351 42.6035 72.1591 42.1744 72.1347 41.743C72.1252 41.5744 72.1178 41.4048 72.1247 41.2363C72.1399 40.8659 72.2649 40.6999 72.6281 40.6296C73.0646 40.5451 73.506 40.4831 73.9471 40.4259C74.7413 40.3227 75.5414 40.3321 76.3398 40.3154Z" fill="black"/>
<path d="M51.5915 5.44956C51.5817 5.33975 51.6664 5.28591 51.7252 5.22072C52.8281 3.99812 54.0962 2.99453 55.5988 2.30172C56.8006 1.7476 58.026 1.26442 59.3335 1.01621C59.9681 0.895787 60.6048 0.796363 61.2513 0.781532C62.2034 0.759686 63.1553 0.740882 64.1039 0.867561C64.9268 0.977465 65.7355 1.15472 66.5419 1.34698C67.8772 1.66533 69.1556 2.12949 70.3719 2.77265C71.4299 3.33206 72.3463 4.06818 73.1839 4.9123C73.238 4.96681 73.2864 5.02706 73.3417 5.08018C74.4198 6.1152 75.1183 7.37984 75.5967 8.78151C76.0193 10.0196 76.3164 11.2868 76.5321 12.5761C76.6817 13.4704 76.7608 14.3726 76.8694 15.2714C76.8804 15.3622 76.8787 15.4544 76.8828 15.5409C76.7779 15.5982 76.7353 15.5199 76.6889 15.4686C76.335 15.0778 75.9222 14.7625 75.4698 14.4942C74.9943 14.2121 74.53 13.9108 74.0504 13.6362C72.4894 12.7423 71.0127 11.7162 69.4997 10.7472C67.465 9.4441 65.3499 8.29465 63.1097 7.38204C61.4829 6.71927 59.8012 6.25287 58.073 5.94171C56.8781 5.72655 55.6746 5.58863 54.4682 5.46254C53.9164 5.40486 53.3665 5.37351 52.8131 5.3853C52.506 5.39185 52.1992 5.39772 51.8955 5.45814C51.7976 5.47758 51.6904 5.51675 51.5915 5.44956Z" fill="#019071"/>
<path d="M56.6822 12.8974C56.2411 12.9231 55.8056 12.9935 55.434 13.2782C55.3736 13.3245 55.3097 13.3706 55.2404 13.4C55.0878 13.4645 54.9234 13.4119 54.8336 13.2811C54.7502 13.1597 54.7534 13.024 54.8536 12.8986C54.9007 12.8397 54.9589 12.787 55.0197 12.7419C55.7554 12.1969 56.5647 12.0173 57.4537 12.2693C57.9929 12.4222 58.4651 12.7057 58.9006 13.0525C59.0331 13.1581 59.153 13.2764 59.219 13.4393C59.2886 13.611 59.2428 13.7777 59.0922 13.8837C58.955 13.9801 58.8116 13.9764 58.669 13.8611C58.5979 13.8036 58.544 13.725 58.4731 13.6673C57.9518 13.2433 57.3853 12.9219 56.6822 12.8974Z" fill="#020202"/>
<path d="M73.5776 7.97523C73.5753 8.13165 73.4953 8.23319 73.3545 8.29193C73.2214 8.34749 73.111 8.29345 73.0205 8.20518C72.9558 8.14209 72.9054 8.06168 72.8592 7.98279C72.5535 7.46036 72.1519 7.01816 71.7037 6.61822C70.9711 5.9645 70.231 5.31923 69.4944 4.67007C69.0084 4.24182 68.4904 3.86326 67.8868 3.6132C67.8033 3.5786 67.7225 3.52865 67.6533 3.47059C67.5516 3.38553 67.5265 3.20506 67.5945 3.08958C67.6618 2.97541 67.7691 2.90844 67.9003 2.92365C68.005 2.93582 68.1085 2.97524 68.2076 3.01479C68.7521 3.23211 69.2632 3.5093 69.7149 3.8865C70.0447 4.16184 70.3728 4.43932 70.6949 4.72357C71.2355 5.20066 71.7719 5.68262 72.3079 6.165C72.6627 6.48432 72.9783 6.84006 73.2544 7.22889C73.3515 7.36558 73.4275 7.51748 73.5101 7.66415C73.5642 7.76011 73.5797 7.86625 73.5776 7.97523Z" fill="#010001"/>
<path d="M68.9095 8.22124C68.9353 8.22944 69.0022 8.23493 69.0494 8.26831C69.5212 8.60153 70.0752 8.74866 70.6023 8.95381C71.2459 9.20425 71.8917 9.44827 72.5206 9.73442C73.3567 10.1148 74.0642 10.6753 74.7214 11.3051C74.8199 11.3995 74.8983 11.5163 74.9786 11.628C75.0528 11.7311 75.0781 11.8513 75.0651 11.9779C75.043 12.1932 74.8193 12.3191 74.6221 12.2314C74.5202 12.1861 74.4469 12.109 74.3746 12.0294C73.5854 11.1598 72.631 10.5367 71.5392 10.1132C70.8955 9.86355 70.2549 9.60567 69.6179 9.33959C69.3354 9.22158 69.0554 9.09321 68.8001 8.9192C68.6513 8.81771 68.5551 8.68828 68.5671 8.49868C68.5772 8.33782 68.7142 8.2141 68.9095 8.22124Z" fill="#010001"/>
<path d="M64.8561 4.44202C65.0667 4.44459 65.263 4.47755 65.4464 4.56139C65.7107 4.68219 65.977 4.80021 66.233 4.93716C66.8016 5.2413 67.3891 5.4934 68.0053 5.68827C68.9168 5.97658 69.7389 6.4546 70.5489 6.95181C70.6261 6.99918 70.6987 7.06117 70.7569 7.1303C70.8518 7.24307 70.8824 7.37364 70.8074 7.51346C70.7315 7.65489 70.5784 7.73259 70.4193 7.67952C70.2756 7.63156 70.1391 7.558 70.0053 7.48498C69.6425 7.28702 69.2852 7.07904 68.9213 6.88311C68.5162 6.66491 68.0931 6.48735 67.6524 6.35247C67.0054 6.15443 66.3898 5.88649 65.8121 5.53172C65.6428 5.42777 65.4645 5.33786 65.2869 5.24828C65.1223 5.16525 64.9513 5.11247 64.7615 5.10047C64.5216 5.08526 64.3919 4.9519 64.3969 4.7735C64.402 4.59358 64.5478 4.46669 64.7736 4.4462C64.8041 4.44345 64.8348 4.44307 64.8561 4.44202Z" fill="#010001"/>
<path d="M61.6682 3.71478C61.1574 3.60276 60.6471 3.73654 60.1431 3.86487C59.6469 3.99121 59.1478 4.04618 58.6386 4.04213C58.1632 4.03832 57.6887 4.08087 57.2122 4.02256C56.7231 3.96265 56.2423 3.8707 55.769 3.73667C55.6809 3.71174 55.5927 3.68081 55.5116 3.63893C55.3544 3.55772 55.286 3.40303 55.3312 3.25725C55.3814 3.09541 55.55 2.99037 55.732 3.0319C56.0014 3.09334 56.2698 3.15398 56.5426 3.20139C56.8471 3.25433 57.1523 3.28268 57.459 3.28737C57.9965 3.29561 58.5341 3.28907 59.0717 3.28826C59.3821 3.2878 59.678 3.19995 59.9786 3.13893C60.3243 3.06875 60.6706 3 61.0185 2.94152C61.2476 2.90298 61.4787 2.913 61.703 2.98192C61.7903 3.00875 61.8781 3.03985 61.9583 3.08265C62.0922 3.1541 62.1587 3.26929 62.1386 3.42487C62.1189 3.57754 61.9945 3.69302 61.8255 3.71393C61.7801 3.71955 61.7336 3.71478 61.6682 3.71478Z" fill="#010001"/>
<path d="M67.0761 7.88158C66.8015 7.87499 66.5652 7.80544 66.3322 7.72985C65.1473 7.3455 63.9985 6.87787 62.9284 6.23234C62.495 5.97091 62.0707 5.69296 61.5892 5.52175C61.4557 5.47425 61.345 5.39845 61.2849 5.25973C61.238 5.15126 61.2429 5.05234 61.3055 4.95397C61.3811 4.83503 61.496 4.80397 61.625 4.82138C61.6843 4.82936 61.7401 4.86135 61.7981 4.88066C62.2805 5.04152 62.7369 5.25943 63.1716 5.5212C64.1223 6.09362 65.1352 6.52906 66.1778 6.9006C66.4671 7.0037 66.7603 7.09189 67.0631 7.14682C67.153 7.16308 67.2439 7.1854 67.3277 7.22072C67.4872 7.28795 67.5765 7.44112 67.5522 7.58267C67.5267 7.73048 67.4024 7.84558 67.2338 7.87144C67.1734 7.88065 67.1115 7.87951 67.0761 7.88158Z" fill="#010001"/>
<path d="M66.5669 4.31442C66.4246 4.31138 66.2978 4.25708 66.1738 4.19476C65.8857 4.04999 65.5983 3.90405 65.3101 3.75958C64.3175 3.2619 63.2738 2.90616 62.1984 2.63772C62.0648 2.60438 61.9289 2.57209 61.8028 2.51873C61.6392 2.44951 61.5616 2.29076 61.5987 2.14824C61.6412 1.98493 61.8044 1.86868 61.9888 1.90282C62.3506 1.96988 62.7098 2.05093 63.0687 2.13218C64.0338 2.35064 64.9343 2.73938 65.8143 3.18115C66.0475 3.29824 66.2816 3.41381 66.5111 3.53791C66.6182 3.59584 66.7231 3.66328 66.8146 3.74301C66.9295 3.84311 66.9568 3.99696 66.9041 4.12085C66.8512 4.24517 66.7219 4.31937 66.5669 4.31442Z" fill="#010001"/>
<path d="M76.0524 11.2365C76.0518 11.241 76.0506 11.2881 76.0369 11.3313C75.9972 11.4553 75.9237 11.5496 75.7872 11.5738C75.6569 11.597 75.5355 11.5698 75.4606 11.4562C75.3938 11.3548 75.3437 11.2415 75.2943 11.1298C75.0453 10.5676 74.7746 10.0172 74.4322 9.50454C74.3898 9.4412 74.3475 9.37457 74.323 9.30333C74.2798 9.17796 74.3035 9.06058 74.4046 8.96681C74.5056 8.87318 74.6708 8.85454 74.7874 8.93774C74.8609 8.99018 74.9281 9.05757 74.982 9.13021C75.3766 9.66253 75.707 10.2327 75.9742 10.8392C76.024 10.9521 76.0633 11.0686 76.0524 11.2365Z" fill="#020001"/>
<path d="M56.3242 15.0782C55.6591 15.0753 55.0536 15.2661 54.5061 15.6421C53.4271 16.3834 52.854 17.8376 53.2847 19.2775C53.752 20.8391 55.3771 21.9979 57.1675 21.6036C58.4013 21.3318 59.4767 20.3347 59.6278 18.7775C59.8193 16.8035 58.2778 15.0897 56.3242 15.0782ZM57.3119 17.3909C57.3436 17.3858 57.3834 17.4313 57.4072 17.4462C57.4377 17.532 57.4017 17.5853 57.3615 17.6295C57.2278 17.777 57.0905 17.9212 56.9527 18.0648C56.7511 18.2747 56.5486 18.4837 56.3447 18.6913C56.3022 18.7345 56.2535 18.7723 56.2045 18.8083C56.1642 18.8379 56.1118 18.8388 56.0817 18.8026C56.056 18.7718 56.0338 18.7167 56.0438 18.6822C56.06 18.6267 56.0967 18.5723 56.1374 18.5294C56.4745 18.1738 56.8132 17.8196 57.1554 17.4688C57.1946 17.4287 57.2565 17.3999 57.3119 17.3909ZM54.4025 18.7284C54.3617 18.7589 54.3147 18.7422 54.2774 18.7121C54.2387 18.6808 54.2196 18.6353 54.2453 18.5916C54.2837 18.5263 54.3266 18.4617 54.3778 18.4063C55.1054 17.6182 55.8344 16.8314 56.5647 16.0458C56.6054 16.0021 56.6573 15.9666 56.7095 15.9369C56.7304 15.9251 56.7713 15.9311 56.794 15.9445C56.8175 15.9583 56.83 15.9909 56.8545 16.0254C56.8424 16.0599 56.8363 16.1071 56.8118 16.1408C56.7579 16.2149 56.6971 16.2843 56.6348 16.3516C55.9482 17.0942 55.2611 17.8362 54.5729 18.5773C54.5214 18.6327 54.4631 18.683 54.4025 18.7284ZM58.6248 17.8189C58.4822 17.9796 58.3385 18.1393 58.1921 18.2965C57.4808 19.0601 56.7685 19.8227 56.0567 20.5858C56.0253 20.6194 55.9969 20.6561 55.9638 20.6879C55.8892 20.7594 55.8287 20.8652 55.6976 20.8173C55.6135 20.7866 55.6393 20.6592 55.7744 20.5118C56.21 20.0367 56.6493 19.5651 57.0876 19.0926C57.4947 18.6539 57.9014 18.2149 58.3104 17.778C58.3826 17.7009 58.4434 17.6087 58.5529 17.5728C58.6017 17.5569 58.6962 17.6093 58.6924 17.6569C58.7053 17.7256 58.6646 17.774 58.6248 17.8189Z" fill="#019071"/>
<path d="M49.5994 16.1049C48.6525 14.718 46.8463 14.5035 45.5858 15.6088C44.7496 16.3421 44.3928 17.2915 44.3496 18.3726C44.3756 19.1164 44.5514 19.8036 44.9795 20.4146C45.9575 21.8102 47.7649 22.0175 49.0311 20.879C49.4737 20.4811 49.7968 20.0031 49.9909 19.4414C50.3969 18.2672 50.3062 17.1402 49.5994 16.1049ZM45.3545 18.9892C45.303 19.0477 45.2408 19.0997 45.1596 19.0478C45.0762 18.9945 45.0957 18.9217 45.1416 18.8515C45.1583 18.8259 45.1751 18.8004 45.1935 18.776C45.9281 17.7986 46.6624 16.821 47.3989 15.845C47.4438 15.7854 47.5045 15.7371 47.5614 15.6874C47.5967 15.6565 47.7028 15.6996 47.717 15.7741C47.7137 15.7896 47.7151 15.8382 47.6939 15.8732C47.6466 15.9513 47.589 16.0233 47.534 16.0965C46.8552 17.001 46.1762 17.9055 45.4969 18.8096C45.451 18.8707 45.4049 18.932 45.3545 18.9892ZM47.215 19.1794C47.1977 19.154 47.1652 19.1205 47.1514 19.0807C47.1434 19.0575 47.1581 19.0189 47.1747 18.9958C47.4597 18.5968 47.7462 18.1987 48.0345 17.802C48.0505 17.78 48.0839 17.7649 48.1118 17.7589C48.1396 17.753 48.1827 17.7515 48.198 17.7678C48.2267 17.7984 48.2655 17.8518 48.2558 17.8808C48.1964 18.0583 48.0661 18.1935 47.9586 18.342C47.7698 18.6028 47.5794 18.8624 47.387 19.1206C47.3503 19.1698 47.3007 19.2083 47.215 19.1794ZM49.6468 18.3241C49.6008 18.4034 49.5464 18.4781 49.4919 18.5521C49.0003 19.2184 48.5087 19.8848 48.0149 20.5495C47.9521 20.6341 47.902 20.7366 47.7902 20.7705C47.7651 20.7781 47.7269 20.7712 47.7058 20.7558C47.6843 20.7401 47.669 20.7071 47.6638 20.6793C47.6482 20.5953 47.7011 20.535 47.7461 20.4738C47.9729 20.1648 48.1999 19.8559 48.4278 19.5476C48.7286 19.1407 49.0293 18.7337 49.3324 18.3284C49.3864 18.2561 49.4299 18.1726 49.5195 18.1311C49.5648 18.11 49.6658 18.1475 49.6724 18.2241C49.6689 18.2391 49.668 18.2875 49.6468 18.3241Z" fill="#019071"/>
<path d="M62.7468 42.0264C62.1505 41.5795 61.4864 41.4838 60.8019 41.8159C59.9294 42.2394 59.907 43.203 60.4532 43.7733C60.8239 44.1604 61.2819 44.3368 61.9052 44.3248C61.9524 44.3194 62.0935 44.3205 62.2252 44.2857C62.7463 44.148 63.1497 43.8681 63.2723 43.3088C63.3909 42.7678 63.1629 42.3384 62.7468 42.0264ZM62.0932 43.813C62.0677 43.8279 62.0363 43.8356 62.0066 43.8404C61.255 43.9628 60.5448 43.3654 60.5551 42.6134C60.5616 42.5451 60.5511 42.4642 60.6108 42.4051C60.6296 42.3865 60.6642 42.3717 60.6892 42.3747C60.7146 42.3777 60.7526 42.4009 60.7579 42.4221C60.7722 42.4804 60.7739 42.542 60.7779 42.6025C60.822 43.2804 61.3055 43.5365 61.7926 43.5799C61.8828 43.5879 61.9749 43.5736 62.0661 43.5725C62.1339 43.5717 62.1876 43.6022 62.1915 43.6734C62.1951 43.7389 62.1461 43.782 62.0932 43.813ZM62.559 43.3209C62.5308 43.3357 62.4955 43.368 62.4582 43.3704C62.397 43.3745 62.3548 43.295 62.3842 43.2422C62.4095 43.197 62.4524 43.1851 62.498 43.2034C62.5417 43.2209 62.5699 43.2542 62.559 43.3209Z" fill="#019071"/>
</g>
</svg>
