<svg width="19" height="16" viewBox="0 0 19 16" fill="none" xmlns="http://www.w3.org/2000/svg">
<path d="M12.5938 11.1143L9.50322 8.00165L6.4126 11.1143M9.50322 8.00165V15.0052" stroke="white" stroke-linecap="round" stroke-linejoin="round"/>
<path d="M15.9859 12.9742C16.7395 12.5604 17.3348 11.9057 17.6779 11.1133C18.021 10.3209 18.0923 9.43602 17.8806 8.59828C17.6689 7.76054 17.1862 7.01767 16.5087 6.4869C15.8313 5.95614 14.9976 5.66771 14.1393 5.66714H13.1657C12.9319 4.75608 12.496 3.91028 11.8908 3.19331C11.2856 2.47635 10.527 1.90688 9.67185 1.52772C8.81672 1.14856 7.88736 0.969574 6.95366 1.00422C6.01996 1.03887 5.1062 1.28625 4.28109 1.72776C3.45598 2.16926 2.74098 2.79342 2.18985 3.55329C1.63873 4.31316 1.26581 5.18898 1.09914 6.11489C0.932471 7.04081 0.976385 7.99273 1.22758 8.8991C1.47878 9.80546 1.93072 10.6427 2.54943 11.3478" stroke="white" stroke-linecap="round" stroke-linejoin="round"/>
<path d="M12.5938 11.1143L9.50322 8.00165L6.4126 11.1143" stroke="white" stroke-linecap="round" stroke-linejoin="round"/>
</svg>
