<svg width="25" height="25" viewBox="0 0 25 25" fill="none" xmlns="http://www.w3.org/2000/svg">
<rect width="25" height="25" rx="12.5" fill="#019071"/>
<path d="M12.375 7C11.5462 7 10.7513 7.32924 10.1653 7.91529C9.57924 8.50134 9.25 9.2962 9.25 10.125V11.375C8.91848 11.375 8.60054 11.5067 8.36612 11.7411C8.1317 11.9755 8 12.2935 8 12.625V15.75C8 16.0815 8.1317 16.3995 8.36612 16.6339C8.60054 16.8683 8.91848 17 9.25 17H15.5C15.8315 17 16.1495 16.8683 16.3839 16.6339C16.6183 16.3995 16.75 16.0815 16.75 15.75V12.625C16.75 12.2935 16.6183 11.9755 16.3839 11.7411C16.1495 11.5067 15.8315 11.375 15.5 11.375H10.5V10.125C10.4998 9.66853 10.6662 9.22767 10.9679 8.88511C11.2696 8.54256 11.6859 8.32182 12.1388 8.26431C12.5916 8.20679 13.0499 8.31645 13.4276 8.57271C13.8054 8.82897 14.0767 9.21423 14.1906 9.65625C14.2321 9.81679 14.3356 9.95429 14.4784 10.0385C14.5491 10.0802 14.6274 10.1076 14.7087 10.119C14.7899 10.1305 14.8727 10.1258 14.9522 10.1053C15.0317 10.0848 15.1063 10.0488 15.1719 9.99944C15.2375 9.95006 15.2927 9.88825 15.3344 9.81754C15.3761 9.74682 15.4035 9.66858 15.415 9.58729C15.4264 9.50599 15.4218 9.42324 15.4012 9.34375C15.2278 8.67298 14.8365 8.07881 14.2888 7.65458C13.741 7.23036 13.0678 7.00011 12.375 7Z" fill="white"/>
<circle cx="12.5" cy="14.5" r="1.5" fill="#019071"/>
</svg>
