<svg width="38" height="38" viewBox="0 0 38 38" fill="none" xmlns="http://www.w3.org/2000/svg">
<circle cx="19" cy="19" r="19" fill="#D9EBFF"/>
<path d="M19.1048 14.4778C19.6159 14.4778 20.0302 14.0635 20.0302 13.5524C20.0302 13.0413 19.6159 12.627 19.1048 12.627C18.5938 12.627 18.1794 13.0413 18.1794 13.5524C18.1794 14.0635 18.5938 14.4778 19.1048 14.4778Z" fill="#155EB4"/>
<path d="M13.5524 23.7319H24.6573V25.5827H13.5524V23.7319ZM17.254 18.9475L19.8378 21.5331L23.4765 17.8916L24.6573 19.1048V15.4032H20.9557L22.1679 16.5831L19.8368 18.9142L17.254 16.3286L13.5524 20.0302L14.8609 21.3388L17.254 18.9475Z" fill="#155EB4"/>
<path d="M25.5827 10.7762H22.5307C22.4398 10.6394 22.341 10.508 22.2346 10.3829L22.2253 10.3718C21.5454 9.57989 20.5888 9.07743 19.5509 8.96704C19.2562 8.91093 18.9535 8.91093 18.6588 8.96704C17.6209 9.07743 16.6643 9.57989 15.9844 10.3718L15.9751 10.3829C15.8688 10.5078 15.7699 10.6388 15.679 10.7753V10.7762H12.627C11.891 10.7769 11.1853 11.0697 10.6648 11.5902C10.1443 12.1106 9.85157 12.8163 9.85083 13.5524V26.5081C9.85157 27.2441 10.1443 27.9498 10.6648 28.4703C11.1853 28.9908 11.891 29.2835 12.627 29.2843H25.5827C26.3188 29.2835 27.0245 28.9908 27.545 28.4703C28.0654 27.9498 28.3582 27.2441 28.3589 26.5081V13.5524C28.3582 12.8163 28.0654 12.1106 27.545 11.5902C27.0245 11.0697 26.3188 10.7769 25.5827 10.7762ZM26.5081 26.5081C26.5081 26.7535 26.4106 26.9889 26.237 27.1624C26.0635 27.336 25.8281 27.4335 25.5827 27.4335H12.627C12.3817 27.4332 12.1464 27.3356 11.973 27.1621C11.7995 26.9887 11.7019 26.7534 11.7016 26.5081V13.5524C11.7019 13.3071 11.7995 13.0718 11.973 12.8983C12.1464 12.7248 12.3817 12.6273 12.627 12.627H16.8376C16.9438 12.104 17.2276 11.6338 17.6408 11.2961C18.054 10.9584 18.5712 10.7739 19.1049 10.7739C19.6385 10.7739 20.1558 10.9584 20.569 11.2961C20.9822 11.6338 21.2659 12.104 21.3721 12.627H25.5827C25.828 12.6273 26.0633 12.7248 26.2368 12.8983C26.4103 13.0718 26.5078 13.3071 26.5081 13.5524V26.5081Z" fill="#155EB4"/>
</svg>
