<svg width="20" height="20" viewBox="0 0 20 20" fill="none" xmlns="http://www.w3.org/2000/svg">
<path d="M5.75405 13.4915C5.59405 13.4915 5.43405 13.4415 5.29405 13.3315C5.21591 13.2717 5.1503 13.1972 5.10098 13.1121C5.05165 13.027 5.01957 12.933 5.00657 12.8355C4.99357 12.738 4.9999 12.6389 5.02521 12.5438C5.05051 12.4487 5.09429 12.3596 5.15405 12.2815L7.53405 9.19147C7.82405 8.82147 8.23405 8.58147 8.70405 8.52147C9.16405 8.46147 9.63405 8.59148 10.004 8.88148L11.834 10.3215C11.904 10.3815 11.974 10.3815 12.024 10.3715C12.064 10.3715 12.134 10.3515 12.194 10.2715L14.504 7.29147C14.5638 7.21309 14.6386 7.14742 14.724 7.09833C14.8095 7.04924 14.9039 7.01772 15.0017 7.00561C15.0995 6.9935 15.1987 7.00105 15.2936 7.02781C15.3884 7.05458 15.477 7.10002 15.554 7.16147C15.884 7.41147 15.944 7.88148 15.684 8.21148L13.374 11.1915C13.084 11.5615 12.674 11.8015 12.204 11.8515C11.734 11.9115 11.274 11.7815 10.904 11.4915L9.07405 10.0515C9.04842 10.029 9.01791 10.0128 8.98494 10.0041C8.95196 9.99541 8.91742 9.99452 8.88405 10.0015C8.84405 10.0015 8.77405 10.0215 8.71405 10.1015L6.33405 13.1915C6.20405 13.3915 5.98405 13.4915 5.75405 13.4915Z" fill="#155EB4"/>
<circle cx="10" cy="10" r="9.5" stroke="#155EB4"/>
</svg>
