<svg width="53" height="53" viewBox="0 0 53 53" fill="none" xmlns="http://www.w3.org/2000/svg">
<circle cx="26.5" cy="26.5" r="26.5" fill="#EAEAEA"/>
<path d="M37 27C37 21.49 32.51 17 27 17C21.49 17 17 21.49 17 27C17 29.9 18.25 32.51 20.23 34.34C20.23 34.35 20.23 34.35 20.22 34.36C20.32 34.46 20.44 34.54 20.54 34.63C20.6 34.68 20.65 34.73 20.71 34.77C20.89 34.92 21.09 35.06 21.28 35.2L21.48 35.34C21.67 35.47 21.87 35.59 22.08 35.7C22.15 35.74 22.23 35.79 22.3 35.83C22.5 35.94 22.71 36.04 22.93 36.13C23.01 36.17 23.09 36.21 23.17 36.24C23.39 36.33 23.61 36.41 23.83 36.48C23.91 36.51 23.99 36.54 24.07 36.56C24.31 36.63 24.55 36.69 24.79 36.75C24.86 36.77 24.93 36.79 25.01 36.8C25.29 36.86 25.57 36.9 25.86 36.93C25.9 36.93 25.94 36.94 25.98 36.95C26.32 36.98 26.66 37 27 37C27.34 37 27.68 36.98 28.01 36.95C28.05 36.95 28.09 36.94 28.13 36.93C28.42 36.9 28.7 36.86 28.98 36.8C29.05 36.79 29.12 36.76 29.2 36.75C29.44 36.69 29.69 36.64 29.92 36.56C30 36.53 30.08 36.5 30.16 36.48C30.38 36.4 30.61 36.33 30.82 36.24C30.9 36.21 30.98 36.17 31.06 36.13C31.27 36.04 31.48 35.94 31.69 35.83C31.77 35.79 31.84 35.74 31.91 35.7C32.11 35.58 32.31 35.47 32.51 35.34C32.58 35.3 32.64 35.25 32.71 35.2C32.91 35.06 33.1 34.92 33.28 34.77C33.34 34.72 33.39 34.67 33.45 34.63C33.56 34.54 33.67 34.45 33.77 34.36C33.77 34.35 33.77 34.35 33.76 34.34C35.75 32.51 37 29.9 37 27ZM31.94 31.97C29.23 30.15 24.79 30.15 22.06 31.97C21.62 32.26 21.26 32.6 20.96 32.97C19.3848 31.3823 18.5006 29.2365 18.5 27C18.5 22.31 22.31 18.5 27 18.5C31.69 18.5 35.5 22.31 35.5 27C35.5 29.32 34.56 31.43 33.04 32.97C32.75 32.6 32.38 32.26 31.94 31.97Z" fill="#B0B0B0"/>
<path d="M27 21.9301C24.93 21.9301 23.25 23.6101 23.25 25.6801C23.25 27.7101 24.84 29.3601 26.95 29.4201H27.13C28.1007 29.3881 29.021 28.9802 29.6965 28.2823C30.372 27.5844 30.7497 26.6513 30.75 25.6801C30.75 23.6101 29.07 21.9301 27 21.9301Z" fill="#B0B0B0"/>
<path d="M33 32C30.245 32 28 34.245 28 37C28 39.755 30.245 42 33 42C35.755 42 38 39.755 38 37C38 34.245 35.755 32 33 32ZM35 37.375H33.375V39C33.375 39.205 33.205 39.375 33 39.375C32.795 39.375 32.625 39.205 32.625 39V37.375H31C30.795 37.375 30.625 37.205 30.625 37C30.625 36.795 30.795 36.625 31 36.625H32.625V35C32.625 34.795 32.795 34.625 33 34.625C33.205 34.625 33.375 34.795 33.375 35V36.625H35C35.205 36.625 35.375 36.795 35.375 37C35.375 37.205 35.205 37.375 35 37.375Z" fill="#019071"/>
</svg>
