<svg width="44" height="45" viewBox="0 0 44 45" fill="none" xmlns="http://www.w3.org/2000/svg">
<circle cx="17.8607" cy="24.8776" r="17.8607" fill="#900179" fill-opacity="0.24"/>
<circle cx="22.3259" cy="26.7911" r="17.8607" fill="#019071" fill-opacity="0.46"/>
<circle cx="22.6379" cy="21.362" r="17.8607" transform="rotate(-12.75 22.6379 21.362)" fill="#0C0190" fill-opacity="0.24"/>
<circle cx="21.05" cy="24.2396" r="17.8607" fill="black"/>
<path d="M20.7228 32.168C19.0227 32.1667 17.3758 31.5748 16.064 30.4934C14.7522 29.412 13.8569 27.9084 13.5313 26.2397C13.2057 24.5711 13.47 22.8412 14.279 21.3459C15.0881 19.8507 16.3915 18.683 17.9664 18.0427C18.0361 18.0111 18.1113 17.9939 18.1878 17.9921C18.2642 17.9903 18.3402 18.0041 18.4112 18.0325C18.4822 18.0609 18.5467 18.1033 18.6009 18.1573C18.655 18.2113 18.6976 18.2757 18.7262 18.3467C18.7548 18.4176 18.7687 18.4936 18.7671 18.57C18.7655 18.6464 18.7485 18.7218 18.717 18.7915C18.6855 18.8611 18.6403 18.9237 18.584 18.9755C18.5276 19.0272 18.4614 19.067 18.3893 19.0924C17.6122 19.4158 16.909 19.894 16.3227 20.498C15.7364 21.1019 15.2792 21.819 14.979 22.6054C14.6788 23.3918 14.5418 24.231 14.5765 25.0721C14.6112 25.9131 14.8168 26.7383 15.1808 27.4973C15.5448 28.2563 16.0595 28.9332 16.6936 29.4868C17.3277 30.0404 18.0678 30.4591 18.869 30.7173C19.6701 30.9756 20.5155 31.068 21.3535 30.9889C22.1915 30.9098 23.0047 30.6609 23.7434 30.2574C23.8082 30.2081 23.8829 30.1733 23.9623 30.1555C24.0417 30.1376 24.1241 30.1371 24.2038 30.154C24.2834 30.1709 24.3585 30.2047 24.4239 30.2532C24.4893 30.3017 24.5435 30.3638 24.5827 30.4351C24.6219 30.5065 24.6453 30.5854 24.6513 30.6666C24.6572 30.7479 24.6456 30.8294 24.6172 30.9057C24.5888 30.982 24.5443 31.0513 24.4866 31.1088C24.429 31.1664 24.3597 31.2108 24.2833 31.2391C23.1949 31.8466 21.9693 32.1663 20.7228 32.168ZM25.703 29.9818C25.5635 29.9799 25.4294 29.9276 25.3255 29.8345C25.2707 29.7842 25.2263 29.7236 25.1949 29.6561C25.1635 29.5886 25.1458 29.5157 25.1426 29.4413C25.1395 29.367 25.151 29.2928 25.1765 29.2229C25.2021 29.153 25.2411 29.0888 25.2915 29.034C25.9695 28.2973 26.4589 27.4072 26.718 26.44C26.9771 25.4729 26.998 24.4573 26.7791 23.4803C26.5601 22.5033 26.1078 21.5938 25.4608 20.8296C24.8138 20.0655 23.9913 19.4694 23.0638 19.0924C22.9917 19.067 22.9255 19.0272 22.8691 18.9755C22.8128 18.9237 22.7676 18.8611 22.7361 18.7915C22.7046 18.7218 22.6876 18.6464 22.686 18.57C22.6844 18.4936 22.6983 18.4176 22.7269 18.3467C22.7555 18.2757 22.7981 18.2113 22.8522 18.1573C22.9064 18.1033 22.9709 18.0609 23.0419 18.0325C23.1129 18.0041 23.1889 17.9903 23.2653 17.9921C23.3418 17.9939 23.417 18.0111 23.4867 18.0427C24.5849 18.4871 25.5591 19.191 26.3257 20.0943C27.0923 20.9976 27.6285 22.0733 27.8884 23.2292C28.1482 24.3851 28.1239 25.5868 27.8176 26.7313C27.5114 27.8758 26.9322 28.9289 26.1297 29.8005C26.0755 29.8593 26.0095 29.9059 25.9359 29.9371C25.8623 29.9684 25.783 29.9836 25.703 29.9818Z" fill="white"/>
<path d="M20.7229 24.1405C20.5727 24.1405 20.4286 24.0808 20.3224 23.9746C20.2162 23.8684 20.1565 23.7243 20.1565 23.5741V16.5134C20.1565 16.3632 20.2162 16.2191 20.3224 16.1129C20.4286 16.0067 20.5727 15.947 20.7229 15.947C20.8731 15.947 21.0171 16.0067 21.1233 16.1129C21.2296 16.2191 21.2892 16.3632 21.2892 16.5134V23.5741C21.2892 23.6485 21.2746 23.7221 21.2461 23.7909C21.2177 23.8596 21.1759 23.922 21.1233 23.9746C21.0708 24.0272 21.0083 24.0689 20.9396 24.0974C20.8709 24.1258 20.7972 24.1405 20.7229 24.1405Z" fill="#83DFCB"/>
</svg>
