<svg width="38" height="38" viewBox="0 0 38 38" fill="none" xmlns="http://www.w3.org/2000/svg">
<circle cx="19" cy="19" r="19" fill="#F4F2E3"/>
<path d="M14.164 16.3537C14.5155 16.3537 14.8636 16.2844 15.1883 16.1499C15.5131 16.0154 15.8082 15.8182 16.0568 15.5696C16.3053 15.3211 16.5025 15.026 16.637 14.7012C16.7716 14.3764 16.8408 14.0284 16.8408 13.6768C16.8408 13.3253 16.7716 12.9772 16.637 12.6525C16.5025 12.3277 16.3053 12.0326 16.0568 11.784C15.8082 11.5355 15.5131 11.3383 15.1883 11.2038C14.8636 11.0692 14.5155 11 14.164 11C13.454 11 12.7732 11.282 12.2712 11.784C11.7692 12.286 11.4871 12.9669 11.4871 13.6768C11.4871 14.3868 11.7692 15.0676 12.2712 15.5696C12.7732 16.0716 13.454 16.3537 14.164 16.3537ZM14.164 15.164C13.7695 15.164 13.3913 15.0073 13.1124 14.7284C12.8335 14.4495 12.6768 14.0712 12.6768 13.6768C12.6768 13.2824 12.8335 12.9042 13.1124 12.6253C13.3913 12.3464 13.7695 12.1897 14.164 12.1897C14.5584 12.1897 14.9366 12.3464 15.2155 12.6253C15.4944 12.9042 15.6511 13.2824 15.6511 13.6768C15.6511 14.0712 15.4944 14.4495 15.2155 14.7284C14.9366 15.0073 14.5584 15.164 14.164 15.164ZM10 18.1382C10 17.8227 10.1253 17.5201 10.3485 17.297C10.5716 17.0739 10.8742 16.9485 11.1897 16.9485H17.1382C17.4537 16.9485 17.7563 17.0739 17.9795 17.297C18.2026 17.5201 18.3279 17.8227 18.3279 18.1382V23.4919C18.3279 24.0387 18.2202 24.5802 18.011 25.0854C17.8017 25.5905 17.495 26.0496 17.1083 26.4362C16.7217 26.8229 16.2626 27.1296 15.7574 27.3389C15.2522 27.5481 14.7108 27.6558 14.164 27.6558C13.6171 27.6558 13.0757 27.5481 12.5705 27.3389C12.0653 27.1296 11.6063 26.8229 11.2196 26.4362C10.8329 26.0496 10.5262 25.5905 10.317 25.0854C10.1077 24.5802 10 24.0387 10 23.4919V18.1382ZM11.1897 18.1382V23.4919C11.1897 24.2807 11.5031 25.0372 12.0608 25.595C12.6186 26.1528 13.3751 26.4661 14.164 26.4661C14.9528 26.4661 15.7093 26.1528 16.2671 25.595C16.8249 25.0372 17.1382 24.2807 17.1382 23.4919V18.1382H11.1897ZM17.883 14.7392C17.7781 15.1057 17.6193 15.4545 17.4118 15.7743C17.9032 15.8314 18.3481 16.036 18.7015 16.3453C19.1311 16.3808 19.563 16.312 19.9604 16.1448C20.3578 15.9776 20.7089 15.7168 20.9838 15.3847C21.2588 15.0526 21.4494 14.6591 21.5396 14.2375C21.6298 13.8159 21.6168 13.3787 21.5017 12.9633C21.3867 12.5478 21.173 12.1662 20.8788 11.851C20.5846 11.5359 20.2186 11.2964 19.812 11.1531C19.4054 11.0097 18.9702 10.9667 18.5434 11.0277C18.1166 11.0886 17.7109 11.2518 17.3607 11.5032C17.5903 11.8387 17.7676 12.2135 17.883 12.6144C18.0922 12.4097 18.3572 12.2713 18.6448 12.2165C18.9324 12.1618 19.2297 12.1931 19.4996 12.3066C19.7694 12.4201 19.9997 12.6108 20.1617 12.8546C20.3237 13.0985 20.4101 13.3847 20.4101 13.6774C20.4101 13.9702 20.3237 14.2564 20.1617 14.5002C19.9997 14.7441 19.7694 14.9347 19.4996 15.0482C19.2297 15.1617 18.9324 15.1931 18.6448 15.1383C18.3572 15.0836 18.0922 14.9451 17.883 14.7404V14.7392ZM17.7319 27.4833C18.3535 27.6689 19.0099 27.7066 19.6488 27.5935C20.2876 27.4804 20.8911 27.2196 21.4113 26.8318C21.9314 26.4441 22.3538 25.9402 22.6447 25.3603C22.9356 24.7805 23.0869 24.1406 23.0867 23.4919V18.1382C23.0867 17.8227 22.9614 17.5201 22.7383 17.297C22.5152 17.0739 22.2126 16.9485 21.897 16.9485H19.2C19.4022 17.2983 19.5188 17.7052 19.5188 18.1382H21.8982V23.4919C21.8983 23.9076 21.8112 24.3187 21.6426 24.6987C21.474 25.0787 21.2277 25.4192 20.9194 25.6981C20.6111 25.977 20.2478 26.1882 19.8529 26.318C19.4579 26.4478 19.0402 26.4934 18.6265 26.4519C18.3731 26.8326 18.0733 27.1788 17.7343 27.4833H17.7319ZM22.6418 14.7392C22.5368 15.1057 22.3781 15.4545 22.1707 15.7743C22.662 15.8314 23.107 16.036 23.4603 16.3453C23.89 16.3808 24.3218 16.312 24.7192 16.1448C25.1166 15.9776 25.4677 15.7168 25.7426 15.3847C26.0176 15.0526 26.2082 14.6591 26.2984 14.2375C26.3886 13.8159 26.3756 13.3787 26.2605 12.9633C26.1455 12.5478 25.9318 12.1662 25.6376 11.851C25.3434 11.5359 24.9775 11.2964 24.5709 11.1531C24.1643 11.0097 23.729 10.9667 23.3023 11.0277C22.8755 11.0886 22.4697 11.2518 22.1195 11.5032C22.3491 11.8387 22.5264 12.2135 22.6418 12.6144C22.851 12.4097 23.116 12.2713 23.4036 12.2165C23.6912 12.1618 23.9885 12.1931 24.2584 12.3066C24.5282 12.4201 24.7586 12.6108 24.9205 12.8546C25.0825 13.0985 25.1689 13.3847 25.1689 13.6774C25.1689 13.9702 25.0825 14.2564 24.9205 14.5002C24.7586 14.7441 24.5282 14.9347 24.2584 15.0482C23.9885 15.1617 23.6912 15.1931 23.4036 15.1383C23.116 15.0836 22.851 14.9451 22.6418 14.7404V14.7392ZM22.4907 27.4833C23.1123 27.6689 23.7688 27.7066 24.4076 27.5935C25.0464 27.4804 25.6499 27.2196 26.1701 26.8318C26.6902 26.4441 27.1126 25.9402 27.4035 25.3603C27.6944 24.7805 27.8458 24.1406 27.8455 23.4919V18.1382C27.8455 17.8227 27.7202 17.5201 27.4971 17.297C27.274 17.0739 26.9714 16.9485 26.6558 16.9485H23.9588C24.161 17.2983 24.2776 17.7052 24.2776 18.1382H26.657V23.4919C26.6571 23.9076 26.57 24.3187 26.4015 24.6987C26.2329 25.0787 25.9865 25.4192 25.6782 25.6981C25.3699 25.977 25.0066 26.1882 24.6117 26.318C24.2167 26.4478 23.799 26.4934 23.3853 26.4519C23.1319 26.8326 22.8321 27.1788 22.4931 27.4833H22.4907Z" fill="#E65809"/>
</svg>
