<svg width="11" height="11" viewBox="0 0 11 11" fill="none" xmlns="http://www.w3.org/2000/svg">
<path d="M1.83333 7.33333C0.806667 7.33333 0 6.52667 0 5.5C0 4.47333 0.806667 3.66667 1.83333 3.66667C2.86 3.66667 3.66667 4.47333 3.66667 5.5C3.66667 6.52667 2.86 7.33333 1.83333 7.33333ZM1.83333 4.4C1.21 4.4 0.733333 4.87667 0.733333 5.5C0.733333 6.12333 1.21 6.6 1.83333 6.6C2.45667 6.6 2.93333 6.12333 2.93333 5.5C2.93333 4.87667 2.45667 4.4 1.83333 4.4ZM9.16667 3.66667C8.14 3.66667 7.33333 2.86 7.33333 1.83333C7.33333 0.806667 8.14 0 9.16667 0C10.1933 0 11 0.806667 11 1.83333C11 2.86 10.1933 3.66667 9.16667 3.66667ZM9.16667 0.733333C8.54333 0.733333 8.06667 1.21 8.06667 1.83333C8.06667 2.45667 8.54333 2.93333 9.16667 2.93333C9.79 2.93333 10.2667 2.45667 10.2667 1.83333C10.2667 1.21 9.79 0.733333 9.16667 0.733333ZM9.16667 11C8.14 11 7.33333 10.1933 7.33333 9.16667C7.33333 8.14 8.14 7.33333 9.16667 7.33333C10.1933 7.33333 11 8.14 11 9.16667C11 10.1933 10.1933 11 9.16667 11ZM9.16667 8.06667C8.54333 8.06667 8.06667 8.54333 8.06667 9.16667C8.06667 9.79 8.54333 10.2667 9.16667 10.2667C9.79 10.2667 10.2667 9.79 10.2667 9.16667C10.2667 8.54333 9.79 8.06667 9.16667 8.06667Z" fill="black"/>
<path d="M3.30229 5.82438L8.02495 8.18572L7.69679 8.84131L2.97412 6.47998L3.30229 5.82438ZM7.69715 2.15771L8.02495 2.81405L3.30229 5.17465L2.97449 4.51831L7.69715 2.15771Z" fill="black"/>
</svg>
