<svg width="9" height="10" viewBox="0 0 9 10" fill="none" xmlns="http://www.w3.org/2000/svg">
<path d="M4.375 0C3.5462 0 2.75134 0.32924 2.16529 0.915291C1.57924 1.50134 1.25 2.2962 1.25 3.125V4.375C0.918479 4.375 0.600537 4.5067 0.366116 4.74112C0.131696 4.97554 0 5.29348 0 5.625V8.75C0 9.08152 0.131696 9.39946 0.366116 9.63388C0.600537 9.8683 0.918479 10 1.25 10H7.5C7.83152 10 8.14946 9.8683 8.38388 9.63388C8.6183 9.39946 8.75 9.08152 8.75 8.75V5.625C8.75 5.29348 8.6183 4.97554 8.38388 4.74112C8.14946 4.5067 7.83152 4.375 7.5 4.375H2.5V3.125C2.49985 2.66853 2.66622 2.22767 2.96792 1.88511C3.26961 1.54256 3.68592 1.32182 4.13875 1.26431C4.59159 1.20679 5.04985 1.31645 5.42761 1.57271C5.80536 1.82897 6.07666 2.21423 6.19062 2.65625C6.23206 2.81679 6.33558 2.95429 6.4784 3.03851C6.54912 3.08021 6.62736 3.10757 6.70865 3.11903C6.78994 3.13049 6.8727 3.12583 6.95219 3.10531C7.03168 3.08479 7.10635 3.04882 7.17194 2.99944C7.23752 2.95006 7.29274 2.88825 7.33444 2.81754C7.37614 2.74682 7.4035 2.66858 7.41497 2.58729C7.42643 2.50599 7.42177 2.42324 7.40125 2.34375C7.22784 1.67298 6.83651 1.07881 6.28875 0.654585C5.74099 0.230359 5.06783 0.000107781 4.375 0Z" fill="black"/>
<circle cx="4.5" cy="7.5" r="1.5" fill="white"/>
</svg>
