<svg fill="none" height="13" viewBox="0 0 13 13" width="13" xmlns="http://www.w3.org/2000/svg" xmlns:xlink="http://www.w3.org/1999/xlink"><clipPath id="a"><path d="m0 0h13v13h-13z"/></clipPath><g clip-path="url(#a)" stroke="#fff" stroke-linecap="round" stroke-linejoin="round" stroke-width="1.08333"><path d="m8.66659 8.66667-2.16667-2.16667-2.16667 2.16667"/><path d="m6.5 6.5v4.875"/><path d="m11.0446 9.96126c.5283-.28802.9457-.74377 1.1862-1.29533.2405-.55155.2905-1.1675.1421-1.75063-.1484-.58312-.4868-1.10022-.9617-1.46967-.475-.36945-1.0594-.57022-1.66116-.57062h-.6825c-.16395-.63416-.46954-1.2229-.89378-1.72196s-.9561-.89545-1.55558-1.15938c-.59949-.26392-1.25101-.38851-1.90558-.36439s-1.29515.19631-1.87359.50363c-.57844.30733-1.07969.74178-1.46605 1.27071-.386365.52892-.647797 1.13856-.76464 1.78306-.116843.64451-.086057 1.30712.090043 1.93801.176101.6309.492937 1.21366.926677 1.70449"/><path d="m8.66659 8.66667-2.16667-2.16667-2.16667 2.16667"/></g></svg>