<svg width="46" height="46" viewBox="0 0 46 46" fill="none" xmlns="http://www.w3.org/2000/svg">
<g clip-path="url(#clip0_410_1311)">
<path d="M0.990864 1.19718V38.5287C0.990864 39.2331 1.55436 39.7261 2.18829 39.7261H44.6617C45.3661 39.7261 45.8591 39.1626 45.8591 38.5287V4.93033C45.8591 4.22597 45.2956 3.73291 44.6617 3.73291H24.1646C23.742 3.73291 23.3193 3.5216 23.108 3.16941L21.488 0.563251C21.2062 0.211066 20.8541 -0.000244141 20.4314 -0.000244141H2.25873C1.55436 -0.000244141 0.990864 0.563251 0.990864 1.19718Z" fill="#F3BF80"/>
<path d="M0.990864 1.83156V39.1631C0.990864 39.8674 1.55436 40.3605 2.18829 40.3605H44.6617C45.3661 40.3605 45.8591 39.797 45.8591 39.1631V5.56471C45.8591 4.86034 45.2956 4.36728 44.6617 4.36728H24.1646C23.742 4.36728 23.3193 4.15597 23.108 3.80379L21.488 1.19763C21.2767 0.845442 20.8541 0.634131 20.4314 0.634131H2.25873C1.55436 0.563694 0.990864 1.12719 0.990864 1.83156Z" fill="#FFB550"/>
<path d="M45.9297 8.24098V38.5288C45.9297 39.2332 45.3662 39.7263 44.7323 39.7263H2.32928C1.62492 39.7263 1.13186 39.1628 1.13186 38.5288V11.9741C1.13186 11.2698 1.69535 10.7767 2.32928 10.7767H22.756C23.1786 10.7767 23.6012 10.5654 23.8125 10.2132L25.4326 7.60705C25.6439 7.25487 26.0665 7.04355 26.4891 7.04355H44.6618C45.3662 6.97312 45.9297 7.53661 45.9297 8.24098Z" fill="#F3C66D"/>
<path d="M45.9297 8.87492V39.1628C45.9297 39.8671 45.3662 40.3602 44.7323 40.3602H2.32928C1.62492 40.3602 1.13186 39.7967 1.13186 39.1628V12.6081C1.13186 11.9037 1.69535 11.4106 2.32928 11.4106H22.756C23.1786 11.4106 23.6012 11.1993 23.8125 10.8471L25.4326 8.24098C25.6439 7.8888 26.0665 7.67749 26.4891 7.67749H44.6618C45.3662 7.67749 45.9297 8.17055 45.9297 8.87492Z" fill="#FCC74B"/>
</g>
<defs>
<clipPath id="clip0_410_1311">
<rect width="45.0796" height="45.0796" fill="white" transform="matrix(-1 0 0 1 46 0)"/>
</clipPath>
</defs>
</svg>
