<svg width="25" height="21" viewBox="0 0 25 21" fill="none" xmlns="http://www.w3.org/2000/svg">
<path d="M20.8778 2.25706H9.91414L9.28217 0.953609C9.14337 0.667651 8.92686 0.426552 8.65742 0.257905C8.38799 0.0892589 8.07651 -0.000119583 7.75865 1.2008e-07H1.6928C1.24384 1.2008e-07 0.81327 0.178348 0.495809 0.495809C0.178348 0.81327 0 1.24384 0 1.6928V17.4922C0 17.9412 0.178348 18.3718 0.495809 18.6892C0.81327 19.0067 1.24384 19.185 1.6928 19.185H20.8778C21.3268 19.185 21.7573 19.0067 22.0748 18.6892C22.3923 18.3718 22.5706 17.9412 22.5706 17.4922V3.94986C22.5706 3.5009 22.3923 3.07033 22.0748 2.75287C21.7573 2.43541 21.3268 2.25706 20.8778 2.25706ZM21.4421 17.4922C21.4421 17.6419 21.3826 17.7854 21.2768 17.8912C21.171 17.997 21.0275 18.0565 20.8778 18.0565H1.6928C1.54314 18.0565 1.39962 17.997 1.2938 17.8912C1.18798 17.7854 1.12853 17.6419 1.12853 17.4922V1.6928C1.12853 1.54314 1.18798 1.39962 1.2938 1.2938C1.39962 1.18798 1.54314 1.12853 1.6928 1.12853H7.75865C7.86441 1.12832 7.96809 1.15783 8.05788 1.2137C8.14767 1.26957 8.21996 1.34955 8.26649 1.44452L9.84079 4.68905C9.97959 4.975 10.1961 5.2161 10.4655 5.38475C10.735 5.5534 11.0464 5.64278 11.3643 5.64266H19.7493C19.8989 5.64266 20.0425 5.58321 20.1483 5.47739C20.2541 5.37157 20.3136 5.22804 20.3136 5.07839C20.3136 4.92874 20.2541 4.78521 20.1483 4.67939C20.0425 4.57357 19.8989 4.51412 19.7493 4.51412H11.3643C11.2586 4.51434 11.1549 4.48482 11.0651 4.42895C10.9753 4.37308 10.903 4.2931 10.8565 4.19814L10.4615 3.38559H20.8778C21.0275 3.38559 21.171 3.44504 21.2768 3.55086C21.3826 3.65668 21.4421 3.80021 21.4421 3.94986V17.4922Z" fill="#939393"/>
<circle cx="20.4993" cy="16.1081" r="4.47004" fill="#642DDA"/>
<path d="M20.5202 13.4897C20.4178 13.4911 20.3202 13.5332 20.2488 13.6066C20.1774 13.6801 20.138 13.7788 20.1394 13.8813V15.7432H18.2778C18.2262 15.7418 18.1748 15.7507 18.1267 15.7695C18.0786 15.7882 18.0348 15.8165 17.9978 15.8525C17.9608 15.8885 17.9314 15.9315 17.9113 15.9791C17.8912 16.0266 17.8809 16.0777 17.8809 16.1294C17.8809 16.181 17.8912 16.2321 17.9113 16.2797C17.9314 16.3272 17.9608 16.3703 17.9978 16.4063C18.0348 16.4423 18.0786 16.4705 18.1267 16.4893C18.1748 16.508 18.2262 16.517 18.2778 16.5156H20.1394V18.3772C20.1384 18.4286 20.1477 18.4796 20.1667 18.5274C20.1856 18.5751 20.2139 18.6186 20.2499 18.6553C20.2859 18.692 20.3288 18.7211 20.3762 18.741C20.4236 18.7609 20.4745 18.7712 20.5259 18.7712C20.5772 18.7712 20.6281 18.7609 20.6755 18.741C20.7229 18.7211 20.7658 18.692 20.8018 18.6553C20.8378 18.6186 20.8661 18.5751 20.885 18.5274C20.904 18.4796 20.9133 18.4286 20.9123 18.3772V16.5156H22.7739C22.8255 16.517 22.8769 16.508 22.925 16.4893C22.9731 16.4705 23.0169 16.4423 23.0539 16.4063C23.0909 16.3703 23.1203 16.3272 23.1404 16.2797C23.1605 16.2321 23.1708 16.181 23.1708 16.1294C23.1708 16.0777 23.1605 16.0266 23.1404 15.9791C23.1203 15.9315 23.0909 15.8885 23.0539 15.8525C23.0169 15.8165 22.9731 15.7882 22.925 15.7695C22.8769 15.7507 22.8255 15.7418 22.7739 15.7432H20.9123V13.8813C20.913 13.8296 20.9033 13.7783 20.8839 13.7305C20.8644 13.6826 20.8355 13.6391 20.799 13.6026C20.7624 13.5661 20.7189 13.5373 20.6711 13.5179C20.6232 13.4985 20.5719 13.4889 20.5202 13.4897Z" fill="white"/>
</svg>
