<svg width="17" height="17" viewBox="0 0 17 17" fill="none" xmlns="http://www.w3.org/2000/svg">
<path d="M8.49906 11.3978L8.49906 7.7671M9.43715 15.6674C8.91182 16.1109 8.06379 16.1109 7.55347 15.6674L6.36773 14.6526C6.14259 14.4647 5.71482 14.3068 5.41463 14.3068L4.13884 14.3068C3.34334 14.3068 2.69043 13.6528 2.69043 12.8561L2.69043 11.5782C2.69043 11.2775 2.53283 10.8566 2.34521 10.631L1.33208 9.44337C0.889305 8.91719 0.889306 8.06778 1.33208 7.55663L2.34521 6.36895C2.53283 6.14345 2.69043 5.7225 2.69043 5.42182L2.69043 4.14395C2.69043 3.34715 3.34334 2.69318 4.13884 2.69318L5.41463 2.69318C5.71482 2.69318 6.13508 2.53533 6.36023 2.34741L7.54597 1.33262C8.0713 0.889125 8.91933 0.889125 9.42964 1.33262L10.6154 2.34741C10.8405 2.53533 11.2683 2.69319 11.561 2.69319L12.8743 2.69319C13.6698 2.69319 14.3227 3.34716 14.3227 4.14395L14.3227 5.42934C14.3227 5.7225 14.4728 6.15096 14.6604 6.36896L15.6735 7.56414C16.1088 8.08281 16.1088 8.92471 15.6735 9.44337L14.6604 10.6386C14.4728 10.8641 14.3227 11.285 14.3227 11.5782L14.3227 12.8485C14.3227 13.6453 13.6698 14.2993 12.8743 14.2993L11.576 14.2993C11.2758 14.2993 10.8555 14.4572 10.6304 14.6451L9.43715 15.6674Z" stroke="#C9C8C8" stroke-linecap="round" stroke-linejoin="round"/>
<path d="M8.50293 5.48169L8.49533 5.48169" stroke="#C9C8C8" stroke-linecap="round" stroke-linejoin="round"/>
</svg>
