<svg width="37" height="37" viewBox="0 0 37 37" fill="none" xmlns="http://www.w3.org/2000/svg">
<path d="M21.275 12.9499C20.539 12.9499 19.8332 12.6575 19.3128 12.1371C18.7924 11.6167 18.5 10.9109 18.5 10.1749C18.5 9.43893 18.7924 8.73309 19.3128 8.21268C19.8332 7.69227 20.539 7.3999 21.275 7.3999C22.011 7.3999 22.7168 7.69227 23.2372 8.21268C23.7576 8.73309 24.05 9.43893 24.05 10.1749C24.05 10.9109 23.7576 11.6167 23.2372 12.1371C22.7168 12.6575 22.011 12.9499 21.275 12.9499Z" fill="white"/>
<path d="M31.45 0H5.55C4.0794 0.00439207 2.67029 0.590533 1.63041 1.63041C0.590533 2.67029 0.00439207 4.0794 0 5.55V21.941L7.178 14.763C8.23565 13.7563 9.63987 13.1949 11.1 13.1949C12.5601 13.1949 13.9644 13.7563 15.022 14.763L20.3333 20.1039L21.9761 18.4611C23.0188 17.4243 24.4295 16.8423 25.9 16.8423C27.3705 16.8423 28.7812 17.4243 29.8238 18.4611L37 25.641V5.55C36.9956 4.0794 36.4095 2.67029 35.3696 1.63041C34.3297 0.590533 32.9206 0.00439207 31.45 0ZM21.275 12.95C20.539 12.95 19.8332 12.6576 19.3128 12.1372C18.7924 11.6168 18.5 10.911 18.5 10.175C18.5 9.43902 18.7924 8.73319 19.3128 8.21278C19.8332 7.69236 20.539 7.4 21.275 7.4C22.011 7.4 22.7168 7.69236 23.2372 8.21278C23.7576 8.73319 24.05 9.43902 24.05 10.175C24.05 10.911 23.7576 11.6168 23.2372 12.1372C22.7168 12.6576 22.011 12.95 21.275 12.95Z" fill="#FFA361"/>
<path d="M15.022 14.7629C13.9644 13.7563 12.5601 13.1948 11.1 13.1948C9.63987 13.1948 8.23565 13.7563 7.178 14.7629L0 21.9409V31.4499C0.00439207 32.9205 0.590533 34.3296 1.63041 35.3695C2.67029 36.4094 4.0794 36.9955 5.55 36.9999H31.45C32.9578 36.9999 34.4008 36.3839 35.446 35.2979L15.022 14.7629Z" fill="url(#paint0_linear_410_1466)"/>
<path d="M37.0001 25.6373L29.824 18.4611C28.7813 17.4243 27.3706 16.8423 25.9001 16.8423C24.4297 16.8423 23.019 17.4243 21.9763 18.4611L20.3335 20.1039L35.4387 35.2906C36.4414 34.2638 37.002 32.8856 37.0001 31.45V25.6373Z" fill="url(#paint1_linear_410_1466)"/>
<defs>
<linearGradient id="paint0_linear_410_1466" x1="17.723" y1="13.1948" x2="17.723" y2="36.9999" gradientUnits="userSpaceOnUse">
<stop stop-color="#FF8831"/>
<stop offset="1" stop-color="#FF4163"/>
</linearGradient>
<linearGradient id="paint1_linear_410_1466" x1="28.6668" y1="16.8423" x2="28.6668" y2="35.2906" gradientUnits="userSpaceOnUse">
<stop stop-color="#FF8831"/>
<stop offset="1" stop-color="#FF4163"/>
</linearGradient>
</defs>
</svg>
