<svg width="3" height="13" viewBox="0 0 3 13" fill="none" xmlns="http://www.w3.org/2000/svg">
<path d="M1.44446 5.05519C0.646715 5.05519 1.16401e-05 5.70189 1.15704e-05 6.49964C1.15006e-05 7.29739 0.646715 7.94409 1.44446 7.94409C2.24221 7.94409 2.88892 7.29739 2.88892 6.49964C2.88892 5.70189 2.24221 5.05519 1.44446 5.05519Z" fill="#8F8F8F"/>
<path d="M1.44446 10.1109C0.646715 10.1109 1.16401e-05 10.7576 1.15704e-05 11.5553C1.15006e-05 12.3531 0.646715 12.9998 1.44446 12.9998C2.24221 12.9998 2.88892 12.3531 2.88892 11.5553C2.88892 10.7576 2.24221 10.1109 1.44446 10.1109Z" fill="#8F8F8F"/>
<path d="M1.44446 1.13178e-05C0.646715 1.12481e-05 1.16401e-05 0.646714 1.15704e-05 1.44446C1.15006e-05 2.24221 0.646715 2.88892 1.44446 2.88892C2.24221 2.88892 2.88892 2.24221 2.88892 1.44446C2.88892 0.646715 2.24221 1.13876e-05 1.44446 1.13178e-05Z" fill="#8F8F8F"/>
</svg>
