<svg width="15" height="15" viewBox="0 0 15 15" fill="none" xmlns="http://www.w3.org/2000/svg">
<path d="M14 14L11.8643 11.8643M6.73393 12.4679C7.48692 12.4679 8.23254 12.3195 8.92821 12.0314C9.62388 11.7432 10.256 11.3209 10.7884 10.7884C11.3209 10.256 11.7432 9.62388 12.0314 8.92821C12.3195 8.23254 12.4679 7.48692 12.4679 6.73393C12.4679 5.98094 12.3195 5.23532 12.0314 4.53965C11.7432 3.84398 11.3209 3.21187 10.7884 2.67943C10.256 2.14698 9.62388 1.72463 8.92821 1.43647C8.23254 1.14831 7.48692 1 6.73393 1C5.2132 1 3.75475 1.60411 2.67943 2.67943C1.60411 3.75475 1 5.2132 1 6.73393C1 8.25466 1.60411 9.71311 2.67943 10.7884C3.75475 11.8637 5.2132 12.4679 6.73393 12.4679Z" stroke="#939393" stroke-width="0.905357" stroke-linecap="round" stroke-linejoin="round"/>
</svg>
