<svg width="15" height="19" viewBox="0 0 15 19" fill="none" xmlns="http://www.w3.org/2000/svg">
<path d="M11.6812 9.39366V16.5254C11.6812 16.8533 11.6773 17.1826 11.6812 17.5105V17.5237L12.3397 16.8652H1.1344C0.982946 16.8652 0.831487 16.8639 0.680028 16.8652H0.660273L1.31879 17.5237V10.392C1.31879 10.064 1.32274 9.73477 1.31879 9.40683V9.39366L0.660273 10.0522H11.8656C12.0171 10.0522 12.1685 10.0535 12.32 10.0522H12.3397C12.5083 10.0522 12.6861 9.97842 12.806 9.85989C12.9205 9.7453 13.0061 9.55829 12.9982 9.39366C12.9903 9.22376 12.935 9.04728 12.806 8.92743C12.6769 8.80889 12.5188 8.73514 12.3397 8.73514H1.1344C0.982946 8.73514 0.831487 8.73382 0.680028 8.73514H0.660273C0.304674 8.73514 0.00175604 9.03674 0.00175604 9.39366V16.5254C0.00175604 16.8533 -0.00219506 17.1826 0.00175604 17.5105V17.5237C0.00175604 17.8793 0.303357 18.1822 0.660273 18.1822H11.8656C12.0171 18.1822 12.1685 18.1835 12.32 18.1822H12.3397C12.6953 18.1822 12.9982 17.8806 12.9982 17.5237V10.392C12.9982 10.064 13.0022 9.73477 12.9982 9.40683V9.39366C12.9982 9.22508 12.9245 9.04728 12.806 8.92743C12.6914 8.81284 12.5044 8.72724 12.3397 8.73514C12.1698 8.74304 11.9933 8.79836 11.8735 8.92743C11.7563 9.05781 11.6812 9.21586 11.6812 9.39366Z" fill="#5A5A5A"/>
<path d="M12.3395 8.73645H1.13421C0.982751 8.73645 0.831293 8.73513 0.679834 8.73645H0.660078C0.815488 9.1118 0.970898 9.48584 1.12631 9.86119L1.99555 8.93664C2.45783 8.44538 2.92011 7.95545 3.38107 7.46419C3.48643 7.35225 3.59311 7.23898 3.69847 7.12703C3.54306 7.19157 3.38765 7.2561 3.23224 7.31932H8.96661C9.23002 7.31932 9.49342 7.32327 9.75683 7.31932H9.76868C9.61327 7.25479 9.45786 7.19025 9.30245 7.12703L10.1717 8.05159C10.634 8.54284 11.0963 9.03278 11.5572 9.52403C11.6626 9.63598 11.7693 9.74925 11.8746 9.86119C11.9879 9.98236 12.1762 10.0535 12.3408 10.0535C12.5028 10.0535 12.6951 9.98236 12.8071 9.86119C12.9217 9.73608 13.0073 9.57145 12.9994 9.39497C12.9915 9.21717 12.9296 9.06044 12.8071 8.92874C12.545 8.65084 12.2842 8.37295 12.0221 8.09505C11.5757 7.62092 11.1305 7.14679 10.684 6.67397C10.551 6.53173 10.4167 6.39081 10.2836 6.24857C10.148 6.1037 9.97941 6.00624 9.76737 6.00229H3.43243C3.3139 6.00229 3.17034 5.98912 3.05708 6.02599C2.83055 6.09975 2.70543 6.26043 2.55134 6.42374C2.13647 6.86363 1.72292 7.30352 1.30806 7.74472C0.955094 8.12008 0.602129 8.49411 0.249164 8.86947C0.230725 8.88922 0.21097 8.9103 0.192531 8.93005C0.00946361 9.12497 -0.0484859 9.40155 0.0568768 9.64915C0.158288 9.88754 0.394037 10.0535 0.658761 10.0535H11.8641C12.0155 10.0535 12.167 10.0548 12.3185 10.0535H12.3382C12.5068 10.0535 12.6846 9.97973 12.8044 9.86119C12.919 9.74661 13.0046 9.55959 12.9967 9.39497C12.9888 9.22507 12.9335 9.04859 12.8044 8.92874C12.6767 8.81152 12.5186 8.73645 12.3395 8.73645V8.73645Z" fill="#5A5A5A"/>
<path d="M7.29431 9.39365V13.005C7.62488 12.8153 7.95546 12.6257 8.28471 12.436C7.85009 12.2082 7.41547 11.9803 6.97953 11.7525C6.92422 11.7235 6.8689 11.6932 6.81227 11.6642C6.70954 11.6129 6.59759 11.5681 6.47906 11.5733C6.35789 11.5786 6.25517 11.6076 6.14585 11.6629C6.14058 11.6655 6.13532 11.6682 6.13005 11.6721C6.10107 11.6879 6.07078 11.7024 6.04181 11.7182C5.78894 11.8512 5.53607 11.9829 5.2832 12.116C5.08037 12.2226 4.87755 12.3293 4.67341 12.4347C5.00398 12.6243 5.33456 12.814 5.66382 13.0036V9.39233L5.0053 10.0509H7.95151C8.12009 10.0509 8.29789 9.9771 8.41774 9.85856C8.53232 9.74398 8.61792 9.55696 8.61002 9.39233C8.60212 9.22244 8.54681 9.04595 8.41774 8.9261C8.28867 8.80757 8.13062 8.73382 7.95151 8.73382H5.0053C4.6497 8.73382 4.34678 9.03542 4.34678 9.39233V13.0036C4.34678 13.2354 4.47322 13.4554 4.67341 13.5726C4.88413 13.6964 5.12647 13.6832 5.33851 13.5726C5.76786 13.3474 6.19853 13.1222 6.62789 12.897C6.68979 12.8654 6.75037 12.8324 6.81227 12.8008H6.14717C6.57652 13.026 7.00719 13.2512 7.43655 13.4765C7.49845 13.5081 7.55903 13.541 7.62093 13.5726C7.83166 13.6832 8.07531 13.6964 8.28603 13.5726C8.48622 13.4554 8.61266 13.2368 8.61266 13.0036V9.39233C8.61266 9.22375 8.5389 9.04595 8.42037 8.9261C8.30579 8.81152 8.11877 8.72591 7.95414 8.73382C7.78424 8.74172 7.60776 8.79703 7.48791 8.9261C7.36938 9.05781 7.29431 9.21585 7.29431 9.39365Z" fill="#5A5A5A"/>
<circle cx="12.5" cy="2.5" r="2.5" fill="#642DDA"/>
</svg>
