<svg width="10" height="12" viewBox="0 0 10 12" fill="none" xmlns="http://www.w3.org/2000/svg">
<path d="M3.6834 9.9936C3.6834 10.0931 3.72293 10.1885 3.79329 10.2589C3.86364 10.3292 3.95907 10.3688 4.05857 10.3688H4.94471C5.04421 10.3688 5.13963 10.3292 5.20999 10.2589C5.28035 10.1885 5.31987 10.0931 5.31987 9.9936V8.78144C5.47184 8.6603 5.59462 8.50653 5.6791 8.33151C5.76359 8.1565 5.80763 7.96472 5.80796 7.77037C5.79979 7.42934 5.65857 7.10502 5.41448 6.8667C5.17039 6.62839 4.84277 6.49498 4.50164 6.49498C4.1605 6.49498 3.83289 6.62839 3.5888 6.8667C3.34471 7.10502 3.20349 7.42934 3.19531 7.77037C3.19531 8.16655 3.37764 8.53646 3.6834 8.78144V9.9936ZM4.50201 7.21738C4.64908 7.21718 4.79022 7.27533 4.89445 7.37908C4.99869 7.48282 5.05751 7.62368 5.05801 7.77075C5.05801 7.96996 4.94621 8.15492 4.76575 8.25284C4.70652 8.28507 4.65707 8.33268 4.62261 8.39064C4.58814 8.44861 4.56994 8.51479 4.56992 8.58223V9.61844H4.43411V8.58223C4.43411 8.44492 4.35908 8.31812 4.23827 8.25284C4.1507 8.2062 4.07733 8.1368 4.02589 8.05196C3.97445 7.96711 3.94686 7.86996 3.94602 7.77075C3.94642 7.62365 4.00521 7.48274 4.10946 7.37897C4.21372 7.2752 4.35492 7.21708 4.50201 7.21738Z" fill="#2B5797"/>
<path d="M0.374792 12H8.62843C8.72793 12 8.82335 11.9605 8.89371 11.8901C8.96407 11.8198 9.00359 11.7243 9.00359 11.6248V5.26803C9.00359 5.16853 8.96407 5.07311 8.89371 5.00275C8.82335 4.9324 8.72793 4.89287 8.62843 4.89287H1.15701C0.968363 4.33823 0.939964 3.74164 1.07508 3.17159C1.21019 2.60155 1.50333 2.08116 1.92085 1.6702C3.15589 0.451289 5.17541 0.440785 6.42208 1.64506L7.35136 2.56197L7.87847 2.02773L6.94469 1.10633C5.40613 -0.380452 2.91616 -0.366946 1.39412 1.13634C0.905908 1.61588 0.553693 2.21639 0.373427 2.87655C0.193161 3.53671 0.191302 4.23288 0.368039 4.894C0.269977 4.89567 0.176486 4.93575 0.107664 5.00562C0.0388416 5.0755 0.00018401 5.16958 1.69232e-06 5.26766V11.6245C-0.000146515 11.6738 0.00944128 11.7226 0.0282145 11.7682C0.0469877 11.8138 0.0745771 11.8552 0.109399 11.8901C0.144221 11.925 0.185591 11.9526 0.231134 11.9715C0.276677 11.9904 0.325497 12 0.374792 12ZM8.25326 11.2497H0.749957V5.6432H8.25326V11.2497Z" fill="#2B5797"/>
</svg>
