<svg width="114" height="82" viewBox="0 0 114 82" fill="none" xmlns="http://www.w3.org/2000/svg">
<path d="M113.68 28.9475L96.5797 12.315L94.9282 12.7535L96.1556 12.315L57.366 0.622559H56.6207L17.1148 12.315L0 28.9475L12.6717 32.3677L12.6425 32.4989V69.7979L39.7543 76.828V77.6465L41.8444 77.3833L56.2553 81.1249H57.7459L101.374 69.7979V32.4989V32.2651L113.68 28.9475Z" fill="#AC97FF"/>
<path d="M95.4541 12.6073L58.3451 22.2828H55.2759L17.1147 12.315L56.6207 0.622559L95.4541 12.6073Z" fill="#B193F2"/>
<path d="M57.1616 0.873047C55.1886 6.01772 50.4531 14.4947 41.8009 18.4117L34.946 16.614L18.4744 12.317L51.1548 2.64153L57.1616 0.873047Z" fill="#CC9FF9"/>
<path d="M101.549 31.8574V69.3757L61.1805 79.8697L56.7959 80.9952L57.0007 75.4412L68.1961 72.7809L90.2656 67.344C92.1794 66.8779 93.8807 65.7808 95.0952 64.2298C96.3093 62.6787 96.9663 60.7637 96.9596 58.794V33.4505L101.549 31.8574Z" fill="#B193F2"/>
<path d="M12.6128 31.8574V67.0809C12.6128 68.3963 12.9635 69.6095 14.2351 70.0043L52.4255 79.9281L57.6141 81.5795L56.6057 75.4996L45.41 72.8396L23.3844 67.344C21.4678 66.8806 19.7633 65.7848 18.546 64.2334C17.3288 62.6823 16.67 60.7659 16.6759 58.7941V33.4505L12.6128 31.8574Z" fill="#B193F2"/>
<path d="M17.173 29.9555C18.3197 31.1239 19.7757 31.9412 21.3703 32.3111C22.965 32.6814 24.6321 32.5894 26.1762 32.0456H26.2493C27.9301 31.417 29.6986 30.0725 29.5378 28.2894C29.4185 27.4722 29.0332 26.7171 28.4416 26.1409C27.5429 25.1033 26.2841 24.4452 24.9193 24.2993C23.7365 24.3374 22.5652 24.5441 21.4408 24.9132C19.0929 25.433 16.6442 25.2552 14.3961 24.4017C13.8557 24.1515 13.2861 23.9698 12.7007 23.8609C12.4063 23.8112 12.1042 23.8375 11.8228 23.9372C11.5415 24.037 11.2903 24.2069 11.093 24.4309C10.8806 24.827 10.8243 25.2883 10.9352 25.7239C11.0462 26.1594 11.3162 26.5376 11.6922 26.784C12.4896 27.246 13.3518 27.586 14.2499 27.7925C15.1668 28.0884 15.9855 28.6292 16.6176 29.3563L17.173 29.9555Z" fill="#DDC8FF"/>
<path d="M21.5529 23.083C21.6199 22.311 20.2922 21.5653 18.5873 21.4173C16.8825 21.2694 15.4461 21.7752 15.3791 22.5472C15.3121 23.3192 16.6399 24.065 18.3447 24.213C20.0495 24.3609 21.4859 23.855 21.5529 23.083Z" fill="#DDC8FF"/>
<path d="M12.6131 57.2745C13.0813 57.2745 13.4608 56.8952 13.4608 56.4269C13.4608 55.9587 13.0813 55.5791 12.6131 55.5791C12.1449 55.5791 11.7654 55.9587 11.7654 56.4269C11.7654 56.8952 12.1449 57.2745 12.6131 57.2745Z" fill="#3E3126"/>
<path d="M18.4739 49.7577C18.8371 49.7577 19.1316 49.3518 19.1316 48.8515C19.1316 48.3509 18.8371 47.9453 18.4739 47.9453C18.1106 47.9453 17.8162 48.3509 17.8162 48.8515C17.8162 49.3518 18.1106 49.7577 18.4739 49.7577Z" fill="white"/>
<path d="M57.001 21.3449C56.9003 21.3449 56.8038 21.3049 56.7324 21.2336C56.661 21.1624 56.6211 21.0657 56.6211 20.9649V4.24474C56.6211 4.14396 56.661 4.04729 56.7324 3.97603C56.8038 3.90476 56.9003 3.86475 57.001 3.86475C57.102 3.86475 57.1985 3.90476 57.2699 3.97603C57.341 4.04729 57.3812 4.14396 57.3812 4.24474V20.9649C57.3812 21.0657 57.341 21.1624 57.2699 21.2336C57.1985 21.3049 57.102 21.3449 57.001 21.3449Z" fill="#3E3126"/>
<path d="M17.0853 12.9157C16.9434 12.9135 16.8069 12.861 16.7001 12.7675C16.5932 12.6741 16.523 12.5458 16.502 12.4054C16.4809 12.265 16.5104 12.1218 16.5851 12.0011C16.6598 11.8804 16.7749 11.7902 16.91 11.7464L56.3721 0.0539879C56.523 0.00825897 56.6864 0.0240619 56.8258 0.09796C56.9655 0.171857 57.0702 0.297876 57.1174 0.448606C57.1591 0.60359 57.1401 0.768664 57.0638 0.909982C56.9876 1.0513 56.8606 1.15815 56.7081 1.20862L17.2461 12.9011L17.0853 12.9157Z" fill="#3E3126"/>
<path d="M96.1269 12.9143C96.0691 12.9285 96.0089 12.9285 95.9514 12.9143L57.1618 1.20724C57.0094 1.15677 56.8821 1.04992 56.8061 0.908606C56.7299 0.767288 56.7109 0.602214 56.7526 0.447233C56.7729 0.369952 56.8083 0.297504 56.857 0.234151C56.9057 0.170798 56.9664 0.117818 57.036 0.0783263C57.1053 0.038835 57.1821 0.01363 57.2614 0.00419412C57.3406 -0.00524179 57.4211 0.00128192 57.4979 0.0233811L96.3023 11.7158C96.4372 11.7596 96.5524 11.8498 96.6272 11.9705C96.7019 12.0912 96.7312 12.2344 96.71 12.3748C96.6892 12.5152 96.619 12.6435 96.5122 12.7369C96.4051 12.8304 96.2687 12.8829 96.1269 12.8851V12.9143Z" fill="#3E3126"/>
<path d="M59.0465 22.6609H54.501C54.4003 22.6609 54.3035 22.6209 54.2324 22.5496C54.161 22.4783 54.1211 22.3817 54.1211 22.2809C54.1211 22.1801 54.161 22.0835 54.2324 22.0122C54.3035 21.9409 54.4003 21.9009 54.501 21.9009H59.0465C59.1473 21.9009 59.2441 21.9409 59.3151 22.0122C59.3865 22.0835 59.4264 22.1801 59.4264 22.2809C59.4264 22.3817 59.3865 22.4783 59.3151 22.5496C59.2441 22.6209 59.1473 22.6609 59.0465 22.6609Z" fill="#3E3126"/>
<path d="M57.8043 79.662C57.6618 79.6583 57.5266 79.6 57.4259 79.4995C57.3252 79.3988 57.2671 79.2633 57.2634 79.1212V49.1447C57.2504 49.0651 57.2547 48.9838 57.2765 48.9063C57.2979 48.8286 57.336 48.7566 57.3881 48.6952C57.4404 48.6338 57.5051 48.5845 57.5783 48.5509C57.6512 48.5171 57.7311 48.4995 57.8115 48.4995C57.892 48.4995 57.9715 48.5171 58.0447 48.5509C58.1176 48.5845 58.1827 48.6338 58.2347 48.6952C58.287 48.7566 58.3251 48.8286 58.3466 48.9063C58.3681 48.9838 58.3726 49.0651 58.3596 49.1447V79.1212C58.3557 79.266 58.2955 79.4034 58.1917 79.5044C58.088 79.6054 57.9489 79.662 57.8043 79.662Z" fill="#B193F2"/>
<path d="M57.8043 45.9887C57.6618 45.9851 57.5266 45.9267 57.4259 45.8263C57.3252 45.7256 57.2671 45.5901 57.2634 45.4479V43.8696C57.2504 43.79 57.2547 43.7087 57.2765 43.6309C57.2979 43.5535 57.336 43.4815 57.3881 43.4201C57.4404 43.3587 57.5051 43.3094 57.5783 43.2755C57.6512 43.2417 57.7311 43.2241 57.8115 43.2241C57.892 43.2241 57.9715 43.2417 58.0447 43.2755C58.1176 43.3094 58.1827 43.3587 58.2347 43.4201C58.287 43.4815 58.3251 43.5535 58.3466 43.6309C58.3681 43.7087 58.3726 43.79 58.3596 43.8696V45.5063C58.3418 45.6406 58.2755 45.764 58.1733 45.8526C58.0707 45.9415 57.9395 45.9899 57.8043 45.9887Z" fill="#B193F2"/>
<path d="M57.8047 39.7356C57.6614 39.7356 57.5237 39.6784 57.4224 39.5771C57.3208 39.4758 57.2639 39.3381 57.2639 39.1948V28.1892C57.2851 28.0592 57.3519 27.941 57.4524 27.8557C57.5528 27.7705 57.6801 27.7236 57.812 27.7236C57.9436 27.7236 58.0712 27.7705 58.1716 27.8557C58.2721 27.941 58.3389 28.0592 58.3601 28.1892V39.1948C58.3601 39.267 58.3456 39.3384 58.3174 39.405C58.2896 39.4718 58.2485 39.532 58.1964 39.5825C58.1447 39.6327 58.0833 39.6724 58.0162 39.6987C57.9487 39.725 57.877 39.7374 57.8047 39.7356Z" fill="#B193F2"/>
<path d="M56.226 81.7249H56.0796L14.1477 70.8068C13.5373 70.6511 12.9962 70.2963 12.6098 69.799C12.2234 69.3014 12.0138 68.6892 12.0138 68.0592V59.407C12.0119 59.3268 12.0259 59.2476 12.0552 59.1732C12.0844 59.0988 12.1283 59.0307 12.1841 58.9735C12.2399 58.9164 12.3067 58.871 12.3804 58.8399C12.454 58.809 12.5332 58.793 12.6131 58.793C12.7734 58.7969 12.9257 58.8631 13.0377 58.9778C13.1497 59.0927 13.2124 59.2467 13.2123 59.407V68.0592C13.213 68.4231 13.3337 68.7763 13.5557 69.0643C13.7777 69.3523 14.0885 69.5591 14.44 69.6523L56.3866 80.541C56.5394 80.5821 56.6697 80.6819 56.7493 80.819C56.8288 80.956 56.8506 81.1187 56.8104 81.2718C56.7735 81.3994 56.6969 81.5119 56.592 81.5933C56.4867 81.6747 56.3588 81.7209 56.226 81.7249Z" fill="#3E3126"/>
<path d="M12.6134 54.0982C12.4545 54.0982 12.3021 54.035 12.1897 53.9228C12.0773 53.8103 12.0142 53.6578 12.0142 53.499V49.5382C12.0142 49.3794 12.0773 49.2269 12.1897 49.1144C12.3021 49.0022 12.4545 48.939 12.6134 48.939C12.7723 48.939 12.9247 49.0022 13.0371 49.1144C13.1495 49.2269 13.2126 49.3794 13.2126 49.5382V53.5135C13.2053 53.6687 13.1393 53.8154 13.0281 53.924C12.9169 54.0326 12.7687 54.0946 12.6134 54.0982Z" fill="#3E3126"/>
<path d="M12.6134 45.6365C12.4545 45.6365 12.3021 45.5736 12.1897 45.4611C12.0773 45.3489 12.0142 45.1964 12.0142 45.0373V32.4971C12.0142 32.3383 12.0773 32.1859 12.1897 32.0734C12.3021 31.9612 12.4545 31.8979 12.6134 31.8979C12.7712 31.9016 12.9214 31.966 13.033 32.0776C13.1446 32.1892 13.2089 32.3396 13.2126 32.4971V45.0373C13.2126 45.1964 13.1495 45.3489 13.0371 45.4611C12.9247 45.5736 12.7723 45.6365 12.6134 45.6365Z" fill="#3E3126"/>
<path d="M57.7166 81.7216C57.5838 81.7176 57.4556 81.6717 57.3506 81.5903C57.2456 81.5089 57.1691 81.3961 57.1319 81.2685C57.0962 81.1136 57.1219 80.9509 57.2036 80.8148C57.2856 80.6783 57.4168 80.5791 57.5705 80.5377L99.5025 69.6493C99.8551 69.558 100.168 69.352 100.39 69.0634C100.612 68.7749 100.732 68.4204 100.73 68.0562V32.4964C100.753 32.3518 100.826 32.2199 100.937 32.1247C101.049 32.0294 101.19 31.9771 101.337 31.9771C101.483 31.9771 101.625 32.0294 101.736 32.1247C101.847 32.2199 101.921 32.3518 101.943 32.4964V68.0562C101.943 68.6859 101.734 69.2981 101.347 69.7957C100.961 70.2933 100.42 70.6481 99.8095 70.8038L57.8627 81.6925L57.7166 81.7216Z" fill="#3E3126"/>
<path d="M44.9716 69.83H44.8839L34.3316 67.2575C34.2844 67.2472 34.2399 67.2276 34.2003 67.2001C34.1607 67.1722 34.1271 67.1371 34.1014 67.0963C34.0754 67.0555 34.0582 67.0101 34.05 66.9623C34.0418 66.9148 34.043 66.8661 34.0539 66.8192C34.0642 66.7702 34.0842 66.7237 34.1126 66.6825C34.141 66.6411 34.1773 66.606 34.2197 66.5788C34.2617 66.5516 34.3089 66.5331 34.3582 66.524C34.4075 66.5153 34.458 66.5162 34.507 66.5268L45.0594 69.0554C45.1561 69.0669 45.2445 69.1165 45.305 69.1933C45.3652 69.2702 45.3927 69.3676 45.3809 69.4647C45.3694 69.5614 45.3198 69.6498 45.243 69.71C45.1661 69.7705 45.0687 69.7977 44.9716 69.7862V69.83Z" fill="#3E3126"/>
<path d="M44.9719 67.2573H44.8842L34.3319 64.7435C34.2357 64.7193 34.1525 64.6582 34.1008 64.5735C34.0488 64.4888 34.0321 64.3872 34.0542 64.2904C34.0645 64.2417 34.0844 64.1957 34.1132 64.1549C34.1416 64.1143 34.1785 64.0799 34.2209 64.0538C34.2632 64.0278 34.3104 64.0109 34.3597 64.0036C34.409 63.9967 34.4592 63.9997 34.5073 64.0127L45.0596 66.5266C45.1467 66.5511 45.2221 66.6058 45.2723 66.6811C45.3225 66.7561 45.3443 66.8469 45.3337 66.9367C45.3234 67.0265 45.281 67.1094 45.2148 67.1711C45.1483 67.2325 45.0624 67.2682 44.9719 67.2718V67.2573Z" fill="#3E3126"/>
<path d="M44.9721 64.5777H44.8844L34.3321 62.0638C34.2776 62.059 34.2247 62.0427 34.1772 62.0157C34.1297 61.9888 34.0886 61.9516 34.0565 61.9075C34.0244 61.863 34.0024 61.8122 33.9918 61.7587C33.9812 61.7051 33.9824 61.6498 33.9951 61.5965C34.0078 61.5433 34.032 61.4937 34.0659 61.4504C34.0995 61.4075 34.1421 61.3724 34.1908 61.3473C34.2395 61.3222 34.293 61.308 34.3475 61.3055C34.4022 61.3031 34.4567 61.3125 34.5075 61.3331L45.0598 63.8469C45.1082 63.8617 45.153 63.8862 45.1917 63.9186C45.2304 63.9513 45.2622 63.9909 45.2855 64.036C45.3085 64.0807 45.3224 64.1297 45.3263 64.1802C45.3302 64.2305 45.3242 64.2813 45.3084 64.3291C45.2827 64.3989 45.2374 64.4597 45.1775 64.5039C45.1176 64.548 45.0462 64.5738 44.9721 64.5777Z" fill="#3E3126"/>
<path d="M44.9715 51.1047L34.4192 48.5908V58.7632L44.9715 61.2771V51.1047Z" fill="white"/>
<path opacity="0.2" d="M44.9722 52.4043V61.1736L38.2637 59.5659C41.142 57.8733 43.471 55.387 44.9722 52.4043Z" fill="#C9D2DF"/>
<path d="M94.4378 69.2289C96.6927 68.6635 98.1963 66.9107 97.7958 65.3134C97.3957 63.716 95.243 62.8794 92.988 63.4447C90.7331 64.0097 89.2295 65.7628 89.63 67.3599C90.0302 68.9572 92.1829 69.7939 94.4378 69.2289Z" fill="#B193F2"/>
<path d="M98.0498 60.778C98.2404 60.1105 97.6146 59.3464 96.6521 59.0718C95.6896 58.7971 94.755 59.1156 94.5644 59.7832C94.3739 60.4508 94.9997 61.2145 95.9622 61.4891C96.9246 61.7638 97.8596 61.4456 98.0498 60.778Z" fill="#B193F2"/>
<g opacity="0.4">
<path opacity="0.4" d="M89.2131 64.6074C89.6408 64.6074 89.9877 64.2604 89.9877 63.8327C89.9877 63.4047 89.6408 63.0581 89.2131 63.0581C88.7854 63.0581 88.4385 63.4047 88.4385 63.8327C88.4385 64.2604 88.7854 64.6074 89.2131 64.6074Z" fill="#B193F2"/>
<path opacity="0.4" d="M92.782 62.0122C92.8573 61.7481 92.5851 61.439 92.1737 61.3217C91.7623 61.2043 91.3676 61.3229 91.2923 61.5869C91.217 61.8507 91.4895 62.1598 91.9009 62.2772C92.3122 62.3948 92.7067 62.2759 92.782 62.0122Z" fill="#B193F2"/>
<path opacity="0.4" d="M86.5531 65.6865C86.7225 65.6865 86.8598 65.5491 86.8598 65.3798C86.8598 65.2101 86.7225 65.0728 86.5531 65.0728C86.3834 65.0728 86.2461 65.2101 86.2461 65.3798C86.2461 65.5491 86.3834 65.6865 86.5531 65.6865Z" fill="#B193F2"/>
</g>
<path d="M77.3895 71.3057C78.2289 71.3057 78.9095 70.7821 78.9095 70.1363C78.9095 69.4909 78.2289 68.9673 77.3895 68.9673C76.5502 68.9673 75.8696 69.4909 75.8696 70.1363C75.8696 70.7821 76.5502 71.3057 77.3895 71.3057Z" fill="#B193F2"/>
<path d="M78.3832 67.8843C78.6739 67.8843 78.9095 67.649 78.9095 67.3583C78.9095 67.0677 78.6739 66.832 78.3832 66.832C78.0926 66.832 77.8569 67.0677 77.8569 67.3583C77.8569 67.649 78.0926 67.8843 78.3832 67.8843Z" fill="#B193F2"/>
<path d="M73.8519 70.88C74.2557 70.88 74.5826 70.5527 74.5826 70.1492C74.5826 69.7457 74.2557 69.4185 73.8519 69.4185C73.4484 69.4185 73.1211 69.7457 73.1211 70.1492C73.1211 70.5527 73.4484 70.88 73.8519 70.88Z" fill="#B193F2"/>
<path opacity="0.45" d="M75.0071 68.1754C75.2331 68.1754 75.4164 67.9921 75.4164 67.7662C75.4164 67.5399 75.2331 67.3569 75.0071 67.3569C74.7812 67.3569 74.5979 67.5399 74.5979 67.7662C74.5979 67.9921 74.7812 68.1754 75.0071 68.1754Z" fill="#B193F2"/>
<path d="M39.1699 40.9444C38.8487 40.945 38.5289 40.9005 38.2198 40.8128L14.6157 34.3529C14.5521 34.336 14.4925 34.3066 14.4404 34.2664C14.3883 34.2265 14.3447 34.1763 14.3121 34.1191C14.2794 34.0622 14.2585 33.999 14.2504 33.9337C14.2423 33.8687 14.2472 33.8024 14.2649 33.7389C14.2818 33.6754 14.3112 33.6158 14.3513 33.5638C14.3914 33.5117 14.4415 33.4679 14.4986 33.4355C14.5556 33.4028 14.6186 33.3817 14.6839 33.3738C14.7492 33.3656 14.8154 33.3705 14.8787 33.3883L38.4536 39.7898C38.8952 39.9181 39.3644 39.919 39.8066 39.7923C40.2488 39.6655 40.6462 39.4163 40.953 39.0736L54.677 23.6543C54.7705 23.5724 54.8909 23.5275 55.0152 23.5278C55.1395 23.5282 55.2593 23.5738 55.3524 23.6562C55.4456 23.7386 55.5055 23.8521 55.5212 23.9755C55.5366 24.0989 55.5067 24.2237 55.4368 24.3266L41.6982 39.7315C41.3858 40.1002 40.9992 40.3987 40.5634 40.6077C40.1278 40.8167 39.6529 40.9314 39.1699 40.9444Z" fill="#B193F2"/>
<path d="M74.5395 41.1058C74.1163 41.1025 73.6992 41.0036 73.3193 40.816C72.9397 40.6288 72.6073 40.3581 72.3472 40.0241L58.5354 24.1078C58.4483 24.007 58.4047 23.8757 58.4144 23.7427C58.4238 23.6098 58.4858 23.4861 58.5868 23.3989C58.6875 23.3117 58.8188 23.2681 58.9516 23.2777C59.0847 23.2873 59.2084 23.3493 59.2955 23.4501L73.0779 39.3663C73.319 39.6908 73.659 39.9277 74.0468 40.0411C74.4345 40.1545 74.8489 40.1382 75.2264 39.9948L98.7868 33.6372C98.9148 33.6021 99.0512 33.6196 99.1664 33.6852C99.2814 33.7512 99.3658 33.8601 99.4006 33.9877C99.4356 34.1157 99.4181 34.2524 99.3525 34.3673C99.2865 34.4826 99.1776 34.567 99.05 34.6017L75.4895 40.9449C75.1819 41.0426 74.8622 41.0967 74.5395 41.1058Z" fill="#B193F2"/>
<path d="M2.36742 28.334C2.17466 28.3312 1.9908 28.2524 1.85587 28.1148C1.78825 28.0493 1.73447 27.971 1.69774 27.8844C1.66102 27.7977 1.64209 27.7046 1.64209 27.6105C1.64209 27.5164 1.66102 27.4233 1.69774 27.3367C1.73447 27.2501 1.78825 27.1717 1.85587 27.1063L15.4191 13.7915C15.8657 13.3534 16.4181 13.0384 17.0225 12.877C17.627 12.7157 18.2629 12.7135 18.8684 12.8708L51.7387 21.6401C51.8301 21.665 51.9154 21.7077 51.9901 21.7656C52.0648 21.8236 52.1271 21.8957 52.174 21.9778C52.2209 22.0599 52.2511 22.1504 52.2629 22.2442C52.2747 22.3379 52.268 22.4332 52.2429 22.5243C52.2181 22.6155 52.1755 22.7008 52.1174 22.7755C52.0596 22.8502 51.9874 22.9127 51.9054 22.9596C51.8231 23.0064 51.7327 23.0366 51.6389 23.0484C51.5451 23.0602 51.4499 23.0535 51.3588 23.0285L18.4884 14.2592C18.1275 14.1624 17.7476 14.1613 17.3862 14.2562C17.0248 14.351 16.6944 14.5384 16.4276 14.8L2.92281 28.1294C2.84863 28.1989 2.76125 28.2528 2.66585 28.288C2.57045 28.3231 2.46897 28.3388 2.36742 28.334Z" fill="#DDC8FF"/>
<path d="M61.9552 22.9417C61.8439 22.9415 61.7359 22.904 61.6485 22.8351C61.5608 22.7662 61.4991 22.6699 61.4731 22.5617C61.4552 22.4983 61.4504 22.4321 61.4582 22.3668C61.4664 22.3016 61.4876 22.2386 61.5199 22.1815C61.5526 22.1243 61.5965 22.0743 61.6485 22.0342C61.7005 21.9941 61.7601 21.9647 61.8236 21.9478L94.6941 13.1785C94.7574 13.1608 94.8236 13.1558 94.8889 13.1639C94.9543 13.172 95.0172 13.193 95.0743 13.2256C95.1312 13.2583 95.1814 13.3019 95.2216 13.354C95.2616 13.4061 95.2909 13.4657 95.3078 13.5292C95.3254 13.5936 95.3296 13.6607 95.3206 13.7268C95.3118 13.7928 95.2894 13.8563 95.2552 13.9136C95.2213 13.9709 95.176 14.0207 95.1221 14.0601C95.0686 14.0996 95.0075 14.1278 94.9425 14.1431L62.0868 22.9124L61.9552 22.9417Z" fill="#DDC8FF"/>
<path d="M39.4621 40.1726C39.3457 40.1868 39.228 40.1868 39.1113 40.1726L1.02327 29.9417C0.796507 29.8809 0.589888 29.7611 0.424406 29.5946C0.258924 29.428 0.140474 29.2207 0.08109 28.9935C0.0217066 28.7664 0.0235066 28.5276 0.0863067 28.3013C0.149107 28.0751 0.270669 27.8696 0.438643 27.7055L16.6619 11.8915C16.735 11.8174 16.8253 11.7625 16.9248 11.7319C17.0243 11.7013 17.1298 11.6959 17.2319 11.7161L55.4223 21.6839C55.521 21.7123 55.6114 21.7645 55.6852 21.8358C55.759 21.9071 55.8144 21.9955 55.8461 22.0931C55.8755 22.1928 55.88 22.298 55.8597 22.3998C55.8392 22.5016 55.7944 22.597 55.7294 22.6778L47.8953 31.4472C47.7889 31.5673 47.6388 31.6402 47.4785 31.6499C47.3182 31.6592 47.1606 31.6048 47.0402 31.4983C46.9202 31.3916 46.8473 31.2418 46.8376 31.0812C46.8282 30.9209 46.8827 30.7633 46.9891 30.6432L54.1801 22.6193L17.2611 12.9877L1.30096 28.4801V28.6994L39.3892 38.9304L43.7739 34.0926C43.8803 33.9744 44.0294 33.9033 44.1885 33.8951C44.3476 33.8869 44.5031 33.942 44.6214 34.0488C44.7397 34.1552 44.8107 34.3044 44.8189 34.4635C44.8271 34.6226 44.772 34.778 44.6652 34.8963L40.4854 39.734C40.3565 39.8768 40.1983 39.9899 40.0217 40.0655C39.8451 40.1412 39.6542 40.1778 39.4621 40.1726Z" fill="#3E3126"/>
<path d="M15.064 19.3181C15.5162 18.6205 15.4216 17.7559 14.8526 17.3871C14.2836 17.0183 13.4558 17.2849 13.0036 17.9826C12.5514 18.6803 12.646 19.5448 13.215 19.9136C13.784 20.2824 14.6118 20.0158 15.064 19.3181Z" fill="white"/>
<path d="M15.8872 17.709C16.0728 17.709 16.2234 17.5584 16.2234 17.3728C16.2234 17.1871 16.0728 17.0366 15.8872 17.0366C15.7015 17.0366 15.551 17.1871 15.551 17.3728C15.551 17.5584 15.7015 17.709 15.8872 17.709Z" fill="white"/>
<path d="M13.4465 21.3897C13.6806 21.3897 13.8704 21.1999 13.8704 20.9658C13.8704 20.7318 13.6806 20.542 13.4465 20.542C13.2124 20.542 13.0227 20.7318 13.0227 20.9658C13.0227 21.1999 13.2124 21.3897 13.4465 21.3897Z" fill="white"/>
<path d="M7.58519 25.647C8.00493 25.647 8.34521 25.3067 8.34521 24.8869C8.34521 24.4672 8.00493 24.127 7.58519 24.127C7.16545 24.127 6.8252 24.4672 6.8252 24.8869C6.8252 25.3067 7.16545 25.647 7.58519 25.647Z" fill="white"/>
<path d="M57.001 79.4893C56.9027 79.4893 56.8083 79.4515 56.7375 79.3832C56.6665 79.3151 56.6247 79.2223 56.6211 79.124V49.1475C56.6211 49.0468 56.661 48.95 56.7324 48.8789C56.8038 48.8075 56.9003 48.7676 57.001 48.7676C57.102 48.7676 57.1985 48.8075 57.2699 48.8789C57.341 48.95 57.3812 49.0468 57.3812 49.1475V79.124C57.3773 79.2223 57.3355 79.3151 57.2648 79.3832C57.194 79.4515 57.0993 79.4893 57.001 79.4893Z" fill="#3E3126"/>
<path d="M57.001 45.8161C56.9027 45.8161 56.8083 45.7783 56.7375 45.7099C56.6665 45.6419 56.6247 45.549 56.6211 45.4507V43.8724C56.6211 43.7714 56.661 43.6749 56.7324 43.6035C56.8038 43.5324 56.9003 43.4922 57.001 43.4922C57.102 43.4922 57.1985 43.5324 57.2699 43.6035C57.341 43.6749 57.3812 43.7714 57.3812 43.8724V45.5091C57.364 45.5968 57.3165 45.6757 57.2469 45.7317C57.1773 45.7879 57.0905 45.8179 57.001 45.8161Z" fill="#3E3126"/>
<path d="M57.001 39.575C56.9511 39.575 56.9018 39.5653 56.8558 39.5462C56.8095 39.5272 56.7678 39.499 56.7324 39.4637C56.697 39.4286 56.6692 39.3865 56.6501 39.3406C56.6308 39.2943 56.6211 39.245 56.6211 39.1951V28.1896C56.6211 28.0888 56.661 27.9921 56.7324 27.9209C56.8038 27.8496 56.9003 27.8096 57.001 27.8096C57.102 27.8096 57.1985 27.8496 57.2699 27.9209C57.341 27.9921 57.3812 28.0888 57.3812 28.1896V39.1951C57.3812 39.2958 57.341 39.3926 57.2699 39.4637C57.1985 39.535 57.102 39.575 57.001 39.575Z" fill="#3E3126"/>
<path d="M44.9721 61.6443H44.8844L34.332 59.1305C34.2495 59.1108 34.176 59.0642 34.1227 58.998C34.0698 58.9317 34.0405 58.8498 34.0396 58.7651V54.6872C34.0396 54.5864 34.0798 54.4899 34.1509 54.4186C34.2222 54.3472 34.3187 54.3072 34.4198 54.3072C34.5205 54.3072 34.617 54.3472 34.6884 54.4186C34.7597 54.4899 34.7997 54.5864 34.7997 54.6872V58.4874L44.5922 60.8258V51.4135L34.7997 49.0748V51.3548C34.7997 51.4558 34.7597 51.5523 34.6884 51.6237C34.617 51.6948 34.5205 51.735 34.4198 51.735C34.3187 51.735 34.2222 51.6948 34.1509 51.6237C34.0798 51.5523 34.0396 51.4558 34.0396 51.3548V48.5927C34.0408 48.5361 34.0544 48.4804 34.0798 48.4299C34.1049 48.3794 34.1412 48.3349 34.1856 48.3002C34.2313 48.2666 34.2836 48.2424 34.339 48.23C34.3944 48.2173 34.4515 48.2164 34.5072 48.2273L45.0598 50.7556C45.1463 50.7829 45.2198 50.8412 45.2658 50.9196C45.3118 50.9979 45.3269 51.0908 45.3081 51.1794V61.3373C45.3072 61.3939 45.2933 61.4495 45.2682 61.5C45.2428 61.5505 45.2065 61.595 45.162 61.6298C45.1006 61.6485 45.0356 61.6534 44.9721 61.6443Z" fill="#3E3126"/>
<path d="M18.474 46.9387C18.3732 46.9387 18.2765 46.8987 18.2053 46.8274C18.134 46.756 18.094 46.6595 18.094 46.5588V42.6563C18.094 42.5555 18.134 42.4588 18.2053 42.3877C18.2765 42.3163 18.3732 42.2764 18.474 42.2764C18.5748 42.2764 18.6714 42.3163 18.7427 42.3877C18.814 42.4588 18.854 42.5555 18.854 42.6563V46.5588C18.854 46.6595 18.814 46.756 18.7427 46.8274C18.6714 46.8987 18.5748 46.9387 18.474 46.9387Z" fill="white"/>
<path d="M74.4367 40.3181C74.2293 40.3178 74.0242 40.2733 73.8351 40.1874C73.6464 40.1018 73.4776 39.9769 73.3406 39.8211L58.0966 22.7793C58.0116 22.6861 57.952 22.5726 57.9239 22.4497C57.8958 22.3267 57.9 22.1986 57.936 22.0777C57.9744 21.9556 58.0428 21.845 58.1344 21.7557C58.2264 21.6664 58.3389 21.6013 58.462 21.5662L96.6524 11.5984C96.7761 11.5689 96.905 11.5709 97.0275 11.6041C97.15 11.6373 97.2622 11.7006 97.3541 11.7884L113.548 27.5147C113.741 27.6991 113.88 27.9328 113.949 28.1904C114.019 28.448 114.017 28.7198 113.943 28.9763C113.877 29.2254 113.746 29.4526 113.564 29.6348C113.381 29.817 113.154 29.9479 112.905 30.014L74.817 40.2449C74.6951 40.2896 74.5665 40.3144 74.4367 40.3181ZM59.9967 22.6916L74.4367 38.7688L112.525 28.5378L96.6234 13.1769L59.9967 22.6916Z" fill="#3E3126"/>
<path d="M45.8197 33.6958C46.2879 33.6958 46.6675 33.3162 46.6675 32.8483C46.6675 32.3801 46.2879 32.0005 45.8197 32.0005C45.3518 32.0005 44.9722 32.3801 44.9722 32.8483C44.9722 33.3162 45.3518 33.6958 45.8197 33.6958Z" fill="#3E3126"/>
<path d="M41.9615 29.6466C41.9118 29.6342 41.8665 29.609 41.8299 29.5736C41.7893 29.5447 41.7552 29.5079 41.7295 29.4654C41.7037 29.4228 41.6868 29.3755 41.6799 29.3262C41.6732 29.2769 41.6765 29.2268 41.6895 29.1789C41.7028 29.1309 41.7255 29.0862 41.7567 29.0474L45.0452 24.8673C45.1072 24.7859 45.1991 24.7325 45.3004 24.7188C45.4021 24.7051 45.5046 24.7323 45.586 24.7943C45.6673 24.8563 45.7209 24.9481 45.7345 25.0495C45.7484 25.1509 45.7212 25.2537 45.6592 25.335L42.3852 29.5005C42.3408 29.5685 42.2751 29.6197 42.1983 29.6462C42.1218 29.6727 42.0383 29.6728 41.9615 29.6466Z" fill="#3E3126"/>
<path d="M45.3079 28.0582C45.2604 28.072 45.2096 28.072 45.1618 28.0582C45.0865 27.9953 45.0372 27.9066 45.0236 27.8093C45.01 27.712 45.0332 27.6131 45.0889 27.532L46.7694 25.1936C46.8048 25.1578 46.8472 25.1294 46.8935 25.1099C46.9397 25.0905 46.9896 25.0806 47.0398 25.0806C47.0904 25.0806 47.14 25.0905 47.1865 25.1099C47.2328 25.1294 47.2749 25.1578 47.3103 25.1936C47.3868 25.2589 47.4367 25.3502 47.4503 25.45C47.4636 25.5498 47.44 25.651 47.3835 25.7343L45.6149 27.9851C45.5732 28.0204 45.5236 28.0454 45.47 28.0581C45.4168 28.0708 45.3614 28.0708 45.3079 28.0582Z" fill="#3E3126"/>
</svg>
