<svg width="62" height="23" viewBox="0 0 62 23" fill="none" xmlns="http://www.w3.org/2000/svg">
<rect width="62" height="23" rx="11.5" fill="#D9D9D9"/>
<path d="M25.0568 16V7.27273H28.108C28.7159 7.27273 29.2173 7.37784 29.6122 7.58807C30.0071 7.79545 30.3011 8.07528 30.4943 8.42756C30.6875 8.77699 30.7841 9.16477 30.7841 9.59091C30.7841 9.96591 30.7173 10.2756 30.5838 10.5199C30.4531 10.7642 30.2798 10.9574 30.0639 11.0994C29.8509 11.2415 29.6193 11.3466 29.3693 11.4148V11.5C29.6364 11.517 29.9048 11.6108 30.1747 11.7812C30.4446 11.9517 30.6705 12.196 30.8523 12.5142C31.0341 12.8324 31.125 13.2216 31.125 13.6818C31.125 14.1193 31.0256 14.5128 30.8267 14.8622C30.6278 15.2116 30.3139 15.4886 29.8849 15.6932C29.456 15.8977 28.8977 16 28.2102 16H25.0568ZM26.1136 15.0625H28.2102C28.9006 15.0625 29.3906 14.929 29.6804 14.6619C29.973 14.392 30.1193 14.0653 30.1193 13.6818C30.1193 13.3864 30.044 13.1136 29.8935 12.8636C29.7429 12.6108 29.5284 12.4091 29.25 12.2585C28.9716 12.1051 28.642 12.0284 28.2614 12.0284H26.1136V15.0625ZM26.1136 11.108H28.0739C28.392 11.108 28.679 11.0455 28.9347 10.9205C29.1932 10.7955 29.3977 10.6193 29.5483 10.392C29.7017 10.1648 29.7784 9.89773 29.7784 9.59091C29.7784 9.20739 29.6449 8.8821 29.3778 8.61506C29.1108 8.34517 28.6875 8.21023 28.108 8.21023H26.1136V11.108ZM34.6513 16.1534C34.2365 16.1534 33.8601 16.0753 33.522 15.919C33.1839 15.7599 32.9155 15.5312 32.7166 15.233C32.5178 14.9318 32.4183 14.5682 32.4183 14.142C32.4183 13.767 32.4922 13.4631 32.6399 13.2301C32.7876 12.9943 32.9851 12.8097 33.2322 12.6761C33.4794 12.5426 33.7521 12.4432 34.0504 12.3778C34.3516 12.3097 34.6541 12.2557 34.9581 12.2159C35.3558 12.1648 35.6783 12.1264 35.9254 12.1009C36.1754 12.0724 36.3572 12.0256 36.4709 11.9602C36.5874 11.8949 36.6456 11.7812 36.6456 11.6193V11.5852C36.6456 11.1648 36.5305 10.8381 36.3004 10.6051C36.0732 10.3722 35.728 10.2557 35.2649 10.2557C34.7848 10.2557 34.4084 10.3608 34.1357 10.571C33.8629 10.7812 33.6712 11.0057 33.5604 11.2443L32.6058 10.9034C32.7763 10.5057 33.0036 10.196 33.2876 9.97443C33.5746 9.75 33.8871 9.59375 34.2251 9.50568C34.5661 9.41477 34.9013 9.36932 35.2308 9.36932C35.4411 9.36932 35.6825 9.39489 35.9553 9.44602C36.2308 9.49432 36.4964 9.59517 36.7521 9.74858C37.0107 9.90199 37.2251 10.1335 37.3956 10.4432C37.5661 10.7528 37.6513 11.1676 37.6513 11.6875V16H36.6456V15.1136H36.5945C36.5263 15.2557 36.4126 15.4077 36.2536 15.5696C36.0945 15.7315 35.8828 15.8693 35.6186 15.983C35.3544 16.0966 35.032 16.1534 34.6513 16.1534ZM34.8047 15.25C35.2024 15.25 35.5376 15.1719 35.8104 15.0156C36.0859 14.8594 36.2933 14.6577 36.4325 14.4105C36.5746 14.1634 36.6456 13.9034 36.6456 13.6307V12.7102C36.603 12.7614 36.5092 12.8082 36.3643 12.8509C36.2223 12.8906 36.0575 12.9261 35.87 12.9574C35.6854 12.9858 35.505 13.0114 35.3288 13.0341C35.1555 13.054 35.0149 13.071 34.907 13.0852C34.6456 13.1193 34.4013 13.1747 34.174 13.2514C33.9496 13.3253 33.7678 13.4375 33.6286 13.5881C33.4922 13.7358 33.424 13.9375 33.424 14.1932C33.424 14.5426 33.5533 14.8068 33.8118 14.9858C34.0732 15.1619 34.4041 15.25 34.8047 15.25ZM42.146 16.1364C41.5323 16.1364 41.0039 15.9915 40.5607 15.7017C40.1175 15.4119 39.7766 15.0128 39.538 14.5043C39.2994 13.9957 39.18 13.4148 39.18 12.7614C39.18 12.0966 39.3022 11.5099 39.5465 11.0014C39.7937 10.4901 40.1374 10.0909 40.5778 9.80398C41.021 9.5142 41.538 9.36932 42.1289 9.36932C42.5891 9.36932 43.0039 9.45455 43.3732 9.625C43.7425 9.79545 44.0451 10.0341 44.2809 10.3409C44.5167 10.6477 44.663 11.0057 44.7198 11.4148H43.7141C43.6374 11.1165 43.467 10.8523 43.2028 10.6222C42.9414 10.3892 42.5891 10.2727 42.146 10.2727C41.7539 10.2727 41.4102 10.375 41.1147 10.5795C40.8221 10.7812 40.5934 11.0668 40.4286 11.4361C40.2667 11.8026 40.1857 12.233 40.1857 12.7273C40.1857 13.233 40.2653 13.6733 40.4244 14.0483C40.5863 14.4233 40.8136 14.7145 41.1062 14.9219C41.4016 15.1293 41.7482 15.233 42.146 15.233C42.4073 15.233 42.6445 15.1875 42.8576 15.0966C43.0707 15.0057 43.2511 14.875 43.3988 14.7045C43.5465 14.5341 43.6516 14.3295 43.7141 14.0909H44.7198C44.663 14.4773 44.5224 14.8253 44.2979 15.1349C44.0763 15.4418 43.7823 15.6861 43.4158 15.8679C43.0522 16.0469 42.6289 16.1364 42.146 16.1364ZM47.1275 13.6136L47.1104 12.3693H47.315L50.1786 9.45455H51.4229L48.3718 12.5398H48.2866L47.1275 13.6136ZM46.19 16V7.27273H47.1957V16H46.19ZM50.3491 16L47.7923 12.7614L48.5082 12.0625L51.6275 16H50.3491Z" fill="#6A6A6A"/>
<path d="M15.6836 12.0216H10.5641L12.8007 9.7849C12.9795 9.60615 12.9795 9.31281 12.8007 9.13406C12.622 8.95531 12.3332 8.95531 12.1545 9.13406L9.13406 12.1545C8.95531 12.3332 8.95531 12.622 9.13406 12.8007L12.1545 15.8211C12.3332 15.9999 12.622 15.9999 12.8007 15.8211C12.9795 15.6424 12.9795 15.3536 12.8007 15.1749L10.5641 12.9382H15.6836C15.9357 12.9382 16.142 12.732 16.142 12.4799C16.142 12.2278 15.9357 12.0216 15.6836 12.0216Z" fill="#6A6A6A"/>
</svg>
