<svg width="19" height="19" viewBox="0 0 19 19" fill="none" xmlns="http://www.w3.org/2000/svg">
<mask id="path-1-outside-1_468_561" maskUnits="userSpaceOnUse" x="0" y="0" width="19" height="19" fill="black">
<rect fill="white" width="19" height="19"/>
<path fill-rule="evenodd" clip-rule="evenodd" d="M16.7304 14.9961C16.2674 16.4031 14.4534 17.1051 13.1574 16.9881C11.3874 16.8281 9.46136 15.8891 7.99934 14.8551C5.85033 13.335 3.83731 10.984 2.6643 8.48901C1.8353 6.726 1.64929 4.55798 2.8823 2.95097C3.33831 2.35696 3.83231 2.03996 4.57232 2.00296C5.60033 1.95296 5.74433 2.54096 6.09733 3.45697C6.36033 4.14197 6.71133 4.84098 6.90734 5.55099C7.27434 6.876 5.99133 6.931 5.82933 8.01401C5.72933 8.69701 6.55633 9.61302 6.93034 10.1C7.65123 11.0485 8.53416 11.862 9.53836 12.503C10.1084 12.862 11.0264 13.5091 11.6784 13.152C12.6824 12.602 12.5884 10.909 13.9914 11.482C14.7184 11.778 15.4224 12.205 16.1164 12.579C17.1894 13.156 17.1394 13.7541 16.7304 14.9961C17.0364 14.0681 16.4244 15.9241 16.7304 14.9961Z"/>
</mask>
<path d="M13.1574 16.9881L13.0223 18.482L13.0225 18.482L13.1574 16.9881ZM7.99934 14.8551L7.13316 16.0797L7.1332 16.0797L7.99934 14.8551ZM2.6643 8.48901L4.02176 7.85081L4.02172 7.85072L2.6643 8.48901ZM2.8823 2.95097L1.69247 2.03756L1.69224 2.03787L2.8823 2.95097ZM4.57232 2.00296L4.49945 0.504728L4.49741 0.504829L4.57232 2.00296ZM6.09733 3.45697L7.49766 2.91932L7.49699 2.91758L6.09733 3.45697ZM6.90734 5.55099L5.46142 5.95014L5.46176 5.95138L6.90734 5.55099ZM5.82933 8.01401L4.34583 7.7921L4.34515 7.7967L5.82933 8.01401ZM6.93034 10.1L8.12457 9.19235L8.12 9.1864L6.93034 10.1ZM9.53836 12.503L8.73126 13.7674L8.73896 13.7723L9.53836 12.503ZM11.6784 13.152L12.3988 14.4677L12.399 14.4676L11.6784 13.152ZM13.9914 11.482L13.4243 12.8707L13.4258 12.8713L13.9914 11.482ZM16.1164 12.579L15.4048 13.8995L15.406 13.9001L16.1164 12.579ZM16.7304 14.9961L18.155 15.4658L18.1551 15.4652L16.7304 14.9961ZM15.3056 14.5272C15.237 14.7356 15.0268 15.0012 14.5854 15.222C14.1441 15.4426 13.6443 15.5259 13.2923 15.4942L13.0225 18.482C13.9665 18.5672 15.0217 18.358 15.9272 17.9052C16.8325 17.4524 17.7608 16.6636 18.1553 15.4649L15.3056 14.5272ZM13.2924 15.4942C11.8895 15.3674 10.2169 14.5862 8.86549 13.6304L7.1332 16.0797C8.70581 17.1919 10.8852 18.2888 13.0223 18.482L13.2924 15.4942ZM8.86553 13.6304C6.92301 12.2565 5.08178 10.1055 4.02176 7.85081L1.30684 9.12721C2.59284 11.8626 4.77764 14.4136 7.13316 16.0797L8.86553 13.6304ZM4.02172 7.85072C3.31998 6.35836 3.31541 4.85062 4.07237 3.86406L1.69224 2.03787C-0.016825 4.26533 0.35061 7.09363 1.30688 9.1273L4.02172 7.85072ZM4.07213 3.86437C4.22106 3.67037 4.31862 3.59736 4.37262 3.56608C4.41515 3.54144 4.48626 3.50913 4.64722 3.50109L4.49741 0.504829C3.91837 0.533782 3.37248 0.678474 2.869 0.970095C2.377 1.25507 1.99955 1.63756 1.69247 2.03756L4.07213 3.86437ZM4.64519 3.50119C4.76454 3.49538 4.74584 3.51447 4.65998 3.48171C4.61531 3.46467 4.56645 3.43881 4.51966 3.4041C4.4738 3.37007 4.44323 3.33741 4.42653 3.31698C4.40183 3.28676 4.41997 3.29772 4.4779 3.43168C4.50486 3.49402 4.53456 3.56868 4.57199 3.66633C4.59057 3.71481 4.60945 3.76472 4.63067 3.82071C4.65144 3.87551 4.67397 3.93487 4.69767 3.99636L7.49699 2.91758C7.42588 2.73304 7.32662 2.46096 7.23147 2.24094C7.13099 2.00858 6.98269 1.70391 6.74937 1.41844C6.49719 1.1099 6.16295 0.8442 5.72932 0.678767C5.3163 0.521196 4.8941 0.485534 4.49945 0.504729L4.64519 3.50119ZM4.697 3.99462C4.83759 4.36081 5.0165 4.76759 5.14236 5.07036C5.28129 5.40458 5.38891 5.68749 5.46142 5.95014L8.35325 5.15183C8.22976 4.70448 8.06388 4.28288 7.91256 3.91884C7.74816 3.52336 7.62007 3.23813 7.49766 2.91932L4.697 3.99462ZM5.46176 5.95138C5.48889 6.04932 5.45292 5.98677 5.49707 5.85756C5.53047 5.75979 5.5765 5.73631 5.47248 5.84725C5.35882 5.96847 4.51428 6.66597 4.34583 7.7921L7.31282 8.23591C7.30637 8.27903 7.18434 8.40753 7.66093 7.89925C7.85204 7.69543 8.16014 7.34207 8.33595 6.82748C8.5225 6.28146 8.50928 5.71515 8.35291 5.15059L5.46176 5.95138ZM4.34515 7.7967C4.2713 8.30113 4.3793 8.75068 4.49783 9.07479C4.61894 9.40597 4.78674 9.70253 4.93996 9.9411C5.22576 10.3861 5.6224 10.8596 5.74067 11.0136L8.12 9.1864C7.86426 8.8534 7.6604 8.62542 7.4642 8.31993C7.37642 8.18325 7.33284 8.0923 7.31533 8.04442C7.29523 7.98946 7.33736 8.06838 7.3135 8.23131L4.34515 7.7967ZM5.73612 11.0077C6.56402 12.097 7.57802 13.0312 8.73128 13.7674L10.3454 11.2387C9.4903 10.6928 8.73843 10 8.12455 9.19236L5.73612 11.0077ZM8.73896 13.7723C8.95906 13.9109 9.46727 14.2546 9.9923 14.4771C10.4808 14.6842 11.4435 14.9908 12.3988 14.4677L10.958 11.8364C11.1087 11.7538 11.2387 11.7539 11.2777 11.7573C11.3027 11.7594 11.2694 11.7601 11.1629 11.715C11.0615 11.672 10.9392 11.6072 10.7918 11.519C10.6341 11.4246 10.5118 11.3434 10.3378 11.2338L8.73896 13.7723ZM12.399 14.4676C12.9474 14.1672 13.291 13.7391 13.5068 13.4214C13.6147 13.2626 13.7072 13.1058 13.7746 12.991C13.8506 12.8618 13.8943 12.7872 13.9373 12.722C14.0357 12.5728 13.9832 12.7121 13.7658 12.8045C13.4861 12.9233 13.3083 12.8233 13.4243 12.8707L14.5585 10.0934C13.973 9.85423 13.2808 9.75103 12.5928 10.0433C11.967 10.3091 11.6122 10.7986 11.4332 11.0698C11.3375 11.2149 11.2488 11.3679 11.1884 11.4707C11.1195 11.5879 11.0717 11.6673 11.0253 11.7355C10.9325 11.8721 10.9114 11.8619 10.9577 11.8365L12.399 14.4676ZM13.4258 12.8713C14.053 13.1267 14.6165 13.4747 15.4048 13.8995L16.828 11.2586C16.2283 10.9354 15.3838 10.4294 14.557 10.0928L13.4258 12.8713ZM15.406 13.9001C15.5852 13.9965 15.6207 14.0436 15.6036 14.0244C15.5674 13.9839 15.5215 13.9035 15.5047 13.814C15.4932 13.7523 15.5102 13.7588 15.4842 13.8962C15.4577 14.0358 15.4035 14.2298 15.3057 14.5269L18.1551 15.4652C18.3427 14.8958 18.6056 14.0747 18.4536 13.2624C18.264 12.2487 17.5532 11.6486 16.8268 11.2579L15.406 13.9001ZM15.3059 14.5263C15.3053 14.5281 15.3047 14.5299 15.3041 14.5317C15.3035 14.5335 15.3029 14.5353 15.3023 14.5371C15.3017 14.5388 15.3012 14.5406 15.3006 14.5424C15.3 14.5441 15.2994 14.5458 15.2989 14.5476C15.2983 14.5493 15.2977 14.551 15.2972 14.5527C15.2966 14.5544 15.296 14.5561 15.2955 14.5578C15.2949 14.5595 15.2944 14.5612 15.2938 14.5628C15.2933 14.5645 15.2927 14.5662 15.2922 14.5678C15.2916 14.5695 15.2911 14.5711 15.2906 14.5727C15.29 14.5743 15.2895 14.576 15.289 14.5776C15.2884 14.5792 15.2879 14.5808 15.2874 14.5823C15.2869 14.5839 15.2864 14.5855 15.2858 14.5871C15.2853 14.5886 15.2848 14.5902 15.2843 14.5917C15.2838 14.5933 15.2833 14.5948 15.2828 14.5963C15.2823 14.5978 15.2818 14.5994 15.2813 14.6009C15.2808 14.6024 15.2803 14.6039 15.2798 14.6053C15.2793 14.6068 15.2788 14.6083 15.2783 14.6098C15.2779 14.6112 15.2774 14.6127 15.2769 14.6141C15.2764 14.6156 15.276 14.617 15.2755 14.6184C15.275 14.6198 15.2746 14.6213 15.2741 14.6227C15.2736 14.6241 15.2732 14.6255 15.2727 14.6269C15.2723 14.6282 15.2718 14.6296 15.2714 14.631C15.2709 14.6323 15.2705 14.6337 15.27 14.635C15.2696 14.6364 15.2691 14.6377 15.2687 14.6391C15.2683 14.6404 15.2678 14.6417 15.2674 14.643C15.267 14.6443 15.2665 14.6456 15.2661 14.6469C15.2657 14.6482 15.2653 14.6495 15.2648 14.6507C15.2644 14.652 15.264 14.6533 15.2636 14.6545C15.2626 14.6575 15.2621 14.659 15.2612 14.6619C15.2608 14.6631 15.2604 14.6643 15.26 14.6655C15.2596 14.6667 15.2592 14.6679 15.2588 14.6691C15.2582 14.6707 15.257 14.6744 15.2565 14.676C15.2561 14.6771 15.2558 14.6783 15.2554 14.6794C15.255 14.6805 15.2547 14.6816 15.2543 14.6827C15.2527 14.6876 15.2516 14.6909 15.2501 14.6955C15.2487 14.6998 15.2475 14.7034 15.2461 14.7074C15.2458 14.7084 15.2455 14.7093 15.2452 14.7103C15.2449 14.7112 15.2446 14.7122 15.2443 14.7131C15.244 14.714 15.2437 14.7149 15.2434 14.7158C15.2431 14.7167 15.2428 14.7176 15.2425 14.7185C15.2422 14.7194 15.2419 14.7203 15.2416 14.7212C15.2413 14.722 15.241 14.7229 15.2408 14.7237C15.2405 14.7246 15.2402 14.7254 15.2399 14.7263C15.2397 14.7271 15.2394 14.7279 15.2391 14.7288C15.2388 14.7296 15.2386 14.7304 15.2383 14.7312C15.238 14.732 15.2378 14.7328 15.2375 14.7336C15.2373 14.7344 15.237 14.7351 15.2368 14.7359C15.2365 14.7367 15.2362 14.7374 15.236 14.7382C15.2352 14.7406 15.2339 14.7447 15.2331 14.7468C15.232 14.7502 15.2316 14.7516 15.2306 14.7547C15.2299 14.7566 15.2288 14.7601 15.2282 14.7618C15.228 14.7624 15.2278 14.7629 15.2277 14.7635C15.2275 14.764 15.2273 14.7645 15.2271 14.7651C15.2267 14.7663 15.2265 14.767 15.2261 14.7682C15.226 14.7686 15.2258 14.7691 15.2256 14.7696C15.2255 14.7701 15.2253 14.7706 15.2252 14.771C15.225 14.7715 15.2249 14.772 15.2247 14.7724C15.2246 14.7729 15.2244 14.7733 15.2243 14.7738C15.2241 14.7742 15.224 14.7746 15.2238 14.7751C15.2237 14.7755 15.2236 14.7759 15.2234 14.7763C15.2233 14.7767 15.2232 14.7771 15.223 14.7775C15.2229 14.7779 15.2228 14.7783 15.2227 14.7787C15.2225 14.779 15.2224 14.7794 15.2223 14.7798C15.2222 14.7801 15.2221 14.7805 15.2219 14.7808C15.2217 14.7815 15.2215 14.7822 15.2213 14.7829C15.2209 14.7839 15.221 14.7837 15.2207 14.7847C15.2206 14.7848 15.2201 14.7864 15.2201 14.7864C15.22 14.7866 15.2199 14.7869 15.2199 14.7871C15.2198 14.7874 15.2197 14.7876 15.2196 14.7879C15.2195 14.7881 15.2195 14.7883 15.2194 14.7886C15.2193 14.7888 15.2192 14.789 15.2192 14.7892C15.2191 14.7894 15.219 14.7896 15.219 14.7898C15.2189 14.79 15.2188 14.7902 15.2188 14.7904C15.2187 14.7906 15.2187 14.7908 15.2186 14.7909C15.2186 14.7911 15.2185 14.7913 15.2185 14.7914C15.2181 14.7925 15.2177 14.7936 15.2176 14.7939C15.2176 14.7941 15.2175 14.7942 15.2175 14.7942C16.1723 16.6885 18.0666 15.7337 18.0666 15.7337C18.0666 15.7337 18.0666 15.7337 18.0667 15.7336C18.0667 15.7336 18.0667 15.7336 18.0667 15.7335C18.0667 15.7335 18.0667 15.7335 18.0667 15.7334C18.0667 15.7334 18.0667 15.7333 18.0668 15.7333C18.0668 15.7332 18.0668 15.7331 18.0668 15.7331C18.0669 15.733 18.0669 15.7329 18.0669 15.7329C18.0669 15.7328 18.067 15.7327 18.067 15.7326C18.067 15.7325 18.0671 15.7324 18.0671 15.7323C18.0671 15.7322 18.0672 15.7321 18.0672 15.732C18.0673 15.7317 18.0673 15.7315 18.0675 15.7312C18.0676 15.7307 18.0685 15.728 18.0689 15.7268C18.069 15.7266 18.0691 15.7263 18.0691 15.7261C18.0692 15.7259 18.0693 15.7256 18.0694 15.7254C18.0695 15.725 18.0697 15.7242 18.0699 15.7238C18.0702 15.7229 18.0701 15.7231 18.0704 15.7222C18.0705 15.7219 18.0706 15.7216 18.0707 15.7213C18.0708 15.721 18.0709 15.7207 18.071 15.7204C18.0711 15.7201 18.0712 15.7197 18.0713 15.7194C18.0714 15.7191 18.0715 15.7188 18.0717 15.7184C18.0718 15.7181 18.0719 15.7178 18.072 15.7174C18.0721 15.7171 18.0722 15.7168 18.0723 15.7164C18.0724 15.7161 18.0726 15.7157 18.0727 15.7154C18.0728 15.715 18.0729 15.7146 18.073 15.7143C18.0732 15.7139 18.0733 15.7135 18.0734 15.7132C18.0735 15.7128 18.0737 15.7124 18.0738 15.712C18.0739 15.7116 18.074 15.7112 18.0742 15.7108C18.0743 15.7104 18.0744 15.71 18.0746 15.7096C18.0747 15.7092 18.0748 15.7088 18.075 15.7084C18.0751 15.708 18.0752 15.7076 18.0754 15.7072C18.0755 15.7067 18.0757 15.7063 18.0758 15.7059C18.0759 15.7055 18.0761 15.705 18.0762 15.7046C18.0764 15.7041 18.0765 15.7037 18.0767 15.7032C18.0768 15.7028 18.077 15.7023 18.0771 15.7019C18.0773 15.7014 18.0774 15.701 18.0776 15.7005C18.0777 15.7 18.0779 15.6996 18.078 15.6991C18.0784 15.6979 18.0786 15.6974 18.079 15.6962C18.0792 15.6957 18.0793 15.6952 18.0795 15.6947C18.0797 15.6942 18.0798 15.6937 18.08 15.6932C18.0802 15.6927 18.0803 15.6922 18.0805 15.6917C18.0807 15.6911 18.0808 15.6906 18.081 15.6901C18.0812 15.6896 18.0814 15.689 18.0815 15.6885C18.0817 15.688 18.0819 15.6874 18.0821 15.6869C18.0822 15.6864 18.0824 15.6858 18.0826 15.6853C18.0828 15.6847 18.083 15.6842 18.0831 15.6836C18.0833 15.6831 18.0835 15.6825 18.0837 15.6819C18.0839 15.6814 18.0841 15.6808 18.0843 15.6802C18.0844 15.6797 18.0846 15.6791 18.0848 15.6785C18.085 15.6779 18.0852 15.6774 18.0854 15.6768C18.0856 15.6762 18.0858 15.6756 18.086 15.675C18.0862 15.6744 18.0864 15.6738 18.0866 15.6732C18.0868 15.6726 18.087 15.672 18.0872 15.6714C18.0874 15.6708 18.0876 15.6702 18.0878 15.6696C18.088 15.669 18.0882 15.6684 18.0884 15.6677C18.0886 15.6671 18.0888 15.6665 18.089 15.6659C18.0892 15.6652 18.0894 15.6646 18.0896 15.664C18.0898 15.6633 18.09 15.6627 18.0903 15.6621C18.0905 15.6614 18.0907 15.6608 18.0909 15.6601C18.0911 15.6595 18.0913 15.6588 18.0915 15.6582C18.0917 15.6575 18.092 15.6569 18.0922 15.6562C18.0924 15.6555 18.0926 15.6549 18.0928 15.6542C18.0931 15.6535 18.0933 15.6529 18.0935 15.6522C18.0937 15.6515 18.0939 15.6509 18.0942 15.6502C18.0944 15.6495 18.0946 15.6488 18.0948 15.6481C18.0951 15.6474 18.0953 15.6468 18.0955 15.6461C18.0958 15.6454 18.096 15.6447 18.0962 15.644C18.0964 15.6433 18.0967 15.6426 18.0969 15.6419C18.0971 15.6412 18.0974 15.6405 18.0976 15.6398C18.0978 15.6391 18.0981 15.6383 18.0983 15.6376C18.0985 15.6369 18.0988 15.6362 18.099 15.6355C18.0993 15.6348 18.0995 15.634 18.0997 15.6333C18.1 15.6326 18.1002 15.6319 18.1005 15.6311C18.1007 15.6304 18.1009 15.6297 18.1012 15.6289C18.1014 15.6282 18.1017 15.6274 18.1019 15.6267C18.1022 15.626 18.1024 15.6252 18.1026 15.6245C18.1029 15.6237 18.1031 15.623 18.1034 15.6222C18.1036 15.6215 18.1039 15.6207 18.1041 15.62C18.1044 15.6192 18.1046 15.6184 18.1049 15.6177C18.1051 15.6169 18.1054 15.6162 18.1056 15.6154C18.1059 15.6146 18.1061 15.6139 18.1064 15.6131C18.1067 15.6123 18.1069 15.6115 18.1072 15.6108C18.1074 15.61 18.1077 15.6092 18.1079 15.6084C18.1082 15.6076 18.1084 15.6069 18.1087 15.6061C18.109 15.6053 18.1092 15.6045 18.1095 15.6037C18.1097 15.6029 18.11 15.6021 18.1103 15.6013C18.1105 15.6005 18.1108 15.5997 18.1111 15.599C18.1113 15.5982 18.1116 15.5974 18.1119 15.5965C18.1121 15.5957 18.1124 15.5949 18.1126 15.5941C18.1129 15.5933 18.1132 15.5925 18.1134 15.5917C18.1137 15.5909 18.114 15.5901 18.1143 15.5893C18.1145 15.5885 18.1148 15.5876 18.1151 15.5868C18.1153 15.586 18.1156 15.5852 18.1159 15.5844C18.1161 15.5835 18.1164 15.5827 18.1167 15.5819C18.117 15.5811 18.1172 15.5802 18.1175 15.5794C18.1178 15.5786 18.1181 15.5777 18.1183 15.5769C18.1186 15.5761 18.1189 15.5752 18.1192 15.5744C18.1194 15.5736 18.1197 15.5727 18.12 15.5719C18.1203 15.5711 18.1205 15.5702 18.1208 15.5694C18.1211 15.5685 18.1214 15.5677 18.1217 15.5668C18.1219 15.566 18.1222 15.5651 18.1225 15.5643C18.1228 15.5634 18.1231 15.5626 18.1233 15.5617C18.1236 15.5609 18.1239 15.56 18.1242 15.5592C18.1245 15.5583 18.1247 15.5575 18.125 15.5566C18.1253 15.5557 18.1256 15.5549 18.1259 15.554C18.1262 15.5532 18.1264 15.5523 18.1267 15.5514C18.127 15.5506 18.1273 15.5497 18.1276 15.5488C18.1279 15.548 18.1282 15.5471 18.1284 15.5462C18.1287 15.5454 18.129 15.5445 18.1293 15.5436C18.1296 15.5428 18.1299 15.5419 18.1302 15.541C18.1305 15.5401 18.1307 15.5393 18.131 15.5384C18.1313 15.5375 18.1316 15.5366 18.1319 15.5358C18.1322 15.5349 18.1325 15.534 18.1328 15.5331C18.1331 15.5322 18.1333 15.5314 18.1336 15.5305C18.1339 15.5296 18.1342 15.5287 18.1345 15.5278C18.1348 15.5269 18.1351 15.5261 18.1354 15.5252C18.1357 15.5243 18.136 15.5234 18.1363 15.5225C18.1366 15.5216 18.1369 15.5207 18.1371 15.5198C18.1374 15.5189 18.1377 15.5181 18.138 15.5172C18.1383 15.5163 18.1386 15.5154 18.1389 15.5145C18.1392 15.5136 18.1395 15.5127 18.1398 15.5118C18.1401 15.5109 18.1404 15.51 18.1407 15.5091C18.1419 15.5053 18.143 15.5022 18.1442 15.4983C18.1445 15.4974 18.1448 15.4965 18.1451 15.4956C18.1454 15.4947 18.1457 15.4938 18.146 15.4929C18.1463 15.492 18.1466 15.4911 18.1469 15.4902C18.1472 15.4893 18.1475 15.4884 18.1478 15.4875C18.1481 15.4866 18.1484 15.4857 18.1487 15.4848C18.149 15.4839 18.1493 15.483 18.1496 15.4821C18.1499 15.4812 18.1502 15.4803 18.1505 15.4794C18.1508 15.4785 18.1511 15.4776 18.1514 15.4767C18.1517 15.4758 18.152 15.4749 18.1523 15.474C18.1526 15.473 18.1529 15.4721 18.1532 15.4712C18.1535 15.4703 18.1538 15.4694 18.1541 15.4685C18.1544 15.4676 18.1547 15.4667 18.155 15.4658C18.1553 15.4649 18.1556 15.464 18.1559 15.4631C18.1562 15.4622 18.1565 15.4613 18.1568 15.4604C18.1571 15.4595 18.1574 15.4585 18.1577 15.4576C18.158 15.4567 18.1583 15.4558 18.1586 15.4549C18.1588 15.454 18.1591 15.4531 18.1594 15.4522C18.1597 15.4513 18.16 15.4504 18.1603 15.4495C18.1606 15.4486 18.1609 15.4477 18.1612 15.4468C18.1615 15.4459 18.1618 15.445 18.1621 15.4441C18.1624 15.4432 18.1627 15.4423 18.163 15.4414C18.1633 15.4405 18.1636 15.4396 18.1639 15.4387C18.1642 15.4377 18.1645 15.4368 18.1648 15.4359C18.1651 15.435 18.1654 15.4341 18.1657 15.4332C18.166 15.4323 18.1663 15.4314 18.1666 15.4305C18.1669 15.4296 18.1672 15.4287 18.1675 15.4278C18.1678 15.4269 18.1681 15.4261 18.1684 15.4252C18.1687 15.4243 18.169 15.4234 18.1693 15.4225C18.1695 15.4216 18.1698 15.4207 18.1701 15.4198C18.1704 15.4189 18.1707 15.418 18.171 15.4171C18.1713 15.4162 18.1716 15.4153 18.1719 15.4144C18.1722 15.4135 18.1725 15.4126 18.1728 15.4118C18.1731 15.4109 18.1734 15.41 18.1737 15.4091C18.174 15.4082 18.1743 15.4073 18.1745 15.4064C18.1748 15.4055 18.1751 15.4047 18.1754 15.4038C18.1757 15.4029 18.176 15.402 18.1763 15.4011C18.1766 15.4002 18.1769 15.3994 18.1772 15.3985C18.1775 15.3976 18.1777 15.3967 18.178 15.3958C18.1783 15.395 18.1786 15.3941 18.1789 15.3932C18.1792 15.3923 18.1795 15.3915 18.1798 15.3906C18.1801 15.3897 18.1803 15.3888 18.1806 15.388C18.1809 15.3871 18.1812 15.3862 18.1815 15.3854C18.1818 15.3845 18.1821 15.3836 18.1824 15.3827C18.1826 15.3819 18.1829 15.381 18.1832 15.3802C18.1835 15.3793 18.1838 15.3784 18.1841 15.3776C18.1843 15.3767 18.1846 15.3758 18.1849 15.375C18.1852 15.3741 18.1855 15.3733 18.1858 15.3724C18.186 15.3716 18.1863 15.3707 18.1866 15.3699C18.1869 15.369 18.1872 15.3682 18.1874 15.3673C18.1877 15.3665 18.188 15.3656 18.1883 15.3648C18.1886 15.3639 18.1888 15.3631 18.1891 15.3622C18.1894 15.3614 18.1897 15.3605 18.19 15.3597C18.1907 15.3573 18.1908 15.3571 18.1916 15.3547C18.1919 15.3538 18.1922 15.353 18.1924 15.3522C18.1927 15.3514 18.193 15.3505 18.1932 15.3497C18.1935 15.3489 18.1938 15.3481 18.1941 15.3472C18.1943 15.3464 18.1946 15.3456 18.1949 15.3448C18.1951 15.344 18.1954 15.3431 18.1957 15.3423C18.1959 15.3415 18.1962 15.3407 18.1965 15.3399C18.1968 15.3391 18.197 15.3383 18.1973 15.3375C18.1976 15.3366 18.1978 15.3358 18.1981 15.335C18.1983 15.3342 18.1986 15.3334 18.1989 15.3326C18.1991 15.3318 18.1994 15.331 18.1997 15.3303C18.1999 15.3295 18.2002 15.3287 18.2004 15.3279C18.2007 15.3271 18.201 15.3263 18.2012 15.3255C18.2015 15.3247 18.2017 15.3239 18.202 15.3232C18.2023 15.3224 18.2025 15.3216 18.2028 15.3208C18.203 15.3201 18.2033 15.3193 18.2035 15.3185C18.2038 15.3177 18.204 15.317 18.2043 15.3162C18.2045 15.3154 18.2048 15.3147 18.205 15.3139C18.2053 15.3131 18.2056 15.3124 18.2058 15.3116C18.2061 15.3109 18.2063 15.3101 18.2065 15.3094C18.2068 15.3086 18.207 15.3079 18.2073 15.3071C18.2075 15.3064 18.2078 15.3056 18.208 15.3049C18.2083 15.3041 18.2085 15.3034 18.2088 15.3027C18.209 15.3019 18.2092 15.3012 18.2095 15.3005C18.2097 15.2997 18.21 15.299 18.2102 15.2983C18.2104 15.2976 18.2107 15.2968 18.2109 15.2961C18.2112 15.2954 18.2114 15.2947 18.2116 15.294C18.2119 15.2932 18.2121 15.2925 18.2123 15.2918C18.2126 15.2911 18.2128 15.2904 18.213 15.2897C18.2133 15.289 18.2135 15.2883 18.2137 15.2876C18.214 15.2869 18.2142 15.2862 18.2144 15.2855C18.2146 15.2848 18.2149 15.2841 18.2151 15.2835C18.2153 15.2828 18.2155 15.2821 18.2158 15.2814C18.216 15.2807 18.2162 15.2801 18.2164 15.2794C18.2167 15.2787 18.2169 15.278 18.2171 15.2774C18.2173 15.2767 18.2175 15.2761 18.2178 15.2754C18.218 15.2747 18.2182 15.2741 18.2184 15.2734C18.219 15.2717 18.2191 15.2712 18.2197 15.2695C18.2199 15.2689 18.2201 15.2683 18.2203 15.2676C18.2205 15.267 18.2207 15.2664 18.2209 15.2657C18.2215 15.2639 18.2216 15.2638 18.2222 15.262C18.2223 15.2615 18.2232 15.2589 18.2234 15.2584C18.2236 15.2578 18.2238 15.2572 18.224 15.2566C18.2241 15.256 18.2243 15.2554 18.2245 15.2548C18.2247 15.2542 18.2249 15.2536 18.2251 15.2531C18.2253 15.2525 18.2255 15.2519 18.2257 15.2513C18.2259 15.2508 18.2261 15.2502 18.2262 15.2497C18.2264 15.2491 18.2266 15.2485 18.2268 15.248C18.227 15.2474 18.2272 15.2469 18.2273 15.2463C18.2275 15.2458 18.2277 15.2452 18.2279 15.2447C18.2281 15.2441 18.2282 15.2436 18.2284 15.2431C18.2286 15.2425 18.2288 15.242 18.2289 15.2415C18.2291 15.241 18.2293 15.2405 18.2294 15.2399C18.2296 15.2394 18.2298 15.2389 18.2299 15.2384C18.2301 15.2379 18.2303 15.2374 18.2304 15.2369C18.2306 15.2364 18.2308 15.2359 18.2309 15.2354C18.2311 15.2348 18.2317 15.233 18.2319 15.2325C18.232 15.232 18.2322 15.2316 18.2324 15.2311C18.2325 15.2306 18.2327 15.2302 18.2328 15.2297C18.233 15.2293 18.2331 15.2288 18.2333 15.2283C18.2334 15.2279 18.2336 15.2275 18.2337 15.227C18.2338 15.2266 18.234 15.2261 18.2341 15.2257C18.2343 15.2253 18.2344 15.2249 18.2346 15.2244C18.2352 15.2224 18.2355 15.2215 18.2362 15.2196C18.2363 15.2192 18.2364 15.2188 18.2365 15.2184C18.2367 15.2181 18.2368 15.2177 18.2369 15.2173C18.237 15.217 18.2371 15.2166 18.2373 15.2162C18.2374 15.2159 18.2375 15.2155 18.2376 15.2152C18.2377 15.2148 18.2378 15.2145 18.2379 15.2141C18.2381 15.2138 18.2382 15.2135 18.2383 15.2131C18.2384 15.2128 18.2385 15.2125 18.2386 15.2122C18.2387 15.2119 18.2388 15.2115 18.2389 15.2112C18.239 15.2109 18.2391 15.2106 18.2392 15.2103C18.2393 15.21 18.2394 15.2097 18.2395 15.2094C18.2396 15.2091 18.2397 15.2089 18.2398 15.2086C18.2399 15.2083 18.24 15.208 18.24 15.2078C18.2401 15.2075 18.2402 15.2072 18.2403 15.207C18.2404 15.2067 18.2405 15.2065 18.2406 15.2062C18.2406 15.206 18.2407 15.2057 18.2408 15.2055C18.2409 15.2053 18.241 15.205 18.241 15.2048C18.2411 15.2046 18.2412 15.2043 18.2412 15.2041C18.2413 15.2039 18.2414 15.2037 18.2415 15.2035C18.2415 15.2033 18.2416 15.2031 18.2417 15.2029C18.2417 15.2027 18.2418 15.2025 18.2418 15.2023C18.242 15.2018 18.2424 15.2007 18.2425 15.2004C18.2425 15.2003 18.2426 15.2001 18.2426 15.2C18.2427 15.1999 18.2427 15.1997 18.2427 15.1996C18.2428 15.1995 18.2428 15.1994 18.2428 15.1993C18.2429 15.1992 18.2429 15.1991 18.2429 15.199C18.2431 15.1985 18.2429 15.199 18.2431 15.1985C18.2431 15.1984 18.2431 15.1984 18.2432 15.1983C18.2432 15.1983 18.2432 15.1982 18.2432 15.1982C18.2432 15.1981 18.2432 15.1981 18.2433 15.198C18.2433 15.198 18.2433 15.198 18.2433 15.198C18.2433 15.1979 18.2433 15.1979 18.2433 15.1979C18.2433 15.1979 16.349 16.1527 15.3942 14.2584C15.3942 14.2585 15.3942 14.2585 15.3941 14.2588C15.3939 14.2592 15.3941 14.2586 15.394 14.2592C15.394 14.2592 15.3938 14.2596 15.3938 14.2597C15.3937 14.2598 15.3937 14.2599 15.3937 14.26C15.3936 14.2601 15.3936 14.2603 15.3936 14.2604C15.3934 14.2607 15.3934 14.2609 15.3933 14.2612C15.3932 14.2614 15.3932 14.2616 15.3931 14.2617C15.3931 14.2619 15.393 14.2621 15.3929 14.2623C15.3929 14.2624 15.3928 14.2626 15.3927 14.2628C15.3927 14.263 15.3926 14.2632 15.3925 14.2634C15.3925 14.2636 15.3924 14.2639 15.3923 14.2641C15.3923 14.2643 15.3922 14.2645 15.3921 14.2648C15.392 14.265 15.3919 14.2653 15.3919 14.2655C15.3918 14.2658 15.3917 14.266 15.3916 14.2663C15.3915 14.2665 15.3914 14.2668 15.3913 14.2671C15.3912 14.2674 15.3912 14.2677 15.3911 14.268C15.3909 14.2683 15.3906 14.2694 15.3905 14.2698C15.3903 14.2701 15.3902 14.2704 15.3901 14.2708C15.39 14.2711 15.3899 14.2715 15.3898 14.2718C15.3896 14.2723 15.3892 14.2735 15.3891 14.274C15.3889 14.2744 15.3888 14.2748 15.3887 14.2752C15.3886 14.2755 15.3884 14.2759 15.3883 14.2764C15.388 14.2773 15.3878 14.2779 15.3875 14.2789C15.3873 14.2793 15.3867 14.2811 15.3866 14.2816C15.3864 14.2821 15.3862 14.2826 15.3861 14.283C15.3859 14.2835 15.3858 14.284 15.3856 14.2845C15.3854 14.285 15.3853 14.2855 15.3851 14.286C15.3849 14.2865 15.3848 14.2871 15.3846 14.2876C15.3844 14.2881 15.3842 14.2887 15.3841 14.2892C15.3839 14.2897 15.3837 14.2903 15.3835 14.2909C15.3833 14.2914 15.3831 14.292 15.3829 14.2926C15.3828 14.2931 15.3826 14.2937 15.3824 14.2943C15.3822 14.2949 15.382 14.2955 15.3818 14.2961C15.3816 14.2967 15.3814 14.2973 15.3812 14.298C15.3805 14.2999 15.3793 14.3036 15.3786 14.3058C15.3783 14.3065 15.3781 14.3072 15.3779 14.3079C15.3777 14.3086 15.3774 14.3093 15.3772 14.31C15.3768 14.3112 15.3761 14.3132 15.3757 14.3145C15.3755 14.3152 15.3752 14.316 15.375 14.3167C15.3747 14.3175 15.3745 14.3183 15.3742 14.3191C15.3737 14.3207 15.3732 14.3222 15.3726 14.3239C15.3723 14.3247 15.3721 14.3255 15.3718 14.3264C15.3715 14.3272 15.3712 14.3281 15.371 14.3289C15.3707 14.3298 15.3704 14.3306 15.3701 14.3315C15.3698 14.3324 15.3695 14.3333 15.3692 14.3341C15.3689 14.335 15.3686 14.3359 15.3683 14.3368C15.368 14.3377 15.3677 14.3387 15.3674 14.3396C15.3671 14.3405 15.3668 14.3414 15.3665 14.3424C15.3662 14.3433 15.3659 14.3443 15.3656 14.3452C15.3653 14.3462 15.3649 14.3471 15.3646 14.3481C15.3643 14.3491 15.364 14.3501 15.3636 14.3511C15.3633 14.3521 15.363 14.3531 15.3627 14.3541C15.3623 14.3551 15.362 14.3561 15.3616 14.3571C15.361 14.3592 15.3603 14.3613 15.3596 14.3634C15.3592 14.3645 15.3589 14.3656 15.3585 14.3667C15.3582 14.3677 15.3578 14.3688 15.3574 14.3699C15.3569 14.3716 15.3558 14.3749 15.3552 14.3767C15.3548 14.3778 15.3545 14.3789 15.3541 14.3801C15.3537 14.3813 15.3533 14.3824 15.3529 14.3836C15.3525 14.3848 15.3521 14.386 15.3518 14.3871C15.3514 14.3883 15.351 14.3895 15.3506 14.3908C15.3502 14.392 15.3498 14.3932 15.3494 14.3944C15.349 14.3957 15.3485 14.3969 15.3481 14.3981C15.3477 14.3994 15.3473 14.4007 15.3469 14.4019C15.3465 14.4032 15.346 14.4045 15.3456 14.4058C15.3452 14.407 15.3448 14.4083 15.3443 14.4097C15.3439 14.411 15.3435 14.4123 15.343 14.4136C15.3426 14.4149 15.3422 14.4163 15.3417 14.4176C15.3413 14.419 15.3408 14.4203 15.3404 14.4217C15.3399 14.423 15.3395 14.4244 15.339 14.4258C15.3386 14.4272 15.3381 14.4286 15.3376 14.43C15.3372 14.4314 15.3367 14.4328 15.3362 14.4342C15.3358 14.4357 15.3353 14.4371 15.3348 14.4385C15.3343 14.44 15.3339 14.4414 15.3334 14.4429C15.3329 14.4444 15.3324 14.4458 15.3319 14.4473C15.3309 14.4504 15.33 14.4532 15.3289 14.4563C15.3284 14.4579 15.3279 14.4594 15.3274 14.4609C15.3269 14.4625 15.3264 14.464 15.3259 14.4656C15.3254 14.4672 15.3249 14.4687 15.3243 14.4703C15.3238 14.4719 15.3233 14.4735 15.3228 14.4751C15.3222 14.4767 15.3217 14.4783 15.3212 14.4799C15.3206 14.4816 15.3201 14.4832 15.3195 14.4848C15.319 14.4865 15.3185 14.4881 15.3179 14.4898C15.3174 14.4915 15.3168 14.4932 15.3162 14.4948C15.3157 14.4965 15.3151 14.4982 15.3146 14.4999C15.314 14.5016 15.3134 14.5034 15.3129 14.5051C15.3123 14.5068 15.3117 14.5086 15.3111 14.5103C15.3106 14.5121 15.31 14.5138 15.3094 14.5156C15.3088 14.5174 15.3082 14.5191 15.3076 14.5209C15.3071 14.5227 15.3065 14.5245 15.3059 14.5263L18.155 15.4658C18.1814 15.3857 18.1824 15.3827 18.202 15.3231C18.223 15.2594 18.1988 15.3327 18.2183 15.2736C18.2237 15.2575 18.2199 15.269 18.2248 15.2539C18.2251 15.2532 18.2253 15.2524 18.2256 15.2517C18.2258 15.251 18.226 15.2502 18.2263 15.2495C18.2265 15.2488 18.2268 15.2481 18.227 15.2474C18.2272 15.2467 18.2275 15.246 18.2277 15.2453C18.2321 15.2318 18.2259 15.2506 18.2303 15.2374C18.2461 15.1894 18.2315 15.2337 18.2424 15.2007C18.2432 15.1981 18.2426 15.2 18.2432 15.1982C18.2433 15.198 18.2433 15.1979 18.2433 15.1979C17.2885 13.3036 15.3942 14.2584 15.3942 14.2584C15.3942 14.2585 15.3942 14.2585 15.3942 14.2585C15.3938 14.2597 15.3945 14.2574 15.3941 14.2587C15.3924 14.2638 15.3946 14.2574 15.3919 14.2653C15.3786 14.3056 15.3478 14.3991 15.3059 14.5263C15.2638 14.6539 15.2905 14.5728 15.2521 14.6895C15.2405 14.7246 15.2413 14.7222 15.2319 14.7506C15.2266 14.7668 15.2293 14.7586 15.2247 14.7725C15.2187 14.7907 15.225 14.7717 15.2198 14.7873C15.2166 14.797 15.2213 14.7828 15.2183 14.7917C15.2148 14.8023 15.2209 14.7841 15.2176 14.794C15.2176 14.7941 15.2176 14.7941 15.2175 14.7942C15.2175 14.7942 15.2175 14.7942 15.2175 14.7942C15.2175 14.7942 17.1118 13.8394 18.0666 15.7337C18.0666 15.7336 18.0667 15.7336 18.0667 15.7334C18.0677 15.7303 18.066 15.7356 18.067 15.7324C18.0675 15.731 18.067 15.7325 18.0676 15.7309C18.0698 15.7241 18.0725 15.716 18.0797 15.6942C18.0828 15.6846 18.1267 15.5515 18.155 15.4658L15.3059 14.5263Z" fill="#818181" mask="url(#path-1-outside-1_468_561)"/>
</svg>
