<svg width="20" height="19" viewBox="0 0 20 19" fill="none" xmlns="http://www.w3.org/2000/svg">
<path d="M10.0013 18.4258C9.89251 18.4264 9.78462 18.4056 9.68386 18.3644C9.58309 18.3232 9.49145 18.2626 9.41417 18.186L1.81397 10.5858C0.947622 9.71833 0.357762 8.61363 0.118885 7.41117C-0.119991 6.20871 0.0028311 4.96243 0.471839 3.82973C0.940847 2.69703 1.735 1.72872 2.75401 1.0471C3.77301 0.365482 4.97115 0.00112393 6.19711 4.56164e-05C7.57479 -0.00525745 8.91439 0.451954 10.0013 1.29845C11.1959 0.375845 12.6852 -0.0808606 14.1916 0.0134791C15.698 0.107819 17.1186 0.746765 18.1887 1.81119C19.3488 2.97666 20 4.5541 20 6.19847C20 7.84285 19.3488 9.42029 18.1887 10.5858L10.5885 18.186C10.5112 18.2626 10.4196 18.3232 10.3188 18.3644C10.2181 18.4056 10.1102 18.4264 10.0013 18.4258ZM6.19711 1.65406C5.59944 1.65205 5.00733 1.76871 4.45509 1.99727C3.90285 2.22583 3.40148 2.56175 2.98005 2.98555C2.1306 3.84076 1.65387 4.99722 1.65387 6.20261C0.471839 3.82973 3.60564 0.191887 4.45509 1.0471L10.3194 1.99899L15.5467 1.29845L18.3488 4.5C19.1983 3.64479 18.3488 7.40799 18.3488 6.20261C18.3488 4.99722 17.8721 3.84076 17.0226 2.98555C16.6003 2.56295 16.0987 2.22771 15.5467 1.99899C14.9947 1.77027 14.4031 1.65255 13.8056 1.65255C13.2081 1.65255 12.6164 1.77027 12.0644 1.99899C11.5124 2.22771 11.0109 2.56295 10.5885 2.98555C10.5116 3.06306 10.4202 3.12458 10.3194 3.16657C10.2186 3.20856 10.1105 3.23017 10.0013 3.23017C9.89217 3.23017 9.78408 3.20856 9.6833 3.16657C9.58252 3.12458 9.49105 3.06306 9.41417 2.98555C8.99274 2.56175 8.49137 2.22583 7.93913 1.99727C7.3869 1.76871 6.79478 1.65205 6.19711 1.65406Z" fill="#EF1B1B"/>
</svg>
