<svg width="111" height="17" viewBox="0 0 111 17" fill="none" xmlns="http://www.w3.org/2000/svg">
<path d="M11.3994 5.01774L9.108 0.357352C8.9904 0.118177 8.76127 -0.00094313 8.53259 5.62261e-06C8.30568 0.000915913 8.0792 0.120036 7.96252 0.357352L5.67116 5.01774L0.54749 5.76508C0.0236716 5.84148 -0.18548 6.48763 0.193561 6.8585L3.90108 10.4861L3.02584 15.6084C2.95506 16.0226 3.28293 16.3591 3.65496 16.3592C3.75326 16.3593 3.85465 16.3359 3.95257 16.2842L8.53526 13.8658L13.1179 16.2842C13.1985 16.3266 13.2814 16.3501 13.363 16.357C13.3984 16.36 13.4335 16.36 13.468 16.357C13.8177 16.327 14.1122 16.003 14.0447 15.6084L13.1694 10.4861L16.8769 6.8585C17.256 6.48763 17.0468 5.84148 16.523 5.76508L11.3994 5.01774Z" fill="#EEBC3B"/>
<path d="M34.8715 5.0178L32.5802 0.357413C32.4626 0.118238 32.2334 -0.000882095 32.0048 6.66578e-05C31.7779 0.000976948 31.5514 0.120097 31.4347 0.357413L29.1433 5.0178L24.0197 5.76514C23.4958 5.84154 23.2867 6.48769 23.6657 6.85856L27.3732 10.4862L26.498 15.6085C26.4272 16.0227 26.7551 16.3591 27.1271 16.3593C27.2254 16.3594 27.3268 16.3359 27.4247 16.2843L32.0074 13.8658L36.5901 16.2843C36.6707 16.3267 36.7536 16.3502 36.8352 16.3571C36.8706 16.36 36.9057 16.36 36.9402 16.3571C37.2899 16.3271 37.5843 16.0031 37.5169 15.6085L36.6416 10.4862L40.3491 6.85856C40.7282 6.48769 40.519 5.84154 39.9952 5.76514L34.8715 5.0178Z" fill="#EEBC3B"/>
<path d="M58.3432 5.0178L56.0518 0.357413C55.9342 0.118238 55.7051 -0.000882095 55.4764 6.66578e-05C55.2495 0.000976948 55.023 0.120097 54.9064 0.357413L52.615 5.0178L47.4913 5.76514C46.9675 5.84154 46.7584 6.48769 47.1374 6.85856L50.8449 10.4862L49.9697 15.6085C49.8989 16.0227 50.2268 16.3591 50.5988 16.3593C50.6971 16.3594 50.7985 16.3359 50.8964 16.2843L55.4791 13.8658L60.0618 16.2843C60.1424 16.3267 60.2253 16.3502 60.3069 16.3571C60.3423 16.36 60.3774 16.36 60.4119 16.3571C60.7616 16.3271 61.056 16.0031 60.9886 15.6085L60.1133 10.4862L63.8208 6.85856C64.1999 6.48769 63.9906 5.84154 63.4668 5.76514L58.3432 5.0178Z" fill="#EEBC3B"/>
<path d="M81.8154 5.0178L79.524 0.357413C79.4064 0.118238 79.1773 -0.000882095 78.9486 6.66578e-05C78.7217 0.000976948 78.4952 0.120097 78.3785 0.357413L76.0872 5.0178L70.9635 5.76514C70.4397 5.84154 70.2305 6.48769 70.6096 6.85856L74.3171 10.4862L73.4419 15.6085C73.3711 16.0227 73.6989 16.3591 74.071 16.3593C74.1693 16.3594 74.2707 16.3359 74.3686 16.2843L78.9513 13.8658L83.5339 16.2843C83.6145 16.3267 83.6974 16.3502 83.7791 16.3571C83.8144 16.36 83.8496 16.36 83.884 16.3571C84.2338 16.3271 84.5282 16.0031 84.4607 15.6085L83.5854 10.4862L87.2929 6.85856C87.672 6.48769 87.4628 5.84154 86.939 5.76514L81.8154 5.0178Z" fill="#EEBC3B"/>
<path d="M101.85 0.357411L99.5589 5.0178L94.4352 5.76514C93.9114 5.84154 93.7022 6.48769 94.0813 6.85856L97.7888 10.4862L96.9136 15.6085C96.8241 16.1321 97.3717 16.5315 97.8402 16.2843L102.423 13.8658L107.006 16.2843C107.474 16.5315 108.022 16.1321 107.932 15.6085L107.057 10.4862L110.765 6.85856C111.144 6.48769 110.934 5.84154 110.411 5.76514L105.287 5.0178L102.996 0.357411C102.761 -0.119056 102.085 -0.119056 101.85 0.357411ZM102.423 12.5005L102.423 2.0896L104.29 5.88744C104.383 6.07664 104.563 6.20777 104.771 6.23812L108.946 6.84713L105.925 9.80333C105.775 9.9506 105.706 10.1628 105.741 10.3707L106.455 14.545L102.72 12.5741C102.627 12.525 102.525 12.5005 102.423 12.5005Z" fill="#EEBC3B"/>
</svg>
