<svg width="21" height="18" viewBox="0 0 21 18" fill="none" xmlns="http://www.w3.org/2000/svg">
<path d="M0.744746 17.9999C0.666356 18.0003 0.588437 17.9878 0.514151 17.9627C0.358798 17.9123 0.224366 17.8121 0.131603 17.6777C0.0388411 17.5433 -0.0070936 17.382 0.000889354 17.2189C0.000889354 17.1073 0.767062 6.30649 11.5976 5.4585V1.57556C11.5975 1.42768 11.6414 1.28311 11.7239 1.16032C11.8063 1.03753 11.9235 0.9421 12.0604 0.886214C12.1973 0.830327 12.3478 0.816523 12.4926 0.846563C12.6374 0.876603 12.7699 0.949124 12.8733 1.05486L20.2152 8.55294C20.3515 8.69199 20.4278 8.87894 20.4278 9.07364C20.4278 9.26835 20.3515 9.45529 20.2152 9.59434L12.8733 17.0924C12.7699 17.1982 12.6374 17.2707 12.4926 17.3007C12.3478 17.3308 12.1973 17.317 12.0604 17.2611C11.9235 17.2052 11.8063 17.1098 11.7239 16.987C11.6414 16.8642 11.5975 16.7196 11.5976 16.5717V12.7632C4.36733 13.0384 1.40306 17.5982 1.37331 17.654C1.3062 17.76 1.21338 17.8473 1.10348 17.9078C0.993587 17.9682 0.870183 17.9999 0.744746 17.9999ZM13.0853 3.39801V6.154C13.0855 6.34686 13.0107 6.53222 12.8767 6.671C12.7428 6.80977 12.5602 6.89111 12.3675 6.89786C5.36038 7.15449 2.85358 11.8222 1.95351 14.8237C3.81316 13.2169 7.12704 11.2531 12.2968 11.2531H12.3303C12.5276 11.2531 12.7168 11.3315 12.8563 11.471C12.9958 11.6105 13.0742 11.7997 13.0742 11.997V14.753L18.6531 9.07736L13.0853 3.39801Z" fill="#818181"/>
</svg>
