<svg width="14" height="14" viewBox="0 0 14 14" fill="none" xmlns="http://www.w3.org/2000/svg">
<path d="M3.50753 0.000219603C1.57452 0.000219603 0 1.57491 0 3.50786V10.4924C0 12.4253 1.5743 14 3.50753 14H10.4922C12.4253 14 14 12.4253 14 10.4924V3.50764C14 1.5747 12.4253 0 10.4922 0L3.50753 0.000219603ZM3.50753 1.17216H10.4922C11.7964 1.17216 12.8282 2.20373 12.8282 3.50786V10.4924C12.8282 11.7965 11.7964 12.8278 10.4922 12.8278H3.50753C2.20336 12.8278 1.17176 11.7965 1.17176 10.4924V3.50764C1.17176 2.20351 2.20336 1.17194 3.50753 1.17194V1.17216ZM7.13772 2.95853C6.98241 2.96075 6.83434 3.02455 6.72605 3.1359C6.61776 3.24726 6.55813 3.39705 6.56026 3.55236V6.37583H3.73714C3.65888 6.37368 3.58097 6.38724 3.50804 6.4157C3.4351 6.44416 3.36861 6.48696 3.31249 6.54155C3.25637 6.59614 3.21177 6.66143 3.18131 6.73356C3.15085 6.80568 3.13516 6.88319 3.13516 6.96148C3.13516 7.03977 3.15085 7.11727 3.18131 7.18939C3.21177 7.26152 3.25637 7.32681 3.31249 7.3814C3.36861 7.43599 3.4351 7.47879 3.50804 7.50725C3.58097 7.53571 3.65888 7.54927 3.73714 7.54712H6.56026V10.3701C6.55874 10.4481 6.57278 10.5255 6.60155 10.5979C6.63032 10.6703 6.67324 10.7363 6.7278 10.7919C6.78237 10.8475 6.84748 10.8917 6.91933 10.9219C6.99118 10.9521 7.06832 10.9676 7.14625 10.9676C7.22417 10.9676 7.30132 10.9521 7.37317 10.9219C7.44502 10.8917 7.51013 10.8475 7.56469 10.7919C7.61926 10.7363 7.66218 10.6703 7.69095 10.5979C7.71972 10.5255 7.73375 10.4481 7.73224 10.3701V7.54712H10.5554C10.6336 7.54927 10.7115 7.53571 10.7845 7.50725C10.8574 7.47879 10.9239 7.43599 10.98 7.3814C11.0361 7.32681 11.0807 7.26152 11.1112 7.18939C11.1416 7.11727 11.1573 7.03977 11.1573 6.96148C11.1573 6.88319 11.1416 6.80568 11.1112 6.73356C11.0807 6.66143 11.0361 6.59614 10.98 6.54155C10.9239 6.48696 10.8574 6.44416 10.7845 6.4157C10.7115 6.38724 10.6336 6.37368 10.5554 6.37583H7.73224V3.55236C7.73331 3.47403 7.71866 3.39627 7.68916 3.3237C7.65965 3.25112 7.61589 3.1852 7.56046 3.12983C7.50503 3.07446 7.43906 3.03078 7.36645 3.00136C7.29384 2.97193 7.21606 2.95737 7.13772 2.95853Z" fill="#642DDA"/>
</svg>
