<svg width="16" height="20" viewBox="0 0 16 20" fill="none" xmlns="http://www.w3.org/2000/svg">
<path d="M15.3399 12.49L14.3399 10.83C14.1299 10.46 13.9399 9.76001 13.9399 9.35001V6.82001C13.9387 5.70404 13.6216 4.61122 13.0252 3.66798C12.4288 2.72474 11.5776 1.96963 10.5699 1.49001C10.3128 1.03335 9.93764 0.65415 9.48379 0.392043C9.02994 0.129935 8.51401 -0.00546043 7.98994 6.65497e-06C6.89994 6.65497e-06 5.91994 0.590007 5.39994 1.52001C3.44994 2.49001 2.09994 4.50001 2.09994 6.82001V9.35001C2.09994 9.76001 1.90994 10.46 1.69994 10.82L0.689943 12.49C0.289943 13.16 0.199943 13.9 0.449943 14.58C0.689943 15.25 1.25994 15.77 1.99994 16.02C3.93994 16.68 5.97994 17 8.01994 17C10.0599 17 12.0999 16.68 14.0399 16.03C14.7399 15.8 15.2799 15.27 15.5399 14.58C15.7999 13.89 15.7299 13.13 15.3399 12.49V12.49ZM10.8299 18.01C10.6196 18.5922 10.2352 19.0954 9.7289 19.4515C9.22258 19.8075 8.61891 19.999 7.99994 20C7.20994 20 6.42994 19.68 5.87994 19.11C5.55994 18.81 5.31994 18.41 5.17994 18C5.30994 18.02 5.43994 18.03 5.57994 18.05C5.80994 18.08 6.04994 18.11 6.28994 18.13C6.85994 18.18 7.43994 18.21 8.01994 18.21C8.58994 18.21 9.15994 18.18 9.71994 18.13C9.92994 18.11 10.1399 18.1 10.3399 18.07L10.8299 18.01V18.01Z" fill="white"/>
<circle cx="13.5" cy="4.5" r="2.25" fill="#CB1717" stroke="#9E56F5" stroke-width="0.5"/>
</svg>
