<svg width="24" height="24" viewBox="0 0 24 24" fill="none" xmlns="http://www.w3.org/2000/svg">
<path d="M9.83849 17.0391H9.54322C7.18107 17.0391 6 16.4486 6 13.4959V10.5432C6 8.18107 7.18107 7 9.54322 7H14.2675C16.6297 7 17.8107 8.18107 17.8107 10.5432V13.4959C17.8107 15.8581 16.6297 17.0391 14.2675 17.0391H13.9722C13.7892 17.0391 13.612 17.1277 13.4998 17.2753L12.614 18.4564C12.2243 18.9761 11.5865 18.9761 11.1967 18.4564L10.3109 17.2753C10.2164 17.1454 9.99794 17.0391 9.83849 17.0391V17.0391Z" stroke="white" stroke-width="0.885805" stroke-miterlimit="10" stroke-linecap="round" stroke-linejoin="round"/>
<path d="M14.2646 12.3149H14.2705M11.9019 12.3149H11.9078M9.53971 12.3149H9.54443" stroke="white" stroke-width="1.18107" stroke-linecap="round" stroke-linejoin="round"/>
<circle cx="11.9999" cy="11.9999" r="11.4999" stroke="white"/>
</svg>
