<svg width="24" height="24" viewBox="0 0 24 24" fill="none" xmlns="http://www.w3.org/2000/svg">
<circle cx="11.9999" cy="11.9999" r="11.4999" stroke="white"/>
<path d="M15.5652 15.5609C15.5226 15.7165 15.4422 15.8665 15.3219 16.0009C15.2015 16.1353 15.0607 16.2548 14.8902 16.3569C14.6022 16.529 14.3092 16.6301 14.0007 16.6618C13.6967 16.6948 13.3841 16.6697 13.0641 16.5821C12.5977 16.4544 12.1277 16.2142 11.6599 15.8584C11.1921 15.5026 10.7444 15.0732 10.3214 14.5716C9.89071 14.0587 9.50018 13.5167 9.15307 12.9503C8.8112 12.3836 8.51414 11.7941 8.26446 11.1871C8.02446 10.5915 7.85763 10.016 7.77192 9.46727C7.68739 8.91424 7.70668 8.41287 7.82978 7.96316C7.91027 7.66912 8.04208 7.40307 8.22284 7.17366C8.40479 6.93993 8.64482 6.74534 8.94635 6.59547C9.31355 6.40316 9.67031 6.35672 10.0087 6.44935C10.1367 6.48439 10.2576 6.54539 10.3577 6.62857C10.4624 6.713 10.5463 6.81962 10.5978 6.95458L11.2715 8.65896C11.3242 8.78959 11.3564 8.90532 11.3715 9.01171C11.3878 9.11378 11.3858 9.21085 11.3633 9.29301C11.3349 9.39679 11.2745 9.4918 11.1833 9.57374C11.0966 9.65692 10.9813 9.73692 10.8432 9.81066L10.4022 10.0571C10.3388 10.0909 10.3006 10.1409 10.2817 10.2101C10.2722 10.2447 10.2685 10.2762 10.2681 10.3133C10.2724 10.3516 10.279 10.3813 10.2811 10.4098C10.3243 10.575 10.4151 10.7997 10.5548 11.0797C10.699 11.3609 10.8557 11.6501 11.0307 11.9444C11.2149 12.2411 11.3947 12.5181 11.5837 12.779C11.7694 13.0344 11.9305 13.2179 12.0647 13.3383C12.0852 13.3532 12.109 13.3737 12.1375 13.3954C12.1705 13.4184 12.2059 13.4328 12.2471 13.444C12.3248 13.4653 12.3913 13.4556 12.4547 13.4218L12.8909 13.1927C13.0348 13.1159 13.1671 13.0637 13.2864 13.0406C13.4082 13.0089 13.5216 13.0074 13.6359 13.0387C13.7228 13.0625 13.8095 13.1048 13.8995 13.1713C13.9894 13.2377 14.0792 13.3227 14.1734 13.4275L15.4086 14.858C15.5062 14.9684 15.5637 15.0817 15.5844 15.2036C15.6005 15.3242 15.5983 15.4398 15.5652 15.5609V15.5609Z" stroke="white" stroke-width="0.7" stroke-miterlimit="10"/>
</svg>
