<svg width="26" height="26" viewBox="0 0 26 26" fill="none" xmlns="http://www.w3.org/2000/svg">
<circle cx="13" cy="13" r="12.5" stroke="#642DDA"/>
<mask id="path-2-outside-1_1_12" maskUnits="userSpaceOnUse" x="6" y="6" width="14" height="14" fill="black">
<rect fill="white" x="6" y="6" width="14" height="14"/>
<path fill-rule="evenodd" clip-rule="evenodd" d="M18.7838 17.3964C18.4134 18.522 16.9623 19.0835 15.9255 18.9899C14.5096 18.8619 12.9688 18.1108 11.7993 17.2836C10.0801 16.0676 8.46978 14.1869 7.53142 12.191C6.86824 10.7806 6.71945 9.04629 7.70581 7.76074C8.0706 7.28556 8.46578 7.03197 9.05776 7.00237C9.88013 6.96237 9.99533 7.43275 10.2777 8.16552C10.4881 8.71351 10.7689 9.27269 10.9257 9.84066C11.2193 10.9006 10.1929 10.9446 10.0633 11.811C9.98333 12.3574 10.6449 13.0901 10.9441 13.4797C11.5208 14.2385 12.2271 14.8893 13.0304 15.4021C13.4864 15.6893 14.2208 16.2068 14.7424 15.9212C15.5455 15.4813 15.4703 14.1269 16.5927 14.5853C17.1743 14.8221 17.7375 15.1637 18.2926 15.4629C19.151 15.9244 19.111 16.4028 18.7838 17.3964C18.539 18.1388 19.0286 16.654 18.7838 17.3964"/>
</mask>
<path d="M15.9255 18.9899L15.8355 19.9859L15.8356 19.9859L15.9255 18.9899ZM11.7993 17.2836L11.2218 18.1L11.2218 18.1L11.7993 17.2836ZM7.53142 12.191L8.43639 11.7655L8.43636 11.7655L7.53142 12.191ZM7.70581 7.76074L6.91259 7.1518L6.91244 7.15201L7.70581 7.76074ZM9.05776 7.00237L9.00918 6.00355L9.00783 6.00361L9.05776 7.00237ZM10.2777 8.16552L11.2113 7.80709L11.2108 7.80593L10.2777 8.16552ZM10.9257 9.84066L9.96175 10.1068L9.96198 10.1076L10.9257 9.84066ZM10.0633 11.811L9.07433 11.6631L9.07388 11.6661L10.0633 11.811ZM10.9441 13.4797L11.7403 12.8746L11.7372 12.8707L10.9441 13.4797ZM13.0304 15.4021L12.4924 16.245L12.4975 16.2482L13.0304 15.4021ZM14.7424 15.9212L15.2226 16.7984L15.2228 16.7983L14.7424 15.9212ZM16.5927 14.5853L16.2146 15.5111L16.2156 15.5115L16.5927 14.5853ZM18.2926 15.4629L17.8182 16.3432L17.819 16.3436L18.2926 15.4629ZM18.7838 17.3964L19.7335 17.7096L19.7336 17.7092L18.7838 17.3964ZM17.8339 17.0838C17.7574 17.3165 17.5414 17.5639 17.1573 17.756C16.7734 17.9479 16.3365 18.023 16.0154 17.994L15.8356 19.9859C16.5513 20.0505 17.3584 19.8915 18.0518 19.5447C18.7451 19.198 19.4399 18.6018 19.7337 17.709L17.8339 17.0838ZM16.0155 17.994C14.8443 17.8881 13.4725 17.2422 12.3767 16.4672L11.2218 18.1C12.4651 18.9794 14.1748 19.8358 15.8355 19.9859L16.0155 17.994ZM12.3767 16.4672C10.7953 15.3486 9.29943 13.6012 8.43639 11.7655L6.62644 12.6164C7.64014 14.7726 9.365 16.7867 11.2218 18.1L12.3767 16.4672ZM8.43636 11.7655C7.85803 10.5355 7.83019 9.24139 8.49919 8.36947L6.91244 7.15201C5.6087 8.8512 5.87845 11.0257 6.62647 12.6165L8.43636 11.7655ZM8.49903 8.36968C8.62871 8.20075 8.7254 8.12172 8.7978 8.07979C8.86254 8.04229 8.95107 8.00895 9.1077 8.00112L9.00783 6.00361C8.57248 6.02538 8.16743 6.13364 7.79538 6.34913C7.43099 6.56019 7.1477 6.84554 6.91259 7.1518L8.49903 8.36968ZM9.10634 8.00119C9.22017 7.99565 9.2346 8.01202 9.19916 7.9985C9.14999 7.97974 9.11109 7.94551 9.09596 7.927C9.0934 7.92387 9.11658 7.95221 9.16576 8.06593C9.21849 8.18787 9.26259 8.31228 9.34461 8.52512L11.2108 7.80593C11.1517 7.65238 11.0755 7.4432 11.0015 7.2721C10.9239 7.09279 10.814 6.86864 10.6445 6.66131C10.4625 6.43861 10.2229 6.24848 9.91206 6.12987C9.6149 6.01651 9.30654 5.98908 9.00918 6.00355L9.10634 8.00119ZM9.34416 8.52396C9.45543 8.81374 9.59516 9.13105 9.69841 9.37944C9.81037 9.64878 9.90035 9.88434 9.96175 10.1068L11.8896 9.57456C11.7942 9.22901 11.6654 8.90099 11.5452 8.61175C11.4163 8.30156 11.3104 8.06529 11.2113 7.80709L9.34416 8.52396ZM9.96198 10.1076C9.9923 10.217 9.9668 10.2089 9.98674 10.1506C9.99952 10.1132 10.0127 10.1195 9.92372 10.2144C9.80861 10.3372 9.19743 10.8401 9.07433 11.6631L11.0523 11.9589C11.0588 11.9155 11.0256 11.9632 11.3827 11.5824C11.5298 11.4256 11.7526 11.168 11.8793 10.7972C12.0132 10.4054 12.0059 9.99427 11.8894 9.57373L9.96198 10.1076ZM9.07388 11.6661C9.02131 12.0252 9.0977 12.3496 9.18596 12.5909C9.27594 12.837 9.40189 13.0605 9.5201 13.2446C9.74276 13.5913 10.0472 13.9537 10.151 14.0888L11.7372 12.8707C11.5418 12.6162 11.3659 12.4175 11.2029 12.1638C11.1283 12.0476 11.0852 11.9612 11.0643 11.904C11.0417 11.8421 11.0653 11.87 11.0528 11.9559L9.07388 11.6661ZM10.148 14.0848C10.796 14.9375 11.5897 15.6688 12.4924 16.245L13.5685 14.5592C12.8645 14.1098 12.2456 13.5395 11.7402 12.8746L10.148 14.0848ZM12.4975 16.2482C12.6822 16.3646 13.0706 16.6272 13.4716 16.7972C13.8482 16.9568 14.5423 17.1709 15.2226 16.7984L14.2621 15.0441C14.298 15.0245 14.3334 15.0134 14.3625 15.0082C14.3901 15.0033 14.4056 15.0048 14.4047 15.0047C14.3965 15.004 14.3484 14.9966 14.252 14.9557C14.0414 14.8665 13.8346 14.7268 13.5634 14.5559L12.4975 16.2482ZM15.2228 16.7983C15.6218 16.5797 15.8752 16.2665 16.0396 16.0244C16.1219 15.9034 16.1929 15.7831 16.2469 15.6911C16.3066 15.5895 16.3446 15.5246 16.3825 15.4671C16.4666 15.3397 16.4517 15.4092 16.334 15.4592C16.1748 15.5268 16.0906 15.4604 16.2146 15.5111L16.9708 13.6595C16.5337 13.481 16.0379 13.412 15.552 13.6184C15.1077 13.8072 14.8509 14.1568 14.7132 14.3656C14.6401 14.4764 14.5721 14.5936 14.5228 14.6776C14.4677 14.7712 14.4265 14.8398 14.3853 14.9005C14.3029 15.0218 14.2645 15.0428 14.2619 15.0442L15.2228 16.7983ZM16.2156 15.5115C16.7307 15.7212 17.2002 16.0101 17.8182 16.3432L18.767 14.5826C18.2747 14.3172 17.6179 13.923 16.9698 13.6591L16.2156 15.5115ZM17.819 16.3436C17.9742 16.4271 18.0243 16.4779 18.0315 16.486C18.0329 16.4875 18.0251 16.4789 18.0161 16.4606C18.0068 16.442 18.0019 16.4248 17.9999 16.414C17.9969 16.398 18.0067 16.4302 17.9833 16.5538C17.9596 16.6788 17.9128 16.8442 17.834 17.0836L19.7336 17.7092C19.8859 17.2468 20.0765 16.6381 19.9658 16.0463C19.8299 15.3202 19.322 14.881 18.7662 14.5821L17.819 16.3436ZM17.8341 17.0832C17.8151 17.1409 17.8309 17.093 17.8133 17.1464C17.7923 17.21 17.8319 17.0899 17.811 17.1535C17.8081 17.162 17.8115 17.1518 17.8087 17.1603C17.8078 17.163 17.8074 17.1643 17.8065 17.167C17.8062 17.168 17.8058 17.1691 17.8054 17.1702C17.8051 17.1713 17.8047 17.1724 17.8044 17.1734C17.804 17.1745 17.8037 17.1755 17.8033 17.1766C17.803 17.1776 17.8027 17.1787 17.8023 17.1797C17.8011 17.1833 17.8015 17.1822 17.8003 17.1858C17.7919 17.2113 17.8048 17.1721 17.7965 17.1974C17.7736 17.2667 17.8051 17.1714 17.7834 17.237C17.7677 17.2846 17.7936 17.206 17.7782 17.2527C17.7757 17.2603 17.7784 17.2523 17.7759 17.2596C17.7737 17.2664 17.776 17.2594 17.7739 17.2659C17.7712 17.274 17.7746 17.2637 17.772 17.2716C17.7699 17.2779 17.7723 17.2706 17.7703 17.2767C17.7693 17.2799 17.7698 17.2781 17.7688 17.2812C17.7663 17.2889 17.77 17.2776 17.7676 17.2851C17.765 17.2929 17.7658 17.2903 17.7642 17.2953C17.7639 17.296 17.7636 17.2972 17.7635 17.2973C17.7635 17.2975 17.7635 17.2975 17.7634 17.2975C18.4 18.5604 19.6629 17.9239 19.6629 17.9238C19.6629 17.9238 19.6629 17.9238 19.6629 17.9238C19.6629 17.9238 19.6629 17.9238 19.6629 17.9237C19.6629 17.9237 19.6629 17.9237 19.6629 17.9236C19.6632 17.9229 19.6637 17.9214 19.6647 17.9183C19.6786 17.8762 19.6967 17.8213 19.7335 17.7096C19.7816 17.5637 19.7772 17.5771 19.8024 17.5008C19.803 17.4989 19.8031 17.4986 19.8035 17.4972C19.8039 17.4962 19.804 17.4959 19.8041 17.4955C19.8045 17.4944 19.8038 17.4963 19.8042 17.4953C19.8042 17.4953 19.8042 17.4953 19.8042 17.4953C19.8042 17.4952 18.5413 18.1318 17.9048 16.8689C17.9048 16.869 17.9048 16.8689 17.9048 16.869C17.9047 16.869 17.9047 16.8691 17.9047 16.8691C17.9047 16.8691 17.9047 16.8692 17.9047 16.8692C17.9045 16.8697 17.9044 16.8701 17.904 16.8712C17.8851 16.9286 17.9172 16.8312 17.8944 16.9005C17.8877 16.9207 17.8831 16.9348 17.8718 16.9691C17.8715 16.97 17.8711 16.9709 17.8708 16.9719C17.8705 16.9729 17.8702 16.9738 17.8699 16.9748C17.8696 16.9758 17.8692 16.9767 17.8689 16.9777C17.8686 16.9787 17.8683 16.9797 17.8679 16.9807C17.8661 16.9864 17.8658 16.9872 17.8638 16.9931C17.8606 17.003 17.8586 17.0091 17.855 17.02C17.8371 17.0742 17.8534 17.0249 17.8341 17.0832L19.7335 17.7096C19.7525 17.6519 19.7367 17.6998 19.7544 17.6463C19.7753 17.5827 19.7357 17.7029 19.7567 17.6393C19.7595 17.6308 19.7561 17.641 19.7589 17.6325C19.7598 17.6298 19.7602 17.6285 19.7611 17.6258C19.7615 17.6247 19.7618 17.6237 19.7622 17.6226C19.7626 17.6215 19.7629 17.6204 19.7633 17.6194C19.7636 17.6183 19.7639 17.6173 19.7643 17.6162C19.7646 17.6152 19.765 17.6141 19.7653 17.6131C19.7665 17.6095 19.7662 17.6106 19.7673 17.607C19.7757 17.5815 19.7628 17.6206 19.7712 17.5954C19.794 17.5261 19.7626 17.6214 19.7842 17.5558C19.7999 17.5082 19.774 17.5868 19.7894 17.5401C19.7919 17.5325 19.7893 17.5405 19.7917 17.5331C19.7939 17.5264 19.7916 17.5334 19.7938 17.5269C19.7964 17.5188 19.793 17.5291 19.7956 17.5212C19.7977 17.5149 19.7953 17.5222 19.7973 17.5161C19.7984 17.5129 19.7978 17.5146 19.7988 17.5116C19.8013 17.5039 19.7976 17.5152 19.8001 17.5077C19.8027 17.4999 19.8018 17.5025 19.8034 17.4975C19.8037 17.4968 19.8041 17.4956 19.8041 17.4955C19.8042 17.4953 19.8042 17.4953 19.8042 17.4952C19.1676 16.2324 17.9048 16.8689 17.9048 16.8689C17.9048 16.869 17.9048 16.869 17.9048 16.869C17.9048 16.869 17.9048 16.869 17.9047 16.869C17.9047 16.8691 17.9047 16.8691 17.9047 16.8691C17.9045 16.8699 17.904 16.8714 17.903 16.8744C17.889 16.9166 17.871 16.9714 17.8341 17.0832C17.786 17.2291 17.7904 17.2157 17.7653 17.292C17.7646 17.2939 17.7645 17.2942 17.7641 17.2955C17.7638 17.2966 17.7637 17.2969 17.7635 17.2973C17.7632 17.2984 17.7638 17.2965 17.7635 17.2975C17.7635 17.2975 17.7635 17.2975 17.7635 17.2975C17.7635 17.2975 19.0263 16.661 19.6629 17.9239C19.6629 17.9238 19.6629 17.9239 19.6629 17.9238C19.6629 17.9238 19.6629 17.9237 19.6629 17.9237C19.6629 17.9237 19.6629 17.9236 19.6629 17.9236C19.6631 17.9231 19.6632 17.9227 19.6636 17.9216C19.6825 17.8642 19.6504 17.9616 19.6733 17.8922C19.6799 17.8721 19.6846 17.858 19.6959 17.8237C19.6962 17.8228 19.6965 17.8218 19.6968 17.8209C19.6971 17.8199 19.6974 17.819 19.6978 17.818C19.6981 17.817 19.6984 17.8161 19.6987 17.8151C19.699 17.8141 19.6994 17.8131 19.6997 17.8121C19.7016 17.8064 19.7018 17.8056 19.7038 17.7997C19.707 17.7898 19.7091 17.7837 19.7127 17.7728C19.7305 17.7186 19.7143 17.7679 19.7335 17.7096L17.8341 17.0832Z" fill="#642DDA" mask="url(#path-2-outside-1_1_12)"/>
</svg>
