<svg width="26" height="26" viewBox="0 0 26 26" fill="none" xmlns="http://www.w3.org/2000/svg">
<circle cx="13" cy="13" r="12.5" stroke="#F31818"/>
<path d="M12.9434 19.4772C12.9436 19.4773 12.9437 19.4775 12.9439 19.4776C12.9513 19.4849 12.9599 19.4906 12.969 19.4943L12.7787 19.9567L12.969 19.4943C12.9784 19.4982 12.9882 19.5001 12.998 19.5L13.0039 19.5L13.0039 19.5C13.0137 19.5001 13.0235 19.4982 13.0328 19.4943L13.2232 19.9567L13.0329 19.4943C13.042 19.4906 13.0506 19.4849 13.058 19.4776C13.0582 19.4775 13.0583 19.4773 13.0585 19.4772L18.3763 14.1173C18.3765 14.1171 18.3766 14.117 18.3767 14.1169C19.0957 13.3887 19.5 12.4023 19.5 11.3732C19.5 10.3444 19.0959 9.35829 18.3772 8.6301C17.714 7.96559 16.8344 7.56734 15.9026 7.50852C14.9704 7.44967 14.0482 7.73447 13.3081 8.31064L12.9997 8.55073L12.6922 8.30941C12.0196 7.78148 11.1913 7.49673 10.3399 7.50003L10.3384 7.50003C9.57996 7.5007 8.83837 7.72788 8.20731 8.15334C7.5762 8.57883 7.08376 9.1837 6.79278 9.892C6.50179 10.6003 6.42552 11.3799 6.57378 12.1321C6.72202 12.8842 7.08793 13.5746 7.62472 14.1164L12.9434 19.4772ZM12.9434 19.4772L7.62494 14.1167L12.9434 19.4772Z" stroke="#F31818"/>
</svg>
