<svg width="26" height="26" viewBox="0 0 26 26" fill="none" xmlns="http://www.w3.org/2000/svg">
<circle cx="13" cy="13" r="12.5" stroke="#642DDA"/>
<path d="M6.54694 18.5L6.54416 18.5C6.54357 18.5 6.54277 18.4999 6.54167 18.4995L6.54168 18.4995L6.53628 18.4977C6.52919 18.4953 6.51996 18.4896 6.51219 18.4779C6.50425 18.4661 6.49925 18.45 6.50009 18.4323L6.50065 18.4205V18.4086C6.50065 18.4096 6.5009 18.4067 6.50147 18.4001C6.51381 18.2562 6.6765 16.359 7.71758 14.3999C8.79133 12.3793 10.7867 10.3065 14.5563 10.0022L15.016 9.96508V9.50382V6.56373V6.5633C15.016 6.54736 15.0207 6.53298 15.0278 6.5221C15.0348 6.51139 15.043 6.50545 15.0498 6.50261C15.0564 6.49985 15.0627 6.49941 15.0686 6.50068C15.0747 6.50198 15.0824 6.50555 15.09 6.5135L15.0902 6.51376L20.4813 12.1912L20.4815 12.1914C20.4917 12.2022 20.5 12.2198 20.5 12.2412C20.5 12.2625 20.4917 12.2801 20.4815 12.2909L20.4813 12.2911L15.0902 17.9686L15.09 17.9688C15.0824 17.9768 15.0747 17.9803 15.0686 17.9816C15.0627 17.9829 15.0564 17.9825 15.0498 17.9797C15.043 17.9769 15.0348 17.9709 15.0278 17.9602C15.0207 17.9493 15.016 17.935 15.016 17.919V17.9186V15.0348V14.5148L14.4964 14.5352C9.16653 14.7444 6.82233 18.0892 6.58284 18.4767L6.58233 18.4764C6.57655 18.4858 6.56964 18.4919 6.56351 18.4953C6.55749 18.4988 6.55185 18.5 6.54694 18.5ZM14.6087 6.24931C14.5482 6.34229 14.5159 6.45175 14.516 6.56373L7.00841 18.7381C7.02956 18.6972 9.06982 15.4606 14.016 15.0646V15.0348H14.516L14.5357 15.5344C14.5291 15.5347 14.5226 15.5349 14.516 15.5352V17.9186C14.5159 18.0306 14.5482 18.14 14.6087 18.233C14.6693 18.326 14.7553 18.3982 14.8558 18.4405C14.9564 18.4829 15.0669 18.4933 15.1732 18.4706C15.2795 18.4478 15.3769 18.3929 15.4528 18.3128L20.8439 12.6354C20.9439 12.5301 21 12.3886 21 12.2412C21 12.0937 20.9439 11.9522 20.8439 11.8469L15.4528 6.16946C15.3769 6.0894 15.2795 6.03449 15.1732 6.01174C15.0669 5.989 14.9564 5.99945 14.8558 6.04177C14.7553 6.08408 14.6693 6.15634 14.6087 6.24931Z" stroke="#642DDA"/>
</svg>
