<svg width="16" height="13" viewBox="0 0 16 13" fill="none" xmlns="http://www.w3.org/2000/svg">
<path d="M10.3784 9.12354L7.87842 6.62354L5.37842 9.12354" stroke="white" stroke-width="1.25" stroke-linecap="round" stroke-linejoin="round"/>
<path d="M7.87842 6.62354V12.2485" stroke="white" stroke-width="1.25" stroke-linecap="round" stroke-linejoin="round"/>
<path d="M13.1221 10.6172C13.7317 10.2849 14.2132 9.75902 14.4908 9.1226C14.7683 8.48619 14.826 7.77548 14.6547 7.10265C14.4835 6.42981 14.093 5.83316 13.545 5.40687C12.997 4.98058 12.3226 4.74892 11.6283 4.74846H10.8408C10.6517 4.01674 10.2991 3.33742 9.80955 2.76158C9.32004 2.18575 8.70636 1.72837 8.01464 1.42384C7.32293 1.11932 6.57118 0.975563 5.81591 1.00339C5.06063 1.03122 4.3215 1.2299 3.65407 1.58451C2.98664 1.93911 2.40828 2.4404 1.96247 3.0507C1.51666 3.661 1.21501 4.36442 1.08019 5.10809C0.945376 5.85175 0.980898 6.61629 1.18409 7.34425C1.38728 8.07221 1.75286 8.74463 2.25333 9.31096" stroke="white" stroke-width="1.25" stroke-linecap="round" stroke-linejoin="round"/>
<path d="M10.3784 9.12354L7.87842 6.62354L5.37842 9.12354" stroke="white" stroke-width="1.25" stroke-linecap="round" stroke-linejoin="round"/>
</svg>
