<svg width="165" height="165" viewBox="0 0 165 165" fill="none" xmlns="http://www.w3.org/2000/svg">
<path d="M3 44L29.1857 8.46667C30.4365 6.76932 32.0585 5.39167 33.9231 4.44283C35.7878 3.49398 37.8439 3 39.9286 3H50" stroke="black" stroke-width="6" stroke-linecap="round" stroke-linejoin="round"/>
<path d="M134 44L107.257 8.46667C105.98 6.76932 104.323 5.39167 102.419 4.44283C100.515 3.49398 98.4148 3 96.2857 3H86" stroke="black" stroke-width="6" stroke-linecap="round" stroke-linejoin="round"/>
<path d="M155.154 93H79.8462C76.0651 93 73 96.0892 73 99.9V155.1C73 158.911 76.0651 162 79.8462 162H155.154C158.935 162 162 158.911 162 155.1V99.9C162 96.0892 158.935 93 155.154 93Z" stroke="black" stroke-width="6" stroke-linecap="round" stroke-linejoin="round"/>
<path d="M86 149H103.5C106.285 149 108.955 147.894 110.925 145.925C112.894 143.955 114 141.285 114 138.5C114 135.715 112.894 133.045 110.925 131.075C108.955 129.106 106.285 128 103.5 128C106.285 128 108.955 126.894 110.925 124.925C112.894 122.955 114 120.285 114 117.5C114 114.715 112.894 112.045 110.925 110.075C108.955 108.106 106.285 107 103.5 107H86" stroke="#11907C" stroke-width="6" stroke-linecap="round" stroke-linejoin="round"/>
<path d="M92 128H103" stroke="#11907C" stroke-width="6" stroke-linecap="round" stroke-linejoin="round"/>
<path d="M127 107C132.57 107 137.911 109.212 141.849 113.151C145.788 117.089 148 122.43 148 128C148 133.57 145.788 138.911 141.849 142.849C137.911 146.788 132.57 149 127 149V107Z" stroke="#11907C" stroke-width="4.5" stroke-linecap="round" stroke-linejoin="round"/>
<path d="M129.077 79L134 44H3L7.94353 79.14C8.48462 82.9869 10.3745 86.5066 13.266 89.0526C16.1575 91.5987 19.8567 93.0003 23.6842 93H37.4737C41.5221 92.9976 45.4734 91.7411 48.7998 89.3983C52.1263 87.0556 54.6694 83.7381 56.0895 79.889L59.1714 71.552C59.8854 69.6319 61.1586 67.9781 62.8214 66.811C64.4842 65.6438 66.4578 65.0186 68.4793 65.0186C70.5008 65.0186 72.4744 65.6438 74.1372 66.811C75.8001 67.9781 77.0732 69.6319 77.7872 71.552L80.5451 79" stroke="black" stroke-width="6" stroke-linecap="round" stroke-linejoin="round"/>
</svg>
