<svg width="158" height="124" viewBox="0 0 158 124" fill="none" xmlns="http://www.w3.org/2000/svg">
<path d="M155.133 118.269H148.06V49.5042C148.065 48.9644 147.892 48.4379 147.568 48.0061L130.893 25.9031C130.662 25.6293 130.375 25.4091 130.05 25.2581C129.726 25.1071 129.372 25.0289 129.014 25.0289C128.656 25.0289 128.303 25.1071 127.978 25.2581C127.654 25.4091 127.366 25.6293 127.135 25.9031L110.46 48.0061C109.478 48.8902 110.165 53.8757 109.969 55.03H100.44V29.4396C100.442 29.1046 100.376 28.7728 100.245 28.4645C100.114 28.1562 99.9211 27.8779 99.6786 27.6468L72.2954 1.04946C71.8457 0.648995 71.2644 0.427734 70.6622 0.427734C70.06 0.427734 69.4788 0.648995 69.0291 1.04946L46.1893 23.1525L35.5307 10.873C35.2943 10.6513 35.0163 10.4785 34.7129 10.3647C34.4094 10.2509 34.0864 10.1983 33.7625 10.2099C33.4265 10.2082 33.0942 10.2799 32.7888 10.4198C32.4834 10.5598 32.2122 10.7648 31.9942 11.0204L10.5543 35.5793C10.1538 36.0334 9.93514 36.6193 9.9403 37.2248V118.269H2.86733C2.21599 118.269 1.59132 118.528 1.13075 118.989C0.670183 119.449 0.411438 120.074 0.411438 120.725C0.411438 121.376 0.670183 122.001 1.13075 122.462C1.59132 122.922 2.21599 123.181 2.86733 123.181H155.133C155.784 123.181 156.409 122.922 156.869 122.462C157.33 122.001 157.589 121.376 157.589 120.725C157.589 120.074 157.33 119.449 156.869 118.989C156.409 118.528 155.784 118.269 155.133 118.269ZM109.969 109.06H100.44V85.7286H109.969V109.06ZM100.44 112.743H109.969V118.269H100.44V112.743ZM109.969 58.7138V82.0448H100.44V58.7138H109.969ZM70.6745 6.20683L95.6755 30.4956V67.6041L74.7513 45.3292C74.2934 44.8866 73.6814 44.6391 73.0445 44.6391C72.4076 44.6391 71.7956 44.8866 71.3376 45.3292L57.5601 60.0646V37.2248C58.0512 35.9231 49.9713 27.9415 49.3819 26.8855L70.6745 6.20683ZM14.7047 118.269V38.158L33.7625 16.3497L52.7956 38.158V65.1728C52.0343 66.3516 45.4279 72.2212 45.649 73.7684V118.269H14.7047ZM55.1778 118.269H50.4134V74.6526L73.0567 50.5848L95.6755 74.6526V118.269H55.1778ZM114.733 118.269V50.3392L129.002 31.4043L143.295 50.3392V118.269H114.733Z" fill="black"/>
<path d="M38.527 84.5005H24.2337C23.7646 84.5259 23.3236 84.7318 23.0031 85.0752C22.6826 85.4186 22.5075 85.8728 22.5145 86.3425V101.078C22.5113 101.316 22.5551 101.553 22.6434 101.775C22.7318 101.997 22.8629 102.199 23.0294 102.37C23.1959 102.541 23.3944 102.678 23.6137 102.772C23.833 102.866 24.0687 102.917 24.3073 102.92H38.6006C39.0783 102.907 39.5318 102.706 39.8627 102.362C40.1937 102.017 40.3755 101.556 40.3689 101.078V86.3425C40.3722 86.0997 40.3268 85.8587 40.2354 85.6337C40.144 85.4087 40.0084 85.2044 39.8367 85.0327C39.665 84.861 39.4607 84.7254 39.2357 84.634C39.0107 84.5426 38.7698 84.4972 38.527 84.5005V84.5005ZM36.7341 99.2359H26.0019V88.1844H36.7341V99.2359Z" fill="#11907C"/>
<path d="M81.456 43.9785H90.9848C91.2235 43.9753 91.4592 43.9251 91.6785 43.8308C91.8977 43.7365 92.0963 43.5999 92.2627 43.4289C92.4292 43.2578 92.5604 43.0557 92.6487 42.8339C92.7371 42.6122 92.7809 42.3752 92.7776 42.1366V32.313C92.7809 32.0743 92.7371 31.8374 92.6487 31.6156C92.5604 31.3939 92.4292 31.1917 92.2627 31.0207C92.0963 30.8496 91.8977 30.7131 91.6785 30.6188C91.4592 30.5245 91.2235 30.4743 90.9848 30.4711H81.456C81.2173 30.4743 80.9816 30.5245 80.7623 30.6188C80.5431 30.7131 80.3445 30.8496 80.178 31.0207C80.0116 31.1917 79.8804 31.3939 79.7921 31.6156C79.7037 31.8374 79.6599 32.0743 79.6632 32.313V42.1366C79.6599 42.3752 79.7037 42.6122 79.7921 42.8339C79.8804 43.0557 80.0116 43.2578 80.178 43.4289C80.3445 43.5999 80.5431 43.7365 80.7623 43.8308C80.9816 43.9251 81.2173 43.9753 81.456 43.9785V43.9785ZM83.2488 34.1549H89.192V40.2946H83.1751L83.2488 34.1549Z" fill="#11907C"/>
<path d="M138.531 59.9418H131.384C130.906 59.9547 130.453 60.1552 130.122 60.5C129.791 60.8447 129.609 61.3059 129.616 61.7838V96.1662C129.609 96.6441 129.791 97.1053 130.122 97.45C130.453 97.7948 130.906 97.9953 131.384 98.0082H138.531C138.776 98.0148 139.019 97.9719 139.247 97.882C139.475 97.7921 139.682 97.6571 139.857 97.485C140.031 97.313 140.169 97.1075 140.262 96.8808C140.355 96.6542 140.401 96.4111 140.397 96.1662V61.7838C140.401 61.5388 140.355 61.2958 140.262 61.0692C140.169 60.8425 140.031 60.637 139.857 60.465C139.682 60.2929 139.475 60.1579 139.247 60.068C139.019 59.9781 138.776 59.9352 138.531 59.9418V59.9418ZM136.763 94.3243H133.177V63.6257H136.763V94.3243Z" fill="#11907C"/>
</svg>
