<svg width="23" height="23" viewBox="0 0 23 23" fill="none" xmlns="http://www.w3.org/2000/svg">
<path d="M0.893961 9.32547C2.0296 11.8406 3.96368 14.5653 6.19995 16.8016C8.58518 19.1868 11.2166 21.0758 13.6096 22.1197C14.9125 22.6883 16.0781 22.9726 17.0593 22.9726C18.0347 22.9726 18.8277 22.691 19.3905 22.1278L21.6477 19.8713C22.3334 19.1849 22.2719 18.0073 21.5104 17.2454L18.1844 13.919C17.4221 13.1575 16.2437 13.0964 15.5585 13.7821L14.5228 14.8178C14.2358 15.0324 12.4619 14.486 10.4664 12.4905C8.46967 10.4942 7.92208 8.71915 8.13793 8.43485L9.17478 7.398C9.86044 6.71195 9.79899 5.53353 9.03749 4.77203L5.7107 1.44601C4.94842 0.684513 3.77078 0.622676 3.08473 1.30911L0.828234 3.56561C-0.298459 4.69191 -0.274735 6.73762 0.893961 9.32547ZM1.92848 4.66547L4.18536 2.40897C4.20092 2.39341 4.23203 2.38408 4.27209 2.38408C4.35999 2.38408 4.49339 2.42803 4.61123 2.54587L7.93724 5.87189C8.10915 6.04379 8.12393 6.24875 8.07453 6.29814L7.03768 7.3346C5.74881 8.62425 7.2333 11.4575 9.36613 13.5903C10.4283 14.6521 11.5962 15.5007 12.6548 15.9787C14.3972 16.7658 15.2617 16.2789 15.6215 15.9184L16.6583 14.8819C16.7081 14.8321 16.9123 14.8473 17.0846 15.0188L20.4102 18.3452C20.5821 18.5171 20.5969 18.7217 20.5475 18.7711L18.2906 21.028C17.6644 21.6545 16.1473 21.5297 14.2319 20.6935C12.0127 19.7255 9.55086 17.9524 7.29981 15.7018C5.1911 13.5931 3.37331 11.0351 2.31156 8.68492C1.45361 6.78584 1.31049 5.28346 1.92848 4.66547Z" fill="white"/>
<path d="M11.6611 0V1.55567C17.0554 1.55567 21.4443 5.94421 21.4443 11.3385H23C23 5.08626 17.9134 0 11.6615 0H11.6611Z" fill="white"/>
<path d="M17.4841 11.3385H19.0398C19.0398 7.27042 15.7301 3.95996 11.6616 3.95996V5.51563C14.8721 5.51563 17.4841 8.12798 17.4841 11.3385Z" fill="white"/>
</svg>
