<svg width="20" height="20" viewBox="0 0 20 20" fill="none" xmlns="http://www.w3.org/2000/svg">
<path fill-rule="evenodd" clip-rule="evenodd" d="M19.6406 17.3273C19.0232 19.2033 16.6045 20.1392 14.8765 19.9832C12.5165 19.7699 9.94848 18.518 7.99913 17.1393C5.13377 15.1127 2.44975 11.9782 0.885736 8.65163C-0.219606 6.30105 -0.467608 3.41049 1.1764 1.2679C1.78441 0.475927 2.44308 0.0532752 3.42976 0.00394359C4.80043 -0.0627207 4.99244 0.721251 5.46311 1.94254C5.81378 2.85584 6.28178 3.78781 6.54311 4.73444C7.03245 6.50105 5.32177 6.57438 5.10577 8.01832C4.97244 8.92896 6.07511 10.1502 6.57378 10.7996C7.53497 12.0641 8.71221 13.1488 10.0511 14.0034C10.8111 14.4821 12.0352 15.3447 12.9045 14.8687C14.2432 14.1354 14.1178 11.8782 15.9885 12.6422C16.9579 13.0368 17.8965 13.6061 18.8219 14.1048C20.2526 14.8741 20.1859 15.6714 19.6406 17.3273C19.2325 18.5646 20.0486 16.09 19.6406 17.3273" fill="#A0A0A0"/>
</svg>
