<svg width="17" height="17" viewBox="0 0 17 17" fill="none" xmlns="http://www.w3.org/2000/svg">
<path d="M8.23389 6.84565C8.23389 7.04398 8.39327 7.19981 8.58805 7.19981C8.99181 7.19981 9.31764 7.52919 9.31764 7.9294C9.31764 8.12418 9.47702 8.28356 9.6718 8.28356C9.86659 8.28356 10.026 8.12418 10.026 7.9294C10.026 7.13607 9.38138 6.49148 8.58805 6.49148C8.39327 6.49148 8.23389 6.65086 8.23389 6.84565ZM13.9997 8.28356C14.1981 8.28356 14.3539 8.12418 14.3539 7.9294C14.3539 4.74899 11.7685 2.16357 8.58805 2.16357C8.39327 2.16357 8.23389 2.32293 8.23389 2.51774C8.23389 2.71253 8.39327 2.87191 8.58805 2.87191C11.3789 2.87191 13.6456 5.14211 13.6456 7.9294C13.6456 8.12418 13.8049 8.28356 13.9997 8.28356Z" fill="#11907C"/>
<path d="M11.4816 7.9298C11.4816 8.12458 11.641 8.28396 11.8358 8.28396C12.0306 8.28396 12.19 8.12458 12.19 7.9298C12.19 5.94293 10.575 4.32793 8.58808 4.32793C8.3933 4.32793 8.23392 4.48731 8.23392 4.68209C8.23392 4.88043 8.3933 5.03626 8.58808 5.03626C10.1854 5.03626 11.4816 6.33605 11.4816 7.9298ZM8.58808 0C8.3933 0 8.23392 0.159379 8.23392 0.354167C8.23392 0.548976 8.3933 0.708333 8.58808 0.708333C12.5725 0.708333 15.8131 3.94897 15.8131 7.9298C15.8131 8.12458 15.9689 8.28396 16.1673 8.28396C16.362 8.28396 16.5214 8.12458 16.5214 7.9298C16.5214 3.55585 12.962 0 8.58808 0ZM12.0483 11.6627L11.5843 11.9142C10.8016 12.3427 9.80996 12.1975 9.17599 11.5635L5.43599 7.82355C4.80204 7.1896 4.65684 6.19792 5.08537 5.41168L5.33684 4.95126C5.62016 4.42708 5.72286 3.83918 5.63787 3.25125C5.55642 2.66334 5.29079 2.12855 4.86579 1.70354C4.34872 1.18647 3.66163 0.903142 2.92851 0.903142C2.19538 0.903142 1.50475 1.18647 0.987658 1.70354L0.807051 1.88771C-0.149203 2.84397 -0.258994 4.49083 0.495383 6.53083C1.20724 8.47875 2.64163 10.5896 4.5258 12.4738C7.39809 15.346 10.5962 17 12.8912 17C13.7979 17 14.5664 16.7415 15.1118 16.1961L15.296 16.0119C15.8095 15.4983 16.0964 14.8113 16.1 14.0711C16.0964 13.3485 15.8025 12.6402 15.296 12.1338C14.4425 11.2802 13.1073 11.089 12.0483 11.6627Z" fill="white"/>
</svg>
