<svg width="24" height="24" viewBox="0 0 24 24" fill="none" xmlns="http://www.w3.org/2000/svg">
<path fill-rule="evenodd" clip-rule="evenodd" d="M12 24C18.6275 24 24 18.6275 24 12C24 5.37258 18.6275 0 12 0C5.37258 0 0 5.37258 0 12C0 18.6275 5.37258 24 12 24ZM17.5606 10.0607C18.1464 9.47487 18.1464 8.52513 17.5606 7.93933C16.9749 7.35356 16.0251 7.35356 15.4394 7.93933L10.5 12.8787L8.56067 10.9393C7.97487 10.3536 7.02513 10.3536 6.43933 10.9393C5.85356 11.5251 5.85356 12.4749 6.43933 13.0606L9.43933 16.0606C10.0251 16.6464 10.9749 16.6464 11.5607 16.0606L17.5606 10.0607Z" fill="#00C18E"/>
</svg>
