<svg width="53" height="53" viewBox="0 0 53 53" fill="none" xmlns="http://www.w3.org/2000/svg">
<path d="M50.75 44.35C52.55 46.15 52.55 48.95 50.75 50.75C49.85 51.65 48.75 52.05 47.55 52.05C46.35 52.05 45.25 51.65 44.35 50.75L26.05 32.45L7.75 50.75C6.85 51.65 5.75 52.05 4.55 52.05C3.35 52.05 2.25 51.65 1.35 50.75C-0.45 48.95 -0.45 46.15 1.35 44.35L19.65 26.05L1.35 7.75C-0.45 5.95 -0.45 3.15 1.35 1.35C3.15 -0.45 5.95 -0.45 7.75 1.35L26.05 19.65L44.35 1.35C46.15 -0.45 48.95 -0.45 50.75 1.35C52.55 3.15 52.55 5.95 50.75 7.75L32.45 26.05L50.75 44.35Z" fill="white"/>
<path d="M33.05 26.05L7.75 50.75C6.85 51.65 5.75 52.05 4.55 52.05C3.35 52.05 2.25 51.65 1.35 50.75C-0.45 48.95 -0.45 46.15 1.35 44.35L19.65 26.05L23.05 22.55C21.25 24.35 24.05 26.05 23.05 22.55C24.85 20.75 25.05 27.05 19.65 26.05L26.05 19.65L44.35 1.35C46.15 -0.45 48.95 -0.45 50.75 1.35C52.55 3.15 52.55 5.95 50.75 7.75L33.05 26.05Z" fill="#11907C"/>
</svg>
