<svg width="93" height="93" viewBox="0 0 93 93" fill="none" xmlns="http://www.w3.org/2000/svg">
<path d="M81.84 93H11.16C5.00712 93 0 87.9929 0 81.84V40.92C0 34.7671 5.00712 29.76 11.16 29.76H81.84C87.9929 29.76 93 34.7671 93 40.92V81.84C93 87.9929 87.9929 93 81.84 93ZM11.16 37.2C9.11028 37.2 7.44 38.8703 7.44 40.92V81.84C7.44 83.8897 9.11028 85.56 11.16 85.56H81.84C83.8897 85.56 85.56 83.8897 85.56 81.84V40.92C85.56 38.8703 83.8897 37.2 81.84 37.2H11.16Z" fill="white"/>
<path d="M18.6 0H74.4C75.3866 0 76.3328 0.391927 77.0304 1.08956C77.7281 1.7872 78.12 2.73339 78.12 3.72C78.12 4.70661 77.7281 5.6528 77.0304 6.35044C76.3328 7.04807 75.3866 7.44 74.4 7.44H18.6C17.6134 7.44 16.6672 7.04807 15.9696 6.35044C15.2719 5.6528 14.88 4.70661 14.88 3.72C14.88 2.73339 15.2719 1.7872 15.9696 1.08956C16.6672 0.391927 17.6134 0 18.6 0Z" fill="#11907C"/>
<path d="M11.16 14.8799H81.84C82.8266 14.8799 83.7728 15.2718 84.4704 15.9694C85.1681 16.6671 85.56 17.6133 85.56 18.5999C85.56 19.5865 85.1681 20.5327 84.4704 21.2303C83.7728 21.928 82.8266 22.3199 81.84 22.3199H11.16C10.1734 22.3199 9.2272 21.928 8.52957 21.2303C7.83193 20.5327 7.44 19.5865 7.44 18.5999C7.44 17.6133 7.83193 16.6671 8.52957 15.9694C9.2272 15.2718 10.1734 14.8799 11.16 14.8799Z" fill="#11907C"/>
</svg>
