<svg width="138" height="115" viewBox="0 0 138 115" fill="none" xmlns="http://www.w3.org/2000/svg">
<path d="M65.1903 113.314V1.65935L98.2087 14.2048V4.16844C98.2087 3.50299 98.4763 2.86477 98.9526 2.39423C99.4289 1.92368 100.075 1.65935 100.749 1.65935H118.528C119.201 1.65935 119.847 1.92368 120.324 2.39423C120.8 2.86477 121.068 3.50299 121.068 4.16844V22.903L131.227 26.7637V113.327L65.1903 113.314ZM65.1903 113.314V21.7455L6.77311 46.8364V113.327L65.1903 113.314ZM136.307 113.314H1.69336" stroke="url(#paint0_linear_246_451)" stroke-width="5" stroke-linecap="round" stroke-linejoin="round"/>
<path d="M20.7422 103.291H51.2207M112.178 38.0546C112.178 37.3891 111.91 36.7509 111.434 36.2804C110.958 35.8098 110.312 35.5455 109.638 35.5455H89.3189C88.6453 35.5455 87.9992 35.8098 87.5229 36.2804C87.0466 36.7509 86.779 37.3891 86.779 38.0546V50.6C86.779 51.2655 87.0466 51.9036 87.5229 52.3742C87.9992 52.8447 88.6453 53.1091 89.3189 53.1091H109.638C110.312 53.1091 110.958 52.8447 111.434 52.3742C111.91 51.9036 112.178 51.2655 112.178 50.6V38.0546ZM112.178 69.4182C112.178 68.7528 111.91 68.1145 111.434 67.644C110.958 67.1734 110.312 66.9091 109.638 66.9091H89.3189C88.6453 66.9091 87.9992 67.1734 87.5229 67.644C87.0466 68.1145 86.779 68.7528 86.779 69.4182V81.9637C86.779 82.6291 87.0466 83.2673 87.5229 83.7378C87.9992 84.2084 88.6453 84.4727 89.3189 84.4727H109.638C110.312 84.4727 110.958 84.2084 111.434 83.7378C111.91 83.2673 112.178 82.6291 112.178 81.9637V69.4182ZM51.2207 113.327V70.6727H20.7422V113.327H51.2207ZM20.7422 83.2182H51.2207H20.7422ZM20.7422 93.2546H51.2207H20.7422Z" stroke="url(#paint1_linear_246_451)" stroke-width="5" stroke-linecap="round" stroke-linejoin="round"/>
<defs>
<linearGradient id="paint0_linear_246_451" x1="1.69336" y1="1.65935" x2="136.307" y2="1.65935" gradientUnits="userSpaceOnUse">
<stop stop-color="#027888"/>
<stop offset="1" stop-color="#1C9C76"/>
</linearGradient>
<linearGradient id="paint1_linear_246_451" x1="20.7422" y1="35.5455" x2="112.178" y2="35.5455" gradientUnits="userSpaceOnUse">
<stop stop-color="#027888"/>
<stop offset="1" stop-color="#1C9C76"/>
</linearGradient>
</defs>
</svg>
