<svg width="156" height="150" viewBox="0 0 156 150" fill="none" xmlns="http://www.w3.org/2000/svg">
<circle cx="66" cy="60" r="60" fill="#4CAB7E" fill-opacity="0.29"/>
<circle cx="60" cy="90" r="60" fill="#AAAFAF" fill-opacity="0.34"/>
<circle cx="96" cy="82" r="60" fill="#3FC6E3" fill-opacity="0.27"/>
<circle cx="75" cy="74" r="60" fill="white"/>
<path fill-rule="evenodd" clip-rule="evenodd" d="M68.0073 43.4027L70.9792 45.7647L69.9788 49.403C69.8094 50.0196 70.0377 50.6605 70.5603 51.0362C70.8324 51.2317 71.1487 51.3299 71.466 51.3297C71.7585 51.3297 72.0517 51.2461 72.3112 51.0783L75.5012 49.0134L78.6915 51.0783C79.2323 51.4282 79.9195 51.4122 80.4432 51.0357C80.9653 50.6601 81.1933 50.0193 81.0238 49.4028L80.0235 45.7647L82.9953 43.4029C83.499 43.003 83.6955 42.3518 83.4963 41.7441C83.2967 41.1359 82.7506 40.7228 82.1048 40.6918L78.2964 40.5082L76.943 36.9837C76.943 36.9837 76.943 36.9837 76.943 36.9835V36.9834C76.7134 36.386 76.1476 36 75.5013 36C74.855 36 74.289 36.386 74.0597 36.9834L72.7063 40.5082L68.8981 40.6918C68.2521 40.7228 67.7058 41.1359 67.5069 41.7429C67.3066 42.3512 67.5034 43.003 68.0073 43.4027ZM73.4075 42.8834C74.02 42.8543 74.5564 42.469 74.7742 41.902L75.5012 40.0085L76.2282 41.9022C76.446 42.4691 76.9824 42.8543 77.5945 42.8834L79.6403 42.9821L78.0437 44.2509C77.5659 44.6305 77.3611 45.2539 77.5218 45.8392L78.0591 47.7936L76.3462 46.685C76.0893 46.5185 75.7949 46.4352 75.5006 46.4352C75.2064 46.4352 74.9126 46.5183 74.6563 46.6844L72.9425 47.7936L73.48 45.8386C73.6406 45.2531 73.4355 44.6299 72.9579 44.2509L71.3615 42.9821L73.4075 42.8834ZM85.1587 46.6554L88.1307 49.0172L87.1304 52.6554C86.961 53.272 87.1893 53.913 87.7118 54.2886C87.9839 54.4841 88.3003 54.5823 88.6176 54.5822C88.91 54.5822 89.2033 54.4986 89.4627 54.3307L92.6529 52.2659L95.8432 54.3307C96.3837 54.6806 97.0704 54.6643 97.5949 54.2882C98.1172 53.9125 98.3451 53.2716 98.1756 52.6554L97.1752 49.0172L100.147 46.6555C100.651 46.2549 100.848 45.6034 100.648 44.9966C100.448 44.3884 99.9023 43.9753 99.2565 43.9443L95.4481 43.7607L94.0947 40.2362C94.0947 40.2362 94.0947 40.2362 94.0947 40.236V40.2359C93.8652 39.6385 93.2994 39.2525 92.6532 39.2525C92.0068 39.2525 91.4409 39.6385 91.2115 40.2359L89.8582 43.7607L86.0499 43.9443C85.404 43.9753 84.8577 44.3884 84.6587 44.9954C84.4586 45.6029 84.6548 46.2543 85.1587 46.6554ZM90.5592 46.1358C91.1717 46.1066 91.7081 45.7213 91.9259 45.1543L92.6527 43.2608L93.3799 45.1545C93.5977 45.7214 94.1341 46.1066 94.7462 46.1358L96.792 46.2344L95.1953 47.5034C94.717 47.8834 94.5124 48.5072 94.6735 49.0915L95.2108 51.046L93.4979 49.9373C93.2412 49.7708 92.9467 49.6875 92.6524 49.6875C92.3583 49.6875 92.0644 49.7707 91.8079 49.9367L90.0942 51.0458L90.6317 49.0912C90.7923 48.5062 90.5875 47.883 90.1096 47.5032L88.5131 46.2344L90.5592 46.1358ZM50.8554 46.6554L53.8273 49.0172L52.8274 52.6544C52.6572 53.2714 52.8852 53.9128 53.4084 54.2888C53.6807 54.4843 53.9972 54.5825 54.3143 54.5825C54.6069 54.5825 54.9002 54.4989 55.1593 54.3309L58.3495 52.2661L61.5398 54.3309C62.0806 54.681 62.7676 54.6646 63.2908 54.2888C63.8136 53.9133 64.0417 53.2722 63.8721 52.6556L62.8718 49.0174L65.8445 46.6551C66.3479 46.2544 66.5441 45.6031 66.3446 44.9967C66.145 44.3885 65.5989 43.9754 64.9531 43.9444L61.1447 43.7608L59.7913 40.2363C59.7913 40.2363 59.7913 40.2363 59.7913 40.2362V40.236C59.5618 39.6387 58.996 39.2526 58.3498 39.2526C57.7028 39.2526 57.1367 39.6391 56.9084 40.236L55.5549 43.7608L51.7465 43.9444C51.1013 43.9754 50.5552 44.3881 50.3549 44.9967C50.1555 45.6041 50.352 46.2552 50.8554 46.6554ZM56.2558 46.1358C56.8689 46.1064 57.4056 45.7207 57.6223 45.1543L58.3495 43.2609L59.0765 45.1545C59.2943 45.7214 59.8307 46.1066 60.4427 46.1358L62.4886 46.2344L60.8911 47.5037C60.414 47.8836 60.2096 48.5066 60.37 49.0914L60.9074 51.0458L59.1945 49.9371C58.9376 49.7707 58.6432 49.6873 58.3489 49.6873C58.0547 49.6873 57.7609 49.7705 57.5046 49.9365L55.791 51.0457L56.3283 49.091C56.4891 48.5056 56.2839 47.8822 55.8062 47.5031L54.2097 46.2343L56.2558 46.1358ZM63.0692 65.2711C63.9821 64.3319 64.5453 63.0578 64.5453 61.6554C64.5453 58.7759 62.176 56.433 59.2637 56.433C56.3514 56.433 53.9821 58.7758 53.9821 61.6554C53.9821 63.0583 54.5455 64.3328 55.459 65.272C53.0909 66.3204 51.2286 68.3326 50.4203 70.9137C50.1293 71.8425 50.2957 72.822 50.8764 73.601C51.4572 74.3801 52.3544 74.8269 53.338 74.8269H63.6007V75.7714C63.6007 78.0005 65.4349 79.814 67.6892 79.814H83.3135C85.5675 79.814 87.4017 78.0005 87.4019 75.7714V74.8274H97.6647C98.6483 74.8274 99.5453 74.3804 100.126 73.6014C100.707 72.8223 100.873 71.8428 100.582 70.914C99.7741 68.3329 97.9117 66.3207 95.5437 65.2723C96.4572 64.333 97.0206 63.0586 97.0206 61.6557C97.0206 58.7762 94.6513 56.4333 91.739 56.4333C88.8267 56.4333 86.4574 58.7761 86.4574 61.6557C86.4574 63.0581 87.0204 64.3321 87.9333 65.2712C86.7915 65.7779 85.7623 66.5135 84.9066 67.4441C83.5939 65.7955 81.85 64.5085 79.8477 63.74C81.257 62.5334 82.1512 60.7536 82.1512 58.7699C82.1512 55.1444 79.1682 52.1945 75.5013 52.1945C71.8345 52.1945 68.8514 55.1442 68.8514 58.7699C68.8514 60.7536 69.7455 62.5334 71.1548 63.74C69.1525 64.5085 67.4088 65.7955 66.0959 67.4441C65.2402 66.5133 64.211 65.7777 63.0692 65.2711ZM59.2637 58.8393C60.8341 58.8393 62.1118 60.1025 62.1118 61.6554C62.1118 63.2084 60.8342 64.4716 59.2637 64.4716C57.6932 64.4716 56.4156 63.2084 56.4156 61.6554C56.4156 60.1025 57.6934 58.8393 59.2637 58.8393ZM52.8353 72.1733C52.7664 72.0808 52.663 71.8868 52.7448 71.6253C53.6344 68.7855 56.2539 66.8777 59.2636 66.8777C61.4517 66.8777 63.4502 67.8845 64.7351 69.5975C64.303 70.4803 63.976 71.4256 63.7748 72.4207H53.338C53.0612 72.4209 52.9042 72.2657 52.8353 72.1733ZM88.8907 61.6557C88.8907 60.103 90.1683 58.8396 91.7388 58.8396C93.3093 58.8396 94.5869 60.1028 94.5869 61.6557C94.5869 63.2087 93.3093 64.4719 91.7388 64.4719C90.1683 64.4719 88.8907 63.2085 88.8907 61.6557ZM91.7388 66.878C94.7486 66.878 97.3682 68.786 98.2575 71.6258C98.3394 71.8871 98.2361 72.0811 98.1672 72.1738C98.0983 72.2661 97.9413 72.4213 97.6644 72.4213H87.2276C87.0264 71.4262 86.6992 70.4807 86.2673 69.5978C87.552 67.885 89.5507 66.878 91.7388 66.878ZM75.5013 54.6007C77.8262 54.6007 79.7177 56.4711 79.7177 58.7699C79.7177 61.0688 77.8262 62.939 75.5013 62.939C73.1764 62.939 71.2849 61.0688 71.2849 58.7699C71.2849 56.4711 73.1764 54.6007 75.5013 54.6007ZM75.5012 65.3451C80.3622 65.3451 84.421 68.9282 84.9682 73.69V75.7714C84.9681 76.6737 84.2257 77.4079 83.3133 77.4079H67.6892C66.7767 77.4079 66.0341 76.6739 66.0341 75.7715V73.69C66.5814 68.9282 70.6401 65.3451 75.5012 65.3451ZM111.249 84.9693C110.552 83.8178 107.691 80.3983 100.156 84.7377L86.9292 92.3549C86.3018 92.7162 85.6642 92.9766 85.0008 93.1387C85.2379 92.7437 85.4251 92.3017 85.5567 91.8161C86.2385 89.299 84.7263 86.6711 82.1137 85.8336C82.0614 85.8171 82.0083 85.8038 81.9544 85.7941C78.1569 85.1169 74.4073 83.7764 71.3944 82.6995C70.3463 82.3249 69.3566 81.971 68.5145 81.7011C65.1114 80.6091 62.0405 81.9584 59.4844 83.4217L49.6818 89.0334L48.6281 87.1924C48.2131 86.4669 47.5349 85.9441 46.7189 85.7207C45.9032 85.4972 45.0494 85.6001 44.316 86.0108L40.6051 88.0875C39.0867 88.9372 38.5504 90.8498 39.4099 92.3513L50.32 111.413C50.9015 112.429 51.9751 113 53.079 113C53.6066 113 54.1412 112.869 54.6322 112.595L58.3433 110.518C59.0768 110.107 59.6055 109.437 59.8315 108.63C60.0576 107.823 59.9536 106.979 59.5382 106.254L58.5819 104.583L60.7725 103.333L77.6954 107.816C78.6561 108.071 79.5992 108.198 80.5219 108.198C82.3617 108.198 84.1205 107.693 85.7758 106.685L109.778 92.0707C111.986 90.7273 112.687 87.3425 111.249 84.9693ZM57.4868 107.988C57.4342 108.175 57.3128 108.33 57.1449 108.424L53.4338 110.501C53.2659 110.595 53.0691 110.618 52.8795 110.566C52.6899 110.514 52.5331 110.394 52.4381 110.228L41.5278 91.1661C41.4328 91.0001 41.4095 90.8055 41.4618 90.6179C41.5144 90.4305 41.636 90.2756 41.8039 90.1815L45.5148 88.1048C45.6241 88.0437 45.7458 88.0124 45.8695 88.0124C45.9361 88.0124 46.003 88.0215 46.0692 88.0397C46.2585 88.0915 46.4153 88.2117 46.5104 88.3777L55.8737 104.737C55.8742 104.737 55.8745 104.738 55.8751 104.739C55.8754 104.74 55.8758 104.74 55.8761 104.741L57.4207 107.439C57.5159 107.605 57.5393 107.8 57.4868 107.988ZM108.503 90.0218L84.5002 104.636C82.6074 105.788 80.5295 106.077 78.3256 105.492L60.9158 100.879C60.6046 100.797 60.2719 100.84 59.9925 101L57.3834 102.489L50.8806 91.1277L60.7039 85.5041C62.9007 84.2464 65.2766 83.192 67.7638 83.9901C68.5674 84.2478 69.4941 84.5789 70.5671 84.9626C73.6432 86.0622 77.4661 87.4286 81.4342 88.1464C82.7928 88.6175 83.5525 89.9149 83.2059 91.1936C82.7501 92.8756 81.3303 93.086 80.2003 92.9578C78.2542 92.5622 76.4042 92.04 74.4466 91.4872C73.5173 91.2247 72.5562 90.9533 71.5682 90.6916C70.9191 90.5197 70.2522 90.9007 70.078 91.5424C69.904 92.1842 70.2894 92.8438 70.9384 93.0159C71.9071 93.2724 72.8583 93.541 73.7781 93.8009C75.7975 94.3712 77.7049 94.9099 79.7596 95.3253C79.7676 95.3269 79.7755 95.3274 79.7832 95.3289C79.7916 95.3304 79.7995 95.3328 79.808 95.3341L81.4526 95.5985C83.9227 95.9897 86.1146 95.6086 88.1535 94.4346L101.38 86.8175C105.164 84.6385 108.073 84.4097 109.161 86.2061C109.91 87.4416 109.578 89.3674 108.503 90.0218ZM46.7178 92.0069C46.8237 92.7228 46.3226 93.3881 45.5986 93.4928C44.8745 93.5974 44.2018 93.1019 44.0959 92.3859C43.9901 91.67 44.4912 91.0047 45.2153 90.9001C45.9391 90.7954 46.612 91.2909 46.7178 92.0069Z" fill="url(#paint0_linear_213_114)"/>
<defs>
<linearGradient id="paint0_linear_213_114" x1="43.4078" y1="104.739" x2="101.694" y2="45.7925" gradientUnits="userSpaceOnUse">
<stop stop-color="#0B7BAF"/>
<stop offset="1" stop-color="#0F8C84"/>
</linearGradient>
</defs>
</svg>
