<svg width="107" height="111" viewBox="0 0 107 111" fill="none" xmlns="http://www.w3.org/2000/svg">
<path d="M83.4143 2.813C83.4143 2.33217 83.2233 1.87102 82.8833 1.53102C82.5433 1.19101 82.0822 1 81.6013 1H25.3982C24.9174 1 24.4562 1.19101 24.1162 1.53102C23.7762 1.87102 23.5852 2.33217 23.5852 2.813V59.0161C23.5852 59.497 23.7762 59.9581 24.1162 60.2981C24.4562 60.6381 24.9174 60.8291 25.3982 60.8291H81.6013C82.0822 60.8291 82.5433 60.6381 82.8833 60.2981C83.2233 59.9581 83.4143 59.497 83.4143 59.0161V2.813ZM46.4744 4.62601H60.5252V14.0554L54.1146 11.8119C53.7186 11.6754 53.2882 11.6754 52.8922 11.8119L46.4744 14.0554V4.62601ZM27.2112 4.62601H42.8484V16.6129C42.8517 16.9036 42.9241 17.1893 43.0596 17.4465C43.1951 17.7037 43.3898 17.925 43.6277 18.0921C43.8656 18.2592 44.1397 18.3673 44.4276 18.4076C44.7155 18.4479 45.0089 18.4191 45.2835 18.3237L53.4961 15.4431L61.707 18.3237C61.9001 18.3915 62.1034 18.426 62.308 18.4259C62.6884 18.426 63.0596 18.3094 63.3716 18.0919C63.6098 17.9252 63.8049 17.704 63.9405 17.4468C64.0761 17.1896 64.1483 16.9037 64.1512 16.6129V4.62601H79.7883V56.9765H27.2112V4.62601Z" fill="white"/>
<path d="M92.0613 62.6567L78.2246 73.0028C76.8289 71.2828 74.9994 69.9664 72.925 69.1895C70.8506 68.4127 68.6065 68.2035 66.4242 68.5836L52.344 71.0473C50.089 71.4387 47.7749 71.3181 45.5729 70.6944L43.9978 70.2461C40.0018 69.0984 35.7857 68.9458 31.7172 69.8017C27.6487 70.6576 23.8514 72.496 20.6565 75.1564L20.0401 71.632C19.9572 71.1584 19.6895 70.7371 19.296 70.4609C18.9025 70.1847 18.4154 70.076 17.9418 70.1589L2.50021 72.8596C2.02663 72.9425 1.6054 73.2102 1.32915 73.6037C1.0529 73.9972 0.944271 74.4843 1.02714 74.9579L6.95386 108.842C7.03681 109.316 7.30447 109.737 7.69797 110.013C8.09147 110.29 8.57859 110.398 9.05218 110.315L24.4931 107.614C24.9666 107.531 25.3878 107.264 25.6641 106.87C25.9403 106.477 26.049 105.99 25.9661 105.516L25.6568 103.747L29.2937 100.793C30.7202 99.6061 32.5524 99.0198 34.4032 99.1586L59.5831 100.999C59.6234 101.002 59.664 101.004 59.7043 101.004C59.7558 101.004 59.8068 101.004 59.8582 101.004C65.3981 100.992 70.7919 99.2266 75.266 95.9598C75.3352 95.909 75.4007 95.8534 75.4621 95.7934L105.455 66.4266C105.785 66.1033 105.98 65.6662 105.999 65.2044C106.017 64.7427 105.859 64.2912 105.556 63.9423C103.903 62.0344 101.579 60.8364 99.066 60.597C96.5532 60.3576 94.0446 61.0952 92.0613 62.6567ZM10.2143 106.432L4.91128 76.1189L16.7806 74.0428L22.0836 104.355L10.2143 106.432ZM73.0206 93.0798C69.1857 95.8358 64.5819 97.3175 59.8594 97.3157H59.7862L34.6672 95.511C31.8866 95.3066 29.1352 96.19 26.9934 97.9751L24.9411 99.6494L21.3956 79.3844C24.1577 76.5885 27.6219 74.5881 31.4242 73.5934C35.2264 72.5988 39.2264 72.6465 43.0039 73.7316L44.5787 74.181C47.3068 74.9538 50.1737 75.1034 52.9674 74.6187L67.0488 72.1557C69.0416 71.81 71.0926 72.1587 72.8591 73.1437C74.6256 74.1286 76.0005 75.6899 76.7541 77.5668L55.5786 81.2706C55.3441 81.3116 55.1199 81.3984 54.919 81.5261C54.718 81.6537 54.5441 81.8197 54.4073 82.0146C54.2705 82.2094 54.1734 82.4293 54.1215 82.6617C54.0697 82.894 54.0641 83.1344 54.1051 83.3689C54.1461 83.6034 54.233 83.8276 54.3606 84.0286C54.4883 84.2295 54.6542 84.4034 54.8491 84.5402C55.0439 84.6771 55.2638 84.7742 55.4962 84.826C55.7286 84.8779 55.9689 84.8834 56.2034 84.8424L79.3501 80.7947C79.8236 80.7117 80.2449 80.444 80.5211 80.0505C80.7974 79.657 80.906 79.1699 80.8231 78.6963C80.6694 77.8201 80.4221 76.9629 80.0855 76.1395L94.2496 65.5477C94.2622 65.5382 94.2747 65.5287 94.2869 65.519C95.3058 64.7091 96.5537 64.2404 97.8538 64.1794C99.1538 64.1184 100.44 64.4681 101.53 65.179L73.0206 93.0798Z" fill="white" stroke="white" stroke-width="0.5"/>
<path d="M52.8097 11.5759L46.7244 13.7032V4.87601H60.2752V13.7031L54.1972 11.5759L54.196 11.5755C53.7472 11.4209 53.2596 11.4209 52.8108 11.5755L52.8097 11.5759ZM64.4012 16.6129V4.87601H79.5383V56.7265H27.4612V4.87601H42.5984L42.5984 16.6129L42.5984 16.6158C42.6022 16.9461 42.6845 17.2708 42.8384 17.563C42.9924 17.8553 43.2137 18.1067 43.484 18.2966C43.7543 18.4865 44.0659 18.6094 44.393 18.6552C44.7202 18.701 45.0535 18.6683 45.3655 18.5599L45.3662 18.5596L53.4961 15.708L61.6243 18.5596L61.707 18.3237C61.9001 18.3915 62.1034 18.426 62.308 18.4259L62.308 18.6759C62.308 18.6759 62.3081 18.6759 62.3082 18.6759C62.7396 18.676 63.1607 18.5437 63.5146 18.2969L63.5149 18.2967C63.7858 18.1072 64.0075 17.8558 64.1616 17.5634C64.3158 17.2709 64.3979 16.9459 64.4012 16.6154V16.6129ZM83.6643 2.813C83.6643 2.26586 83.447 1.74113 83.0601 1.35424C82.6732 0.967351 82.1485 0.75 81.6013 0.75H25.3982C24.8511 0.75 24.3263 0.967352 23.9394 1.35424C23.5526 1.74113 23.3352 2.26586 23.3352 2.813V59.0161C23.3352 59.5633 23.5526 60.088 23.9394 60.4749C24.3263 60.8618 24.8511 61.0791 25.3982 61.0791H81.6013C82.1485 61.0791 82.6732 60.8618 83.0601 60.4749C83.447 60.088 83.6643 59.5633 83.6643 59.0161V2.813Z" fill="white" stroke="white" stroke-width="0.5"/>
<path d="M40.0538 32.0469H57.6724C58.1532 32.0469 58.6144 31.8559 58.9544 31.5159C59.2944 31.1759 59.4854 30.7147 59.4854 30.2339C59.4854 29.7531 59.2944 29.2919 58.9544 28.9519C58.6144 28.6119 58.1532 28.4209 57.6724 28.4209H40.0538C39.573 28.4209 39.1119 28.6119 38.7719 28.9519C38.4319 29.2919 38.2408 29.7531 38.2408 30.2339C38.2408 30.7147 38.4319 31.1759 38.7719 31.5159C39.1119 31.8559 39.573 32.0469 40.0538 32.0469Z" fill="#11907C"/>
<path d="M66.9457 37.7129H40.0538C39.573 37.7129 39.1119 37.9039 38.7719 38.2439C38.4319 38.5839 38.2408 39.0451 38.2408 39.5259C38.2408 40.0067 38.4319 40.4679 38.7719 40.8079C39.1119 41.1479 39.573 41.3389 40.0538 41.3389H66.9457C67.4265 41.3389 67.8877 41.1479 68.2277 40.8079C68.5677 40.4679 68.7587 40.0067 68.7587 39.5259C68.7587 39.0451 68.5677 38.5839 68.2277 38.2439C67.8877 37.9039 67.4265 37.7129 66.9457 37.7129Z" fill="#11907C"/>
</svg>
