<svg width="96" height="86" viewBox="0 0 96 86" fill="none" xmlns="http://www.w3.org/2000/svg">
<path d="M6.54672 85.4695C5.57712 85.4531 4.62415 85.2148 3.76088 84.7731C2.63944 84.2607 1.68879 83.4369 1.02206 82.3998C0.355328 81.3626 0.000571789 80.1558 0 78.9228V36.2159C0 26.6108 3.81559 17.3992 10.6074 10.6074C17.3992 3.81559 26.6108 0 36.2159 0H59.7841C69.3892 0 78.6008 3.81559 85.3926 10.6074C92.1844 17.3992 96 26.6108 96 36.2159C96 45.821 92.1844 55.0326 85.3926 61.8244C78.6008 68.6162 69.3892 72.4318 59.7841 72.4318H25.5461L10.4469 84.1045C9.32733 84.9668 7.9597 85.4455 6.54672 85.4695ZM36.2716 6.90888C28.5012 6.91626 21.0511 10.0063 15.5566 15.5009C10.062 20.9954 6.97197 28.4455 6.9646 36.2159V78.0035L22.231 66.3865C22.828 65.8646 23.584 65.5603 24.3761 65.5229H59.8398C67.2857 65.0631 74.2759 61.7812 79.3858 56.346C84.4957 50.9109 87.3406 43.7316 87.3406 36.2716C87.3406 28.8116 84.4957 21.6324 79.3858 16.1972C74.2759 10.762 67.2857 7.4801 59.8398 7.02031L36.2716 6.90888Z" fill="white"/>
<path d="M66.3587 31.4526H29.7527C28.8292 31.4526 27.9434 31.0857 27.2904 30.4327C26.6373 29.7796 26.2704 28.8939 26.2704 27.9703C26.2704 27.0468 26.6373 26.161 27.2904 25.508C27.9434 24.8549 28.8292 24.488 29.7527 24.488H66.3587C67.2822 24.488 68.168 24.8549 68.821 25.508C69.4741 26.161 69.841 27.0468 69.841 27.9703C69.841 28.8939 69.4741 29.7796 68.821 30.4327C68.168 31.0857 67.2822 31.4526 66.3587 31.4526ZM49.8108 48.502H29.7527C28.8292 48.502 27.9434 48.1351 27.2904 47.482C26.6373 46.829 26.2704 45.9432 26.2704 45.0197C26.2704 44.0961 26.6373 43.2104 27.2904 42.5573C27.9434 41.9043 28.8292 41.5374 29.7527 41.5374H49.8108C50.7343 41.5374 51.6201 41.9043 52.2731 42.5573C52.9262 43.2104 53.2931 44.0961 53.2931 45.0197C53.2931 45.9432 52.9262 46.829 52.2731 47.482C51.6201 48.1351 50.7343 48.502 49.8108 48.502Z" fill="#11907C"/>
</svg>
