<svg width="137" height="119" viewBox="0 0 137 119" fill="none" xmlns="http://www.w3.org/2000/svg">
<path d="M16.9228 51.0485V116M117.06 49.4635V116M129.577 116H4.40564M9.95397 56.0193L3 46.2526L68.3673 3L133.749 46.2526L126.795 56.0193L68.3673 15.5423L9.95397 56.0193Z" stroke="url(#paint0_linear_252_496)" stroke-width="5" stroke-linecap="round" stroke-linejoin="round"/>
<path d="M61.1028 73.978C62.411 76.9602 64.1806 79.719 66.347 82.1533L66.5127 82.3414C66.7418 82.6149 66.9869 82.8747 67.2468 83.1193C67.6604 83.4962 68.2004 83.7051 68.7606 83.7049C69.1248 83.7052 69.4835 83.6156 69.8046 83.4442C70.2445 83.2077 70.5672 82.8315 70.8272 82.5281L70.9857 82.3371C71.2713 82.0265 71.5413 81.7074 71.8083 81.3868C72.8604 80.1225 73.8125 78.7788 74.6561 77.3675C76.2901 74.6257 77.491 71.6491 78.2165 68.5425C79.3214 63.8576 79.3293 58.9818 78.2395 54.2934C77.1497 49.6051 74.9915 45.2303 71.9326 41.5088C71.437 40.9047 70.9029 40.302 70.3459 39.7193L70.3187 39.6922C69.9791 39.3603 69.5427 39.1445 69.0723 39.0756C68.602 39.0068 68.1218 39.0884 67.7009 39.3089C67.2639 39.5397 66.9454 39.9102 66.6898 40.2079L66.5312 40.3903C65.98 41.0001 65.4401 41.6512 64.8789 42.385C63.8987 43.6592 63.0205 45.0084 62.2525 46.42C59.2093 52.0197 57.948 58.4113 58.6363 64.744C58.9865 67.9286 59.818 71.0419 61.1028 73.978V73.978ZM63.4464 51.173C63.5078 51.0134 63.5707 50.8553 63.6335 50.6971L63.7306 50.4621L63.7592 50.3937L63.8049 50.2868C64.3854 48.9454 65.0672 47.6499 65.8443 46.4114C66.2328 45.7916 66.6498 45.1776 67.0868 44.5863C67.1911 44.4438 67.2967 44.3013 67.4024 44.166L67.4938 44.0477L67.6952 43.7941C67.928 43.5092 68.1708 43.2142 68.4093 42.9392C68.5221 42.8096 68.6378 42.6785 68.7535 42.5503C69.0591 42.8884 69.3524 43.2294 69.6332 43.5733C69.7522 43.7167 69.8693 43.862 69.9846 44.0093L70.0374 44.0776L70.0731 44.1218L70.1045 44.1617C70.1602 44.2344 70.2159 44.3042 70.2702 44.3811C70.4901 44.6732 70.7086 44.9752 70.92 45.2802C71.7576 46.4874 72.5014 47.7568 73.1451 49.0772C73.3008 49.3978 73.455 49.7283 73.5992 50.0574C73.6307 50.1272 73.6607 50.1999 73.6906 50.2654L73.7535 50.4079C73.8263 50.5832 73.8963 50.7584 73.9677 50.9351C74.2291 51.5976 74.469 52.2786 74.6818 52.9583C75.1041 54.3168 75.4258 55.7045 75.6444 57.1101C75.6672 57.2611 75.6886 57.4121 75.7086 57.5503L75.7358 57.7583C75.7472 57.8509 75.7586 57.9436 75.7686 58.0362C75.81 58.3852 75.8443 58.7414 75.8714 59.0919C75.9286 59.8043 75.9586 60.5267 75.9614 61.2405C75.9643 61.9543 75.9429 62.6581 75.8943 63.3606C75.87 63.7153 75.84 64.0729 75.8029 64.4192C75.7843 64.5944 75.7643 64.7711 75.7429 64.9463L75.6858 65.3738C75.4814 66.7807 75.1735 68.1708 74.7646 69.5327C74.559 70.2166 74.3262 70.899 74.072 71.563C74.0106 71.7211 73.9491 71.8793 73.8849 72.036L73.7778 72.2996L73.7421 72.3837L73.7306 72.4093L73.7149 72.4478C73.5721 72.7769 73.4293 73.1074 73.2693 73.4337C72.644 74.7497 71.9197 76.0166 71.1028 77.2236C70.8929 77.5328 70.6744 77.8448 70.4473 78.1511L70.3316 78.3064V56.6185C70.3316 56.5102 70.3316 56.4034 70.3316 56.2951C70.3316 56.0686 70.3316 55.842 70.3316 55.6098V55.5898C70.3295 55.38 70.2851 55.1728 70.2012 54.9805C70.1173 54.7881 69.9956 54.6145 69.8432 54.47C69.6997 54.3276 69.5284 54.2163 69.34 54.1427C69.1515 54.0692 68.95 54.0351 68.7478 54.0425C68.3461 54.0558 67.9651 54.2234 67.6845 54.5105C67.404 54.7976 67.2456 55.1818 67.2425 55.5827V78.3791L67.2211 78.352C66.3408 77.1786 65.5512 75.9403 64.8589 74.6476C64.5204 74.0122 64.2005 73.3568 63.9106 72.6985C63.872 72.613 63.8349 72.5261 63.7963 72.4364L63.7563 72.3438C63.6835 72.1685 63.6135 71.9933 63.5421 71.8152C63.4107 71.4846 63.285 71.1455 63.1665 70.8093C62.6893 69.4575 62.3136 68.0721 62.0425 66.6646C61.9754 66.3184 61.914 65.965 61.8611 65.616C61.8469 65.5319 61.8354 65.4493 61.824 65.3681L61.7969 65.1786C61.774 65.0062 61.7526 64.8352 61.7326 64.6628C61.6526 63.9632 61.5984 63.2508 61.5698 62.547C61.5145 61.1325 61.5622 59.7159 61.7126 58.3083V58.3083C61.7298 58.1416 61.7497 57.9763 61.7697 57.8096C61.7812 57.7256 61.7912 57.6429 61.8012 57.5717L61.8269 57.3822C61.8783 57.0345 61.9354 56.6812 61.9997 56.3321C62.1268 55.6368 62.2853 54.9373 62.4595 54.252C62.6338 53.5666 62.8466 52.8742 63.0751 52.2031C63.1879 51.8655 63.315 51.5164 63.4464 51.173V51.173Z" fill="url(#paint1_linear_252_496)" stroke="url(#paint2_linear_252_496)"/>
<path d="M103.753 68.9443C103.5 68.7605 103.197 68.6563 102.885 68.6451H102.622C102.402 68.6451 102.169 68.6451 101.908 68.6451C101.552 68.6451 101.176 68.6636 100.791 68.6821C100.307 68.7049 99.8097 68.7391 99.3142 68.7819C98.7286 68.8317 98.1302 68.8944 97.539 68.9699C96.7578 69.0682 96.0394 69.1751 95.3467 69.2962C94.5955 69.4259 93.8414 69.5812 93.1088 69.7436C92.2976 69.9288 91.4907 70.1368 90.7109 70.3648C89.854 70.6127 89.0142 70.8877 88.2016 71.184C87.2904 71.5174 86.3736 71.8964 85.4795 72.2968C84.5855 72.6971 83.7215 73.1374 82.8945 73.6004C82.0134 74.0948 81.1565 74.6291 80.3467 75.1905C79.4557 75.8104 78.5976 76.4762 77.776 77.1852C76.9599 77.8872 76.185 78.6355 75.4552 79.4264C74.6619 80.2888 73.9212 81.198 73.2373 82.1491C72.5462 83.1063 71.9156 84.1056 71.3492 85.1411C70.7247 86.2932 70.1724 87.4828 69.6954 88.7031C69.317 89.6648 68.9813 90.6693 68.6814 91.6951C68.4758 90.8958 68.253 90.1164 68.0016 89.3642C67.5643 88.0363 67.0459 86.7363 66.4492 85.4717C65.9248 84.3557 65.3275 83.2753 64.6611 82.2374C64.0131 81.2331 63.2974 80.2739 62.5189 79.3665C61.8241 78.5497 61.0745 77.7809 60.2752 77.0655C59.4794 76.3594 58.6388 75.705 57.7588 75.1064C56.9518 74.5593 56.1124 74.0611 55.2452 73.6147C54.3706 73.1663 53.4719 72.7662 52.5531 72.4165C51.7277 72.0987 50.8651 71.8166 49.9824 71.5758C49.1698 71.3522 48.3258 71.1598 47.4746 71.0059C46.6491 70.8535 45.7794 70.7281 44.8896 70.6326C44.1441 70.5529 43.3786 70.4902 42.6145 70.4645C41.9247 70.436 41.2221 70.4275 40.5251 70.4389C39.9039 70.4488 39.2755 70.4745 38.6585 70.5158C38.1287 70.5514 37.5974 70.5984 37.0775 70.6583C36.6005 70.711 36.1178 70.7751 35.6422 70.8464C35.3223 70.8948 35.031 70.9432 34.7525 70.9888L34.6954 70.9988C34.5525 71.0259 34.4097 71.0515 34.2669 71.0871L34.2155 71.0985C33.9089 71.1715 33.6337 71.3402 33.43 71.5801C33.2827 71.7484 33.1736 71.9463 33.11 72.1605C33.0464 72.3747 33.0299 72.6 33.0615 72.8211C33.3237 76.392 34.1254 79.9029 35.4394 83.2348C36.7558 86.5437 38.5558 89.64 40.7808 92.4232C43.9569 96.4036 47.9534 99.6566 52.4995 101.962C57.0456 104.267 62.0352 105.571 67.1304 105.785V114.125C67.1324 114.335 67.1765 114.542 67.2602 114.735C67.3438 114.927 67.4653 115.101 67.6174 115.245C67.8923 115.516 68.2622 115.67 68.6486 115.673H68.7129C69.1145 115.659 69.4955 115.491 69.7762 115.204C70.0569 114.917 70.2157 114.533 70.2196 114.132V105.785C75.3169 105.567 80.308 104.26 84.8562 101.954C89.4045 99.6481 93.404 96.3955 96.5849 92.416C98.7791 89.6661 100.559 86.6115 101.869 83.3488C103.206 79.9995 104.021 76.4661 104.287 72.871C104.354 71.999 104.388 71.0957 104.39 70.1867C104.395 69.9433 104.339 69.7025 104.228 69.4857C104.117 69.269 103.953 69.083 103.753 68.9443V68.9443ZM99.794 80.0091C98.8219 83.0754 97.3982 85.9805 95.5695 88.629C93.7596 91.2495 91.5774 93.5935 89.0914 95.5876C86.6176 97.58 83.8606 99.1944 80.9108 100.378C78.2552 101.447 75.4702 102.162 72.6275 102.506L92.9074 82.3628L93.2202 82.0522C93.433 81.8442 93.6486 81.6348 93.8586 81.4182L93.8857 81.3911C94.0336 81.241 94.1496 81.0627 94.2269 80.8669C94.3042 80.671 94.3412 80.4617 94.3356 80.2513C94.334 80.0498 94.291 79.8507 94.2092 79.6664C94.1274 79.4821 94.0085 79.3165 93.86 79.1799C93.5677 78.9101 93.1843 78.76 92.786 78.7596C92.5855 78.7589 92.3867 78.7977 92.2012 78.8737C92.0157 78.9497 91.847 79.0615 91.7049 79.2027L70.3195 100.443C70.3414 100.101 70.3671 99.7636 70.3967 99.4302C70.4295 99.0484 70.4681 98.6665 70.5109 98.2904C70.5323 98.108 70.5538 97.9271 70.578 97.7433L70.6309 97.3486C70.7337 96.6362 70.8551 95.9238 70.9936 95.2357C71.2543 93.935 71.5904 92.6505 72.0005 91.3888C72.1961 90.7946 72.4075 90.2062 72.6317 89.6406C72.6889 89.4981 72.7474 89.3556 72.8074 89.2131L72.9259 88.9282C73.0416 88.6589 73.1659 88.3853 73.2944 88.1146C73.7789 87.0842 74.3275 86.0849 74.9368 85.1226C75.2224 84.6667 75.5338 84.215 75.848 83.7805C75.9294 83.6693 76.0108 83.5582 76.0922 83.4499L76.3578 83.1023L76.5006 82.9313C76.5806 82.8316 76.662 82.7304 76.7449 82.6307C77.397 81.8405 78.0952 81.0893 78.8357 80.381C79.1927 80.0404 79.5626 79.7042 79.9382 79.3836C80.1268 79.2226 80.3181 79.063 80.5095 78.9092L80.7951 78.684L80.9494 78.5644L80.9737 78.5444C81.722 77.9745 82.5161 77.4274 83.3358 76.9216C84.1085 76.4443 84.9254 75.9898 85.7637 75.5709C86.1622 75.3729 86.5721 75.1777 86.982 75.001C87.1857 74.906 87.3904 74.8163 87.5961 74.7317L87.7575 74.6648L88.0702 74.5365C88.85 74.2231 89.6626 73.9281 90.4867 73.6631C91.2479 73.4167 92.0348 73.1901 92.8274 72.9878C93.5501 72.8026 94.2942 72.6345 95.0411 72.4863C95.7152 72.3538 96.4007 72.2355 97.0819 72.1344L97.4947 72.0759L97.8517 72.0289C98.1374 71.9933 98.4401 71.9591 98.7329 71.9292C99.2528 71.875 99.7726 71.8309 100.275 71.7981C100.617 71.7753 100.955 71.7582 101.275 71.7468C101.143 74.5532 100.647 77.3308 99.8012 80.0105L99.794 80.0091ZM44.6939 92.2622C40.2362 87.4522 37.3407 81.4098 36.3877 74.9283C36.3363 74.5821 36.2906 74.2288 36.2449 73.8598H36.262L36.5277 73.8213L36.602 73.8113L36.6577 73.8028C37.0932 73.7472 37.5431 73.6973 37.993 73.6603C38.5314 73.6118 39.0813 73.5762 39.6297 73.5534C40.2523 73.5264 40.885 73.5164 41.5077 73.5235C42.2032 73.5321 42.9002 73.5606 43.58 73.609C43.9499 73.6361 44.3169 73.6688 44.6725 73.7073C44.8625 73.7273 45.0524 73.7486 45.2438 73.7729L45.6365 73.8256C46.4249 73.9395 47.2075 74.0835 47.9673 74.253C48.7756 74.4354 49.574 74.6548 50.3409 74.9055C50.7422 75.0352 51.1421 75.1777 51.532 75.333C51.732 75.4099 51.9305 75.4883 52.1247 75.5681L52.2775 75.6322L52.5803 75.7647C53.3844 76.123 54.1674 76.5269 54.9253 76.9743C55.3181 77.2066 55.7037 77.4502 56.0679 77.701C56.2592 77.8306 56.4492 77.9645 56.632 78.097C56.7248 78.164 56.8162 78.231 56.9062 78.2994L57.0704 78.4233C57.8253 79.0147 58.5409 79.6544 59.2127 80.3382C59.5626 80.6944 59.9039 81.0677 60.2295 81.4481C60.3966 81.6419 60.5623 81.8414 60.7223 82.0422L60.8394 82.1847L60.8751 82.2303C60.955 82.3343 61.0336 82.4383 61.1121 82.5438C61.7751 83.4307 62.3772 84.3613 62.9145 85.3292C63.2001 85.835 63.4643 86.365 63.7185 86.8965C63.8457 87.1686 63.9728 87.4493 64.0942 87.7299L64.2241 88.0405C64.2827 88.183 64.3412 88.3255 64.3984 88.468C64.8875 89.7178 65.3029 90.9952 65.6423 92.2935C66.0218 93.7459 66.3235 95.2174 66.5463 96.7018C66.5777 96.9041 66.6063 97.105 66.6349 97.3087L66.6949 97.7632C66.7463 98.1693 66.7934 98.5867 66.8377 99.0013C66.8819 99.416 66.9219 99.8819 66.9562 100.331L46.7948 80.1316L46.4906 79.8253C46.2792 79.6116 46.0621 79.3979 45.8565 79.1913L45.8208 79.1557C45.6723 79.0073 45.495 78.8909 45.2997 78.8135C45.1045 78.7361 44.8954 78.6993 44.6854 78.7054C44.4832 78.7071 44.2834 78.7501 44.0985 78.8317C43.9136 78.9133 43.7473 79.0318 43.61 79.1799C43.3351 79.4724 43.1842 79.8595 43.1887 80.2604C43.1932 80.6614 43.3529 81.045 43.6342 81.3313L64.7597 102.503C63.5737 102.364 62.3965 102.158 61.2335 101.887C58.0483 101.143 54.9938 99.9247 52.1733 98.2719V98.2719C49.3983 96.6436 46.8783 94.6172 44.6939 92.2579V92.2622Z" fill="url(#paint3_linear_252_496)" stroke="url(#paint4_linear_252_496)"/>
<defs>
<linearGradient id="paint0_linear_252_496" x1="3" y1="3" x2="133.749" y2="3" gradientUnits="userSpaceOnUse">
<stop stop-color="#027888"/>
<stop offset="1" stop-color="#1C9C76"/>
</linearGradient>
<linearGradient id="paint1_linear_252_496" x1="58.4531" y1="39.0518" x2="79.0511" y2="39.0518" gradientUnits="userSpaceOnUse">
<stop stop-color="#027888"/>
<stop offset="1" stop-color="#1C9C76"/>
</linearGradient>
<linearGradient id="paint2_linear_252_496" x1="58.4531" y1="39.0518" x2="79.0511" y2="39.0518" gradientUnits="userSpaceOnUse">
<stop stop-color="#027888"/>
<stop offset="1" stop-color="#1C9C76"/>
</linearGradient>
<linearGradient id="paint3_linear_252_496" x1="33.0459" y1="68.6451" x2="104.39" y2="68.6451" gradientUnits="userSpaceOnUse">
<stop stop-color="#027888"/>
<stop offset="1" stop-color="#1C9C76"/>
</linearGradient>
<linearGradient id="paint4_linear_252_496" x1="33.0459" y1="68.6451" x2="104.39" y2="68.6451" gradientUnits="userSpaceOnUse">
<stop stop-color="#027888"/>
<stop offset="1" stop-color="#1C9C76"/>
</linearGradient>
</defs>
</svg>
