<svg width="330" height="326" viewBox="0 0 330 326" fill="none" xmlns="http://www.w3.org/2000/svg">
<circle cx="163.143" cy="133.72" r="124" transform="rotate(-175.625 163.143 133.72)" fill="#905D11" fill-opacity="0.42"/>
<circle cx="133.944" cy="187.65" r="124" transform="rotate(-175.625 133.944 187.65)" fill="#11907C" fill-opacity="0.13"/>
<circle cx="196.76" cy="192.456" r="124" transform="rotate(-175.625 196.76 192.456)" fill="#0E263D" fill-opacity="0.21"/>
<circle cx="161.852" cy="163.709" r="124" transform="rotate(-175.625 161.852 163.709)" fill="white"/>
<path d="M207.103 202.191L195.985 200.601L191.008 190.644C190.826 190.278 190.543 189.97 190.192 189.755C189.841 189.539 189.436 189.425 189.022 189.425C188.609 189.425 188.204 189.539 187.853 189.755C187.502 189.97 187.219 190.278 187.036 190.644L182.06 200.587L170.942 202.176C170.532 202.235 170.148 202.405 169.832 202.669C169.516 202.932 169.28 203.277 169.153 203.666C169.025 204.054 169.011 204.47 169.11 204.866C169.21 205.263 169.419 205.624 169.716 205.908L177.719 213.664L175.873 224.628C175.803 225.03 175.849 225.445 176.005 225.823C176.161 226.201 176.421 226.529 176.756 226.769C177.092 227.009 177.488 227.151 177.901 227.18C178.314 227.208 178.727 227.122 179.092 226.931L189.03 221.712L198.967 226.873C199.328 227.059 199.734 227.144 200.141 227.117C200.547 227.09 200.939 226.953 201.271 226.721C201.604 226.489 201.866 226.171 202.027 225.801C202.188 225.432 202.244 225.026 202.186 224.628L200.282 213.693L208.329 205.952C208.625 205.667 208.835 205.306 208.935 204.91C209.034 204.514 209.02 204.098 208.892 203.709C208.764 203.321 208.529 202.976 208.213 202.712C207.897 202.449 207.513 202.278 207.103 202.22V202.191ZM149.044 202.191L137.925 200.601L132.949 190.659C132.766 190.293 132.483 189.985 132.132 189.769C131.781 189.554 131.376 189.44 130.963 189.44C130.55 189.44 130.145 189.554 129.794 189.769C129.443 189.985 129.16 190.293 128.977 190.659L124.001 200.601L112.897 202.191C112.487 202.249 112.103 202.42 111.787 202.683C111.471 202.946 111.236 203.292 111.108 203.68C110.98 204.069 110.966 204.485 111.065 204.881C111.165 205.277 111.375 205.638 111.671 205.923L119.718 213.664L117.814 224.628C117.744 225.03 117.789 225.445 117.945 225.823C118.101 226.201 118.362 226.529 118.697 226.769C119.032 227.009 119.428 227.151 119.841 227.18C120.254 227.208 120.667 227.122 121.033 226.931L130.97 221.712L140.908 226.873C141.269 227.059 141.675 227.144 142.081 227.117C142.488 227.09 142.879 226.953 143.212 226.721C143.544 226.489 143.806 226.171 143.967 225.801C144.129 225.432 144.184 225.026 144.127 224.628L142.281 213.664L150.328 205.923C150.625 205.638 150.835 205.277 150.934 204.881C151.034 204.485 151.019 204.069 150.891 203.68C150.764 203.292 150.529 202.946 150.213 202.683C149.896 202.42 149.512 202.249 149.103 202.191H149.044Z" fill="#11907C"/>
<path d="M168.969 190.616C168.705 191.128 168.656 191.721 168.831 192.268C169.006 192.816 169.391 193.274 169.905 193.545L176.696 197.117C177.067 197.311 177.486 197.399 177.904 197.369C178.323 197.34 178.725 197.194 179.064 196.949C179.402 196.705 179.664 196.37 179.818 195.986C179.972 195.601 180.013 195.181 179.936 194.774L176.756 176.532L190.219 163.605C190.518 163.319 190.729 162.957 190.829 162.559C190.929 162.161 190.914 161.743 190.786 161.353C190.658 160.963 190.421 160.616 190.103 160.352C189.785 160.087 189.398 159.916 188.986 159.857L170.365 157.192L162.043 140.605C161.859 140.237 161.575 139.928 161.221 139.712C160.868 139.496 160.461 139.381 160.045 139.381C159.629 139.381 159.221 139.496 158.868 139.712C158.515 139.928 158.23 140.237 158.046 140.605L149.724 157.222L131.118 159.857C130.707 159.916 130.32 160.087 130.001 160.352C129.683 160.616 129.447 160.963 129.318 161.353C129.19 161.743 129.175 162.161 129.275 162.559C129.375 162.957 129.587 163.319 129.885 163.605L143.349 176.532L140.169 194.774C140.091 195.181 140.132 195.601 140.286 195.986C140.441 196.37 140.702 196.705 141.041 196.949C141.379 197.194 141.781 197.34 142.2 197.369C142.619 197.399 143.038 197.311 143.408 197.117L160.052 188.494L169.905 193.545C170.429 193.816 174.347 194.215 174.913 194.042C175.479 193.869 176.123 195.29 176.399 194.774C176.675 194.258 175.088 192.403 174.913 191.846C174.737 191.289 165.629 186.408 165.105 186.136L161.092 184.058C160.771 183.892 160.414 183.806 160.052 183.806C159.69 183.806 159.333 183.892 159.012 184.058L145.34 191.158L147.956 176.152C148.018 175.8 147.992 175.44 147.88 175.1C147.769 174.761 147.576 174.454 147.317 174.205L136.275 163.576L151.567 161.38C151.924 161.329 152.264 161.193 152.557 160.983C152.849 160.774 153.086 160.498 153.246 160.179L160.052 146.461L166.888 160.12C167.048 160.44 167.285 160.716 167.577 160.925C167.87 161.134 168.21 161.27 168.567 161.321L183.829 163.576L172.758 174.205C172.499 174.454 172.306 174.761 172.194 175.1C172.083 175.44 172.057 175.8 172.119 176.152L174.734 191.158L168.831 188.157C168.313 187.902 170.81 189.393 170.258 189.565C169.706 189.738 169.243 190.114 168.969 190.616ZM165.432 136.608C165.742 136.608 166.049 136.544 166.333 136.421C166.617 136.297 166.872 136.117 167.081 135.891C172.656 129.845 179.005 124.54 185.969 120.108C186.232 119.96 186.462 119.762 186.644 119.524C186.826 119.285 186.957 119.013 187.03 118.724C187.102 118.434 187.113 118.133 187.063 117.839C187.013 117.545 186.903 117.264 186.74 117.013C186.576 116.762 186.362 116.547 186.111 116.38C185.86 116.213 185.578 116.099 185.28 116.043C184.983 115.988 184.677 115.992 184.382 116.057C184.086 116.121 183.807 116.245 183.562 116.419C176.278 121.038 169.635 126.57 163.797 132.875C163.506 133.189 163.314 133.581 163.245 134.001C163.176 134.421 163.232 134.852 163.406 135.242C163.581 135.631 163.867 135.962 164.229 136.194C164.592 136.426 165.014 136.55 165.447 136.549L165.432 136.608ZM223.953 120.445C223.855 119.876 223.533 119.368 223.057 119.031C222.582 118.694 221.991 118.555 221.412 118.644C204.823 121.839 189.629 129.975 177.885 141.952C177.646 142.149 177.451 142.394 177.314 142.67C177.177 142.946 177.1 143.247 177.089 143.554C177.077 143.861 177.131 144.167 177.247 144.452C177.363 144.738 177.539 144.996 177.763 145.21C177.986 145.424 178.253 145.59 178.546 145.696C178.839 145.802 179.151 145.847 179.462 145.827C179.773 145.807 180.077 145.722 180.353 145.579C180.629 145.436 180.872 145.238 181.065 144.997C192.193 133.698 206.571 126.033 222.259 123.036C222.83 122.91 223.328 122.567 223.645 122.083C223.962 121.598 224.073 121.009 223.953 120.445ZM214.412 142.201C208.506 143.784 202.84 146.132 197.56 149.184C197.308 149.33 197.087 149.524 196.91 149.754C196.733 149.984 196.604 150.247 196.53 150.526C196.457 150.806 196.439 151.096 196.48 151.382C196.52 151.668 196.617 151.944 196.765 152.193C196.914 152.442 197.11 152.659 197.344 152.834C197.578 153.008 197.844 153.135 198.128 153.207C198.411 153.28 198.707 153.297 198.997 153.257C199.287 153.218 199.567 153.122 199.819 152.976C204.764 150.126 210.071 147.935 215.601 146.461C215.897 146.397 216.176 146.275 216.422 146.102C216.668 145.928 216.875 145.708 217.032 145.453C217.188 145.198 217.291 144.914 217.333 144.619C217.374 144.324 217.355 144.024 217.275 143.737C217.195 143.449 217.057 143.181 216.869 142.948C216.68 142.715 216.446 142.522 216.18 142.381C215.913 142.24 215.62 142.154 215.319 142.128C215.018 142.102 214.715 142.137 214.427 142.23L214.412 142.201ZM134.135 120.108C141.099 124.54 147.448 129.845 153.023 135.891C153.209 136.134 153.444 136.337 153.714 136.487C153.984 136.636 154.282 136.728 154.59 136.758C154.898 136.787 155.209 136.753 155.503 136.658C155.797 136.562 156.068 136.408 156.298 136.204C156.528 136 156.712 135.751 156.839 135.472C156.966 135.194 157.032 134.893 157.035 134.588C157.037 134.283 156.975 133.981 156.852 133.702C156.729 133.422 156.549 133.17 156.322 132.962C150.485 126.657 143.841 121.126 136.557 116.507C136.322 116.283 136.04 116.114 135.73 116.01C135.421 115.907 135.093 115.871 134.768 115.906C134.443 115.942 134.13 116.047 133.851 116.214C133.572 116.382 133.334 116.608 133.154 116.876C132.973 117.144 132.855 117.449 132.807 117.767C132.759 118.085 132.783 118.41 132.876 118.719C132.97 119.027 133.131 119.311 133.349 119.551C133.566 119.792 133.835 119.982 134.135 120.108ZM139.039 144.997C139.233 145.238 139.475 145.436 139.751 145.579C140.028 145.722 140.331 145.807 140.642 145.827C140.954 145.847 141.266 145.802 141.558 145.696C141.851 145.59 142.118 145.424 142.342 145.21C142.565 144.996 142.741 144.738 142.857 144.452C142.973 144.167 143.027 143.861 143.016 143.554C143.004 143.247 142.927 142.946 142.79 142.67C142.653 142.394 142.459 142.149 142.219 141.952C140.317 140.019 138.296 138.174 136.275 136.447C135.826 136.059 135.238 135.862 134.642 135.901C134.046 135.939 133.489 136.209 133.095 136.652C132.701 137.095 132.501 137.673 132.54 138.261C132.579 138.848 132.854 139.397 133.303 139.785C135.324 141.425 137.226 143.181 139.039 144.997ZM127.537 134.939C128.018 134.951 128.49 134.808 128.883 134.534C129.275 134.259 129.567 133.867 129.714 133.415C129.861 132.964 129.856 132.477 129.699 132.029C129.543 131.58 129.243 131.194 128.845 130.927C119.728 124.889 109.475 120.713 98.6925 118.644C98.3998 118.589 98.099 118.592 97.8072 118.652C97.5155 118.711 97.2386 118.827 96.9922 118.992C96.7459 119.158 96.535 119.369 96.3716 119.614C96.2082 119.86 96.0955 120.135 96.0399 120.423C95.9843 120.711 95.9868 121.008 96.0475 121.295C96.1081 121.583 96.2256 121.855 96.3933 122.098C96.561 122.341 96.7755 122.548 97.0246 122.709C97.2738 122.87 97.5527 122.981 97.8454 123.036C108.018 124.981 117.693 128.908 126.304 134.588C126.671 134.822 127.1 134.944 127.537 134.939ZM121.414 153.269C121.902 153.267 122.376 153.108 122.763 152.815C123.15 152.523 123.429 152.113 123.557 151.65C123.685 151.186 123.656 150.694 123.473 150.249C123.29 149.803 122.963 149.429 122.544 149.184C117.265 146.132 111.598 143.783 105.692 142.201C105.118 142.045 104.506 142.121 103.989 142.41C103.472 142.7 103.093 143.18 102.935 143.745C102.778 144.31 102.854 144.914 103.148 145.423C103.442 145.932 103.93 146.306 104.503 146.461C110.029 147.94 115.331 150.136 120.27 152.991C120.619 153.183 121.015 153.28 121.414 153.269Z" fill="#0E263D"/>
</svg>
