<svg width="82" height="96" viewBox="0 0 82 96" fill="none" xmlns="http://www.w3.org/2000/svg">
<path d="M58.5703 0.646447L58.4238 0.5H58.2167H1H0.5V1V94.921V95.421H1H80.3111H80.8111V94.921V23.0944V22.8873L80.6647 22.7409L58.5703 0.646447ZM55.2655 26.5456H75.6368V90.2468H5.67427V5.67427H54.7655V26.0456V26.5456H55.2655ZM59.9398 21.3713V9.33265L71.9775 21.3713H59.9398Z" fill="white" stroke="white"/>
<path d="M64.6576 38.5688H35.4377V42.7431H64.6576V38.5688Z" fill="#11907C"/>
<path d="M64.6576 53.1782H35.4377V57.3525H64.6576V53.1782Z" fill="#11907C"/>
<path d="M64.6576 67.7881H35.4377V71.9624H64.6576V67.7881Z" fill="#11907C"/>
<path d="M21.0239 53.553L18.1291 50.6592L15.1779 53.6104L20.6326 59.0651L30.4285 51.7173L27.924 48.3779L21.0239 53.553Z" fill="#11907C"/>
<path d="M21.0239 68.1628L18.1291 65.269L15.1779 68.2202L20.6326 73.675L30.4285 66.3272L27.924 62.9878L21.0239 68.1628Z" fill="#11907C"/>
</svg>
