<svg width="144" height="144" viewBox="0 0 144 144" fill="none" xmlns="http://www.w3.org/2000/svg">
<path d="M143.842 18.4176C143.815 18.3408 143.796 18.264 143.76 18.1896C143.645 17.9424 143.501 17.7096 143.302 17.5104C143.299 17.508 143.297 17.5032 143.294 17.5008L126.499 0.7056C126.497 0.7032 126.492 0.7008 126.487 0.696C126.286 0.4968 126.05 0.3504 125.803 0.2352C125.736 0.204 125.666 0.1872 125.597 0.1608C125.381 0.0839998 125.16 0.0383998 124.932 0.0263998C124.884 0.0239998 124.846 0 124.8 0H12C5.3832 0 0 5.3832 0 12V132C0 138.617 5.3832 144 12 144H132C138.617 144 144 138.617 144 132V19.2C144 19.1472 143.974 19.104 143.971 19.0512C143.957 18.8328 143.914 18.624 143.842 18.4176ZM135.806 16.8H127.2V8.1936L135.806 16.8ZM139.2 132C139.2 135.97 135.97 139.2 132 139.2H12C8.0304 139.2 4.8 135.97 4.8 132V12C4.8 8.0304 8.0304 4.8 12 4.8H122.4V19.2C122.4 20.5272 123.475 21.6 124.8 21.6H139.2V132Z" fill="black"/>
<path d="M115.591 84.3192C116.921 84.3192 118 83.2444 118 81.9149V69.8936V19.4043C118 18.0747 116.921 17 115.591 17H103.545H91.5H79.4545H67.4091H14.4091C13.0793 17 12 18.0747 12 19.4043V29.6824V40.379V50.6596V81.9149V127.596C12 128.925 13.0793 130 14.4091 130H57.7727C59.1025 130 60.1818 128.925 60.1818 127.596V113.17V93.9362V84.3192H115.591ZM57.7727 79.5106H16.8182V53.0638H65V69.8936C65 71.2232 66.0793 72.2979 67.4091 72.2979H113.182V79.5106H57.7727ZM65 48.0846C57.6258 47.0292 51.7765 41.1916 50.7165 33.8298H65V48.0846ZM113.182 67.4894H69.8182V50.6596V31.4255V21.8085H77.0455V29.0213V53.0638C77.0455 54.3934 78.1247 55.4681 79.4545 55.4681H103.545C104.875 55.4681 105.955 54.3934 105.955 53.0638V29.0213V21.8085H113.182V67.4894ZM91.5 31.4255H101.136V50.6596H81.8636V31.4255H91.5ZM101.136 26.617H93.9091V21.8085H101.136V26.617ZM89.0909 21.8085V26.617H81.8636V21.8085H89.0909ZM65 21.8085V29.0213H48.1364C46.8065 29.0213 45.7273 30.096 45.7273 31.4255C45.7273 38.22 48.888 44.2859 53.8122 48.2553H16.8182V43.2232C17.9962 43.3627 19.1984 43.4468 20.4318 43.4468C28.2132 43.4468 36.0909 40.5569 36.0909 35.0319C36.0909 28.6246 25.556 25.8404 16.8182 26.8502V21.8085H65ZM16.8182 31.6756C17.9794 31.5097 19.1887 31.4255 20.4318 31.4255C27.4736 31.4255 31.2727 33.9837 31.2727 35.0319C31.2727 36.0802 27.4736 38.6383 20.4318 38.6383C19.1887 38.6383 17.9794 38.5541 16.8182 38.3883V31.6756ZM55.3636 110.595C47.9894 109.54 42.1401 103.702 41.0801 96.3404H55.3636V110.595ZM55.3636 91.5319H38.5C37.1702 91.5319 36.0909 92.6066 36.0909 93.9362C36.0909 105.056 44.5396 114.233 55.3636 115.433V125.191H16.8182V84.3192H55.3636V91.5319Z" fill="#11907C"/>
<path d="M120 103H91V108H120V103Z" fill="black"/>
<path d="M132 103H125V108H132V103Z" fill="black"/>
<path d="M120 113H91V118H120V113Z" fill="black"/>
<path d="M132 113H125V118H132V113Z" fill="black"/>
<path d="M120 122H91V127H120V122Z" fill="black"/>
<path d="M132 122H125V127H132V122Z" fill="black"/>
<path d="M125 94H98V98H125V94Z" fill="black"/>
</svg>
