<svg width="58" height="73" viewBox="0 0 58 73" fill="none" xmlns="http://www.w3.org/2000/svg">
<path d="M21.0733 73C20.4289 73 20.1067 72.6749 20.1067 72.0246V69.8789C20.1067 69.2936 20.4289 68.936 21.0733 68.806L29.29 67.4405C30.5144 67.1804 31.2233 66.9203 31.4167 66.6602C31.6744 66.4001 31.8033 65.7173 31.8033 64.6119V15.1614L38.3767 12.4304L8.99 48.421L7.05667 44.4221H49.59L56.6467 42.959C57.2911 42.829 57.6778 42.829 57.8067 42.959C57.9356 43.024 58 43.3817 58 44.0319C58 45.3974 57.9678 47.023 57.9033 48.9087C57.8389 50.7294 57.6778 52.42 57.42 53.9805C57.3556 54.6308 57.0011 54.9559 56.3567 54.9559H0.966667C0.322222 54.9559 0 54.6308 0 53.9805V50.4693C0 50.1441 0.0644444 49.8515 0.193333 49.5914C0.322222 49.2663 0.451111 48.9737 0.58 48.7136L40.31 0.531027C40.6322 0.0758592 41.1478 -0.0866993 41.8567 0.0433504L45.1433 0.921169C45.7878 1.18126 46.0778 1.60392 46.0133 2.18913L45.4333 9.79691C45.3689 10.9673 45.3045 12.0077 45.24 12.918C45.24 13.8284 45.24 14.7387 45.24 15.6491V64.4169C45.24 65.5873 45.3367 66.3351 45.53 66.6602C45.7878 66.9203 46.4644 67.1804 47.56 67.4405L55.8733 68.806C56.4533 68.936 56.7433 69.3262 56.7433 69.9764V72.0246C56.7433 72.6749 56.4211 73 55.7767 73H21.0733Z" fill="#BBBBBB"/>
</svg>
