<svg width="25" height="25" viewBox="0 0 25 25" fill="none" xmlns="http://www.w3.org/2000/svg">
<circle cx="12.5" cy="12.5" r="12.5" fill="#D8D8D8"/>
<path d="M12.5246 8.82435C12.0984 8.82435 11.7377 8.68769 11.4426 8.41437C11.1475 8.14104 11 7.80698 11 7.41218C11 7.01737 11.1475 6.68331 11.4426 6.40999C11.7377 6.13666 12.0984 6 12.5246 6C12.9344 6 13.2787 6.13666 13.5574 6.40999C13.8525 6.68331 14 7.01737 14 7.41218C14 7.80698 13.8525 8.14104 13.5574 8.41437C13.2787 8.68769 12.9344 8.82435 12.5246 8.82435ZM13.6066 10.8515V19H11.3689V10.8515H13.6066Z" fill="url(#paint0_linear_314_278)"/>
<defs>
<linearGradient id="paint0_linear_314_278" x1="11" y1="6" x2="14" y2="6" gradientUnits="userSpaceOnUse">
<stop stop-color="#027888"/>
<stop offset="1" stop-color="#1C9C76"/>
</linearGradient>
</defs>
</svg>
