<svg width="21" height="21" viewBox="0 0 21 21" fill="none" xmlns="http://www.w3.org/2000/svg">
<path d="M15.2781 1H5.75937C3.13084 1 1 3.11738 1 5.7293V15.1879C1 17.7998 3.13084 19.9172 5.75937 19.9172H15.2781C17.9066 19.9172 20.0375 17.7998 20.0375 15.1879V5.7293C20.0375 3.11738 17.9066 1 15.2781 1Z" stroke="black" stroke-linecap="round" stroke-linejoin="round"/>
<path d="M14.3262 9.86226C14.4437 10.6495 14.3083 11.4534 13.9395 12.1598C13.5706 12.8661 12.987 13.439 12.2717 13.7967C11.5563 14.1545 10.7457 14.279 9.95497 14.1526C9.16428 14.0262 8.43385 13.6552 7.86756 13.0925C7.30127 12.5298 6.92796 11.804 6.80073 11.0183C6.67349 10.2326 6.79882 9.42707 7.15888 8.71624C7.51893 8.0054 8.09539 7.42548 8.80625 7.05896C9.5171 6.69244 10.3262 6.55799 11.1184 6.67472C11.9264 6.79379 12.6745 7.16795 13.2522 7.74194C13.8298 8.31593 14.2064 9.0593 14.3262 9.86226Z" stroke="black" stroke-linecap="round" stroke-linejoin="round"/>
<path d="M15.754 5.25684H15.7636" stroke="black" stroke-linecap="round" stroke-linejoin="round"/>
</svg>
