<svg width="25" height="25" viewBox="0 0 25 25" fill="none" xmlns="http://www.w3.org/2000/svg">
<path d="M23.3532 7.4423L23.3532 18.4378C23.3532 21.4741 20.9073 23.9355 17.8902 23.9355L6.96417 23.9355C3.94704 23.9355 1.50116 21.4741 1.50116 18.4378L1.50116 7.4423C1.50116 4.40598 3.94704 1.94456 6.96418 1.94456L17.8902 1.94456C20.9073 1.94456 23.3532 4.40598 23.3532 7.4423Z" stroke="white" stroke-width="2" stroke-linecap="round" stroke-linejoin="round"/>
<path d="M13.1162 8.54219C12.2069 8.40649 11.2782 8.56279 10.4623 8.98887C9.64633 9.41494 8.98465 10.0891 8.57137 10.9154C8.15808 11.7418 8.01422 12.6782 8.16026 13.5916C8.30631 14.5049 8.73481 15.3487 9.38482 16.0028C10.0348 16.657 10.8733 17.0882 11.7808 17.2352C12.6884 17.3821 13.6189 17.2374 14.4401 16.8214C15.2612 16.4055 15.9311 15.7396 16.3544 14.9185C16.7778 14.0973 16.9331 13.1628 16.7983 12.2477C16.6608 11.3142 16.2286 10.4501 15.5655 9.78282C14.9025 9.11556 14.0438 8.6806 13.1162 8.54219Z" stroke="white" stroke-width="2" stroke-linecap="round" stroke-linejoin="round"/>
<path d="M18.4362 6.89258L18.4362 6.88196" stroke="white" stroke-width="2" stroke-linecap="round" stroke-linejoin="round"/>
</svg>
