<svg width="159" height="144" viewBox="0 0 159 144" fill="none" xmlns="http://www.w3.org/2000/svg">
<path d="M153.306 94.3448H149.062V83.16C149.094 78.9216 147.443 74.8437 144.47 71.8207C141.497 68.7977 137.446 67.0764 133.205 67.0345H39.75V31.4491H52.1719C52.5495 31.4491 52.9222 31.363 53.2616 31.1975C53.6009 31.032 53.8981 30.7913 54.1304 30.4938C54.3627 30.1962 54.5241 29.8497 54.6023 29.4805C54.6805 29.1113 54.6735 28.7291 54.5817 28.363L47.9484 1.87945C47.8142 1.3438 47.505 0.868165 47.0699 0.527777C46.6348 0.187389 46.0986 0.00167294 45.546 1.17755e-06H28.9852C28.4309 -0.000538099 27.8924 0.184164 27.4553 0.524726C27.0182 0.865288 26.7076 1.34215 26.5729 1.87945L19.9495 28.363C19.8578 28.7291 19.8507 29.1113 19.9289 29.4805C20.0071 29.8497 20.1685 30.1962 20.4009 30.4938C20.6332 30.7913 20.9303 31.032 21.2697 31.1975C21.6091 31.363 21.9817 31.4491 22.3594 31.4491H34.7812V67.0345H23.3109C19.0699 67.0764 15.0186 68.7977 12.0458 71.8207C9.073 74.8437 7.42134 78.9216 7.45312 83.16V94.3448H5.69419C4.1844 94.3461 2.73682 94.9461 1.66924 96.013C0.60166 97.0799 0.00131572 98.5265 0 100.035L0 131.586C0 132.245 0.261746 132.876 0.727657 133.342C1.19357 133.807 1.82548 134.069 2.48438 134.069H7.45312V137.945C7.4551 139.55 8.09413 141.089 9.23006 142.224C10.366 143.359 11.9061 143.998 13.5125 144H145.487C147.094 143.998 148.634 143.359 149.77 142.224C150.906 141.089 151.545 139.55 151.547 137.945V134.069H156.516C157.175 134.069 157.806 133.807 158.272 133.342C158.738 132.876 159 132.245 159 131.586V100.035C158.999 98.5265 158.398 97.0799 157.331 96.013C156.263 94.9461 154.816 94.3461 153.306 94.3448ZM25.5419 26.4836L30.923 4.96552H43.6082L48.9894 26.4836H25.5419ZM12.3374 83.16C12.3156 80.227 13.4585 77.4051 15.5156 75.313C17.5727 73.2209 20.3761 72.0295 23.3109 72H133.205C136.14 72.0295 138.943 73.2209 141 75.313C143.057 77.4051 144.2 80.227 144.178 83.16V94.3448H142.335C140.825 94.3461 139.377 94.9461 138.31 96.013C137.242 97.0799 136.642 98.5265 136.641 100.035V106.759H22.3594V100.035C22.3581 98.5265 21.7577 97.0799 20.6901 96.013C19.6226 94.9461 18.175 94.3461 16.6652 94.3448H12.3374V83.16ZM136.641 111.724V129.103H22.3594V111.724H136.641ZM4.96875 129.103V100.035C4.96875 99.843 5.04518 99.6586 5.18123 99.5227C5.31727 99.3867 5.50179 99.3103 5.69419 99.3103H16.6652C16.8576 99.3103 17.0421 99.3867 17.1781 99.5227C17.3142 99.6586 17.3906 99.843 17.3906 100.035V129.103H4.96875ZM146.578 137.945C146.577 138.233 146.462 138.51 146.258 138.715C146.054 138.919 145.777 139.034 145.487 139.034H13.5125C13.2235 139.034 12.9464 138.919 12.742 138.715C12.5376 138.51 12.4225 138.233 12.4219 137.945V134.069H146.578V137.945ZM154.031 129.103H141.609V100.035C141.609 99.843 141.686 99.6586 141.822 99.5227C141.958 99.3867 142.142 99.3103 142.335 99.3103H153.306C153.498 99.3103 153.683 99.3867 153.819 99.5227C153.955 99.6586 154.031 99.843 154.031 100.035V129.103Z" fill="black"/>
<path d="M40 79H35V84H40V79Z" fill="#11907C"/>
<path d="M40 95H35V99H40V95Z" fill="#11907C"/>
<path d="M124 79H119V84H124V79Z" fill="#11907C"/>
<path d="M82 79H77V84H82V79Z" fill="#11907C"/>
<path d="M82 95H77V99H82V95Z" fill="#11907C"/>
<path d="M64.5143 62H147.486C148.153 62 148.792 61.7389 149.264 61.2741C149.735 60.8094 150 60.179 150 59.5217V7.47826C150 6.82099 149.735 6.19063 149.264 5.72587C148.792 5.2611 148.153 5 147.486 5H64.5143C63.8475 5 63.2079 5.2611 62.7364 5.72587C62.2649 6.19063 62 6.82099 62 7.47826V59.5217C62 60.179 62.2649 60.8094 62.7364 61.2741C63.2079 61.7389 63.8475 62 64.5143 62ZM67.0286 9.95652H144.971V57.0435H67.0286V9.95652Z" fill="#11907C"/>
<path d="M138.517 12H71.4828C70.8243 12 70.1928 12.2603 69.7272 12.7236C69.2616 13.1869 69 13.8153 69 14.4706V51.5294C69 52.1847 69.2616 52.8131 69.7272 53.2764C70.1928 53.7397 70.8243 54 71.4828 54H138.517C139.176 54 139.807 53.7397 140.273 53.2764C140.738 52.8131 141 52.1847 141 51.5294V14.4706C141 13.8153 140.738 13.1869 140.273 12.7236C139.807 12.2603 139.176 12 138.517 12ZM136.034 49.0588H73.9655V16.9412H136.034V49.0588Z" fill="#11907C"/>
</svg>
