<svg width="23" height="22" viewBox="0 0 23 22" fill="none" xmlns="http://www.w3.org/2000/svg">
<path d="M15.7669 7.28906C17.4454 7.28906 19.0551 7.95162 20.242 9.13098C21.4288 10.3103 22.0956 11.9099 22.0956 13.5777V20.9145H17.8765V13.5777C17.8765 13.0218 17.6542 12.4886 17.2586 12.0955C16.863 11.7024 16.3264 11.4815 15.7669 11.4815C15.2074 11.4815 14.6709 11.7024 14.2752 12.0955C13.8796 12.4886 13.6574 13.0218 13.6574 13.5777V20.9145H9.43825V13.5777C9.43825 11.9099 10.105 10.3103 11.2919 9.13098C12.4787 7.95162 14.0885 7.28906 15.7669 7.28906V7.28906Z" stroke="black" stroke-linecap="round" stroke-linejoin="round"/>
<path d="M5.21911 8.33594H1V20.9133H5.21911V8.33594Z" stroke="black" stroke-linecap="round" stroke-linejoin="round"/>
<path d="M3.10956 5.19246C4.27463 5.19246 5.21911 4.25394 5.21911 3.09623C5.21911 1.93851 4.27463 1 3.10956 1C1.94448 1 1 1.93851 1 3.09623C1 4.25394 1.94448 5.19246 3.10956 5.19246Z" stroke="black" stroke-linecap="round" stroke-linejoin="round"/>
</svg>
