<svg width="28" height="26" viewBox="0 0 28 26" fill="none" xmlns="http://www.w3.org/2000/svg">
<path d="M19.0015 8.89648C20.9404 8.89648 22.7998 9.66183 24.1708 11.0242C25.5418 12.3865 26.312 14.2342 26.312 16.1608V24.6359H21.4383V16.1608C21.4383 15.5186 21.1816 14.9027 20.7246 14.4486C20.2676 13.9945 19.6478 13.7394 19.0015 13.7394C18.3552 13.7394 17.7354 13.9945 17.2784 14.4486C16.8214 14.9027 16.5647 15.5186 16.5647 16.1608V24.6359H11.691V16.1608C11.691 14.2342 12.4612 12.3865 13.8322 11.0242C15.2032 9.66183 17.0626 8.89648 19.0015 8.89648V8.89648Z" stroke="white" stroke-width="2" stroke-linecap="round" stroke-linejoin="round"/>
<path d="M6.81728 10.1064H1.9436V24.6351H6.81728V10.1064Z" stroke="white" stroke-width="2" stroke-linecap="round" stroke-linejoin="round"/>
<path d="M4.38044 6.47472C5.72627 6.47472 6.81728 5.3906 6.81728 4.05328C6.81728 2.71595 5.72627 1.63184 4.38044 1.63184C3.03461 1.63184 1.9436 2.71595 1.9436 4.05328C1.9436 5.3906 3.03461 6.47472 4.38044 6.47472Z" stroke="white" stroke-width="2" stroke-linecap="round" stroke-linejoin="round"/>
</svg>
