<svg width="19" height="23" viewBox="0 0 19 23" fill="none" xmlns="http://www.w3.org/2000/svg">
<path d="M18 9.4463C18 16.0156 9.5 21.6465 9.5 21.6465C9.5 21.6465 1 16.0156 1 9.4463C1 7.2062 1.89553 5.05785 3.48959 3.47386C5.08365 1.88987 7.24566 1 9.5 1C11.7543 1 13.9163 1.88987 15.5104 3.47386C17.1045 5.05785 18 7.2062 18 9.4463Z" stroke="white" stroke-width="2" stroke-linecap="round" stroke-linejoin="round"/>
<path d="M9.50002 12.2617C11.0648 12.2617 12.3334 11.0012 12.3334 9.44629C12.3334 7.89137 11.0648 6.63086 9.50002 6.63086C7.93521 6.63086 6.66669 7.89137 6.66669 9.44629C6.66669 11.0012 7.93521 12.2617 9.50002 12.2617Z" stroke="white" stroke-width="2" stroke-linecap="round" stroke-linejoin="round"/>
</svg>
