<svg width="68" height="69" viewBox="0 0 68 69" fill="none" xmlns="http://www.w3.org/2000/svg">
<path d="M56.6667 17.25H31.1667L25.5 11.5H11.3333C8.21667 11.5 5.66667 14.0875 5.66667 17.25V28.75H62.3333V23C62.3333 19.8375 59.7833 17.25 56.6667 17.25Z" fill="#FFA000"/>
<path d="M56.6667 17.25H11.3333C8.21667 17.25 5.66667 19.8375 5.66667 23V51.75C5.66667 54.9125 8.21667 57.5 11.3333 57.5H56.6667C59.7833 57.5 62.3333 54.9125 62.3333 51.75V23C62.3333 19.8375 59.7833 17.25 56.6667 17.25Z" fill="#FFCA28"/>
<path d="M34.0806 42.0685C34.704 42.0685 35.2093 41.5632 35.2093 40.9398C35.2093 40.3164 34.704 39.811 34.0806 39.811C33.4572 39.811 32.9518 40.3164 32.9518 40.9398C32.9518 41.5632 33.4572 42.0685 34.0806 42.0685Z" fill="black" fill-opacity="0.85"/>
<path d="M39.7246 33.0385H38.5958V30.9051C38.5958 29.7077 38.1201 28.5593 37.2734 27.7126C36.4267 26.8658 35.2783 26.3901 34.0808 26.3901C32.8833 26.3901 31.7349 26.8658 30.8882 27.7126C30.0415 28.5593 29.5658 29.7077 29.5658 30.9051V33.0385H28.437C27.5389 33.0385 26.6776 33.3953 26.0426 34.0303C25.4075 34.6653 25.0508 35.5267 25.0508 36.4247V45.4548C25.0508 46.3529 25.4075 47.2142 26.0426 47.8492C26.6776 48.4843 27.5389 48.841 28.437 48.841H39.7246C40.6226 48.841 41.484 48.4843 42.119 47.8492C42.7541 47.2142 43.1108 46.3529 43.1108 45.4548V36.4247C43.1108 35.5267 42.7541 34.6653 42.119 34.0303C41.484 33.3953 40.6226 33.0385 39.7246 33.0385ZM31.8233 30.9051C31.8081 30.2903 32.0371 29.6945 32.4602 29.2481C32.8833 28.8018 33.466 28.5412 34.0808 28.5235C34.6956 28.5412 35.2783 28.8018 35.7014 29.2481C36.1245 29.6945 36.3535 30.2903 36.3383 30.9051V33.0385H31.8233V30.9051ZM34.0808 44.326C33.4111 44.326 32.7564 44.1274 32.1995 43.7553C31.6426 43.3832 31.2086 42.8544 30.9523 42.2356C30.696 41.6169 30.6289 40.936 30.7596 40.2791C30.8903 39.6223 31.2128 39.0189 31.6864 38.5453C32.1599 38.0717 32.7633 37.7492 33.4202 37.6186C34.077 37.4879 34.7579 37.555 35.3767 37.8113C35.9954 38.0676 36.5243 38.5016 36.8964 39.0584C37.2685 39.6153 37.4671 40.27 37.4671 40.9398C37.4671 41.8378 37.1103 42.6992 36.4752 43.3342C35.8402 43.9692 34.9789 44.326 34.0808 44.326Z" fill="black" fill-opacity="0.85"/>
</svg>
