<svg width="28" height="22" viewBox="0 0 28 22" fill="none" xmlns="http://www.w3.org/2000/svg">
<path d="M24.6666 0.333374H3.33329C1.86663 0.333374 0.666626 1.53337 0.666626 3.00004V19C0.666626 20.4667 1.86663 21.6667 3.33329 21.6667H24.6666C26.1333 21.6667 27.3333 20.4667 27.3333 19V3.00004C27.3333 1.53337 26.1333 0.333374 24.6666 0.333374ZM24.1333 6.00004L15.4133 11.4534C14.5466 12 13.4533 12 12.5866 11.4534L3.86663 6.00004C3.53329 5.78671 3.33329 5.42671 3.33329 5.04004C3.33329 4.14671 4.30663 3.61337 5.06663 4.08004L14 9.66671L22.9333 4.08004C23.6933 3.61337 24.6666 4.14671 24.6666 5.04004C24.6666 5.42671 24.4666 5.78671 24.1333 6.00004Z" fill="white"/>
</svg>
