<svg width="41" height="72" viewBox="0 0 41 72" fill="none" xmlns="http://www.w3.org/2000/svg">
<path d="M40.1575 67.8775C40.7192 68.0053 41 68.3888 41 69.028V71.0413C41 71.6804 40.688 72 40.0639 72H3.55708C2.93303 72 2.621 71.6804 2.621 71.0413V68.9321C2.621 68.3569 2.93303 68.0053 3.55708 67.8775L11.3265 66.5353C12.5122 66.3435 13.1986 66.1198 13.3858 65.8642C13.6355 65.5446 13.7603 64.8415 13.7603 63.755V9.58722L20.8744 13.3262L1.49772 15.8189C0.873668 15.9467 0.530441 15.6591 0.468036 14.9561L0 12.1758C0 11.6005 0.249619 11.1531 0.748858 10.8336L26.0228 0.38349C26.9589 2.40482e-06 27.6142 -0.095872 27.9886 0.0958699C28.4254 0.223702 28.6438 0.735022 28.6438 1.62983V63.5633C28.6438 64.7137 28.7374 65.4487 28.9247 65.7683C29.1743 66.024 29.8295 66.2477 30.8904 66.4394L40.1575 67.8775Z" fill="#BBBBBB"/>
</svg>
