<svg width="25" height="25" viewBox="0 0 25 25" fill="none" xmlns="http://www.w3.org/2000/svg">
<path fill-rule="evenodd" clip-rule="evenodd" d="M24.5496 21.6592C23.778 24.0041 20.7548 25.174 18.5948 24.979C15.6449 24.7124 12.4351 23.1474 9.99847 21.4242C6.41693 18.8909 3.06205 14.9727 1.10712 10.8145C-0.274496 7.87632 -0.584485 4.26311 1.47044 1.58487C2.23041 0.594908 3.05372 0.066594 4.28701 0.00492948C6.00028 -0.0784009 6.24027 0.901564 6.82858 2.42818C7.2669 3.5698 7.85188 4.73476 8.17854 5.91805C8.79018 8.12631 6.65192 8.21797 6.38193 10.0229C6.21527 11.1612 7.59356 12.6878 8.21687 13.4994C9.4183 15.0802 10.8898 16.436 12.5634 17.5043C13.5133 18.1026 15.0433 19.1809 16.1299 18.5859C17.8032 17.6693 17.6465 14.8477 19.9848 15.8027C21.1964 16.296 22.3697 17.0077 23.5263 17.631C25.3146 18.5926 25.2313 19.5892 24.5496 21.6592C24.0396 23.2058 25.0596 20.1125 24.5496 21.6592Z" fill="white"/>
</svg>
