<svg width="25" height="18" viewBox="0 0 25 18" fill="none" xmlns="http://www.w3.org/2000/svg">
<path d="M22.5406 3.40471C22.4218 2.93312 22.1799 2.50103 21.8392 2.15208C21.4986 1.80313 21.0713 1.54969 20.6006 1.41735C18.8806 1 12.0006 1 12.0006 1C12.0006 1 5.12057 1 3.40057 1.45709C2.92982 1.58944 2.50255 1.84288 2.16192 2.19183C1.82129 2.54077 1.57936 2.97287 1.46057 3.44446C1.14579 5.17898 0.991808 6.93855 1.00057 8.70103C0.989351 10.4768 1.14334 12.2498 1.46057 13.9974C1.59153 14.4543 1.83888 14.87 2.17872 15.2042C2.51855 15.5384 2.93939 15.7798 3.40057 15.9052C5.12057 16.3623 12.0006 16.3623 12.0006 16.3623C12.0006 16.3623 18.8806 16.3623 20.6006 15.9052C21.0713 15.7729 21.4986 15.5194 21.8392 15.1705C22.1799 14.8215 22.4218 14.3895 22.5406 13.9179C22.8529 12.1964 23.0069 10.4502 23.0006 8.70103C23.0118 6.92528 22.8578 5.1523 22.5406 3.40471V3.40471Z" stroke="white" stroke-width="2" stroke-linecap="round" stroke-linejoin="round"/>
<path d="M9.75061 11.9503L15.5006 8.701L9.75061 5.45166V11.9503Z" stroke="white" stroke-width="2" stroke-linecap="round" stroke-linejoin="round"/>
</svg>
