<svg width="33" height="27" viewBox="0 0 33 27" fill="none" xmlns="http://www.w3.org/2000/svg">
<path d="M13.6 0C13.9333 0.999994 14.1 1.83333 14.1 2.5C14.1 3.1 14 3.9 13.8 4.9C9.33333 4.9 7.1 7.2 7.1 11.8C7.1 13.4667 7.96667 14.4 9.7 14.6C12.2333 14.8 13.5 16.4333 13.5 19.5C13.5 21.8333 12.9333 23.6333 11.8 24.9C10.7333 26.1 8.76667 26.7 5.9 26.7C1.96667 26.7 0 24.0333 0 18.7C0 13.3667 1.06667 8.93333 3.2 5.4C5.33333 1.8 8.8 0 13.6 0ZM31.7 0C32.0333 0.999994 32.2 1.83333 32.2 2.5C32.2 3.1 32.1 3.9 31.9 4.9C27.4333 4.9 25.2 7.2 25.2 11.8C25.2 13.4667 26.0667 14.4 27.8 14.6C30.3333 14.8 31.6 16.4333 31.6 19.5C31.6 21.8333 31.0333 23.6333 29.9 24.9C28.8333 26.1 26.8667 26.7 24 26.7C20.0667 26.7 18.1 24.0333 18.1 18.7C18.1 13.3667 19.1667 8.93333 21.3 5.4C23.4333 1.8 26.9 0 31.7 0Z" fill="#11907C"/>
</svg>
