<svg width="46" height="39" viewBox="0 0 46 39" fill="none" xmlns="http://www.w3.org/2000/svg">
<path d="M27.5684 38.9189C26.9365 39.1351 26.4801 38.9189 26.1992 38.2703L25.3566 35.7838C25.0758 35.2072 25.2513 34.7387 25.8832 34.3784C27.9195 33.1532 29.6749 31.5315 31.1494 29.5135C32.5537 27.4955 33.2559 25.2973 33.2559 22.9189C33.2559 20.1802 32.659 17.7658 31.4654 15.6757C30.2717 13.6577 28.8674 11.6757 27.2524 9.72972C26.8311 9.15315 26.796 8.54054 27.1471 7.89189C27.8493 6.81081 28.9376 5.62162 30.4121 4.32432C31.8165 3.0991 33.3612 2.05405 35.0464 1.18919C36.7315 0.396396 38.3465 -6.6909e-07 39.8912 -5.34045e-07C40.8743 -4.48106e-07 41.8573 0.720722 42.8403 2.16216C43.7531 3.6036 44.5255 5.44144 45.1574 7.67567C45.7191 9.90991 46 12.1802 46 14.4865C46 18.2342 45.3681 21.4775 44.1042 24.2162C42.8403 27.027 41.2253 29.4054 39.2593 31.3514C37.2933 33.3694 35.257 34.991 33.1505 36.2162C31.0441 37.4414 29.1834 38.3423 27.5684 38.9189ZM2.39611 38.9189C1.76417 39.1351 1.30777 38.9189 1.02691 38.2703L0.078995 35.7838C-0.131656 35.2072 0.0789913 34.7387 0.71093 34.3784C2.74719 33.1531 4.50258 31.5315 5.97711 29.5135C7.38142 27.4955 8.08357 25.2973 8.08357 22.9189C8.08357 20.1802 7.48674 17.7658 6.29308 15.6757C5.09941 13.6577 3.6951 11.6757 2.08014 9.72972C1.65885 9.15314 1.62374 8.54054 1.97482 7.89189C2.67697 6.81081 3.76532 5.62162 5.23984 4.32432C6.64416 3.09909 8.1889 2.05405 9.87407 1.18919C11.5592 0.396394 13.1742 -2.86972e-06 14.7189 -2.73468e-06C15.702 -2.64874e-06 16.685 0.72072 17.668 2.16216C18.5808 3.6036 19.3532 5.44143 19.9851 7.67567C20.5468 9.90991 20.8277 12.1802 20.8277 14.4865C20.8277 18.2342 20.1958 21.4775 18.9319 24.2162C17.5978 27.027 15.9828 29.4054 14.087 31.3513C12.121 33.3694 10.0847 34.991 7.97825 36.2162C5.87178 37.4414 4.01107 38.3423 2.39611 38.9189Z" fill="#85D6FF"/>
</svg>
