<svg width="46" height="39" viewBox="0 0 46 39" fill="none" xmlns="http://www.w3.org/2000/svg">
<path d="M18.4316 0.0810792C19.0635 -0.135134 19.5199 0.0810835 19.8008 0.729732L20.6434 3.21622C20.9242 3.79279 20.7487 4.26126 20.1168 4.62162C18.0805 5.84685 16.3251 7.46847 14.8506 9.48649C13.4463 11.5045 12.7441 13.7027 12.7441 16.0811C12.7441 18.8198 13.341 21.2342 14.5346 23.3243C15.7283 25.3423 17.1326 27.3243 18.7476 29.2703C19.1689 29.8469 19.204 30.4595 18.8529 31.1081C18.1507 32.1892 17.0624 33.3784 15.5879 34.6757C14.1836 35.9009 12.6388 36.9459 10.9536 37.8108C9.26846 38.6036 7.6535 39 6.10876 39C5.12574 39 4.14272 38.2793 3.1597 36.8378C2.2469 35.3964 1.47453 33.5586 0.842587 31.3243C0.280862 29.0901 0 26.8198 0 24.5135C0 20.7658 0.63194 17.5225 1.89582 14.7838C3.1597 11.973 4.77466 9.59459 6.7407 7.64865C8.70673 5.63063 10.743 4.00901 12.8495 2.78379C14.9559 1.55856 16.8166 0.657657 18.4316 0.0810792ZM43.6039 0.0810792C44.2358 -0.135134 44.6922 0.0810835 44.9731 0.729732L45.921 3.21622C46.1317 3.79279 45.921 4.26126 45.2891 4.62162C43.2528 5.84685 41.4974 7.46847 40.0229 9.48649C38.6186 11.5045 37.9164 13.7027 37.9164 16.0811C37.9164 18.8198 38.5133 21.2342 39.7069 23.3243C40.9006 25.3423 42.3049 27.3243 43.9199 29.2703C44.3412 29.8469 44.3763 30.4595 44.0252 31.1081C43.323 32.1892 42.2347 33.3784 40.7602 34.6757C39.3558 35.9009 37.8111 36.9459 36.1259 37.8108C34.4408 38.6036 32.8258 39 31.2811 39C30.298 39 29.315 38.2793 28.332 36.8378C27.4192 35.3964 26.6468 33.5586 26.0149 31.3243C25.4532 29.0901 25.1723 26.8198 25.1723 24.5135C25.1723 20.7658 25.8042 17.5225 27.0681 14.7838C28.4022 11.973 30.0172 9.59459 31.913 7.64865C33.879 5.63063 35.9153 4.00901 38.0217 2.78379C40.1282 1.55856 41.9889 0.657657 43.6039 0.0810792Z" fill="#85D6FF"/>
</svg>
