<svg width="160" height="150" viewBox="0 0 160 150" fill="none" xmlns="http://www.w3.org/2000/svg">
<circle cx="66" cy="60" r="60" fill="#4CAB7E" fill-opacity="0.29"/>
<circle cx="60" cy="90" r="60" fill="#AAAFAF" fill-opacity="0.34"/>
<circle cx="100" cy="83" r="60" fill="#3FC6E3" fill-opacity="0.27"/>
<circle cx="79" cy="76" r="60" fill="white"/>
<path d="M102.247 84.7439C102.247 81.3043 99.4325 78.49 95.9929 78.49C92.5533 78.49 89.739 81.3043 89.739 84.7439C89.739 88.1835 92.5533 90.9977 95.9929 90.9977C99.4325 90.9977 102.247 88.1835 102.247 84.7439ZM95.9929 88.4962C93.9291 88.4962 92.2406 86.8076 92.2406 84.7439C92.2406 82.6801 93.9291 80.9916 95.9929 80.9916C98.0566 80.9916 99.7452 82.6801 99.7452 84.7439C99.7452 86.8076 98.0566 88.4962 95.9929 88.4962ZM95.9929 90.9977C93.6164 90.9977 91.365 91.7481 89.5514 93.0615C87.8629 88.9339 83.7979 85.9946 79.1075 85.9946C74.4172 85.9946 70.3522 88.9339 68.6637 93.0615C66.85 91.8107 64.5987 90.9977 62.2222 90.9977C56.0309 90.9977 50.9653 96.0633 50.9653 102.255V103.505C50.9653 104.193 51.5282 104.756 52.2161 104.756H105.999C106.687 104.756 107.25 104.193 107.25 103.505V102.255C107.25 96.0633 102.184 90.9977 95.9929 90.9977ZM67.8507 97.2515V102.255H53.4669C53.4669 97.4391 57.4068 93.4992 62.2222 93.4992C64.4111 93.4992 66.4123 94.3122 67.9757 95.6881C67.9132 96.1884 67.8507 96.6887 67.8507 97.2515ZM87.8629 102.255H70.3522V97.2515C70.3522 92.4361 74.2921 88.4962 79.1075 88.4962C83.923 88.4962 87.8629 92.4361 87.8629 97.2515V102.255ZM90.3644 102.255V97.2515C90.3644 96.6887 90.3019 96.1884 90.2394 95.6881C91.8028 94.3748 93.804 93.4992 95.9929 93.4992C100.808 93.4992 104.748 97.4391 104.748 102.255H90.3644ZM68.476 84.7439C68.476 81.3043 65.6618 78.49 62.2222 78.49C58.7826 78.49 55.9684 81.3043 55.9684 84.7439C55.9684 88.1835 58.7826 90.9977 62.2222 90.9977C65.6618 90.9977 68.476 88.1835 68.476 84.7439ZM62.2222 88.4962C60.1585 88.4962 58.4699 86.8076 58.4699 84.7439C58.4699 82.6801 60.1585 80.9916 62.2222 80.9916C64.286 80.9916 65.9745 82.6801 65.9745 84.7439C65.9745 86.8076 64.286 88.4962 62.2222 88.4962ZM85.3614 79.7408C85.3614 76.3012 82.5471 73.487 79.1075 73.487C75.6679 73.487 72.8537 76.3012 72.8537 79.7408C72.8537 83.1804 75.6679 85.9946 79.1075 85.9946C82.5471 85.9946 85.3614 83.1804 85.3614 79.7408ZM79.1075 83.4931C77.0438 83.4931 75.3552 81.8046 75.3552 79.7408C75.3552 77.677 77.0438 75.9885 79.1075 75.9885C81.1713 75.9885 82.8598 77.677 82.8598 79.7408C82.8598 81.8046 81.1713 83.4931 79.1075 83.4931ZM55.9059 61.292L54.9678 66.983C54.9052 67.4833 55.0929 67.9211 55.4681 68.2338C55.8433 68.4839 56.4062 68.5465 56.7814 68.2963L61.5968 65.6697L66.4123 68.2963C66.5999 68.4214 66.7875 68.4214 67.0377 68.4214C67.2878 68.4214 67.538 68.3588 67.7256 68.1712C68.1008 67.9211 68.351 67.4208 68.2259 66.9205L67.2878 61.2295L70.3522 58.1026L73.4166 61.2295L72.4785 66.9205C72.416 67.4208 72.6036 67.8585 72.9788 68.1712C73.354 68.4214 73.9169 68.4839 74.2921 68.2338L79.1075 65.6072L83.923 68.2338C84.1106 68.3588 84.2982 68.3588 84.5484 68.3588C84.7985 68.3588 85.0487 68.2963 85.2363 68.1087C85.6115 67.8585 85.8617 67.3582 85.7366 66.8579L84.7985 61.1669L87.8629 58.04L90.9273 61.1669L89.9892 66.8579C89.9267 67.3582 90.1143 67.796 90.4895 68.1087C90.8647 68.3588 91.4276 68.4214 91.8028 68.1712L96.6183 65.5446L101.434 68.1712C101.621 68.2963 101.809 68.2963 102.059 68.2963C102.309 68.2963 102.559 68.2338 102.747 68.0462C103.122 67.796 103.372 67.2957 103.247 66.7954L102.309 61.1044L106.249 57.0394C106.562 56.7267 106.687 56.2264 106.562 55.7887C106.437 55.3509 105.999 55.0382 105.561 54.9757L100.183 54.1627L97.7439 49.0345C97.5563 48.7844 97.1186 48.4717 96.6183 48.4717C96.1179 48.4717 95.6802 48.7844 95.4926 49.1596L93.0536 54.2877L87.8629 55.1633L82.6722 54.3503L80.2332 49.2221C80.0456 48.7844 79.6078 48.4717 79.1075 48.4717C78.6072 48.4717 78.1695 48.7844 77.9819 49.1596L75.5429 54.2877L70.3522 55.1633L65.1615 54.3503L62.7225 49.2221C62.5349 48.7844 62.0971 48.4717 61.5968 48.4717C61.0965 48.4717 60.6588 48.7844 60.4711 49.1596L58.0322 54.2877L52.6539 55.1007C52.2161 55.1633 51.7783 55.476 51.6533 55.9137C51.5282 56.3515 51.5907 56.8518 51.9659 57.1645L55.9059 61.292ZM94.1167 56.7267C94.5545 56.6642 94.8672 56.414 95.0548 56.0388L96.6183 52.6617L98.1817 56.0388C98.3693 56.414 98.682 56.6642 99.1198 56.7267L102.747 57.2896L100.058 60.0413C99.7452 60.3539 99.6201 60.7292 99.7452 61.1044L100.371 64.9192L97.2436 63.1682C97.056 63.0431 96.8684 63.0431 96.6183 63.0431C96.3681 63.0431 96.1805 63.1056 95.9929 63.1682L92.866 64.9192L93.4913 61.1044C93.5539 60.7292 93.4288 60.2914 93.1786 60.0413L90.4895 57.2896L94.1167 56.7267ZM76.606 56.7267C77.0438 56.6642 77.3565 56.414 77.5441 56.0388L79.1075 52.6617L80.671 56.0388C80.8586 56.414 81.1713 56.6642 81.6091 56.7267L85.2363 57.2896L82.5471 60.0413C82.2345 60.3539 82.1094 60.7292 82.2345 61.1044L82.8598 64.9192L79.7329 63.1682C79.5453 63.0431 79.3577 63.0431 79.1075 63.0431C78.8574 63.0431 78.6698 63.1056 78.4822 63.1682L75.3552 64.9192L75.9806 61.1044C76.0432 60.7292 75.9181 60.2914 75.6679 60.0413L72.9788 57.2896L76.606 56.7267ZM59.0953 56.7267C59.5331 56.6642 59.8458 56.414 60.0334 56.0388L61.5968 52.6617L63.1603 56.0388C63.3479 56.414 63.6606 56.6642 64.0984 56.7267L67.7256 57.2896L65.0364 60.0413C64.7237 60.3539 64.5987 60.7292 64.7237 61.1044L65.3491 64.9192L62.2222 63.1682C62.0346 63.0431 61.847 63.0431 61.5968 63.0431C61.3467 63.0431 61.1591 63.1056 60.9715 63.1682L57.8445 64.9192L58.4699 61.1044C58.5325 60.7292 58.4074 60.2914 58.1572 60.0413L55.4681 57.2896L59.0953 56.7267Z" fill="url(#paint0_linear_213_121)"/>
<defs>
<linearGradient id="paint0_linear_213_121" x1="79.1075" y1="48.4717" x2="79.1075" y2="104.756" gradientUnits="userSpaceOnUse">
<stop stop-color="#11907C"/>
<stop offset="1" stop-color="#0B7BAE"/>
</linearGradient>
</defs>
</svg>
