<svg width="156" height="150" viewBox="0 0 156 150" fill="none" xmlns="http://www.w3.org/2000/svg">
<circle cx="66" cy="60" r="60" fill="#4CAB7E" fill-opacity="0.29"/>
<circle cx="60" cy="90" r="60" fill="#AAAFAF" fill-opacity="0.34"/>
<circle cx="96" cy="82" r="60" fill="#3FC6E3" fill-opacity="0.27"/>
<circle cx="76" cy="74" r="60" fill="white"/>
<path d="M108.749 61.0004C108.703 60.7106 108.548 60.4493 108.316 60.2699C108.084 60.0905 107.792 60.0064 107.5 60.035C106.264 60.1544 105.12 60.7452 104.308 61.6848C103.495 62.6244 103.075 63.8408 103.135 65.0817L103.323 72.7305C102.305 72.8472 101.334 73.2205 100.501 73.8155C99.6674 74.4104 98.9989 75.2074 98.558 76.1316L95.7288 82.071C95.2953 82.9783 94.6633 83.7764 93.8796 84.4064L93.2919 84.8776C91.8274 86.046 90.6556 87.5399 89.8699 89.2407C89.0841 90.9414 88.7059 92.802 88.7654 94.6745L87.7613 94.1964C87.4857 94.0651 87.1692 94.0487 86.8815 94.1508C86.5937 94.2529 86.3584 94.4651 86.2271 94.7407L83.1254 101.253C82.9941 101.529 82.9777 101.846 83.0798 102.133C83.1819 102.421 83.3941 102.656 83.6697 102.788L97.9616 109.594C98.2372 109.725 98.5537 109.742 98.8414 109.64C99.1291 109.538 99.3645 109.325 99.4958 109.05L102.598 102.537C102.729 102.261 102.745 101.945 102.643 101.657C102.541 101.369 102.329 101.134 102.053 101.003L101.496 100.737L101.348 98.7582C101.289 97.9883 101.531 97.2256 102.024 96.6311L109.425 87.6749C109.442 87.655 109.457 87.6347 109.472 87.6139C111.011 85.4663 111.822 82.883 111.787 80.2417C111.786 80.1871 111.781 80.1327 111.773 80.0789L108.749 61.0004ZM97.9121 107.021L85.699 101.204L87.8108 96.77L100.024 102.587L97.9121 107.021ZM107.625 86.2391L100.25 95.1646C99.3774 96.2169 98.9479 97.5671 99.0523 98.9302L99.1023 99.5974L91.1831 95.8259C90.9128 94.1228 91.0989 92.3785 91.7224 90.7708C92.3459 89.163 93.3846 87.7494 94.7325 86.6739L95.3202 86.2027C96.3744 85.3551 97.2246 84.2814 97.8079 83.0609L100.636 77.1217C100.977 76.4084 101.535 75.8211 102.229 75.4439C102.924 75.0668 103.72 74.919 104.504 75.0219L100.427 83.5818C100.361 83.7184 100.323 83.8667 100.314 84.0182C100.306 84.1697 100.327 84.3213 100.378 84.4644C100.428 84.6075 100.506 84.7393 100.607 84.8521C100.709 84.9649 100.832 85.0566 100.969 85.1218C101.106 85.1871 101.254 85.2246 101.406 85.2322C101.557 85.2399 101.709 85.2175 101.851 85.1664C101.994 85.1153 102.126 85.0364 102.238 84.9344C102.35 84.8324 102.441 84.7092 102.506 84.5719L107.155 74.8089C107.287 74.5333 107.303 74.2168 107.201 73.9291C107.099 73.6413 106.887 73.4059 106.611 73.2747C106.295 73.1247 105.967 73.0025 105.63 72.9093L105.437 65.0115C105.437 65.0015 105.437 64.9914 105.436 64.9814C105.412 64.5182 105.515 64.0572 105.735 63.6487C105.955 63.2402 106.282 62.8998 106.682 62.6646L109.487 80.3566C109.497 82.4638 108.846 84.5213 107.626 86.2391H107.625Z" fill="url(#paint0_linear_213_103)"/>
<path d="M66.096 94.7407C65.9647 94.4651 65.7293 94.2529 65.4416 94.1508C65.1539 94.0487 64.8374 94.0651 64.5617 94.1964L63.5576 94.6745C63.6172 92.802 63.239 90.9415 62.4533 89.2408C61.6675 87.5401 60.4958 86.0461 59.0313 84.8778L58.4433 84.4062C57.6596 83.7763 57.0277 82.9781 56.5942 82.0709L53.7655 76.1316C53.3246 75.2074 52.6561 74.4104 51.8226 73.8154C50.9892 73.2204 50.0183 72.847 49.001 72.7302L49.1881 65.0817C49.2482 63.8408 48.8284 62.6244 48.0157 61.6848C47.2031 60.7452 46.0599 60.1544 44.8233 60.035C44.5313 60.0064 44.2394 60.0905 44.0073 60.2699C43.7751 60.4493 43.6202 60.7106 43.5743 61.0004L40.5497 80.0791C40.541 80.1329 40.5362 80.1873 40.5353 80.2418C40.5007 82.8832 41.3118 85.4664 42.8499 87.614C42.8643 87.6349 42.8807 87.6552 42.897 87.675L50.2981 96.6313C50.7909 97.2257 51.0335 97.9884 50.9744 98.7584L50.8262 100.738L50.2692 101.003C49.9935 101.134 49.7813 101.37 49.6792 101.657C49.5772 101.945 49.5935 102.261 49.7248 102.537L52.8265 109.05C52.9578 109.325 53.1932 109.538 53.4809 109.64C53.7686 109.742 54.0851 109.725 54.3608 109.594L68.6526 102.788C68.9283 102.657 69.1405 102.421 69.2425 102.133C69.3446 101.846 69.3282 101.529 69.197 101.254L66.096 94.7407ZM52.0729 95.1646L44.6973 86.2391C43.4769 84.5212 42.8262 82.4638 42.8368 80.3566L45.6407 62.6646C46.0405 62.8998 46.3681 63.2402 46.5878 63.6487C46.8075 64.0572 46.9109 64.5182 46.8868 64.9814C46.8868 64.9914 46.8861 65.0015 46.8858 65.0115L46.693 72.9092C46.356 73.0025 46.0278 73.1248 45.7119 73.2747C45.4363 73.4059 45.2241 73.6413 45.122 73.9291C45.0199 74.2168 45.0363 74.5333 45.1675 74.8089L49.8173 84.5719C49.8818 84.7092 49.9728 84.8324 50.0851 84.9344C50.1973 85.0364 50.3287 85.1153 50.4715 85.1664C50.6143 85.2175 50.7659 85.2399 50.9174 85.2322C51.0689 85.2246 51.2174 85.187 51.3543 85.1218C51.4913 85.0566 51.614 84.9649 51.7154 84.8521C51.8169 84.7393 51.895 84.6075 51.9453 84.4644C51.9956 84.3213 52.0172 84.1697 52.0087 84.0182C52.0002 83.8667 51.9619 83.7184 51.8959 83.5818L47.8196 75.0219C48.6033 74.9191 49.3994 75.0669 50.094 75.4441C50.7887 75.8212 51.3462 76.4084 51.6869 77.1217L54.5155 83.0609C55.0987 84.2813 55.9488 85.355 57.003 86.2025L57.591 86.6739C58.9389 87.7494 59.9775 89.1631 60.601 90.7708C61.2245 92.3785 61.4106 94.1228 61.1403 95.8259L53.2211 99.5974L53.271 98.9302C53.3754 97.5671 52.9457 96.2168 52.0729 95.1646V95.1646ZM54.4107 107.021L52.2991 102.587L64.5122 96.77L66.6241 101.204L54.4107 107.021Z" fill="url(#paint1_linear_213_103)"/>
<path d="M83.1574 76.3518C83.4729 76.344 83.7734 76.216 83.9977 75.994C84.2219 75.772 84.3528 75.4728 84.3637 75.1574V74.2378H91.1362C91.2866 74.2374 91.4354 74.2073 91.5741 74.1491C91.7128 74.091 91.8386 74.0059 91.9443 73.8989C92.05 73.7919 92.1335 73.665 92.1899 73.5256C92.2463 73.3862 92.2745 73.237 92.273 73.0866C92.273 69.3428 91.6381 66.3157 90.3459 63.8326C89.0245 61.2931 87.0434 59.3677 84.3106 57.9616C84.2833 52.3464 82.4553 46.888 79.0955 42.3889L77.0905 39.7168C76.9833 39.5737 76.8442 39.4575 76.6843 39.3775C76.5244 39.2975 76.348 39.2559 76.1692 39.2559C75.9904 39.2559 75.8141 39.2975 75.6541 39.3775C75.4942 39.4575 75.3551 39.5737 75.2479 39.7168L73.2437 42.3887C69.9009 46.8664 68.0748 52.2943 68.0313 57.882C62.6193 60.5886 60.0898 65.4417 60.0897 73.0863C60.0899 73.2341 60.1198 73.3803 60.1777 73.5163C60.2357 73.6523 60.3204 73.7752 60.4268 73.8777C60.5348 73.9816 60.6624 74.0629 60.8022 74.117C60.9419 74.1711 61.091 74.1969 61.2408 74.1929H67.9593V75.157C67.9734 75.4737 68.1073 75.7733 68.334 75.9951C68.5606 76.2168 68.863 76.3442 69.18 76.3513H69.5667L69.5422 80.5753V80.6138C69.5375 81.1314 69.7217 81.633 70.0604 82.0246C70.399 82.4162 70.8687 82.6708 71.3817 82.7409C71.3781 82.8272 71.3606 82.9135 71.3605 83.0006C71.3605 86.5933 74.0514 89.8152 75.7998 90.1649C75.8726 90.1726 75.946 90.173 76.0189 90.1659H76.2779C76.3531 90.173 76.4287 90.1726 76.5037 90.1649C78.2727 89.8109 81.0011 86.5765 81.0014 82.9897C81.0014 82.9813 81.0014 82.9781 81.0014 82.9698C80.9997 82.8922 80.9959 82.8171 80.9925 82.7396C81.5132 82.6752 81.9917 82.4207 82.3362 82.0249C82.6807 81.6292 82.8668 81.1201 82.8587 80.5955L82.7817 76.3518H83.1574ZM89.9902 71.935H84.3637V60.6081C87.9612 62.894 89.7779 66.4786 89.9902 71.935ZM75.0509 43.7701L76.1513 42.3261L77.2706 43.7703C80.3579 47.8868 82.0377 52.888 82.0614 58.0335V74.0494H70.2617V58.7421C70.4056 58.6488 70.4056 58.5538 70.2617 58.4587V58.0335C70.2848 52.8881 71.9641 47.8869 75.0509 43.7701V43.7701ZM62.4123 71.8909C62.6207 66.4228 64.3619 62.7496 67.9593 60.5124V71.8909H62.4123ZM76.1471 87.8799C75.4163 87.4809 73.6506 85.4706 73.6506 83.035C73.649 82.9656 73.6513 82.8963 73.6577 82.8272H78.689C78.6936 82.8272 78.6969 82.9619 78.6989 83.0455C78.6923 85.5817 76.804 87.5065 76.1471 87.8799ZM80.5532 80.5248H71.7952L71.8695 76.3518H80.4785L80.5532 80.5248Z" fill="url(#paint2_linear_213_103)"/>
<path d="M76.1742 65.4155H76.1753C77.4144 65.4153 78.6027 64.923 79.4787 64.0467C80.3548 63.1705 80.8469 61.9822 80.8469 60.7431C80.8468 59.504 80.3545 58.3157 79.4783 57.4396C78.6022 56.5635 77.4138 56.0713 76.1748 56.0713C74.9357 56.0713 73.7474 56.5635 72.8712 57.4396C71.995 58.3157 71.5027 59.504 71.5027 60.7431C71.5026 61.9822 71.9947 63.1705 72.8708 64.0467C73.7469 64.923 74.9351 65.4153 76.1742 65.4155ZM76.1742 58.4062C76.6427 58.4062 77.1007 58.5452 77.4903 58.8055C77.8799 59.0658 78.1835 59.4358 78.3628 59.8687C78.542 60.3016 78.5889 60.7779 78.4975 61.2374C78.4061 61.697 78.1804 62.1191 77.8491 62.4504C77.5178 62.7817 77.0957 63.0073 76.6362 63.0987C76.1766 63.1901 75.7003 63.1432 75.2674 62.9638C74.8346 62.7845 74.4646 62.4809 74.2043 62.0913C73.944 61.7017 73.805 61.2437 73.805 60.7752C73.8057 60.1471 74.0555 59.5449 74.4997 59.1007C74.9438 58.6566 75.5461 58.4068 76.1742 58.4062V58.4062Z" fill="url(#paint3_linear_213_103)"/>
<defs>
<linearGradient id="paint0_linear_213_103" x1="79.2701" y1="76.3704" x2="115.814" y2="87.084" gradientUnits="userSpaceOnUse">
<stop stop-color="#0B79B7"/>
<stop offset="1" stop-color="#11907C"/>
</linearGradient>
<linearGradient id="paint1_linear_213_103" x1="36.7908" y1="76.3704" x2="73.3345" y2="87.084" gradientUnits="userSpaceOnUse">
<stop stop-color="#0B79B7"/>
<stop offset="1" stop-color="#11907C"/>
</linearGradient>
<linearGradient id="paint2_linear_213_103" x1="55.9028" y1="56.0042" x2="96.1675" y2="68.8859" gradientUnits="userSpaceOnUse">
<stop stop-color="#0B79B7"/>
<stop offset="1" stop-color="#11907C"/>
</linearGradient>
<linearGradient id="paint3_linear_213_103" x1="70.287" y1="59.145" x2="80.5461" y2="64.3374" gradientUnits="userSpaceOnUse">
<stop stop-color="#0B79B7"/>
<stop offset="1" stop-color="#11907C"/>
</linearGradient>
</defs>
</svg>
