<svg width="65" height="65" viewBox="0 0 65 65" fill="none" xmlns="http://www.w3.org/2000/svg">
<g filter="url(#filter0_b_414_165)">
<rect width="65" height="65" rx="17" fill="#AEAEAE" fill-opacity="0.24"/>
</g>
<path d="M16.3281 47.1459C12.9869 43.5094 10.3431 38.7928 10 32.4675V30.6225C10.135 27.9506 10.8156 25.5291 11.6706 23.3269C12.7759 20.4722 14.4859 17.7413 16.5053 16.0312C16.5053 17.3981 16.5391 18.7031 16.6797 19.5469C17.1072 22.1119 18.5359 24.9188 20.2853 26.6653C21.7 28.0828 23.5984 29.0559 25.5588 30.0938C29.4681 32.1694 33.1863 34.0003 37.0731 36.0703C39.5734 37.4034 42.1469 39.0487 42.8725 41.6953C43.9019 45.4359 41.7194 48.9066 39.9728 50.7487C38.3146 52.4999 36.1172 53.6446 33.7319 54H30.7422C24.5716 53.3109 19.6834 50.7937 16.3281 47.1459ZM31.1809 24.5588C34.7838 26.4459 38.5047 28.3641 42.1694 30.2709C44.0566 31.2553 45.775 32.2706 47.0912 33.6994C49.4875 36.2981 50.9837 39.6844 50.6941 44.5978C51.2875 44.0241 51.8247 43.2225 52.2747 42.4013C53.5825 40.0106 54.64 36.9647 54.9128 33.435C54.8988 33.3309 54.9297 33.2775 55 33.2578V29.7422C53.4531 17.3784 45.0381 9.95344 33.2031 9H32.0612C29.7494 9.38813 27.4937 10.0491 26.1719 11.5509C25.2437 12.6028 24.5125 14.4759 24.4141 15.6797C23.9978 20.8519 27.7047 22.7334 31.1809 24.5588Z" fill="#11907C"/>
<path d="M31.1809 24.5588C34.7837 26.4459 38.5047 28.3641 42.1694 30.2709C44.0566 31.2553 45.775 32.2706 47.0912 33.6994C49.4875 36.2981 50.9837 39.6844 50.6941 44.5978C51.2875 44.0241 51.8247 43.2225 52.2747 42.4013C53.5825 40.0106 54.64 36.9647 54.9128 33.435C54.8987 33.3309 54.9297 33.2775 55 33.2578V29.7422C53.4531 17.3784 45.0381 9.95344 33.2031 9H32.0612C29.7494 9.38813 27.4937 10.0491 26.1719 11.5509C25.2437 12.6028 24.5125 14.4759 24.4141 15.6797C23.9978 20.8519 27.7047 22.7334 31.1809 24.5588Z" fill="white"/>
<defs>
<filter id="filter0_b_414_165" x="-4" y="-4" width="73" height="73" filterUnits="userSpaceOnUse" color-interpolation-filters="sRGB">
<feFlood flood-opacity="0" result="BackgroundImageFix"/>
<feGaussianBlur in="BackgroundImage" stdDeviation="2"/>
<feComposite in2="SourceAlpha" operator="in" result="effect1_backgroundBlur_414_165"/>
<feBlend mode="normal" in="SourceGraphic" in2="effect1_backgroundBlur_414_165" result="shape"/>
</filter>
</defs>
</svg>
