<svg width="113" height="113" viewBox="0 0 113 113" fill="none" xmlns="http://www.w3.org/2000/svg">
<path d="M109.503 0H2.49818C1.11752 0 0 1.1175 0 2.49814V109.502C0 110.881 1.11752 112 2.49818 112H43.4117C44.7923 112 45.9099 110.881 45.9099 109.502C45.9099 108.123 44.7923 107.004 43.4117 107.004H4.99636V76.2266H25.533C26.9137 76.2266 28.0312 75.1075 28.0312 73.7285C28.0312 72.3495 26.9137 71.2303 25.533 71.2303H4.99636V4.99628H56.2373V36.8975C56.2373 38.2782 57.3565 39.3957 58.7355 39.3957C60.1145 39.3957 61.2337 38.2782 61.2337 36.8975V4.99628H107.005V54.7576H74.1443H41.2832C39.9026 54.7576 38.785 55.8751 38.785 57.2557C38.785 58.6347 39.9026 59.7539 41.2832 59.7539H107.005V107.004H77.9282L62.7093 84.8485C61.9282 83.7127 60.376 83.4246 59.2351 84.204C58.0976 84.9851 57.8112 86.539 58.5906 87.6781L74.554 110.916C75.0186 111.594 75.7897 111.998 76.6125 111.998H109.502C110.881 111.998 112 110.879 112 109.5V2.49648C112.002 1.1175 110.882 0 109.503 0Z" fill="black"/>
<path d="M40 57H109V109H78.5H77L60.5 86" stroke="#11907C" stroke-width="6.5" stroke-linecap="round"/>
</svg>
