<svg width="65" height="65" viewBox="0 0 65 65" fill="none" xmlns="http://www.w3.org/2000/svg">
<g filter="url(#filter0_b_220_155)">
<rect width="65" height="65" rx="17" fill="#AEAEAE" fill-opacity="0.24"/>
</g>
<path d="M22.8 27.9683C24.3913 27.9683 25.9174 27.3362 27.0426 26.2109C28.1679 25.0857 28.8 23.5596 28.8 21.9683C28.484 14.0094 17.1148 14.0117 16.8 21.9684C16.8 23.5596 17.4322 25.0858 18.5574 26.211C19.6826 27.3362 21.2087 27.9683 22.8 27.9683ZM18.6 41.7683V47.7683C18.6 48.2457 18.7896 48.7035 19.1272 49.0411C19.4648 49.3787 19.9226 49.5683 20.4 49.5683H25.2C25.6774 49.5683 26.1352 49.3787 26.4728 49.0411C26.8104 48.7035 27 48.2457 27 47.7683V36.3683L30.8001 39.2914C31.292 39.6637 31.9048 39.8399 32.5194 39.7856C33.134 39.7314 33.7065 39.4506 34.1256 38.9978C34.5448 38.545 34.7806 37.9526 34.7873 37.3357C34.7941 36.7187 34.5712 36.1213 34.1621 35.6595L29.7575 30.7655C29.645 30.6405 29.5074 30.5405 29.3538 30.4721C29.2001 30.4037 29.0338 30.3683 28.8655 30.3683H16.8C16.3226 30.3683 15.8648 30.558 15.5272 30.8955C15.1896 31.2331 15 31.6909 15 32.1683V39.9683C15 40.4457 15.1896 40.9036 15.5272 41.2411C15.8648 41.5787 16.3226 41.7683 16.8 41.7683L18.6 41.7683ZM43.2 27.9683C44.7913 27.9683 46.3174 27.3362 47.4426 26.2109C48.5679 25.0857 49.2 23.5596 49.2 21.9683C48.884 14.0094 37.5148 14.0117 37.2 21.9684C37.2 23.5596 37.8322 25.0858 38.9574 26.211C40.0826 27.3362 41.6087 27.9683 43.2 27.9683ZM49.2 30.3683H37.134C36.9656 30.3681 36.799 30.4033 36.645 30.4715C36.491 30.5397 36.353 30.6394 36.24 30.7643L33.804 33.4703L35.052 34.8563C35.5471 35.4086 35.8646 36.0971 35.963 36.8323C36.0615 37.5674 35.9364 38.3152 35.604 38.9783L39 36.3683V47.7683C38.9997 48.0048 39.046 48.239 39.1364 48.4575C39.2267 48.676 39.3593 48.8746 39.5265 49.0418C39.6937 49.209 39.8923 49.3416 40.1108 49.4319C40.3293 49.5223 40.5635 49.5686 40.8 49.5683H45.6C45.8365 49.5686 46.0707 49.5223 46.2892 49.4319C46.5077 49.3416 46.7063 49.209 46.8735 49.0418C47.0407 48.8746 47.1733 48.676 47.2636 48.4575C47.354 48.239 47.4003 48.0048 47.4 47.7683V41.7683H49.2C49.4365 41.7686 49.6707 41.7223 49.8892 41.6319C50.1077 41.5416 50.3063 41.409 50.4735 41.2418C50.6407 41.0746 50.7733 40.876 50.8636 40.6575C50.954 40.439 51.0003 40.2048 51 39.9683V32.1683C51.0003 31.9318 50.954 31.6976 50.8636 31.4791C50.7733 31.2606 50.6407 31.062 50.4735 30.8948C50.3063 30.7276 50.1077 30.595 49.8892 30.5047C49.6707 30.4143 49.4365 30.368 49.2 30.3683Z" fill="white"/>
<path d="M22.8 27.9683C24.3913 27.9683 25.9174 27.3362 27.0426 26.2109C28.1679 25.0857 28.8 23.5596 28.8 21.9683C28.484 14.0094 17.1148 14.0117 16.8 21.9684C16.8 23.5596 17.4322 25.0858 18.5574 26.211C19.6826 27.3362 21.2087 27.9683 22.8 27.9683ZM18.6 41.7683V47.7683C18.6 48.2457 18.7896 48.7035 19.1272 49.0411C19.4648 49.3787 19.9226 49.5683 20.4 49.5683H25.2C25.6774 49.5683 26.1352 49.3787 26.4728 49.0411C26.8104 48.7035 27 48.2457 27 47.7683V36.3683L30.8001 39.2914C31.292 39.6637 31.9048 39.8399 32.5194 39.7856C33.134 39.7314 33.7065 39.4506 34.1256 38.9978C34.5448 38.545 34.7806 37.9526 34.7873 37.3357C34.7941 36.7187 34.5712 36.1213 34.1621 35.6595L29.7575 30.7655C29.645 30.6405 29.5074 30.5405 29.3538 30.4721C29.2001 30.4037 29.0338 30.3683 28.8655 30.3683H16.8C16.3226 30.3683 15.8648 30.558 15.5272 30.8955C15.1896 31.2331 15 31.6909 15 32.1683V39.9683C15 40.4457 15.1896 40.9036 15.5272 41.2411C15.8648 41.5787 16.3226 41.7683 16.8 41.7683L18.6 41.7683Z" fill="#DA5353"/>
<defs>
<filter id="filter0_b_220_155" x="-4" y="-4" width="73" height="73" filterUnits="userSpaceOnUse" color-interpolation-filters="sRGB">
<feFlood flood-opacity="0" result="BackgroundImageFix"/>
<feGaussianBlur in="BackgroundImage" stdDeviation="2"/>
<feComposite in2="SourceAlpha" operator="in" result="effect1_backgroundBlur_220_155"/>
<feBlend mode="normal" in="SourceGraphic" in2="effect1_backgroundBlur_220_155" result="shape"/>
</filter>
</defs>
</svg>
