<svg width="50" height="70" viewBox="0 0 50 70" fill="none" xmlns="http://www.w3.org/2000/svg">
<path d="M24.2056 70C19.4081 70 15.1713 69.4182 11.4953 68.2546C7.88162 67.0297 5.04673 65.3456 2.99065 63.2021C0.996885 61.0586 0 58.5783 0 55.7612C0 53.9851 0.46729 52.6072 1.40187 51.6273C2.39875 50.6474 3.76947 50.1575 5.51402 50.1575C7.13396 50.1575 8.38006 50.4943 9.25234 51.168C10.1246 51.7804 10.7788 52.6072 11.215 53.6483C11.7134 54.6282 12.1807 55.6999 12.6168 56.8635C13.053 57.9659 13.6137 59.007 14.2991 59.9869C14.9844 60.9668 15.9813 61.7935 17.2897 62.4672C18.5981 63.0796 20.405 63.3858 22.7103 63.3858C26.5109 63.3858 29.4393 62.3753 31.4953 60.3543C33.6137 58.2721 34.6729 55.3018 34.6729 51.4436C34.6729 48.3202 34.081 45.748 32.8972 43.727C31.7134 41.6448 30 40.1137 27.757 39.1339C25.514 38.154 22.8037 37.7559 19.6262 37.9396L14.8598 38.2152C14.2368 38.3377 13.9875 38.0621 14.1121 37.3885L14.8598 33.0709C14.9844 32.5197 15.3583 32.1828 15.9813 32.0604L19.6262 31.601C23.8006 31.1111 26.9159 29.9781 28.972 28.2021C31.0903 26.3648 32.1495 23.8845 32.1495 20.7612C32.1495 17.699 31.0592 15.2493 28.8785 13.4121C26.7601 11.5748 23.9252 10.6562 20.3738 10.6562C17.134 10.6562 14.3925 11.4523 12.1495 13.0446C9.96885 14.5757 8.19315 16.9947 6.82243 20.3018C6.57321 20.853 6.16822 21.0061 5.60748 20.7612L2.71028 19.8425C2.08723 19.6588 1.83801 19.2607 1.96262 18.6483C2.83489 12.8915 5.35826 8.35958 9.53271 5.0525C13.7072 1.68417 18.9408 0 25.2336 0C29.6573 0 33.4891 0.704286 36.729 2.11286C40.0312 3.52143 42.5857 5.54243 44.3925 8.17585C46.1994 10.748 47.1028 13.7795 47.1028 17.2703C47.1028 20.7612 46.1371 23.8539 44.2056 26.5486C42.2741 29.2432 39.6262 31.3561 36.2617 32.8871C32.8972 34.357 29.0031 35.0919 24.5794 35.0919V32.979C32.7414 32.979 39.0031 34.5101 43.3645 37.5722C47.7882 40.6343 50 45.0744 50 50.8924C50 56.7716 47.6947 61.4261 43.0841 64.8556C38.4735 68.2852 32.1807 70 24.2056 70Z" fill="#BBBBBB"/>
</svg>
