<svg width="137" height="119" viewBox="0 0 137 119" fill="none" xmlns="http://www.w3.org/2000/svg">
<path d="M16.9228 51.0485V116M117.06 49.4635V116M129.577 116H4.40564M9.95397 56.0193L3 46.2526L68.3673 3L133.749 46.2526L126.795 56.0193L68.3673 15.5423L9.95397 56.0193Z" stroke="url(#paint0_linear_248_455)" stroke-width="5" stroke-linecap="round" stroke-linejoin="round"/>
<path d="M79.4935 78.3284H104.528M65.5856 116V62.9956C65.5856 62.2555 65.2925 61.5457 64.7708 61.0224C64.2492 60.4991 63.5417 60.2051 62.804 60.2051H34.9881C34.2504 60.2051 33.5429 60.4991 33.0213 61.0224C32.4996 61.5457 32.2065 62.2555 32.2065 62.9956V116H65.5856ZM104.528 96.4666V62.9807C104.528 62.2406 104.235 61.5308 103.713 61.0075C103.191 60.4842 102.484 60.1902 101.746 60.1902H82.2751C81.5374 60.1902 80.8299 60.4842 80.3082 61.0075C79.7866 61.5308 79.4935 62.2406 79.4935 62.9807V96.4666H104.528ZM72.5395 96.4666H111.482H72.5395Z" stroke="url(#paint1_linear_248_455)" stroke-width="5" stroke-linecap="round" stroke-linejoin="round"/>
<mask id="path-3-inside-1_248_455" fill="white">
<path d="M47.5054 88.8094C47.5044 89.3644 47.284 89.8962 46.8925 90.2882C46.501 90.6803 45.9705 90.9004 45.4174 90.9004H41.245C40.6922 90.9004 40.162 90.6801 39.7711 90.288C39.3802 89.8959 39.1606 89.364 39.1606 88.8094V88.8094C39.1606 88.2545 39.3801 87.7223 39.7709 87.3296C40.1617 86.9368 40.6919 86.7157 41.245 86.7147H45.4174C45.6916 86.7147 45.9631 86.7689 46.2165 86.8742C46.4698 86.9794 46.7 87.1337 46.8938 87.3283C47.0877 87.5228 47.2416 87.7537 47.3465 88.0078C47.4514 88.262 47.5054 88.5344 47.5054 88.8094V88.8094Z"/>
</mask>
<path d="M45.4174 90.9004L45.4174 82.9004H45.4174V90.9004ZM41.245 86.7147V78.7147H41.2379L41.2308 78.7147L41.245 86.7147ZM39.5054 88.7953C39.5082 87.2389 40.1262 85.7424 41.2316 84.6354L52.5533 95.9411C54.4417 94.05 55.5007 91.4898 55.5054 88.8236L39.5054 88.7953ZM41.2316 84.6354C42.3379 83.5276 43.8428 82.9004 45.4174 82.9004L45.4174 98.9004C48.0983 98.9004 50.6641 97.833 52.5533 95.9411L41.2316 84.6354ZM45.4174 82.9004H41.245V98.9004H45.4174V82.9004ZM41.245 82.9004C42.8219 82.9004 44.3294 83.529 45.437 84.6402L34.1052 95.9358C35.9946 97.8313 38.5625 98.9004 41.245 98.9004V82.9004ZM45.437 84.6402C46.5437 85.7505 47.1606 87.2507 47.1606 88.8094H31.1606C31.1606 91.4773 32.2167 94.0413 34.1052 95.9358L45.437 84.6402ZM47.1606 88.8094C47.1606 90.3658 46.5453 91.8634 45.4418 92.9723L34.1 81.6868C32.215 83.5812 31.1606 86.1433 31.1606 88.8095L47.1606 88.8094ZM45.4418 92.9723C44.3373 94.0823 42.8336 94.7119 41.2593 94.7147L41.2308 78.7147C38.5502 78.7195 35.9861 79.7913 34.1 81.6868L45.4418 92.9723ZM41.245 94.7147H45.4174V78.7147H41.245V94.7147ZM45.4174 94.7147C44.6375 94.7147 43.8659 94.5606 43.1467 94.2617L49.2863 79.4866C48.0604 78.9772 46.7457 78.7147 45.4174 78.7147V94.7147ZM43.1467 94.2617C42.4272 93.9628 41.7755 93.5254 41.228 92.9761L52.5597 81.6804C51.6244 80.7421 50.5124 79.9961 49.2863 79.4866L43.1467 94.2617ZM41.228 92.9761C40.6803 92.4267 40.2471 91.7757 39.952 91.061L54.741 84.9547C54.236 83.7316 53.4952 82.6189 52.5597 81.6804L41.228 92.9761ZM39.952 91.061C39.6567 90.3458 39.5054 89.5807 39.5054 88.8094H55.5054C55.5054 87.488 55.2461 86.1782 54.741 84.9547L39.952 91.061Z" fill="url(#paint2_linear_248_455)" mask="url(#path-3-inside-1_248_455)"/>
<defs>
<linearGradient id="paint0_linear_248_455" x1="3" y1="3" x2="133.749" y2="3" gradientUnits="userSpaceOnUse">
<stop stop-color="#027888"/>
<stop offset="1" stop-color="#1C9C76"/>
</linearGradient>
<linearGradient id="paint1_linear_248_455" x1="32.2065" y1="60.1902" x2="111.482" y2="60.1902" gradientUnits="userSpaceOnUse">
<stop stop-color="#027888"/>
<stop offset="1" stop-color="#1C9C76"/>
</linearGradient>
<linearGradient id="paint2_linear_248_455" x1="39.1606" y1="86.7147" x2="47.5054" y2="86.7147" gradientUnits="userSpaceOnUse">
<stop stop-color="#027888"/>
<stop offset="1" stop-color="#1C9C76"/>
</linearGradient>
</defs>
</svg>
