<svg width="65" height="65" viewBox="0 0 65 65" fill="none" xmlns="http://www.w3.org/2000/svg">
<g filter="url(#filter0_b_414_167)">
<rect width="65" height="65" rx="17" fill="#AEAEAE" fill-opacity="0.24"/>
</g>
<path fill-rule="evenodd" clip-rule="evenodd" d="M33.2906 52.4704C23.4201 50.5495 16.5294 42.6807 16.5294 32.5311V18.6061C22.913 17.9386 28.5229 15.9911 33.2915 11.5293C38.0603 15.9911 43.67 17.9386 50.0537 18.6061V32.5311C50.0537 42.6805 43.1633 50.5493 33.2928 52.4703L33.2906 52.4704Z" fill="#C6CED2"/>
<path fill-rule="evenodd" clip-rule="evenodd" d="M33.2906 49.3402C24.9297 47.7132 19.0928 41.0477 19.0928 32.45V20.6546C24.5002 20.0893 29.252 18.4396 33.2915 14.6602C37.3309 18.4396 42.0827 20.0893 47.4904 20.6546C47.4902 20.6546 47.4902 32.45 47.4902 32.45C47.4902 41.0475 41.6536 47.7128 33.2927 49.3402H33.2906Z" fill="#E9EBEC"/>
<path fill-rule="evenodd" clip-rule="evenodd" d="M33.2914 27.5268C34.7609 26.1483 37.6997 26.1483 39.1692 27.5132C40.6386 28.8782 40.6386 31.6081 39.1692 34.338C38.1405 36.3853 35.4956 38.4328 33.2914 39.7978C31.0874 38.4328 28.4424 36.3853 27.4139 34.338C25.9444 31.6081 25.9444 28.8782 27.4139 27.5132C28.8832 26.1483 31.8221 26.1483 33.2914 27.5268Z" fill="#11907C"/>
<path fill-rule="evenodd" clip-rule="evenodd" d="M33.2914 26.8429C32.4886 26.263 31.4228 25.9636 30.3535 25.9619C29.1141 25.9601 27.8797 26.358 27.0535 27.1256C25.4467 28.6181 25.3406 31.6023 26.9468 34.5875C28.0121 36.7011 30.7323 38.8357 33.0127 40.2479C33.1835 40.3538 33.3993 40.3538 33.5701 40.2479C35.8522 38.8346 38.5747 36.698 39.641 34.5782C41.2422 31.5991 41.1353 28.6173 39.5295 27.1256C38.7031 26.358 37.4688 25.9601 36.2295 25.9619C35.16 25.9636 34.0944 26.263 33.2914 26.8429ZM32.9292 27.913C33.1329 28.1041 33.45 28.1041 33.6536 27.913C34.2967 27.3098 35.2664 27.0223 36.231 27.0207C37.1958 27.0194 38.1656 27.3038 38.8088 27.9013C39.3104 28.3672 39.6018 29.024 39.7021 29.7881C39.8664 31.0392 39.5242 32.5615 38.7029 34.0872C38.7006 34.0916 38.6982 34.096 38.696 34.1004C37.7473 35.989 35.3577 37.8617 33.2916 39.173C31.2251 37.8617 28.8357 35.989 27.8869 34.1004C27.8847 34.096 27.8823 34.0916 27.8799 34.0872C27.0588 32.5615 26.7166 31.0392 26.8807 29.7881C26.981 29.024 27.2726 28.3672 27.774 27.9013C28.4173 27.3038 29.387 27.0194 30.3518 27.0207C31.3164 27.0223 32.2861 27.3098 32.9292 27.913Z" fill="#11907C"/>
<defs>
<filter id="filter0_b_414_167" x="-4" y="-4" width="73" height="73" filterUnits="userSpaceOnUse" color-interpolation-filters="sRGB">
<feFlood flood-opacity="0" result="BackgroundImageFix"/>
<feGaussianBlur in="BackgroundImage" stdDeviation="2"/>
<feComposite in2="SourceAlpha" operator="in" result="effect1_backgroundBlur_414_167"/>
<feBlend mode="normal" in="SourceGraphic" in2="effect1_backgroundBlur_414_167" result="shape"/>
</filter>
</defs>
</svg>
