<svg width="53" height="72" viewBox="0 0 53 72" fill="none" xmlns="http://www.w3.org/2000/svg">
<path d="M1.39564 71.3963C0.751496 71.3963 0.365012 71.0786 0.236185 70.4431L0.0429426 69.2992C-0.0858853 68.7273 0.0751498 68.2189 0.526048 67.7741L4.29426 64.2471C5.77578 62.9126 6.99965 61.7688 7.96586 60.8155C8.93207 59.7988 9.96269 58.7184 11.0577 57.5746C14.6005 53.7617 17.5957 50.3936 20.0435 47.4704C22.5556 44.5472 24.6491 41.9417 26.3238 39.654C27.9986 37.3663 29.3191 35.301 30.2853 33.4581C31.3159 31.6152 32.0245 29.8994 32.411 28.3107C32.8619 26.6584 33.0873 25.038 33.0873 23.4492C33.0873 19.5093 31.9601 16.459 29.7056 14.2983C27.4511 12.1377 24.2948 11.0574 20.2367 11.0574C13.6021 11.0574 8.80324 14.3936 5.8402 21.0662C5.58254 21.6381 5.16385 21.797 4.58413 21.5428L1.58888 20.5896C0.944738 20.3989 0.687082 19.9859 0.81591 19.3504C1.78212 13.3133 4.51971 8.57899 9.02869 5.14739C13.5377 1.7158 19.2383 0 26.1306 0C33.2161 0 38.8201 1.81112 42.9426 5.43336C47.0651 8.99205 49.1264 13.8217 49.1264 19.9223C49.1264 22.1465 48.9009 24.2118 48.45 26.1183C47.9991 28.0247 47.0651 30.0583 45.648 32.2189C44.2953 34.3795 42.2663 36.9214 39.5609 39.8447C36.8555 42.7679 33.2161 46.3901 28.6427 50.7114C24.1338 54.9691 18.4653 60.1801 11.6375 66.3442L13.0868 59.2904H40.9136C42.0086 59.2904 42.8782 59.0997 43.5224 58.7184C44.2309 58.3372 44.8428 57.7652 45.3582 57.0026L48.9331 50.7114C49.2552 50.203 49.7383 50.0124 50.3824 50.1395L52.1216 50.4254C52.7658 50.489 53.0556 50.8385 52.9912 51.474L50.8656 71.2057C50.7367 71.8411 50.3825 72.0953 49.8027 71.9682L42.3629 71.3963H1.39564Z" fill="#BBBBBB"/>
</svg>
