<svg width="30" height="30" viewBox="0 0 30 30" fill="none" xmlns="http://www.w3.org/2000/svg">
<path d="M25.6079 4.36278C22.7756 1.54808 19.0051 0 15 0C10.9949 0 7.23026 1.54808 4.39797 4.36278C1.55981 7.17748 0 10.9187 0 14.9003C0 18.8819 1.55981 22.6231 4.39797 25.4378C7.23026 28.2467 10.9949 29.8006 15 29.8006C19.0051 29.8006 22.7697 28.2525 25.602 25.4378C28.4402 22.6231 30 18.8819 30 14.9003C30 10.9187 28.4402 7.17748 25.6079 4.36278ZM26.7045 10.1153H21.1396C21.1337 10.0977 21.1337 10.0801 21.1278 10.0626C20.5884 7.14816 19.7967 4.69703 19.181 3.04926C22.588 4.23378 25.3323 6.82565 26.7045 10.1153ZM13.3053 2.46286C13.8624 2.38663 14.4253 2.35145 15 2.35145C15.475 2.35145 15.9382 2.38077 16.3956 2.42768C16.8999 3.59461 18.0317 6.46794 18.7471 10.1153H11.4875C12.0973 6.05747 13.1118 3.0258 13.3053 2.46286ZM2.34558 14.9003C2.34558 14.0676 2.42768 13.2525 2.586 12.4609H8.84285C8.62588 14.8124 8.60829 17.0758 8.79007 19.2045H3.11376C2.61532 17.8616 2.34558 16.4132 2.34558 14.9003ZM4.27482 21.55H9.08327C9.37647 23.3385 9.81626 25.0274 10.4144 26.593C7.86357 25.6079 5.71149 23.8194 4.27482 21.55ZM9.11845 10.1153H3.30141C4.65012 6.88429 7.31822 4.33346 10.6314 3.11962C10.1916 4.6208 9.54652 7.10125 9.11845 10.1153ZM16.6888 27.3378C16.1376 27.4081 15.5747 27.4492 15.0059 27.4492C14.4195 27.4492 13.8448 27.4081 13.276 27.3319C12.3847 25.4789 11.81 23.5145 11.4699 21.55H18.8643C18.448 23.5027 17.7561 25.4672 16.6888 27.3378ZM19.2279 19.2045H11.1532C10.9363 16.8061 11.0066 14.4898 11.2002 12.4609H19.1282C19.3862 14.4957 19.4859 16.812 19.2279 19.2045ZM19.7088 26.552C20.4007 24.9863 20.9226 23.3151 21.2568 21.55H25.731C24.3178 23.7901 22.2068 25.5551 19.7088 26.552ZM21.597 19.2045L21.6145 18.9934C21.8022 16.9175 21.7611 14.7244 21.4914 12.4609H27.4199C27.5782 13.2525 27.6603 14.0676 27.6603 14.9003C27.6603 16.4132 27.3905 17.8616 26.8921 19.2045H21.597Z" fill="white"/>
</svg>
