<svg width="17" height="17" viewBox="0 0 17 17" fill="none" xmlns="http://www.w3.org/2000/svg">
<path d="M4.20974 0.000263576C1.88974 0.000263576 0 1.89027 0 4.21026V12.5933C0 14.9133 1.88948 16.8033 4.20974 16.8033H12.5928C14.9128 16.8033 16.8028 14.9133 16.8028 12.5933V4.21C16.8028 1.89001 14.9128 0 12.5928 0L4.20974 0.000263576ZM4.20974 1.40687H12.5928C14.1581 1.40687 15.3965 2.645 15.3965 4.21026V12.5933C15.3965 14.1586 14.1581 15.3965 12.5928 15.3965H4.20974C2.64447 15.3965 1.40635 14.1586 1.40635 12.5933V4.21C1.40635 2.64474 2.64447 1.40661 4.20974 1.40661V1.40687ZM8.5667 3.55094C8.38029 3.5536 8.20257 3.63017 8.07261 3.76383C7.94264 3.89748 7.87107 4.07727 7.87362 4.26368V7.65252H4.48532C4.39138 7.64993 4.29789 7.6662 4.21035 7.70036C4.12281 7.73453 4.043 7.78589 3.97565 7.85141C3.9083 7.91694 3.85476 7.9953 3.81821 8.08187C3.78165 8.16844 3.76281 8.26146 3.76281 8.35543C3.76281 8.4494 3.78165 8.54241 3.81821 8.62898C3.85476 8.71555 3.9083 8.79391 3.97565 8.85943C4.043 8.92496 4.12281 8.97632 4.21035 9.01048C4.29789 9.04465 4.39138 9.06091 4.48532 9.05833H7.87362V12.4466C7.8718 12.5401 7.88865 12.6331 7.92318 12.72C7.95771 12.8069 8.00922 12.8861 8.07471 12.9529C8.1402 13.0196 8.21835 13.0727 8.30458 13.1089C8.39081 13.1451 8.4834 13.1637 8.57693 13.1637C8.67046 13.1637 8.76304 13.1451 8.84928 13.1089C8.93551 13.0727 9.01366 13.0196 9.07914 12.9529C9.14463 12.8861 9.19615 12.8069 9.23068 12.72C9.2652 12.6331 9.28205 12.5401 9.28023 12.4466V9.05833H12.6685C12.7625 9.06091 12.856 9.04465 12.9435 9.01048C13.031 8.97632 13.1109 8.92496 13.1782 8.85943C13.2456 8.79391 13.2991 8.71555 13.3357 8.62898C13.3722 8.54241 13.391 8.4494 13.391 8.35543C13.391 8.26146 13.3722 8.16844 13.3357 8.08187C13.2991 7.9953 13.2456 7.91694 13.1782 7.85141C13.1109 7.78589 13.031 7.73453 12.9435 7.70036C12.856 7.6662 12.7625 7.64993 12.6685 7.65252H9.28023V4.26368C9.28152 4.16966 9.26394 4.07633 9.22853 3.98922C9.19312 3.90212 9.1406 3.82299 9.07407 3.75654C9.00754 3.69009 8.92836 3.63765 8.84121 3.60234C8.75406 3.56703 8.66072 3.54955 8.5667 3.55094Z" fill="white"/>
</svg>
