<svg width="15" height="15" viewBox="0 0 15 15" fill="none" xmlns="http://www.w3.org/2000/svg">
<mask id="path-1-outside-1_7_31" maskUnits="userSpaceOnUse" x="-0.304382" y="-0.173889" width="15" height="15" fill="black">
<rect fill="white" x="-0.304382" y="-0.173889" width="15" height="15"/>
<path fill-rule="evenodd" clip-rule="evenodd" d="M13.2238 11.9969C12.8614 13.0981 11.4417 13.6475 10.4275 13.5559C9.04225 13.4307 7.53494 12.6958 6.39075 11.8866C4.70892 10.697 3.13351 8.85709 2.21551 6.90446C1.56672 5.52471 1.42115 3.82801 2.38612 2.57034C2.74299 2.10547 3.1296 1.85738 3.70873 1.82843C4.51326 1.78929 4.62596 2.24947 4.90222 2.96635C5.10805 3.50244 5.38275 4.04949 5.53614 4.60514C5.82336 5.64211 4.81926 5.68515 4.69248 6.53272C4.61422 7.06725 5.26144 7.78412 5.55414 8.16526C6.11831 8.90755 6.80931 9.54422 7.5952 10.0459C8.04129 10.3268 8.75973 10.8332 9.26999 10.5538C10.0557 10.1234 9.98217 8.79839 11.0802 9.24683C11.6491 9.47848 12.2001 9.81266 12.7432 10.1054C13.583 10.5569 13.5439 11.0249 13.2238 11.9969C13.4632 11.2707 12.9843 12.7232 13.2238 11.9969Z"/>
</mask>
<path d="M10.4275 13.5559L10.3218 14.725L10.3219 14.7251L10.4275 13.5559ZM6.39075 11.8866L5.71287 12.845L5.7129 12.845L6.39075 11.8866ZM2.21551 6.90446L3.27787 6.405L3.27783 6.40493L2.21551 6.90446ZM2.38612 2.57034L1.45495 1.85551L1.45476 1.85575L2.38612 2.57034ZM3.70873 1.82843L3.65171 0.655898L3.65011 0.655978L3.70873 1.82843ZM4.90222 2.96635L5.99814 2.54558L5.99761 2.54422L4.90222 2.96635ZM5.53614 4.60514L4.40455 4.91752L4.40482 4.9185L5.53614 4.60514ZM4.69248 6.53272L3.53148 6.35905L3.53095 6.36266L4.69248 6.53272ZM5.55414 8.16526L6.48875 7.4549L6.48518 7.45025L5.55414 8.16526ZM7.5952 10.0459L6.96356 11.0354L6.96958 11.0392L7.5952 10.0459ZM9.26999 10.5538L9.83378 11.5835L9.83399 11.5833L9.26999 10.5538ZM11.0802 9.24683L10.6363 10.3336L10.6375 10.3341L11.0802 9.24683ZM12.7432 10.1054L12.1863 11.1388L12.1873 11.1393L12.7432 10.1054ZM13.2238 11.9969L14.3386 12.3646L14.3388 12.3641L13.2238 11.9969ZM12.1087 11.63C12.055 11.7931 11.8905 12.001 11.545 12.1737C11.1997 12.3464 10.8086 12.4116 10.533 12.3867L10.3219 14.7251C11.0607 14.7918 11.8865 14.628 12.5952 14.2736C13.3036 13.9193 14.0302 13.3019 14.3389 12.3639L12.1087 11.63ZM10.5332 12.3868C9.43523 12.2875 8.12624 11.6762 7.0686 10.9282L5.7129 12.845C6.94364 13.7155 8.64927 14.5739 10.3218 14.725L10.5332 12.3868ZM7.06864 10.9282C5.54841 9.85291 4.10744 8.16953 3.27787 6.405L1.15314 7.40392C2.15958 9.54464 3.86942 11.5411 5.71287 12.845L7.06864 10.9282ZM3.27783 6.40493C2.72865 5.237 2.72507 4.05703 3.31747 3.28494L1.45476 1.85575C0.117234 3.59898 0.404791 5.81243 1.15318 7.40399L3.27783 6.40493ZM3.31729 3.28518C3.43384 3.13336 3.51019 3.07621 3.55245 3.05173C3.58573 3.03246 3.64139 3.00717 3.76736 3.00087L3.65011 0.655978C3.19695 0.678636 2.76973 0.791874 2.3757 1.0201C1.99066 1.24312 1.69526 1.54246 1.45495 1.85551L3.31729 3.28518ZM3.76576 3.00095C3.85917 2.99641 3.84454 3.01135 3.77734 2.98571C3.74238 2.97237 3.70414 2.95214 3.66753 2.92497C3.63164 2.89834 3.60771 2.87278 3.59464 2.85679C3.57531 2.83314 3.58951 2.84172 3.63484 2.94655C3.65594 2.99534 3.67918 3.05377 3.70848 3.13019C3.72302 3.16814 3.7378 3.2072 3.7544 3.25101C3.77066 3.2939 3.78829 3.34036 3.80683 3.38848L5.99761 2.54422C5.94195 2.39979 5.86427 2.18686 5.78981 2.01467C5.71117 1.83283 5.59511 1.59439 5.41251 1.37098C5.21515 1.12951 4.95358 0.921572 4.61422 0.792103C4.29098 0.668787 3.96056 0.640877 3.65171 0.655899L3.76576 3.00095ZM3.80631 3.38711C3.91634 3.6737 4.05636 3.99205 4.15485 4.229C4.26358 4.49056 4.34781 4.71197 4.40455 4.91752L6.66773 4.29276C6.57108 3.94266 6.44126 3.61271 6.32283 3.32781C6.19418 3.0183 6.09393 2.79508 5.99814 2.54558L3.80631 3.38711ZM4.40482 4.9185C4.42605 4.99515 4.3979 4.94619 4.43245 4.84507C4.45859 4.76856 4.49462 4.75018 4.41321 4.837C4.32426 4.93187 3.66332 5.47774 3.53149 6.35905L5.85348 6.70639C5.84843 6.74013 5.75293 6.84069 6.12591 6.44291C6.27548 6.2834 6.51659 6.00686 6.65418 5.60414C6.80018 5.17682 6.78984 4.73362 6.66746 4.29179L4.40482 4.9185ZM3.53095 6.36266C3.47315 6.75743 3.55768 7.10925 3.65044 7.3629C3.74522 7.62209 3.87654 7.85417 3.99645 8.04088C4.22013 8.38915 4.53054 8.75974 4.6231 8.88026L6.48518 7.45025C6.28504 7.18964 6.12549 7.01122 5.97195 6.77214C5.90325 6.66517 5.86914 6.594 5.85544 6.55652C5.83971 6.51351 5.87268 6.57528 5.85401 6.70278L3.53095 6.36266ZM4.61954 8.8756C5.26746 9.72807 6.06102 10.4593 6.96357 11.0354L8.22683 9.05638C7.55759 8.62918 6.96917 8.08702 6.48874 7.45491L4.61954 8.8756ZM6.96958 11.0392C7.14184 11.1477 7.53957 11.4167 7.95046 11.5908C8.33274 11.7528 9.08617 11.9928 9.83378 11.5835L8.7062 9.52413C8.82418 9.45953 8.92587 9.45959 8.95642 9.46222C8.97596 9.4639 8.9499 9.46442 8.8666 9.42912C8.78722 9.39547 8.69152 9.34479 8.57612 9.27573C8.45271 9.20188 8.35705 9.13837 8.22081 9.05256L6.96958 11.0392ZM9.83399 11.5833C10.2631 11.3483 10.532 11.0132 10.7009 10.7646C10.7854 10.6403 10.8578 10.5176 10.9105 10.4278C10.97 10.3267 11.0042 10.2682 11.0378 10.2173C11.1149 10.1005 11.0737 10.2095 10.9036 10.2818C10.6847 10.3748 10.5456 10.2965 10.6363 10.3336L11.524 8.16006C11.0658 7.9729 10.5241 7.89213 9.98562 8.12087C9.4959 8.3289 9.21819 8.71197 9.07815 8.92421C9.00324 9.03774 8.93381 9.15753 8.88652 9.23797C8.8326 9.3297 8.79521 9.39178 8.7589 9.44523C8.6863 9.55209 8.66975 9.5441 8.706 9.52424L9.83399 11.5833ZM10.6375 10.3341C11.1284 10.5339 11.5694 10.8063 12.1863 11.1388L13.3001 9.07195C12.8308 8.81902 12.1699 8.42303 11.5229 8.15958L10.6375 10.3341ZM12.1873 11.1393C12.3275 11.2147 12.3553 11.2516 12.3419 11.2365C12.3135 11.2048 12.2776 11.1419 12.2645 11.0718C12.2555 11.0236 12.2688 11.0286 12.2484 11.1362C12.2277 11.2454 12.1853 11.3973 12.1088 11.6298L14.3388 12.3641C14.4855 11.9185 14.6913 11.2759 14.5723 10.6401C14.4239 9.84683 13.8677 9.37716 13.2992 9.07145L12.1873 11.1393ZM12.1089 11.6293C12.1084 11.6307 12.108 11.6321 12.1075 11.6335C12.107 11.635 12.1066 11.6363 12.1061 11.6377C12.1057 11.6391 12.1052 11.6405 12.1048 11.6419C12.1043 11.6432 12.1039 11.6446 12.1034 11.6459C12.103 11.6473 12.1025 11.6486 12.1021 11.65C12.1016 11.6513 12.1012 11.6526 12.1008 11.654C12.1003 11.6553 12.0999 11.6566 12.0995 11.6579C12.099 11.6592 12.0986 11.6605 12.0982 11.6618C12.0978 11.6631 12.0973 11.6644 12.0969 11.6656C12.0965 11.6669 12.0961 11.6682 12.0957 11.6694C12.0953 11.6707 12.0948 11.6719 12.0944 11.6732C12.094 11.6744 12.0936 11.6756 12.0932 11.6769C12.0928 11.6781 12.0924 11.6793 12.092 11.6805C12.0916 11.6817 12.0912 11.6829 12.0908 11.6841C12.0901 11.6864 12.0893 11.6889 12.0885 11.6912C12.0876 11.694 12.0872 11.6953 12.0862 11.698C12.0859 11.6992 12.0855 11.7003 12.0851 11.7014C12.0848 11.7025 12.0844 11.7036 12.084 11.7047C12.0837 11.7058 12.0833 11.7069 12.083 11.708C12.0826 11.7091 12.0822 11.7101 12.0819 11.7112C12.0815 11.7123 12.0812 11.7133 12.0808 11.7144C12.0805 11.7155 12.0801 11.7165 12.0798 11.7175C12.0795 11.7186 12.0791 11.7196 12.0788 11.7206C12.0784 11.7217 12.0781 11.7227 12.0778 11.7237C12.0774 11.7247 12.0771 11.7257 12.0768 11.7267C12.0765 11.7277 12.0761 11.7287 12.0758 11.7296C12.0755 11.7306 12.0752 11.7316 12.0749 11.7325C12.0745 11.7335 12.0742 11.7345 12.0739 11.7354C12.0736 11.7364 12.0733 11.7373 12.073 11.7382C12.0727 11.7392 12.0724 11.7401 12.0721 11.741C12.0718 11.7419 12.0715 11.7429 12.0712 11.7438C12.0709 11.7447 12.0706 11.7456 12.0703 11.7465C12.07 11.7473 12.0697 11.7482 12.0694 11.7491C12.0691 11.75 12.0688 11.7509 12.0685 11.7517C12.0683 11.7526 12.068 11.7534 12.0677 11.7543C12.0674 11.7551 12.0671 11.756 12.0669 11.7568C12.0666 11.7576 12.0663 11.7585 12.066 11.7593C12.0658 11.7601 12.0655 11.7609 12.0652 11.7617C12.0645 11.7639 12.0644 11.7643 12.0637 11.7665C12.0634 11.7672 12.0632 11.768 12.0629 11.7688C12.0627 11.7695 12.0624 11.7703 12.0622 11.7711C12.0619 11.7718 12.0617 11.7725 12.0614 11.7733C12.0612 11.774 12.0609 11.7747 12.0607 11.7755C12.0605 11.7762 12.0602 11.7769 12.06 11.7776C12.0598 11.7783 12.0595 11.779 12.0593 11.7797C12.0591 11.7804 12.0588 11.7811 12.0586 11.7818C12.0584 11.7825 12.0582 11.7831 12.058 11.7838C12.0577 11.7845 12.0575 11.7851 12.0573 11.7858C12.0571 11.7865 12.0569 11.7871 12.0567 11.7877C12.0564 11.7884 12.0562 11.789 12.056 11.7897C12.0558 11.7903 12.0556 11.7909 12.0554 11.7915C12.0552 11.7921 12.055 11.7927 12.0548 11.7933C12.0546 11.7939 12.0544 11.7945 12.0542 11.7951C12.054 11.7957 12.0538 11.7963 12.0536 11.7969C12.0535 11.7975 12.0533 11.798 12.0531 11.7986C12.0525 11.8003 12.0525 11.8002 12.052 11.8019C12.0518 11.8024 12.0516 11.803 12.0515 11.8035C12.0513 11.804 12.0511 11.8045 12.051 11.805C12.0508 11.8056 12.0506 11.8061 12.0504 11.8066C12.0503 11.8071 12.0501 11.8076 12.05 11.808C12.0496 11.8091 12.0494 11.8099 12.049 11.8109C12.0489 11.8114 12.0487 11.8118 12.0486 11.8123C12.0484 11.8127 12.0483 11.8132 12.0481 11.8136C12.048 11.814 12.0478 11.8145 12.0477 11.8149C12.0476 11.8153 12.0474 11.8157 12.0473 11.8162C12.0472 11.8166 12.047 11.817 12.0469 11.8174C12.0468 11.8178 12.0466 11.8182 12.0465 11.8186C12.0464 11.819 12.0462 11.8193 12.0461 11.8197C12.046 11.8201 12.0459 11.8205 12.0457 11.8208C12.0456 11.8212 12.0455 11.8216 12.0454 11.8219C12.0453 11.8223 12.0452 11.8226 12.045 11.823C12.0449 11.8233 12.0448 11.8236 12.0447 11.824C12.0446 11.8243 12.0445 11.8246 12.0444 11.825C12.0441 11.8257 12.044 11.8261 12.0438 11.8268C12.0431 11.8288 12.0422 11.8315 12.0418 11.8328C12.0414 11.8339 12.0417 11.833 12.0414 11.834C12.0411 11.835 12.0414 11.8341 12.0411 11.8351C12.041 11.8352 12.0409 11.8354 12.0409 11.8355C12.0408 11.8357 12.0408 11.8358 12.0408 11.836C12.0407 11.8361 12.0407 11.8363 12.0406 11.8364C12.0406 11.8365 12.0405 11.8367 12.0405 11.8368C12.0404 11.8372 12.0404 11.8371 12.0403 11.8374C12.0402 11.8375 12.0402 11.8376 12.0402 11.8377C12.0401 11.8378 12.0401 11.8379 12.0401 11.838C12.0399 11.8385 12.04 11.8384 12.0398 11.8387C12.0398 11.8389 12.0398 11.8389 12.0398 11.839C13.5222 11.0917 14.2695 12.5742 14.2695 12.5742C14.2695 12.5742 14.2695 12.5742 14.2695 12.5742C14.2696 12.574 14.2695 12.5742 14.2696 12.574C14.2696 12.574 14.2696 12.5739 14.2696 12.5739C14.2696 12.5738 14.2696 12.5738 14.2697 12.5737C14.2698 12.5733 14.2696 12.5738 14.2698 12.5733C14.2698 12.5733 14.2698 12.5732 14.2699 12.5731C14.2699 12.573 14.2699 12.5729 14.2699 12.5729C14.2702 12.5722 14.2699 12.5729 14.2701 12.5723C14.2702 12.5721 14.2702 12.572 14.2703 12.5719C14.2703 12.5718 14.2703 12.5717 14.2704 12.5716C14.2704 12.5714 14.2705 12.5713 14.2705 12.5712C14.2705 12.571 14.2706 12.5709 14.2706 12.5707C14.2707 12.5706 14.2707 12.5705 14.2708 12.5703C14.2708 12.5701 14.2709 12.57 14.2709 12.5698C14.271 12.5697 14.271 12.5695 14.2711 12.5693C14.2712 12.5692 14.2712 12.569 14.2713 12.5688C14.2714 12.5685 14.2719 12.5669 14.272 12.5665C14.2721 12.5663 14.2722 12.5661 14.2723 12.5658C14.2723 12.5656 14.2724 12.5654 14.2725 12.5652C14.2725 12.5651 14.2729 12.5639 14.2729 12.5638C14.2738 12.5611 14.2741 12.5604 14.2751 12.5572C14.2754 12.5564 14.2754 12.5562 14.2757 12.5554C14.2758 12.5551 14.2759 12.5548 14.276 12.5544C14.2761 12.5541 14.2762 12.5538 14.2763 12.5535C14.2766 12.5526 14.2767 12.5523 14.277 12.5514C14.2771 12.5511 14.2772 12.5507 14.2774 12.5504C14.2775 12.55 14.2776 12.5497 14.2777 12.5493C14.2781 12.5482 14.2788 12.5461 14.2792 12.5449C14.2793 12.5445 14.2794 12.5441 14.2796 12.5437C14.2797 12.5433 14.2798 12.5429 14.2799 12.5425C14.2801 12.5421 14.2802 12.5417 14.2803 12.5413C14.2805 12.5409 14.2806 12.5405 14.2807 12.5401C14.2809 12.5397 14.281 12.5393 14.2812 12.5389C14.2813 12.5384 14.2814 12.538 14.2816 12.5376C14.2817 12.5371 14.2822 12.5356 14.2824 12.535C14.2826 12.5346 14.2827 12.5342 14.2829 12.5337C14.283 12.5333 14.2831 12.5328 14.2833 12.5324C14.2834 12.5319 14.2836 12.5315 14.2837 12.531C14.2839 12.5306 14.284 12.5301 14.2842 12.5297C14.2848 12.528 14.2854 12.5259 14.286 12.524C14.2862 12.5236 14.2864 12.5231 14.2865 12.5226C14.2867 12.5221 14.2868 12.5216 14.287 12.5211C14.2872 12.5206 14.2873 12.5201 14.2875 12.5196C14.2877 12.5192 14.2878 12.5187 14.288 12.5182C14.2881 12.5176 14.2883 12.5171 14.2885 12.5166C14.2886 12.5161 14.2888 12.5156 14.289 12.5151C14.2892 12.5146 14.2893 12.5141 14.2895 12.5136C14.2897 12.5131 14.2898 12.5125 14.29 12.512C14.2902 12.5115 14.2904 12.511 14.2905 12.5104C14.2907 12.5099 14.2909 12.5094 14.291 12.5089C14.2912 12.5083 14.2914 12.5078 14.2916 12.5072C14.2918 12.5067 14.2919 12.5062 14.2921 12.5056C14.2931 12.5027 14.2933 12.502 14.2943 12.499C14.2952 12.4962 14.2956 12.4952 14.2965 12.4922C14.2969 12.491 14.2973 12.49 14.2977 12.4887C14.2979 12.4882 14.2981 12.4876 14.2983 12.487C14.2985 12.4864 14.2986 12.4858 14.2988 12.4852C14.2994 12.4836 14.2995 12.4832 14.3 12.4816C14.3002 12.481 14.3004 12.4804 14.3006 12.4798C14.3008 12.4792 14.301 12.4786 14.3012 12.478C14.3014 12.4774 14.3016 12.4768 14.3018 12.4762C14.302 12.4756 14.3022 12.475 14.3024 12.4743C14.3026 12.4737 14.3028 12.4731 14.303 12.4725C14.3032 12.4719 14.3034 12.4713 14.3037 12.4706C14.3039 12.47 14.3041 12.4694 14.3043 12.4688C14.3045 12.4681 14.3047 12.4675 14.3049 12.4669C14.3051 12.4663 14.3053 12.4656 14.3055 12.465C14.3057 12.4644 14.3059 12.4637 14.3061 12.4631C14.3063 12.4625 14.3066 12.4618 14.3068 12.4612C14.307 12.4605 14.3072 12.4599 14.3074 12.4593C14.3076 12.4586 14.3078 12.458 14.308 12.4573C14.3082 12.4567 14.3085 12.4561 14.3087 12.4554C14.3092 12.4537 14.3094 12.4532 14.31 12.4515C14.3102 12.4509 14.3104 12.4502 14.3106 12.4496C14.3108 12.4489 14.311 12.4482 14.3112 12.4476C14.3115 12.4469 14.3117 12.4463 14.3119 12.4456C14.3121 12.445 14.3123 12.4443 14.3126 12.4436C14.3128 12.443 14.313 12.4423 14.3132 12.4416C14.3134 12.441 14.3137 12.4403 14.3139 12.4396C14.3141 12.439 14.3143 12.4383 14.3145 12.4376C14.3148 12.437 14.315 12.4363 14.3152 12.4356C14.3154 12.4349 14.3156 12.4343 14.3159 12.4336C14.3161 12.4329 14.3163 12.4323 14.3165 12.4316C14.3168 12.4309 14.317 12.4302 14.3172 12.4295C14.3174 12.4289 14.3176 12.4282 14.3179 12.4275C14.3181 12.4268 14.3183 12.4261 14.3185 12.4255C14.3188 12.4248 14.319 12.4241 14.3192 12.4234C14.3194 12.4227 14.3197 12.422 14.3199 12.4214C14.3201 12.4207 14.3203 12.42 14.3206 12.4193C14.3211 12.4177 14.3214 12.4167 14.3219 12.4152C14.3222 12.4145 14.3224 12.4138 14.3226 12.4131C14.3229 12.4124 14.3231 12.4117 14.3233 12.411C14.3235 12.4103 14.3238 12.4096 14.324 12.4089C14.3242 12.4082 14.3245 12.4075 14.3247 12.4068C14.3249 12.4062 14.3251 12.4055 14.3254 12.4048C14.3256 12.4041 14.3258 12.4034 14.3261 12.4027C14.3263 12.402 14.3265 12.4013 14.3268 12.4006C14.327 12.3999 14.3272 12.3992 14.3274 12.3985C14.3277 12.3978 14.3279 12.3971 14.3281 12.3964C14.3284 12.3957 14.3286 12.395 14.3288 12.3943C14.3291 12.3936 14.3293 12.3928 14.3295 12.3921C14.3298 12.3914 14.33 12.3907 14.3302 12.39C14.3305 12.3893 14.3307 12.3886 14.3309 12.3879C14.3312 12.3872 14.3314 12.3865 14.3316 12.3858C14.3319 12.3851 14.3321 12.3844 14.3323 12.3837C14.3326 12.383 14.3328 12.3823 14.333 12.3816C14.3333 12.3809 14.3335 12.3801 14.3337 12.3794C14.334 12.3787 14.3342 12.378 14.3344 12.3773C14.3347 12.3766 14.3349 12.3759 14.3351 12.3752C14.3354 12.3745 14.3356 12.3738 14.3358 12.3731C14.3361 12.3724 14.3363 12.3716 14.3365 12.3709C14.3368 12.3702 14.337 12.3695 14.3372 12.3688C14.3375 12.3681 14.3377 12.3674 14.3379 12.3667C14.3382 12.366 14.3384 12.3653 14.3386 12.3646C14.3389 12.3638 14.3391 12.3631 14.3393 12.3624C14.3396 12.3617 14.3398 12.361 14.34 12.3603C14.3403 12.3596 14.3405 12.3589 14.3407 12.3582C14.341 12.3575 14.3412 12.3568 14.3414 12.356C14.3417 12.3553 14.3419 12.3546 14.3421 12.3539C14.3424 12.3532 14.3426 12.3525 14.3428 12.3518C14.3432 12.3507 14.3439 12.3486 14.3442 12.3475C14.3445 12.3468 14.3447 12.3461 14.3449 12.3454C14.3452 12.3447 14.3454 12.344 14.3456 12.3433C14.3459 12.3426 14.3461 12.3419 14.3463 12.3412C14.3466 12.3405 14.3468 12.3398 14.347 12.3391C14.3478 12.3368 14.3491 12.3329 14.3498 12.3306C14.35 12.3299 14.3503 12.3292 14.3505 12.3285C14.3507 12.3278 14.351 12.3271 14.3512 12.3264C14.3514 12.3257 14.3517 12.325 14.3519 12.3244C14.3521 12.3237 14.3523 12.323 14.3526 12.3223C14.3528 12.3216 14.353 12.3209 14.3533 12.3202C14.3535 12.3195 14.3537 12.3188 14.354 12.3181C14.3542 12.3174 14.3544 12.3167 14.3546 12.316C14.3549 12.3153 14.3551 12.3146 14.3553 12.3139C14.3555 12.3132 14.3558 12.3126 14.356 12.3119C14.3562 12.3112 14.3565 12.3105 14.3567 12.3098C14.3569 12.3091 14.3571 12.3084 14.3574 12.3077C14.3576 12.3071 14.3578 12.3064 14.358 12.3057C14.3583 12.305 14.3585 12.3043 14.3587 12.3036C14.3589 12.303 14.3592 12.3023 14.3594 12.3016C14.3596 12.3009 14.3598 12.3002 14.3601 12.2996C14.3603 12.2989 14.3605 12.2982 14.3607 12.2975C14.368 12.2754 14.3745 12.2559 14.3807 12.2369C14.3809 12.2363 14.3811 12.2357 14.3813 12.2352C14.3815 12.2346 14.3817 12.234 14.3819 12.2335C14.382 12.2329 14.3822 12.2323 14.3824 12.2318C14.3826 12.2312 14.3828 12.2306 14.383 12.2301C14.3834 12.2287 14.3836 12.2281 14.3841 12.2267C14.3843 12.2262 14.3844 12.2257 14.3846 12.2251C14.3848 12.2246 14.385 12.224 14.3851 12.2235C14.3853 12.2229 14.3855 12.2224 14.3857 12.2219C14.3859 12.2213 14.386 12.2208 14.3862 12.2203C14.3864 12.2197 14.3866 12.2192 14.3867 12.2187C14.3869 12.2181 14.3871 12.2176 14.3873 12.2171C14.3874 12.2166 14.3876 12.2161 14.3878 12.2155C14.3879 12.215 14.3881 12.2145 14.3883 12.214C14.3884 12.2135 14.3886 12.213 14.3888 12.2125C14.3889 12.212 14.3891 12.2115 14.3893 12.211C14.3894 12.2105 14.3896 12.21 14.3898 12.2095C14.3899 12.209 14.3901 12.2085 14.3903 12.208C14.3904 12.2075 14.3906 12.207 14.3907 12.2065C14.3909 12.206 14.3911 12.2055 14.3912 12.2051C14.3914 12.2046 14.3915 12.2041 14.3917 12.2036C14.3918 12.2032 14.392 12.2027 14.3922 12.2022C14.3923 12.2018 14.3925 12.2013 14.3926 12.2008C14.3928 12.2004 14.3929 12.1999 14.3931 12.1994C14.3932 12.199 14.3934 12.1985 14.3935 12.1981C14.3937 12.1976 14.3938 12.1972 14.394 12.1967C14.3941 12.1963 14.3943 12.1958 14.3944 12.1954C14.3946 12.195 14.3947 12.1945 14.3948 12.1941C14.3953 12.1927 14.3952 12.1928 14.3957 12.1915C14.3958 12.1911 14.396 12.1907 14.3961 12.1903C14.3962 12.1898 14.3964 12.1894 14.3965 12.189C14.3966 12.1886 14.3968 12.1882 14.3969 12.1878C14.397 12.1874 14.3972 12.187 14.3973 12.1866C14.3974 12.1862 14.3976 12.1858 14.3977 12.1854C14.3978 12.185 14.398 12.1846 14.3981 12.1842C14.3987 12.1824 14.399 12.1815 14.3996 12.1798C14.3998 12.1792 14.4001 12.1783 14.4002 12.1777C14.4007 12.1764 14.4005 12.1769 14.4009 12.1757C14.401 12.1753 14.4011 12.175 14.4012 12.1747C14.4013 12.1744 14.4015 12.174 14.4016 12.1737C14.4017 12.1734 14.4018 12.1731 14.4019 12.1728C14.402 12.1725 14.4021 12.1722 14.4022 12.1719C14.4023 12.1716 14.4024 12.1713 14.4025 12.171C14.4026 12.1707 14.4027 12.1704 14.4028 12.1701C14.4028 12.1698 14.4029 12.1695 14.403 12.1692C14.4031 12.169 14.4032 12.1687 14.4033 12.1684C14.4033 12.1684 14.4038 12.1668 14.4038 12.1668C14.4039 12.1666 14.404 12.1663 14.4041 12.1661C14.4042 12.1658 14.4042 12.1656 14.4043 12.1653C14.4047 12.1642 14.4044 12.165 14.4048 12.1639C14.4049 12.1637 14.4049 12.1635 14.405 12.1633C14.4051 12.163 14.4051 12.1628 14.4052 12.1626C14.4053 12.1624 14.4054 12.1622 14.4054 12.162C14.4055 12.1618 14.4056 12.1616 14.4056 12.1614C14.4058 12.1609 14.4058 12.1607 14.406 12.1603C14.4071 12.1568 14.4073 12.1564 14.4077 12.1551C14.4077 12.1551 14.4077 12.155 14.4077 12.155C14.4077 12.155 14.4077 12.155 14.4077 12.1549C14.4078 12.1549 14.4078 12.1549 14.4078 12.1549C14.4078 12.1549 13.6605 10.6724 12.178 11.4197C12.178 11.4197 12.178 11.4198 12.1779 11.4199C12.1779 11.4201 12.1778 11.4203 12.1777 11.4206C12.1774 11.4215 12.1776 11.4209 12.1773 11.4219C12.1773 11.422 12.1772 11.4221 12.1772 11.4222C12.1771 11.4224 12.1771 11.4225 12.177 11.4227C12.177 11.4228 12.1769 11.4229 12.1769 11.4231C12.1768 11.4233 12.1768 11.4234 12.1767 11.4236C12.1766 11.4241 12.1762 11.4251 12.176 11.4258C12.1757 11.4267 12.1754 11.4275 12.1751 11.4286C12.175 11.4289 12.1742 11.4313 12.174 11.4318C12.1739 11.4321 12.1738 11.4324 12.1737 11.4327C12.1736 11.4331 12.1735 11.4334 12.1734 11.4337C12.1733 11.434 12.1729 11.4353 12.1727 11.4357C12.1726 11.436 12.1725 11.4364 12.1724 11.4367C12.1723 11.4371 12.1722 11.4374 12.172 11.4378C12.1719 11.4382 12.1718 11.4385 12.1717 11.4389C12.1716 11.4393 12.1714 11.4397 12.1713 11.4401C12.1712 11.4404 12.1706 11.4421 12.1705 11.4425C12.1704 11.4429 12.1702 11.4433 12.1701 11.4437C12.1699 11.4442 12.1698 11.4446 12.1697 11.445C12.1695 11.4455 12.1694 11.4459 12.1692 11.4464C12.1691 11.4468 12.1689 11.4473 12.1688 11.4477C12.1686 11.4482 12.1685 11.4487 12.1683 11.4491C12.1681 11.4496 12.168 11.4501 12.1678 11.4506C12.1677 11.4511 12.1675 11.4516 12.1673 11.4521C12.1672 11.4526 12.167 11.4531 12.1668 11.4536C12.1663 11.4553 12.1664 11.455 12.1658 11.4567C12.1654 11.4579 12.1651 11.4589 12.1647 11.46C12.1644 11.4611 12.1639 11.4624 12.1636 11.4635C12.1634 11.4641 12.1632 11.4647 12.163 11.4653C12.1628 11.4659 12.1626 11.4665 12.1624 11.4671C12.1622 11.4677 12.162 11.4684 12.1618 11.469C12.1616 11.4696 12.1613 11.4703 12.1611 11.4709C12.1609 11.4715 12.1607 11.4722 12.1605 11.4728C12.1603 11.4735 12.1601 11.4742 12.1598 11.4748C12.1596 11.4755 12.1594 11.4762 12.1592 11.4768C12.1589 11.4775 12.1587 11.4782 12.1585 11.4789C12.1583 11.4796 12.158 11.4803 12.1578 11.481C12.1576 11.4817 12.1573 11.4824 12.1571 11.4832C12.1568 11.4839 12.1566 11.4846 12.1564 11.4854C12.1561 11.4861 12.1559 11.4868 12.1556 11.4876C12.1554 11.4883 12.1551 11.4891 12.1549 11.4899C12.1546 11.4906 12.1544 11.4914 12.1541 11.4922C12.1539 11.4929 12.1536 11.4937 12.1533 11.4945C12.1531 11.4953 12.1528 11.4961 12.1526 11.4969C12.1523 11.4977 12.152 11.4985 12.1518 11.4994C12.1515 11.5002 12.1512 11.501 12.1509 11.5018C12.1507 11.5027 12.1504 11.5035 12.1501 11.5044C12.1498 11.5052 12.1495 11.5061 12.1493 11.5069C12.149 11.5078 12.1487 11.5087 12.1484 11.5095C12.1481 11.5104 12.1478 11.5113 12.1475 11.5122C12.1472 11.5133 12.1461 11.5164 12.1457 11.5176C12.1454 11.5185 12.1451 11.5195 12.1448 11.5204C12.1445 11.5213 12.1442 11.5223 12.1439 11.5232C12.1436 11.5242 12.1433 11.5251 12.1429 11.5261C12.1426 11.5271 12.1423 11.528 12.142 11.529C12.1417 11.53 12.1413 11.531 12.141 11.532C12.1407 11.533 12.1403 11.534 12.14 11.535C12.1397 11.536 12.1393 11.537 12.139 11.538C12.1387 11.539 12.1383 11.5401 12.138 11.5411C12.1376 11.5421 12.1373 11.5432 12.137 11.5442C12.1366 11.5453 12.1363 11.5464 12.1359 11.5474C12.1355 11.5485 12.1352 11.5496 12.1348 11.5506C12.1345 11.5517 12.1341 11.5528 12.1338 11.5539C12.1334 11.555 12.133 11.5561 12.1327 11.5572C12.1323 11.5584 12.1319 11.5595 12.1316 11.5606C12.1312 11.5617 12.1308 11.5629 12.1304 11.564C12.13 11.5652 12.1297 11.5663 12.1293 11.5675C12.1289 11.5686 12.1285 11.5698 12.1281 11.571C12.1277 11.5722 12.1274 11.5733 12.127 11.5745C12.1266 11.5757 12.1262 11.5769 12.1258 11.5781C12.1254 11.5793 12.125 11.5806 12.1246 11.5818C12.1242 11.583 12.1238 11.5842 12.1234 11.5855C12.1229 11.5867 12.1225 11.588 12.1221 11.5892C12.1217 11.5905 12.1213 11.5917 12.1209 11.593C12.1204 11.5943 12.12 11.5956 12.1196 11.5969C12.1192 11.5981 12.1187 11.5994 12.1183 11.6007C12.1179 11.602 12.1175 11.6034 12.117 11.6047C12.1166 11.606 12.1161 11.6073 12.1157 11.6087C12.1153 11.61 12.1148 11.6113 12.1144 11.6127C12.1139 11.614 12.1135 11.6154 12.113 11.6168C12.1126 11.6181 12.1121 11.6195 12.1117 11.6209C12.1112 11.6223 12.1108 11.6237 12.1103 11.6251C12.1098 11.6265 12.1094 11.6279 12.1089 11.6293L14.3386 12.3646C14.3647 12.2855 14.3343 12.3776 14.359 12.3027C14.3838 12.2277 14.352 12.324 14.3755 12.2528C14.4023 12.1715 14.3753 12.2534 14.3976 12.1858C14.41 12.1481 14.3985 12.1831 14.407 12.1571C14.4077 12.1552 14.4068 12.1577 14.4074 12.1559C14.4076 12.1554 14.4076 12.1555 14.4077 12.1552C14.4077 12.155 14.4078 12.1549 14.4078 12.1549C12.9253 12.9021 12.178 11.4197 12.178 11.4197C12.178 11.4197 12.178 11.4197 12.178 11.4197C12.1779 11.4199 12.178 11.4196 12.178 11.4199C12.1779 11.4199 12.1779 11.4199 12.1779 11.42C12.1779 11.42 12.1779 11.4201 12.1779 11.4201C12.1777 11.4205 12.1779 11.4201 12.1777 11.4205C12.1774 11.4216 12.1778 11.4204 12.1774 11.4216C12.1768 11.4234 12.177 11.4227 12.1762 11.4251C12.1573 11.4825 12.1503 11.5038 12.1089 11.6293C12.0803 11.7159 12.0477 11.815 12.0415 11.8336C12.0404 11.8371 12.0402 11.8375 12.0398 11.8388C12.0398 11.8388 12.0398 11.8388 12.0398 11.8389C12.0398 11.8389 12.0398 11.8389 12.0398 11.8389C12.0398 11.8389 12.0398 11.839 12.0398 11.839C12.0398 11.839 12.787 13.3215 14.2695 12.5742C14.2695 12.5742 14.2695 12.5741 14.2696 12.574C14.2696 12.5738 14.2697 12.5736 14.2698 12.5732C14.2701 12.5724 14.2699 12.573 14.2702 12.572C14.2745 12.5589 14.2715 12.5681 14.2797 12.5433C14.299 12.4847 14.2997 12.4827 14.3386 12.3646L12.1089 11.6293Z" fill="white" mask="url(#path-1-outside-1_7_31)"/>
</svg>
