<svg width="13" height="13" viewBox="0 0 13 13" fill="none" xmlns="http://www.w3.org/2000/svg">
<path d="M4.58375 10.3729H4.30808C2.10269 10.3729 1 9.82154 1 7.06481V4.30808C1 2.10269 2.10269 1 4.30808 1H8.71884C10.9242 1 12.0269 2.10269 12.0269 4.30808V7.06481C12.0269 9.27019 10.9242 10.3729 8.71884 10.3729H8.44317C8.27225 10.3729 8.10685 10.4556 8.00209 10.5934L7.17507 11.6961C6.81119 12.1813 6.21573 12.1813 5.85184 11.6961L5.02483 10.5934C4.93661 10.4721 4.73261 10.3729 4.58375 10.3729V10.3729Z" stroke="#098482" stroke-width="0.827019" stroke-miterlimit="10" stroke-linecap="round" stroke-linejoin="round"/>
<path d="M8.71674 5.96213H8.72225M6.5108 5.96213H6.51632M4.30542 5.96213H4.30983" stroke="#098482" stroke-width="1.10269" stroke-linecap="round" stroke-linejoin="round"/>
</svg>
