<svg width="16" height="17" viewBox="0 0 16 17" fill="none" xmlns="http://www.w3.org/2000/svg">
<path d="M6.52108 7.54411H0.644616C0.350792 7.54411 0.102173 7.29549 0.102173 7.00167V1.12521C0.102173 0.831383 0.350792 0.582764 0.644616 0.582764H6.52108C6.8149 0.582764 7.06352 0.831383 7.06352 1.12521V7.00167C7.06352 7.29549 6.8149 7.54411 6.52108 7.54411ZM1.18706 6.45923H5.97864V1.66765H1.18706V6.45923Z" fill="black"/>
<path d="M15.0003 7.54411H9.1238C8.82998 7.54411 8.58136 7.29549 8.58136 7.00167V1.12521C8.58136 0.831383 8.82998 0.582764 9.1238 0.582764H15.0003C15.2941 0.582764 15.5427 0.831383 15.5427 1.12521V7.00167C15.5427 7.29549 15.2941 7.54411 15.0003 7.54411ZM9.66625 6.45923H14.4578V1.66765H9.66625V6.45923Z" fill="black"/>
<path d="M6.52105 16.0233H0.644585C0.350762 16.0233 0.102142 15.7747 0.102142 15.4809V9.60442C0.102142 9.3106 0.350762 9.06198 0.644585 9.06198H6.52105C6.81487 9.06198 7.06349 9.3106 7.06349 9.60442V15.4809C7.06349 15.7747 6.81487 16.0233 6.52105 16.0233ZM1.18703 14.9384H5.97861V10.1469H1.18703V14.9384Z" fill="black"/>
<path d="M15.0003 16.0233H9.1238C8.82998 16.0233 8.58136 15.7747 8.58136 15.4809V9.60442C8.58136 9.3106 8.82998 9.06198 9.1238 9.06198H15.0003C15.2941 9.06198 15.5427 9.3106 15.5427 9.60442V15.4809C15.5427 15.7747 15.2941 16.0233 15.0003 16.0233ZM9.66625 14.9384H14.4578V10.1469H9.66625V14.9384Z" fill="black"/>
</svg>
