<svg width="19" height="14" viewBox="0 0 19 14" fill="none" xmlns="http://www.w3.org/2000/svg">
<path d="M1.80359 8.06556H17.0535C17.3063 8.06556 17.5488 7.96515 17.7275 7.7864C17.9063 7.60766 18.0067 7.36522 18.0067 7.11244C18.0067 6.85966 17.9063 6.61723 17.7275 6.43848C17.5488 6.25974 17.3063 6.15932 17.0535 6.15932H1.80359C1.5508 6.15932 1.30837 6.25974 1.12963 6.43848C0.950882 6.61723 0.850464 6.85966 0.850464 7.11244C0.850464 7.36522 0.950882 7.60766 1.12963 7.7864C1.30837 7.96515 1.5508 8.06556 1.80359 8.06556ZM1.80359 2.34683H17.0535C17.3063 2.34683 17.5488 2.24641 17.7275 2.06766C17.9063 1.88892 18.0067 1.64649 18.0067 1.3937C18.0067 1.14092 17.9063 0.898491 17.7275 0.719745C17.5488 0.541 17.3063 0.440582 17.0535 0.440582H1.80359C1.5508 0.440582 1.30837 0.541 1.12963 0.719745C0.950882 0.898491 0.850464 1.14092 0.850464 1.3937C0.850464 1.64649 0.950882 1.88892 1.12963 2.06766C1.30837 2.24641 1.5508 2.34683 1.80359 2.34683ZM1.80359 13.7843H17.0535C17.3063 13.7843 17.5488 13.6839 17.7275 13.5051C17.9063 13.3264 18.0067 13.084 18.0067 12.8312C18.0067 12.5784 17.9063 12.336 17.7275 12.1572C17.5488 11.9785 17.3063 11.8781 17.0535 11.8781H1.80359C1.5508 11.8781 1.30837 11.9785 1.12963 12.1572C0.950882 12.336 0.850464 12.5784 0.850464 12.8312C0.850464 13.084 0.950882 13.3264 1.12963 13.5051C1.30837 13.6839 1.5508 13.7843 1.80359 13.7843Z" fill="#A3A3A3"/>
</svg>
