<svg width="19" height="19" viewBox="0 0 19 19" fill="none" xmlns="http://www.w3.org/2000/svg">
<path d="M9.49771 19C8.25 19.0021 7.01416 18.7577 5.86113 18.2809C4.7081 17.8041 3.66059 17.1043 2.77873 16.2216C-0.926245 12.5167 -0.926245 6.48865 2.77873 2.78367C4.57345 0.988957 6.95957 0 9.49771 0C12.0359 0 14.422 0.988197 16.2167 2.78367C19.9217 6.48865 19.9217 12.5167 16.2167 16.2216C15.3348 17.1043 14.2873 17.8041 13.1343 18.2809C11.9813 18.7577 10.7454 19.0021 9.49771 19ZM9.49771 1.5203C7.36549 1.5203 5.36173 2.35039 3.85359 3.85853C2.34545 5.36667 1.51612 7.37043 1.51612 9.50265C1.51612 11.6349 2.34621 13.6386 3.85359 15.1468C6.96641 18.2581 12.0305 18.2581 15.1418 15.1468C16.6492 13.6386 17.4793 11.6341 17.4793 9.50265C17.4793 7.37119 16.6492 5.36667 15.1418 3.85853C13.6345 2.35039 11.6299 1.5203 9.49771 1.5203Z" fill="#9E9E9E"/>
<path d="M7.75088 13.7565C7.60039 13.7568 7.4532 13.7124 7.32799 13.6289C7.20278 13.5455 7.10519 13.4267 7.0476 13.2877C6.99002 13.1486 6.97504 12.9956 7.00457 12.8481C7.0341 12.7005 7.1068 12.565 7.21345 12.4589L10.1697 9.50266L7.21345 6.54643C7.14287 6.47585 7.08689 6.39206 7.04869 6.29985C7.0105 6.20764 6.99084 6.10881 6.99084 6.009C6.99084 5.90919 7.0105 5.81036 7.04869 5.71815C7.08689 5.62593 7.14287 5.54215 7.21345 5.47157C7.28402 5.401 7.36781 5.34501 7.46002 5.30682C7.55223 5.26862 7.65107 5.24896 7.75088 5.24896C7.85069 5.24896 7.94952 5.26862 8.04173 5.30682C8.13394 5.34501 8.21773 5.401 8.2883 5.47157L11.782 8.96523C11.8526 9.03576 11.9087 9.11953 11.9469 9.21175C11.9852 9.30397 12.0048 9.40282 12.0048 9.50266C12.0048 9.60249 11.9852 9.70134 11.9469 9.79356C11.9087 9.88578 11.8526 9.96955 11.782 10.0401L8.2883 13.5337C8.21781 13.6044 8.13404 13.6605 8.04181 13.6987C7.94958 13.7369 7.85071 13.7566 7.75088 13.7565Z" fill="#9E9E9E"/>
</svg>
