<svg width="30" height="30" viewBox="0 0 30 30" fill="none" xmlns="http://www.w3.org/2000/svg">
<circle cx="15" cy="15" r="15" fill="white"/>
<path d="M27.3077 8.33789C26.3933 8.73669 25.4263 9.00173 24.4363 9.12485C25.4795 8.50596 26.2595 7.52596 26.6286 6.37049C25.6517 6.94983 24.583 7.3578 23.4686 7.57676C22.7853 6.84719 21.8984 6.33998 20.9231 6.12102C19.9478 5.90207 18.9292 5.98148 17.9996 6.34895C17.07 6.71643 16.2725 7.35497 15.7105 8.18162C15.1486 9.00827 14.8482 9.98482 14.8485 10.9844C14.8485 11.3794 14.8819 11.7592 14.9639 12.1208C12.9815 12.0236 11.0418 11.5091 9.27184 10.6108C7.50185 9.71262 5.94137 8.45095 4.69242 6.9083C4.05255 8.00497 3.85473 9.30429 4.13924 10.5417C4.42376 11.7791 5.16921 12.8615 6.2238 13.5686C5.43496 13.5474 4.66276 13.3369 3.97231 12.9548V13.0095C3.97363 14.1602 4.37136 15.2754 5.09854 16.1672C5.82572 17.059 6.83795 17.6731 7.96484 17.906C7.53852 18.0184 7.09916 18.0735 6.6583 18.0701C6.34168 18.0757 6.02537 18.0472 5.71486 17.985C6.03685 18.9741 6.65753 19.839 7.49144 20.4607C8.32535 21.0824 9.33148 21.4302 10.3713 21.4564C8.60738 22.836 6.4319 23.5843 4.1926 23.5818C3.78392 23.5818 3.39196 23.5636 3 23.5135C5.27866 24.9819 7.93396 25.7586 10.6448 25.7498C19.8148 25.7498 24.8283 18.1536 24.8283 11.5693C24.8283 11.349 24.8207 11.1363 24.8101 10.9251C25.7929 10.2217 26.6393 9.34496 27.3077 8.33789V8.33789Z" fill="#03A9F4"/>
</svg>
