<svg width="30" height="30" viewBox="0 0 30 30" fill="none" xmlns="http://www.w3.org/2000/svg">
<path d="M25.629 4.35962C22.8086 1.54991 19.0584 0.00171426 15.0628 0C6.82918 0 0.128704 6.66844 0.125407 14.8649C0.124448 17.4849 0.812097 20.0425 2.11913 22.2969L0 30L7.91847 27.9329C10.1002 29.1174 12.5566 29.7416 15.0563 29.7426H15.0627H15.0628C23.295 29.7426 29.9965 23.073 30 14.8769C30.0014 10.9046 28.449 7.16951 25.629 4.35962V4.35962ZM15.0628 27.2319H15.0579C12.8298 27.2307 10.6448 26.6352 8.7389 25.5093L8.28534 25.2416L3.58636 26.4682L4.84092 21.9088L4.54541 21.4414C3.30253 19.474 2.64639 17.2004 2.64733 14.8658C2.65006 8.05322 8.21924 2.51083 15.0675 2.51083C18.3837 2.5122 21.5006 3.79908 23.8448 6.13442C26.1889 8.46973 27.4788 11.5742 27.4779 14.8759C27.475 21.6887 21.9056 27.2319 15.0628 27.2319V27.2319Z" fill="#E0E0E0"/>
<path d="M0.685547 29.1453L2.70788 21.794C1.46023 19.6426 0.804116 17.2017 0.804903 14.7018C0.808174 6.87994 7.20264 0.516296 15.0594 0.516296C18.8727 0.518011 22.4517 1.99541 25.1426 4.67684C27.8341 7.35824 29.3155 10.9224 29.3139 14.7129C29.3107 22.535 22.9158 28.8992 15.06 28.8992C15.0594 28.8992 15.0604 28.8992 15.06 28.8992H15.0537C12.6681 28.8984 10.324 28.3023 8.24216 27.1727L0.685547 29.1453V29.1453Z" fill="url(#paint0_linear_1269_626)"/>
<path fill-rule="evenodd" clip-rule="evenodd" d="M11.3711 8.55401C11.0947 7.94234 10.8038 7.9301 10.5409 7.91939C10.3258 7.91021 10.0796 7.91077 9.83383 7.91077C9.58784 7.91077 9.1881 8.0028 8.85006 8.37034C8.51182 8.73788 7.55859 9.62638 7.55859 11.4334C7.55859 13.2407 8.88081 14.9869 9.0651 15.2322C9.2496 15.4771 11.6175 19.3039 15.3675 20.7762C18.4841 21.9997 19.1183 21.7563 19.7948 21.6951C20.4713 21.6339 21.9776 20.8068 22.2851 19.9491C22.5926 19.0915 22.5926 18.3565 22.5004 18.2028C22.4081 18.0498 22.1621 17.9579 21.7931 17.7743C21.4241 17.5906 19.6103 16.7019 19.2721 16.5795C18.9338 16.457 18.6879 16.3958 18.4419 16.7635C18.1959 17.1309 17.4892 17.9579 17.274 18.2028C17.0587 18.4483 16.8435 18.4789 16.4745 18.2952C16.1055 18.111 14.9172 17.7236 13.5076 16.4723C12.4108 15.4988 11.6703 14.2965 11.4551 13.9288C11.2398 13.5615 11.432 13.3625 11.6171 13.1794C11.7827 13.0149 11.9861 12.7507 12.1706 12.5362C12.3547 12.3217 12.4162 12.1686 12.5392 11.9237C12.6622 11.6785 12.6007 11.464 12.5084 11.2803C12.4162 11.0967 11.6991 9.28027 11.3711 8.55401V8.55401Z" fill="white"/>
<path d="M25.5066 4.31239C22.7187 1.53494 19.0115 0.00454637 15.0618 0.00280762C6.92266 0.00280762 0.299103 6.59469 0.295831 14.6971C0.294871 17.287 0.974624 19.8152 2.26665 22.0437L0.171875 29.6584L7.99945 27.6151C10.1561 28.786 12.5843 29.403 15.0554 29.4039H15.0617H15.0618C23.1995 29.4039 29.824 22.8109 29.8275 14.7089C29.8288 10.7822 28.2943 7.09004 25.5066 4.31239V4.31239ZM15.0618 26.9221H15.057C12.8544 26.921 10.6944 26.3323 8.81046 25.2193L8.36209 24.9547L3.71705 26.1671L4.9572 21.6601L4.66508 21.1981C3.43647 19.2533 2.78786 17.0058 2.78882 14.698C2.7915 7.96363 8.29675 2.48487 15.0664 2.48487C18.3446 2.48621 21.4257 3.75832 23.743 6.06684C26.0602 8.37537 27.3353 11.4442 27.3343 14.708C27.3314 21.4426 21.826 26.9221 15.0618 26.9221Z" fill="white"/>
<defs>
<linearGradient id="paint0_linear_1269_626" x1="14.9998" y1="29.1453" x2="14.9998" y2="0.516344" gradientUnits="userSpaceOnUse">
<stop stop-color="#20B038"/>
<stop offset="1" stop-color="#60D66A"/>
</linearGradient>
</defs>
</svg>
