<svg width="15" height="17" viewBox="0 0 15 17" fill="none" xmlns="http://www.w3.org/2000/svg">
<path d="M8.57846 15.0914L7.52048 15.7742C6.53753 16.382 5.1719 15.6992 5.1719 14.4837V10.4693C5.1719 9.93658 4.87177 9.25377 4.56413 8.8786L1.68281 5.84721C1.30014 5.46454 1 4.78923 1 4.33152V2.59073C1 1.68281 1.68281 1 2.51569 1H7.52048H12.5253C13.3581 1 14.041 1.68281 14.041 2.51569V4.18145C14.041 4.78923 13.6583 5.54708 13.2831 5.92225" stroke="#C2C2C2" stroke-miterlimit="10" stroke-linecap="round" stroke-linejoin="round"/>
<path d="M11.332 8.41342L8.67579 11.0696C8.57074 11.1747 8.4732 11.3698 8.45069 11.5123L8.30812 12.5253C8.2556 12.893 8.51071 13.1481 8.87838 13.0956L9.89134 12.953C10.0339 12.9305 10.2365 12.8329 10.334 12.7279L12.9903 10.0717C13.448 9.61397 13.6656 9.08123 12.9903 8.40592C12.3225 7.73811 11.7897 7.95571 11.332 8.41342Z" stroke="#642DDA" stroke-miterlimit="10" stroke-linecap="round" stroke-linejoin="round"/>
<path d="M10.957 8.78857C11.1821 9.59894 11.8124 10.2292 12.6228 10.4543" stroke="#642DDA" stroke-miterlimit="10" stroke-linecap="round" stroke-linejoin="round"/>
</svg>
