<svg width="14" height="15" viewBox="0 0 14 15" fill="none" xmlns="http://www.w3.org/2000/svg">
<path d="M14 7.30161C14 6.71432 13.9523 6.28575 13.8492 5.84131H7.14282V8.49207H11.0793C11 9.15082 10.5714 10.1429 9.61899 10.8095L9.60564 10.8983L11.7261 12.5409L11.873 12.5556C13.2222 11.3095 14 9.4762 14 7.30161Z" fill="#4285F4"/>
<path d="M7.14257 14.2853C9.07111 14.2853 10.6901 13.6504 11.8727 12.5552L9.61874 10.8091C9.01557 11.2297 8.20603 11.5234 7.14257 11.5234C5.25369 11.5234 3.65053 10.2774 3.07904 8.55518L2.99528 8.56229L0.790431 10.2686L0.761597 10.3488C1.93619 12.6821 4.34889 14.2853 7.14257 14.2853Z" fill="#34A853"/>
<path d="M3.07933 8.55519C2.92854 8.11075 2.84128 7.63453 2.84128 7.14249C2.84128 6.6504 2.92854 6.17422 3.0714 5.72979L3.06741 5.63513L0.834929 3.90137L0.761886 3.93611C0.277781 4.90438 0 5.9917 0 7.14249C0 8.29328 0.277781 9.38055 0.761886 10.3488L3.07933 8.55519Z" fill="#FBBC05"/>
<path d="M7.14256 2.76189C8.48381 2.76189 9.38856 3.34125 9.90445 3.82541L11.9203 1.85714C10.6823 0.706352 9.07111 0 7.14256 0C4.34889 0 1.93619 1.60316 0.761597 3.93648L3.07111 5.73015C3.65053 4.00793 5.25369 2.76189 7.14256 2.76189" fill="#EB4335"/>
</svg>
