<svg width="26" height="26" viewBox="0 0 26 26" fill="none" xmlns="http://www.w3.org/2000/svg">
<path opacity="0.4" d="M13 26C20.1799 26 26 20.1799 26 13C26 5.8201 20.1799 0 13 0C5.8201 0 0 5.8201 0 13C0 20.1799 5.8201 26 13 26Z" fill="white"/>
<path d="M14.3782 12.9999L17.3682 10.0099C17.7452 9.63289 17.7452 9.00889 17.3682 8.63189C17.1847 8.45057 16.9371 8.34888 16.6792 8.34888C16.4212 8.34888 16.1736 8.45057 15.9902 8.63189L13.0002 11.6219L10.0102 8.63189C9.82668 8.45057 9.57912 8.34888 9.32116 8.34888C9.0632 8.34888 8.81564 8.45057 8.63216 8.63189C8.25516 9.00889 8.25516 9.63289 8.63216 10.0099L11.6222 12.9999L8.63216 15.9899C8.25516 16.3669 8.25516 16.9909 8.63216 17.3679C8.82716 17.5629 9.07416 17.6539 9.32116 17.6539C9.56816 17.6539 9.81516 17.5629 10.0102 17.3679L13.0002 14.3779L15.9902 17.3679C16.1852 17.5629 16.4322 17.6539 16.6792 17.6539C16.9262 17.6539 17.1732 17.5629 17.3682 17.3679C17.7452 16.9909 17.7452 16.3669 17.3682 15.9899L14.3782 12.9999Z" fill="white"/>
</svg>
