<svg width="128" height="32" viewBox="0 0 128 32" fill="none" xmlns="http://www.w3.org/2000/svg">
<path d="M42.3374 28.8761H41.2593L44.3775 20.3838H45.4391L48.5573 28.8761H47.4792L44.9415 21.7273H44.8751L42.3374 28.8761ZM42.7355 25.5588H47.0811V26.471H42.7355V25.5588ZM52.3183 31.3973C51.8456 31.3973 51.4393 31.3364 51.0992 31.2148C50.7592 31.0959 50.4758 30.9384 50.2492 30.7421C50.0252 30.5486 49.8469 30.3412 49.7142 30.1201L50.4938 29.5727C50.5823 29.6888 50.6942 29.8215 50.8297 29.9708C50.9652 30.1229 51.1504 30.2542 51.3853 30.3647C51.6231 30.4781 51.9341 30.5348 52.3183 30.5348C52.8325 30.5348 53.2569 30.4104 53.5914 30.1616C53.9259 29.9128 54.0931 29.523 54.0931 28.9922V27.6985H54.0102C53.9383 27.8146 53.836 27.9583 53.7033 28.1297C53.5734 28.2983 53.3854 28.449 53.1394 28.5817C52.8961 28.7116 52.5671 28.7766 52.1525 28.7766C51.6383 28.7766 51.1766 28.6549 50.7675 28.4117C50.3611 28.1684 50.0391 27.8146 49.8013 27.3501C49.5664 26.8857 49.4489 26.3218 49.4489 25.6583C49.4489 25.0059 49.5636 24.4378 49.793 23.954C50.0225 23.4675 50.3418 23.0915 50.7509 22.8262C51.16 22.558 51.6328 22.4239 52.1691 22.4239C52.5837 22.4239 52.9127 22.493 53.156 22.6313C53.402 22.7667 53.59 22.9215 53.7199 23.0957C53.8526 23.2671 53.9549 23.4081 54.0268 23.5186H54.1263V22.5069H55.0717V29.0586C55.0717 29.6059 54.9473 30.051 54.6985 30.3938C54.4525 30.7393 54.1207 30.9923 53.7033 31.1526C53.2887 31.3157 52.827 31.3973 52.3183 31.3973ZM52.2852 27.8975C52.6777 27.8975 53.0094 27.8076 53.2804 27.628C53.5513 27.4483 53.7572 27.1898 53.8982 26.8525C54.0392 26.5153 54.1097 26.1117 54.1097 25.6417C54.1097 25.1828 54.0406 24.7778 53.9024 24.4268C53.7641 24.0757 53.5596 23.8006 53.2887 23.6016C53.0177 23.4025 52.6832 23.303 52.2852 23.303C51.8705 23.303 51.5249 23.4081 51.2485 23.6182C50.9748 23.8283 50.7689 24.1102 50.6307 24.4641C50.4952 24.8179 50.4275 25.2105 50.4275 25.6417C50.4275 26.084 50.4966 26.4752 50.6348 26.8152C50.7758 27.1525 50.9831 27.4179 51.2568 27.6114C51.5332 27.8021 51.876 27.8975 52.2852 27.8975ZM56.8631 28.8761V22.5069H57.8085V23.4689H57.8748C57.9909 23.1537 58.201 22.898 58.5051 22.7018C58.8092 22.5055 59.152 22.4073 59.5335 22.4073C59.6054 22.4073 59.6952 22.4087 59.803 22.4115C59.9108 22.4143 59.9924 22.4184 60.0477 22.4239V23.4191C60.0145 23.4108 59.9385 23.3984 59.8196 23.3818C59.7035 23.3625 59.5805 23.3528 59.4506 23.3528C59.1409 23.3528 58.8645 23.4177 58.6212 23.5477C58.3807 23.6748 58.19 23.8518 58.049 24.0784C57.9108 24.3024 57.8417 24.5581 57.8417 24.8456V28.8761H56.8631ZM61.2077 28.8761V22.5069H62.1863V28.8761H61.2077ZM61.7053 21.4453C61.5145 21.4453 61.3501 21.3804 61.2118 21.2504C61.0764 21.1205 61.0087 20.9643 61.0087 20.7819C61.0087 20.5994 61.0764 20.4432 61.2118 20.3133C61.3501 20.1834 61.5145 20.1184 61.7053 20.1184C61.896 20.1184 62.0591 20.1834 62.1946 20.3133C62.3328 20.4432 62.4019 20.5994 62.4019 20.7819C62.4019 20.9643 62.3328 21.1205 62.1946 21.2504C62.0591 21.3804 61.896 21.4453 61.7053 21.4453ZM64.9573 25.0446V28.8761H63.9787V20.3838H64.9573V23.5021H65.0402C65.1895 23.1731 65.4134 22.9118 65.712 22.7183C66.0133 22.5221 66.4141 22.4239 66.9145 22.4239C67.3485 22.4239 67.7286 22.511 68.0548 22.6852C68.381 22.8566 68.634 23.1206 68.8137 23.4772C68.9961 23.831 69.0873 24.2816 69.0873 24.829V28.8761H68.1087V24.8953C68.1087 24.3894 67.9774 23.9983 67.7148 23.7218C67.455 23.4426 67.0942 23.303 66.6325 23.303C66.3119 23.303 66.0244 23.3707 65.77 23.5062C65.5185 23.6417 65.3194 23.8393 65.1729 24.0992C65.0292 24.359 64.9573 24.6742 64.9573 25.0446ZM72.7519 29.0254C72.3483 29.0254 71.982 28.9494 71.6531 28.7973C71.3241 28.6425 71.0629 28.42 70.8694 28.1297C70.6759 27.8367 70.5791 27.4828 70.5791 27.0682C70.5791 26.7033 70.651 26.4075 70.7947 26.1808C70.9385 25.9513 71.1306 25.7716 71.3711 25.6417C71.6116 25.5118 71.877 25.415 72.1673 25.3515C72.4603 25.2851 72.7547 25.2326 73.0505 25.1939C73.4375 25.1441 73.7513 25.1068 73.9918 25.0819C74.2351 25.0543 74.412 25.0087 74.5226 24.9451C74.6359 24.8815 74.6926 24.7709 74.6926 24.6134V24.5802C74.6926 24.171 74.5806 23.8531 74.3567 23.6265C74.1355 23.3998 73.7997 23.2864 73.3491 23.2864C72.8819 23.2864 72.5156 23.3887 72.2502 23.5933C71.9848 23.7978 71.7982 24.0162 71.6904 24.2484L70.7616 23.9167C70.9274 23.5297 71.1486 23.2284 71.425 23.0128C71.7042 22.7944 72.0083 22.6423 72.3373 22.5566C72.669 22.4682 72.9952 22.4239 73.3159 22.4239C73.5205 22.4239 73.7554 22.4488 74.0208 22.4986C74.289 22.5456 74.5474 22.6437 74.7962 22.793C75.0478 22.9423 75.2565 23.1676 75.4224 23.4689C75.5882 23.7702 75.6712 24.1738 75.6712 24.6797V28.8761H74.6926V28.0136H74.6428C74.5765 28.1518 74.4659 28.2997 74.3111 28.4573C74.1563 28.6149 73.9503 28.7489 73.6932 28.8595C73.4361 28.9701 73.1224 29.0254 72.7519 29.0254ZM72.9012 28.1463C73.2882 28.1463 73.6144 28.0703 73.8798 27.9182C74.148 27.7662 74.3498 27.5699 74.4852 27.3294C74.6235 27.0889 74.6926 26.836 74.6926 26.5706V25.6749C74.6511 25.7247 74.5599 25.7703 74.4189 25.8117C74.2807 25.8504 74.1203 25.885 73.9379 25.9154C73.7582 25.943 73.5827 25.9679 73.4113 25.99C73.2426 26.0094 73.1058 26.026 73.0007 26.0398C72.7464 26.073 72.5087 26.1269 72.2875 26.2015C72.0691 26.2734 71.8922 26.3826 71.7567 26.5291C71.6241 26.6729 71.5577 26.8691 71.5577 27.1179C71.5577 27.4579 71.6835 27.715 71.9351 27.8892C72.1894 28.0606 72.5114 28.1463 72.9012 28.1463ZM85.5184 22.5069C85.4686 22.0867 85.2668 21.7605 84.913 21.5283C84.5591 21.296 84.1251 21.1799 83.611 21.1799C83.235 21.1799 82.906 21.2408 82.6241 21.3624C82.3448 21.484 82.1265 21.6513 81.9689 21.8641C81.8141 22.077 81.7367 22.3189 81.7367 22.5898C81.7367 22.8165 81.7906 23.0114 81.8984 23.1745C82.009 23.3348 82.15 23.4689 82.3213 23.5767C82.4927 23.6817 82.6724 23.7688 82.8604 23.8379C83.0484 23.9043 83.2212 23.9582 83.3787 23.9997L84.2412 24.2319C84.4624 24.2899 84.7084 24.3701 84.9793 24.4724C85.253 24.5747 85.5143 24.7143 85.7631 24.8912C86.0146 25.0653 86.222 25.2893 86.3851 25.5629C86.5482 25.8366 86.6297 26.1725 86.6297 26.5706C86.6297 27.0295 86.5095 27.4441 86.2689 27.8146C86.0312 28.185 85.6829 28.4794 85.224 28.6978C84.7679 28.9162 84.2136 29.0254 83.5612 29.0254C82.953 29.0254 82.4264 28.9272 81.9813 28.731C81.539 28.5347 81.1907 28.261 80.9364 27.9099C80.6848 27.5588 80.5424 27.1511 80.5093 26.6867H81.5708C81.5984 27.0073 81.7063 27.2727 81.8942 27.4828C82.085 27.6902 82.3255 27.845 82.6158 27.9473C82.9088 28.0468 83.2239 28.0965 83.5612 28.0965C83.9537 28.0965 84.3062 28.0329 84.6186 27.9058C84.931 27.7759 85.1784 27.5962 85.3608 27.3667C85.5433 27.1345 85.6345 26.8636 85.6345 26.554C85.6345 26.272 85.5557 26.0426 85.3982 25.8656C85.2406 25.6887 85.0332 25.545 84.7762 25.4344C84.5191 25.3238 84.2412 25.2271 83.9427 25.1441L82.8977 24.8456C82.2343 24.6548 81.709 24.3825 81.322 24.0287C80.935 23.6748 80.7415 23.2118 80.7415 22.6396C80.7415 22.1641 80.87 21.7494 81.1271 21.3956C81.387 21.039 81.7353 20.7625 82.1721 20.5662C82.6116 20.3672 83.1023 20.2677 83.6441 20.2677C84.1915 20.2677 84.678 20.3658 85.1037 20.5621C85.5295 20.7556 85.8667 21.021 86.1155 21.3582C86.3671 21.6955 86.4998 22.0784 86.5136 22.5069H85.5184ZM90.8582 29.0088C90.2445 29.0088 89.7151 28.8733 89.2701 28.6024C88.8278 28.3287 88.4864 27.9473 88.2459 27.4579C88.0081 26.9659 87.8892 26.3936 87.8892 25.7412C87.8892 25.0888 88.0081 24.5138 88.2459 24.0162C88.4864 23.5159 88.8209 23.1261 89.2493 22.8469C89.6806 22.5649 90.1837 22.4239 90.7587 22.4239C91.0905 22.4239 91.418 22.4792 91.7415 22.5898C92.0649 22.7004 92.3593 22.8801 92.6247 23.1289C92.8901 23.3749 93.1016 23.7011 93.2591 24.1075C93.4167 24.5138 93.4955 25.0142 93.4955 25.6085V26.0232H88.5859V25.1773H92.5003C92.5003 24.8179 92.4284 24.4972 92.2847 24.2153C92.1437 23.9333 91.9419 23.7108 91.6793 23.5477C91.4194 23.3846 91.1126 23.303 90.7587 23.303C90.3689 23.303 90.0317 23.3998 89.7469 23.5933C89.465 23.784 89.248 24.0328 89.0959 24.3397C88.9439 24.6465 88.8679 24.9755 88.8679 25.3266V25.8905C88.8679 26.3715 88.9508 26.7793 89.1167 27.1138C89.2853 27.4455 89.5189 27.6985 89.8174 27.8726C90.116 28.044 90.4629 28.1297 90.8582 28.1297C91.1153 28.1297 91.3475 28.0938 91.5549 28.0219C91.765 27.9473 91.946 27.8367 92.0981 27.6902C92.2501 27.5409 92.3676 27.3557 92.4505 27.1345L93.396 27.3999C93.2965 27.7206 93.1292 28.0025 92.8942 28.2458C92.6593 28.4863 92.369 28.6743 92.0234 28.8098C91.6779 28.9424 91.2895 29.0088 90.8582 29.0088ZM94.9841 28.8761V22.5069H95.9296V23.4689H95.9959C96.112 23.1537 96.3221 22.898 96.6262 22.7018C96.9303 22.5055 97.2731 22.4073 97.6546 22.4073C97.7265 22.4073 97.8163 22.4087 97.9241 22.4115C98.0319 22.4143 98.1135 22.4184 98.1688 22.4239V23.4191C98.1356 23.4108 98.0596 23.3984 97.9407 23.3818C97.8246 23.3625 97.7016 23.3528 97.5716 23.3528C97.262 23.3528 96.9856 23.4177 96.7423 23.5477C96.5018 23.6748 96.3111 23.8518 96.1701 24.0784C96.0319 24.3024 95.9628 24.5581 95.9628 24.8456V28.8761H94.9841ZM104.731 22.5069L102.376 28.8761H101.38L99.025 22.5069H100.087L101.845 27.5823H101.911L103.669 22.5069H104.731ZM106.022 28.8761V22.5069H107.001V28.8761H106.022ZM106.52 21.4453C106.329 21.4453 106.165 21.3804 106.027 21.2504C105.891 21.1205 105.823 20.9643 105.823 20.7819C105.823 20.5994 105.891 20.4432 106.027 20.3133C106.165 20.1834 106.329 20.1184 106.52 20.1184C106.711 20.1184 106.874 20.1834 107.009 20.3133C107.148 20.4432 107.217 20.5994 107.217 20.7819C107.217 20.9643 107.148 21.1205 107.009 21.2504C106.874 21.3804 106.711 21.4453 106.52 21.4453ZM111.381 29.0088C110.784 29.0088 110.27 28.8678 109.838 28.5858C109.407 28.3039 109.075 27.9155 108.843 27.4206C108.611 26.9258 108.495 26.3605 108.495 25.7247C108.495 25.0778 108.614 24.5069 108.852 24.0121C109.092 23.5145 109.427 23.1261 109.855 22.8469C110.286 22.5649 110.789 22.4239 111.364 22.4239C111.812 22.4239 112.216 22.5069 112.575 22.6727C112.935 22.8386 113.229 23.0708 113.458 23.3694C113.688 23.6679 113.83 24.0162 113.886 24.4143H112.907C112.832 24.124 112.666 23.867 112.409 23.643C112.155 23.4164 111.812 23.303 111.381 23.303C111 23.303 110.665 23.4025 110.378 23.6016C110.093 23.7978 109.87 24.0757 109.71 24.435C109.552 24.7917 109.474 25.2105 109.474 25.6915C109.474 26.1835 109.551 26.612 109.706 26.9769C109.863 27.3418 110.084 27.6252 110.369 27.827C110.657 28.0288 110.994 28.1297 111.381 28.1297C111.635 28.1297 111.866 28.0855 112.073 27.997C112.281 27.9085 112.456 27.7814 112.6 27.6155C112.744 27.4497 112.846 27.2506 112.907 27.0184H113.886C113.83 27.3944 113.693 27.733 113.475 28.0343C113.259 28.3329 112.973 28.5706 112.617 28.7476C112.263 28.9217 111.851 29.0088 111.381 29.0088ZM117.987 29.0088C117.373 29.0088 116.843 28.8733 116.398 28.6024C115.956 28.3287 115.615 27.9473 115.374 27.4579C115.136 26.9659 115.018 26.3936 115.018 25.7412C115.018 25.0888 115.136 24.5138 115.374 24.0162C115.615 23.5159 115.949 23.1261 116.378 22.8469C116.809 22.5649 117.312 22.4239 117.887 22.4239C118.219 22.4239 118.546 22.4792 118.87 22.5898C119.193 22.7004 119.488 22.8801 119.753 23.1289C120.018 23.3749 120.23 23.7011 120.387 24.1075C120.545 24.5138 120.624 25.0142 120.624 25.6085V26.0232H115.714V25.1773H119.629C119.629 24.8179 119.557 24.4972 119.413 24.2153C119.272 23.9333 119.07 23.7108 118.808 23.5477C118.548 23.3846 118.241 23.303 117.887 23.303C117.497 23.303 117.16 23.3998 116.875 23.5933C116.593 23.784 116.376 24.0328 116.224 24.3397C116.072 24.6465 115.996 24.9755 115.996 25.3266V25.8905C115.996 26.3715 116.079 26.7793 116.245 27.1138C116.414 27.4455 116.647 27.6985 116.946 27.8726C117.244 28.044 117.591 28.1297 117.987 28.1297C118.244 28.1297 118.476 28.0938 118.683 28.0219C118.893 27.9473 119.074 27.8367 119.226 27.6902C119.378 27.5409 119.496 27.3557 119.579 27.1345L120.524 27.3999C120.425 27.7206 120.258 28.0025 120.023 28.2458C119.788 28.4863 119.497 28.6743 119.152 28.8098C118.806 28.9424 118.418 29.0088 117.987 29.0088ZM126.624 23.9333L125.745 24.1821C125.69 24.0356 125.608 23.8932 125.5 23.755C125.395 23.614 125.252 23.4979 125.069 23.4067C124.887 23.3155 124.653 23.2698 124.368 23.2698C123.978 23.2698 123.654 23.3597 123.394 23.5394C123.137 23.7163 123.008 23.9416 123.008 24.2153C123.008 24.4585 123.097 24.6507 123.274 24.7917C123.45 24.9326 123.727 25.0501 124.103 25.1441L125.048 25.3763C125.618 25.5146 126.042 25.726 126.321 26.0108C126.601 26.2927 126.74 26.6563 126.74 27.1013C126.74 27.4662 126.635 27.7924 126.425 28.0799C126.218 28.3674 125.927 28.5941 125.554 28.76C125.181 28.9259 124.747 29.0088 124.252 29.0088C123.603 29.0088 123.065 28.8678 122.639 28.5858C122.213 28.3039 121.944 27.892 121.831 27.3501L122.759 27.1179C122.848 27.4607 123.015 27.7178 123.261 27.8892C123.51 28.0606 123.835 28.1463 124.236 28.1463C124.692 28.1463 125.054 28.0495 125.322 27.856C125.593 27.6598 125.728 27.4248 125.728 27.1511C125.728 26.9299 125.651 26.7447 125.496 26.5954C125.341 26.4434 125.104 26.3301 124.783 26.2554L123.721 26.0066C123.138 25.8684 122.71 25.6542 122.436 25.3639C122.165 25.0709 122.03 24.7046 122.03 24.265C122.03 23.9057 122.13 23.5878 122.332 23.3113C122.537 23.0349 122.815 22.8179 123.166 22.6603C123.52 22.5027 123.92 22.4239 124.368 22.4239C124.999 22.4239 125.493 22.5621 125.853 22.8386C126.215 23.115 126.472 23.4799 126.624 23.9333Z" fill="white"/>
<path d="M21.4685 22.5921C20.6915 22.5921 20.0373 21.9582 20.0373 21.1608V16.5605L15.7436 12.1851L11.4499 16.5605V21.1608C11.4499 21.9378 10.8161 22.5921 10.0187 22.5921C9.24177 22.5921 8.58749 21.9582 8.58749 21.1608V16.1925C8.58749 15.6813 8.79195 15.2111 9.13954 14.843L14.3942 9.48618C14.7622 9.11816 15.2529 8.9137 15.7436 8.9137C16.2547 8.9137 16.725 9.11816 17.093 9.48618L22.3476 14.843C22.6952 15.2111 22.8997 15.6813 22.8997 16.1925V21.1608C22.8997 21.9378 22.2659 22.5921 21.4685 22.5921Z" fill="white"/>
<path d="M24.0445 31.5073H7.46279C3.35314 31.5073 0 28.1541 0 24.0445V7.46279C0 3.35314 3.35314 0 7.46279 0H24.0649C28.1746 0 31.5277 3.35314 31.5277 7.46279V24.0649C31.5073 28.1541 28.1541 31.5073 24.0445 31.5073ZM7.46279 2.84199C4.92749 2.84199 2.86244 4.90704 2.86244 7.44234V24.0445C2.86244 26.5798 4.92749 28.6448 7.46279 28.6448H24.0649C26.6002 28.6448 28.6653 26.5798 28.6653 24.0445V7.46279C28.6653 4.92749 26.6002 2.86244 24.0649 2.86244H7.46279V2.84199Z" fill="white"/>
<path d="M48.2525 12.3032L47.7571 11.0183H43.6082L43.1128 12.3342C42.927 12.8451 42.7567 13.1856 42.6174 13.3714C42.4781 13.5572 42.2613 13.6346 41.9517 13.6346C41.6885 13.6346 41.4563 13.5417 41.255 13.3559C41.0538 13.1702 40.9609 12.9534 40.9609 12.7057C40.9609 12.5664 40.9764 12.4271 41.0228 12.2723C41.0693 12.1174 41.1467 11.9162 41.255 11.653L43.8714 5.01156C43.9488 4.82579 44.0417 4.59357 44.1345 4.33039C44.2429 4.06721 44.3513 3.83499 44.4751 3.6647C44.599 3.4944 44.7538 3.33959 44.9396 3.23122C45.1253 3.12285 45.373 3.06093 45.6517 3.06093C45.9458 3.06093 46.1781 3.12285 46.3793 3.23122C46.5651 3.33959 46.7354 3.47892 46.8438 3.64921C46.9676 3.81951 47.0605 4.00528 47.1379 4.20654C47.2153 4.40779 47.3237 4.67097 47.4475 4.99608L50.1103 11.5911C50.327 12.0865 50.4199 12.458 50.4199 12.6902C50.4199 12.9225 50.327 13.1392 50.1258 13.3405C49.9245 13.5417 49.6923 13.6346 49.4136 13.6346C49.2588 13.6346 49.104 13.6036 48.9956 13.5417C48.8718 13.4798 48.7789 13.4024 48.7015 13.3095C48.6241 13.2166 48.5312 13.0618 48.4538 12.8451C48.3919 12.6438 48.3145 12.458 48.2525 12.3032ZM44.15 9.47015H47.1998L45.6517 5.25926L44.15 9.47015Z" fill="white"/>
<path d="M54.7547 8.91274H54.0271V12.1948C54.0271 12.6282 53.9342 12.9379 53.7484 13.1546C53.5626 13.3558 53.3149 13.4642 53.0053 13.4642C52.6802 13.4642 52.417 13.3558 52.2312 13.1391C52.0455 12.9224 51.9526 12.6128 51.9526 12.1948V4.3303C51.9526 3.88134 52.0455 3.55624 52.2467 3.35498C52.448 3.15372 52.7731 3.06084 53.222 3.06084H56.5815C57.0459 3.06084 57.4484 3.07632 57.7735 3.12276C58.0986 3.16921 58.3928 3.24661 58.6714 3.37046C58.9965 3.50979 59.2752 3.69557 59.5229 3.94327C59.7706 4.19097 59.9564 4.48511 60.0802 4.81022C60.2041 5.13532 60.266 5.49139 60.266 5.86294C60.266 6.62152 60.0493 7.24077 59.6158 7.68972C59.1823 8.13868 58.5321 8.46378 57.6651 8.66504C58.0367 8.8663 58.3773 9.14496 58.7179 9.53199C59.0585 9.91902 59.3526 10.3215 59.6158 10.755C59.879 11.1885 60.0802 11.5755 60.235 11.9161C60.3744 12.2567 60.4518 12.5044 60.4518 12.6282C60.4518 12.7676 60.4053 12.8914 60.3279 13.0307C60.235 13.1701 60.1267 13.263 59.9718 13.3404C59.817 13.4178 59.6467 13.4487 59.461 13.4487C59.2288 13.4487 59.0275 13.3868 58.8727 13.2784C58.7179 13.1701 58.5785 13.0307 58.4702 12.8604C58.3618 12.6902 58.207 12.4425 58.0057 12.1174L57.1697 10.7395C56.8756 10.2286 56.6124 9.84161 56.3647 9.57843C56.1325 9.31525 55.8848 9.12948 55.6526 9.03659C55.4359 8.95918 55.1262 8.91274 54.7547 8.91274ZM55.9467 4.62444H54.0425V7.42654H55.9003C56.3957 7.42654 56.8137 7.3801 57.1543 7.30269C57.4949 7.2098 57.758 7.07047 57.9283 6.86922C58.1141 6.66796 58.1915 6.37382 58.1915 6.01775C58.1915 5.73909 58.1141 5.49139 57.9748 5.27465C57.8354 5.05791 57.6342 4.9031 57.371 4.79473C57.1388 4.67088 56.6589 4.62444 55.9467 4.62444Z" fill="white"/>
<path d="M70.7625 10.2441C70.7625 10.5692 70.6851 10.9253 70.5148 11.2968C70.36 11.6684 70.0968 12.0399 69.7562 12.4115C69.4156 12.783 68.9667 13.0772 68.4403 13.2939C67.8985 13.5261 67.2792 13.6345 66.5671 13.6345C66.0252 13.6345 65.5453 13.5881 65.0964 13.4797C64.6474 13.3713 64.2604 13.2165 63.8888 12.9998C63.5327 12.783 63.1922 12.5044 62.898 12.1483C62.6348 11.8232 62.4026 11.4671 62.2014 11.0646C62.0156 10.6621 61.8608 10.2441 61.7679 9.79517C61.675 9.34621 61.6286 8.86629 61.6286 8.35541C61.6286 7.53491 61.7524 6.79181 61.9846 6.1416C62.2168 5.49139 62.5729 4.93406 63.0064 4.46963C63.4553 4.00519 63.9817 3.64912 64.57 3.4169C65.1738 3.16921 65.8085 3.06084 66.4897 3.06084C67.3102 3.06084 68.0533 3.23113 68.7035 3.55624C69.3537 3.88134 69.8491 4.29933 70.1897 4.77925C70.5303 5.25917 70.7006 5.72361 70.7006 6.15708C70.7006 6.3893 70.6231 6.60604 70.4529 6.79181C70.2826 6.97758 70.0813 7.07047 69.8491 7.07047C69.5859 7.07047 69.3846 7.00855 69.2608 6.8847C69.1524 6.76085 68.9976 6.54411 68.8428 6.23449C68.5796 5.72361 68.2545 5.35206 67.883 5.10436C67.5114 4.85666 67.0625 4.73281 66.5361 4.73281C65.6846 4.73281 65.0035 5.05791 64.5081 5.70812C63.9972 6.35834 63.7495 7.27173 63.7495 8.46378C63.7495 9.25332 63.8579 9.91902 64.0901 10.4454C64.3068 10.9717 64.6319 11.3588 65.0344 11.622C65.4369 11.8851 65.9169 12.009 66.4742 12.009C67.0625 12.009 67.5733 11.8542 67.9759 11.56C68.3939 11.2659 68.7035 10.8324 68.9047 10.2596C68.9976 9.99642 69.106 9.7642 69.2298 9.59391C69.3537 9.42362 69.5704 9.34621 69.8491 9.34621C70.0968 9.34621 70.3135 9.4391 70.4838 9.60939C70.6851 9.77969 70.7625 9.99642 70.7625 10.2441Z" fill="white"/>
<path d="M74.6481 4.31482V11.7458H78.8435C79.1841 11.7458 79.4318 11.8232 79.6175 11.9935C79.8033 12.1638 79.8807 12.365 79.8807 12.6127C79.8807 12.8604 79.7878 13.0617 79.6175 13.2165C79.4472 13.3713 79.1841 13.4487 78.8435 13.4487H73.843C73.3941 13.4487 73.069 13.3558 72.8677 13.1546C72.6665 12.9533 72.5736 12.6282 72.5736 12.1793V4.31482C72.5736 3.89682 72.6665 3.5872 72.8522 3.37046C73.038 3.15372 73.2857 3.06084 73.5953 3.06084C73.905 3.06084 74.1527 3.16921 74.3539 3.37046C74.5552 3.5872 74.6481 3.89682 74.6481 4.31482Z" fill="white"/>
<path d="M81.3362 12.365V4.31482C81.3362 3.89682 81.429 3.5872 81.6148 3.37046C81.8006 3.15372 82.0483 3.06084 82.3579 3.06084C82.6675 3.06084 82.9152 3.16921 83.1165 3.37046C83.3023 3.57172 83.4106 3.89682 83.4106 4.31482V12.365C83.4106 12.783 83.3177 13.1081 83.1165 13.3094C82.9307 13.5261 82.6675 13.619 82.3579 13.619C82.0638 13.619 81.8161 13.5107 81.6303 13.3094C81.429 13.1081 81.3362 12.783 81.3362 12.365Z" fill="white"/>
<path d="M91.8169 4.67088H87.7453V7.28721H91.1512C91.4608 7.28721 91.7085 7.36462 91.8633 7.50395C92.0182 7.64328 92.0956 7.82905 92.0956 8.07675C92.0956 8.30897 92.0182 8.49475 91.8633 8.63408C91.7085 8.77341 91.4763 8.85081 91.1667 8.85081H87.7608V12.2102C87.7608 12.6437 87.6679 12.9533 87.4667 13.1546C87.2809 13.3558 87.0332 13.4642 86.7236 13.4642C86.414 13.4642 86.1663 13.3558 85.9805 13.1546C85.7947 12.9379 85.6863 12.6282 85.6863 12.2102V4.3303C85.6863 4.03615 85.7328 3.78845 85.8257 3.60268C85.9186 3.4169 86.0579 3.27757 86.2437 3.18469C86.4294 3.0918 86.6771 3.06084 86.9713 3.06084H91.8479C92.173 3.06084 92.4207 3.13824 92.591 3.27757C92.7458 3.4169 92.8387 3.61816 92.8387 3.85038C92.8387 4.09808 92.7613 4.28385 92.591 4.43867C92.4052 4.59348 92.1575 4.67088 91.8169 4.67088Z" fill="white"/>
</svg>
