<svg width="18" height="18" viewBox="0 0 18 18" fill="none" xmlns="http://www.w3.org/2000/svg">
<path d="M8.15278 15.3056C9.0921 15.3056 10.0222 15.1206 10.89 14.7611C11.7578 14.4016 12.5464 13.8748 13.2106 13.2106C13.8748 12.5464 14.4016 11.7578 14.7611 10.89C15.1206 10.0222 15.3056 9.0921 15.3056 8.15278C15.3056 7.21347 15.1206 6.28335 14.7611 5.41553C14.4016 4.54772 13.8748 3.7592 13.2106 3.095C12.5464 2.4308 11.7578 1.90393 10.89 1.54447C10.0222 1.18501 9.0921 1 8.15278 1C6.25575 1 4.43641 1.75359 3.095 3.095C1.75359 4.43641 1 6.25575 1 8.15278C1 10.0498 1.75359 11.8692 3.095 13.2106C4.43641 14.552 6.25575 15.3056 8.15278 15.3056V15.3056Z" stroke="#828282" stroke-width="1.12941" stroke-linecap="round" stroke-linejoin="round"/>
<path opacity="0.6" d="M17 16.9998L14.553 14.5527" stroke="#828282" stroke-width="1.12941" stroke-linecap="round" stroke-linejoin="round"/>
</svg>
