<svg width="13" height="15" viewBox="0 0 13 15" fill="none" xmlns="http://www.w3.org/2000/svg">
<path d="M7.3924 12.8861L6.5 13.462C5.67089 13.9747 4.51899 13.3987 4.51899 12.3734V8.98734C4.51899 8.53797 4.26582 7.96203 4.00633 7.64557L1.57595 5.08861C1.25316 4.76582 1 4.1962 1 3.81013V2.34177C1 1.57595 1.57595 1 2.27848 1H6.5H10.7215C11.4241 1 12 1.57595 12 2.27848V3.68354C12 4.1962 11.6772 4.83544 11.3608 5.1519" stroke="#939393" stroke-width="0.843497" stroke-miterlimit="10" stroke-linecap="round" stroke-linejoin="round"/>
<path d="M9.71462 7.2532L7.47411 9.4937C7.3855 9.58231 7.30322 9.74687 7.28424 9.86712L7.16398 10.7216C7.11968 11.0317 7.33487 11.2469 7.645 11.2026L8.49943 11.0823C8.61968 11.0633 8.79057 10.981 8.87284 10.8924L11.1134 8.65193C11.4994 8.26585 11.683 7.81649 11.1134 7.24687C10.5501 6.68358 10.1007 6.86712 9.71462 7.2532Z" stroke="#642DDA" stroke-width="0.843497" stroke-miterlimit="10" stroke-linecap="round" stroke-linejoin="round"/>
<path d="M9.39844 7.56964C9.58831 8.25318 10.12 8.78482 10.8035 8.9747" stroke="#642DDA" stroke-width="0.843497" stroke-miterlimit="10" stroke-linecap="round" stroke-linejoin="round"/>
</svg>
