<svg width="13" height="15" viewBox="0 0 13 15" fill="none" xmlns="http://www.w3.org/2000/svg">
<path d="M7.3924 12.8861L6.5 13.462C5.67089 13.9747 4.51899 13.3987 4.51899 12.3734V8.98734C4.51899 8.53797 4.26582 7.96203 4.00633 7.64557L1.57595 5.08861C1.25316 4.76582 1 4.1962 1 3.81013V2.34177C1 1.57595 1.57595 1 2.27848 1H6.5H10.7215C11.4241 1 12 1.57595 12 2.27848V3.68354C12 4.1962 11.6772 4.83544 11.3608 5.1519" stroke="#939393" stroke-width="0.843497" stroke-miterlimit="10" stroke-linecap="round" stroke-linejoin="round"/>
<path d="M9.7151 7.25321L7.4746 9.49371C7.38599 9.58232 7.30371 9.74688 7.28472 9.86713L7.16447 10.7216C7.12017 11.0317 7.33536 11.2469 7.64548 11.2026L8.49991 11.0823C8.62017 11.0633 8.79105 10.9811 8.87333 10.8924L11.1138 8.65194C11.4999 8.26586 11.6835 7.8165 11.1138 7.24688C10.5505 6.68359 10.1012 6.86713 9.7151 7.25321Z" stroke="#098482" stroke-width="0.843497" stroke-miterlimit="10" stroke-linecap="round" stroke-linejoin="round"/>
<path d="M9.39893 7.56964C9.5888 8.25319 10.1204 8.78483 10.804 8.9747" stroke="#098482" stroke-width="0.843497" stroke-miterlimit="10" stroke-linecap="round" stroke-linejoin="round"/>
</svg>
