<svg width="18" height="21" viewBox="0 0 18 21" fill="none" xmlns="http://www.w3.org/2000/svg">
<path d="M17.5 6.7C16.45 2.08 12.42 0 8.87998 0H8.86998C5.33998 0 1.29998 2.07 0.249978 6.69C-0.920022 11.85 2.23998 16.22 5.09998 18.97C6.1137 19.9512 7.46918 20.4998 8.87998 20.5C10.24 20.5 11.6 19.99 12.65 18.97C15.51 16.22 18.67 11.86 17.5 6.7ZM8.87998 11.71C8.46631 11.71 8.0567 11.6285 7.67453 11.4702C7.29235 11.3119 6.9451 11.0799 6.65259 10.7874C6.36009 10.4949 6.12806 10.1476 5.96976 9.76545C5.81146 9.38328 5.72998 8.97366 5.72998 8.56C5.72998 8.14634 5.81146 7.73672 5.96976 7.35455C6.12806 6.97237 6.36009 6.62512 6.65259 6.33261C6.9451 6.04011 7.29235 5.80808 7.67453 5.64978C8.0567 5.49148 8.46631 5.41 8.87998 5.41C9.71541 5.41 10.5166 5.74187 11.1074 6.33261C11.6981 6.92335 12.03 7.72457 12.03 8.56C12.03 9.39543 11.6981 10.1966 11.1074 10.7874C10.5166 11.3781 9.71541 11.71 8.87998 11.71Z" fill="white"/>
</svg>
