<svg width="13" height="15" viewBox="0 0 13 15" fill="none" xmlns="http://www.w3.org/2000/svg">
<path d="M6.67196 8.65976C5.29809 8.65976 4.17578 7.53378 4.17578 6.14094C4.17578 4.7481 5.29809 3.62862 6.67196 3.62862C8.04583 3.62862 9.16814 4.7546 9.16814 6.14744C9.16814 7.54029 8.04583 8.65976 6.67196 8.65976ZM6.67196 4.60491C5.83345 4.60491 5.14329 5.29482 5.14329 6.14744C5.14329 7.00007 5.827 7.68998 6.67196 7.68998C7.51692 7.68998 8.20063 7.00007 8.20063 6.14744C8.20063 5.29482 7.51047 4.60491 6.67196 4.60491Z" fill="#642DDA"/>
<path d="M6.67301 14.25C5.67933 14.2481 4.72484 13.8586 4.00912 13.1631C2.10635 11.3146 0.00362587 8.36623 0.796986 4.85809C1.51294 1.67538 4.26713 0.25 6.67301 0.25H6.67946C9.08534 0.25 11.8395 1.67538 12.5555 4.8646C13.3424 8.37273 11.2397 11.3146 9.33689 13.1631C8.62117 13.8586 7.66669 14.2481 6.67301 14.25ZM6.67301 1.22629C4.79603 1.22629 2.38371 2.23512 1.74515 5.07287C1.04854 8.13842 2.95776 10.7809 4.68638 12.4536C5.21917 12.9765 5.93305 13.269 6.67623 13.269C7.41942 13.269 8.13329 12.9765 8.66608 12.4536C10.3883 10.7809 12.2975 8.13842 11.6138 5.07287C10.9688 2.23512 8.54998 1.22629 6.67301 1.22629Z" fill="#642DDA"/>
</svg>
