<svg width="68" height="11" viewBox="0 0 68 11" fill="none" xmlns="http://www.w3.org/2000/svg">
<path d="M6.98602 3.07509L5.58177 0.219001C5.5097 0.0724237 5.36928 -0.000577991 5.22914 3.44578e-06C5.09008 0.00056131 4.95128 0.073563 4.87977 0.219001L3.47553 3.07509L0.335526 3.53309C0.014507 3.57991 -0.11367 3.9759 0.118622 4.20318L2.39075 6.42635L1.85437 9.5655C1.81099 9.81936 2.01192 10.0255 2.23992 10.0256C2.30016 10.0257 2.36229 10.0113 2.42231 9.97965L5.23077 8.49754L8.03923 9.97965C8.08862 10.0057 8.13942 10.02 8.18944 10.0243C8.21112 10.0261 8.23265 10.0261 8.25379 10.0243C8.46811 10.0059 8.64853 9.80734 8.6072 9.5655L8.07077 6.42635L10.3429 4.20318C10.5752 3.9759 10.447 3.57991 10.126 3.53309L6.98602 3.07509Z" fill="#EEBC3B"/>
<path d="M21.3708 3.07515L19.9665 0.219062C19.8945 0.0724848 19.754 -0.000516955 19.6139 6.44809e-05C19.4748 0.000622346 19.336 0.0736241 19.2645 0.219062L17.8603 3.07515L14.7203 3.53315C14.3993 3.57997 14.2711 3.97596 14.5034 4.20324L16.7755 6.42641L16.2391 9.56556C16.1958 9.81943 16.3967 10.0256 16.6247 10.0257C16.6849 10.0258 16.7471 10.0114 16.8071 9.97971L19.6155 8.4976L22.424 9.97971C22.4734 10.0057 22.5242 10.0201 22.5742 10.0243C22.5959 10.0262 22.6174 10.0262 22.6386 10.0243C22.8529 10.006 23.0333 9.8074 22.992 9.56556L22.4555 6.42641L24.7277 4.20324C24.96 3.97596 24.8318 3.57997 24.5108 3.53315L21.3708 3.07515Z" fill="#EEBC3B"/>
<path d="M35.7551 3.07515L34.3508 0.219062C34.2787 0.0724848 34.1383 -0.000516955 33.9982 6.44809e-05C33.8591 0.000622346 33.7203 0.0736241 33.6488 0.219062L32.2446 3.07515L29.1046 3.53315C28.7835 3.57997 28.6554 3.97596 28.8877 4.20324L31.1598 6.42641L30.6234 9.56556C30.58 9.81943 30.781 10.0256 31.009 10.0257C31.0692 10.0258 31.1313 10.0114 31.1914 9.97971L33.9998 8.4976L36.8083 9.97971C36.8577 10.0057 36.9085 10.0201 36.9585 10.0243C36.9802 10.0262 37.0017 10.0262 37.0228 10.0243C37.2371 10.006 37.4176 9.8074 37.3762 9.56556L36.8398 6.42641L39.1119 4.20324C39.3443 3.97596 39.216 3.57997 38.895 3.53315L35.7551 3.07515Z" fill="#EEBC3B"/>
<path d="M50.1398 3.07515L48.7356 0.219062C48.6635 0.0724848 48.5231 -0.000516955 48.3829 6.44809e-05C48.2439 0.000622346 48.1051 0.0736241 48.0336 0.219062L46.6293 3.07515L43.4893 3.53315C43.1683 3.57997 43.0401 3.97596 43.2724 4.20324L45.5446 6.42641L45.0082 9.56556C44.9648 9.81943 45.1657 10.0256 45.3937 10.0257C45.454 10.0258 45.5161 10.0114 45.5761 9.97971L48.3846 8.4976L51.193 9.97971C51.2424 10.0057 51.2932 10.0201 51.3433 10.0243C51.3649 10.0262 51.3865 10.0262 51.4076 10.0243C51.6219 10.006 51.8023 9.8074 51.761 9.56556L51.2246 6.42641L53.4967 4.20324C53.729 3.97596 53.6008 3.57997 53.2798 3.53315L50.1398 3.07515Z" fill="#EEBC3B"/>
<path d="M62.4184 0.21906L61.0141 3.07515L57.8741 3.53315C57.5531 3.57997 57.4249 3.97596 57.6572 4.20325L59.9293 6.42641L59.3929 9.56556C59.3381 9.88645 59.6737 10.1312 59.9608 9.97972L62.7693 8.4976L65.5779 9.97972C65.865 10.1312 66.2006 9.88645 66.1457 9.56556L65.6093 6.42641L67.8815 4.20325C68.1138 3.97596 67.9856 3.57997 67.6646 3.53315L64.5246 3.07515L63.1203 0.21906C62.9767 -0.0729387 62.5619 -0.0729387 62.4184 0.21906ZM62.7693 7.66089L62.7693 1.28062L63.9137 3.6081C63.9707 3.72405 64.0809 3.80441 64.2084 3.82301L66.7672 4.19624L64.9157 6.00792C64.8234 6.09818 64.7813 6.22822 64.8031 6.35566L65.2402 8.9138L62.9515 7.70599C62.8944 7.67589 62.8319 7.66089 62.7693 7.66089Z" fill="#EEBC3B"/>
</svg>
