<svg width="24" height="21" viewBox="0 0 24 21" fill="none" xmlns="http://www.w3.org/2000/svg">
<path d="M0.848432 20.3903C0.759127 20.3908 0.670361 20.3764 0.585732 20.3479C0.408751 20.2905 0.255603 20.1763 0.149926 20.0232C0.0442487 19.87 -0.00808119 19.6863 0.00101317 19.5005C0.00101317 19.3734 0.873855 7.06886 13.2123 6.1028V1.67928C13.2121 1.5108 13.2622 1.3461 13.3561 1.20622C13.45 1.06634 13.5835 0.957621 13.7395 0.893954C13.8954 0.830287 14.0669 0.81456 14.2318 0.848783C14.3968 0.883005 14.5478 0.965623 14.6656 1.08608L23.0296 9.62807C23.1849 9.78647 23.2719 9.99944 23.2719 10.2213C23.2719 10.4431 23.1849 10.656 23.0296 10.8145L14.6656 19.3564C14.5478 19.4769 14.3968 19.5595 14.2318 19.5937C14.0669 19.628 13.8954 19.6122 13.7395 19.5486C13.5835 19.4849 13.45 19.3762 13.3561 19.2363C13.2622 19.0964 13.2121 18.9317 13.2123 18.7632V14.4245C4.97536 14.738 1.5984 19.9327 1.5645 19.9962C1.48805 20.117 1.38231 20.2164 1.25711 20.2853C1.13192 20.3542 0.991332 20.3903 0.848432 20.3903ZM14.9071 3.75545V6.89514C14.9072 7.11484 14.822 7.32601 14.6695 7.48411C14.5169 7.6422 14.3089 7.73487 14.0894 7.74256C6.10667 8.03492 3.25086 13.3525 2.22549 16.7718C4.34403 14.9414 8.11928 12.7042 14.0088 12.7042H14.047C14.2717 12.7042 14.4873 12.7935 14.6462 12.9524C14.8051 13.1113 14.8944 13.3269 14.8944 13.5516V16.6913L21.25 10.2255L14.9071 3.75545Z" fill="#222222"/>
</svg>
