<svg width="13" height="17" viewBox="0 0 13 17" fill="none" xmlns="http://www.w3.org/2000/svg">
<path d="M8.41689 14.1666V13.9583H11.1611C12.2346 13.9583 12.7804 12.6563 12.0175 11.8934L11.2502 11.1261V7.79159C11.2502 5.57639 10.1214 3.61281 8.06272 2.93691V2.83325C8.06272 1.96919 7.36428 1.27075 6.50022 1.27075C5.63616 1.27075 4.93772 1.96919 4.93772 2.83325V2.93649C2.87281 3.61145 1.75022 5.56984 1.75022 7.79159V11.1261L0.982916 11.8934C0.227602 12.6488 0.748081 13.9583 1.8323 13.9583H4.58355V14.1666C4.58355 15.2203 5.4362 16.0833 6.50022 16.0833C7.55553 16.0833 8.41689 15.2219 8.41689 14.1666Z" stroke="#565656"/>
</svg>
