<svg width="31" height="24" viewBox="0 0 31 24" fill="none" xmlns="http://www.w3.org/2000/svg">
<path d="M9.45298 3.35541C4.23239 3.35541 0 7.04611 0 11.5958C0 16.1487 4.23239 19.8381 9.45298 19.8381C9.75328 19.8381 10.0536 19.8246 10.3475 19.7995C10.3321 21.9477 7.86808 23.6201 7.86808 23.6201C14.0332 21.5458 16.501 17.8615 17.3608 16.1075C18.3336 14.8119 18.9047 13.2643 18.9047 11.5958C18.9047 7.04605 14.671 3.35535 9.45298 3.35535V3.35541ZM14.1089 14.2513H4.55197C3.96803 14.2513 3.96803 13.5614 4.55197 13.5614H14.1089C14.6928 13.5614 14.6928 14.2513 14.1089 14.2513ZM14.1089 11.8362H4.55197C3.96803 11.8362 3.96803 11.1457 4.55197 11.1457H14.1089C14.6928 11.1457 14.6928 11.8362 14.1089 11.8362ZM14.1089 9.42059H4.55197C3.96803 9.42059 3.96803 8.72938 4.55197 8.72938H14.1089C14.6928 8.72938 14.6928 9.42059 14.1089 9.42059Z" fill="#545454"/>
<path d="M26.448 0.575806H18.3695C16.5202 0.575806 14.9187 1.69843 14.209 3.29816C15.4512 3.74566 16.5754 4.40153 17.5199 5.22388C19.3666 6.83324 20.5357 9.09072 20.5357 11.5958C20.5357 13.407 19.9223 15.0903 18.888 16.4869C18.8636 16.5377 18.8379 16.5904 18.8084 16.6425C20.3484 17.8191 22.3516 18.9553 24.9555 19.8297C24.9555 19.8297 21.7998 17.6886 22.258 15.0575H26.448C28.9518 15.0575 31 13.0052 31 10.4956V5.13644C31 2.62688 28.9518 0.575806 26.448 0.575806ZM26.946 10.902L24.8169 9.41928L22.6879 10.902L23.4386 8.4156L21.3725 6.84548L23.9648 6.79209L24.8169 4.33851L25.6678 6.79209L28.2601 6.84548L26.194 8.41557L26.946 10.902Z" fill="#D7D0C3"/>
</svg>
