<svg width="22" height="20" viewBox="0 0 22 20" fill="none" xmlns="http://www.w3.org/2000/svg">
<path d="M10.8272 19.9473C10.7094 19.948 10.5926 19.9254 10.4835 19.8808C10.3744 19.8363 10.2752 19.7706 10.1915 19.6877L1.96375 11.4599C1.02587 10.5208 0.387304 9.32489 0.128702 8.02314C-0.129899 6.72139 0.0030649 5.3722 0.510801 4.14597C1.01854 2.91973 1.87827 1.87147 2.98142 1.13357C4.08456 0.395661 5.38164 0.00121674 6.70883 4.93832e-05C8.20028 -0.00569158 9.65049 0.489274 10.8272 1.40567C12.1204 0.40688 13.7327 -0.0875376 15.3634 0.0145921C16.9942 0.116722 18.5322 0.808428 19.6907 1.96075C20.9465 3.22245 21.6515 4.93015 21.6515 6.71031C21.6515 8.49047 20.9465 10.1982 19.6907 11.4599L11.4629 19.6877C11.3792 19.7706 11.28 19.8363 11.1709 19.8808C11.0618 19.9254 10.945 19.948 10.8272 19.9473ZM6.70883 1.79065C6.06182 1.78847 5.4208 1.91476 4.82296 2.16219C4.22512 2.40963 3.68235 2.77328 3.22612 3.23208C2.30653 4.15791 1.79044 5.40987 1.79044 6.71479C1.79044 8.0197 2.30653 9.27166 3.22612 10.1975L10.8272 17.7896L18.4283 10.1975C19.3479 9.27166 19.864 8.0197 19.864 6.71479C19.864 5.40987 19.3479 4.15791 18.4283 3.23208C17.971 2.77458 17.4281 2.41167 16.8305 2.16406C16.2329 1.91645 15.5924 1.78901 14.9456 1.78901C14.2987 1.78901 13.6582 1.91645 13.0607 2.16406C12.4631 2.41167 11.9201 2.77458 11.4629 3.23208C11.3796 3.31599 11.2806 3.3826 11.1715 3.42805C11.0624 3.4735 10.9454 3.4969 10.8272 3.4969C10.709 3.4969 10.592 3.4735 10.4829 3.42805C10.3738 3.3826 10.2748 3.31599 10.1915 3.23208C9.73532 2.77328 9.19254 2.40963 8.59471 2.16219C7.99687 1.91476 7.35585 1.78847 6.70883 1.79065Z" fill="black"/>
</svg>
