<svg width="28" height="28" viewBox="0 0 28 28" fill="none" xmlns="http://www.w3.org/2000/svg">
<rect width="28" height="28" rx="4.18045" fill="#098482"/>
<path d="M16.4168 19.1666V18.9583H19.1609C20.2345 18.9583 20.7803 17.6564 20.0174 16.8935L19.2501 16.1262V12.7916C19.2501 10.5764 18.1212 8.61287 16.0626 7.93697V7.83331C16.0626 6.96925 15.3642 6.27081 14.5001 6.27081C13.636 6.27081 12.9376 6.96925 12.9376 7.83331V7.93655C10.8727 8.61151 9.7501 10.5699 9.7501 12.7916V16.1262L8.98279 16.8935C8.22748 17.6488 8.74796 18.9583 9.83218 18.9583H12.5834V19.1666C12.5834 20.2203 13.4361 21.0833 14.5001 21.0833C15.5554 21.0833 16.4168 20.222 16.4168 19.1666Z" stroke="white"/>
</svg>
