<svg width="19" height="16" viewBox="0 0 19 16" fill="none" xmlns="http://www.w3.org/2000/svg">
<path fill-rule="evenodd" clip-rule="evenodd" d="M2.85 0C2.09413 0 1.36922 0.300267 0.834746 0.834746C0.300267 1.36922 0 2.09413 0 2.85V12.35C0 13.1059 0.300267 13.8308 0.834746 14.3653C1.36922 14.8997 2.09413 15.2 2.85 15.2H16.15C16.9059 15.2 17.6308 14.8997 18.1653 14.3653C18.6997 13.8308 19 13.1059 19 12.35V2.85C19 2.09413 18.6997 1.36922 18.1653 0.834746C17.6308 0.300267 16.9059 0 16.15 0H2.85ZM16.15 1.425H2.85C2.47207 1.425 2.10961 1.57513 1.84237 1.84237C1.57513 2.10961 1.425 2.47207 1.425 2.85V4.0375H17.575V2.85C17.575 2.47207 17.4249 2.10961 17.1576 1.84237C16.8904 1.57513 16.5279 1.425 16.15 1.425ZM1.425 12.35V5.4625H17.575V12.35C17.575 12.7279 17.4249 13.0904 17.1576 13.3576C16.8904 13.6249 16.5279 13.775 16.15 13.775H2.85C2.47207 13.775 2.10961 13.6249 1.84237 13.3576C1.57513 13.0904 1.425 12.7279 1.425 12.35Z" fill="#098482"/>
</svg>
