<svg width="20" height="19" viewBox="0 0 20 19" fill="none" xmlns="http://www.w3.org/2000/svg">
<path d="M6.61155 5.82772L9.28287 0.415027C9.55598 -0.138342 10.3451 -0.138342 10.6182 0.415027L13.2895 5.82772L19.2628 6.69569C19.8734 6.78443 20.1173 7.53489 19.6754 7.96563L15.3531 12.1788L16.3734 18.128C16.4778 18.7362 15.8394 19.2 15.2932 18.9128L9.95052 16.104L4.60787 18.9128C4.06166 19.2 3.42328 18.7362 3.52759 18.128L4.54795 12.1788L0.225653 7.96563C-0.216238 7.53489 0.0276027 6.78443 0.638282 6.69569L6.61155 5.82772ZM7.77361 6.83773C7.66516 7.05748 7.45553 7.20978 7.21303 7.24502L2.34531 7.95234L5.86762 11.3857C6.0431 11.5568 6.12317 11.8032 6.08175 12.0448L5.25024 16.8928L9.60406 14.6039C9.82096 14.4898 10.0801 14.4898 10.297 14.6039L14.6508 16.8928L13.8193 12.0448C13.7779 11.8032 13.8579 11.5568 14.0334 11.3857L17.5557 7.95234L12.688 7.24502C12.4455 7.20978 12.2359 7.05748 12.1274 6.83773L9.95052 2.42684L7.77361 6.83773Z" fill="#098482"/>
</svg>
