<svg width="19" height="19" viewBox="0 0 19 19" fill="none" xmlns="http://www.w3.org/2000/svg">
<path d="M8.14325 11.2549L5.90872 9.02032L4.94922 9.97982L8.14325 13.1739L14.0516 7.26553L13.0921 6.30603L8.14325 11.2549Z" fill="#098482"/>
<path d="M9.5 0C4.25396 0 0 4.25396 0 9.5C0 14.746 4.25396 19 9.5 19C14.746 19 19 14.746 19 9.5C19 4.25396 14.746 0 9.5 0ZM9.5 17.6429C5.00989 17.6429 1.35714 13.9901 1.35714 9.5C1.35714 5.00989 5.00989 1.35714 9.5 1.35714C13.9901 1.35714 17.6429 5.00989 17.6429 9.5C17.6429 13.9901 13.9901 17.6429 9.5 17.6429Z" fill="#098482"/>
</svg>
