<svg width="18" height="18" viewBox="0 0 18 18" fill="none" xmlns="http://www.w3.org/2000/svg">
<path d="M17.6084 10.1109C17.0656 9.32486 16.1602 9.26493 16.1546 9.27551C16.0927 9.26493 16.0365 9.25083 15.9886 9.22968C15.9886 9.22968 15.9858 9.22968 15.9858 9.22616C15.8199 9.15918 15.7412 9.05343 15.7412 8.89833C16.3795 8.14396 16.4695 6.94545 16.4723 6.89962C16.4976 6.63172 16.5004 6.38144 16.4807 6.16641C16.3711 4.59424 15.3278 4.23116 14.816 4.24879C14.7879 4.24879 14.0962 4.22411 13.5984 4.82689C13.2751 5.2217 13.1148 5.77513 13.1176 6.47662C13.1204 6.60704 13.126 6.74805 13.1373 6.88905C13.1401 6.94192 13.2301 8.14396 13.8684 8.89833C13.86 8.99703 13.8122 9.11688 13.6181 9.19443H13.6125C13.5675 9.21558 13.5169 9.22616 13.4578 9.24026C13.3004 9.25083 12.3612 9.36363 11.8803 10.2731C11.6638 10.2273 11.5091 10.2132 11.4585 10.2096C11.332 10.185 11.2167 10.1532 11.1154 10.1145H11.1126C10.9214 10.0334 10.7696 9.81131 10.6599 9.44823C10.5108 8.97235 10.4912 8.42949 10.4968 8.28144C10.4968 8.25324 10.4996 8.22857 10.5024 8.20389C11.6919 6.89257 11.855 4.67884 11.8606 4.59072C11.9028 4.12894 11.9084 3.69888 11.8803 3.32522V3.31817C11.8803 3.31112 11.8803 3.30055 11.8775 3.28997C11.6413 -0.0834974 9.02048 0.00110346 9.01486 0.00110346C8.96424 -0.00242159 7.78039 -0.0447222 6.93116 0.991642C6.38 1.66493 6.10443 2.62021 6.11286 3.83636C6.11567 4.07253 6.12692 4.32634 6.14942 4.58014C6.15504 4.67532 6.32095 6.89257 7.51043 8.20742C7.51043 8.22504 7.51324 8.23914 7.51043 8.26029C7.50481 8.7679 7.47106 9.42003 7.44013 9.53636C7.44013 9.53988 7.43732 9.53989 7.43732 9.54341C7.34171 9.77606 7.15612 9.94879 6.87773 10.0616H6.87211C6.77931 10.1004 6.67245 10.1321 6.5431 10.1532C6.48967 10.1568 6.32376 10.1709 6.09599 10.2237C5.57577 9.30018 4.5775 9.23673 4.54938 9.23673C4.48752 9.22616 4.43409 9.21206 4.38629 9.19091H4.37785C4.21194 9.12393 4.13321 9.01818 4.13321 8.86308C4.77153 8.10872 4.86152 6.9102 4.86433 6.86437C4.88964 6.59647 4.89245 6.34619 4.87277 6.13116C4.7631 4.55899 3.72828 4.19239 3.20805 4.21354C3.17993 4.21354 2.48818 4.18886 1.99326 4.79164C1.66988 5.18645 1.5096 5.73988 1.51241 6.44137C1.51522 6.57179 1.52085 6.7128 1.53209 6.8538C1.53491 6.90667 1.62489 8.10872 2.26322 8.86308C2.25478 8.96178 2.20698 9.08163 2.01295 9.15918H2.01014C1.96514 9.17681 1.91453 9.1909 1.85829 9.20148C1.72612 9.21206 0.902204 9.30018 0.39323 10.0369C0.0782847 10.4916 -0.0482558 11.0909 0.0164205 11.81L0.112029 12.9063C0.123277 13.0332 0.187953 13.139 0.283562 13.1883C0.334178 13.213 1.41961 13.7417 3.14338 13.7417C3.19962 13.7417 3.25867 13.7382 3.31491 13.7382C3.30085 14.0343 3.30366 14.3445 3.33459 14.6688L3.51175 16.7063C3.523 16.8332 3.58768 16.939 3.68328 16.9883C3.8042 17.0482 5.7698 18 8.87707 18C10.4265 18 12.2599 17.7638 14.2874 17.0623C14.3942 17.0236 14.473 16.9108 14.487 16.7698L14.6642 14.7323C14.6951 14.4009 14.6979 14.0837 14.6811 13.784H14.7486C15.7243 13.784 16.7113 13.6148 17.6871 13.2764C17.794 13.2377 17.8727 13.1249 17.8868 12.9839L17.9824 11.884C18.0499 11.1649 17.9233 10.5692 17.6084 10.1109ZM13.6856 6.82912C13.6744 6.70222 13.6687 6.58589 13.6687 6.47309C13.6659 5.96901 13.77 5.58478 13.9809 5.32745C14.3071 4.9256 14.7964 4.93617 14.8189 4.9397C14.9257 4.93617 15.8509 4.94322 15.9408 6.24044C15.9549 6.41317 15.9521 6.61057 15.9324 6.8397C15.9324 6.85027 15.848 7.99944 15.2463 8.53877C15.2378 8.54582 15.2322 8.54935 15.2238 8.5564C15.2097 8.5705 15.1957 8.58107 15.1816 8.59165C14.9482 8.77142 14.6698 8.77142 14.4364 8.59165C14.4224 8.58107 14.4083 8.56697 14.3942 8.5564C14.3858 8.54935 14.3802 8.5423 14.3717 8.53877C14.3521 8.52115 14.3352 8.50352 14.3183 8.4859C13.7672 7.92189 13.6856 6.84322 13.6856 6.82912ZM10.6543 10.5798L10.0131 11.9651L9.38886 11.1685L10.3196 10.125C10.4181 10.3119 10.5305 10.4634 10.6543 10.5798ZM9.00642 11.6549L9.39167 12.1484L9.02611 12.656C9.01767 12.6666 9.01205 12.6772 9.00361 12.6913C8.99699 12.6787 8.98946 12.6669 8.98111 12.656L8.63524 12.1801L9.00642 11.6549ZM7.98566 9.56809C8.01941 9.32133 8.03628 8.9794 8.04471 8.67272C8.34841 8.87013 8.67461 8.97235 9.00361 8.97235C9.33543 8.97235 9.66443 8.8666 9.96532 8.66567C9.98219 8.89833 10.0216 9.18033 10.089 9.46586L8.99236 10.6926L7.98566 9.56809ZM9.00361 13.2271L9.42822 15.9237L9.00361 16.3327L8.57618 15.9237L9.00361 13.2271ZM7.30515 1.48515C7.98285 0.653238 8.98393 0.681438 9.01486 0.684963C9.09641 0.681438 10.9692 0.628562 11.2982 3.0256C9.98781 3.14192 8.27249 2.01391 8.2528 2.00333C8.20802 1.97364 8.1576 1.95991 8.10703 1.96364C8.05646 1.96737 8.00767 1.98841 7.96598 2.02448L6.68932 3.14545C6.76525 2.45454 6.97053 1.89758 7.30515 1.48515ZM6.68932 4.51317C6.67526 4.33691 6.66683 4.16771 6.6612 4.00556L8.14595 2.70482C8.61837 2.99387 10.0975 3.82226 11.346 3.70593C11.3516 3.95973 11.346 4.22411 11.3179 4.52022C11.3151 4.54489 11.1464 6.8256 9.9372 7.89721C9.92677 7.90337 9.91726 7.91172 9.90908 7.92189C9.87975 7.94893 9.84974 7.97479 9.81909 7.99944C9.31012 8.39424 8.70273 8.39424 8.19094 7.99944C8.16001 7.97476 8.12908 7.95009 8.09814 7.92189C8.08971 7.91131 8.07846 7.90426 8.06721 7.89721C8.02503 7.85844 7.98285 7.81966 7.94348 7.77736C6.84961 6.65992 6.69214 4.54137 6.68932 4.51317ZM7.72977 10.1955L8.61274 11.1826L8.07002 11.9545L7.36421 10.541C7.50481 10.4458 7.62854 10.333 7.72977 10.1955ZM2.07763 6.7833C2.06638 6.65992 2.06075 6.54007 2.06075 6.42727C2.05794 5.92319 2.16199 5.53896 2.37289 5.28163C2.69908 4.87977 3.19118 4.89387 3.21087 4.89387C3.25305 4.89387 4.24006 4.86215 4.33286 6.19461C4.34692 6.36382 4.34411 6.56122 4.32442 6.79035C4.32442 6.80092 4.23444 7.95361 3.63548 8.49295C3.62704 8.5 3.62142 8.50352 3.61298 8.51057C3.59892 8.52467 3.58486 8.53525 3.5708 8.54582C3.33741 8.7256 3.05902 8.7256 2.82562 8.54582C2.81156 8.53525 2.7975 8.52115 2.78344 8.51057C2.775 8.50352 2.76938 8.49647 2.76094 8.49295C2.74126 8.47532 2.72439 8.4577 2.7047 8.44007C2.15917 7.87959 2.07763 6.80092 2.07763 6.7833ZM3.40208 13.0508C2.01295 13.0967 1.00625 12.7618 0.640687 12.6137L0.564763 11.7325C0.516959 11.2108 0.601319 10.7913 0.809408 10.4846C1.19465 9.92412 1.89203 9.88181 1.89766 9.88181C1.90609 9.88181 1.91734 9.88181 1.92578 9.87829C2.01576 9.86419 2.10293 9.83951 2.18167 9.80779C2.18448 9.80779 2.18448 9.80426 2.18729 9.80426C2.49943 9.67736 2.65409 9.45528 2.73564 9.24731C3.03071 9.4007 3.36216 9.40197 3.65798 9.25083C3.75358 9.51873 3.9448 9.72671 4.21475 9.83599H4.22038C4.29911 9.86771 4.38347 9.89239 4.50439 9.91354C4.51283 9.91354 5.10897 9.95232 5.50547 10.4035C5.00774 10.6044 4.42847 10.9605 3.98698 11.602C3.69734 12.018 3.50613 12.5045 3.40208 13.0508ZM14.1271 14.6547L13.9696 16.4631C8.7674 18.2009 4.84746 16.7592 4.04041 16.4208L3.88012 14.5948C3.78733 13.5443 3.95886 12.6878 4.39191 12.0568C4.85871 11.3764 5.54202 11.0768 6.02007 10.9429C6.02569 10.9429 6.0285 10.9393 6.03413 10.9393C6.34907 10.8512 6.57403 10.8371 6.57966 10.8371C6.58809 10.8371 6.59934 10.8371 6.60778 10.8336C6.68932 10.8195 6.76525 10.8019 6.83555 10.7807L7.79726 12.7089C7.84225 12.8006 7.92099 12.8605 8.00535 12.8675H8.02784C8.10658 12.8675 8.17969 12.8252 8.23312 12.7512L8.27249 12.6948L8.48339 12.9874L8.00535 16.0013C7.98566 16.1282 8.02503 16.2622 8.10658 16.3397L8.83489 17.0341C8.88269 17.08 8.94175 17.1046 9.0008 17.1046C9.05985 17.1046 9.1189 17.08 9.16671 17.0341L9.89221 16.3397C9.97375 16.2622 10.0131 16.1282 9.99344 16.0013L9.51821 12.9874L9.77129 12.6349L9.87252 12.7653C9.92314 12.8323 9.99344 12.8675 10.0666 12.8675C10.0778 12.8675 10.089 12.8675 10.1003 12.864C10.1847 12.8499 10.2606 12.79 10.3028 12.6983L11.1632 10.8442C11.2392 10.8653 11.3151 10.8829 11.3966 10.897C11.4051 10.897 11.4163 10.9006 11.4248 10.9006C11.4388 10.9006 12.8223 10.9746 13.6097 12.1167C14.0455 12.7477 14.2199 13.6007 14.1271 14.6547ZM17.4453 11.81L17.3693 12.6772C16.4498 12.9733 15.519 13.1072 14.6023 13.0896C14.4983 12.5503 14.3071 12.0744 14.0259 11.6655C13.5759 11.0098 12.9798 10.6503 12.4764 10.4529C12.8701 9.96642 13.5 9.92411 13.5056 9.92411C13.5169 9.92411 13.5309 9.92059 13.5422 9.92059C13.6209 9.90296 13.7025 9.88181 13.784 9.85009H13.7897C13.7925 9.85009 13.7925 9.84656 13.7953 9.84656H13.8009C14.1102 9.71966 14.2649 9.50111 14.3436 9.29313C14.6387 9.44653 14.9701 9.4478 15.266 9.29666C15.3616 9.56456 15.55 9.76901 15.8171 9.88181C15.8199 9.88181 15.8227 9.88534 15.8256 9.88886C15.9071 9.92059 15.9943 9.94174 16.1124 9.96289C16.118 9.96289 16.8154 10.0087 17.1978 10.5657C17.4059 10.8653 17.4903 11.2848 17.4453 11.81Z" fill="#474747"/>
</svg>
