<svg width="16" height="16" viewBox="0 0 16 16" fill="none" xmlns="http://www.w3.org/2000/svg">
<g clip-path="url(#clip0_2_25)">
<path d="M14 16H9.33333V11.6667H6.66667V16H2V9.00002C2 8.91161 2.03512 8.82683 2.09763 8.76432C2.16014 8.70181 2.24493 8.66669 2.33333 8.66669C2.42174 8.66669 2.50652 8.70181 2.56904 8.76432C2.63155 8.82683 2.66667 8.91161 2.66667 9.00002V15.3334H6V11H10V15.3334H13.3333V9.33335C13.3333 9.24495 13.3685 9.16016 13.431 9.09765C13.4935 9.03514 13.5783 9.00002 13.6667 9.00002C13.7551 9.00002 13.8399 9.03514 13.9024 9.09765C13.9649 9.16016 14 9.24495 14 9.33335V16Z" fill="#474747"/>
<path d="M15.6666 9.00001C15.5807 9.00013 15.4982 8.96704 15.4362 8.90768L7.99989 1.79468L0.563558 8.90768C0.499685 8.96881 0.414143 9.00206 0.325751 9.00013C0.237359 8.99819 0.153357 8.96122 0.0922247 8.89734C0.0310923 8.83347 -0.00216287 8.74793 -0.000224992 8.65954C0.00171288 8.57114 0.038685 8.48714 0.102558 8.42601L7.99989 0.872009L15.8969 8.42568C15.945 8.47167 15.9783 8.53103 15.9924 8.59609C16.0065 8.66116 16.0008 8.72896 15.976 8.79075C15.9512 8.85254 15.9085 8.9055 15.8533 8.9428C15.7982 8.98009 15.7331 9.00002 15.6666 9.00001ZM12.9999 5.00001C12.9115 5.00001 12.8267 4.96489 12.7642 4.90238C12.7017 4.83987 12.6666 4.75508 12.6666 4.66668V2.66668H10.6666C10.5782 2.66668 10.4934 2.63156 10.4309 2.56904C10.3683 2.50653 10.3332 2.42175 10.3332 2.33334C10.3332 2.24494 10.3683 2.16015 10.4309 2.09764C10.4934 2.03513 10.5782 2.00001 10.6666 2.00001H13.3332V4.66668C13.3332 4.75508 13.2981 4.83987 13.2356 4.90238C13.1731 4.96489 13.0883 5.00001 12.9999 5.00001Z" fill="#474747"/>
</g>
<defs>
<clipPath id="clip0_2_25">
<rect width="16" height="16" fill="white"/>
</clipPath>
</defs>
</svg>
