<svg width="16" height="16" viewBox="0 0 16 16" fill="none" xmlns="http://www.w3.org/2000/svg">
<g clip-path="url(#clip0_2_103)">
<path d="M9.1063 7.64998H11.5438C11.7813 7.64998 11.975 7.45935 11.975 7.21873C11.975 6.98123 11.7813 6.78748 11.5438 6.78748H9.1063C8.8688 6.78748 8.67505 6.98123 8.67505 7.21873C8.67505 7.45623 8.8688 7.64998 9.1063 7.64998Z" fill="#474747"/>
<path d="M13.6094 4.95935H6.30312L5.11562 3.70623C5.0125 3.59998 4.875 3.53748 4.72813 3.53748L0.54375 3.50623C0.396875 3.50935 0.265625 3.56248 0.1625 3.66248C0.059375 3.76248 0.003125 3.89998 0.003125 4.04373L0 13.7219C0 13.8656 0.05625 14.0031 0.15625 14.1031C0.259375 14.2031 0.39375 14.2593 0.5375 14.2593H13.6031C13.9 14.2593 14.1406 14.0187 14.1438 13.7187L14.1469 5.49685C14.1469 5.3531 14.0906 5.2156 13.9906 5.1156C13.8875 5.0156 13.7531 4.95935 13.6094 4.95935ZM13.0656 13.1844H1.075L1.07187 4.58748L4.4875 4.61248L5.67812 5.86873C5.78125 5.9781 5.92188 6.03748 6.06875 6.03748H13.0688L13.0656 13.1844Z" fill="#474747"/>
<path d="M15.8437 3.32501C15.7437 3.22501 15.6062 3.16876 15.4625 3.16876H8.1562L6.9687 1.91564C6.8687 1.80939 6.72808 1.75001 6.5812 1.74689L2.39683 1.71564H2.3937C2.25308 1.71564 2.11558 1.77189 2.01558 1.87189C1.91245 1.97189 1.8562 2.10939 1.8562 2.25314V3.09376H2.9312V2.79689L6.34683 2.82189L7.53745 4.07814C7.64058 4.18439 7.7812 4.24689 7.92808 4.24689H14.9281L14.925 11.3938H14.4875V12.4688H15.4625C15.7593 12.4688 16 12.2281 16 11.9313L16.0031 3.70626C16 3.56251 15.9437 3.42501 15.8437 3.32501Z" fill="#474747"/>
</g>
<defs>
<clipPath id="clip0_2_103">
<rect width="16" height="16" fill="white"/>
</clipPath>
</defs>
</svg>
