<svg width="16" height="16" viewBox="0 0 16 16" fill="none" xmlns="http://www.w3.org/2000/svg">
<g clip-path="url(#clip0_2_95)">
<path d="M13.5031 9.31249C13.3594 9.90624 13.1391 10.4406 12.8203 10.9594C12.7656 11.0484 12.7844 11.1703 12.8563 11.2437C13.0594 11.4469 13.2641 11.65 13.4656 11.8531C13.4766 11.864 13.4875 11.8765 13.4985 11.8875C13.5219 11.9109 13.5578 11.9765 13.5688 12.0125C13.5735 12.0265 13.5766 12.0406 13.5797 12.0547C13.5969 12.1187 13.5797 12.0281 13.5828 12.0672C13.586 12.1 13.586 12.1312 13.5844 12.164C13.5813 12.2109 13.5828 12.175 13.5844 12.1656C13.5797 12.1875 13.575 12.2078 13.5688 12.2281C13.5641 12.2422 13.5594 12.2562 13.5547 12.2687C13.5719 12.2265 13.5438 12.2875 13.5406 12.2922C13.5328 12.3047 13.525 12.3172 13.5172 12.3297C13.4828 12.3828 13.5438 12.3078 13.4969 12.3531C13.4906 12.3594 13.486 12.3656 13.4797 12.3703C13.4719 12.3781 13.4656 12.3844 13.4578 12.3922C13.4203 12.4297 13.3828 12.4672 13.3469 12.5031C13.0906 12.7594 12.8328 13.0172 12.5766 13.2734C12.5078 13.3422 12.4406 13.4125 12.3703 13.4797C12.3641 13.4859 12.3563 13.4922 12.3516 13.4969C12.3031 13.5453 12.3688 13.4875 12.3375 13.5094C12.3219 13.5203 12.3063 13.5297 12.2906 13.539C12.2781 13.5469 12.2641 13.5531 12.2516 13.5594C12.286 13.5422 12.2547 13.5578 12.2469 13.5609C12.2266 13.5672 12.2047 13.5719 12.1844 13.5781C12.1375 13.5922 12.2141 13.5812 12.161 13.5828C12.1328 13.5844 12.1031 13.5844 12.075 13.5828C12.0125 13.5812 12.1125 13.5969 12.0516 13.5781C12.0375 13.5734 12.0235 13.5719 12.0094 13.5672C11.9953 13.5625 11.9813 13.5578 11.9688 13.5531C12.0141 13.5703 11.95 13.5422 11.9453 13.539C11.9328 13.5312 11.9203 13.5234 11.9078 13.5156C11.8578 13.4828 11.9266 13.539 11.8844 13.4953C11.6719 13.2797 11.4547 13.0672 11.2406 12.8531C11.1688 12.7812 11.0453 12.7625 10.9563 12.8172C10.4406 13.139 9.90627 13.3594 9.31252 13.5031C9.21252 13.5265 9.14065 13.6281 9.14065 13.7297C9.14065 14.0187 9.14221 14.3094 9.14065 14.5984C9.14065 14.6187 9.14065 14.6375 9.13909 14.6578C9.13752 14.7172 9.15159 14.639 9.13752 14.6687C9.13127 14.6828 9.12971 14.7031 9.12502 14.7187C9.1219 14.7312 9.11721 14.7453 9.11252 14.7578C9.12815 14.7109 9.10783 14.7656 9.10315 14.7765C9.09534 14.7922 9.08596 14.8047 9.07659 14.8203C9.07034 14.8312 9.04065 14.864 9.0719 14.8297C9.05002 14.8547 9.02658 14.8781 9.00159 14.9C9.03596 14.8703 8.98127 14.9125 8.96721 14.9219C8.95002 14.9328 8.93127 14.9422 8.91409 14.95C8.95159 14.9328 8.90784 14.95 8.89377 14.9547C8.88127 14.9578 8.86721 14.9609 8.85315 14.9656C8.79377 14.9828 8.87971 14.9672 8.84221 14.9687C8.82346 14.9687 8.80627 14.9703 8.78752 14.9719C8.77815 14.9719 8.76721 14.9719 8.75784 14.9719C8.70784 14.9719 8.65784 14.9719 8.60784 14.9719C8.24065 14.9719 7.87502 14.9719 7.50784 14.9719C7.41096 14.9719 7.31252 14.9734 7.21565 14.9719C7.20159 14.9719 7.18596 14.9703 7.1719 14.9703C7.11409 14.9687 7.19065 14.9828 7.16096 14.9687C7.1469 14.9625 7.12659 14.9609 7.11096 14.9562C7.09846 14.9531 7.0844 14.9484 7.0719 14.9437C7.12034 14.9609 7.06096 14.9375 7.05315 14.9344C7.04065 14.9281 7.02971 14.9219 7.01877 14.914C7.01252 14.9094 6.96409 14.8703 7.00159 14.9031C6.97659 14.8812 6.95315 14.8578 6.93127 14.8328C6.96252 14.8672 6.91252 14.8031 6.90471 14.789C6.8969 14.775 6.88909 14.7594 6.88127 14.7437C6.90002 14.7844 6.8844 14.7515 6.88284 14.7422C6.87815 14.725 6.87346 14.7094 6.86877 14.6922C6.86565 14.6828 6.86409 14.6719 6.86252 14.6609C6.86565 14.689 6.86565 14.689 6.86252 14.6609C6.85471 14.3515 6.86096 14.0422 6.86096 13.7312C6.86096 13.6312 6.78909 13.5297 6.68909 13.5047C6.09534 13.3609 5.56096 13.1406 5.04221 12.8219C4.95315 12.7672 4.83127 12.7859 4.75784 12.8578C4.55471 13.0609 4.35159 13.2656 4.14846 13.4672C4.13752 13.4781 4.12502 13.489 4.11409 13.5C4.09065 13.5234 4.02502 13.5594 3.98909 13.5703C3.97502 13.575 3.96096 13.5781 3.9469 13.5812C3.88284 13.5984 3.97346 13.5812 3.9344 13.5844C3.90159 13.5875 3.87034 13.5875 3.83752 13.5859C3.79065 13.5828 3.82659 13.5844 3.83596 13.5859C3.81409 13.5812 3.79377 13.5765 3.77346 13.5703C3.7594 13.5656 3.74534 13.5609 3.73284 13.5562C3.77502 13.5734 3.71409 13.5453 3.7094 13.5422C3.6969 13.5344 3.6844 13.5265 3.6719 13.5187C3.61877 13.4844 3.69377 13.5453 3.64846 13.4984C3.64221 13.4922 3.63596 13.4875 3.63127 13.4812C3.62346 13.4734 3.61721 13.4672 3.6094 13.4594C3.5719 13.4219 3.5344 13.3844 3.49846 13.3484C3.24221 13.0922 2.9844 12.8344 2.72815 12.5781C2.6594 12.5094 2.58909 12.4422 2.5219 12.3719C2.51565 12.3656 2.5094 12.3578 2.50471 12.3531C2.45627 12.3047 2.51409 12.3703 2.49221 12.339C2.48127 12.3234 2.4719 12.3078 2.46252 12.2922C2.45471 12.2797 2.44846 12.2656 2.44221 12.2531C2.4594 12.2875 2.44377 12.2562 2.44065 12.2484C2.4344 12.2281 2.42971 12.2062 2.42346 12.1859C2.4094 12.139 2.42034 12.2156 2.41877 12.1625C2.41721 12.1344 2.41721 12.1047 2.41877 12.0765C2.42034 12.014 2.40471 12.114 2.42346 12.0531C2.42815 12.039 2.42971 12.025 2.4344 12.0109C2.43909 11.9969 2.44377 11.9828 2.44846 11.9703C2.43127 12.0156 2.4594 11.9515 2.46252 11.9469C2.47034 11.9344 2.47815 11.9219 2.48596 11.9094C2.51877 11.8594 2.46252 11.9281 2.50627 11.8859C2.7219 11.6734 2.9344 11.4562 3.14846 11.2422C3.22034 11.1703 3.23909 11.0469 3.1844 10.9578C2.86096 10.4406 2.64065 9.90624 2.4969 9.31249C2.47346 9.21249 2.3719 9.14061 2.27034 9.14061C1.98127 9.14061 1.69065 9.14217 1.40159 9.14061C1.38127 9.14061 1.36252 9.14061 1.34221 9.13905C1.28284 9.13749 1.36096 9.15155 1.33127 9.13749C1.31721 9.13124 1.2969 9.12967 1.28127 9.12499C1.26877 9.12186 1.25471 9.11717 1.24221 9.11249C1.28909 9.12811 1.2344 9.1078 1.22346 9.10311C1.20784 9.0953 1.19534 9.08592 1.17971 9.07655C1.16877 9.0703 1.13596 9.04061 1.17034 9.07186C1.14534 9.04999 1.1219 9.02655 1.10002 9.00155C1.12971 9.03592 1.08752 8.98124 1.07815 8.96717C1.06721 8.94999 1.05784 8.93124 1.05002 8.91405C1.06721 8.95155 1.05002 8.9078 1.04534 8.89374C1.04221 8.88124 1.03909 8.86717 1.0344 8.85311C1.01721 8.79374 1.03284 8.87967 1.03127 8.84217C1.03127 8.82342 1.02971 8.80624 1.02815 8.78749C1.02815 8.77811 1.02815 8.76717 1.02815 8.7578C1.02815 8.7078 1.02815 8.6578 1.02815 8.6078C1.02815 8.24061 1.02815 7.87499 1.02815 7.5078C1.02815 7.41092 1.02659 7.31249 1.02815 7.21561C1.02815 7.20155 1.02971 7.18592 1.02971 7.17186C1.03127 7.11405 1.01721 7.19061 1.03127 7.16092C1.03752 7.14686 1.03909 7.12655 1.04377 7.11092C1.0469 7.09842 1.05159 7.08436 1.05627 7.07186C1.03909 7.1203 1.06252 7.06092 1.06565 7.05311C1.0719 7.04061 1.07815 7.02967 1.08596 7.01874C1.09065 7.01249 1.12971 6.96405 1.0969 7.00155C1.11877 6.97655 1.14221 6.95311 1.16721 6.93124C1.13284 6.96249 1.1969 6.91249 1.21096 6.90467C1.22502 6.89686 1.24065 6.88905 1.25627 6.88124C1.21565 6.89999 1.24846 6.88436 1.25784 6.8828C1.27502 6.87811 1.29065 6.87342 1.30784 6.86874C1.31721 6.86561 1.32815 6.86405 1.33909 6.86249C1.31096 6.86561 1.31096 6.86561 1.33909 6.86249C1.64846 6.85467 1.95784 6.86092 2.26877 6.86092C2.36877 6.86092 2.47034 6.78905 2.49534 6.68905C2.63909 6.0953 2.8594 5.56092 3.17815 5.04217C3.23284 4.95311 3.21409 4.83124 3.14221 4.7578C2.93909 4.55467 2.7344 4.35155 2.53284 4.14842C2.5219 4.13749 2.51096 4.12499 2.50002 4.11405C2.47659 4.09061 2.44065 4.02499 2.42971 3.98905C2.42502 3.97499 2.4219 3.96092 2.41877 3.94686C2.40159 3.8828 2.41877 3.97342 2.41565 3.93436C2.41252 3.90155 2.41252 3.8703 2.41409 3.83749C2.41721 3.79061 2.41565 3.82655 2.41409 3.83592C2.41877 3.81405 2.42346 3.79374 2.42971 3.77342C2.4344 3.75936 2.43909 3.7453 2.44377 3.7328C2.42659 3.77499 2.45471 3.71405 2.45784 3.70936C2.46565 3.69686 2.47346 3.68436 2.48127 3.67186C2.51565 3.61874 2.45471 3.69374 2.50159 3.64842C2.50784 3.64217 2.51252 3.63592 2.51877 3.63124C2.52659 3.62342 2.53284 3.61717 2.54065 3.60936C2.57815 3.57186 2.61565 3.53436 2.65159 3.49842C2.90784 3.24217 3.16565 2.98436 3.4219 2.72811C3.49065 2.65936 3.55784 2.58905 3.62815 2.52186C3.6344 2.51561 3.64221 2.50936 3.6469 2.50467C3.69534 2.45624 3.62971 2.51405 3.66096 2.49217C3.67659 2.48124 3.69221 2.47186 3.70784 2.46249C3.72034 2.45467 3.7344 2.44842 3.7469 2.44217C3.71252 2.45936 3.74377 2.44374 3.75159 2.44061C3.7719 2.43436 3.79377 2.42967 3.81409 2.42342C3.86096 2.40936 3.7844 2.4203 3.83752 2.41874C3.86565 2.41717 3.89534 2.41717 3.92346 2.41874C3.98596 2.4203 3.88596 2.40467 3.9469 2.42342C3.96096 2.42811 3.97502 2.42967 3.98909 2.43436C4.00315 2.43905 4.01721 2.44374 4.02971 2.44842C3.9844 2.43124 4.04846 2.45936 4.05315 2.46249C4.06565 2.4703 4.07815 2.47811 4.09065 2.48592C4.14065 2.51874 4.0719 2.46249 4.11409 2.50624C4.32659 2.72186 4.54377 2.93436 4.75784 3.14842C4.82971 3.2203 4.95315 3.23905 5.04221 3.18436C5.5594 2.86092 6.09377 2.64061 6.68752 2.49686C6.78752 2.47342 6.8594 2.37186 6.8594 2.2703C6.8594 1.98124 6.85784 1.69061 6.8594 1.40155C6.8594 1.38124 6.8594 1.36249 6.86096 1.34217C6.86252 1.2828 6.84846 1.36092 6.86252 1.33124C6.86877 1.31717 6.87034 1.29686 6.87502 1.28124C6.87815 1.26874 6.88284 1.25467 6.88752 1.24217C6.8719 1.28905 6.89221 1.23436 6.8969 1.22342C6.90471 1.2078 6.91409 1.1953 6.92346 1.17967C6.92971 1.16874 6.9594 1.13592 6.92815 1.1703C6.95002 1.1453 6.97346 1.12186 6.99846 1.09999C6.96409 1.12967 7.01877 1.08749 7.03284 1.07811C7.05002 1.06717 7.06877 1.0578 7.08596 1.04999C7.04846 1.06717 7.09221 1.04999 7.10627 1.0453C7.11877 1.04217 7.13284 1.03905 7.1469 1.03436C7.20627 1.01717 7.12034 1.0328 7.15784 1.03124C7.17659 1.03124 7.19377 1.02967 7.21252 1.02811C7.2219 1.02811 7.23284 1.02811 7.24221 1.02811C7.29221 1.02811 7.34221 1.02811 7.39221 1.02811C7.7594 1.02811 8.12502 1.02811 8.49221 1.02811C8.58909 1.02811 8.68752 1.02655 8.7844 1.02811C8.79846 1.02811 8.81409 1.02967 8.82815 1.02967C8.88596 1.03124 8.8094 1.01717 8.83909 1.03124C8.85315 1.03749 8.87346 1.03905 8.88909 1.04374C8.90159 1.04686 8.91565 1.05155 8.92815 1.05624C8.87971 1.03905 8.93909 1.06249 8.9469 1.06561C8.9594 1.07186 8.97034 1.07811 8.98127 1.08592C8.98752 1.09061 9.03596 1.12967 8.99846 1.09686C9.02346 1.11874 9.0469 1.14217 9.06877 1.16717C9.03752 1.1328 9.08752 1.19686 9.09534 1.21092C9.10315 1.22499 9.11096 1.24061 9.11877 1.25624C9.10002 1.21561 9.11565 1.24842 9.11721 1.2578C9.1219 1.27499 9.12659 1.29061 9.13127 1.3078C9.1344 1.31717 9.13596 1.32811 9.13752 1.33905C9.1344 1.31092 9.1344 1.31092 9.13752 1.33905C9.14534 1.64842 9.13909 1.9578 9.13909 2.26874C9.13909 2.36874 9.21096 2.4703 9.31096 2.4953C9.90471 2.63905 10.4391 2.85936 10.9578 3.17811C11.0469 3.2328 11.1688 3.21405 11.2422 3.14217C11.4453 2.93905 11.6485 2.73436 11.8516 2.5328C11.8625 2.52186 11.875 2.51092 11.886 2.49999C11.9094 2.47655 11.975 2.44061 12.011 2.42967C12.025 2.42499 12.0391 2.42186 12.0531 2.41874C12.1172 2.40155 12.0266 2.41874 12.0656 2.41561C12.0985 2.41249 12.1297 2.41249 12.1625 2.41405C12.2094 2.41717 12.1735 2.41561 12.1641 2.41405C12.186 2.41874 12.2063 2.42342 12.2266 2.42967C12.2406 2.43436 12.2547 2.43905 12.2672 2.44374C12.225 2.42655 12.286 2.45467 12.2906 2.4578C12.3031 2.46561 12.3156 2.47342 12.3281 2.48124C12.3813 2.51561 12.3063 2.45467 12.3516 2.50155C12.3578 2.5078 12.3641 2.51249 12.3688 2.51874C12.3766 2.52655 12.3828 2.5328 12.3906 2.54061C12.4281 2.57811 12.4656 2.61561 12.5016 2.65155C12.7578 2.9078 13.0156 3.16561 13.2719 3.42186C13.3406 3.49061 13.411 3.5578 13.4781 3.62811C13.4844 3.63436 13.4906 3.64217 13.4953 3.64686C13.5438 3.6953 13.486 3.62967 13.5078 3.66092C13.5188 3.67655 13.5281 3.69217 13.5375 3.7078C13.5453 3.7203 13.5516 3.73436 13.5578 3.74686C13.5406 3.71249 13.5563 3.74374 13.5594 3.75155C13.5656 3.77186 13.5703 3.79374 13.5766 3.81405C13.5906 3.86092 13.5797 3.78436 13.5813 3.83749C13.5828 3.86561 13.5828 3.8953 13.5813 3.92342C13.5797 3.98592 13.5953 3.88592 13.5766 3.94686C13.5719 3.96092 13.5703 3.97499 13.5656 3.98905C13.561 4.00311 13.5563 4.01717 13.5516 4.02967C13.5688 3.98436 13.5406 4.04842 13.5375 4.05311C13.5297 4.06561 13.5219 4.07811 13.5141 4.09061C13.4813 4.14061 13.5375 4.07186 13.4938 4.11405C13.2781 4.32655 13.0656 4.54374 12.8516 4.7578C12.7797 4.82967 12.761 4.95311 12.8156 5.04217C13.1391 5.55936 13.3594 6.09374 13.5031 6.68749C13.5266 6.78749 13.6281 6.85936 13.7297 6.85936C14.0188 6.85936 14.3094 6.8578 14.5985 6.85936C14.6188 6.85936 14.6375 6.85936 14.6578 6.86092C14.7172 6.86249 14.6391 6.84842 14.6688 6.86249C14.6828 6.86874 14.7031 6.8703 14.7188 6.87499C14.7313 6.87811 14.7453 6.8828 14.7578 6.88749C14.711 6.87186 14.7656 6.89217 14.7766 6.89686C14.7922 6.90467 14.8047 6.91405 14.8203 6.92342C14.8313 6.92967 14.8641 6.95936 14.8297 6.92811C14.8547 6.94999 14.8781 6.97342 14.9 6.99842C14.8703 6.96405 14.9125 7.01874 14.9219 7.0328C14.9328 7.04999 14.9422 7.06874 14.95 7.08592C14.9328 7.04842 14.95 7.09217 14.9547 7.10624C14.9578 7.11874 14.961 7.1328 14.9656 7.14686C14.9828 7.20624 14.9672 7.1203 14.9688 7.1578C14.9688 7.17655 14.9703 7.19374 14.9719 7.21249C14.9719 7.22186 14.9719 7.2328 14.9719 7.24217C14.9719 7.29217 14.9719 7.34217 14.9719 7.39217C14.9719 7.75936 14.9719 8.12499 14.9719 8.49217C14.9719 8.58905 14.9735 8.68749 14.9719 8.78436C14.9719 8.79842 14.9703 8.81405 14.9703 8.82811C14.9688 8.88592 14.9828 8.80936 14.9688 8.83905C14.9625 8.85311 14.961 8.87342 14.9563 8.88905C14.9531 8.90155 14.9485 8.91561 14.9438 8.92811C14.961 8.87967 14.9375 8.93905 14.9344 8.94686C14.9281 8.95936 14.9219 8.9703 14.9141 8.98124C14.9094 8.98749 14.8703 9.03592 14.9031 8.99842C14.8813 9.02342 14.8578 9.04686 14.8328 9.06874C14.8672 9.03749 14.8031 9.08749 14.7891 9.0953C14.775 9.10311 14.7594 9.11092 14.7438 9.11874C14.7844 9.09999 14.7516 9.11561 14.7422 9.11717C14.725 9.12186 14.7094 9.12655 14.6922 9.13124C14.6828 9.13436 14.6719 9.13592 14.661 9.13749C14.6891 9.13436 14.6891 9.13436 14.661 9.13749C14.3516 9.1453 14.0422 9.13905 13.7313 9.13905C13.6094 9.13905 13.4906 9.24686 13.4969 9.37342C13.5031 9.49999 13.6 9.6078 13.7313 9.6078C14.025 9.6078 14.3203 9.61249 14.6141 9.6078C14.961 9.60311 15.261 9.39374 15.3875 9.07186C15.4422 8.93124 15.4406 8.78436 15.4406 8.63592C15.4406 8.24842 15.4406 7.86249 15.4406 7.47499C15.4406 7.37342 15.4469 7.2703 15.4391 7.16874C15.4141 6.81405 15.1688 6.49686 14.8172 6.41405C14.6313 6.3703 14.4266 6.38905 14.2375 6.38905C14.0688 6.38905 13.9016 6.38905 13.7328 6.38905C13.8078 6.44686 13.8828 6.50311 13.9594 6.56092C13.8094 5.94217 13.5625 5.3453 13.2297 4.80155C13.2172 4.89686 13.2047 4.99061 13.1938 5.08592C13.4016 4.87811 13.6125 4.67342 13.8172 4.46249C14.061 4.21092 14.1266 3.84686 13.9828 3.52811C13.9203 3.38905 13.8125 3.28905 13.7078 3.1828C13.4375 2.91249 13.1688 2.64374 12.8985 2.37342C12.8297 2.30467 12.7625 2.2328 12.6906 2.16717C12.4203 1.91717 11.9906 1.86405 11.6797 2.07499C11.5235 2.17967 11.3953 2.3328 11.2641 2.46405C11.1485 2.57967 11.0328 2.6953 10.9172 2.81092C11.0125 2.79842 11.1063 2.78592 11.2016 2.77499C10.6578 2.44217 10.061 2.1953 9.44221 2.0453C9.50002 2.1203 9.55627 2.1953 9.61409 2.27186C9.61409 1.97811 9.61877 1.6828 9.61409 1.38905C9.6094 1.04217 9.40002 0.742174 9.07815 0.615612C8.93752 0.560924 8.79065 0.562487 8.64221 0.562487C8.25471 0.562487 7.86877 0.562487 7.48127 0.562487C7.37971 0.562487 7.27659 0.556236 7.17502 0.564049C6.82034 0.589049 6.50315 0.834362 6.42034 1.18592C6.37659 1.37186 6.39534 1.57655 6.39534 1.76561C6.39534 1.93436 6.39534 2.10155 6.39534 2.2703C6.45315 2.1953 6.5094 2.1203 6.56721 2.04374C5.94846 2.19374 5.35159 2.44061 4.80784 2.77342C4.90315 2.78592 4.9969 2.79842 5.09221 2.80936C4.8844 2.60155 4.67971 2.39061 4.46877 2.18592C4.21721 1.94217 3.85315 1.87655 3.5344 2.0203C3.39534 2.0828 3.29534 2.19061 3.18909 2.2953C2.91877 2.56561 2.65002 2.83436 2.37971 3.10467C2.31096 3.17342 2.23909 3.24061 2.17346 3.31249C1.92346 3.5828 1.87034 4.01249 2.08127 4.32342C2.18596 4.47967 2.33909 4.6078 2.47034 4.73905C2.58596 4.85467 2.70159 4.9703 2.81721 5.08592C2.80471 4.99061 2.79221 4.89686 2.78127 4.80155C2.44846 5.3453 2.20159 5.94217 2.05159 6.56092C2.12659 6.50311 2.20159 6.44686 2.27815 6.38905C1.9844 6.38905 1.68909 6.38436 1.39534 6.38905C1.04846 6.39374 0.748461 6.60311 0.621898 6.92499C0.567211 7.06561 0.568773 7.21249 0.568773 7.36092C0.568773 7.74842 0.568773 8.13436 0.568773 8.52186C0.568773 8.62342 0.562523 8.72655 0.570336 8.82811C0.595336 9.1828 0.840648 9.49999 1.19221 9.5828C1.37815 9.62655 1.58284 9.6078 1.7719 9.6078C1.94065 9.6078 2.10784 9.6078 2.27659 9.6078C2.20159 9.54999 2.12659 9.49374 2.05002 9.43592C2.20002 10.0547 2.4469 10.6515 2.77971 11.1953C2.79221 11.1 2.80471 11.0062 2.81565 10.9109C2.60784 11.1187 2.3969 11.3234 2.19221 11.5344C1.94846 11.7859 1.88284 12.15 2.02659 12.4687C2.08909 12.6078 2.1969 12.7078 2.30159 12.814C2.5719 13.0844 2.84065 13.3531 3.11096 13.6234C3.17971 13.6922 3.2469 13.764 3.31877 13.8297C3.58909 14.0797 4.01877 14.1328 4.32971 13.9219C4.48596 13.8172 4.61409 13.664 4.74534 13.5328C4.86096 13.4172 4.97659 13.3015 5.09221 13.1859C4.9969 13.1984 4.90315 13.2109 4.80784 13.2219C5.35159 13.5547 5.94846 13.8015 6.56721 13.9515C6.5094 13.8765 6.45315 13.8015 6.39534 13.725C6.39534 14.0187 6.39065 14.314 6.39534 14.6078C6.40002 14.9547 6.6094 15.2547 6.93127 15.3812C7.0719 15.4359 7.21877 15.4344 7.36721 15.4344C7.75471 15.4344 8.14065 15.4344 8.52815 15.4344C8.62971 15.4344 8.73284 15.4406 8.8344 15.4328C9.18909 15.4078 9.50627 15.1625 9.58909 14.8109C9.63284 14.625 9.61409 14.4203 9.61409 14.2312C9.61409 14.0625 9.61409 13.8953 9.61409 13.7265C9.55627 13.8015 9.50002 13.8765 9.44221 13.9531C10.061 13.8031 10.6578 13.5562 11.2016 13.2234C11.1063 13.2109 11.0125 13.1984 10.9172 13.1875C11.125 13.3953 11.3297 13.6062 11.5406 13.8109C11.7922 14.0547 12.1563 14.1203 12.475 13.9765C12.6141 13.914 12.7141 13.8062 12.8203 13.7015C13.0906 13.4312 13.3594 13.1625 13.6297 12.8922C13.6985 12.8234 13.7703 12.7562 13.836 12.6844C14.086 12.414 14.1391 11.9844 13.9281 11.6734C13.8235 11.5172 13.6703 11.389 13.5391 11.2578C13.4235 11.1422 13.3078 11.0265 13.1922 10.9109C13.2047 11.0062 13.2172 11.1 13.2281 11.1953C13.561 10.6515 13.8078 10.0547 13.9578 9.43592C13.986 9.31717 13.9203 9.17655 13.7938 9.14686C13.6703 9.12186 13.5344 9.18592 13.5031 9.31249Z" fill="black"/>
<path d="M10.5312 7.99999C10.5312 8.07343 10.5281 8.1453 10.5234 8.21874C10.5203 8.25155 10.5172 8.2828 10.514 8.31561C10.5125 8.32811 10.5062 8.37499 10.5125 8.32811C10.5094 8.34999 10.5062 8.3703 10.5031 8.39218C10.4797 8.53124 10.4469 8.66874 10.4031 8.80155C10.3844 8.86093 10.3609 8.91874 10.339 8.97811C10.314 9.04061 10.3515 8.95155 10.3344 8.98905C10.3281 9.00468 10.3203 9.0203 10.3125 9.03593C10.2969 9.0703 10.2797 9.10468 10.2625 9.13749C10.2015 9.25624 10.1328 9.3703 10.0547 9.47968C10.0344 9.5078 10.014 9.53436 9.99373 9.56249C10.0219 9.52499 9.96873 9.59218 9.96091 9.60311C9.9156 9.6578 9.86716 9.71093 9.81716 9.76249C9.77498 9.80624 9.72966 9.84843 9.68435 9.89061C9.65935 9.91405 9.63279 9.93593 9.60779 9.9578C9.59685 9.96718 9.58748 9.97499 9.57654 9.98436C9.5656 9.99374 9.55466 10.0016 9.54529 10.0094C9.56248 9.9953 9.5656 9.99374 9.55154 10.0047C9.44529 10.0859 9.33279 10.1578 9.21716 10.2234C9.15623 10.2562 9.09529 10.2875 9.03279 10.3156C9.02029 10.3219 9.00779 10.3266 8.99529 10.3328C8.93435 10.3609 9.02185 10.3219 8.98435 10.3375C8.94841 10.3516 8.91404 10.3656 8.8781 10.3781C8.74685 10.425 8.61091 10.4641 8.47341 10.4906C8.44529 10.4969 8.41716 10.5016 8.38904 10.5062C8.36873 10.5094 8.34685 10.5125 8.32498 10.5156C8.33435 10.5141 8.37029 10.5109 8.32341 10.5156C8.25154 10.5234 8.17966 10.5297 8.10779 10.5328C7.96248 10.5391 7.81716 10.5312 7.67185 10.5156C7.6031 10.5078 7.70154 10.5203 7.65935 10.5141C7.64216 10.5109 7.62341 10.5094 7.60623 10.5062C7.57498 10.5016 7.54373 10.4953 7.51248 10.4891C7.4406 10.475 7.36873 10.4578 7.29685 10.4375C7.23591 10.4203 7.17654 10.4016 7.11716 10.3797C7.08435 10.3672 7.0531 10.3547 7.02029 10.3422C6.9781 10.325 7.01091 10.3375 7.01873 10.3422C6.99685 10.3328 6.97498 10.3234 6.9531 10.3125C6.83123 10.2562 6.71404 10.1906 6.6031 10.1172C6.54529 10.0797 6.4906 10.0406 6.43591 9.99843C6.47185 10.0266 6.4156 9.98124 6.4031 9.97186C6.37185 9.9453 6.3406 9.91874 6.31091 9.89218C6.21248 9.80311 6.12029 9.7078 6.03591 9.60468C6.0281 9.59374 5.97341 9.52655 6.0031 9.56405C5.98279 9.53749 5.96248 9.50936 5.94216 9.48124C5.9031 9.42499 5.8656 9.36874 5.82966 9.30936C5.79373 9.24999 5.76091 9.19061 5.72966 9.12968C5.7156 9.10155 5.70154 9.07343 5.68904 9.0453C5.68123 9.02968 5.67498 9.01405 5.66716 8.99843C5.63904 8.93593 5.68279 9.04218 5.65779 8.97811C5.60623 8.84843 5.56248 8.71561 5.53123 8.57968C5.51716 8.51718 5.50466 8.45468 5.49373 8.39218C5.4906 8.37499 5.48748 8.35624 5.48591 8.33905C5.47966 8.29843 5.49216 8.3953 5.48435 8.32655C5.47966 8.28749 5.47654 8.24843 5.47341 8.2078C5.46248 8.06561 5.46248 7.92343 5.47498 7.7828C5.4781 7.74686 5.48123 7.71093 5.48591 7.67499C5.4906 7.62811 5.48748 7.66405 5.48591 7.67343C5.48904 7.65624 5.4906 7.63749 5.49373 7.6203C5.50623 7.54686 5.52029 7.47343 5.53748 7.40155C5.57029 7.26874 5.61248 7.14061 5.66404 7.01405C5.67966 6.97655 5.6406 7.06405 5.66873 7.00311C5.67498 6.99061 5.67966 6.97811 5.68591 6.96561C5.69998 6.93436 5.7156 6.90311 5.73123 6.87186C5.76248 6.81093 5.79529 6.74999 5.83123 6.69218C5.86716 6.63436 5.90466 6.57655 5.94373 6.5203C5.96091 6.4953 5.97966 6.4703 5.99841 6.4453C6.02185 6.41405 5.96404 6.48749 6.00623 6.43593C6.01873 6.4203 6.03123 6.40468 6.04529 6.38905C6.13279 6.28436 6.2281 6.18749 6.32966 6.09686C6.3531 6.07655 6.37654 6.05624 6.39998 6.03749C6.41091 6.02968 6.47654 5.97499 6.4406 6.00468C6.49529 5.96249 6.54998 5.92343 6.60779 5.88593C6.72185 5.81093 6.84373 5.74374 6.96716 5.68749C6.98279 5.67968 6.99841 5.67343 7.01404 5.66561C7.05154 5.64999 6.96248 5.68593 7.02498 5.66093C7.05466 5.64999 7.08279 5.63749 7.11248 5.62655C7.18123 5.60155 7.25154 5.57968 7.32185 5.55936C7.38279 5.54218 7.44373 5.52811 7.50623 5.51561C7.5406 5.5078 7.57654 5.50155 7.61091 5.49686C7.62498 5.4953 7.63904 5.49218 7.6531 5.49061C7.68123 5.48593 7.68123 5.48593 7.65466 5.49061C7.6656 5.48905 7.67654 5.48749 7.68591 5.48749C7.82654 5.47186 7.96873 5.46561 8.11091 5.47186C8.18279 5.47499 8.25466 5.48124 8.32654 5.48905C8.33591 5.49061 8.37341 5.4953 8.3281 5.48905C8.34529 5.49218 8.36404 5.49374 8.38123 5.49686C8.42029 5.50311 8.45779 5.50936 8.49685 5.51718C8.63435 5.5453 8.76873 5.58436 8.89998 5.6328C8.92654 5.64218 8.95154 5.65311 8.9781 5.66249C9.04216 5.68749 8.93591 5.64218 8.99841 5.67186C9.01091 5.67811 9.02341 5.6828 9.03591 5.68905C9.09841 5.71718 9.15935 5.74843 9.22029 5.78124C9.3406 5.84686 9.45466 5.92186 9.56248 6.00624C9.52654 5.97811 9.56248 6.00624 9.57185 6.01405C9.58435 6.02499 9.59841 6.03593 9.61091 6.04686C9.63435 6.06718 9.65779 6.08593 9.67966 6.1078C9.73279 6.15624 9.78435 6.20468 9.83435 6.25624C9.87654 6.29999 9.91716 6.34686 9.95623 6.39374C9.96716 6.40624 9.9781 6.4203 9.98904 6.4328C9.99685 6.44218 10.025 6.47811 9.99685 6.44218C10.0203 6.47186 10.0422 6.50155 10.064 6.5328C10.1406 6.64218 10.2094 6.75624 10.2703 6.87655C10.2859 6.9078 10.3 6.93905 10.3156 6.9703C10.3219 6.9828 10.3265 6.9953 10.3328 7.0078C10.3609 7.0703 10.3172 6.96405 10.3422 7.02811C10.3672 7.09218 10.3922 7.1578 10.4125 7.22343C10.4547 7.35468 10.4859 7.48749 10.5078 7.62343C10.5109 7.64061 10.514 7.65936 10.5156 7.67655C10.5094 7.63124 10.514 7.66874 10.5156 7.67811C10.5187 7.71405 10.5234 7.74999 10.5265 7.78593C10.5281 7.85468 10.5312 7.92655 10.5312 7.99999C10.5312 8.12186 10.639 8.24061 10.7656 8.23436C10.8922 8.22811 11 8.13124 11 7.99999C10.9969 7.38436 10.8094 6.76874 10.4484 6.26874C10.0906 5.7703 9.59841 5.39374 9.02185 5.17968C7.85935 4.74843 6.48748 5.11874 5.69841 6.07499C5.29685 6.56093 5.05623 7.15155 5.00623 7.78124C4.95935 8.39218 5.10935 9.01874 5.42498 9.54374C5.73435 10.0562 6.19998 10.4797 6.74685 10.7266C7.33123 10.9891 7.9781 11.0641 8.60779 10.9375C9.80154 10.6984 10.7734 9.68905 10.9578 8.4828C10.9828 8.32187 10.9969 8.16093 10.9984 7.99999C10.9984 7.87811 10.8906 7.75936 10.764 7.76561C10.6375 7.77186 10.5312 7.86874 10.5312 7.99999Z" fill="black"/>
</g>
<defs>
<clipPath id="clip0_2_95">
<rect width="16" height="16" fill="white"/>
</clipPath>
</defs>
</svg>
