<svg width="18" height="18" viewBox="0 0 18 18" fill="none" xmlns="http://www.w3.org/2000/svg">
<path fill-rule="evenodd" clip-rule="evenodd" d="M14.8501 10.17H12.9601C12.6899 10.17 12.51 9.98983 12.51 9.71991C12.51 9.45 12.6902 9.26985 12.9601 9.26985H14.8501C15.2999 9.26985 15.7499 9.18008 16.2 9.08971C16.4699 8.99993 16.65 8.90986 16.8299 8.81979C17.01 8.73001 17.1001 8.4598 17.1001 8.27995C17.1001 8.09981 17.01 7.91966 16.9199 7.73982C16.4699 7.19998 15.6598 6.83998 14.5799 6.47999C14.4898 6.47999 14.4898 6.38992 14.3997 6.38992C14.1298 6.20978 13.95 5.93986 13.8599 5.66994C13.8599 5.30965 14.04 5.03973 14.31 4.85989C14.9399 3.95976 15.2999 3.15 15.2101 2.42972C15.12 1.97996 14.9399 1.61997 14.5799 1.34975C13.95 0.899689 13.0501 0.899689 12.5097 1.34975C12.15 1.61997 11.9699 1.97996 11.8798 2.42972C11.79 3.14971 12.15 3.95976 12.7799 4.85989C12.9601 5.04003 12.87 5.30995 12.6899 5.4898C12.5097 5.66994 12.2398 5.57987 12.06 5.40002C11.1598 4.31975 10.7999 3.23978 10.98 2.24988C11.0701 1.61997 11.4301 0.989761 11.9699 0.629769C12.87 -0.0902128 14.2202 -0.0902128 15.12 0.629769C15.6598 1.07983 16.0198 1.61997 16.1099 2.24988C16.2 3.23978 15.84 4.32005 15.0299 5.40002C14.9399 5.4898 14.9399 5.57987 14.8498 5.57987C14.8498 5.57987 14.9399 5.57987 14.9399 5.66994C16.1099 6.02993 17.01 6.56977 17.5499 7.19968C17.8201 7.4699 17.9999 7.91996 17.9999 8.37002C17.9999 8.6145 17.943 8.85562 17.8337 9.07429C17.7243 9.29296 17.5656 9.48316 17.37 9.62984C17.1001 9.80999 16.8299 9.99013 16.4699 10.0799C15.9301 10.0799 15.3899 10.17 14.8501 10.17Z" fill="#474747"/>
<path fill-rule="evenodd" clip-rule="evenodd" d="M5.03983 10.17H3.14982C2.51992 10.17 1.98008 10.0799 1.53002 9.90005C1.16974 9.80998 0.899823 9.62984 0.629905 9.44999C0.269917 9.18007 0 8.63993 0 8.18987C0 7.73981 0.180142 7.37982 0.450059 7.01983C1.07996 6.38992 1.97979 5.93985 3.14982 5.57986C3.14982 5.57986 3.23989 5.57986 3.23989 5.48979C3.23989 5.48979 3.14982 5.40001 3.14982 5.30965C2.25 4.23026 1.80024 3.06022 1.98038 2.16009C2.07015 1.53018 2.43014 0.899978 2.97027 0.539987C3.87039 -0.179996 5.22027 -0.179996 6.12039 0.539987C6.66022 0.990049 7.02021 1.53018 7.11028 2.16009C7.20035 3.15 6.84037 4.23027 6.03032 5.31024C5.85018 5.49038 5.58026 5.49038 5.40041 5.40031C5.22027 5.22017 5.1302 4.95025 5.31034 4.7701C6.03032 3.87027 6.30024 2.97015 6.21016 2.34024C6.21016 1.89017 5.94025 1.53018 5.58026 1.25997C4.95035 0.810202 4.14031 0.810202 3.51011 1.25997C3.15012 1.53018 2.8802 1.89017 2.8802 2.25017C2.79013 2.97015 3.15012 3.77991 3.78032 4.68003C3.96046 4.95025 4.23038 5.22017 4.14031 5.49009C4.14031 5.85037 3.87039 6.03022 3.60018 6.21007C3.60018 6.21007 3.5104 6.30014 3.42003 6.30014C2.43014 6.7502 1.71017 7.11019 1.17033 7.65033C1.08026 7.83047 0.990189 8.01032 0.990189 8.19017C0.990189 8.46009 1.08026 8.64023 1.26011 8.7303C1.44025 8.82008 1.62039 8.91044 1.89031 9.00022C2.2503 9.18036 2.70035 9.27014 3.15012 9.27014H5.04013C5.31034 9.27014 5.49019 9.45028 5.49019 9.7202C5.49019 9.99012 5.31005 10.1703 5.04013 10.1703L5.03983 10.17Z" fill="#474747"/>
<path fill-rule="evenodd" clip-rule="evenodd" d="M10.89 18H7.20002C6.38997 18 5.66999 17.9099 5.03979 17.64C4.59003 17.4599 4.23004 17.28 3.95983 17.0101C3.41999 16.7402 3.14978 16.11 3.14978 15.4801C3.14978 14.9399 3.32992 14.4899 3.68991 14.0401C4.40989 13.23 5.57992 12.5998 7.20002 12.06L7.46993 11.7901L7.20002 11.5199C6.02998 9.99013 5.49015 8.63994 5.66999 7.37982C5.85014 6.56977 6.20983 5.85008 6.9298 5.30965C8.09984 4.49989 9.90008 4.49989 10.98 5.30965C11.7 5.85008 12.1501 6.56977 12.2399 7.37982C12.42 8.63994 11.8799 10.0799 10.7999 11.5202C10.53 11.7901 10.53 11.8799 10.53 11.8799C10.53 11.8799 10.7101 11.9699 10.7999 12.06C12.42 12.5998 13.59 13.23 14.31 14.0401C14.67 14.4001 14.8501 14.9399 14.8501 15.4801C14.8501 16.11 14.5799 16.7402 14.1299 17.1002C13.8599 17.3701 13.5 17.5499 13.0499 17.7301C12.3299 17.9102 11.6099 18 10.89 18ZM8.99996 5.48979C8.45983 5.48979 7.91999 5.66994 7.46993 5.93986C6.9298 6.30014 6.65989 6.83998 6.56982 7.46989C6.48004 8.45979 6.9301 9.62984 7.82992 10.89C8.09984 11.1599 8.37005 11.4301 8.27998 11.8799C8.27998 12.2401 7.9197 12.5101 7.65008 12.78C7.65008 12.78 7.56 12.8701 7.46993 12.8701C5.94021 13.3201 4.95002 13.95 4.23004 14.67C4.13997 14.8502 4.0499 15.2101 4.0499 15.4801C4.0499 15.8401 4.23004 16.2 4.49996 16.3799C4.6801 16.56 5.03979 16.7402 5.40008 16.83C5.93991 17.0101 6.56982 17.1002 7.20002 17.1002H10.89C11.5199 17.1002 12.1501 17.0101 12.6899 16.83C13.0502 16.7402 13.3201 16.56 13.59 16.3799C13.8599 16.2 14.0401 15.8401 14.0401 15.4801C14.0401 15.2101 13.95 14.8502 13.6798 14.67C13.0499 13.95 11.9699 13.4099 10.4402 12.8701C10.3498 12.8701 10.3498 12.78 10.2601 12.78C9.98985 12.5101 9.62986 12.2398 9.62986 11.8799C9.62986 11.5199 9.90008 11.1599 10.17 10.89C11.0701 9.71991 11.5199 8.45979 11.4301 7.46989C11.34 6.83998 11.0698 6.38992 10.53 5.94015C10.0799 5.66994 9.54009 5.48979 8.99996 5.48979Z" fill="#474747"/>
</svg>
