<svg width="15" height="4" viewBox="0 0 15 4" fill="none" xmlns="http://www.w3.org/2000/svg">
<path d="M3.51295 1.75647C3.51295 2.22232 3.32789 2.66909 2.99849 2.99849C2.66909 3.32789 2.22232 3.51295 1.75647 3.51295C1.29063 3.51295 0.843862 3.32789 0.514459 2.99849C0.185057 2.66909 0 2.22232 0 1.75647C0 1.29063 0.185057 0.843863 0.514459 0.51446C0.843862 0.185057 1.29063 0 1.75647 0C2.22232 0 2.66909 0.185057 2.99849 0.51446C3.32789 0.843863 3.51295 1.29063 3.51295 1.75647ZM8.78237 1.75647C8.78237 2.22232 8.59732 2.66909 8.26791 2.99849C7.93851 3.32789 7.49174 3.51295 7.0259 3.51295C6.56005 3.51295 6.11329 3.32789 5.78388 2.99849C5.45448 2.66909 5.26942 2.22232 5.26942 1.75647C5.26942 1.29063 5.45448 0.843863 5.78388 0.51446C6.11329 0.185057 6.56005 0 7.0259 0C7.49174 0 7.93851 0.185057 8.26791 0.51446C8.59732 0.843863 8.78237 1.29063 8.78237 1.75647ZM12.2953 3.51295C12.7612 3.51295 13.2079 3.32789 13.5373 2.99849C13.8667 2.66909 14.0518 2.22232 14.0518 1.75647C14.0518 1.29063 13.8667 0.843863 13.5373 0.51446C13.2079 0.185057 12.7612 0 12.2953 0C11.8295 0 11.3827 0.185057 11.0533 0.51446C10.7239 0.843863 10.5388 1.29063 10.5388 1.75647C10.5388 2.22232 10.7239 2.66909 11.0533 2.99849C11.3827 3.32789 11.8295 3.51295 12.2953 3.51295Z" fill="#989898"/>
</svg>
