<svg width="22" height="22" viewBox="0 0 22 22" fill="none" xmlns="http://www.w3.org/2000/svg">
<path d="M8 21H6C2 21 1 20 1 16V6C1 2 2 1 6 1H7.5C9 1 9.33 1.44 9.9 2.2L11.4 4.2C11.78 4.7 12 5 13 5H16C20 5 21 6 21 10V12" stroke="#D3733C" stroke-width="1.1" stroke-miterlimit="10" stroke-linecap="round" stroke-linejoin="round"/>
<path d="M12.7601 17.32C10.4101 17.49 10.4101 20.89 12.7601 21.06H18.3201C18.9901 21.06 19.6501 20.81 20.1401 20.36C21.7901 18.92 20.9101 16.04 18.7401 15.77C17.9601 11.08 11.1801 12.86 12.7801 17.33" stroke="#D3733C" stroke-width="1.1" stroke-miterlimit="10" stroke-linecap="round" stroke-linejoin="round"/>
</svg>
