<svg width="23" height="23" viewBox="0 0 23 23" fill="none" xmlns="http://www.w3.org/2000/svg">
<path d="M22 9.4V14.65C22 19.9 19.9 22 14.65 22H8.35C3.1 22 1 19.9 1 14.65V8.35C1 3.1 3.1 1 8.35 1H13.6" fill="#2473BC"/>
<path d="M22 9.4V14.65C22 19.9 19.9 22 14.65 22H8.35C3.1 22 1 19.9 1 14.65V8.35C1 3.1 3.1 1 8.35 1H13.6" stroke="white" stroke-width="1.155" stroke-linecap="round" stroke-linejoin="round"/>
<path d="M22.0001 9.40001H17.8001C14.6501 9.40001 13.6001 8.35001 13.6001 5.20002V1.00002L22.0001 9.40001Z" fill="#2473BC" stroke="white" stroke-width="1.155" stroke-linecap="round" stroke-linejoin="round"/>
<path d="M8.35 16.75V10.45L6.25 12.55M8.35 10.45L10.45 12.55L8.35 10.45Z" fill="#2473BC"/>
<path d="M8.35 16.75V10.45L6.25 12.55M8.35 10.45L10.45 12.55" stroke="white" stroke-width="1.155" stroke-linecap="round" stroke-linejoin="round"/>
</svg>
