<svg width="45" height="45" viewBox="0 0 45 45" fill="none" xmlns="http://www.w3.org/2000/svg">
<circle cx="22.5" cy="22.5" r="22.5" fill="#F34C4C"/>
<path d="M29 17.6875H27.125C27.125 15.1 25.025 13 22.4375 13C19.85 13 17.75 15.1 17.75 17.6875H15.875C14.8391 17.6875 14.0094 18.5266 14.0094 19.5625L14 30.8125C14 31.8484 14.8391 32.6875 15.875 32.6875H29C30.0359 32.6875 30.875 31.8484 30.875 30.8125V19.5625C30.875 18.5266 30.0359 17.6875 29 17.6875ZM22.4375 14.875C23.9891 14.875 25.25 16.1359 25.25 17.6875H19.625C19.625 16.1359 20.8859 14.875 22.4375 14.875ZM22.4375 24.25C19.85 24.25 17.75 22.15 17.75 19.5625H19.625C19.625 21.1141 20.8859 22.375 22.4375 22.375C23.9891 22.375 25.25 21.1141 25.25 19.5625H27.125C27.125 22.15 25.025 24.25 22.4375 24.25Z" fill="white"/>
</svg>
