<svg width="20" height="20" viewBox="0 0 20 20" fill="none" xmlns="http://www.w3.org/2000/svg">
<path d="M14.0455 7.74777L9.50176 12.2915L8.36581 13.4275L7.23026 12.2915L5.33691 10.3982L6.47286 9.26222L8.36621 11.1556L12.9096 6.61182L14.0455 7.74777Z" fill="#21AF40"/>
<path d="M3.53905 10.3945H0.375C0.275544 10.3945 0.180161 10.355 0.109835 10.2847C0.0395088 10.2144 0 10.119 0 10.0195C0 9.92007 0.0395088 9.82469 0.109835 9.75436C0.180161 9.68403 0.275544 9.64452 0.375 9.64452H3.53905C3.63851 9.64452 3.73389 9.68403 3.80421 9.75436C3.87454 9.82469 3.91405 9.92007 3.91405 10.0195C3.91405 10.119 3.87454 10.2144 3.80421 10.2847C3.73389 10.355 3.63851 10.3945 3.53905 10.3945ZM19.0072 10.3945H15.8437C15.7945 10.3945 15.7457 10.3848 15.7002 10.366C15.6547 10.3471 15.6133 10.3195 15.5785 10.2847C15.5437 10.2499 15.5161 10.2085 15.4972 10.163C15.4784 10.1175 15.4687 10.0688 15.4687 10.0195C15.4687 9.92007 15.5082 9.82469 15.5785 9.75436C15.6489 9.68403 15.7442 9.64452 15.8437 9.64452H19.0072C19.1067 9.64452 19.202 9.68403 19.2724 9.75436C19.3427 9.82469 19.3822 9.92007 19.3822 10.0195C19.3822 10.119 19.3427 10.2144 19.2724 10.2847C19.202 10.355 19.1067 10.3945 19.0072 10.3945ZM9.6914 4.24217C9.59194 4.24217 9.49656 4.20267 9.42623 4.13234C9.35591 4.06201 9.3164 3.96663 9.3164 3.86717V0.703125C9.3164 0.603669 9.35591 0.508286 9.42623 0.43796C9.49656 0.367634 9.59194 0.328125 9.6914 0.328125C9.79086 0.328125 9.88624 0.367634 9.95656 0.43796C10.0269 0.508286 10.0664 0.603669 10.0664 0.703125V3.86717C10.0664 3.96663 10.0269 4.06201 9.95656 4.13234C9.88624 4.20267 9.79086 4.24217 9.6914 4.24217ZM9.6914 19.7349C9.59194 19.7349 9.49656 19.6954 9.42623 19.625C9.35591 19.5547 9.3164 19.4593 9.3164 19.3599V16.1718C9.3164 16.0724 9.35591 15.977 9.42623 15.9067C9.49656 15.8363 9.59194 15.7968 9.6914 15.7968C9.89855 15.7968 10.0664 15.9647 10.0664 16.1718V19.3599C10.0664 19.4593 10.0269 19.5547 9.95656 19.625C9.88624 19.6954 9.79086 19.7349 9.6914 19.7349ZM16.3013 16.96C16.252 16.96 16.2032 16.9504 16.1577 16.9315C16.1122 16.9127 16.0708 16.885 16.0361 16.8502L13.7986 14.6127C13.7282 14.5423 13.6887 14.447 13.6887 14.3475C13.6887 14.248 13.7282 14.1527 13.7986 14.0823C13.8689 14.012 13.9643 13.9725 14.0637 13.9725C14.1632 13.9725 14.2586 14.012 14.3289 14.0823L16.5664 16.3198C16.6188 16.3723 16.6546 16.4391 16.669 16.5118C16.6835 16.5846 16.6761 16.66 16.6477 16.7285C16.6193 16.797 16.5712 16.8556 16.5096 16.8968C16.4479 16.938 16.3754 16.96 16.3013 16.96ZM2.9372 16.8155C2.86304 16.8155 2.79054 16.7935 2.72888 16.7523C2.66721 16.7111 2.61915 16.6525 2.59077 16.584C2.56239 16.5155 2.55497 16.4401 2.56943 16.3674C2.5839 16.2946 2.61961 16.2278 2.67205 16.1754L4.91265 13.9348C4.98338 13.8664 5.07814 13.8286 5.1765 13.8294C5.27487 13.8302 5.36897 13.8697 5.43853 13.9392C5.50809 14.0088 5.54753 14.1029 5.54835 14.2013C5.54918 14.2996 5.51133 14.3944 5.44295 14.4651L3.20235 16.7057C3.16757 16.7405 3.12624 16.7682 3.08073 16.7871C3.03523 16.8059 2.98645 16.8156 2.9372 16.8155ZM13.8706 5.87992C13.7964 5.87993 13.7239 5.85794 13.6622 5.81674C13.6005 5.77554 13.5525 5.71697 13.5241 5.64845C13.4957 5.57993 13.4883 5.50453 13.5027 5.43179C13.5172 5.35904 13.5529 5.29222 13.6054 5.23977L15.8425 3.00262C15.9129 2.9328 16.0081 2.89372 16.1073 2.89394C16.2065 2.89415 16.3015 2.93364 16.3717 3.00376C16.4418 3.07388 16.4813 3.16893 16.4815 3.2681C16.4817 3.36727 16.4427 3.46249 16.3729 3.53292L14.1357 5.77007C14.1009 5.80495 14.0596 5.8326 14.0141 5.85145C13.9686 5.87031 13.9198 5.87998 13.8706 5.87992ZM5.3338 6.05147C5.28454 6.05154 5.23576 6.04187 5.19026 6.02302C5.14475 6.00417 5.10343 5.9765 5.06865 5.94162L2.834 3.70702C2.76368 3.6367 2.72418 3.54132 2.72418 3.44187C2.72418 3.34243 2.76368 3.24705 2.834 3.17672C2.90433 3.10641 2.9997 3.0669 3.09915 3.0669C3.1986 3.0669 3.29397 3.10641 3.3643 3.17672L5.5989 5.41132C5.65134 5.46377 5.68704 5.53058 5.70151 5.60331C5.71598 5.67605 5.70856 5.75144 5.68019 5.81995C5.65181 5.88847 5.60376 5.94704 5.5421 5.98825C5.48045 6.02945 5.40796 6.05146 5.3338 6.05147Z" fill="#5CD176"/>
<path d="M7.36836 4.69628C7.29328 4.69628 7.21994 4.67376 7.15781 4.63162C7.09568 4.58949 7.04762 4.52968 7.01986 4.45993L6.42966 2.97793C6.39286 2.88553 6.39427 2.78229 6.43359 2.69094C6.47291 2.59958 6.5469 2.52758 6.63931 2.49078C6.73171 2.45398 6.83494 2.4554 6.9263 2.49471C7.01766 2.53403 7.08966 2.60803 7.12646 2.70043L7.71666 4.18243C7.73933 4.23932 7.74773 4.30089 7.74112 4.36178C7.7345 4.42266 7.71308 4.48099 7.67872 4.53169C7.64436 4.58238 7.59811 4.62388 7.544 4.65258C7.4899 4.68127 7.42959 4.69627 7.36836 4.69628ZM3.96456 8.14218C3.91931 8.14217 3.87445 8.13393 3.83216 8.11788L2.51171 7.61913C2.46563 7.60174 2.42344 7.57543 2.38754 7.54173C2.35163 7.50803 2.32272 7.46758 2.30245 7.4227C2.28217 7.37782 2.27094 7.32939 2.26939 7.28016C2.26784 7.23094 2.276 7.1819 2.29341 7.13583C2.3108 7.08976 2.3371 7.04757 2.37081 7.01166C2.40451 6.97576 2.44496 6.94684 2.48984 6.92657C2.53472 6.9063 2.58315 6.89507 2.63237 6.89352C2.68159 6.89197 2.73064 6.90013 2.77671 6.91753L4.09716 7.41628C4.14323 7.43368 4.18542 7.45998 4.22132 7.49368C4.25723 7.52739 4.28614 7.56783 4.30642 7.61271C4.32669 7.65759 4.33792 7.70603 4.33947 7.75525C4.34102 7.80447 4.33286 7.85351 4.31546 7.89958C4.28853 7.97087 4.24053 8.03227 4.17785 8.07561C4.11516 8.11895 4.04076 8.14217 3.96456 8.14218ZM2.64451 13.416C2.56203 13.4161 2.48182 13.389 2.41629 13.3389C2.35077 13.2888 2.30359 13.2185 2.28205 13.1389C2.26052 13.0593 2.26583 12.9748 2.29717 12.8985C2.32851 12.8222 2.38412 12.7584 2.45541 12.7169L3.77586 11.9478C3.86175 11.8985 3.96365 11.8852 4.05931 11.9108C4.15497 11.9364 4.23664 11.9987 4.28648 12.0843C4.33632 12.1699 4.3503 12.2717 4.32536 12.3675C4.30042 12.4633 4.23859 12.5454 4.15336 12.5958L2.83291 13.3649C2.77575 13.3984 2.71072 13.416 2.64451 13.416ZM6.52691 17.4023C6.46534 17.4023 6.40473 17.3871 6.35041 17.3581C6.2961 17.3291 6.24976 17.2872 6.21549 17.2361C6.18121 17.1849 6.16006 17.1261 6.15388 17.0649C6.14771 17.0036 6.15672 16.9418 6.18011 16.8848L6.76346 15.4633C6.78214 15.4178 6.80962 15.3763 6.84433 15.3414C6.87903 15.3064 6.92029 15.2787 6.96573 15.2597C7.01116 15.2407 7.0599 15.2308 7.10915 15.2307C7.1584 15.2305 7.2072 15.2401 7.25276 15.2588C7.29831 15.2775 7.33974 15.305 7.37468 15.3397C7.40962 15.3744 7.43738 15.4156 7.45637 15.4611C7.47536 15.5065 7.48522 15.5552 7.48538 15.6045C7.48554 15.6537 7.476 15.7025 7.45731 15.7481L6.87396 17.1696C6.8457 17.2384 6.79762 17.2973 6.73583 17.3387C6.67403 17.3802 6.60131 17.4023 6.52691 17.4023ZM12.8905 17.4023C12.8173 17.4023 12.7458 17.3809 12.6847 17.3408C12.6235 17.3007 12.5754 17.2436 12.5463 17.1766L11.9288 15.7551C11.8897 15.664 11.8883 15.5611 11.9249 15.4689C11.9615 15.3767 12.0331 15.3028 12.124 15.2633C12.215 15.2238 12.3179 15.2219 12.4102 15.2581C12.5025 15.2943 12.5768 15.3655 12.6167 15.4563L13.2342 16.8778C13.259 16.9348 13.2692 16.9972 13.2639 17.0591C13.2587 17.1211 13.238 17.1808 13.2039 17.2328C13.1698 17.2849 13.1233 17.3276 13.0686 17.3572C13.0139 17.3868 12.9527 17.4023 12.8905 17.4023ZM16.6844 13.1946C16.6332 13.1946 16.5826 13.1841 16.5357 13.1637L15.2697 12.6161C15.2242 12.5967 15.183 12.5686 15.1484 12.5332C15.1138 12.4979 15.0866 12.4561 15.0683 12.4102C15.0499 12.3643 15.0409 12.3152 15.0416 12.2658C15.0423 12.2163 15.0527 12.1675 15.0723 12.1222C15.092 12.0768 15.1204 12.0357 15.1559 12.0014C15.1914 11.967 15.2334 11.9401 15.2794 11.922C15.3254 11.9039 15.3746 11.8951 15.424 11.8961C15.4734 11.8971 15.5222 11.9078 15.5674 11.9277L16.8334 12.4754C16.9126 12.5096 16.9776 12.5701 17.0174 12.6467C17.0572 12.7233 17.0694 12.8112 17.0519 12.8957C17.0344 12.9802 16.9883 13.0561 16.9213 13.1106C16.8543 13.165 16.7707 13.1947 16.6844 13.1946ZM15.3141 7.89278C15.2413 7.89281 15.1701 7.87165 15.1091 7.83188C15.0481 7.79212 15.0001 7.73546 14.9708 7.66883C14.9307 7.57782 14.9284 7.4746 14.9644 7.38189C15.0004 7.28918 15.0717 7.21458 15.1628 7.17448L16.5334 6.57078C16.6242 6.53216 16.7265 6.53085 16.8182 6.56715C16.91 6.60345 16.9837 6.67442 17.0235 6.7647C17.0632 6.85498 17.0658 6.95729 17.0307 7.04947C16.9956 7.14165 16.9255 7.21628 16.8358 7.25718L15.4651 7.86088C15.4175 7.8819 15.3661 7.89276 15.3141 7.89278ZM12.1686 4.76138C12.1103 4.76141 12.0527 4.74783 12.0006 4.72172C11.9484 4.69561 11.9031 4.6577 11.8681 4.61099C11.8332 4.56428 11.8096 4.51007 11.7993 4.45266C11.789 4.39525 11.7923 4.33623 11.8088 4.28028L12.2648 2.73323C12.3234 2.53458 12.5319 2.42083 12.7306 2.47958C12.8259 2.50771 12.9063 2.57257 12.9538 2.6599C13.0014 2.74724 13.0123 2.84989 12.9842 2.94528L12.5282 4.49233C12.5053 4.56995 12.4579 4.63809 12.3931 4.68658C12.3283 4.73506 12.2495 4.7613 12.1686 4.76138Z" fill="#6FE288"/>
</svg>
