<svg width="64" height="53" viewBox="0 0 64 53" fill="none" xmlns="http://www.w3.org/2000/svg">
<path d="M61.9002 51.7H4.3002C3.2002 51.7 2.2002 50.8 2.2002 49.6V7.7C2.2002 6.6 3.1002 5.6 4.3002 5.6H33.0002C33.8002 5.6 34.5002 5.2 34.8002 4.5L36.5002 1.1C36.9002 0.4 37.6002 0 38.3002 0H61.8002C62.9002 0 63.9002 0.9 63.9002 2.1V49.6C64.0002 50.7 63.1002 51.7 61.9002 51.7Z" fill="#F4D78B"/>
<path d="M61.0002 52.6001H4.3002C3.2002 52.6001 2.2002 51.7001 2.2002 50.5001V8.60015C2.2002 7.50015 3.1002 6.50015 4.3002 6.50015H33.0002C33.8002 6.50015 34.5002 6.10015 34.8002 5.40015L36.5002 2.00015C36.9002 1.30015 37.6002 0.900146 38.3002 0.900146H61.8002C62.9002 0.900146 63.9002 1.80015 63.9002 3.00015V49.6001C64.0002 51.2001 62.7002 52.6001 61.0002 52.6001Z" fill="#E7B263"/>
<path d="M0 12.8999V48.6999C0 50.3999 1.3 51.6999 3 51.6999H61C62.7 51.6999 64 50.3999 64 48.6999V17.6999C64 15.9999 62.7 14.6999 61 14.6999H31.8C31 14.6999 30.2 14.3999 29.7 13.7999L26.7 10.7999C26.1 10.1999 25.4 9.8999 24.6 9.8999H3C1.3 9.8999 0 11.2999 0 12.8999Z" fill="#E7D990"/>
<path d="M0 13.8003V49.6003C0 51.3003 1.3 52.6003 3 52.6003H61C62.7 52.6003 64 51.3003 64 49.6003V18.6003C64 16.9003 62.7 15.6003 61 15.6003H31.8C31 15.6003 30.2 15.3003 29.7 14.7003L26.7 11.7003C26.1 11.1003 25.4 10.8003 24.6 10.8003H3C1.3 10.8003 0 12.2003 0 13.8003Z" fill="#F4D78B"/>
</svg>
