<svg width="64" height="53" viewBox="0 0 64 53" fill="none" xmlns="http://www.w3.org/2000/svg">
<path d="M61.9002 51.7H4.3002C3.2002 51.7 2.2002 50.8 2.2002 49.6V7.7C2.2002 6.6 3.1002 5.6 4.3002 5.6H33.0002C33.8002 5.6 34.5002 5.2 34.8002 4.5L36.5002 1.1C36.9002 0.4 37.6002 0 38.3002 0H61.8002C62.9002 0 63.9002 0.9 63.9002 2.1V49.6C64.0002 50.7 63.1002 51.7 61.9002 51.7Z" fill="#F4D78B"/>
<path d="M61.0002 52.6H4.3002C3.2002 52.6 2.2002 51.7 2.2002 50.5V8.60002C2.2002 7.50002 3.1002 6.50002 4.3002 6.50002H33.0002C33.8002 6.50002 34.5002 6.10002 34.8002 5.40002L36.5002 2.00002C36.9002 1.30002 37.6002 0.900024 38.3002 0.900024H61.8002C62.9002 0.900024 63.9002 1.80002 63.9002 3.00002V49.6C64.0002 51.2 62.7002 52.6 61.0002 52.6Z" fill="#E7B263"/>
<path d="M0 12.8998V48.6998C0 50.3998 1.3 51.6998 3 51.6998H61C62.7 51.6998 64 50.3998 64 48.6998V17.6998C64 15.9998 62.7 14.6998 61 14.6998H31.8C31 14.6998 30.2 14.3998 29.7 13.7998L26.7 10.7998C26.1 10.1998 25.4 9.89984 24.6 9.89984H3C1.3 9.89984 0 11.2998 0 12.8998Z" fill="#E7D990"/>
<path d="M0 13.8003V49.6003C0 51.3003 1.3 52.6003 3 52.6003H61C62.7 52.6003 64 51.3003 64 49.6003V18.6003C64 16.9003 62.7 15.6003 61 15.6003H31.8C31 15.6003 30.2 15.3003 29.7 14.7003L26.7 11.7003C26.1 11.1003 25.4 10.8003 24.6 10.8003H3C1.3 10.8003 0 12.2003 0 13.8003Z" fill="#F4D78B"/>
<path d="M45.9273 32.3258H44.6672C44.2897 29.2217 42.796 26.361 40.4646 24.2771C38.1332 22.1933 35.1234 21.0287 31.9966 21.0005C28.8698 20.9724 25.8396 22.0826 23.4711 24.1242C21.1026 26.1657 19.5576 28.9991 19.1243 32.0959C18.691 35.1926 19.399 38.3413 21.1163 40.9544C22.8335 43.5676 25.4427 45.4669 28.4571 46.298C31.4716 47.1291 34.6854 46.8353 37.4992 45.4714C40.313 44.1074 42.5345 41.7665 43.7494 38.8852C43.808 38.7596 43.8407 38.6235 43.8456 38.4849C43.8504 38.3464 43.8272 38.2083 43.7775 38.0789C43.7277 37.9495 43.6524 37.8315 43.556 37.7319C43.4596 37.6323 43.3441 37.5532 43.2164 37.4992C43.0887 37.4452 42.9515 37.4176 42.8128 37.4179C42.6742 37.4182 42.5371 37.4464 42.4096 37.5009C42.2822 37.5554 42.167 37.635 42.071 37.735C41.975 37.835 41.9002 37.9533 41.851 38.0829C40.8377 40.5028 38.9818 42.4736 36.627 43.6301C34.2722 44.7867 31.578 45.0507 29.0435 44.3733C26.509 43.6959 24.3058 42.1229 22.842 39.9458C21.3782 37.7686 20.753 35.1348 21.0821 32.532C21.4113 29.9292 22.6725 27.5339 24.6321 25.7897C26.5918 24.0454 29.1172 23.0704 31.7406 23.0453C34.3639 23.0201 36.9075 23.9465 38.9003 25.6528C40.8931 27.3591 42.2 29.7298 42.579 32.3258H41.5344C41.4756 32.3259 41.4181 32.3435 41.3692 32.3762C41.3203 32.409 41.2823 32.4555 41.2598 32.5098C41.2373 32.5642 41.2314 32.624 41.2428 32.6817C41.2542 32.7394 41.2825 32.7925 41.324 32.8341L43.5205 35.0316C43.5482 35.0595 43.5811 35.0816 43.6174 35.0967C43.6537 35.1118 43.6926 35.1196 43.7319 35.1196C43.7712 35.1196 43.8101 35.1118 43.8464 35.0967C43.8826 35.0816 43.9156 35.0595 43.9433 35.0316L46.1397 32.8352C46.1816 32.7936 46.2102 32.7404 46.2218 32.6825C46.2335 32.6247 46.2277 32.5646 46.2051 32.51C46.1826 32.4555 46.1443 32.4088 46.0952 32.376C46.0461 32.3432 45.9884 32.3257 45.9294 32.3258H45.9273ZM31.8453 27.5441C30.8864 27.5449 29.967 27.9262 29.289 28.6042C28.611 29.2823 28.2297 30.2016 28.2289 31.1605V32.7527H28.2113C27.9379 32.7527 27.6756 32.8613 27.4822 33.0547C27.2888 33.2481 27.1802 33.5104 27.1802 33.7839V39.5441C27.1802 39.8176 27.2888 40.0799 27.4822 40.2733C27.6756 40.4667 27.9379 40.5753 28.2113 40.5753H35.5349C35.8084 40.5753 36.0707 40.4667 36.2641 40.2733C36.4575 40.0799 36.5661 39.8176 36.5661 39.5441V33.7839C36.5661 33.5104 36.4575 33.2481 36.2641 33.0547C36.0707 32.8613 35.8084 32.7527 35.5349 32.7527H35.5174V31.1605C35.5152 30.6815 35.4184 30.2077 35.2324 29.7662C35.0464 29.3248 34.7749 28.9245 34.4337 28.5884C34.0924 28.2523 33.688 27.987 33.2438 27.8078C32.7995 27.6285 32.3243 27.5389 31.8453 27.5441ZM34.4862 32.7527H29.2601V31.1605C29.2601 30.4675 29.5354 29.8029 30.0254 29.3128C30.5155 28.8228 31.1801 28.5475 31.8731 28.5475C32.5662 28.5475 33.2308 28.8228 33.7208 29.3128C34.2109 29.8029 34.4862 30.4675 34.4862 31.1605V32.7527Z" fill="#E1A712"/>
</svg>
