<svg width="13" height="16" viewBox="0 0 13 16" fill="none" xmlns="http://www.w3.org/2000/svg">
<path fill-rule="evenodd" clip-rule="evenodd" d="M1.84722 1.84708C3.02989 0.664416 4.63393 0 6.30647 0C7.97902 0 9.58306 0.664416 10.7657 1.84708C11.9484 3.02975 12.6128 4.6338 12.6128 6.30634C12.6128 7.97889 11.9484 9.58293 10.7657 10.7656L6.30647 15.2249L1.84722 10.7656C1.26158 10.18 0.797026 9.48482 0.480079 8.7197C0.163131 7.95458 0 7.13451 0 6.30634C0 5.47817 0.163131 4.65811 0.480079 3.89298C0.797026 3.12786 1.26158 2.43266 1.84722 1.84708ZM6.30647 8.10806C6.78432 8.10806 7.2426 7.91824 7.58048 7.58035C7.91837 7.24246 8.1082 6.78419 8.1082 6.30634C8.1082 5.8285 7.91837 5.37022 7.58048 5.03233C7.2426 4.69444 6.78432 4.50462 6.30647 4.50462C5.82863 4.50462 5.37035 4.69444 5.03247 5.03233C4.69458 5.37022 4.50475 5.8285 4.50475 6.30634C4.50475 6.78419 4.69458 7.24246 5.03247 7.58035C5.37035 7.91824 5.82863 8.10806 6.30647 8.10806Z" fill="#C0C0C0"/>
</svg>
