<svg width="11" height="13" viewBox="0 0 11 13" fill="none" xmlns="http://www.w3.org/2000/svg">
<path fill-rule="evenodd" clip-rule="evenodd" d="M1.57728 1.57716C2.58712 0.567323 3.95676 0 5.38489 0C6.81302 0 8.18266 0.567323 9.1925 1.57716C10.2023 2.58701 10.7697 3.95665 10.7697 5.38478C10.7697 6.81291 10.2023 8.18255 9.1925 9.19239L5.38489 13L1.57728 9.19239C1.07722 8.69238 0.680554 8.09878 0.409923 7.44546C0.139292 6.79215 0 6.09193 0 5.38478C0 4.67763 0.139292 3.9774 0.409923 3.32409C0.680554 2.67078 1.07722 2.07717 1.57728 1.57716ZM5.38489 6.92321C5.79291 6.92321 6.18421 6.76112 6.47272 6.47261C6.76124 6.1841 6.92332 5.79279 6.92332 5.38478C6.92332 4.97676 6.76124 4.58545 6.47272 4.29694C6.18421 4.00843 5.79291 3.84635 5.38489 3.84635C4.97687 3.84635 4.58557 4.00843 4.29706 4.29694C4.00855 4.58545 3.84646 4.97676 3.84646 5.38478C3.84646 5.79279 4.00855 6.1841 4.29706 6.47261C4.58557 6.76112 4.97687 6.92321 5.38489 6.92321Z" fill="#C0C0C0"/>
</svg>
