<svg width="33" height="39" viewBox="0 0 33 39" fill="none" xmlns="http://www.w3.org/2000/svg">
<path d="M31.3098 10.1522C31.5089 10.3513 31.7079 10.6072 31.907 10.92H21.8401V0.853128C22.1529 1.05219 22.4088 1.25125 22.6079 1.45032L31.3098 10.1522ZM21.1576 13.6501H32.7601V36.1726C32.7601 36.7414 32.5611 37.2248 32.1629 37.623C31.7648 38.0211 31.2814 38.2201 30.7126 38.2201H2.04751C1.47876 38.2201 0.995316 38.0211 0.59719 37.623C0.199063 37.2248 0 36.7414 0 36.1726V2.04751C0 1.47876 0.199063 0.995316 0.59719 0.59719C0.995316 0.199063 1.47876 0 2.04751 0H19.1101V11.6025C19.1101 12.1713 19.3091 12.6547 19.7073 13.0529C20.1054 13.451 20.5888 13.6501 21.1576 13.6501ZM24.5701 29.3476V27.9826C24.5701 27.7835 24.5061 27.62 24.3781 27.4921C24.2502 27.3641 24.0867 27.3001 23.8876 27.3001H8.87253C8.67347 27.3001 8.50995 27.3641 8.38198 27.4921C8.25401 27.62 8.19003 27.7835 8.19003 27.9826V29.3476C8.19003 29.5467 8.25401 29.7102 8.38198 29.8382C8.50995 29.9661 8.67347 30.0301 8.87253 30.0301H23.8876C24.0867 30.0301 24.2502 29.9661 24.3781 29.8382C24.5061 29.7102 24.5701 29.5467 24.5701 29.3476ZM24.5701 23.8876V22.5226C24.5701 22.3235 24.5061 22.16 24.3781 22.032C24.2502 21.9041 24.0867 21.8401 23.8876 21.8401H8.87253C8.67347 21.8401 8.50995 21.9041 8.38198 22.032C8.25401 22.16 8.19003 22.3235 8.19003 22.5226V23.8876C8.19003 24.0867 8.25401 24.2502 8.38198 24.3781C8.50995 24.5061 8.67347 24.5701 8.87253 24.5701H23.8876C24.0867 24.5701 24.2502 24.5061 24.3781 24.3781C24.5061 24.2502 24.5701 24.0867 24.5701 23.8876ZM24.5701 18.4276V17.0626C24.5701 16.8635 24.5061 16.7 24.3781 16.572C24.2502 16.444 24.0867 16.3801 23.8876 16.3801H8.87253C8.67347 16.3801 8.50995 16.444 8.38198 16.572C8.25401 16.7 8.19003 16.8635 8.19003 17.0626V18.4276C8.19003 18.6266 8.25401 18.7901 8.38198 18.9181C8.50995 19.0461 8.67347 19.1101 8.87253 19.1101H23.8876C24.0867 19.1101 24.2502 19.0461 24.3781 18.9181C24.5061 18.7901 24.5701 18.6266 24.5701 18.4276Z" fill="url(#paint0_linear_410_1472)"/>
<defs>
<linearGradient id="paint0_linear_410_1472" x1="16.3801" y1="0" x2="16.3801" y2="38.2201" gradientUnits="userSpaceOnUse">
<stop stop-color="#8C24DE"/>
<stop offset="1" stop-color="#666BEE"/>
</linearGradient>
</defs>
</svg>
