<svg width="18" height="20" viewBox="0 0 18 20" fill="none" xmlns="http://www.w3.org/2000/svg">
<path d="M0 3.75V9C0 14.0012 2.95756 17.6757 8.7251 19.9478C8.9018 20.0174 9.0982 20.0174 9.2749 19.9478C15.0424 17.6757 18 14.0012 18 9V3.75C18 3.33579 17.6642 3 17.25 3C14.5866 3 11.992 2.05652 9.45 0.15C9.1833 -0.05 8.8167 -0.05 8.55 0.15C6.00797 2.05652 3.41341 3 0.75 3C0.33579 3 0 3.33579 0 3.75ZM10.9951 9C10.9951 9.8374 10.4804 10.5545 9.75 10.8523V13.25C9.75 13.6642 9.4142 14 9 14C8.5858 14 8.25 13.6642 8.25 13.25V10.8559C7.515 10.5603 6.99603 9.8408 6.99603 9C6.99603 7.89568 7.8913 7.00046 8.9956 7.00046C10.0999 7.00046 10.9951 7.89568 10.9951 9Z" fill="#969696"/>
</svg>
