<svg width="173" height="49" viewBox="0 0 173 49" fill="none" xmlns="http://www.w3.org/2000/svg">
<path d="M0 0H158.5L172.5 24.5L158.5 49H0V0Z" fill="#E0E8FF"/>
<path d="M58.46 27.4844C58.46 27.252 58.4235 27.0469 58.3506 26.8691C58.2822 26.6868 58.1592 26.5228 57.9814 26.377C57.8083 26.2311 57.5667 26.0921 57.2568 25.96C56.9515 25.8278 56.5641 25.6934 56.0947 25.5566C55.6025 25.4108 55.1582 25.249 54.7617 25.0713C54.3652 24.889 54.0257 24.6816 53.7432 24.4492C53.4606 24.2168 53.2441 23.9502 53.0938 23.6494C52.9434 23.3486 52.8682 23.0046 52.8682 22.6172C52.8682 22.2298 52.9479 21.8721 53.1074 21.5439C53.2669 21.2158 53.4948 20.931 53.791 20.6895C54.0918 20.4434 54.4495 20.252 54.8643 20.1152C55.279 19.9785 55.7415 19.9102 56.252 19.9102C56.9993 19.9102 57.6328 20.0537 58.1523 20.3408C58.6764 20.6234 59.0752 20.9948 59.3486 21.4551C59.6221 21.9108 59.7588 22.3984 59.7588 22.918H58.4463C58.4463 22.5443 58.3665 22.2139 58.207 21.9268C58.0475 21.6351 57.806 21.4072 57.4824 21.2432C57.1589 21.0745 56.7487 20.9902 56.252 20.9902C55.7826 20.9902 55.3952 21.0609 55.0898 21.2021C54.7845 21.3434 54.5566 21.5348 54.4062 21.7764C54.2604 22.0179 54.1875 22.2936 54.1875 22.6035C54.1875 22.8132 54.2308 23.0046 54.3174 23.1777C54.4085 23.3464 54.5475 23.5036 54.7344 23.6494C54.9258 23.7952 55.1673 23.9297 55.459 24.0527C55.7552 24.1758 56.1084 24.2943 56.5186 24.4082C57.0837 24.5677 57.5713 24.7454 57.9814 24.9414C58.3916 25.1374 58.7288 25.3584 58.9932 25.6045C59.262 25.846 59.4603 26.1217 59.5879 26.4316C59.7201 26.737 59.7861 27.0833 59.7861 27.4707C59.7861 27.8763 59.7041 28.2432 59.54 28.5713C59.376 28.8994 59.1413 29.1797 58.8359 29.4121C58.5306 29.6445 58.1637 29.8245 57.7354 29.9521C57.3115 30.0752 56.8376 30.1367 56.3135 30.1367C55.8532 30.1367 55.3997 30.0729 54.9531 29.9453C54.5111 29.8177 54.1077 29.6263 53.7432 29.3711C53.3831 29.1159 53.0938 28.8014 52.875 28.4277C52.6608 28.0495 52.5537 27.612 52.5537 27.1152H53.8662C53.8662 27.457 53.9323 27.751 54.0645 27.9971C54.1966 28.2386 54.3766 28.4391 54.6045 28.5986C54.8369 28.7581 55.099 28.8766 55.3906 28.9541C55.6868 29.027 55.9945 29.0635 56.3135 29.0635C56.7738 29.0635 57.1634 28.9997 57.4824 28.8721C57.8014 28.7445 58.043 28.5622 58.207 28.3252C58.3757 28.0882 58.46 27.8079 58.46 27.4844ZM64.373 22.6035V23.5742H60.374V22.6035H64.373ZM61.7275 20.8057H62.9922V28.168C62.9922 28.4186 63.0309 28.6077 63.1084 28.7354C63.1859 28.863 63.2861 28.9473 63.4092 28.9883C63.5322 29.0293 63.6644 29.0498 63.8057 29.0498C63.9105 29.0498 64.0199 29.0407 64.1338 29.0225C64.2523 28.9997 64.3411 28.9814 64.4004 28.9678L64.4072 30C64.307 30.0319 64.1748 30.0615 64.0107 30.0889C63.8512 30.1208 63.6576 30.1367 63.4297 30.1367C63.1198 30.1367 62.835 30.0752 62.5752 29.9521C62.3154 29.8291 62.1081 29.624 61.9531 29.3369C61.8027 29.0452 61.7275 28.6533 61.7275 28.1611V20.8057ZM70.2178 28.7354V24.9277C70.2178 24.6361 70.1585 24.3831 70.04 24.1689C69.9261 23.9502 69.7529 23.7816 69.5205 23.6631C69.2881 23.5446 69.001 23.4854 68.6592 23.4854C68.3402 23.4854 68.0599 23.54 67.8184 23.6494C67.5814 23.7588 67.3945 23.9023 67.2578 24.0801C67.1257 24.2578 67.0596 24.4492 67.0596 24.6543H65.7949C65.7949 24.39 65.8633 24.1279 66 23.8682C66.1367 23.6084 66.3327 23.3737 66.5879 23.1641C66.8477 22.9499 67.1576 22.7812 67.5176 22.6582C67.8822 22.5306 68.2878 22.4668 68.7344 22.4668C69.2721 22.4668 69.7461 22.5579 70.1562 22.7402C70.571 22.9225 70.8945 23.1982 71.127 23.5674C71.3639 23.932 71.4824 24.39 71.4824 24.9414V28.3867C71.4824 28.6328 71.5029 28.8949 71.5439 29.1729C71.5895 29.4508 71.6556 29.6901 71.7422 29.8906V30H70.4229C70.359 29.8542 70.3089 29.6605 70.2725 29.4189C70.236 29.1729 70.2178 28.945 70.2178 28.7354ZM70.4365 25.5156L70.4502 26.4043H69.1719C68.8118 26.4043 68.4906 26.4339 68.208 26.4932C67.9255 26.5479 67.6885 26.6322 67.4971 26.7461C67.3057 26.86 67.1598 27.0036 67.0596 27.1768C66.9593 27.3454 66.9092 27.5436 66.9092 27.7715C66.9092 28.0039 66.9616 28.2158 67.0664 28.4072C67.1712 28.5986 67.3285 28.7513 67.5381 28.8652C67.7523 28.9746 68.0143 29.0293 68.3242 29.0293C68.7116 29.0293 69.0534 28.9473 69.3496 28.7832C69.6458 28.6191 69.8805 28.4186 70.0537 28.1816C70.2314 27.9447 70.3271 27.7145 70.3408 27.4912L70.8809 28.0996C70.849 28.291 70.7624 28.5029 70.6211 28.7354C70.4798 28.9678 70.2907 29.1911 70.0537 29.4053C69.8213 29.6149 69.5433 29.7904 69.2197 29.9316C68.9007 30.0684 68.5407 30.1367 68.1396 30.1367C67.6383 30.1367 67.1986 30.0387 66.8203 29.8428C66.4466 29.6468 66.1549 29.3848 65.9453 29.0566C65.7402 28.724 65.6377 28.3525 65.6377 27.9424C65.6377 27.5459 65.7152 27.1973 65.8701 26.8965C66.0251 26.5911 66.2484 26.3382 66.54 26.1377C66.8317 25.9326 67.1826 25.7777 67.5928 25.6729C68.0029 25.568 68.4609 25.5156 68.9668 25.5156H70.4365ZM78.2637 22.6035H79.4121V29.8428C79.4121 30.4945 79.2799 31.0505 79.0156 31.5107C78.7513 31.971 78.3822 32.3197 77.9082 32.5566C77.4388 32.7982 76.8965 32.9189 76.2812 32.9189C76.026 32.9189 75.7253 32.8779 75.3789 32.7959C75.0371 32.7184 74.6999 32.584 74.3672 32.3926C74.0391 32.2057 73.7633 31.9528 73.54 31.6338L74.2031 30.8818C74.513 31.2555 74.8366 31.5153 75.1738 31.6611C75.5156 31.807 75.8529 31.8799 76.1855 31.8799C76.5866 31.8799 76.9329 31.8047 77.2246 31.6543C77.5163 31.5039 77.7419 31.2806 77.9014 30.9844C78.0654 30.6927 78.1475 30.3327 78.1475 29.9043V24.2305L78.2637 22.6035ZM73.1709 26.3838V26.2402C73.1709 25.6751 73.237 25.1624 73.3691 24.7021C73.5059 24.2373 73.6995 23.8385 73.9502 23.5059C74.2054 23.1732 74.513 22.918 74.873 22.7402C75.2331 22.5579 75.6387 22.4668 76.0898 22.4668C76.5547 22.4668 76.9603 22.5488 77.3066 22.7129C77.6576 22.8724 77.9538 23.1071 78.1953 23.417C78.4414 23.7223 78.6351 24.0915 78.7764 24.5244C78.9176 24.9574 79.0156 25.4473 79.0703 25.9941V26.623C79.0202 27.1654 78.9222 27.653 78.7764 28.0859C78.6351 28.5189 78.4414 28.888 78.1953 29.1934C77.9538 29.4987 77.6576 29.7334 77.3066 29.8975C76.9557 30.057 76.5456 30.1367 76.0762 30.1367C75.6341 30.1367 75.2331 30.0433 74.873 29.8564C74.5176 29.6696 74.2122 29.4076 73.957 29.0703C73.7018 28.7331 73.5059 28.3366 73.3691 27.8809C73.237 27.4206 73.1709 26.9215 73.1709 26.3838ZM74.4355 26.2402V26.3838C74.4355 26.7529 74.472 27.0993 74.5449 27.4229C74.6224 27.7464 74.7386 28.0312 74.8936 28.2773C75.0531 28.5234 75.2559 28.7171 75.502 28.8584C75.748 28.9951 76.042 29.0635 76.3838 29.0635C76.8031 29.0635 77.1494 28.9746 77.4229 28.7969C77.6963 28.6191 77.9128 28.3844 78.0723 28.0928C78.2363 27.8011 78.3639 27.4844 78.4551 27.1426V25.4951C78.4049 25.2445 78.3275 25.0029 78.2227 24.7705C78.1224 24.5335 77.9902 24.3239 77.8262 24.1416C77.6667 23.9548 77.4684 23.8066 77.2314 23.6973C76.9945 23.5879 76.7165 23.5332 76.3975 23.5332C76.0511 23.5332 75.7526 23.6061 75.502 23.752C75.2559 23.8932 75.0531 24.0892 74.8936 24.3398C74.7386 24.5859 74.6224 24.873 74.5449 25.2012C74.472 25.5247 74.4355 25.8711 74.4355 26.2402ZM84.4023 30.1367C83.8874 30.1367 83.4202 30.0501 83.001 29.877C82.5863 29.6992 82.2285 29.4508 81.9277 29.1318C81.6315 28.8128 81.4036 28.4346 81.2441 27.9971C81.0846 27.5596 81.0049 27.0811 81.0049 26.5615V26.2744C81.0049 25.6729 81.0938 25.1374 81.2715 24.668C81.4492 24.194 81.6908 23.793 81.9961 23.4648C82.3014 23.1367 82.6478 22.8883 83.0352 22.7197C83.4225 22.5511 83.8236 22.4668 84.2383 22.4668C84.7669 22.4668 85.2227 22.5579 85.6055 22.7402C85.9928 22.9225 86.3096 23.1777 86.5557 23.5059C86.8018 23.8294 86.984 24.2122 87.1025 24.6543C87.221 25.0918 87.2803 25.5703 87.2803 26.0898V26.6572H81.7568V25.625H86.0156V25.5293C85.9974 25.2012 85.929 24.8822 85.8105 24.5723C85.6966 24.2624 85.5143 24.0072 85.2637 23.8066C85.013 23.6061 84.6712 23.5059 84.2383 23.5059C83.9512 23.5059 83.6868 23.5674 83.4453 23.6904C83.2038 23.8089 82.9964 23.9867 82.8232 24.2236C82.6501 24.4606 82.5156 24.75 82.4199 25.0918C82.3242 25.4336 82.2764 25.8278 82.2764 26.2744V26.5615C82.2764 26.9124 82.3242 27.2428 82.4199 27.5527C82.5202 27.8581 82.6637 28.127 82.8506 28.3594C83.042 28.5918 83.2721 28.7741 83.541 28.9062C83.8145 29.0384 84.1243 29.1045 84.4707 29.1045C84.9173 29.1045 85.2956 29.0133 85.6055 28.8311C85.9154 28.6488 86.1865 28.4049 86.4189 28.0996L87.1846 28.708C87.0251 28.9495 86.8223 29.1797 86.5762 29.3984C86.3301 29.6172 86.027 29.7949 85.667 29.9316C85.3115 30.0684 84.89 30.1367 84.4023 30.1367ZM96.249 19.9922V30H94.9844V21.5713L92.4346 22.501V21.3594L96.0508 19.9922H96.249Z" fill="#0834A3"/>
<path d="M110.135 24.1349C110.315 23.955 110.607 23.955 110.786 24.1349L114.914 28.2627L119.042 24.1349C119.222 23.955 119.514 23.955 119.694 24.1349C119.874 24.3149 119.874 24.6066 119.694 24.7865L115.24 29.24C115.06 29.42 114.768 29.42 114.589 29.24L110.135 24.7865C109.955 24.6066 109.955 24.3149 110.135 24.1349Z" fill="#0834A3"/>
</svg>
