<svg width="16" height="16" viewBox="0 0 16 16" fill="none" xmlns="http://www.w3.org/2000/svg">
<path d="M9.33335 1.33331H4.00002C3.6464 1.33331 3.30726 1.47379 3.05721 1.72384C2.80716 1.97389 2.66669 2.31302 2.66669 2.66665V13.3333C2.66669 13.6869 2.80716 14.0261 3.05721 14.2761C3.30726 14.5262 3.6464 14.6666 4.00002 14.6666H12C12.3536 14.6666 12.6928 14.5262 12.9428 14.2761C13.1929 14.0261 13.3334 13.6869 13.3334 13.3333V5.33331L9.33335 1.33331Z" stroke="#8F8F8F" stroke-width="1.06667" stroke-linecap="round" stroke-linejoin="round"/>
<path d="M9.33331 1.33331V5.33331H13.3333" stroke="#8F8F8F" stroke-width="1.06667" stroke-linecap="round" stroke-linejoin="round"/>
<path d="M10.6666 8.66669H5.33331" stroke="#8F8F8F" stroke-width="1.06667" stroke-linecap="round" stroke-linejoin="round"/>
<path d="M10.6666 11.3333H5.33331" stroke="#8F8F8F" stroke-width="1.06667" stroke-linecap="round" stroke-linejoin="round"/>
<path d="M6.66665 6H5.99998H5.33331" stroke="#8F8F8F" stroke-width="1.06667" stroke-linecap="round" stroke-linejoin="round"/>
</svg>
