<svg width="15" height="15" viewBox="0 0 15 15" fill="none" xmlns="http://www.w3.org/2000/svg">
<path d="M7.5 4.375C7.84518 4.375 8.125 4.09518 8.125 3.75C8.125 3.40482 7.84518 3.125 7.5 3.125C7.15482 3.125 6.875 3.40482 6.875 3.75C6.875 4.09518 7.15482 4.375 7.5 4.375Z" fill="#8F8F8F"/>
<path d="M3.75 10.625H11.25V11.875H3.75V10.625ZM6.25 7.39375L7.995 9.14L10.4525 6.68063L11.25 7.5V5H8.75L9.56875 5.79687L7.99438 7.37125L6.25 5.625L3.75 8.125L4.63375 9.00875L6.25 7.39375Z" fill="#8F8F8F"/>
<path d="M11.875 1.875H9.81375C9.75238 1.78259 9.6856 1.69389 9.61375 1.60938L9.6075 1.60188C9.1483 1.06703 8.50223 0.727679 7.80125 0.653126C7.6022 0.615228 7.3978 0.615228 7.19875 0.653126C6.49777 0.727679 5.8517 1.06703 5.3925 1.60188L5.38625 1.60938C5.31442 1.69369 5.24764 1.78218 5.18625 1.87438V1.875H3.125C2.62787 1.8755 2.15125 2.0732 1.79972 2.42472C1.4482 2.77625 1.2505 3.25287 1.25 3.75V12.5C1.2505 12.9971 1.4482 13.4738 1.79972 13.8253C2.15125 14.1768 2.62787 14.3745 3.125 14.375H11.875C12.3721 14.3745 12.8488 14.1768 13.2003 13.8253C13.5518 13.4738 13.7495 12.9971 13.75 12.5V3.75C13.7495 3.25287 13.5518 2.77625 13.2003 2.42472C12.8488 2.0732 12.3721 1.8755 11.875 1.875ZM12.5 12.5C12.5 12.6658 12.4342 12.8247 12.3169 12.9419C12.1997 13.0592 12.0408 13.125 11.875 13.125H3.125C2.95929 13.1248 2.80042 13.0589 2.68324 12.9418C2.56607 12.8246 2.50017 12.6657 2.5 12.5V3.75C2.50017 3.58429 2.56607 3.42542 2.68324 3.30824C2.80042 3.19107 2.95929 3.12517 3.125 3.125H5.96875C6.04047 2.77179 6.2321 2.45423 6.51117 2.22613C6.79024 1.99804 7.13958 1.87343 7.5 1.87343C7.86042 1.87343 8.20976 1.99804 8.48883 2.22613C8.7679 2.45423 8.95953 2.77179 9.03125 3.125H11.875C12.0407 3.12517 12.1996 3.19107 12.3168 3.30824C12.4339 3.42542 12.4998 3.58429 12.5 3.75V12.5Z" fill="#8F8F8F"/>
</svg>
