<svg width="13" height="14" viewBox="0 0 13 14" fill="none" xmlns="http://www.w3.org/2000/svg">
<path d="M3.71958 12.709L3.72039 12.7098C4.34901 13.3182 5.18953 13.6584 6.06438 13.6585L3.71958 12.709ZM3.71958 12.709C1.78537 10.8492 -0.25318 7.98284 0.503689 4.64446L3.71958 12.709ZM8.40108 12.7102L8.40234 12.709C10.3368 10.849 12.3751 7.9895 11.6182 4.65129C10.9448 1.68802 8.3631 0.341463 6.06438 0.341463H6.05755C3.76479 0.341463 1.17709 1.68189 0.503727 4.64429L8.40108 12.7102ZM8.40108 12.7102C7.75018 13.3425 6.90779 13.6585 6.06442 13.6585L8.40108 12.7102ZM5.11047 8.14879C5.41289 8.27406 5.73703 8.33854 6.06438 8.33854C6.72548 8.33854 7.3595 8.07592 7.82697 7.60845C8.29444 7.14098 8.55706 6.50695 8.55706 5.84585C8.55706 5.18475 8.29444 4.55073 7.82697 4.08326C7.3595 3.61579 6.72548 3.35317 6.06438 3.35317C5.73703 3.35317 5.41289 3.41765 5.11047 3.54291C4.80804 3.66818 4.53325 3.85179 4.30178 4.08326C4.07032 4.31473 3.88671 4.58952 3.76144 4.89195C3.63617 5.19437 3.57169 5.51851 3.57169 5.84585C3.57169 6.1732 3.63617 6.49734 3.76144 6.79976C3.88671 7.10219 4.07032 7.37698 4.30178 7.60845C4.53325 7.83991 4.80804 8.02352 5.11047 8.14879Z" stroke="#642DDA" stroke-width="0.682927"/>
</svg>
