<svg width="35" height="35" viewBox="0 0 35 35" fill="none" xmlns="http://www.w3.org/2000/svg">
<rect x="0.5" y="0.5" width="34" height="34" rx="5.5" fill="#ECFFFB" stroke="#019071"/>
<path d="M18.6106 13.6621C19.2606 13.7889 19.858 14.1068 20.3264 14.5751C20.7947 15.0435 21.1126 15.6409 21.2394 16.2909M18.6106 11C19.9611 11.15 21.2205 11.7548 22.1819 12.7151C23.1434 13.6753 23.7498 14.9339 23.9015 16.2842M23.236 21.5951V23.5917C23.2367 23.777 23.1988 23.9605 23.1245 24.1303C23.0503 24.3001 22.9413 24.4526 22.8048 24.5779C22.6682 24.7032 22.5069 24.7986 22.3314 24.858C22.1558 24.9173 21.9697 24.9394 21.7851 24.9227C19.7372 24.7002 17.77 24.0004 16.0417 22.8796C14.4337 21.8578 13.0704 20.4944 12.0486 18.8864C10.9238 17.1502 10.2239 15.1735 10.0054 13.1164C9.98877 12.9323 10.0106 12.7468 10.0696 12.5717C10.1286 12.3966 10.2234 12.2357 10.348 12.0992C10.4726 11.9627 10.6242 11.8537 10.7932 11.779C10.9623 11.7043 11.145 11.6657 11.3298 11.6655H13.3264C13.6493 11.6623 13.9625 11.7767 14.2073 11.9873C14.4522 12.1979 14.6122 12.4904 14.6574 12.8102C14.7417 13.4492 14.898 14.0765 15.1233 14.6803C15.2128 14.9185 15.2322 15.1774 15.1791 15.4263C15.126 15.6752 15.0027 15.9036 14.8238 16.0846L13.9786 16.9298C14.926 18.596 16.3055 19.9755 17.9717 20.9229L18.8169 20.0777C18.9979 19.8988 19.2263 19.7755 19.4752 19.7224C19.7241 19.6693 19.983 19.6887 20.2212 19.7782C20.825 20.0035 21.4523 20.1598 22.0913 20.2441C22.4146 20.2897 22.7098 20.4525 22.9209 20.7016C23.1319 20.9507 23.2441 21.2687 23.236 21.5951Z" stroke="#019071" stroke-width="1.2" stroke-linecap="round" stroke-linejoin="round"/>
</svg>
