<svg width="35" height="35" viewBox="0 0 35 35" fill="none" xmlns="http://www.w3.org/2000/svg">
<rect x="0.5" y="0.5" width="34" height="34" rx="5.5" stroke="#B8B8B8"/>
<path d="M21.5851 16.234C21.5851 15.1111 21.139 14.0342 20.3449 13.2401C19.5509 12.4461 18.474 12 17.351 12C16.2281 12 15.1512 12.4461 14.3571 13.2401C13.5631 14.0342 13.117 15.1111 13.117 16.234C13.117 21.1737 11 22.5851 11 22.5851H23.7021C23.7021 22.5851 21.5851 21.1737 21.5851 16.234Z" stroke="#8F8F8F" stroke-width="1.41134" stroke-linecap="round" stroke-linejoin="round"/>
<path d="M18.5717 25.4077C18.4477 25.6216 18.2696 25.7991 18.0554 25.9225C17.8411 26.0459 17.5982 26.1109 17.3509 26.1109C17.1037 26.1109 16.8608 26.0459 16.6465 25.9225C16.4323 25.7991 16.2542 25.6216 16.1301 25.4077" stroke="#8F8F8F" stroke-width="1.41134" stroke-linecap="round" stroke-linejoin="round"/>
<rect x="23" y="6" width="6" height="6" rx="3" fill="#019071"/>
</svg>
