<svg width="35" height="35" viewBox="0 0 35 35" fill="none" xmlns="http://www.w3.org/2000/svg">
<rect x="0.5" y="0.5" width="34" height="34" rx="5.5" fill="#ECFFFB" stroke="#019071"/>
<path d="M22.5851 15.234C22.5851 14.1111 22.139 13.0342 21.3449 12.2401C20.5509 11.4461 19.474 11 18.351 11C17.2281 11 16.1512 11.4461 15.3571 12.2401C14.5631 13.0342 14.117 14.1111 14.117 15.234C14.117 20.1737 12 21.5851 12 21.5851H24.7021C24.7021 21.5851 22.5851 20.1737 22.5851 15.234Z" stroke="#019071" stroke-width="1.41134" stroke-linecap="round" stroke-linejoin="round"/>
<path d="M19.5717 24.4077C19.4477 24.6216 19.2696 24.7991 19.0554 24.9225C18.8411 25.0459 18.5982 25.1109 18.3509 25.1109C18.1037 25.1109 17.8608 25.0459 17.6465 24.9225C17.4323 24.7991 17.2542 24.6216 17.1301 24.4077" stroke="#019071" stroke-width="1.41134" stroke-linecap="round" stroke-linejoin="round"/>
</svg>
