<svg width="4" height="15" viewBox="0 0 4 15" fill="none" xmlns="http://www.w3.org/2000/svg">
<path d="M1.75671 3.51295C1.29086 3.51295 0.844097 3.32789 0.514694 2.99849C0.185291 2.66909 0.00023403 2.22232 0.00023405 1.75647C0.000234071 1.29063 0.185291 0.843862 0.514694 0.514459C0.844097 0.185056 1.29086 -9.71407e-08 1.75671 -7.67779e-08C2.22255 -5.64152e-08 2.66932 0.185057 2.99872 0.514459C3.32813 0.843862 3.51318 1.29063 3.51318 1.75647C3.51318 2.22232 3.32813 2.66909 2.99872 2.99849C2.66932 3.32789 2.22255 3.51295 1.75671 3.51295ZM1.75671 8.78237C1.29086 8.78237 0.844097 8.59732 0.514694 8.26791C0.185291 7.93851 0.0002338 7.49174 0.00023382 7.0259C0.00023384 6.56005 0.185291 6.11329 0.514694 5.78388C0.844097 5.45448 1.29086 5.26942 1.75671 5.26942C2.22255 5.26942 2.66932 5.45448 2.99872 5.78388C3.32813 6.11329 3.51318 6.56005 3.51318 7.0259C3.51318 7.49174 3.32813 7.93851 2.99872 8.26791C2.66932 8.59732 2.22255 8.78237 1.75671 8.78237ZM0.00023359 12.2953C0.000233569 12.7612 0.18529 13.2079 0.514693 13.5373C0.844096 13.8667 1.29086 14.0518 1.75671 14.0518C2.22255 14.0518 2.66932 13.8667 2.99872 13.5373C3.32813 13.2079 3.51318 12.7612 3.51318 12.2953C3.51318 11.8295 3.32813 11.3827 2.99872 11.0533C2.66932 10.7239 2.22255 10.5388 1.75671 10.5388C1.29086 10.5388 0.844096 10.7239 0.514693 11.0533C0.185291 11.3827 0.00023361 11.8295 0.00023359 12.2953Z" fill="#989898"/>
</svg>
