<svg width="21" height="21" viewBox="0 0 21 21" fill="none" xmlns="http://www.w3.org/2000/svg">
<path d="M20 20H5.75C1.95 20 1 19.05 1 15.25V5.75C1 1.95 1.95 1 5.75 1H7.175C8.6 1 8.9135 1.418 9.455 2.14L10.88 4.04C11.241 4.515 11.45 4.8 12.4 4.8H15.25C19.05 4.8 20 5.75 20 9.55V20Z" fill="#D3733C" stroke="white" stroke-width="1.045" stroke-miterlimit="10" stroke-linecap="round" stroke-linejoin="round"/>
<path d="M12.1719 16.504C9.93943 16.6655 9.93943 19.8955 12.1719 20.057H17.4539C18.0904 20.057 18.7174 19.8195 19.1829 19.392C20.7504 18.024 19.9144 15.288 17.8529 15.0315C17.1119 10.576 10.6709 12.267 12.1909 16.5135" fill="#D3733C"/>
<path d="M12.1719 16.504C9.93943 16.6655 9.93943 19.8955 12.1719 20.057H17.4539C18.0904 20.057 18.7174 19.8195 19.1829 19.392C20.7504 18.024 19.9144 15.288 17.8529 15.0315C17.1119 10.576 10.6709 12.267 12.1909 16.5135" stroke="white" stroke-width="1.045" stroke-miterlimit="10" stroke-linecap="round" stroke-linejoin="round"/>
</svg>
