<svg width="14" height="4" viewBox="0 0 14 4" fill="none" xmlns="http://www.w3.org/2000/svg">
<path d="M10.1484 1.75647C10.1484 1.29062 10.3266 0.843853 10.6438 0.51445C10.961 0.185047 11.3912 -9.82649e-06 11.8398 -9.86571e-06C12.2884 -9.90493e-06 12.7186 0.185047 13.0358 0.51445C13.353 0.843853 13.5312 1.29062 13.5312 1.75646C13.5312 2.22231 13.353 2.66908 13.0358 2.99848C12.7186 3.32788 12.2884 3.51294 11.8398 3.51294C11.3912 3.51294 10.961 3.32788 10.6438 2.99848C10.3266 2.66908 10.1484 2.22231 10.1484 1.75647ZM5.07415 1.75647C5.07415 1.29062 5.25235 0.843853 5.56956 0.514451C5.88676 0.185048 6.31698 -9.38289e-06 6.76557 -9.42211e-06C7.21416 -9.46132e-06 7.64438 0.185047 7.96158 0.51445C8.27879 0.843853 8.45699 1.29062 8.45699 1.75647C8.45699 2.22231 8.27879 2.66908 7.96158 2.99848C7.64438 3.32788 7.21416 3.51294 6.76557 3.51294C6.31698 3.51294 5.88676 3.32788 5.56956 2.99848C5.25235 2.66908 5.07415 2.22231 5.07415 1.75647ZM1.69131 -8.9785e-06C1.24272 -8.93928e-06 0.812498 0.185048 0.495295 0.514451C0.178092 0.843854 -0.000110828 1.29062 -0.000110786 1.75647C-0.000110743 2.22231 0.178092 2.66908 0.495295 2.99848C0.812498 3.32788 1.24272 3.51294 1.69131 3.51294C2.1399 3.51294 2.57012 3.32788 2.88732 2.99848C3.20453 2.66908 3.38273 2.22231 3.38273 1.75647C3.38273 1.29062 3.20453 0.843854 2.88732 0.514451C2.57012 0.185048 2.1399 -9.01772e-06 1.69131 -8.9785e-06Z" fill="#434343"/>
</svg>
