<svg width="25" height="24" viewBox="0 0 25 24" fill="none" xmlns="http://www.w3.org/2000/svg">
<path d="M23.6706 18.6C23.6706 19.425 23.4396 20.206 23.0326 20.866C22.8016 21.262 22.5046 21.614 22.1636 21.9C21.3936 22.593 20.3816 23 19.2706 23C17.9286 23 16.7296 22.395 15.9376 21.449C15.9156 21.416 15.8826 21.394 15.8606 21.361C15.7286 21.207 15.6076 21.042 15.5086 20.866C15.0899 20.1845 14.869 19.3999 14.8706 18.6C14.8706 17.214 15.5086 15.971 16.5206 15.168C17.2796 14.563 18.2366 14.2 19.2706 14.2C20.3706 14.2 21.3606 14.596 22.1306 15.267C22.2626 15.366 22.3836 15.487 22.4936 15.608C23.2196 16.4 23.6706 17.445 23.6706 18.6Z" fill="#019071" stroke="white" stroke-width="1.21846" stroke-miterlimit="10" stroke-linecap="round" stroke-linejoin="round"/>
<path d="M22.142 8.887V15.113C22.142 15.168 22.142 15.212 22.131 15.267C21.361 14.596 20.371 14.2 19.271 14.2C18.237 14.2 17.28 14.563 16.521 15.168C16.0047 15.5783 15.588 16.1003 15.3022 16.6947C15.0164 17.2891 14.869 17.9405 14.871 18.6C14.871 19.425 15.102 20.206 15.509 20.866C15.608 21.042 15.729 21.207 15.861 21.361L13.848 22.472C12.594 23.176 10.548 23.176 9.294 22.472L3.42 19.216C2.089 18.479 1 16.631 1 15.113V8.887C1 7.369 2.089 5.521 3.42 4.784L9.294 1.528C10.548 0.824 12.594 0.824 13.848 1.528L19.722 4.784C21.053 5.521 22.142 7.369 22.142 8.887Z" fill="#019071" stroke="white" stroke-width="1.21846" stroke-linecap="round" stroke-linejoin="round"/>
<path d="M1.85791 6.98402L11.5709 12.605L21.2179 7.01702M11.5709 22.571V12.594V22.571Z" fill="#019071"/>
<path d="M1.85791 6.98402L11.5709 12.605L21.2179 7.01702M11.5709 22.571V12.594" stroke="white" stroke-width="1.21846" stroke-linecap="round" stroke-linejoin="round"/>
<path d="M19.2771 20.2923V17.2461M19.2771 17.2461L18.2617 18.2615M19.2771 17.2461L20.2925 18.2615" stroke="white" stroke-width="0.558462" stroke-linecap="round" stroke-linejoin="round"/>
</svg>
