<svg width="24" height="24" viewBox="0 0 24 24" fill="none" xmlns="http://www.w3.org/2000/svg">
<path d="M19 20V17L18 18M19 17L20 18" stroke="#019071" stroke-width="0.55" stroke-linecap="round" stroke-linejoin="round"/>
<path d="M23.3273 18.3333C23.3273 19.1458 23.0998 19.915 22.699 20.565C22.4715 20.955 22.179 21.3017 21.8432 21.5833C21.0848 22.2658 20.0882 22.6667 18.994 22.6667C17.6723 22.6667 16.4915 22.0708 15.7115 21.1392C15.6898 21.1067 15.6573 21.085 15.6357 21.0525C15.5057 20.9008 15.3865 20.7383 15.289 20.565C14.8766 19.8938 14.6591 19.1211 14.6607 18.3333C14.6607 16.9683 15.289 15.7442 16.2857 14.9533C17.0332 14.3575 17.9757 14 18.994 14C20.0773 14 21.0523 14.39 21.8107 15.0508C21.9407 15.1483 22.0598 15.2675 22.1682 15.3867C22.8832 16.1667 23.3273 17.1958 23.3273 18.3333Z" stroke="#019071" stroke-width="1.2" stroke-miterlimit="10" stroke-linecap="round" stroke-linejoin="round"/>
<path d="M1.84473 6.89331L11.4106 12.4291L20.9114 6.92581M11.4106 22.2441V12.4183" stroke="#019071" stroke-width="1.2" stroke-linecap="round" stroke-linejoin="round"/>
<path d="M21.8217 8.7675V14.8992C21.8217 14.9533 21.8217 14.9967 21.8108 15.0508C21.0525 14.39 20.0775 14 18.9942 14C17.9758 14 17.0333 14.3575 16.2858 14.9533C15.7773 15.3574 15.3669 15.8715 15.0855 16.4569C14.8041 17.0423 14.6589 17.6838 14.6608 18.3333C14.6608 19.1458 14.8883 19.915 15.2892 20.565C15.3867 20.7383 15.5058 20.9008 15.6358 21.0525L13.6533 22.1467C12.4183 22.84 10.4033 22.84 9.16833 22.1467L3.38333 18.94C2.0725 18.2142 1 16.3942 1 14.8992V8.7675C1 7.2725 2.0725 5.4525 3.38333 4.72667L9.16833 1.52C10.4033 0.826667 12.4183 0.826667 13.6533 1.52L19.4383 4.72667C20.7492 5.4525 21.8217 7.2725 21.8217 8.7675Z" stroke="#019071" stroke-width="1.2" stroke-linecap="round" stroke-linejoin="round"/>
</svg>
