<svg id="Layer_1" data-name="Layer 1" xmlns="http://www.w3.org/2000/svg" viewBox="0 0 500 500"><defs><style>.cls-1{fill:none;stroke:#155eb4;stroke-miterlimit:10;stroke-width:10px;}.cls-2{fill:#155eb4;}.cls-3{font-size:67.79px;font-family:Gotham-Medium, Gotham;font-weight:500;}.cls-3,.cls-4{fill:#fff;}</style></defs><circle class="cls-1" cx="250" cy="232.9" r="201"/><path class="cls-2" d="M250,104.48a128.41,128.41,0,1,1-90.8,37.61A127.58,127.58,0,0,1,250,104.48m0-64c-106.27,0-192.41,86.15-192.41,192.42S143.73,425.31,250,425.31,442.41,339.16,442.41,232.9,356.27,40.48,250,40.48Z"/><polygon class="cls-2" points="308.64 150.99 214.14 259.52 175.47 226.08 153.33 251.69 217.6 307.28 239.75 281.67 334.17 173.23 308.64 150.99 308.64 150.99"/><path class="cls-2" d="M233.16,129.37l2.07,4-2.9-1.5c-1.14-.59-1.14-.58-2,.31a25.92,25.92,0,0,1-2.28,2.13l.71-4.27-4-2.05c1.38-.22,2.63-.43,3.89-.59.41-.06.59-.2.64-.63.11-1,.28-2,.44-2.93,0-.23.11-.46.21-.88l2,3.91,4.24-.67.06.12Z"/><path class="cls-2" d="M214.09,133.4l2,2.41-2.2-.57c-.86-.23-.86-.23-1.32.51a19,19,0,0,1-1.22,1.8l-.17-3-3-.78c.91-.35,1.72-.69,2.54-1,.28-.1.38-.22.34-.52-.07-.68-.1-1.37-.15-2.05,0-.17,0-.34,0-.63l2,2.34,2.78-1.1,0,.07Z"/><path class="cls-2" d="M251.6,127.25l1,3-1.82-1.35c-.72-.53-.72-.52-1.42,0a18.28,18.28,0,0,1-1.8,1.22l1-2.86L246,125.4c1,0,1.85,0,2.73,0,.29,0,.43-.07.51-.36.18-.66.4-1.31.62-2a5.67,5.67,0,0,1,.24-.58l1,2.9h3l0,.08Z"/><path class="cls-2" d="M265.77,127.69l.42,2.08-1.12-1.05c-.43-.41-.43-.41-.94-.12a13.24,13.24,0,0,1-1.3.67l.86-1.83L262.15,126l1.82.23a.28.28,0,0,0,.37-.2c.18-.42.38-.84.57-1.26,0-.1.11-.2.21-.37l.41,2,2,.24v.06Z"/><path class="cls-2" d="M198.62,139.89l1.57,1.42-1.52-.18c-.59-.07-.59-.07-.83.46a11.5,11.5,0,0,1-.65,1.32l-.39-2-2.09-.24c.57-.32,1.08-.62,1.6-.9a.29.29,0,0,0,.18-.38c-.11-.45-.2-.9-.29-1.35,0-.11,0-.23,0-.42l1.52,1.38,1.75-1,0,.05Z"/><path class="cls-2" d="M272.31,331.56a25.92,25.92,0,0,0-2.28,2.13c-.49.5-.7.72-1,.72a2.73,2.73,0,0,1-1-.41l-2.91-1.5c.73,1.4,1.39,2.68,2.08,4l-3.07,3,.06.11,4.25-.67,2,3.91c.1-.41.18-.65.22-.88.15-1,.32-1.95.43-2.93.05-.43.23-.57.64-.63,1.26-.16,2.51-.37,3.89-.59l-4-2.05c.24-1.47.48-2.87.71-4.27Z"/><path class="cls-2" d="M289,328.34a19,19,0,0,0-1.22,1.8c-.3.48-.4.65-.67.65a3.19,3.19,0,0,1-.65-.14l-2.2-.57,2,2.41L284.64,335l.06.06,2.77-1.1,2,2.34c0-.29,0-.46,0-.63,0-.68-.08-1.36-.15-2.05a.42.42,0,0,1,.34-.52c.82-.3,1.64-.64,2.54-1l-3-.78c-.06-1-.11-2-.17-3Z"/><path class="cls-2" d="M247.76,335.65c.34,1.05.65,2,1,3l-2.43,1.75,0,.08h3l1,2.9a5.67,5.67,0,0,0,.24-.58c.22-.65.44-1.3.63-2a.4.4,0,0,1,.46-.36h0c.58,0,1.15,0,1.75,0h1l-2.54-1.84c.33-1,.65-1.92,1-2.86A20.22,20.22,0,0,0,251,337c-.35.26-.52.38-.7.38s-.35-.13-.71-.39l-1.83-1.35Z"/><path class="cls-2" d="M234.15,336.13c.15.72.28,1.38.42,2.07l-1.76,1v.05l2,.24c.13.65.26,1.3.4,2,.1-.17.16-.27.21-.37.19-.42.4-.83.57-1.26.06-.16.14-.21.27-.21h.1l1.82.23-1.54-1.44.86-1.83a13.24,13.24,0,0,0-1.3.67,1.15,1.15,0,0,1-.47.2c-.13,0-.23-.1-.47-.32l-1.12-1Z"/><path class="cls-2" d="M303.15,323a10.63,10.63,0,0,0-.65,1.31c-.17.39-.22.49-.47.49l-.36,0-1.52-.18,1.57,1.42-.84,1.84,0,0,1.75-1,1.52,1.38c0-.19,0-.31-.05-.42-.09-.45-.18-.9-.29-1.35a.29.29,0,0,1,.18-.38c.52-.28,1-.58,1.61-.9l-2.1-.24c-.14-.68-.26-1.33-.39-2Z"/><path class="cls-2" d="M250,113.64a119.26,119.26,0,1,1-84.33,34.93A118.52,118.52,0,0,1,250,113.64m0-5A124.26,124.26,0,1,0,374.26,232.9,124.26,124.26,0,0,0,250,108.64Z"/><text class="cls-3" transform="matrix(0.66, -0.75, 0.75, 0.66, 130.47, 162.6)">A</text><text class="cls-3" transform="translate(163.58 125.05) rotate(-28.54)">R</text><text class="cls-3" transform="matrix(0.99, -0.16, 0.16, 0.99, 203.36, 102.66)">C</text><text class="cls-3" transform="translate(249.56 95.34) rotate(8.38)">L</text><text class="cls-3" transform="translate(288.46 101.97) rotate(20.83)">I</text><text class="cls-3" transform="translate(306.92 107.32) rotate(33.7)">F</text><text class="cls-3" transform="translate(383.12 270.81) rotate(116.53)">V</text><text class="cls-3" transform="translate(362 313.34) rotate(135.14)">E</text><text class="cls-3" transform="translate(332.65 343.71) rotate(153.48)">R</text><text class="cls-3" transform="translate(290.71 363.16) rotate(167.23)">I</text><text class="cls-3" transform="matrix(-1, 0, 0, -1, 272.32, 368.89)">F</text><text class="cls-3" transform="translate(230.42 367.96) rotate(-167.25)">I</text><text class="cls-3" transform="matrix(-0.9, -0.44, 0.44, -0.9, 211.37, 365.32)">E</text><text class="cls-3" transform="matrix(-0.71, -0.7, 0.7, -0.71, 172.88, 348.02)">D</text><path class="cls-4" d="M80.21,246.64l-6.63-12.85,9.28,4.8c3.64,1.88,3.63,1.87,6.43-1a87.34,87.34,0,0,1,7.31-6.83l-2.29,13.66L107.16,251c-4.44.69-8.43,1.37-12.44,1.9-1.33.17-1.89.61-2,2-.35,3.13-.9,6.24-1.4,9.35-.12.76-.36,1.51-.68,2.82-2.3-4.48-4.35-8.48-6.42-12.5L70.6,256.72l-.19-.37Z"/><path class="cls-4" d="M395.83,186.9l-6.62-12.85,9.28,4.79c3.63,1.89,3.62,1.88,6.43-1a87,87,0,0,1,7.3-6.82c-.75,4.47-1.49,9-2.28,13.66l12.84,6.56c-4.43.69-8.43,1.36-12.44,1.89-1.32.18-1.89.62-2,2-.35,3.13-.91,6.24-1.4,9.35-.13.76-.36,1.5-.68,2.82l-6.43-12.51L386.22,197l-.19-.37Z"/></svg>