<svg id="Layer_1" data-name="Layer 1" xmlns="http://www.w3.org/2000/svg" viewBox="0 0 500 500"><defs><style>.cls-1,.cls-2{fill:#155eb4;}.cls-2{font-size:72.86px;font-family:Gotham-Medium, Gotham;font-weight:500;}</style></defs><path class="cls-1" d="M250.16,409.79c-34.2-.37-65.33-10.21-93.24-30.11a158.21,158.21,0,0,1-37.79-38.26,27.82,27.82,0,0,1-1.85-3.05c-.74-1.4-1.67-1.69-3.24-1.24-7.24,2.05-14.52,4-21.79,5.93-8.46,2.29-16.91,4.64-25.39,6.88a25.66,25.66,0,0,1-31.34-17.71q-6.42-22.87-12.38-45.88c-3.28-12.68,5-26.7,17.69-30.17q24-6.57,48-13c1.4-.37,1.7-1,1.78-2.3a159.53,159.53,0,0,1,81.86-130.64,157.13,157.13,0,0,1,48.86-17.49,160.16,160.16,0,0,1,101.4,15,157.76,157.76,0,0,1,35.15,24.37A155.07,155.07,0,0,1,383.27,162a2,2,0,0,0,2.65.87q23.49-6.37,47-12.7a25.72,25.72,0,0,1,32,18.33q4.47,16.42,8.73,32.91c1.4,5.36,3.08,10.7,3.78,16.16,1.48,11.41-6.67,23-18.09,26.21q-23.35,6.51-46.82,12.64c-2.33.61-2.82,1.54-3,3.82a157.7,157.7,0,0,1-11.25,49.65A156.05,156.05,0,0,1,370.55,355c-23.38,26.45-52.32,43.64-86.89,51.17A159.16,159.16,0,0,1,250.16,409.79ZM471.92,219.06a34.46,34.46,0,0,0-.61-5.11c-1.5-5.73-3.19-11.42-4.76-17.14-2.55-9.29-4.91-18.64-7.63-27.88-2-6.69-6.58-11-13.25-13.11-4.82-1.51-9.47-.56-14.21.75-20,5.51-40,10.84-60,16.26-23.13,6.26-46.25,12.58-69.38,18.81-19.95,5.38-39.92,10.65-59.87,16-9.54,2.56-19,5.29-28.56,7.87Q171.33,227,129,238.4L70.7,254.13c-9.43,2.54-18.89,5-28.29,7.65a19.1,19.1,0,0,0-14,18.82,40.8,40.8,0,0,0,1.64,9.3c3.61,13.65,7.25,27.3,11.1,40.89a19.24,19.24,0,0,0,23,13.69c12.36-3,24.61-6.53,36.9-9.86,8.34-2.25,16.66-4.56,25-6.82l82.37-22.3,82.17-22.2,100.51-27.15q33.15-9,66.32-17.87C465.69,236.09,472.44,227.39,471.92,219.06Zm-370.5,20.46a9.75,9.75,0,0,0,1.35-.2c14.33-3.88,28.65-7.81,43-11.61a2.94,2.94,0,0,0,2.43-2.58,99.81,99.81,0,0,1,24.1-45.63c20.69-22.43,46.44-34,77-34.49a104.66,104.66,0,0,1,76.41,32.28,2.84,2.84,0,0,0,3.27.91c11.45-3.17,22.93-6.22,34.4-9.32,3.22-.87,6.43-1.79,9.71-2.7-33.65-50.94-101.33-79.22-167-58.83C135.48,129.3,103.43,192.5,101.42,239.52Zm25.63,94.23c31.22,48.19,99.38,81,169.55,58,68.71-22.54,100.37-85.12,102-131.29a6.46,6.46,0,0,0-1.18.12c-14.33,3.88-28.65,7.8-43,11.62a3,3,0,0,0-2.5,2.51,104.72,104.72,0,0,1-98.51,80.17,103.55,103.55,0,0,1-45-8.52A101.55,101.55,0,0,1,174.72,323a3.53,3.53,0,0,0-4.1-1.06c-10.42,2.9-20.87,5.68-31.32,8.5Zm196.4-154.09c-19.92-22.34-57.09-38.26-96.22-29.21-42.39,9.8-69.19,43.91-76,75.78ZM349,273.72,176.16,320.45c27.47,26.47,59.36,37,96.33,29.05C313.1,340.72,340.89,308.74,349,273.72Zm28.34-108.43.31-.63c-35.56-54.52-107.74-84-177.21-60.28-70.74,24.17-102.34,89-103.4,136.52a3.14,3.14,0,0,0,1.07-1.6c1.28-8,2.13-16.12,3.82-24.06a139,139,0,0,1,14.35-37.84,152.08,152.08,0,0,1,242.14-34.1A159.88,159.88,0,0,1,375.51,164,7,7,0,0,0,377.37,165.29ZM122.6,334.62c27.46,44.27,90.06,82,162.56,65.09,74.87-17.49,116-83,118-140.57a2.83,2.83,0,0,0-1.15,1.59c-.59,4.59-.87,9.23-1.65,13.78a152.94,152.94,0,0,1-14.49,44.25,152.23,152.23,0,0,1-123.2,82.92,148.71,148.71,0,0,1-36.43-1.45,152.24,152.24,0,0,1-101.88-64.78C124,335,123.19,334.89,122.6,334.62Z"/><path class="cls-1" d="M322.64,138.82l-14.35,2.77c-.55,4.71-1.09,9.33-1.69,14.51-2.21-4-4.21-7.53-6.06-11.1a2.25,2.25,0,0,0-3-1.35c-4,.91-7.94,1.69-12.43,2.63,3.18-3.39,5.92-6.43,8.8-9.32a2.08,2.08,0,0,0,.37-3c-2.06-3.46-4-7-6.28-11,1.61.72,2.77,1.2,3.9,1.73,2.63,1.23,5.29,2.43,7.87,3.76a1.76,1.76,0,0,0,2.53-.54c2.72-3,5.52-6,8.74-9.52-.4,3.4-.65,6.24-1.07,9-.79,5.31-.83,5.3,4.09,7.54C316.77,136.13,319.44,137.36,322.64,138.82Z"/><path class="cls-1" d="M153.71,197l-8.52-11.27-13.72,4.82c2.64-3.76,5-7.27,7.55-10.7a1.64,1.64,0,0,0-.05-2.4c-2.6-3.26-5.11-6.58-7.47-10.22l13.39,4.06q4-5.76,8-11.53l.5,0v8.55c0,5.59,0,5.57,5.38,7.09,2.48.7,4.93,1.48,7.39,2.23l1.21.4c-4.22,1.45-8.14,2.82-12.08,4.11a1.9,1.9,0,0,0-1.59,2.21C153.79,188.51,153.71,192.67,153.71,197Z"/><path class="cls-1" d="M243,117.63c4,.33,8,.58,12,1.06a1.88,1.88,0,0,0,2.43-1.48c1.47-3.82,3.11-7.57,4.89-11.82.88,3.79,1.66,7.11,2.43,10.43a11.84,11.84,0,0,1,.32,1.55c.17,1.71.93,2.35,2.79,2.4,3.93.11,7.84.58,12.29,1-3.88,2.33-7.28,4.46-10.78,6.41a2.3,2.3,0,0,0-1.29,3.15c.94,3.3,1.69,6.65,2.49,10a14.89,14.89,0,0,1,.17,1.88c-3.32-2.89-6.39-5.48-9.35-8.2a2,2,0,0,0-2.87-.23c-3.43,2.24-7,4.31-10.94,6.73l5.7-13.39-10.43-9Z"/><path class="cls-1" d="M225,129.57,233,141.71l-9.83-3.77c-3.85-1.48-3.84-1.47-6.33,1.7a88.08,88.08,0,0,1-6.55,7.65c.25-4.57.5-9.13.76-13.94l-13.59-5.14c4.36-1.18,8.29-2.31,12.24-3.29,1.31-.32,1.83-.82,1.83-2.23,0-3.18.21-6.35.36-9.52,0-.78.19-1.55.37-2.9l7.82,11.81,13.36-3.67.23.35Z"/><path class="cls-1" d="M196.72,153.86c-4.36,0-8.44,0-12.52,0a2,2,0,0,0-2.37,1.66c-1.18,3.91-2.57,7.76-4,12.13l-4.3-13.95H159.72l-.21-.51,2.27-1.62c2.55-1.78,5.06-3.62,7.66-5.31a2,2,0,0,0,1-2.7c-1.34-3.91-2.54-7.88-3.94-12.29L178.12,140l11.89-8.4-4.7,13.72Z"/><path class="cls-1" d="M305.6,361c3.41-2.37,6.79-4.77,10.23-7.09a1.83,1.83,0,0,0,.86-2.46c-1.3-3.87-2.45-7.8-3.79-12.15.82.54,1.39.86,1.91,1.25,2.74,2.08,5.52,4.12,8.2,6.29a2,2,0,0,0,2.93,0c3.29-2.44,6.65-4.77,10.4-7.44-1.45,4.21-2.61,8-4.1,11.71-.71,1.76-.24,2.55,1.15,3.52,3.19,2.22,6.26,4.6,9.66,7.13H328.64c-1.47,4.28-3,8.73-4.68,13.69-1.29-4.32-2.5-8.06-3.5-11.86-.42-1.61-1-2.23-2.81-2.15-4,.16-8,0-12,0Z"/><path class="cls-1" d="M240.86,358.54c1,4.57,2,8.54,2.81,12.54.23,1.11.58,1.7,1.86,1.79,4.15.28,8.3.7,13,1.12l-12.45,7.47c1.08,4.57,2.14,9.1,3.34,14.17-3.53-3.07-6.69-5.75-9.75-8.54a1.85,1.85,0,0,0-2.7-.19c-3.46,2.2-7,4.26-11,6.66l5.69-13.34-10.94-9.47c1.31.07,2,.09,2.76.16,3.42.33,6.84.65,10.26,1,1.12.13,1.61-.29,2-1.32C237.36,366.75,239,362.93,240.86,358.54Z"/><path class="cls-1" d="M300.55,363.56c-2.81,3.45-5.3,6.68-8,9.74-1,1.17-1.11,1.94-.23,3.21,2.34,3.35,4.53,6.81,7,10.56l-13.61-5.28L277,392.61l-.37-.12c.2-4.07.32-8.14.65-12.2a1.88,1.88,0,0,0-1.44-2.32c-3.89-1.39-7.75-2.88-12.19-4.54,4.49-1.15,8.39-2.2,12.31-3.15a2.18,2.18,0,0,0,2-2.51c0-4,.31-8,.52-12.64,2,3,3.64,5.52,5.27,8.1,2.64,4.18,2.62,4.19,7.28,2.9l4.58-1.25Z"/><path class="cls-1" d="M178.31,376.71c3.13-3.33,5.95-6.4,8.85-9.38a1.88,1.88,0,0,0,.36-2.72c-2.12-3.57-4.1-7.23-6.36-11.25,3.7,1.73,7.16,3.14,10.4,4.95,2.14,1.19,3.42.9,4.93-.94,2.34-2.85,4.95-5.48,7.78-8.57-.57,4.56-1,8.69-1.64,12.79a1.94,1.94,0,0,0,1.44,2.49c3.74,1.6,7.41,3.39,11.58,5.32-4.62.9-8.72,1.77-12.85,2.45-1.31.21-1.57.8-1.68,1.93-.41,4.1-.9,8.2-1.44,12.91-2.24-4.09-4.22-7.62-6.12-11.21-.63-1.21-1.23-1.67-2.74-1.31C186.86,375.13,182.82,375.81,178.31,376.71Z"/><path class="cls-1" d="M339.48,312.22c4.51,1.41,8.47,2.59,12.4,3.89a1.85,1.85,0,0,0,2.55-.92c2-3.16,4.24-6.23,6.39-9.33.2-.3.45-.56,1.05-1.28,0,4.41.1,8.28,0,12.15-.07,1.84.46,2.66,2.29,3.13,3.8,1,7.53,2.2,11.86,3.5L362.18,328v14.2l-8.36-11.27-13.7,4.71c2.86-4,5.58-7.84,8.35-11.75Z"/><text class="cls-2" transform="matrix(0.96, -0.27, 0.27, 0.96, 85.19, 321.53)">VERIFIED</text></svg>