<svg width="14" height="10" viewBox="0 0 14 10" fill="none" xmlns="http://www.w3.org/2000/svg">
<path d="M10.8731 4.607C11.6494 2.82432 11.1707 1.69071 10.7809 1.14469C10.1892 0.31609 9.11123 -0.138516 8.16462 0.0434924C6.51906 0.357644 5.81763 1.47297 5.81763 3.77591V5.69906L4.85522 4.73665C4.77685 4.66096 4.67188 4.61907 4.56293 4.62002C4.45397 4.62097 4.34975 4.66467 4.27271 4.74172C4.19566 4.81876 4.15196 4.92298 4.15101 5.03194C4.15006 5.14089 4.19195 5.24586 4.26764 5.32423L5.9398 6.99555C5.97969 7.03515 6.02724 7.06618 6.07954 7.08676C6.13184 7.10734 6.1878 7.11703 6.24397 7.11523C6.30015 7.11703 6.3561 7.10734 6.40841 7.08676C6.46071 7.06618 6.50826 7.03515 6.54815 6.99555L8.22862 5.31592C8.30431 5.23755 8.34619 5.13258 8.34525 5.02363C8.3443 4.91467 8.3006 4.81045 8.22355 4.73341C8.14651 4.65636 8.04228 4.61266 7.93333 4.61171C7.82438 4.61076 7.71941 4.65265 7.64104 4.72834L6.64871 5.71983V3.77591C6.64871 1.37905 7.47399 1.02168 8.3192 0.859622C8.86191 0.759891 9.64728 0.98761 10.1036 1.62755C10.662 2.40794 10.5548 3.56565 9.80187 4.88542C9.76273 4.95402 9.74396 5.03236 9.74775 5.11125C9.75153 5.19014 9.77772 5.26631 9.82325 5.33085C9.86878 5.39539 9.93175 5.44562 10.0048 5.47565C10.0778 5.50568 10.1579 5.51428 10.2357 5.50042C10.3363 5.48297 10.6363 5.43726 10.8258 5.43726C11.7308 5.43726 12.4663 6.18275 12.4663 7.10027C12.4663 8.01696 11.7209 8.76245 10.8042 8.76245L2.55394 8.76744C1.58821 8.62449 0.831089 7.70946 0.831089 6.68473C0.831089 5.66415 1.59735 4.78569 2.61461 4.64025L2.97198 4.58872C3.07096 4.57452 3.1615 4.5251 3.22699 4.44954C3.29248 4.37397 3.32853 4.27733 3.32851 4.17733L3.32186 3.73519C3.32436 2.24671 4.24188 1.02335 5.50597 0.826378C5.73202 0.790642 5.88744 0.578714 5.85253 0.351827C5.84428 0.29776 5.82541 0.245862 5.79701 0.199125C5.7686 0.152388 5.73123 0.111738 5.68703 0.0795189C5.64284 0.0473002 5.5927 0.0241507 5.53951 0.0114058C5.48633 -0.00133905 5.43114 -0.00342696 5.37715 0.00526227C3.70666 0.265393 2.49327 1.83366 2.49077 3.73353L2.49742 3.81747C1.07377 4.02109 0 5.25359 0 6.68473C0 8.13581 1.04551 9.38411 2.49327 9.59354H10.8042C12.1788 9.59354 13.2974 8.47489 13.2974 7.10027C13.2974 5.74061 12.2137 4.63194 10.8731 4.607Z" fill="#34A853"/>
</svg>
