<svg width="25" height="21" viewBox="0 0 25 21" fill="none" xmlns="http://www.w3.org/2000/svg">
<path d="M20.8778 2.25706H9.91414L9.28217 0.953609C9.14337 0.667651 8.92686 0.426552 8.65742 0.257905C8.38799 0.0892589 8.07651 -0.000119583 7.75865 1.2008e-07H1.6928C1.24384 1.2008e-07 0.81327 0.178348 0.495809 0.495809C0.178348 0.81327 0 1.24384 0 1.6928V17.4922C0 17.9412 0.178348 18.3718 0.495809 18.6892C0.81327 19.0067 1.24384 19.185 1.6928 19.185H20.8778C21.3268 19.185 21.7573 19.0067 22.0748 18.6892C22.3923 18.3718 22.5706 17.9412 22.5706 17.4922V3.94986C22.5706 3.5009 22.3923 3.07033 22.0748 2.75287C21.7573 2.43541 21.3268 2.25706 20.8778 2.25706ZM21.4421 17.4922C21.4421 17.6419 21.3826 17.7854 21.2768 17.8912C21.171 17.997 21.0275 18.0565 20.8778 18.0565H1.6928C1.54314 18.0565 1.39962 17.997 1.2938 17.8912C1.18798 17.7854 1.12853 17.6419 1.12853 17.4922V1.6928C1.12853 1.54314 1.18798 1.39962 1.2938 1.2938C1.39962 1.18798 1.54314 1.12853 1.6928 1.12853H7.75865C7.86441 1.12832 7.96809 1.15783 8.05788 1.2137C8.14767 1.26957 8.21996 1.34955 8.26649 1.44452L9.84079 4.68905C9.97959 4.975 10.1961 5.2161 10.4655 5.38475C10.735 5.5534 11.0464 5.64278 11.3643 5.64266H19.7493C19.8989 5.64266 20.0425 5.58321 20.1483 5.47739C20.2541 5.37157 20.3136 5.22804 20.3136 5.07839C20.3136 4.92874 20.2541 4.78521 20.1483 4.67939C20.0425 4.57357 19.8989 4.51412 19.7493 4.51412H11.3643C11.2586 4.51434 11.1549 4.48482 11.0651 4.42895C10.9753 4.37308 10.903 4.2931 10.8565 4.19814L10.4615 3.38559H20.8778C21.0275 3.38559 21.171 3.44504 21.2768 3.55086C21.3826 3.65668 21.4421 3.80021 21.4421 3.94986V17.4922Z" fill="#939393"/>
<circle cx="20.4988" cy="16.1082" r="4.47004" fill="#642DDA"/>
<path d="M20.5193 13.4898C20.4168 13.4912 20.3192 13.5333 20.2478 13.6068C20.1764 13.6802 20.1371 13.779 20.1385 13.8814V15.7433H18.2768C18.2252 15.7419 18.1739 15.7508 18.1258 15.7696C18.0777 15.7884 18.0338 15.8166 17.9968 15.8526C17.9598 15.8886 17.9304 15.9316 17.9103 15.9792C17.8902 16.0268 17.8799 16.0779 17.8799 16.1295C17.8799 16.1811 17.8902 16.2322 17.9103 16.2798C17.9304 16.3274 17.9598 16.3704 17.9968 16.4064C18.0338 16.4424 18.0777 16.4706 18.1258 16.4894C18.1739 16.5082 18.2252 16.5171 18.2768 16.5157H20.1385V18.3773C20.1375 18.4287 20.1467 18.4797 20.1657 18.5275C20.1847 18.5753 20.213 18.6187 20.2489 18.6554C20.2849 18.6921 20.3279 18.7213 20.3752 18.7412C20.4226 18.7611 20.4735 18.7713 20.5249 18.7713C20.5763 18.7713 20.6271 18.7611 20.6745 18.7412C20.7219 18.7213 20.7648 18.6921 20.8008 18.6554C20.8368 18.6187 20.8651 18.5753 20.8841 18.5275C20.903 18.4797 20.9123 18.4287 20.9113 18.3773V16.5157H22.7729C22.8245 16.5171 22.8759 16.5082 22.924 16.4894C22.9721 16.4706 23.0159 16.4424 23.0529 16.4064C23.0899 16.3704 23.1194 16.3274 23.1394 16.2798C23.1595 16.2322 23.1699 16.1811 23.1699 16.1295C23.1699 16.0779 23.1595 16.0268 23.1394 15.9792C23.1194 15.9316 23.0899 15.8886 23.0529 15.8526C23.0159 15.8166 22.9721 15.7884 22.924 15.7696C22.8759 15.7508 22.8245 15.7419 22.7729 15.7433H20.9113V13.8814C20.912 13.8297 20.9023 13.7785 20.8829 13.7306C20.8634 13.6827 20.8346 13.6393 20.798 13.6027C20.7615 13.5662 20.718 13.5374 20.6701 13.518C20.6222 13.4986 20.5709 13.489 20.5193 13.4898Z" fill="white"/>
</svg>
