<svg width="36" height="32" viewBox="0 0 36 32" fill="none" xmlns="http://www.w3.org/2000/svg">
<g clip-path="url(#clip0_447_431)">
<path d="M0.0560684 0.957941V30.8232C0.0560684 31.3867 0.506863 31.7811 1.01401 31.7811H34.9927C35.5562 31.7811 35.9507 31.3303 35.9507 30.8232V3.94446C35.9507 3.38097 35.4999 2.98652 34.9927 2.98652H18.595C18.2569 2.98652 17.9189 2.81747 17.7498 2.53573L16.4538 0.450796C16.2284 0.169048 15.9466 0 15.6085 0H1.07036C0.506866 0 0.0560684 0.450796 0.0560684 0.957941Z" fill="#F3BF80"/>
<path d="M0.0560684 1.46564V31.3309C0.0560684 31.8943 0.506863 32.2888 1.01401 32.2888H34.9927C35.5562 32.2888 35.9507 31.838 35.9507 31.3309V4.45216C35.9507 3.88866 35.4999 3.49422 34.9927 3.49422H18.595C18.2569 3.49422 17.9189 3.32517 17.7498 3.04342L16.4538 0.958491C16.2847 0.676744 15.9466 0.507695 15.6085 0.507695H1.07036C0.506863 0.451346 0.0560684 0.902142 0.0560684 1.46564Z" fill="#FFB550"/>
<path d="M36.0078 6.59308V30.8234C36.0078 31.3869 35.557 31.7813 35.0499 31.7813H1.12749C0.563995 31.7813 0.169548 31.3305 0.169548 30.8234V9.5796C0.169548 9.01611 0.620346 8.62166 1.12749 8.62166H17.4688C17.8069 8.62166 18.145 8.45261 18.3141 8.17086L19.6101 6.08593C19.7792 5.80419 20.1173 5.63514 20.4554 5.63514H34.9935C35.557 5.57879 36.0078 6.02958 36.0078 6.59308Z" fill="#F3C66D"/>
<path d="M36.0078 7.10003V31.3303C36.0078 31.8938 35.557 32.2882 35.0499 32.2882H1.12749C0.563995 32.2882 0.169548 31.8374 0.169548 31.3303V10.0866C0.169548 9.52306 0.620346 9.12861 1.12749 9.12861H17.4688C17.8069 9.12861 18.145 8.95956 18.3141 8.67782L19.6101 6.59289C19.7792 6.31114 20.1173 6.14209 20.4554 6.14209H34.9935C35.557 6.14209 36.0078 6.53654 36.0078 7.10003Z" fill="#FCC74B"/>
</g>
<defs>
<clipPath id="clip0_447_431">
<rect width="36" height="32" fill="white" transform="matrix(-1 0 0 1 36 0)"/>
</clipPath>
</defs>
</svg>
