<svg width="35" height="35" viewBox="0 0 35 35" fill="none" xmlns="http://www.w3.org/2000/svg">
<path d="M20.125 12.2495C19.4288 12.2495 18.7611 11.9729 18.2688 11.4807C17.7766 10.9884 17.5 10.3207 17.5 9.62451C17.5 8.92832 17.7766 8.26064 18.2688 7.76836C18.7611 7.27607 19.4288 6.99951 20.125 6.99951C20.8212 6.99951 21.4889 7.27607 21.9812 7.76836C22.4734 8.26064 22.75 8.92832 22.75 9.62451C22.75 10.3207 22.4734 10.9884 21.9812 11.4807C21.4889 11.9729 20.8212 12.2495 20.125 12.2495Z" fill="white"/>
<path d="M29.75 0H5.25C3.85889 0.00415466 2.52595 0.558612 1.54228 1.54228C0.558612 2.52595 0.00415466 3.85889 0 5.25V20.755L6.79 13.965C7.79048 13.0128 9.1188 12.4817 10.5 12.4817C11.8812 12.4817 13.2095 13.0128 14.21 13.965L19.2342 19.0172L20.7882 17.4632C21.7746 16.4824 23.109 15.9319 24.5 15.9319C25.891 15.9319 27.2254 16.4824 28.2117 17.4632L35 24.255V5.25C34.9958 3.85889 34.4414 2.52595 33.4577 1.54228C32.474 0.558612 31.1411 0.00415466 29.75 0ZM20.125 12.25C19.4288 12.25 18.7611 11.9734 18.2688 11.4812C17.7766 10.9889 17.5 10.3212 17.5 9.625C17.5 8.92881 17.7766 8.26113 18.2688 7.76884C18.7611 7.27656 19.4288 7 20.125 7C20.8212 7 21.4889 7.27656 21.9812 7.76884C22.4734 8.26113 22.75 8.92881 22.75 9.625C22.75 10.3212 22.4734 10.9889 21.9812 11.4812C21.4889 11.9734 20.8212 12.25 20.125 12.25Z" fill="#FFA361"/>
<path d="M14.21 13.9648C13.2095 13.0125 11.8812 12.4814 10.5 12.4814C9.1188 12.4814 7.79048 13.0125 6.79 13.9648L0 20.7548V29.7498C0.00415466 31.1409 0.558612 32.4738 1.54228 33.4575C2.52595 34.4412 3.85889 34.9956 5.25 34.9998H29.75C31.1763 34.9998 32.5413 34.417 33.53 33.3898L14.21 13.9648Z" fill="url(#paint0_linear_447_440)"/>
<path d="M35.0001 24.2512L28.2119 17.463C27.2255 16.4822 25.8911 15.9316 24.5001 15.9316C23.1091 15.9316 21.7747 16.4822 20.7884 17.463L19.2344 19.017L33.5231 33.3827C34.4716 32.4115 35.0019 31.1077 35.0001 29.7497V24.2512Z" fill="url(#paint1_linear_447_440)"/>
<defs>
<linearGradient id="paint0_linear_447_440" x1="16.765" y1="12.4814" x2="16.765" y2="34.9998" gradientUnits="userSpaceOnUse">
<stop stop-color="#FF8831"/>
<stop offset="1" stop-color="#FF4163"/>
</linearGradient>
<linearGradient id="paint1_linear_447_440" x1="27.1173" y1="15.9316" x2="27.1173" y2="33.3827" gradientUnits="userSpaceOnUse">
<stop stop-color="#FF8831"/>
<stop offset="1" stop-color="#FF4163"/>
</linearGradient>
</defs>
</svg>
