<svg width="10" height="12" viewBox="0 0 10 12" fill="none" xmlns="http://www.w3.org/2000/svg">
<path d="M3.68291 9.99374C3.68291 10.0932 3.72244 10.1887 3.7928 10.259C3.86315 10.3294 3.95858 10.3689 4.05808 10.3689H4.94422C5.04372 10.3689 5.13914 10.3294 5.2095 10.259C5.27986 10.1887 5.31938 10.0932 5.31938 9.99374V8.78158C5.47135 8.66044 5.59413 8.50667 5.67862 8.33165C5.7631 8.15663 5.80714 7.96485 5.80748 7.77051C5.7993 7.42947 5.65808 7.10515 5.41399 6.86684C5.1699 6.62852 4.84229 6.49512 4.50115 6.49512C4.16001 6.49512 3.8324 6.62852 3.58831 6.86684C3.34422 7.10515 3.203 7.42947 3.19482 7.77051C3.19482 8.16668 3.37715 8.53659 3.68291 8.78158V9.99374ZM4.50152 7.21751C4.64859 7.21731 4.78973 7.27547 4.89397 7.37921C4.9982 7.48296 5.05702 7.62382 5.05752 7.77088C5.05752 7.9701 4.94572 8.15505 4.76527 8.25297C4.70603 8.28521 4.65658 8.33281 4.62212 8.39078C4.58766 8.44874 4.56945 8.51493 4.56943 8.58236V9.61857H4.43362V8.58236C4.43362 8.44505 4.35859 8.31825 4.23778 8.25297C4.15021 8.20633 4.07684 8.13694 4.0254 8.05209C3.97397 7.96725 3.94637 7.8701 3.94553 7.77088C3.94593 7.62379 4.00472 7.48287 4.10898 7.3791C4.21323 7.27534 4.35443 7.21722 4.50152 7.21751Z" fill="#642DDA"/>
<path d="M0.374792 12H8.62843C8.72793 12 8.82335 11.9605 8.89371 11.8901C8.96407 11.8198 9.00359 11.7243 9.00359 11.6248V5.26803C9.00359 5.16853 8.96407 5.07311 8.89371 5.00275C8.82335 4.9324 8.72793 4.89287 8.62843 4.89287H1.15701C0.968363 4.33823 0.939964 3.74164 1.07508 3.17159C1.21019 2.60155 1.50333 2.08116 1.92085 1.6702C3.15589 0.451289 5.17541 0.440785 6.42208 1.64506L7.35136 2.56197L7.87847 2.02773L6.94469 1.10633C5.40613 -0.380452 2.91616 -0.366946 1.39412 1.13634C0.905908 1.61588 0.553693 2.21639 0.373427 2.87655C0.193161 3.53671 0.191302 4.23288 0.368039 4.894C0.269977 4.89567 0.176486 4.93575 0.107664 5.00562C0.0388416 5.0755 0.00018401 5.16958 1.69232e-06 5.26766V11.6245C-0.000146515 11.6738 0.00944128 11.7226 0.0282145 11.7682C0.0469877 11.8138 0.0745771 11.8552 0.109399 11.8901C0.144221 11.925 0.185591 11.9526 0.231134 11.9715C0.276677 11.9904 0.325497 12 0.374792 12ZM8.25326 11.2497H0.749957V5.6432H8.25326V11.2497Z" fill="#642DDA"/>
</svg>
