<svg width="13" height="3" viewBox="0 0 13 3" fill="none" xmlns="http://www.w3.org/2000/svg">
<path d="M7.94457 1.44422C7.94457 0.64647 7.29787 -0.000232795 6.50012 -0.00023276C5.70237 -0.000232725 5.05566 0.646471 5.05566 1.44422C5.05566 2.24197 5.70237 2.88867 6.50012 2.88867C7.29787 2.88867 7.94457 2.24197 7.94457 1.44422Z" fill="#8F8F8F"/>
<path d="M2.8889 1.44422C2.8889 0.64647 2.2422 -0.000232795 1.44445 -0.00023276C0.646703 -0.000232725 -9.80097e-08 0.646471 -6.3139e-08 1.44422C-2.82683e-08 2.24197 0.646703 2.88867 1.44445 2.88867C2.2422 2.88867 2.8889 2.24197 2.8889 1.44422Z" fill="#8F8F8F"/>
<path d="M12.9997 1.44422C12.9997 0.64647 12.353 -0.000232795 11.5553 -0.00023276C10.7575 -0.000232725 10.1108 0.646471 10.1108 1.44422C10.1108 2.24197 10.7575 2.88867 11.5553 2.88867C12.353 2.88867 12.9997 2.24197 12.9997 1.44422Z" fill="#8F8F8F"/>
</svg>
