<svg width="31" height="36" viewBox="0 0 31 36" fill="none" xmlns="http://www.w3.org/2000/svg">
<path d="M28.9137 9.37528C29.0975 9.55911 29.2813 9.79546 29.4652 10.0843H20.1687V0.787839C20.4575 0.971668 20.6939 1.1555 20.8777 1.33933L28.9137 9.37528ZM19.5384 12.6054H30.253V33.4044C30.253 33.9296 30.0692 34.376 29.7015 34.7437C29.3339 35.1114 28.8874 35.2952 28.3622 35.2952H1.89081C1.36559 35.2952 0.919145 35.1114 0.551487 34.7437C0.183829 34.376 0 33.9296 0 33.4044V1.89081C0 1.36559 0.183829 0.919145 0.551487 0.551487C0.919145 0.183829 1.36559 0 1.89081 0H17.6476V10.7146C17.6476 11.2398 17.8314 11.6863 18.1991 12.0539C18.5667 12.4216 19.0132 12.6054 19.5384 12.6054ZM22.6898 27.1017V25.8411C22.6898 25.6573 22.6307 25.5063 22.5125 25.3881C22.3943 25.2699 22.2433 25.2108 22.0595 25.2108H8.19352C8.0097 25.2108 7.85869 25.2699 7.74052 25.3881C7.62234 25.5063 7.56325 25.6573 7.56325 25.8411V27.1017C7.56325 27.2855 7.62234 27.4365 7.74052 27.5547C7.85869 27.6728 8.0097 27.7319 8.19352 27.7319H22.0595C22.2433 27.7319 22.3943 27.6728 22.5125 27.5547C22.6307 27.4365 22.6898 27.2855 22.6898 27.1017ZM22.6898 22.0595V20.7989C22.6898 20.6151 22.6307 20.4641 22.5125 20.3459C22.3943 20.2278 22.2433 20.1687 22.0595 20.1687H8.19352C8.0097 20.1687 7.85869 20.2278 7.74052 20.3459C7.62234 20.4641 7.56325 20.6151 7.56325 20.7989V22.0595C7.56325 22.2433 7.62234 22.3943 7.74052 22.5125C7.85869 22.6307 8.0097 22.6898 8.19352 22.6898H22.0595C22.2433 22.6898 22.3943 22.6307 22.5125 22.5125C22.6307 22.3943 22.6898 22.2433 22.6898 22.0595ZM22.6898 17.0173V15.7568C22.6898 15.5729 22.6307 15.4219 22.5125 15.3038C22.3943 15.1856 22.2433 15.1265 22.0595 15.1265H8.19352C8.0097 15.1265 7.85869 15.1856 7.74052 15.3038C7.62234 15.4219 7.56325 15.5729 7.56325 15.7568V17.0173C7.56325 17.2011 7.62234 17.3522 7.74052 17.4703C7.85869 17.5885 8.0097 17.6476 8.19352 17.6476H22.0595C22.2433 17.6476 22.3943 17.5885 22.5125 17.4703C22.6307 17.3522 22.6898 17.2011 22.6898 17.0173Z" fill="url(#paint0_linear_447_436)"/>
<defs>
<linearGradient id="paint0_linear_447_436" x1="15.1265" y1="0" x2="15.1265" y2="35.2952" gradientUnits="userSpaceOnUse">
<stop stop-color="#8C24DE"/>
<stop offset="1" stop-color="#666BEE"/>
</linearGradient>
</defs>
</svg>
