<svg width="77" height="79" viewBox="0 0 77 79" fill="none" xmlns="http://www.w3.org/2000/svg">
<path d="M38.7913 2.29688L38.2804 1.92573L37.7696 2.29688L1.89677 28.36L1.38593 28.7311L1.58105 29.3317L15.2832 71.5027L15.4784 72.1032H16.1098H60.451H61.0824L61.2776 71.5027L74.9798 29.3317L75.1749 28.7311L74.664 28.36L38.7913 2.29688Z" fill="#F7DF63" stroke="white" stroke-width="1.7382"/>
<path d="M52.5343 46.2635C52.7663 46.0555 52.9445 45.7945 53.0539 45.5028C53.1633 45.2111 53.2006 44.8972 53.1626 44.588C53.1331 44.3046 53.0201 44.0363 52.8381 43.817C52.6561 43.5977 52.4132 43.4373 52.1401 43.356C51.9116 43.564 51.7356 43.8232 51.6264 44.1122C51.5172 44.4013 51.4779 44.7121 51.5118 45.0192C51.5406 45.3043 51.6531 45.5745 51.835 45.7959C52.0169 46.0173 52.2602 46.18 52.5343 46.2635ZM53.2858 46.9411C53.0344 47.1512 52.8371 47.4187 52.7106 47.721C52.5841 48.0233 52.5321 48.3516 52.559 48.6782C52.8781 48.7062 53.1995 48.6662 53.502 48.561C53.8045 48.4558 54.0813 48.2876 54.3141 48.0676C54.5469 47.8476 54.7305 47.5807 54.8527 47.2846C54.9748 46.9885 55.0329 46.6699 55.0229 46.3497C54.7074 46.3072 54.3862 46.3384 54.0848 46.441C53.7834 46.5436 53.5099 46.7148 53.2858 46.9411ZM52.251 48.6166C52.3327 48.322 52.3311 48.0106 52.2462 47.717C52.1614 47.4233 51.9967 47.159 51.7705 46.9534C51.5442 46.7443 51.2654 46.6005 50.9637 46.5376C50.6621 46.4747 50.3491 46.4949 50.058 46.5961C49.9719 46.8893 49.9702 47.2009 50.053 47.495C50.1358 47.7892 50.2998 48.0541 50.5262 48.2593C50.7551 48.4683 51.036 48.6118 51.3395 48.6747C51.6431 48.7376 51.9579 48.7175 52.251 48.6166ZM52.2633 50.7479C51.9566 50.9413 51.699 51.2034 51.5108 51.5134C51.3227 51.8234 51.2091 52.1729 51.1791 52.5343C51.5179 52.6408 51.8774 52.664 52.227 52.6018C52.5766 52.5396 52.9061 52.3938 53.1873 52.177C53.4921 51.9815 53.7482 51.7189 53.9361 51.4093C54.124 51.0997 54.2387 50.7513 54.2714 50.3906C53.9331 50.2809 53.5729 50.2561 53.2227 50.3184C52.8725 50.3807 52.543 50.5282 52.2633 50.7479ZM50.8588 52.3988C50.9986 52.0931 51.0529 51.7553 51.016 51.4212C50.9791 51.0872 50.8524 50.7693 50.6494 50.5015C50.4483 50.2353 50.1767 50.0308 49.8653 49.911C49.554 49.7913 49.2153 49.7611 48.8877 49.8239C48.741 50.1253 48.6784 50.4606 48.7066 50.7946C48.7348 51.1285 48.8527 51.4487 49.0478 51.7212C49.2528 51.996 49.5326 52.206 49.8537 52.3262C50.1748 52.4463 50.5238 52.4715 50.8588 52.3988ZM51.2038 54.7026C50.827 54.8486 50.4876 55.0771 50.2105 55.3713C49.9334 55.6654 49.7255 56.0179 49.6022 56.4027C49.9202 56.6072 50.2852 56.727 50.6626 56.7507C51.0399 56.7745 51.4171 56.7013 51.7582 56.5382C52.135 56.3922 52.4744 56.1637 52.7515 55.8695C53.0286 55.5754 53.2364 55.223 53.3598 54.8381C53.0431 54.6302 52.6778 54.5084 52.2997 54.4846C51.9217 54.4608 51.544 54.536 51.2038 54.7026ZM47.6803 54.9736C47.8005 55.3159 48.0188 55.6153 48.308 55.8344C48.5972 56.0534 48.9445 56.1826 49.3065 56.2056C49.5337 55.9005 49.6809 55.5434 49.7347 55.1668C49.7885 54.7902 49.7472 54.4061 49.6145 54.0496C49.4921 53.7063 49.2716 53.4066 48.9803 53.1876C48.689 52.9685 48.3398 52.8399 47.976 52.8176C47.7477 53.1223 47.6008 53.4802 47.5491 53.8574C47.4973 54.2345 47.5425 54.6187 47.6803 54.9736ZM49.0478 57.9797C48.6554 58.0812 48.2904 58.2688 47.9793 58.5287C47.6682 58.7887 47.4188 59.1145 47.2491 59.4827C47.5266 59.7329 47.8664 59.9038 48.2327 59.9775C48.5991 60.0512 48.9785 60.025 49.3312 59.9015C49.7247 59.8029 50.0914 59.618 50.4046 59.3602C50.7178 59.1024 50.9698 58.7781 51.1422 58.4108C50.8627 58.1597 50.5214 57.9875 50.1534 57.9117C49.7854 57.8359 49.4038 57.8594 49.0478 57.9797ZM46.2143 55.6512C45.9476 55.9302 45.7541 56.2708 45.651 56.6426C45.5478 57.0145 45.5381 57.4061 45.6229 57.7825C45.6921 58.1351 45.8632 58.4596 46.1151 58.7158C46.3669 58.972 46.6884 59.1487 47.0397 59.224C47.2978 58.9418 47.4868 58.6035 47.5916 58.2357C47.6963 57.8679 47.7141 57.4808 47.6434 57.1049C47.5755 56.7485 47.4035 56.4202 47.1492 56.1615C46.8948 55.9027 46.5695 55.7252 46.2143 55.6512ZM46.0295 61.0103C45.5935 60.9752 45.1553 61.0414 44.7492 61.2038C44.3431 61.3663 43.9801 61.6205 43.6887 61.9466C43.8321 62.3243 44.0841 62.6511 44.413 62.8857C44.7419 63.1203 45.1329 63.2522 45.5367 63.2649C45.9736 63.2985 46.4124 63.2304 46.8186 63.0658C47.2248 62.9012 47.5872 62.6446 47.8774 62.3162C47.7308 61.9418 47.4775 61.6185 47.1491 61.3864C46.8207 61.1543 46.4314 61.0236 46.0295 61.0103ZM42.7524 59.4334C42.6677 59.828 42.6981 60.2387 42.8401 60.6166C42.982 60.9944 43.2295 61.3235 43.5532 61.5647C43.9365 61.343 44.2643 61.037 44.5119 60.6699C44.7595 60.3028 44.9203 59.8842 44.9823 59.4457C45.0639 59.0511 45.0321 58.6414 44.8903 58.2642C44.7486 57.8869 44.5028 57.5576 44.1815 57.3144C43.7982 57.5361 43.4703 57.8421 43.2228 58.2092C42.9752 58.5763 42.8143 58.9949 42.7524 59.4334ZM42.0871 63.0801C41.6088 63.0401 41.1278 63.1129 40.6827 63.2926C40.2376 63.4723 39.841 63.754 39.5246 64.1149C39.6872 64.5219 39.9649 64.8727 40.3238 65.1243C40.6826 65.3759 41.107 65.5175 41.545 65.5317C42.0248 65.5679 42.5065 65.4934 42.9529 65.314C43.3993 65.1346 43.7986 64.855 44.1199 64.4968C43.9564 64.088 43.6768 63.7359 43.3156 63.4842C42.9543 63.2324 42.5273 63.0919 42.0871 63.0801ZM40.9414 61.3676C41.0362 60.9346 41.0041 60.4835 40.8489 60.0683C40.6938 59.6531 40.4222 59.2915 40.0667 59.0268C39.6437 59.266 39.2815 59.5993 39.008 60.001C38.7346 60.4026 38.5572 60.8618 38.4897 61.343C38.4015 61.7777 38.4366 62.2285 38.5912 62.6444C38.7458 63.0602 39.0136 63.4245 39.3644 63.6961C39.7865 63.4528 40.1478 63.1167 40.4209 62.7134C40.6941 62.31 40.8721 61.8498 40.9414 61.3676ZM24.4081 45.0192C24.444 44.7101 24.4058 44.3969 24.2965 44.1055C24.1872 43.8141 24.0101 43.553 23.7798 43.3437C23.5067 43.425 23.2638 43.5854 23.0818 43.8047C22.8998 44.0239 22.7869 44.2922 22.7573 44.5757C22.7193 44.8849 22.7566 45.1987 22.866 45.4905C22.9754 45.7822 23.1537 46.0431 23.3856 46.2512C23.6579 46.1685 23.9 46.0076 24.0818 45.7886C24.2635 45.5696 24.377 45.3021 24.4081 45.0192ZM23.361 48.6782C23.3878 48.3516 23.3358 48.0233 23.2093 47.721C23.0829 47.4187 22.8856 47.1512 22.6341 46.9411C22.4048 46.7075 22.1232 46.5321 21.8125 46.4292C21.5018 46.3264 21.171 46.2991 20.8477 46.3497C20.8208 46.6763 20.8728 47.0046 20.9993 47.3069C21.1258 47.6092 21.3231 47.8767 21.5746 48.0868C21.8026 48.3221 22.0842 48.4987 22.3952 48.6016C22.7063 48.7046 23.0376 48.7309 23.361 48.6782ZM23.669 48.6166C23.962 48.7175 24.2769 48.7376 24.5804 48.6747C24.8839 48.6118 25.1649 48.4683 25.3937 48.2593C25.6202 48.0541 25.7842 47.7892 25.867 47.495C25.9498 47.2009 25.948 46.8893 25.8619 46.5961C25.5709 46.4949 25.2578 46.4747 24.9562 46.5376C24.6546 46.6005 24.3757 46.7443 24.1494 46.9534C23.9232 47.159 23.7585 47.4233 23.6737 47.717C23.5889 48.0106 23.5872 48.322 23.669 48.6166ZM24.7408 52.5343C24.7108 52.1729 24.5973 51.8234 24.4091 51.5134C24.221 51.2034 23.9634 50.9413 23.6566 50.7479C23.3758 50.5303 23.0458 50.385 22.6956 50.3249C22.3454 50.2647 21.9859 50.2915 21.6485 50.403C21.683 50.7615 21.7986 51.1074 21.9864 51.4148C22.1742 51.7221 22.4294 51.9827 22.7326 52.177C23.0139 52.3938 23.3433 52.5396 23.6929 52.6018C24.0426 52.664 24.402 52.6408 24.7408 52.5343ZM25.0611 52.3988C25.3962 52.4715 25.7451 52.4463 26.0662 52.3262C26.3873 52.206 26.6671 51.996 26.8721 51.7212C27.0752 51.4533 27.2018 51.1355 27.2387 50.8015C27.2756 50.4674 27.2213 50.1296 27.0816 49.8239C26.7539 49.7611 26.4152 49.7913 26.1039 49.911C25.7925 50.0308 25.5209 50.2353 25.3198 50.5015C25.1087 50.7646 24.9732 51.0801 24.9276 51.4143C24.882 51.7485 24.9282 52.0888 25.0611 52.3988ZM26.3177 56.4027C26.1944 56.0179 25.9866 55.6654 25.7095 55.3713C25.4324 55.0771 25.093 54.8486 24.7161 54.7026C24.376 54.536 23.9982 54.4608 23.6202 54.4846C23.2421 54.5084 22.8768 54.6302 22.5602 54.8381C22.6835 55.223 22.8913 55.5754 23.1684 55.8695C23.4455 56.1637 23.7849 56.3922 24.1617 56.5382C24.5029 56.7013 24.88 56.7745 25.2574 56.7507C25.6347 56.727 25.9997 56.6072 26.3177 56.4027ZM26.3054 54.025C26.1727 54.3815 26.1314 54.7656 26.1852 55.1421C26.239 55.5187 26.3862 55.8758 26.6134 56.181C26.9755 56.1579 27.3227 56.0288 27.6119 55.8097C27.9011 55.5906 28.1194 55.2913 28.2396 54.949C28.3774 54.5941 28.4226 54.2099 28.3709 53.8327C28.3191 53.4555 28.1722 53.0977 27.9439 52.793C27.5802 52.8153 27.231 52.9439 26.9397 53.1629C26.6484 53.3819 26.4278 53.6817 26.3054 54.025ZM26.8721 57.9797C26.5161 57.8594 26.1346 57.8359 25.7665 57.9117C25.3985 57.9875 25.0573 58.1597 24.7777 58.4108C24.9501 58.7781 25.2021 59.1024 25.5153 59.3602C25.8286 59.618 26.1952 59.8029 26.5888 59.9015C26.9415 60.025 27.3209 60.0512 27.6872 59.9775C28.0535 59.9038 28.3933 59.7329 28.6708 59.4827C28.5011 59.1145 28.2517 58.7887 27.9406 58.5287C27.6296 58.2688 27.2646 58.0812 26.8721 57.9797ZM28.8802 59.224C29.2315 59.1487 29.553 58.972 29.8049 58.7158C30.0567 58.4596 30.2278 58.1351 30.297 57.7825C30.3818 57.4061 30.3721 57.0145 30.269 56.6426C30.1658 56.2708 29.9723 55.9302 29.7057 55.6512C29.3505 55.7252 29.0251 55.9027 28.7708 56.1615C28.5164 56.4202 28.3444 56.7485 28.2766 57.1049C28.2059 57.4808 28.2236 57.8679 28.3284 58.2357C28.4331 58.6035 28.6221 58.9418 28.8802 59.224ZM32.2312 61.9466C31.9398 61.6205 31.5768 61.3663 31.1707 61.2038C30.7646 61.0414 30.3264 60.9752 29.8905 61.0103C29.4969 61.0174 29.1135 61.1372 28.786 61.3555C28.4584 61.5739 28.2004 61.8817 28.0425 62.2423C28.3327 62.5707 28.6952 62.8273 29.1013 62.9919C29.5075 63.1565 29.9463 63.2246 30.3833 63.1909C30.7786 63.1844 31.1636 63.0634 31.4916 62.8425C31.8195 62.6217 32.0765 62.3105 32.2312 61.9466ZM32.3668 61.5647C32.6904 61.3235 32.9379 60.9944 33.0799 60.6166C33.2218 60.2387 33.2523 59.828 33.1675 59.4334C33.1125 59.0004 32.961 58.5853 32.7244 58.2186C32.4877 57.8519 32.1719 57.5429 31.8 57.3144C31.4787 57.5576 31.2329 57.8869 31.0912 58.2642C30.9495 58.6414 30.9176 59.0511 30.9993 59.4457C31.0543 59.8787 31.2058 60.2938 31.4424 60.6605C31.6791 61.0272 31.9949 61.3362 32.3668 61.5647ZM31.8 64.4968C32.1201 64.8572 32.5189 65.1391 32.9654 65.3207C33.4118 65.5023 33.8941 65.5787 34.3749 65.544C34.8129 65.5298 35.2373 65.3882 35.5962 65.1366C35.955 64.885 36.2327 64.5342 36.3953 64.1273C36.079 63.7663 35.6823 63.4846 35.2372 63.3049C34.7922 63.1252 34.3111 63.0524 33.8328 63.0924C33.3941 63.1032 32.968 63.2419 32.6069 63.4914C32.2458 63.7408 31.9654 64.0903 31.8 64.4968ZM35.8533 59.0268C35.4978 59.2915 35.2261 59.6531 35.071 60.0683C34.9158 60.4835 34.8837 60.9346 34.9786 61.3676C35.0479 61.8498 35.2258 62.31 35.499 62.7134C35.7722 63.1167 36.1334 63.4528 36.5555 63.6961C36.9063 63.4245 37.1741 63.0602 37.3287 62.6444C37.4833 62.2285 37.5184 61.7777 37.4302 61.343C37.3627 60.8618 37.1854 60.4026 36.9119 60.001C36.6384 59.5993 36.2762 59.266 35.8533 59.0268Z" fill="black"/>
<path d="M39.6475 43.9844L37.9596 40.5594L36.2718 43.9844L32.502 44.5264L35.237 47.1875L34.584 50.9451L37.9596 49.171L41.3353 50.9451L40.6823 47.1875L43.4173 44.5264L39.6475 43.9844Z" fill="black"/>
<path d="M47.9515 46.0171C47.9515 44.041 47.3655 42.1093 46.2677 40.4662C45.1698 38.8232 43.6094 37.5425 41.7837 36.7863C39.958 36.0301 37.9491 35.8322 36.0109 36.2177C34.0728 36.6033 32.2925 37.5549 30.8952 38.9522C29.4978 40.3495 28.5463 42.1298 28.1607 44.0679C27.7752 46.0061 27.9731 48.015 28.7293 49.8407C29.4855 51.6664 30.7661 53.2268 32.4092 54.3247C34.0523 55.4226 35.984 56.0085 37.9601 56.0085C40.609 56.0053 43.1485 54.9516 45.0215 53.0785C46.8946 51.2055 47.9483 48.666 47.9515 46.0171ZM37.9601 53.5446C36.4714 53.5446 35.016 53.1031 33.7781 52.276C32.5403 51.4488 31.5754 50.2732 31.0057 48.8978C30.436 47.5223 30.2869 46.0088 30.5774 44.5486C30.8678 43.0884 31.5847 41.7472 32.6375 40.6945C33.6902 39.6417 35.0314 38.9248 36.4916 38.6344C37.9518 38.3439 39.4653 38.493 40.8408 39.0627C42.2162 39.6325 43.3918 40.5973 44.219 41.8351C45.0461 43.073 45.4876 44.5284 45.4876 46.0171C45.4843 48.0125 44.6902 49.9253 43.2792 51.3362C41.8683 52.7472 39.9555 53.5413 37.9601 53.5446Z" fill="black"/>
<path d="M28.824 28.0115L28.1974 26.7372C28.1653 26.6718 28.1026 26.6393 28.0401 26.6395C27.9781 26.6398 27.9161 26.6723 27.8842 26.7372L27.2577 28.0115L25.8567 28.2159C25.7135 28.2368 25.6563 28.4134 25.76 28.5149L26.7737 29.5068L26.5344 30.9073C26.515 31.0206 26.6047 31.1126 26.7064 31.1126C26.7333 31.1127 26.761 31.1063 26.7878 31.0921L28.0408 30.4309L29.2939 31.0921C29.3159 31.1037 29.3386 31.1102 29.3609 31.112C29.3706 31.1129 29.3802 31.1129 29.3896 31.112C29.4852 31.1038 29.5657 31.0153 29.5473 30.9073L29.308 29.5068L30.3217 28.5149C30.4254 28.4134 30.3682 28.2368 30.2249 28.2159L28.824 28.0115Z" fill="black"/>
<path d="M39.2537 28.0115L38.6271 26.7372C38.595 26.6718 38.5323 26.6393 38.4698 26.6395C38.4078 26.6398 38.3458 26.6723 38.3139 26.7372L37.6874 28.0115L36.2864 28.2159C36.1432 28.2368 36.086 28.4134 36.1896 28.5149L37.2034 29.5068L36.9641 30.9073C36.9447 31.0206 37.0344 31.1126 37.1361 31.1126C37.163 31.1127 37.1907 31.1063 37.2175 31.0921L38.4705 30.4309L39.7236 31.0921C39.7456 31.1037 39.7683 31.1102 39.7906 31.112C39.8003 31.1129 39.8099 31.1129 39.8193 31.112C39.9149 31.1038 39.9954 31.0153 39.977 30.9073L39.7376 29.5068L40.7514 28.5149C40.8551 28.4134 40.7978 28.2368 40.6546 28.2159L39.2537 28.0115Z" fill="black"/>
<path d="M49.6824 28.0115L49.0558 26.7372C49.0237 26.6718 48.961 26.6393 48.8985 26.6395C48.8365 26.6398 48.7745 26.6723 48.7426 26.7372L48.1161 28.0115L46.7151 28.2159C46.5719 28.2368 46.5147 28.4134 46.6184 28.5149L47.6321 29.5068L47.3928 30.9073C47.3734 31.0206 47.4631 31.1126 47.5648 31.1126C47.5917 31.1127 47.6194 31.1063 47.6462 31.0921L48.8992 30.4309L50.1523 31.0921C50.1743 31.1037 50.197 31.1102 50.2193 31.112C50.229 31.1129 50.2386 31.1129 50.248 31.112C50.3436 31.1038 50.4241 31.0153 50.4057 30.9073L50.1664 29.5068L51.1801 28.5149C51.2838 28.4134 51.2266 28.2368 51.0833 28.2159L49.6824 28.0115Z" fill="black"/>
<path d="M39.8425 18.2181C39.654 18.2181 39.4951 18.0643 39.4951 17.8707V16.754L38.4529 15.6919L37.4106 16.754V17.8707C37.4106 18.0593 37.2568 18.2181 37.0632 18.2181C36.8746 18.2181 36.7158 18.0643 36.7158 17.8707V16.6647C36.7158 16.5406 36.7655 16.4264 36.8498 16.3371L38.1253 15.0368C38.2147 14.9475 38.3338 14.8978 38.4529 14.8978C38.577 14.8978 38.6911 14.9475 38.7805 15.0368L40.056 16.3371C40.1403 16.4264 40.19 16.5406 40.19 16.6647V17.8707C40.19 18.0593 40.0361 18.2181 39.8425 18.2181Z" fill="black"/>
<path d="M40.4664 20.382H36.4414C35.4438 20.382 34.6299 19.568 34.6299 18.5704V14.5454C34.6299 13.5478 35.4438 12.7339 36.4414 12.7339H40.4714C41.469 12.7339 42.2829 13.5478 42.2829 14.5454V18.5754C42.278 19.568 41.464 20.382 40.4664 20.382ZM36.4414 13.4238C35.826 13.4238 35.3247 13.925 35.3247 14.5404V18.5704C35.3247 19.1859 35.826 19.6871 36.4414 19.6871H40.4714C41.0868 19.6871 41.5881 19.1859 41.5881 18.5704V14.5454C41.5881 13.93 41.0868 13.4287 40.4714 13.4287H36.4414V13.4238Z" fill="black"/>
</svg>
