<svg width="77" height="79" viewBox="0 0 77 79" fill="none" xmlns="http://www.w3.org/2000/svg">
<path d="M39.2297 2.29688L38.7189 1.92573L38.208 2.29688L2.33525 28.36L1.82441 28.7311L2.01953 29.3317L15.7217 71.5027L15.9168 72.1032H16.5483H60.8895H61.5209L61.716 71.5027L75.4182 29.3317L75.6134 28.7311L75.1025 28.36L39.2297 2.29688Z" fill="#EBEBEB" stroke="white" stroke-width="1.7382"/>
<path d="M52.9718 46.2635C53.2038 46.0555 53.382 45.7945 53.4914 45.5028C53.6008 45.2111 53.6381 44.8972 53.6001 44.588C53.5706 44.3046 53.4576 44.0363 53.2756 43.817C53.0936 43.5977 52.8507 43.4373 52.5776 43.356C52.3491 43.564 52.1731 43.8232 52.0639 44.1122C51.9547 44.4013 51.9154 44.7121 51.9493 45.0192C51.9781 45.3043 52.0906 45.5745 52.2725 45.7959C52.4544 46.0173 52.6977 46.18 52.9718 46.2635ZM53.7233 46.9411C53.4719 47.1512 53.2746 47.4187 53.1481 47.721C53.0216 48.0233 52.9696 48.3516 52.9965 48.6782C53.3156 48.7062 53.637 48.6662 53.9395 48.561C54.242 48.4558 54.5188 48.2876 54.7516 48.0676C54.9844 47.8476 55.168 47.5807 55.2902 47.2846C55.4123 46.9885 55.4704 46.6699 55.4604 46.3497C55.1449 46.3072 54.8237 46.3384 54.5223 46.441C54.2209 46.5436 53.9474 46.7148 53.7233 46.9411ZM52.6885 48.6166C52.7702 48.322 52.7686 48.0106 52.6837 47.717C52.5989 47.4233 52.4342 47.159 52.208 46.9534C51.9817 46.7443 51.7029 46.6005 51.4012 46.5376C51.0996 46.4747 50.7866 46.4949 50.4955 46.5961C50.4094 46.8893 50.4077 47.2009 50.4905 47.495C50.5733 47.7892 50.7373 48.0541 50.9637 48.2593C51.1926 48.4683 51.4735 48.6118 51.777 48.6747C52.0806 48.7376 52.3954 48.7175 52.6885 48.6166ZM52.7008 50.7479C52.3941 50.9413 52.1365 51.2034 51.9483 51.5134C51.7602 51.8234 51.6466 52.1729 51.6166 52.5343C51.9554 52.6408 52.3149 52.664 52.6645 52.6018C53.0141 52.5396 53.3436 52.3938 53.6248 52.177C53.9296 51.9815 54.1857 51.7189 54.3736 51.4093C54.5615 51.0997 54.6762 50.7513 54.7089 50.3906C54.3706 50.2809 54.0104 50.2561 53.6602 50.3184C53.31 50.3807 52.9805 50.5282 52.7008 50.7479ZM51.2963 52.3988C51.4361 52.0931 51.4904 51.7553 51.4535 51.4212C51.4166 51.0872 51.2899 50.7693 51.0869 50.5015C50.8858 50.2353 50.6142 50.0308 50.3028 49.911C49.9915 49.7913 49.6528 49.7611 49.3252 49.8239C49.1785 50.1253 49.1159 50.4606 49.1441 50.7946C49.1723 51.1285 49.2902 51.4487 49.4853 51.7212C49.6903 51.996 49.9701 52.206 50.2912 52.3262C50.6123 52.4463 50.9613 52.4715 51.2963 52.3988ZM51.6413 54.7026C51.2645 54.8486 50.9251 55.0771 50.648 55.3713C50.3709 55.6654 50.163 56.0179 50.0397 56.4027C50.3577 56.6072 50.7227 56.727 51.1001 56.7507C51.4774 56.7745 51.8546 56.7013 52.1957 56.5382C52.5725 56.3922 52.9119 56.1637 53.189 55.8695C53.4661 55.5754 53.6739 55.223 53.7973 54.8381C53.4806 54.6302 53.1153 54.5084 52.7372 54.4846C52.3592 54.4608 51.9815 54.536 51.6413 54.7026ZM48.1178 54.9736C48.238 55.3159 48.4563 55.6153 48.7455 55.8344C49.0347 56.0534 49.382 56.1826 49.744 56.2056C49.9712 55.9005 50.1184 55.5434 50.1722 55.1668C50.226 54.7902 50.1847 54.4061 50.052 54.0496C49.9296 53.7063 49.7091 53.4066 49.4178 53.1876C49.1265 52.9685 48.7773 52.8399 48.4135 52.8176C48.1852 53.1223 48.0383 53.4802 47.9866 53.8574C47.9348 54.2345 47.98 54.6187 48.1178 54.9736ZM49.4853 57.9797C49.0929 58.0812 48.7279 58.2688 48.4168 58.5287C48.1057 58.7887 47.8563 59.1145 47.6866 59.4827C47.9641 59.7329 48.3039 59.9038 48.6702 59.9775C49.0366 60.0512 49.416 60.025 49.7687 59.9015C50.1622 59.8029 50.5289 59.618 50.8421 59.3602C51.1553 59.1024 51.4073 58.7781 51.5797 58.4108C51.3002 58.1597 50.9589 57.9875 50.5909 57.9117C50.2229 57.8359 49.8413 57.8594 49.4853 57.9797ZM46.6518 55.6512C46.3851 55.9302 46.1916 56.2708 46.0885 56.6426C45.9853 57.0145 45.9756 57.4061 46.0604 57.7825C46.1296 58.1351 46.3007 58.4596 46.5526 58.7158C46.8044 58.972 47.1259 59.1487 47.4772 59.224C47.7353 58.9418 47.9243 58.6035 48.0291 58.2357C48.1338 57.8679 48.1516 57.4808 48.0809 57.1049C48.013 56.7485 47.841 56.4202 47.5867 56.1615C47.3323 55.9027 47.007 55.7252 46.6518 55.6512ZM46.467 61.0103C46.031 60.9752 45.5928 61.0414 45.1867 61.2038C44.7806 61.3663 44.4176 61.6205 44.1262 61.9466C44.2696 62.3243 44.5216 62.6511 44.8505 62.8857C45.1794 63.1203 45.5704 63.2522 45.9742 63.2649C46.4111 63.2985 46.8499 63.2304 47.2561 63.0658C47.6623 62.9012 48.0247 62.6446 48.3149 62.3162C48.1683 61.9418 47.915 61.6185 47.5866 61.3864C47.2582 61.1543 46.8689 61.0236 46.467 61.0103ZM43.1899 59.4334C43.1052 59.828 43.1356 60.2387 43.2776 60.6166C43.4195 60.9944 43.667 61.3235 43.9907 61.5647C44.374 61.343 44.7018 61.037 44.9494 60.6699C45.197 60.3028 45.3578 59.8842 45.4198 59.4457C45.5014 59.0511 45.4696 58.6414 45.3278 58.2642C45.1861 57.8869 44.9403 57.5576 44.619 57.3144C44.2357 57.5361 43.9078 57.8421 43.6603 58.2092C43.4127 58.5763 43.2518 58.9949 43.1899 59.4334ZM42.5246 63.0801C42.0463 63.0401 41.5653 63.1129 41.1202 63.2926C40.6751 63.4723 40.2785 63.754 39.9621 64.1149C40.1247 64.5219 40.4024 64.8727 40.7613 65.1243C41.1201 65.3759 41.5445 65.5175 41.9825 65.5317C42.4623 65.5679 42.944 65.4934 43.3904 65.314C43.8368 65.1346 44.2361 64.855 44.5574 64.4968C44.3939 64.088 44.1143 63.7359 43.7531 63.4842C43.3918 63.2324 42.9648 63.0919 42.5246 63.0801ZM41.3789 61.3676C41.4737 60.9346 41.4416 60.4835 41.2864 60.0683C41.1313 59.6531 40.8597 59.2915 40.5042 59.0268C40.0812 59.266 39.719 59.5993 39.4455 60.001C39.1721 60.4026 38.9947 60.8618 38.9272 61.343C38.839 61.7777 38.8741 62.2285 39.0287 62.6444C39.1833 63.0602 39.4511 63.4245 39.8019 63.6961C40.224 63.4528 40.5853 63.1167 40.8584 62.7134C41.1316 62.31 41.3096 61.8498 41.3789 61.3676ZM24.8456 45.0192C24.8815 44.7101 24.8433 44.3969 24.734 44.1055C24.6247 43.8141 24.4476 43.553 24.2173 43.3437C23.9442 43.425 23.7013 43.5854 23.5193 43.8047C23.3373 44.0239 23.2244 44.2922 23.1948 44.5757C23.1568 44.8849 23.1941 45.1987 23.3035 45.4905C23.4129 45.7822 23.5912 46.0431 23.8231 46.2512C24.0954 46.1685 24.3375 46.0076 24.5193 45.7886C24.701 45.5696 24.8145 45.3021 24.8456 45.0192ZM23.7985 48.6782C23.8253 48.3516 23.7733 48.0233 23.6468 47.721C23.5204 47.4187 23.3231 47.1512 23.0716 46.9411C22.8423 46.7075 22.5607 46.5321 22.25 46.4292C21.9393 46.3264 21.6085 46.2991 21.2852 46.3497C21.2583 46.6763 21.3103 47.0046 21.4368 47.3069C21.5633 47.6092 21.7606 47.8767 22.0121 48.0868C22.2401 48.3221 22.5217 48.4987 22.8327 48.6016C23.1438 48.7046 23.4751 48.7309 23.7985 48.6782ZM24.1065 48.6166C24.3995 48.7175 24.7144 48.7376 25.0179 48.6747C25.3214 48.6118 25.6024 48.4683 25.8312 48.2593C26.0577 48.0541 26.2217 47.7892 26.3045 47.495C26.3873 47.2009 26.3855 46.8893 26.2994 46.5961C26.0084 46.4949 25.6953 46.4747 25.3937 46.5376C25.0921 46.6005 24.8132 46.7443 24.5869 46.9534C24.3607 47.159 24.196 47.4233 24.1112 47.717C24.0264 48.0106 24.0247 48.322 24.1065 48.6166ZM25.1783 52.5343C25.1483 52.1729 25.0348 51.8234 24.8466 51.5134C24.6585 51.2034 24.4009 50.9413 24.0941 50.7479C23.8133 50.5303 23.4833 50.385 23.1331 50.3249C22.7829 50.2647 22.4234 50.2915 22.086 50.403C22.1205 50.7615 22.2361 51.1074 22.4239 51.4148C22.6117 51.7221 22.8669 51.9827 23.1701 52.177C23.4514 52.3938 23.7808 52.5396 24.1304 52.6018C24.4801 52.664 24.8395 52.6408 25.1783 52.5343ZM25.4986 52.3988C25.8337 52.4715 26.1826 52.4463 26.5037 52.3262C26.8248 52.206 27.1046 51.996 27.3096 51.7212C27.5127 51.4533 27.6393 51.1355 27.6762 50.8015C27.7131 50.4674 27.6588 50.1296 27.5191 49.8239C27.1914 49.7611 26.8527 49.7913 26.5414 49.911C26.23 50.0308 25.9584 50.2353 25.7573 50.5015C25.5462 50.7646 25.4107 51.0801 25.3651 51.4143C25.3195 51.7485 25.3657 52.0888 25.4986 52.3988ZM26.7552 56.4027C26.6319 56.0179 26.4241 55.6654 26.147 55.3713C25.8699 55.0771 25.5305 54.8486 25.1536 54.7026C24.8135 54.536 24.4357 54.4608 24.0577 54.4846C23.6796 54.5084 23.3143 54.6302 22.9977 54.8381C23.121 55.223 23.3288 55.5754 23.6059 55.8695C23.883 56.1637 24.2224 56.3922 24.5992 56.5382C24.9404 56.7013 25.3175 56.7745 25.6949 56.7507C26.0722 56.727 26.4372 56.6072 26.7552 56.4027ZM26.7429 54.025C26.6102 54.3815 26.5689 54.7656 26.6227 55.1421C26.6765 55.5187 26.8237 55.8758 27.0509 56.181C27.413 56.1579 27.7602 56.0288 28.0494 55.8097C28.3386 55.5906 28.5569 55.2913 28.6771 54.949C28.8149 54.5941 28.8601 54.2099 28.8084 53.8327C28.7566 53.4555 28.6097 53.0977 28.3814 52.793C28.0177 52.8153 27.6685 52.9439 27.3772 53.1629C27.0859 53.3819 26.8653 53.6817 26.7429 54.025ZM27.3096 57.9797C26.9536 57.8594 26.5721 57.8359 26.204 57.9117C25.836 57.9875 25.4948 58.1597 25.2152 58.4108C25.3876 58.7781 25.6396 59.1024 25.9528 59.3602C26.2661 59.618 26.6327 59.8029 27.0263 59.9015C27.379 60.025 27.7584 60.0512 28.1247 59.9775C28.491 59.9038 28.8308 59.7329 29.1083 59.4827C28.9386 59.1145 28.6892 58.7887 28.3781 58.5287C28.0671 58.2688 27.7021 58.0812 27.3096 57.9797ZM29.3177 59.224C29.669 59.1487 29.9905 58.972 30.2424 58.7158C30.4942 58.4596 30.6653 58.1351 30.7345 57.7825C30.8193 57.4061 30.8096 57.0145 30.7065 56.6426C30.6033 56.2708 30.4098 55.9302 30.1432 55.6512C29.788 55.7252 29.4626 55.9027 29.2083 56.1615C28.9539 56.4202 28.7819 56.7485 28.7141 57.1049C28.6434 57.4808 28.6611 57.8679 28.7659 58.2357C28.8706 58.6035 29.0596 58.9418 29.3177 59.224ZM32.6687 61.9466C32.3773 61.6205 32.0143 61.3663 31.6082 61.2038C31.2021 61.0414 30.7639 60.9752 30.328 61.0103C29.9344 61.0174 29.551 61.1372 29.2235 61.3555C28.8959 61.5739 28.6379 61.8817 28.48 62.2423C28.7702 62.5707 29.1327 62.8273 29.5388 62.9919C29.945 63.1565 30.3838 63.2246 30.8208 63.1909C31.2161 63.1844 31.6011 63.0634 31.9291 62.8425C32.257 62.6217 32.514 62.3105 32.6687 61.9466ZM32.8043 61.5647C33.1279 61.3235 33.3754 60.9944 33.5174 60.6166C33.6593 60.2387 33.6898 59.828 33.605 59.4334C33.55 59.0004 33.3985 58.5853 33.1619 58.2186C32.9252 57.8519 32.6094 57.5429 32.2375 57.3144C31.9162 57.5576 31.6704 57.8869 31.5287 58.2642C31.387 58.6414 31.3551 59.0511 31.4368 59.4457C31.4918 59.8787 31.6433 60.2938 31.8799 60.6605C32.1166 61.0272 32.4324 61.3362 32.8043 61.5647ZM32.2375 64.4968C32.5576 64.8572 32.9564 65.1391 33.4029 65.3207C33.8493 65.5023 34.3316 65.5787 34.8124 65.544C35.2504 65.5298 35.6748 65.3882 36.0337 65.1366C36.3925 64.885 36.6702 64.5342 36.8328 64.1273C36.5165 63.7663 36.1198 63.4846 35.6747 63.3049C35.2297 63.1252 34.7486 63.0524 34.2703 63.0924C33.8316 63.1032 33.4055 63.2419 33.0444 63.4914C32.6833 63.7408 32.4029 64.0903 32.2375 64.4968ZM36.2908 59.0268C35.9353 59.2915 35.6636 59.6531 35.5085 60.0683C35.3533 60.4835 35.3212 60.9346 35.4161 61.3676C35.4854 61.8498 35.6633 62.31 35.9365 62.7134C36.2097 63.1167 36.5709 63.4528 36.993 63.6961C37.3438 63.4245 37.6116 63.0602 37.7662 62.6444C37.9208 62.2285 37.9559 61.7777 37.8677 61.343C37.8002 60.8618 37.6229 60.4026 37.3494 60.001C37.0759 59.5993 36.7137 59.266 36.2908 59.0268Z" fill="black"/>
<path d="M40.085 43.9844L38.3971 40.5594L36.7093 43.9844L32.9395 44.5264L35.6745 47.1875L35.0215 50.9451L38.3971 49.171L41.7728 50.9451L41.1198 47.1875L43.8548 44.5264L40.085 43.9844Z" fill="black"/>
<path d="M48.389 46.0171C48.389 44.041 47.803 42.1093 46.7052 40.4662C45.6073 38.8232 44.0469 37.5425 42.2212 36.7863C40.3955 36.0301 38.3866 35.8322 36.4484 36.2177C34.5103 36.6033 32.73 37.5549 31.3327 38.9522C29.9353 40.3495 28.9838 42.1298 28.5982 44.0679C28.2127 46.0061 28.4106 48.015 29.1668 49.8407C29.923 51.6664 31.2036 53.2268 32.8467 54.3247C34.4898 55.4226 36.4215 56.0085 38.3976 56.0085C41.0465 56.0053 43.586 54.9516 45.459 53.0785C47.3321 51.2055 48.3858 48.666 48.389 46.0171ZM38.3976 53.5446C36.9089 53.5446 35.4535 53.1031 34.2156 52.276C32.9778 51.4488 32.0129 50.2732 31.4432 48.8978C30.8735 47.5223 30.7244 46.0088 31.0149 44.5486C31.3053 43.0884 32.0222 41.7472 33.075 40.6945C34.1277 39.6417 35.4689 38.9248 36.9291 38.6344C38.3893 38.3439 39.9028 38.493 41.2783 39.0627C42.6537 39.6325 43.8293 40.5973 44.6565 41.8351C45.4836 43.073 45.9251 44.5284 45.9251 46.0171C45.9218 48.0125 45.1277 49.9253 43.7167 51.3362C42.3058 52.7472 40.393 53.5413 38.3976 53.5446Z" fill="black"/>
<path d="M29.2634 28.0115L28.6369 26.7372C28.6047 26.6718 28.5421 26.6392 28.4796 26.6395C28.4175 26.6397 28.3556 26.6723 28.3237 26.7372L27.6972 28.0115L26.2962 28.2158C26.153 28.2367 26.0958 28.4134 26.1994 28.5148L27.2132 29.5067L26.9738 30.9073C26.9545 31.0206 27.0441 31.1125 27.1459 31.1126C27.1727 31.1126 27.2005 31.1062 27.2272 31.0921L28.4803 30.4308L29.7333 31.0921C29.7554 31.1037 29.778 31.1101 29.8004 31.112C29.81 31.1128 29.8196 31.1128 29.8291 31.112C29.9247 31.1038 30.0052 31.0152 29.9867 30.9073L29.7474 29.5067L30.7612 28.5148C30.8648 28.4134 30.8076 28.2367 30.6644 28.2158L29.2634 28.0115Z" fill="#EEBC3B"/>
<path d="M39.6931 28.0115L39.0666 26.7372C39.0344 26.6718 38.9718 26.6392 38.9092 26.6395C38.8472 26.6397 38.7853 26.6723 38.7534 26.7372L38.1268 28.0115L36.7259 28.2158C36.5826 28.2367 36.5255 28.4134 36.6291 28.5148L37.6428 29.5067L37.4035 30.9073C37.3842 31.0206 37.4738 31.1125 37.5756 31.1126C37.6024 31.1126 37.6302 31.1062 37.6569 31.0921L38.91 30.4308L40.163 31.0921C40.1851 31.1037 40.2077 31.1101 40.23 31.112C40.2397 31.1128 40.2493 31.1128 40.2588 31.112C40.3544 31.1038 40.4349 31.0152 40.4164 30.9073L40.1771 29.5067L41.1908 28.5148C41.2945 28.4134 41.2373 28.2367 41.0941 28.2158L39.6931 28.0115Z" fill="#EEBC3B"/>
<path d="M50.1218 28.0115L49.4953 26.7372C49.4631 26.6718 49.4005 26.6392 49.338 26.6395C49.2759 26.6397 49.214 26.6723 49.1821 26.7372L48.5556 28.0115L47.1546 28.2158C47.0114 28.2367 46.9542 28.4134 47.0578 28.5148L48.0716 29.5067L47.8322 30.9073C47.8129 31.0206 47.9025 31.1125 48.0043 31.1126C48.0311 31.1126 48.0589 31.1062 48.0856 31.0921L49.3387 30.4308L50.5917 31.0921C50.6138 31.1037 50.6364 31.1101 50.6588 31.112C50.6684 31.1128 50.678 31.1128 50.6875 31.112C50.7831 31.1038 50.8636 31.0152 50.8451 30.9073L50.6058 29.5067L51.6196 28.5148C51.7232 28.4134 51.666 28.2367 51.5228 28.2158L50.1218 28.0115Z" fill="#EEBC3B"/>
<path d="M40.282 18.2181C40.0934 18.2181 39.9346 18.0643 39.9346 17.8707V16.754L38.8923 15.6919L37.8501 16.754V17.8707C37.8501 18.0593 37.6962 18.2181 37.5027 18.2181C37.3141 18.2181 37.1553 18.0643 37.1553 17.8707V16.6647C37.1553 16.5406 37.2049 16.4264 37.2893 16.3371L38.5648 15.0368C38.6541 14.9475 38.7732 14.8978 38.8923 14.8978C39.0164 14.8978 39.1306 14.9475 39.2199 15.0368L40.4954 16.3371C40.5798 16.4264 40.6294 16.5406 40.6294 16.6647V17.8707C40.6294 18.0593 40.4756 18.2181 40.282 18.2181Z" fill="black"/>
<path d="M40.9059 20.382H36.8809C35.8833 20.382 35.0693 19.5681 35.0693 18.5705V14.5455C35.0693 13.5479 35.8833 12.7339 36.8809 12.7339H40.9109C41.9084 12.7339 42.7224 13.5479 42.7224 14.5455V18.5755C42.7174 19.5681 41.9035 20.382 40.9059 20.382ZM36.8809 13.4238C36.2654 13.4238 35.7642 13.9251 35.7642 14.5405V18.5705C35.7642 19.1859 36.2654 19.6872 36.8809 19.6872H40.9109C41.5263 19.6872 42.0275 19.1859 42.0275 18.5705V14.5455C42.0275 13.93 41.5263 13.4288 40.9109 13.4288H36.8809V13.4238Z" fill="black"/>
</svg>
